<svg xmlns="http://www.w3.org/2000/svg" id="SVG" width="600" height="560"><text x="290" y="50" style="font-size: 17px; font-family: sans-seirf; stroke: black; text-anchor: middle;"> Bar Graph</text><text x="290" y="530" style="font-size: 12px; font-family: sans-seirf; stroke: black; text-anchor: middle;">Gender</text><text x="10" y="95" transform="rotate(-90 30 100)" style="font-size: 12px; font-family: sans-seirf; stroke: black; text-anchor: end;">Frequency</text><g transform="translate(80,80)" fill="none" font-size="10" font-family="sans-serif" text-anchor="end"><path class="domain" stroke="#000" d="M-6,400.5H0.5V0.5H-6"></path><g class="tick" opacity="1" transform="translate(0,400.5)"><line stroke="#000" x2="-6"></line><text fill="#000" x="-9" dy="0.32em">0</text></g><g class="tick" opacity="1" transform="translate(0,362.4047619047619)"><line stroke="#000" x2="-6"></line><text fill="#000" x="-9" dy="0.32em">2</text></g><g class="tick" opacity="1" transform="translate(0,324.3095238095238)"><line stroke="#000" x2="-6"></line><text fill="#000" x="-9" dy="0.32em">4</text></g><g class="tick" opacity="1" transform="translate(0,286.2142857142857)"><line stroke="#000" x2="-6"></line><text fill="#000" x="-9" dy="0.32em">6</text></g><g class="tick" opacity="1" transform="translate(0,248.11904761904762)"><line stroke="#000" x2="-6"></line><text fill="#000" x="-9" dy="0.32em">8</text></g><g class="tick" opacity="1" transform="translate(0,210.02380952380955)"><line stroke="#000" x2="-6"></line><text fill="#000" x="-9" dy="0.32em">10</text></g><g class="tick" opacity="1" transform="translate(0,171.92857142857144)"><line stroke="#000" x2="-6"></line><text fill="#000" x="-9" dy="0.32em">12</text></g><g class="tick" opacity="1" transform="translate(0,133.83333333333337)"><line stroke="#000" x2="-6"></line><text fill="#000" x="-9" dy="0.32em">14</text></g><g class="tick" opacity="1" transform="translate(0,95.73809523809524)"><line stroke="#000" x2="-6"></line><text fill="#000" x="-9" dy="0.32em">16</text></g><g class="tick" opacity="1" transform="translate(0,57.64285714285717)"><line stroke="#000" x2="-6"></line><text fill="#000" x="-9" dy="0.32em">18</text></g><g class="tick" opacity="1" transform="translate(0,19.547619047619094)"><line stroke="#000" x2="-6"></line><text fill="#000" x="-9" dy="0.32em">20</text></g></g><line class="line" x1="80" x2="80" y1="80" y2="480" style="stroke: black;"></line><line class="line" x1="500" x2="500" y1="80" y2="480" style="stroke: black;"></line><line x1="185" x2="185" y1="480" y2="485" style="stroke: black; stroke-width: 0.5;"></line><text x="185" y="495" transform="rotate(0,185,495)  " style="text-anchor: middle; font-family: sans-serif; font-size: 9px;">Male</text><line x1="395" x2="395" y1="480" y2="485" style="stroke: black; stroke-width: 0.5;"></line><text x="395" y="495" transform="rotate(0,395,495)  " style="text-anchor: middle; font-family: sans-serif; font-size: 9px;">Female</text><line x1="80" x2="500" y1="480" y2="480" style="stroke: black;"></line><line x1="80" x2="500" y1="80" y2="80" style="stroke: black;"></line><rect x="515" y="100" width="8" height="8" style="fill: rgb(0, 85, 255);"></rect><text x="530" y="110" style="font-size: 12px; font-family: sans-seirf; stroke: rgb(0, 85, 255); text-anchor: start;">5-1</text><rect x="515" y="120" width="8" height="8" style="fill: rgb(255, 69, 0);"></rect><text x="530" y="130" style="font-size: 12px; font-family: sans-seirf; stroke: rgb(255, 69, 0); text-anchor: start;">5-2</text><rect class="bar" height="304.76190476190476" width="63" x="122" y="175.23809523809524" style="fill: rgb(0, 85, 255);"></rect><rect class="bar" height="266.6666666666667" width="63" x="332" y="213.33333333333331" style="fill: rgb(0, 85, 255);"></rect><rect class="bar" height="228.57142857142856" width="63" x="185" y="251.42857142857144" style="fill: rgb(255, 69, 0);"></rect><rect class="bar" height="342.85714285714283" width="63" x="395" y="137.14285714285717" style="fill: rgb(255, 69, 0);"></rect></svg>