<svg xmlns="http://www.w3.org/2000/svg" id="SVG" width="600" height="560" xlink="http://www.w3.org/1999/xlink"><text x="290" y="50" style="font-size: 17px; font-family: sans-seirf; stroke: black; text-anchor: middle;">(Group  Gender)   Age  Stem and Leaf Plot</text><text class="titleStem" x="40" y="100" style="stroke: rgb(0, 85, 255);">Stem</text><text class="titleStem" x="110" y="100" style="stroke: rgb(0, 85, 255);">Group 1 Leaf</text><line x1="20" x2="580" y1="110" y2="110" style="stroke: black;"></line><text class="stem" x="70" y="130" style="stroke: rgb(0, 85, 255);">2</text><text class="leaf" x="118" y="130" style="stroke: rgb(128, 128, 0);">5</text><text class="leaf" x="126" y="130" style="stroke: rgb(0, 0, 205);">6</text><text class="leaf" x="134" y="130" style="stroke: rgb(0, 0, 205);">6</text><text class="stem" x="70" y="145" style="stroke: rgb(0, 85, 255);">3</text><text class="leaf" x="118" y="145" style="stroke: rgb(0, 170, 0);">2</text><text class="leaf" x="126" y="145" style="stroke: rgb(255, 0, 221);">4</text><text class="leaf" x="134" y="145" style="stroke: rgb(128, 128, 0);">5</text><text class="leaf" x="142" y="145" style="stroke: rgb(0, 0, 205);">6</text><text class="stem" x="70" y="160" style="stroke: rgb(0, 85, 255);">4</text><text class="leaf" x="118" y="160" style="stroke: rgb(0, 170, 0);">2</text><text class="leaf" x="126" y="160" style="stroke: rgb(0, 170, 0);">2</text><text class="leaf" x="134" y="160" style="stroke: rgb(0, 0, 205);">6</text><text class="leaf" x="142" y="160" style="stroke: rgb(135, 206, 235);">9</text><text class="stem" x="70" y="175" style="stroke: rgb(0, 85, 255);">5</text><text class="leaf" x="118" y="175" style="stroke: rgb(255, 0, 221);">4</text><text class="leaf" x="126" y="175" style="stroke: rgb(124, 252, 0);">8</text><text class="stem" x="70" y="190" style="stroke: rgb(0, 85, 255);">6</text><text class="titleStem" x="40" y="240" style="stroke: rgb(255, 69, 0);">Stem</text><text class="titleStem" x="110" y="240" style="stroke: rgb(255, 69, 0);">Group 2 Leaf</text><line x1="20" x2="580" y1="250" y2="250" style="stroke: black;"></line><text class="stem" x="70" y="270" style="stroke: rgb(255, 69, 0);">2</text><text class="leaf" x="118" y="270" style="stroke: rgb(255, 165, 0);">7</text><text class="leaf" x="126" y="270" style="stroke: rgb(124, 252, 0);">8</text><text class="stem" x="70" y="285" style="stroke: rgb(255, 69, 0);">3</text><text class="leaf" x="118" y="285" style="stroke: rgb(255, 69, 0);">1</text><text class="leaf" x="126" y="285" style="stroke: rgb(0, 170, 0);">2</text><text class="leaf" x="134" y="285" style="stroke: rgb(255, 228, 0);">3</text><text class="leaf" x="142" y="285" style="stroke: rgb(255, 0, 221);">4</text><text class="leaf" x="150" y="285" style="stroke: rgb(0, 0, 205);">6</text><text class="leaf" x="158" y="285" style="stroke: rgb(135, 206, 235);">9</text><text class="stem" x="70" y="300" style="stroke: rgb(255, 69, 0);">4</text><text class="leaf" x="118" y="300" style="stroke: rgb(255, 69, 0);">1</text><text class="leaf" x="126" y="300" style="stroke: rgb(0, 170, 0);">2</text><text class="leaf" x="134" y="300" style="stroke: rgb(255, 228, 0);">3</text><text class="leaf" x="142" y="300" style="stroke: rgb(128, 128, 0);">5</text><text class="stem" x="70" y="315" style="stroke: rgb(255, 69, 0);">5</text><text class="leaf" x="118" y="315" style="stroke: rgb(255, 69, 0);">1</text><text class="leaf" x="126" y="315" style="stroke: rgb(255, 228, 0);">3</text><text class="leaf" x="134" y="315" style="stroke: rgb(0, 0, 205);">6</text><text class="stem" x="70" y="330" style="stroke: rgb(255, 69, 0);">6</text><text class="leaf" x="118" y="330" style="stroke: rgb(255, 69, 0);">1</text><text class="leaf" x="126" y="330" style="stroke: rgb(255, 228, 0);">3</text></svg>