<svg xmlns="http://www.w3.org/2000/svg" id="chart" width="600" height="600"> <g transform="translate(40,50)" fill="none" font-size="10" font-family="sans-serif" text-anchor="end"><path class="domain" stroke="#000" d="M-6,0.5H0.5V490.5H-6"></path><g class="tick" opacity="1" transform="translate(0,23.833333333333314)"><line stroke="#000" x2="-6"></line><text fill="#000" x="-9" dy="0.32em">0.8</text></g><g class="tick" opacity="1" transform="translate(0,82.16666666666669)"><line stroke="#000" x2="-6"></line><text fill="#000" x="-9" dy="0.32em">0.7</text></g><g class="tick" opacity="1" transform="translate(0,140.5)"><line stroke="#000" x2="-6"></line><text fill="#000" x="-9" dy="0.32em">0.6</text></g><g class="tick" opacity="1" transform="translate(0,198.83333333333331)"><line stroke="#000" x2="-6"></line><text fill="#000" x="-9" dy="0.32em">0.5</text></g><g class="tick" opacity="1" transform="translate(0,257.16666666666663)"><line stroke="#000" x2="-6"></line><text fill="#000" x="-9" dy="0.32em">0.4</text></g><g class="tick" opacity="1" transform="translate(0,315.5)"><line stroke="#000" x2="-6"></line><text fill="#000" x="-9" dy="0.32em">0.3</text></g><g class="tick" opacity="1" transform="translate(0,373.8333333333333)"><line stroke="#000" x2="-6"></line><text fill="#000" x="-9" dy="0.32em">0.2</text></g><g class="tick" opacity="1" transform="translate(0,432.1666666666667)"><line stroke="#000" x2="-6"></line><text fill="#000" x="-9" dy="0.32em">0.1</text></g><g class="tick" opacity="1" transform="translate(0,490.5)"><line stroke="#000" x2="-6"></line><text fill="#000" x="-9" dy="0.32em">0.0</text></g></g><line x1="40" y1="540" x2="560" y2="540" style="stroke: black;"></line><text class="barname" x="49.38095238095238" y="560" transform="rotate(30,49.38095238095238,560)  " style="font-family: sans-serif; font-size: 8pt; text-anchor: middle;">0</text><text class="barname" x="74.14285714285714" y="560" transform="rotate(30,74.14285714285714,560)  " style="font-family: sans-serif; font-size: 8pt; text-anchor: middle;">1</text><text class="barname" x="98.9047619047619" y="560" transform="rotate(30,98.9047619047619,560)  " style="font-family: sans-serif; font-size: 8pt; text-anchor: middle;">2</text><text class="barname" x="123.66666666666667" y="560" transform="rotate(30,123.66666666666667,560)  " style="font-family: sans-serif; font-size: 8pt; text-anchor: middle;">3</text><text class="barname" x="148.42857142857144" y="560" transform="rotate(30,148.42857142857144,560)  " style="font-family: sans-serif; font-size: 8pt; text-anchor: middle;">4</text><text class="barname" x="173.1904761904762" y="560" transform="rotate(30,173.1904761904762,560)  " style="font-family: sans-serif; font-size: 8pt; text-anchor: middle;">5</text><text class="barname" x="197.95238095238096" y="560" transform="rotate(30,197.95238095238096,560)  " style="font-family: sans-serif; font-size: 8pt; text-anchor: middle;">6</text><text class="barname" x="222.71428571428572" y="560" transform="rotate(30,222.71428571428572,560)  " style="font-family: sans-serif; font-size: 8pt; text-anchor: middle;">7</text><text class="barname" x="247.47619047619048" y="560" transform="rotate(30,247.47619047619048,560)  " style="font-family: sans-serif; font-size: 8pt; text-anchor: middle;">8</text><text class="barname" x="272.23809523809524" y="560" transform="rotate(30,272.23809523809524,560)  " style="font-family: sans-serif; font-size: 8pt; text-anchor: middle;">9</text><text class="barname" x="297" y="560" transform="rotate(30,297,560)  " style="font-family: sans-serif; font-size: 8pt; text-anchor: middle;">10</text><text class="barname" x="321.7619047619048" y="560" transform="rotate(30,321.7619047619048,560)  " style="font-family: sans-serif; font-size: 8pt; text-anchor: middle;">11</text><text class="barname" x="346.5238095238095" y="560" transform="rotate(30,346.5238095238095,560)  " style="font-family: sans-serif; font-size: 8pt; text-anchor: middle;">12</text><text class="barname" x="371.28571428571433" y="560" transform="rotate(30,371.28571428571433,560)  " style="font-family: sans-serif; font-size: 8pt; text-anchor: middle;">13</text><text class="barname" x="396.04761904761904" y="560" transform="rotate(30,396.04761904761904,560)  " style="font-family: sans-serif; font-size: 8pt; text-anchor: middle;">14</text><text class="barname" x="420.80952380952385" y="560" transform="rotate(30,420.80952380952385,560)  " style="font-family: sans-serif; font-size: 8pt; text-anchor: middle;">15</text><text class="barname" x="445.57142857142856" y="560" transform="rotate(30,445.57142857142856,560)  " style="font-family: sans-serif; font-size: 8pt; text-anchor: middle;">16</text><text class="barname" x="470.33333333333337" y="560" transform="rotate(30,470.33333333333337,560)  " style="font-family: sans-serif; font-size: 8pt; text-anchor: middle;">17</text><text class="barname" x="495.0952380952381" y="560" transform="rotate(30,495.0952380952381,560)  " style="font-family: sans-serif; font-size: 8pt; text-anchor: middle;">18</text><text class="barname" x="519.8571428571429" y="560" transform="rotate(30,519.8571428571429,560)  " style="font-family: sans-serif; font-size: 8pt; text-anchor: middle;">19</text><text class="barname" x="544.6190476190476" y="560" transform="rotate(30,544.6190476190476,560)  " style="font-family: sans-serif; font-size: 8pt; text-anchor: middle;">20</text><text x="40" y="25" style="font-size: 13pt; stroke: blue; text-anchor: start;">Geometric Distribution p = 0.80</text><text x="260" y="580" style="font-family: sans-serif; font-size: 9pt; stroke: rgb(0, 85, 255); text-anchor: middle;">Mean = 1.25,  Std Dev = 0.56</text><rect height="0" width="16.50793650793651" x="44.12698412698413" y="540" style="fill: rgb(0, 85, 255);"></rect><rect height="466.66666666666674" width="16.50793650793651" x="68.88888888888889" y="73.33333333333326" style="fill: rgb(0, 85, 255);"></rect><rect height="93.33333333333333" width="16.50793650793651" x="93.65079365079364" y="446.6666666666667" style="fill: rgb(0, 85, 255);"></rect><rect height="18.666666666666664" width="16.50793650793651" x="118.41269841269842" y="521.3333333333334" style="fill: rgb(0, 85, 255);"></rect><rect height="3.733333333333332" width="16.50793650793651" x="143.1746031746032" y="536.2666666666667" style="fill: rgb(0, 85, 255);"></rect><rect height="0.7466666666666664" width="16.50793650793651" x="167.93650793650795" y="539.2533333333333" style="fill: rgb(0, 85, 255);"></rect><rect height="0.1493333333333335" width="16.50793650793651" x="192.6984126984127" y="539.8506666666667" style="fill: rgb(0, 85, 255);"></rect><rect height="0.02986666666666662" width="16.50793650793651" x="217.46031746031747" y="539.9701333333334" style="fill: rgb(0, 85, 255);"></rect><rect height="0.005973333333333329" width="16.50793650793651" x="242.22222222222223" y="539.9940266666666" style="fill: rgb(0, 85, 255);"></rect><rect height="0.0011946666666666666" width="16.50793650793651" x="266.984126984127" y="539.9988053333333" style="fill: rgb(0, 85, 255);"></rect><rect height="0.00023893333333333352" width="16.50793650793651" x="291.74603174603175" y="539.9997610666667" style="fill: rgb(0, 85, 255);"></rect><rect height="0.000047786666666666735" width="16.50793650793651" x="316.5079365079365" y="539.9999522133334" style="fill: rgb(0, 85, 255);"></rect><rect height="0.00000955733333333332" width="16.50793650793651" x="341.2698412698413" y="539.9999904426667" style="fill: rgb(0, 85, 255);"></rect><rect height="0.0000019114666666666656" width="16.50793650793651" x="366.031746031746" y="539.9999980885333" style="fill: rgb(0, 85, 255);"></rect><rect height="3.8229333333333344e-7" width="16.50793650793651" x="390.79365079365084" y="539.9999996177066" style="fill: rgb(0, 85, 255);"></rect><rect height="7.645866666666647e-8" width="16.50793650793651" x="415.55555555555554" y="539.9999999235413" style="fill: rgb(0, 85, 255);"></rect><rect height="1.5291733333333306e-8" width="16.50793650793651" x="440.31746031746036" y="539.9999999847082" style="fill: rgb(0, 85, 255);"></rect><rect height="3.0583466666666637e-9" width="16.50793650793651" x="465.07936507936506" y="539.9999999969416" style="fill: rgb(0, 85, 255);"></rect><rect height="6.116693333333332e-10" width="16.50793650793651" x="489.8412698412699" y="539.9999999993884" style="fill: rgb(0, 85, 255);"></rect><rect height="1.223338666666667e-10" width="16.50793650793651" x="514.6031746031746" y="539.9999999998777" style="fill: rgb(0, 85, 255);"></rect><rect height="2.4466773333333277e-11" width="16.50793650793651" x="539.3650793650794" y="539.9999999999756" style="fill: rgb(0, 85, 255);"></rect></svg>