<svg xmlns="http://www.w3.org/2000/svg" id="SVG" width="600" height="560" xlink="http://www.w3.org/1999/xlink"><text x="290" y="50" style="font-size: 17px; font-family: sans-seirf; stroke: black; text-anchor: middle;">(Group  Gender)   Age  Stem and Leaf Plot</text><text class="titleStem" x="250" y="85" style="stroke: black;">Stem</text><text class="titleStem" x="140" y="85" style="stroke: rgb(0, 85, 255);">Group 1  Leaf</text><text class="titleStem" x="330" y="85" style="stroke: rgb(255, 69, 0);">Group 2  Leaf</text><line x1="20" x2="580" y1="97" y2="97" style="stroke: black;"></line><text class="stem" x="280" y="120">2</text><text class="leaf" x="222" y="120" style="stroke: rgb(128, 128, 0);">5</text><text class="leaf" x="214" y="120" style="stroke: rgb(0, 0, 205);">6</text><text class="leaf" x="206" y="120" style="stroke: rgb(0, 0, 205);">6</text><text class="stem" x="280" y="135">3</text><text class="leaf" x="222" y="135" style="stroke: rgb(0, 170, 0);">2</text><text class="leaf" x="214" y="135" style="stroke: rgb(255, 0, 221);">4</text><text class="leaf" x="206" y="135" style="stroke: rgb(128, 128, 0);">5</text><text class="leaf" x="198" y="135" style="stroke: rgb(0, 0, 205);">6</text><text class="stem" x="280" y="150">4</text><text class="leaf" x="222" y="150" style="stroke: rgb(0, 170, 0);">2</text><text class="leaf" x="214" y="150" style="stroke: rgb(0, 170, 0);">2</text><text class="leaf" x="206" y="150" style="stroke: rgb(0, 0, 205);">6</text><text class="leaf" x="198" y="150" style="stroke: rgb(135, 206, 235);">9</text><text class="stem" x="280" y="165">5</text><text class="leaf" x="222" y="165" style="stroke: rgb(255, 0, 221);">4</text><text class="leaf" x="214" y="165" style="stroke: rgb(124, 252, 0);">8</text><text class="stem" x="280" y="180">6</text><text class="stem" x="280" y="120">2</text><text class="leaf" x="330" y="120" style="stroke: rgb(255, 165, 0);">7</text><text class="leaf" x="340" y="120" style="stroke: rgb(124, 252, 0);">8</text><text class="stem" x="280" y="135">3</text><text class="leaf" x="330" y="135" style="stroke: rgb(255, 69, 0);">1</text><text class="leaf" x="340" y="135" style="stroke: rgb(0, 170, 0);">2</text><text class="leaf" x="350" y="135" style="stroke: rgb(255, 228, 0);">3</text><text class="leaf" x="360" y="135" style="stroke: rgb(255, 0, 221);">4</text><text class="leaf" x="370" y="135" style="stroke: rgb(0, 0, 205);">6</text><text class="leaf" x="380" y="135" style="stroke: rgb(135, 206, 235);">9</text><text class="stem" x="280" y="150">4</text><text class="leaf" x="330" y="150" style="stroke: rgb(255, 69, 0);">1</text><text class="leaf" x="340" y="150" style="stroke: rgb(0, 170, 0);">2</text><text class="leaf" x="350" y="150" style="stroke: rgb(255, 228, 0);">3</text><text class="leaf" x="360" y="150" style="stroke: rgb(128, 128, 0);">5</text><text class="stem" x="280" y="165">5</text><text class="leaf" x="330" y="165" style="stroke: rgb(255, 69, 0);">1</text><text class="leaf" x="340" y="165" style="stroke: rgb(255, 228, 0);">3</text><text class="leaf" x="350" y="165" style="stroke: rgb(0, 0, 205);">6</text><text class="stem" x="280" y="180">6</text><text class="leaf" x="330" y="180" style="stroke: rgb(255, 69, 0);">1</text><text class="leaf" x="340" y="180" style="stroke: rgb(255, 228, 0);">3</text></svg>