<svg xmlns="http://www.w3.org/2000/svg" id="SVG" width="600" height="560"><text x="290" y="50" style="font-size: 17px; font-family: sans-seirf; stroke: black; text-anchor: middle;">(Factor1 : Car)  Miles  Analysis of Variance</text><text x="300" y="80" style="stroke: green; font-size: 9pt; font-family: sans-serif; text-anchor: middle;">H₀: μ₁ = μ₂ = ... = μₖ</text><text x="300" y="100" style="stroke: green; font-size: 9pt; font-family: sans-serif; text-anchor: middle;">[TestStat] = (SSTr/(k-1)) / (SSE/(n-k))  ~  F(2,12) Distribution</text><g transform="translate(100,460)" fill="none" font-size="10" font-family="sans-serif" text-anchor="middle"><path class="domain" stroke="#000" d="M0.5,6V0.5H400.5V6"></path><g class="tick" opacity="1" transform="translate(0.5,0)"><line stroke="#000" y2="6"></line><text fill="#000" y="9" dy="0.71em">0</text></g><g class="tick" opacity="1" transform="translate(40.5,0)"><line stroke="#000" y2="6"></line><text fill="#000" y="9" dy="0.71em">1</text></g><g class="tick" opacity="1" transform="translate(80.5,0)"><line stroke="#000" y2="6"></line><text fill="#000" y="9" dy="0.71em">2</text></g><g class="tick" opacity="1" transform="translate(120.5,0)"><line stroke="#000" y2="6"></line><text fill="#000" y="9" dy="0.71em">3</text></g><g class="tick" opacity="1" transform="translate(160.5,0)"><line stroke="#000" y2="6"></line><text fill="#000" y="9" dy="0.71em">4</text></g><g class="tick" opacity="1" transform="translate(200.5,0)"><line stroke="#000" y2="6"></line><text fill="#000" y="9" dy="0.71em">5</text></g><g class="tick" opacity="1" transform="translate(240.5,0)"><line stroke="#000" y2="6"></line><text fill="#000" y="9" dy="0.71em">6</text></g><g class="tick" opacity="1" transform="translate(280.5,0)"><line stroke="#000" y2="6"></line><text fill="#000" y="9" dy="0.71em">7</text></g><g class="tick" opacity="1" transform="translate(320.5,0)"><line stroke="#000" y2="6"></line><text fill="#000" y="9" dy="0.71em">8</text></g><g class="tick" opacity="1" transform="translate(360.5,0)"><line stroke="#000" y2="6"></line><text fill="#000" y="9" dy="0.71em">9</text></g><g class="tick" opacity="1" transform="translate(400.5,0)"><line stroke="#000" y2="6"></line><text fill="#000" y="9" dy="0.71em">10</text></g></g><g transform="translate(100,100)" fill="none" font-size="10" font-family="sans-serif" text-anchor="end"><path class="domain" stroke="#000" d="M-6,0.5H0.5V360.5H-6"></path><g class="tick" opacity="1" transform="translate(0,0.5)"><line stroke="#000" x2="-6"></line><text fill="#000" x="-9" dy="0.32em">1.8</text></g><g class="tick" opacity="1" transform="translate(0,40.5)"><line stroke="#000" x2="-6"></line><text fill="#000" x="-9" dy="0.32em">1.6</text></g><g class="tick" opacity="1" transform="translate(0,80.50000000000006)"><line stroke="#000" x2="-6"></line><text fill="#000" x="-9" dy="0.32em">1.4</text></g><g class="tick" opacity="1" transform="translate(0,120.5)"><line stroke="#000" x2="-6"></line><text fill="#000" x="-9" dy="0.32em">1.2</text></g><g class="tick" opacity="1" transform="translate(0,160.5)"><line stroke="#000" x2="-6"></line><text fill="#000" x="-9" dy="0.32em">1.0</text></g><g class="tick" opacity="1" transform="translate(0,200.5)"><line stroke="#000" x2="-6"></line><text fill="#000" x="-9" dy="0.32em">0.8</text></g><g class="tick" opacity="1" transform="translate(0,240.5)"><line stroke="#000" x2="-6"></line><text fill="#000" x="-9" dy="0.32em">0.6</text></g><g class="tick" opacity="1" transform="translate(0,280.5)"><line stroke="#000" x2="-6"></line><text fill="#000" x="-9" dy="0.32em">0.4</text></g><g class="tick" opacity="1" transform="translate(0,320.5)"><line stroke="#000" x2="-6"></line><text fill="#000" x="-9" dy="0.32em">0.2</text></g><g class="tick" opacity="1" transform="translate(0,360.5)"><line stroke="#000" x2="-6"></line><text fill="#000" x="-9" dy="0.32em">0.0</text></g></g><line x1="100" y1="460" x2="101" y2="265.7373138448285" style="stroke: black; stroke-width: 2px;"></line><line x1="101" y1="265.7373138448285" x2="102" y2="271.2873011061079" style="stroke: black; stroke-width: 2px;"></line><line x1="102" y1="271.2873011061079" x2="103" y2="276.656814618676" style="stroke: black; stroke-width: 2px;"></line><line x1="103" y1="276.656814618676" x2="104" y2="281.85242980019075" style="stroke: black; stroke-width: 2px;"></line><line x1="104" y1="281.85242980019075" x2="105" y2="286.8804569546976" style="stroke: black; stroke-width: 2px;"></line><line x1="105" y1="286.8804569546976" x2="106" y2="291.74695298331665" style="stroke: black; stroke-width: 2px;"></line><line x1="106" y1="291.74695298331665" x2="107" y2="296.45773253287723" style="stroke: black; stroke-width: 2px;"></line><line x1="107" y1="296.45773253287723" x2="108" y2="301.01837861160595" style="stroke: black; stroke-width: 2px;"></line><line x1="108" y1="301.01837861160595" x2="109" y2="305.4342526993595" style="stroke: black; stroke-width: 2px;"></line><line x1="109" y1="305.4342526993595" x2="110" y2="309.71050437836857" style="stroke: black; stroke-width: 2px;"></line><line x1="110" y1="309.71050437836857" x2="111" y2="313.85208050903645" style="stroke: black; stroke-width: 2px;"></line><line x1="111" y1="313.85208050903645" x2="112" y2="317.8637339739762" style="stroke: black; stroke-width: 2px;"></line><line x1="112" y1="317.8637339739762" x2="113" y2="321.7500320122142" style="stroke: black; stroke-width: 2px;"></line><line x1="113" y1="321.7500320122142" x2="114" y2="325.51536416428746" style="stroke: black; stroke-width: 2px;"></line><line x1="114" y1="325.51536416428746" x2="115" y2="329.16394984783744" style="stroke: black; stroke-width: 2px;"></line><line x1="115" y1="329.16394984783744" x2="116" y2="332.6998455822472" style="stroke: black; stroke-width: 2px;"></line><line x1="116" y1="332.6998455822472" x2="117" y2="336.12695187986526" style="stroke: black; stroke-width: 2px;"></line><line x1="117" y1="336.12695187986526" x2="118" y2="339.4490198204237" style="stroke: black; stroke-width: 2px;"></line><line x1="118" y1="339.4490198204237" x2="119" y2="342.66965732436626" style="stroke: black; stroke-width: 2px;"></line><line x1="119" y1="342.66965732436626" x2="120" y2="345.7923351399686" style="stroke: black; stroke-width: 2px;"></line><line x1="120" y1="345.7923351399686" x2="121" y2="348.82039255834326" style="stroke: black; stroke-width: 2px;"></line><line x1="121" y1="348.82039255834326" x2="122" y2="351.7570428696755" style="stroke: black; stroke-width: 2px;"></line><line x1="122" y1="351.7570428696755" x2="123" y2="354.60537857333696" style="stroke: black; stroke-width: 2px;"></line><line x1="123" y1="354.60537857333696" x2="124" y2="357.36837635385905" style="stroke: black; stroke-width: 2px;"></line><line x1="124" y1="357.36837635385905" x2="125" y2="360.048901834121" style="stroke: black; stroke-width: 2px;"></line><line x1="125" y1="360.048901834121" x2="126.00000000000001" y2="362.64971411652067" style="stroke: black; stroke-width: 2px;"></line><line x1="126.00000000000001" y1="362.64971411652067" x2="127.00000000000001" y2="365.1734701223328" style="stroke: black; stroke-width: 2px;"></line><line x1="127.00000000000001" y1="365.1734701223328" x2="128" y2="367.62272873893653" style="stroke: black; stroke-width: 2px;"></line><line x1="128" y1="367.62272873893653" x2="129" y2="369.9999547840936" style="stroke: black; stroke-width: 2px;"></line><line x1="129" y1="369.9999547840936" x2="130" y2="372.30752279598744" style="stroke: black; stroke-width: 2px;"></line><line x1="130" y1="372.30752279598744" x2="131" y2="374.5477206572905" style="stroke: black; stroke-width: 2px;"></line><line x1="131" y1="374.5477206572905" x2="132" y2="376.72275306110396" style="stroke: black; stroke-width: 2px;"></line><line x1="132" y1="376.72275306110396" x2="133" y2="378.8347448262179" style="stroke: black; stroke-width: 2px;"></line><line x1="133" y1="378.8347448262179" x2="134" y2="380.8857440687615" style="stroke: black; stroke-width: 2px;"></line><line x1="134" y1="380.8857440687615" x2="135" y2="382.87772523696157" style="stroke: black; stroke-width: 2px;"></line><line x1="135" y1="382.87772523696157" x2="136" y2="384.8125920153818" style="stroke: black; stroke-width: 2px;"></line><line x1="136" y1="384.8125920153818" x2="137" y2="386.69218010470786" style="stroke: black; stroke-width: 2px;"></line><line x1="137" y1="386.69218010470786" x2="138.00000000000003" y2="388.5182598828315" style="stroke: black; stroke-width: 2px;"></line><line x1="138.00000000000003" y1="388.5182598828315" x2="139.00000000000003" y2="390.29253895270637" style="stroke: black; stroke-width: 2px;"></line><line x1="139.00000000000003" y1="390.29253895270637" x2="140" y2="392.0166645821775" style="stroke: black; stroke-width: 2px;"></line><line x1="140" y1="392.0166645821775" x2="141" y2="393.6922260407267" style="stroke: black; stroke-width: 2px;"></line><line x1="141" y1="393.6922260407267" x2="142" y2="395.32075683783756" style="stroke: black; stroke-width: 2px;"></line><line x1="142" y1="395.32075683783756" x2="143" y2="396.90373686745033" style="stroke: black; stroke-width: 2px;"></line><line x1="143" y1="396.90373686745033" x2="144" y2="398.4425944627603" style="stroke: black; stroke-width: 2px;"></line><line x1="144" y1="398.4425944627603" x2="145" y2="399.93870836540697" style="stroke: black; stroke-width: 2px;"></line><line x1="145" y1="399.93870836540697" x2="146" y2="401.3934096129031" style="stroke: black; stroke-width: 2px;"></line><line x1="146" y1="401.3934096129031" x2="147" y2="402.8079833479706" style="stroke: black; stroke-width: 2px;"></line><line x1="147" y1="402.8079833479706" x2="148" y2="404.18367055326945" style="stroke: black; stroke-width: 2px;"></line><line x1="148" y1="404.18367055326945" x2="149" y2="405.5216697148427" style="stroke: black; stroke-width: 2px;"></line><line x1="149" y1="405.5216697148427" x2="150" y2="406.8231384174386" style="stroke: black; stroke-width: 2px;"></line><line x1="150" y1="406.8231384174386" x2="150.99999999999997" y2="408.0891948747234" style="stroke: black; stroke-width: 2px;"></line><line x1="150.99999999999997" y1="408.0891948747234" x2="151.99999999999997" y2="409.3209193972517" style="stroke: black; stroke-width: 2px;"></line><line x1="151.99999999999997" y1="409.3209193972517" x2="152.99999999999997" y2="410.51935580093084" style="stroke: black; stroke-width: 2px;"></line><line x1="152.99999999999997" y1="410.51935580093084" x2="153.99999999999997" y2="411.68551275857965" style="stroke: black; stroke-width: 2px;"></line><line x1="153.99999999999997" y1="411.68551275857965" x2="154.99999999999997" y2="412.82036509706813" style="stroke: black; stroke-width: 2px;"></line><line x1="154.99999999999997" y1="412.82036509706813" x2="155.99999999999997" y2="413.9248550424006" style="stroke: black; stroke-width: 2px;"></line><line x1="155.99999999999997" y1="413.9248550424006" x2="156.99999999999994" y2="414.99989341499975" style="stroke: black; stroke-width: 2px;"></line><line x1="156.99999999999994" y1="414.99989341499975" x2="157.99999999999994" y2="416.0463607773413" style="stroke: black; stroke-width: 2px;"></line><line x1="157.99999999999994" y1="416.0463607773413" x2="158.99999999999994" y2="417.0651085359912" style="stroke: black; stroke-width: 2px;"></line><line x1="158.99999999999994" y1="417.0651085359912" x2="159.99999999999994" y2="418.05696000000006" style="stroke: black; stroke-width: 2px;"></line><line x1="159.99999999999994" y1="418.05696000000006" x2="160.99999999999994" y2="419.0227113975228" style="stroke: black; stroke-width: 2px;"></line><line x1="160.99999999999994" y1="419.0227113975228" x2="161.99999999999994" y2="419.96313285244213" style="stroke: black; stroke-width: 2px;"></line><line x1="161.99999999999994" y1="419.96313285244213" x2="162.99999999999994" y2="420.8789693226965" style="stroke: black; stroke-width: 2px;"></line><line x1="162.99999999999994" y1="420.8789693226965" x2="163.99999999999994" y2="421.77094150193295" style="stroke: black; stroke-width: 2px;"></line><line x1="163.99999999999994" y1="421.77094150193295" x2="164.99999999999994" y2="422.63974668603294" style="stroke: black; stroke-width: 2px;"></line><line x1="164.99999999999994" y1="422.63974668603294" x2="165.99999999999991" y2="423.4860596059895" style="stroke: black; stroke-width: 2px;"></line><line x1="165.99999999999991" y1="423.4860596059895" x2="166.99999999999991" y2="424.3105332285458" style="stroke: black; stroke-width: 2px;"></line><line x1="166.99999999999991" y1="424.3105332285458" x2="167.99999999999991" y2="425.11379952594314" style="stroke: black; stroke-width: 2px;"></line><line x1="167.99999999999991" y1="425.11379952594314" x2="168.99999999999991" y2="425.8964702160653" style="stroke: black; stroke-width: 2px;"></line><line x1="168.99999999999991" y1="425.8964702160653" x2="169.99999999999991" y2="426.65913747420865" style="stroke: black; stroke-width: 2px;"></line><line x1="169.99999999999991" y1="426.65913747420865" x2="170.99999999999991" y2="427.40237461765264" style="stroke: black; stroke-width: 2px;"></line><line x1="170.99999999999991" y1="427.40237461765264" x2="171.99999999999991" y2="428.12673676415335" style="stroke: black; stroke-width: 2px;"></line><line x1="171.99999999999991" y1="428.12673676415335" x2="172.9999999999999" y2="428.8327614654323" style="stroke: black; stroke-width: 2px;"></line><line x1="172.9999999999999" y1="428.8327614654323" x2="173.9999999999999" y2="429.52096931668643" style="stroke: black; stroke-width: 2px;"></line><line x1="173.9999999999999" y1="429.52096931668643" x2="174.9999999999999" y2="430.19186454309914" style="stroke: black; stroke-width: 2px;"></line><line x1="174.9999999999999" y1="430.19186454309914" x2="175.9999999999999" y2="430.8459355642895" style="stroke: black; stroke-width: 2px;"></line><line x1="175.9999999999999" y1="430.8459355642895" x2="176.9999999999999" y2="431.48365553759635" style="stroke: black; stroke-width: 2px;"></line><line x1="176.9999999999999" y1="431.48365553759635" x2="177.9999999999999" y2="432.10548288105383" style="stroke: black; stroke-width: 2px;"></line><line x1="177.9999999999999" y1="432.10548288105383" x2="178.9999999999999" y2="432.711861776878" style="stroke: black; stroke-width: 2px;"></line><line x1="178.9999999999999" y1="432.711861776878" x2="179.9999999999999" y2="433.30322265625" style="stroke: black; stroke-width: 2px;"></line><line x1="179.9999999999999" y1="433.30322265625" x2="180.9999999999999" y2="433.87998266614494" style="stroke: black; stroke-width: 2px;"></line><line x1="180.9999999999999" y1="433.87998266614494" x2="181.99999999999986" y2="434.442546118925" style="stroke: black; stroke-width: 2px;"></line><line x1="181.99999999999986" y1="434.442546118925" x2="182.99999999999986" y2="434.9913049253846" style="stroke: black; stroke-width: 2px;"></line><line x1="182.99999999999986" y1="434.9913049253846" x2="183.99999999999986" y2="435.5266390119045" style="stroke: black; stroke-width: 2px;"></line><line x1="183.99999999999986" y1="435.5266390119045" x2="184.99999999999986" y2="436.0489167223455" style="stroke: black; stroke-width: 2px;"></line><line x1="184.99999999999986" y1="436.0489167223455" x2="185.99999999999986" y2="436.55849520528386" style="stroke: black; stroke-width: 2px;"></line><line x1="185.99999999999986" y1="436.55849520528386" x2="186.99999999999986" y2="437.05572078716693" style="stroke: black; stroke-width: 2px;"></line><line x1="186.99999999999986" y1="437.05572078716693" x2="187.99999999999986" y2="437.54092933194045" style="stroke: black; stroke-width: 2px;"></line><line x1="187.99999999999986" y1="437.54092933194045" x2="188.99999999999983" y2="438.0144465876789" style="stroke: black; stroke-width: 2px;"></line><line x1="188.99999999999983" y1="438.0144465876789" x2="189.99999999999983" y2="438.47658852072476" style="stroke: black; stroke-width: 2px;"></line><line x1="189.99999999999983" y1="438.47658852072476" x2="190.99999999999983" y2="438.92766163782386" style="stroke: black; stroke-width: 2px;"></line><line x1="190.99999999999983" y1="438.92766163782386" x2="191.99999999999983" y2="439.3679632967223" style="stroke: black; stroke-width: 2px;"></line><line x1="191.99999999999983" y1="439.3679632967223" x2="192.99999999999983" y2="439.79778200567057" style="stroke: black; stroke-width: 2px;"></line><line x1="192.99999999999983" y1="439.79778200567057" x2="193.99999999999983" y2="440.21739771226464" style="stroke: black; stroke-width: 2px;"></line><line x1="193.99999999999983" y1="440.21739771226464" x2="194.99999999999983" y2="440.62708208203173" style="stroke: black; stroke-width: 2px;"></line><line x1="194.99999999999983" y1="440.62708208203173" x2="195.99999999999983" y2="441.027098767156" style="stroke: black; stroke-width: 2px;"></line><line x1="195.99999999999983" y1="441.027098767156" x2="196.99999999999983" y2="441.4177036657201" style="stroke: black; stroke-width: 2px;"></line><line x1="196.99999999999983" y1="441.4177036657201" x2="197.9999999999998" y2="441.79914517182425" style="stroke: black; stroke-width: 2px;"></line><line x1="197.9999999999998" y1="441.79914517182425" x2="198.9999999999998" y2="442.17166441692984" style="stroke: black; stroke-width: 2px;"></line><line x1="198.9999999999998" y1="442.17166441692984" x2="199.9999999999998" y2="442.53549550275994" style="stroke: black; stroke-width: 2px;"></line><line x1="199.9999999999998" y1="442.53549550275994" x2="200.9999999999998" y2="442.8908657260762" style="stroke: black; stroke-width: 2px;"></line><line x1="200.9999999999998" y1="442.8908657260762" x2="201.9999999999998" y2="443.23799579563683" style="stroke: black; stroke-width: 2px;"></line><line x1="201.9999999999998" y1="443.23799579563683" x2="202.9999999999998" y2="443.5771000416319" style="stroke: black; stroke-width: 2px;"></line><line x1="202.9999999999998" y1="443.5771000416319" x2="203.9999999999998" y2="443.9083866178751" style="stroke: black; stroke-width: 2px;"></line><line x1="203.9999999999998" y1="443.9083866178751" x2="204.9999999999998" y2="444.2320576970241" style="stroke: black; stroke-width: 2px;"></line><line x1="204.9999999999998" y1="444.2320576970241" x2="205.99999999999977" y2="444.5483096590894" style="stroke: black; stroke-width: 2px;"></line><line x1="205.99999999999977" y1="444.5483096590894" x2="206.99999999999977" y2="444.85733327347936" style="stroke: black; stroke-width: 2px;"></line><line x1="206.99999999999977" y1="444.85733327347936" x2="207.99999999999977" y2="445.1593138748227" style="stroke: black; stroke-width: 2px;"></line><line x1="207.99999999999977" y1="445.1593138748227" x2="208.99999999999977" y2="445.45443153279706" style="stroke: black; stroke-width: 2px;"></line><line x1="208.99999999999977" y1="445.45443153279706" x2="209.99999999999977" y2="445.7428612161842" style="stroke: black; stroke-width: 2px;"></line><line x1="209.99999999999977" y1="445.7428612161842" x2="210.99999999999977" y2="446.02477295136504" style="stroke: black; stroke-width: 2px;"></line><line x1="210.99999999999977" y1="446.02477295136504" x2="211.99999999999977" y2="446.3003319754571" style="stroke: black; stroke-width: 2px;"></line><line x1="211.99999999999977" y1="446.3003319754571" x2="212.99999999999974" y2="446.56969888428983" style="stroke: black; stroke-width: 2px;"></line><line x1="212.99999999999974" y1="446.56969888428983" x2="213.99999999999974" y2="446.83302977540734" style="stroke: black; stroke-width: 2px;"></line><line x1="213.99999999999974" y1="446.83302977540734" x2="214.99999999999974" y2="447.09047638627663" style="stroke: black; stroke-width: 2px;"></line><line x1="214.99999999999974" y1="447.09047638627663" x2="215.99999999999974" y2="447.3421862278772" style="stroke: black; stroke-width: 2px;"></line><line x1="215.99999999999974" y1="447.3421862278772" x2="216.99999999999974" y2="447.58830271383795" style="stroke: black; stroke-width: 2px;"></line><line x1="216.99999999999974" y1="447.58830271383795" x2="217.99999999999974" y2="447.8289652852808" style="stroke: black; stroke-width: 2px;"></line><line x1="217.99999999999974" y1="447.8289652852808" x2="218.99999999999972" y2="448.064309531527" style="stroke: black; stroke-width: 2px;"></line><line x1="218.99999999999972" y1="448.064309531527" x2="219.99999999999972" y2="448.294467306813" style="stroke: black; stroke-width: 2px;"></line><line x1="219.99999999999972" y1="448.294467306813" x2="220.99999999999972" y2="448.5195668431583" style="stroke: black; stroke-width: 2px;"></line><line x1="220.99999999999972" y1="448.5195668431583" x2="221.99999999999972" y2="448.7397328595237" style="stroke: black; stroke-width: 2px;"></line><line x1="221.99999999999972" y1="448.7397328595237" x2="222.99999999999972" y2="448.9550866673899" style="stroke: black; stroke-width: 2px;"></line><line x1="222.99999999999972" y1="448.9550866673899" x2="223.99999999999972" y2="449.16574627288435" style="stroke: black; stroke-width: 2px;"></line><line x1="223.99999999999972" y1="449.16574627288435" x2="224.99999999999972" y2="449.3718264755785" style="stroke: black; stroke-width: 2px;"></line><line x1="224.99999999999972" y1="449.3718264755785" x2="225.99999999999972" y2="449.57343896407144" style="stroke: black; stroke-width: 2px;"></line><line x1="225.99999999999972" y1="449.57343896407144" x2="226.99999999999972" y2="449.7706924084747" style="stroke: black; stroke-width: 2px;"></line><line x1="226.99999999999972" y1="449.7706924084747" x2="227.99999999999972" y2="449.96369254990475" style="stroke: black; stroke-width: 2px;"></line><line x1="227.99999999999972" y1="449.96369254990475" x2="228.99999999999972" y2="450.1525422870894" style="stroke: black; stroke-width: 2px;"></line><line x1="228.99999999999972" y1="450.1525422870894" x2="229.99999999999972" y2="450.337341760188" style="stroke: black; stroke-width: 2px;"></line><line x1="229.99999999999972" y1="450.337341760188" x2="230.99999999999972" y2="450.5181884319224" style="stroke: black; stroke-width: 2px;"></line><line x1="230.99999999999972" y1="450.5181884319224" x2="231.9999999999997" y2="450.6951771661113" style="stroke: black; stroke-width: 2px;"></line><line x1="231.9999999999997" y1="450.6951771661113" x2="232.9999999999997" y2="450.8684003036992" style="stroke: black; stroke-width: 2px;"></line><line x1="232.9999999999997" y1="450.8684003036992" x2="233.9999999999997" y2="451.0379477363646" style="stroke: black; stroke-width: 2px;"></line><line x1="233.9999999999997" y1="451.0379477363646" x2="234.9999999999997" y2="451.203906977792" style="stroke: black; stroke-width: 2px;"></line><line x1="234.9999999999997" y1="451.203906977792" x2="235.9999999999997" y2="451.3663632326874" style="stroke: black; stroke-width: 2px;"></line><line x1="235.9999999999997" y1="451.3663632326874" x2="236.9999999999997" y2="451.5253994636141" style="stroke: black; stroke-width: 2px;"></line><line x1="236.9999999999997" y1="451.5253994636141" x2="237.99999999999966" y2="451.68109645572423" style="stroke: black; stroke-width: 2px;"></line><line x1="237.99999999999966" y1="451.68109645572423" x2="238.99999999999966" y2="451.8335328794556" style="stroke: black; stroke-width: 2px;"></line><line x1="238.99999999999966" y1="451.8335328794556" x2="239.99999999999966" y2="451.9827853512661" style="stroke: black; stroke-width: 2px;"></line><line x1="239.99999999999966" y1="451.9827853512661" x2="240.99999999999966" y2="452.12892849246856" style="stroke: black; stroke-width: 2px;"></line><line x1="240.99999999999966" y1="452.12892849246856" x2="241.99999999999966" y2="452.27203498623265" style="stroke: black; stroke-width: 2px;"></line><line x1="241.99999999999966" y1="452.27203498623265" x2="242.99999999999966" y2="452.412175632815" style="stroke: black; stroke-width: 2px;"></line><line x1="242.99999999999966" y1="452.412175632815" x2="243.99999999999966" y2="452.5494194030762" style="stroke: black; stroke-width: 2px;"></line><line x1="243.99999999999966" y1="452.5494194030762" x2="244.99999999999963" y2="452.68383349034303" style="stroke: black; stroke-width: 2px;"></line><line x1="244.99999999999963" y1="452.68383349034303" x2="245.99999999999963" y2="452.81548336067124" style="stroke: black; stroke-width: 2px;"></line><line x1="245.99999999999963" y1="452.81548336067124" x2="246.99999999999963" y2="452.9444328015611" style="stroke: black; stroke-width: 2px;"></line><line x1="246.99999999999963" y1="452.9444328015611" x2="247.99999999999963" y2="453.0707439691784" style="stroke: black; stroke-width: 2px;"></line><line x1="247.99999999999963" y1="453.0707439691784" x2="248.99999999999963" y2="453.1944774341301" style="stroke: black; stroke-width: 2px;"></line><line x1="248.99999999999963" y1="453.1944774341301" x2="249.99999999999963" y2="453.31569222584176" style="stroke: black; stroke-width: 2px;"></line><line x1="249.99999999999963" y1="453.31569222584176" x2="250.9999999999996" y2="453.43444587558406" style="stroke: black; stroke-width: 2px;"></line><line x1="250.9999999999996" y1="453.43444587558406" x2="251.9999999999996" y2="453.5507944581917" style="stroke: black; stroke-width: 2px;"></line><line x1="251.9999999999996" y1="453.5507944581917" x2="252.9999999999996" y2="453.6647926325187" style="stroke: black; stroke-width: 2px;"></line><line x1="252.9999999999996" y1="453.6647926325187" x2="253.9999999999996" y2="453.77649368067017" style="stroke: black; stroke-width: 2px;"></line><line x1="253.9999999999996" y1="453.77649368067017" x2="254.9999999999996" y2="453.8859495460521" style="stroke: black; stroke-width: 2px;"></line><line x1="254.9999999999996" y1="453.8859495460521" x2="255.9999999999996" y2="453.99321087027613" style="stroke: black; stroke-width: 2px;"></line><line x1="255.9999999999996" y1="453.99321087027613" x2="256.9999999999996" y2="454.09832702895784" style="stroke: black; stroke-width: 2px;"></line><line x1="256.9999999999996" y1="454.09832702895784" x2="257.9999999999996" y2="454.2013461664432" style="stroke: black; stroke-width: 2px;"></line><line x1="257.9999999999996" y1="454.2013461664432" x2="258.9999999999996" y2="454.30231522949913" style="stroke: black; stroke-width: 2px;"></line><line x1="258.9999999999996" y1="454.30231522949913" x2="259.9999999999996" y2="454.40128" style="stroke: black; stroke-width: 2px;"></line><line x1="259.9999999999996" y1="454.40128" x2="260.9999999999996" y2="454.4982851266443" style="stroke: black; stroke-width: 2px;"></line><line x1="260.9999999999996" y1="454.4982851266443" x2="261.9999999999996" y2="454.59337415573106" style="stroke: black; stroke-width: 2px;"></line><line x1="261.9999999999996" y1="454.59337415573106" x2="262.9999999999996" y2="454.6865895610264" style="stroke: black; stroke-width: 2px;"></line><line x1="262.9999999999996" y1="454.6865895610264" x2="263.99999999999966" y2="454.77797277275005" style="stroke: black; stroke-width: 2px;"></line><line x1="263.99999999999966" y1="454.77797277275005" x2="264.99999999999966" y2="454.86756420570936" style="stroke: black; stroke-width: 2px;"></line><line x1="264.99999999999966" y1="454.86756420570936" x2="265.99999999999966" y2="454.95540328660724" style="stroke: black; stroke-width: 2px;"></line><line x1="265.99999999999966" y1="454.95540328660724" x2="266.99999999999966" y2="455.0415284805516" style="stroke: black; stroke-width: 2px;"></line><line x1="266.99999999999966" y1="455.0415284805516" x2="267.99999999999966" y2="455.1259773167907" style="stroke: black; stroke-width: 2px;"></line><line x1="267.99999999999966" y1="455.1259773167907" x2="268.9999999999997" y2="455.20878641369825" style="stroke: black; stroke-width: 2px;"></line><line x1="268.9999999999997" y1="455.20878641369825" x2="269.9999999999997" y2="455.2899915030338" style="stroke: black; stroke-width: 2px;"></line><line x1="269.9999999999997" y1="455.2899915030338" x2="270.9999999999997" y2="455.3696274534986" style="stroke: black; stroke-width: 2px;"></line><line x1="270.9999999999997" y1="455.3696274534986" x2="271.9999999999998" y2="455.4477282936117" style="stroke: black; stroke-width: 2px;"></line><line x1="271.9999999999998" y1="455.4477282936117" x2="272.9999999999998" y2="455.5243272339252" style="stroke: black; stroke-width: 2px;"></line><line x1="272.9999999999998" y1="455.5243272339252" x2="273.9999999999998" y2="455.5994566886003" style="stroke: black; stroke-width: 2px;"></line><line x1="273.9999999999998" y1="455.5994566886003" x2="274.9999999999998" y2="455.6731482963648" style="stroke: black; stroke-width: 2px;"></line><line x1="274.9999999999998" y1="455.6731482963648" x2="275.9999999999998" y2="455.74543294086936" style="stroke: black; stroke-width: 2px;"></line><line x1="275.9999999999998" y1="455.74543294086936" x2="276.99999999999983" y2="455.81634077046294" style="stroke: black; stroke-width: 2px;"></line><line x1="276.99999999999983" y1="455.81634077046294" x2="277.99999999999983" y2="455.88590121740407" style="stroke: black; stroke-width: 2px;"></line><line x1="277.99999999999983" y1="455.88590121740407" x2="278.99999999999983" y2="455.95414301652636" style="stroke: black; stroke-width: 2px;"></line><line x1="278.99999999999983" y1="455.95414301652636" x2="279.9999999999999" y2="456.0210942233739" style="stroke: black; stroke-width: 2px;"></line><line x1="279.9999999999999" y1="456.0210942233739" x2="280.9999999999999" y2="456.086782231824" style="stroke: black; stroke-width: 2px;"></line><line x1="280.9999999999999" y1="456.086782231824" x2="281.9999999999999" y2="456.1512337912119" style="stroke: black; stroke-width: 2px;"></line><line x1="281.9999999999999" y1="456.1512337912119" x2="282.9999999999999" y2="456.21447502297355" style="stroke: black; stroke-width: 2px;"></line><line x1="282.9999999999999" y1="456.21447502297355" x2="283.9999999999999" y2="456.27653143682033" style="stroke: black; stroke-width: 2px;"></line><line x1="283.9999999999999" y1="456.27653143682033" x2="284.99999999999994" y2="456.3374279464604" style="stroke: black; stroke-width: 2px;"></line><line x1="284.99999999999994" y1="456.3374279464604" x2="285.99999999999994" y2="456.39718888488034" style="stroke: black; stroke-width: 2px;"></line><line x1="285.99999999999994" y1="456.39718888488034" x2="286.99999999999994" y2="456.45583801920037" style="stroke: black; stroke-width: 2px;"></line><line x1="286.99999999999994" y1="456.45583801920037" x2="288" y2="456.5133985651159" style="stroke: black; stroke-width: 2px;"></line><line x1="288" y1="456.5133985651159" x2="289" y2="456.56989320093805" style="stroke: black; stroke-width: 2px;"></line><line x1="289" y1="456.56989320093805" x2="290" y2="456.62534408124503" style="stroke: black; stroke-width: 2px;"></line><line x1="290" y1="456.62534408124503" x2="291" y2="456.67977285015576" style="stroke: black; stroke-width: 2px;"></line><line x1="291" y1="456.67977285015576" x2="292" y2="456.733200654238" style="stroke: black; stroke-width: 2px;"></line><line x1="292" y1="456.733200654238" x2="293.00000000000006" y2="456.7856481550607" style="stroke: black; stroke-width: 2px;"></line><line x1="293.00000000000006" y1="456.7856481550607" x2="294.00000000000006" y2="456.83713554140166" style="stroke: black; stroke-width: 2px;"></line><line x1="294.00000000000006" y1="456.83713554140166" x2="295.00000000000006" y2="456.88768254112125" style="stroke: black; stroke-width: 2px;"></line><line x1="295.00000000000006" y1="456.88768254112125" x2="296.0000000000001" y2="456.93730843271084" style="stroke: black; stroke-width: 2px;"></line><line x1="296.0000000000001" y1="456.93730843271084" x2="297.0000000000001" y2="456.98603205652694" style="stroke: black; stroke-width: 2px;"></line><line x1="297.0000000000001" y1="456.98603205652694" x2="298.0000000000001" y2="457.03387182571936" style="stroke: black; stroke-width: 2px;"></line><line x1="298.0000000000001" y1="457.03387182571936" x2="299.0000000000001" y2="457.08084573686256" style="stroke: black; stroke-width: 2px;"></line><line x1="299.0000000000001" y1="457.08084573686256" x2="300.0000000000001" y2="457.1269713802994" style="stroke: black; stroke-width: 2px;"></line><line x1="300.0000000000001" y1="457.1269713802994" x2="301.00000000000017" y2="457.1722659502049" style="stroke: black; stroke-width: 2px;"></line><line x1="301.00000000000017" y1="457.1722659502049" x2="302.00000000000017" y2="457.21674625437925" style="stroke: black; stroke-width: 2px;"></line><line x1="302.00000000000017" y1="457.21674625437925" x2="303.00000000000017" y2="457.2604287237763" style="stroke: black; stroke-width: 2px;"></line><line x1="303.00000000000017" y1="457.2604287237763" x2="304.0000000000002" y2="457.30332942177745" style="stroke: black; stroke-width: 2px;"></line><line x1="304.0000000000002" y1="457.30332942177745" x2="305.0000000000002" y2="457.3454640532165" style="stroke: black; stroke-width: 2px;"></line><line x1="305.0000000000002" y1="457.3454640532165" x2="306.0000000000002" y2="457.3868479731633" style="stroke: black; stroke-width: 2px;"></line><line x1="306.0000000000002" y1="457.3868479731633" x2="307.0000000000002" y2="457.4274961954731" style="stroke: black; stroke-width: 2px;"></line><line x1="307.0000000000002" y1="457.4274961954731" x2="308.0000000000003" y2="457.46742340110904" style="stroke: black; stroke-width: 2px;"></line><line x1="308.0000000000003" y1="457.46742340110904" x2="309.0000000000003" y2="457.5066439462429" style="stroke: black; stroke-width: 2px;"></line><line x1="309.0000000000003" y1="457.5066439462429" x2="310.0000000000003" y2="457.54517187014176" style="stroke: black; stroke-width: 2px;"></line><line x1="310.0000000000003" y1="457.54517187014176" x2="311.00000000000034" y2="457.58302090284616" style="stroke: black; stroke-width: 2px;"></line><line x1="311.00000000000034" y1="457.58302090284616" x2="312.00000000000034" y2="457.62020447264564" style="stroke: black; stroke-width: 2px;"></line><line x1="312.00000000000034" y1="457.62020447264564" x2="313.00000000000034" y2="457.6567357133574" style="stroke: black; stroke-width: 2px;"></line><line x1="313.00000000000034" y1="457.6567357133574" x2="314.00000000000034" y2="457.6926274714144" style="stroke: black; stroke-width: 2px;"></line><line x1="314.00000000000034" y1="457.6926274714144" x2="315.00000000000034" y2="457.7278923127672" style="stroke: black; stroke-width: 2px;"></line><line x1="315.00000000000034" y1="457.7278923127672" x2="316.00000000000034" y2="457.7625425296056" style="stroke: black; stroke-width: 2px;"></line><line x1="316.00000000000034" y1="457.7625425296056" x2="317.00000000000034" y2="457.79659014690486" style="stroke: black; stroke-width: 2px;"></line><line x1="317.00000000000034" y1="457.79659014690486" x2="318.0000000000004" y2="457.8300469288016" style="stroke: black; stroke-width: 2px;"></line><line x1="318.0000000000004" y1="457.8300469288016" x2="319.0000000000004" y2="457.86292438480416" style="stroke: black; stroke-width: 2px;"></line><line x1="319.0000000000004" y1="457.86292438480416" x2="320.0000000000004" y2="457.8952337758418" style="stroke: black; stroke-width: 2px;"></line><line x1="320.0000000000004" y1="457.8952337758418" x2="321.00000000000045" y2="457.9269861201576" style="stroke: black; stroke-width: 2px;"></line><line x1="321.00000000000045" y1="457.9269861201576" x2="322.00000000000045" y2="457.9581921990493" style="stroke: black; stroke-width: 2px;"></line><line x1="322.00000000000045" y1="457.9581921990493" x2="323.00000000000045" y2="457.98886256246215" style="stroke: black; stroke-width: 2px;"></line><line x1="323.00000000000045" y1="457.98886256246215" x2="324.0000000000005" y2="458.01900753443834" style="stroke: black; stroke-width: 2px;"></line><line x1="324.0000000000005" y1="458.01900753443834" x2="325.0000000000005" y2="458.0486372184265" style="stroke: black; stroke-width: 2px;"></line><line x1="325.0000000000005" y1="458.0486372184265" x2="326.0000000000005" y2="458.0777615024553" style="stroke: black; stroke-width: 2px;"></line><line x1="326.0000000000005" y1="458.0777615024553" x2="327.00000000000057" y2="458.1063900641751" style="stroke: black; stroke-width: 2px;"></line><line x1="327.00000000000057" y1="458.1063900641751" x2="328.00000000000057" y2="458.13453237577124" style="stroke: black; stroke-width: 2px;"></line><line x1="328.00000000000057" y1="458.13453237577124" x2="329.00000000000057" y2="458.162197708752" style="stroke: black; stroke-width: 2px;"></line><line x1="329.00000000000057" y1="458.162197708752" x2="330.00000000000057" y2="458.1893951386157" style="stroke: black; stroke-width: 2px;"></line><line x1="330.00000000000057" y1="458.1893951386157" x2="331.00000000000057" y2="458.21613354939916" style="stroke: black; stroke-width: 2px;"></line><line x1="331.00000000000057" y1="458.21613354939916" x2="332.00000000000057" y2="458.24242163811135" style="stroke: black; stroke-width: 2px;"></line><line x1="332.00000000000057" y1="458.24242163811135" x2="333.00000000000057" y2="458.2682679190556" style="stroke: black; stroke-width: 2px;"></line><line x1="333.00000000000057" y1="458.2682679190556" x2="334.0000000000006" y2="458.29368072804255" style="stroke: black; stroke-width: 2px;"></line><line x1="334.0000000000006" y1="458.29368072804255" x2="335.0000000000006" y2="458.3186682264979" style="stroke: black; stroke-width: 2px;"></line><line x1="335.0000000000006" y1="458.3186682264979" x2="336.0000000000006" y2="458.34323840546654" style="stroke: black; stroke-width: 2px;"></line><line x1="336.0000000000006" y1="458.34323840546654" x2="337.0000000000007" y2="458.36739908951756" style="stroke: black; stroke-width: 2px;"></line><line x1="337.0000000000007" y1="458.36739908951756" x2="338.0000000000007" y2="458.39115794055084" style="stroke: black; stroke-width: 2px;"></line><line x1="338.0000000000007" y1="458.39115794055084" x2="339.0000000000007" y2="458.41452246150953" style="stroke: black; stroke-width: 2px;"></line><line x1="339.0000000000007" y1="458.41452246150953" x2="340.00000000000074" y2="458.4375" style="stroke: black; stroke-width: 2px;"></line><line x1="340.00000000000074" y1="458.4375" x2="341.00000000000074" y2="458.4600977518223" style="stroke: black; stroke-width: 2px;"></line><line x1="341.00000000000074" y1="458.4600977518223" x2="342.00000000000074" y2="458.48232276441274" style="stroke: black; stroke-width: 2px;"></line><line x1="342.00000000000074" y1="458.48232276441274" x2="343.0000000000008" y2="458.50418194020233" style="stroke: black; stroke-width: 2px;"></line><line x1="343.0000000000008" y1="458.50418194020233" x2="344.0000000000008" y2="458.5256820398915" style="stroke: black; stroke-width: 2px;"></line><line x1="344.0000000000008" y1="458.5256820398915" x2="345.0000000000008" y2="458.5468296856451" style="stroke: black; stroke-width: 2px;"></line><line x1="345.0000000000008" y1="458.5468296856451" x2="346.0000000000008" y2="458.5676313642084" style="stroke: black; stroke-width: 2px;"></line><line x1="346.0000000000008" y1="458.5676313642084" x2="347.0000000000008" y2="458.5880934299474" style="stroke: black; stroke-width: 2px;"></line><line x1="347.0000000000008" y1="458.5880934299474" x2="348.0000000000008" y2="458.608222107814" style="stroke: black; stroke-width: 2px;"></line><line x1="348.0000000000008" y1="458.608222107814" x2="349.0000000000008" y2="458.6280234962398" style="stroke: black; stroke-width: 2px;"></line><line x1="349.0000000000008" y1="458.6280234962398" x2="350.00000000000085" y2="458.6475035699586" style="stroke: black; stroke-width: 2px;"></line><line x1="350.00000000000085" y1="458.6475035699586" x2="351.00000000000085" y2="458.6666681827611" style="stroke: black; stroke-width: 2px;"></line><line x1="351.00000000000085" y1="458.6666681827611" x2="352.00000000000085" y2="458.68552307018217" style="stroke: black; stroke-width: 2px;"></line><line x1="352.00000000000085" y1="458.68552307018217" x2="353.0000000000009" y2="458.7040738521236" style="stroke: black; stroke-width: 2px;"></line><line x1="353.0000000000009" y1="458.7040738521236" x2="354.0000000000009" y2="458.7223260354131" style="stroke: black; stroke-width: 2px;"></line><line x1="354.0000000000009" y1="458.7223260354131" x2="355.0000000000009" y2="458.74028501630215" style="stroke: black; stroke-width: 2px;"></line><line x1="355.0000000000009" y1="458.74028501630215" x2="356.00000000000097" y2="458.7579560829032" style="stroke: black; stroke-width: 2px;"></line><line x1="356.00000000000097" y1="458.7579560829032" x2="357.00000000000097" y2="458.7753444175688" style="stroke: black; stroke-width: 2px;"></line><line x1="357.00000000000097" y1="458.7753444175688" x2="358.00000000000097" y2="458.7924550992138" style="stroke: black; stroke-width: 2px;"></line><line x1="358.00000000000097" y1="458.7924550992138" x2="359.000000000001" y2="458.80929310558133" style="stroke: black; stroke-width: 2px;"></line><line x1="359.000000000001" y1="458.80929310558133" x2="360.000000000001" y2="458.82586331545605" style="stroke: black; stroke-width: 2px;"></line><line x1="360.000000000001" y1="458.82586331545605" x2="361.000000000001" y2="458.842170510823" style="stroke: black; stroke-width: 2px;"></line><line x1="361.000000000001" y1="458.842170510823" x2="362.000000000001" y2="458.85821937897686" style="stroke: black; stroke-width: 2px;"></line><line x1="362.000000000001" y1="458.85821937897686" x2="363.000000000001" y2="458.87401451457987" style="stroke: black; stroke-width: 2px;"></line><line x1="363.000000000001" y1="458.87401451457987" x2="364.000000000001" y2="458.8895604216717" style="stroke: black; stroke-width: 2px;"></line><line x1="364.000000000001" y1="458.8895604216717" x2="365.000000000001" y2="458.90486151563186" style="stroke: black; stroke-width: 2px;"></line><line x1="365.000000000001" y1="458.90486151563186" x2="366.0000000000011" y2="458.91992212509547" style="stroke: black; stroke-width: 2px;"></line><line x1="366.0000000000011" y1="458.91992212509547" x2="367.0000000000011" y2="458.9347464938242" style="stroke: black; stroke-width: 2px;"></line><line x1="367.0000000000011" y1="458.9347464938242" x2="368.0000000000011" y2="458.9493387825335" style="stroke: black; stroke-width: 2px;"></line><line x1="368.0000000000011" y1="458.9493387825335" x2="369.00000000000114" y2="458.96370307067644" style="stroke: black; stroke-width: 2px;"></line><line x1="369.00000000000114" y1="458.96370307067644" x2="370.00000000000114" y2="458.97784335818625" style="stroke: black; stroke-width: 2px;"></line><line x1="370.00000000000114" y1="458.97784335818625" x2="371.00000000000114" y2="458.9917635671781" style="stroke: black; stroke-width: 2px;"></line><line x1="371.00000000000114" y1="458.9917635671781" x2="372.0000000000012" y2="459.0054675436113" style="stroke: black; stroke-width: 2px;"></line><line x1="372.0000000000012" y1="459.0054675436113" x2="373.0000000000012" y2="459.01895905891246" style="stroke: black; stroke-width: 2px;"></line><line x1="373.0000000000012" y1="459.01895905891246" x2="374.0000000000012" y2="459.03224181156145" style="stroke: black; stroke-width: 2px;"></line><line x1="374.0000000000012" y1="459.03224181156145" x2="375.00000000000125" y2="459.0453194286405" style="stroke: black; stroke-width: 2px;"></line><line x1="375.00000000000125" y1="459.0453194286405" x2="376.00000000000125" y2="459.05819546734705" style="stroke: black; stroke-width: 2px;"></line><line x1="376.00000000000125" y1="459.05819546734705" x2="377.00000000000125" y2="459.0708734164727" style="stroke: black; stroke-width: 2px;"></line><line x1="377.00000000000125" y1="459.0708734164727" x2="378.00000000000125" y2="459.0833566978466" style="stroke: black; stroke-width: 2px;"></line><line x1="378.00000000000125" y1="459.0833566978466" x2="379.00000000000125" y2="459.09564866774735" style="stroke: black; stroke-width: 2px;"></line><line x1="379.00000000000125" y1="459.09564866774735" x2="380.00000000000125" y2="459.10775261828104" style="stroke: black; stroke-width: 2px;"></line><line x1="380.00000000000125" y1="459.10775261828104" x2="381.00000000000125" y2="459.11967177872856" style="stroke: black; stroke-width: 2px;"></line><line x1="381.00000000000125" y1="459.11967177872856" x2="382.0000000000013" y2="459.13140931686206" style="stroke: black; stroke-width: 2px;"></line><line x1="382.0000000000013" y1="459.13140931686206" x2="383.0000000000013" y2="459.14296834023105" style="stroke: black; stroke-width: 2px;"></line><line x1="383.0000000000013" y1="459.14296834023105" x2="384.0000000000013" y2="459.15435189741936" style="stroke: black; stroke-width: 2px;"></line><line x1="384.0000000000013" y1="459.15435189741936" x2="385.00000000000136" y2="459.1655629792737" style="stroke: black; stroke-width: 2px;"></line><line x1="385.00000000000136" y1="459.1655629792737" x2="386.00000000000136" y2="459.1766045201042" style="stroke: black; stroke-width: 2px;"></line><line x1="386.00000000000136" y1="459.1766045201042" x2="387.00000000000136" y2="459.18747939885765" style="stroke: black; stroke-width: 2px;"></line><line x1="387.00000000000136" y1="459.18747939885765" x2="388.0000000000014" y2="459.1981904402645" style="stroke: black; stroke-width: 2px;"></line><line x1="388.0000000000014" y1="459.1981904402645" x2="389.0000000000014" y2="459.2087404159599" style="stroke: black; stroke-width: 2px;"></line><line x1="389.0000000000014" y1="459.2087404159599" x2="390.0000000000014" y2="459.2191320455791" style="stroke: black; stroke-width: 2px;"></line><line x1="390.0000000000014" y1="459.2191320455791" x2="391.0000000000015" y2="459.22936799782906" style="stroke: black; stroke-width: 2px;"></line><line x1="391.0000000000015" y1="459.22936799782906" x2="392.0000000000015" y2="459.23945089153534" style="stroke: black; stroke-width: 2px;"></line><line x1="392.0000000000015" y1="459.23945089153534" x2="393.0000000000015" y2="459.2493832966656" style="stroke: black; stroke-width: 2px;"></line><line x1="393.0000000000015" y1="459.2493832966656" x2="394.0000000000015" y2="459.2591677353307" style="stroke: black; stroke-width: 2px;"></line><line x1="394.0000000000015" y1="459.2591677353307" x2="395.0000000000015" y2="459.268806682763" style="stroke: black; stroke-width: 2px;"></line><line x1="395.0000000000015" y1="459.268806682763" x2="396.0000000000015" y2="459.278302568273" style="stroke: black; stroke-width: 2px;"></line><line x1="396.0000000000015" y1="459.278302568273" x2="397.0000000000015" y2="459.28765777618474" style="stroke: black; stroke-width: 2px;"></line><line x1="397.0000000000015" y1="459.28765777618474" x2="398.00000000000153" y2="459.2968746467507" style="stroke: black; stroke-width: 2px;"></line><line x1="398.00000000000153" y1="459.2968746467507" x2="399.00000000000153" y2="459.3059554770462" style="stroke: black; stroke-width: 2px;"></line><line x1="399.00000000000153" y1="459.3059554770462" x2="400.00000000000153" y2="459.3149025218437" style="stroke: black; stroke-width: 2px;"></line><line x1="400.00000000000153" y1="459.3149025218437" x2="401.0000000000016" y2="459.32371799446844" style="stroke: black; stroke-width: 2px;"></line><line x1="401.0000000000016" y1="459.32371799446844" x2="402.0000000000016" y2="459.3324040676351" style="stroke: black; stroke-width: 2px;"></line><line x1="402.0000000000016" y1="459.3324040676351" x2="403.0000000000016" y2="459.3409628742657" style="stroke: black; stroke-width: 2px;"></line><line x1="403.0000000000016" y1="459.3409628742657" x2="404.00000000000165" y2="459.3493965082899" style="stroke: black; stroke-width: 2px;"></line><line x1="404.00000000000165" y1="459.3493965082899" x2="405.00000000000165" y2="459.35770702542766" style="stroke: black; stroke-width: 2px;"></line><line x1="405.00000000000165" y1="459.35770702542766" x2="406.00000000000165" y2="459.36589644395485" style="stroke: black; stroke-width: 2px;"></line><line x1="406.00000000000165" y1="459.36589644395485" x2="407.0000000000017" y2="459.37396674545204" style="stroke: black; stroke-width: 2px;"></line><line x1="407.0000000000017" y1="459.37396674545204" x2="408.0000000000017" y2="459.3819198755372" style="stroke: black; stroke-width: 2px;"></line><line x1="408.0000000000017" y1="459.3819198755372" x2="409.0000000000017" y2="459.38975774458214" style="stroke: black; stroke-width: 2px;"></line><line x1="409.0000000000017" y1="459.38975774458214" x2="410.0000000000017" y2="459.39748222841376" style="stroke: black; stroke-width: 2px;"></line><line x1="410.0000000000017" y1="459.39748222841376" x2="411.0000000000017" y2="459.4050951689999" style="stroke: black; stroke-width: 2px;"></line><line x1="411.0000000000017" y1="459.4050951689999" x2="412.0000000000017" y2="459.4125983751202" style="stroke: black; stroke-width: 2px;"></line><line x1="412.0000000000017" y1="459.4125983751202" x2="413.0000000000017" y2="459.4199936230231" style="stroke: black; stroke-width: 2px;"></line><line x1="413.0000000000017" y1="459.4199936230231" x2="414.00000000000176" y2="459.427282657068" style="stroke: black; stroke-width: 2px;"></line><line x1="414.00000000000176" y1="459.427282657068" x2="415.00000000000176" y2="459.4344671903539" style="stroke: black; stroke-width: 2px;"></line><line x1="415.00000000000176" y1="459.4344671903539" x2="416.00000000000176" y2="459.4415489053346" style="stroke: black; stroke-width: 2px;"></line><line x1="416.00000000000176" y1="459.4415489053346" x2="417.0000000000018" y2="459.44852945442057" style="stroke: black; stroke-width: 2px;"></line><line x1="417.0000000000018" y1="459.44852945442057" x2="418.0000000000018" y2="459.45541046056803" style="stroke: black; stroke-width: 2px;"></line><line x1="418.0000000000018" y1="459.45541046056803" x2="419.0000000000018" y2="459.4621935178556" style="stroke: black; stroke-width: 2px;"></line><line x1="419.0000000000018" y1="459.4621935178556" x2="420.0000000000019" y2="459.4688801920483" style="stroke: black; stroke-width: 2px;"></line><line x1="420.0000000000019" y1="459.4688801920483" x2="421.0000000000019" y2="459.4754720211498" style="stroke: black; stroke-width: 2px;"></line><line x1="421.0000000000019" y1="459.4754720211498" x2="422.0000000000019" y2="459.4819705159432" style="stroke: black; stroke-width: 2px;"></line><line x1="422.0000000000019" y1="459.4819705159432" x2="423.00000000000193" y2="459.4883771605194" style="stroke: black; stroke-width: 2px;"></line><line x1="423.00000000000193" y1="459.4883771605194" x2="424.00000000000193" y2="459.49469341279564" style="stroke: black; stroke-width: 2px;"></line><line x1="424.00000000000193" y1="459.49469341279564" x2="425.00000000000193" y2="459.50092070502177" style="stroke: black; stroke-width: 2px;"></line><line x1="425.00000000000193" y1="459.50092070502177" x2="426.00000000000193" y2="459.507060444277" style="stroke: black; stroke-width: 2px;"></line><line x1="426.00000000000193" y1="459.507060444277" x2="427.00000000000193" y2="459.51311401295504" style="stroke: black; stroke-width: 2px;"></line><line x1="427.00000000000193" y1="459.51311401295504" x2="428.00000000000193" y2="459.5190827692403" style="stroke: black; stroke-width: 2px;"></line><line x1="428.00000000000193" y1="459.5190827692403" x2="429.00000000000193" y2="459.52496804757294" style="stroke: black; stroke-width: 2px;"></line><line x1="429.00000000000193" y1="459.52496804757294" x2="430.000000000002" y2="459.53077115910475" style="stroke: black; stroke-width: 2px;"></line><line x1="430.000000000002" y1="459.53077115910475" x2="431.000000000002" y2="459.53649339214576" style="stroke: black; stroke-width: 2px;"></line><line x1="431.000000000002" y1="459.53649339214576" x2="432.000000000002" y2="459.5421360126008" style="stroke: black; stroke-width: 2px;"></line><line x1="432.000000000002" y1="459.5421360126008" x2="433.00000000000205" y2="459.5477002643977" style="stroke: black; stroke-width: 2px;"></line><line x1="433.00000000000205" y1="459.5477002643977" x2="434.00000000000205" y2="459.553187369906" style="stroke: black; stroke-width: 2px;"></line><line x1="434.00000000000205" y1="459.553187369906" x2="435.00000000000205" y2="459.5585985303474" style="stroke: black; stroke-width: 2px;"></line><line x1="435.00000000000205" y1="459.5585985303474" x2="436.0000000000021" y2="459.5639349261974" style="stroke: black; stroke-width: 2px;"></line><line x1="436.0000000000021" y1="459.5639349261974" x2="437.0000000000021" y2="459.56919771757885" style="stroke: black; stroke-width: 2px;"></line><line x1="437.0000000000021" y1="459.56919771757885" x2="438.0000000000021" y2="459.5743880446472" style="stroke: black; stroke-width: 2px;"></line><line x1="438.0000000000021" y1="459.5743880446472" x2="439.00000000000216" y2="459.57950702796796" style="stroke: black; stroke-width: 2px;"></line><line x1="439.00000000000216" y1="459.57950702796796" x2="440.00000000000216" y2="459.5845557688863" style="stroke: black; stroke-width: 2px;"></line><line x1="440.00000000000216" y1="459.5845557688863" x2="441.00000000000216" y2="459.5895353498888" style="stroke: black; stroke-width: 2px;"></line><line x1="441.00000000000216" y1="459.5895353498888" x2="442.00000000000216" y2="459.5944468349588" style="stroke: black; stroke-width: 2px;"></line><line x1="442.00000000000216" y1="459.5944468349588" x2="443.00000000000216" y2="459.59929126992273" style="stroke: black; stroke-width: 2px;"></line><line x1="443.00000000000216" y1="459.59929126992273" x2="444.00000000000216" y2="459.604069682791" style="stroke: black; stroke-width: 2px;"></line><line x1="444.00000000000216" y1="459.604069682791" x2="445.00000000000216" y2="459.6087830840913" style="stroke: black; stroke-width: 2px;"></line><line x1="445.00000000000216" y1="459.6087830840913" x2="446.0000000000022" y2="459.6134324671948" style="stroke: black; stroke-width: 2px;"></line><line x1="446.0000000000022" y1="459.6134324671948" x2="447.0000000000022" y2="459.618018808636" style="stroke: black; stroke-width: 2px;"></line><line x1="447.0000000000022" y1="459.618018808636" x2="448.0000000000022" y2="459.6225430684264" style="stroke: black; stroke-width: 2px;"></line><line x1="448.0000000000022" y1="459.6225430684264" x2="449.0000000000023" y2="459.6270061903614" style="stroke: black; stroke-width: 2px;"></line><line x1="449.0000000000023" y1="459.6270061903614" x2="450.0000000000023" y2="459.63140910232084" style="stroke: black; stroke-width: 2px;"></line><line x1="450.0000000000023" y1="459.63140910232084" x2="451.0000000000023" y2="459.6357527165641" style="stroke: black; stroke-width: 2px;"></line><line x1="451.0000000000023" y1="459.6357527165641" x2="452.00000000000233" y2="459.64003793001876" style="stroke: black; stroke-width: 2px;"></line><line x1="452.00000000000233" y1="459.64003793001876" x2="453.00000000000233" y2="459.6442656245633" style="stroke: black; stroke-width: 2px;"></line><line x1="453.00000000000233" y1="459.6442656245633" x2="454.00000000000233" y2="459.6484366673047" style="stroke: black; stroke-width: 2px;"></line><line x1="454.00000000000233" y1="459.6484366673047" x2="455.0000000000024" y2="459.6525519108501" style="stroke: black; stroke-width: 2px;"></line><line x1="455.0000000000024" y1="459.6525519108501" x2="456.0000000000024" y2="459.656612193573" style="stroke: black; stroke-width: 2px;"></line><line x1="456.0000000000024" y1="459.656612193573" x2="457.0000000000024" y2="459.66061833987413" style="stroke: black; stroke-width: 2px;"></line><line x1="457.0000000000024" y1="459.66061833987413" x2="458.0000000000024" y2="459.66457116043745" style="stroke: black; stroke-width: 2px;"></line><line x1="458.0000000000024" y1="459.66457116043745" x2="459.0000000000024" y2="459.66847145248045" style="stroke: black; stroke-width: 2px;"></line><line x1="459.0000000000024" y1="459.66847145248045" x2="460.0000000000024" y2="459.67232" style="stroke: black; stroke-width: 2px;"></line><line x1="460.0000000000024" y1="459.67232" x2="461.0000000000024" y2="459.67611757401323" style="stroke: black; stroke-width: 2px;"></line><line x1="461.0000000000024" y1="459.67611757401323" x2="462.00000000000244" y2="459.6798649327932" style="stroke: black; stroke-width: 2px;"></line><line x1="462.00000000000244" y1="459.6798649327932" x2="463.00000000000244" y2="459.6835628221004" style="stroke: black; stroke-width: 2px;"></line><line x1="463.00000000000244" y1="459.6835628221004" x2="464.00000000000244" y2="459.6872119754097" style="stroke: black; stroke-width: 2px;"></line><line x1="464.00000000000244" y1="459.6872119754097" x2="465.0000000000025" y2="459.69081311413225" style="stroke: black; stroke-width: 2px;"></line><line x1="465.0000000000025" y1="459.69081311413225" x2="466.0000000000025" y2="459.6943669478336" style="stroke: black; stroke-width: 2px;"></line><line x1="466.0000000000025" y1="459.6943669478336" x2="467.0000000000025" y2="459.6978741744472" style="stroke: black; stroke-width: 2px;"></line><line x1="467.0000000000025" y1="459.6978741744472" x2="468.00000000000256" y2="459.70133548048386" style="stroke: black; stroke-width: 2px;"></line><line x1="468.00000000000256" y1="459.70133548048386" x2="469.00000000000256" y2="459.7047515412372" style="stroke: black; stroke-width: 2px;"></line><line x1="469.00000000000256" y1="459.7047515412372" x2="470.00000000000256" y2="459.70812302098466" style="stroke: black; stroke-width: 2px;"></line><line x1="470.00000000000256" y1="459.70812302098466" x2="471.0000000000026" y2="459.711450573185" style="stroke: black; stroke-width: 2px;"></line><line x1="471.0000000000026" y1="459.711450573185" x2="472.0000000000026" y2="459.7147348406718" style="stroke: black; stroke-width: 2px;"></line><line x1="472.0000000000026" y1="459.7147348406718" x2="473.0000000000026" y2="459.71797645584326" style="stroke: black; stroke-width: 2px;"></line><line x1="473.0000000000026" y1="459.71797645584326" x2="474.0000000000026" y2="459.72117604084804" style="stroke: black; stroke-width: 2px;"></line><line x1="474.0000000000026" y1="459.72117604084804" x2="475.0000000000026" y2="459.72433420776787" style="stroke: black; stroke-width: 2px;"></line><line x1="475.0000000000026" y1="459.72433420776787" x2="476.0000000000026" y2="459.7274515587964" style="stroke: black; stroke-width: 2px;"></line><line x1="476.0000000000026" y1="459.7274515587964" x2="477.0000000000026" y2="459.7305286864147" style="stroke: black; stroke-width: 2px;"></line><line x1="477.0000000000026" y1="459.7305286864147" x2="478.0000000000027" y2="459.733566173563" style="stroke: black; stroke-width: 2px;"></line><line x1="478.0000000000027" y1="459.733566173563" x2="479.0000000000027" y2="459.7365645938099" style="stroke: black; stroke-width: 2px;"></line><line x1="479.0000000000027" y1="459.7365645938099" x2="480.0000000000027" y2="459.7395245115173" style="stroke: black; stroke-width: 2px;"></line><line x1="480.0000000000027" y1="459.7395245115173" x2="481.00000000000273" y2="459.7424464820031" style="stroke: black; stroke-width: 2px;"></line><line x1="481.00000000000273" y1="459.7424464820031" x2="482.00000000000273" y2="459.7453310517004" style="stroke: black; stroke-width: 2px;"></line><line x1="482.00000000000273" y1="459.7453310517004" x2="483.00000000000273" y2="459.7481787583132" style="stroke: black; stroke-width: 2px;"></line><line x1="483.00000000000273" y1="459.7481787583132" x2="484.0000000000028" y2="459.75099013096997" style="stroke: black; stroke-width: 2px;"></line><line x1="484.0000000000028" y1="459.75099013096997" x2="485.0000000000028" y2="459.75376569037354" style="stroke: black; stroke-width: 2px;"></line><line x1="485.0000000000028" y1="459.75376569037354" x2="486.0000000000028" y2="459.7565059489487" style="stroke: black; stroke-width: 2px;"></line><line x1="486.0000000000028" y1="459.7565059489487" x2="487.00000000000284" y2="459.7592114109866" style="stroke: black; stroke-width: 2px;"></line><line x1="487.00000000000284" y1="459.7592114109866" x2="488.00000000000284" y2="459.76188257278665" style="stroke: black; stroke-width: 2px;"></line><line x1="488.00000000000284" y1="459.76188257278665" x2="489.00000000000284" y2="459.7645199227953" style="stroke: black; stroke-width: 2px;"></line><line x1="489.00000000000284" y1="459.7645199227953" x2="490.00000000000284" y2="459.76712394174297" style="stroke: black; stroke-width: 2px;"></line><line x1="490.00000000000284" y1="459.76712394174297" x2="491.00000000000284" y2="459.7696951027776" style="stroke: black; stroke-width: 2px;"></line><line x1="491.00000000000284" y1="459.7696951027776" x2="492.00000000000284" y2="459.77223387159603" style="stroke: black; stroke-width: 2px;"></line><line x1="492.00000000000284" y1="459.77223387159603" x2="493.00000000000284" y2="459.77474070657297" style="stroke: black; stroke-width: 2px;"></line><line x1="493.00000000000284" y1="459.77474070657297" x2="494.0000000000029" y2="459.77721605888746" style="stroke: black; stroke-width: 2px;"></line><line x1="494.0000000000029" y1="459.77721605888746" x2="495.0000000000029" y2="459.7796603726468" style="stroke: black; stroke-width: 2px;"></line><line x1="495.0000000000029" y1="459.7796603726468" x2="496.0000000000029" y2="459.7820740850082" style="stroke: black; stroke-width: 2px;"></line><line x1="496.0000000000029" y1="459.7820740850082" x2="497.00000000000296" y2="459.7844576262987" style="stroke: black; stroke-width: 2px;"></line><line x1="497.00000000000296" y1="459.7844576262987" x2="498.00000000000296" y2="459.78681142013187" style="stroke: black; stroke-width: 2px;"></line><line x1="498.00000000000296" y1="459.78681142013187" x2="499.00000000000296" y2="459.78913588352293" style="stroke: black; stroke-width: 2px;"></line><line x1="499.00000000000296" y1="459.78913588352293" x2="500.000000000003" y2="459.79143142700195" style="stroke: black; stroke-width: 2px;"></line><line x1="100" y1="460" x2="100" y2="460" style="stroke: rgb(0, 85, 255); stroke-width: 2px;"></line><line x1="101" y1="460" x2="101" y2="265.7373138448285" style="stroke: rgb(0, 85, 255); stroke-width: 2px;"></line><line x1="102" y1="460" x2="102" y2="271.2873011061079" style="stroke: rgb(0, 85, 255); stroke-width: 2px;"></line><line x1="103" y1="460" x2="103" y2="276.656814618676" style="stroke: rgb(0, 85, 255); stroke-width: 2px;"></line><line x1="104" y1="460" x2="104" y2="281.85242980019075" style="stroke: rgb(0, 85, 255); stroke-width: 2px;"></line><line x1="105" y1="460" x2="105" y2="286.8804569546976" style="stroke: rgb(0, 85, 255); stroke-width: 2px;"></line><line x1="106" y1="460" x2="106" y2="291.74695298331665" style="stroke: rgb(0, 85, 255); stroke-width: 2px;"></line><line x1="107" y1="460" x2="107" y2="296.45773253287723" style="stroke: rgb(0, 85, 255); stroke-width: 2px;"></line><line x1="108" y1="460" x2="108" y2="301.01837861160595" style="stroke: rgb(0, 85, 255); stroke-width: 2px;"></line><line x1="109" y1="460" x2="109" y2="305.4342526993595" style="stroke: rgb(0, 85, 255); stroke-width: 2px;"></line><line x1="110" y1="460" x2="110" y2="309.71050437836857" style="stroke: rgb(0, 85, 255); stroke-width: 2px;"></line><line x1="111" y1="460" x2="111" y2="313.85208050903645" style="stroke: rgb(0, 85, 255); stroke-width: 2px;"></line><line x1="112" y1="460" x2="112" y2="317.8637339739762" style="stroke: rgb(0, 85, 255); stroke-width: 2px;"></line><line x1="113" y1="460" x2="113" y2="321.7500320122142" style="stroke: rgb(0, 85, 255); stroke-width: 2px;"></line><line x1="114" y1="460" x2="114" y2="325.51536416428746" style="stroke: rgb(0, 85, 255); stroke-width: 2px;"></line><line x1="115" y1="460" x2="115" y2="329.16394984783744" style="stroke: rgb(0, 85, 255); stroke-width: 2px;"></line><line x1="116" y1="460" x2="116" y2="332.6998455822472" style="stroke: rgb(0, 85, 255); stroke-width: 2px;"></line><line x1="117" y1="460" x2="117" y2="336.12695187986526" style="stroke: rgb(0, 85, 255); stroke-width: 2px;"></line><line x1="118" y1="460" x2="118" y2="339.4490198204237" style="stroke: rgb(0, 85, 255); stroke-width: 2px;"></line><line x1="119" y1="460" x2="119" y2="342.66965732436626" style="stroke: rgb(0, 85, 255); stroke-width: 2px;"></line><line x1="120" y1="460" x2="120" y2="345.7923351399686" style="stroke: rgb(0, 85, 255); stroke-width: 2px;"></line><line x1="121" y1="460" x2="121" y2="348.82039255834326" style="stroke: rgb(0, 85, 255); stroke-width: 2px;"></line><line x1="122" y1="460" x2="122" y2="351.7570428696755" style="stroke: rgb(0, 85, 255); stroke-width: 2px;"></line><line x1="123" y1="460" x2="123" y2="354.60537857333696" style="stroke: rgb(0, 85, 255); stroke-width: 2px;"></line><line x1="124" y1="460" x2="124" y2="357.36837635385905" style="stroke: rgb(0, 85, 255); stroke-width: 2px;"></line><line x1="125" y1="460" x2="125" y2="360.048901834121" style="stroke: rgb(0, 85, 255); stroke-width: 2px;"></line><line x1="126.00000000000001" y1="460" x2="126.00000000000001" y2="362.64971411652067" style="stroke: rgb(0, 85, 255); stroke-width: 2px;"></line><line x1="127.00000000000001" y1="460" x2="127.00000000000001" y2="365.1734701223328" style="stroke: rgb(0, 85, 255); stroke-width: 2px;"></line><line x1="128" y1="460" x2="128" y2="367.62272873893653" style="stroke: rgb(0, 85, 255); stroke-width: 2px;"></line><line x1="129" y1="460" x2="129" y2="369.9999547840936" style="stroke: rgb(0, 85, 255); stroke-width: 2px;"></line><line x1="130" y1="460" x2="130" y2="372.30752279598744" style="stroke: rgb(0, 85, 255); stroke-width: 2px;"></line><line x1="131" y1="460" x2="131" y2="374.5477206572905" style="stroke: rgb(0, 85, 255); stroke-width: 2px;"></line><line x1="132" y1="460" x2="132" y2="376.72275306110396" style="stroke: rgb(0, 85, 255); stroke-width: 2px;"></line><line x1="133" y1="460" x2="133" y2="378.8347448262179" style="stroke: rgb(0, 85, 255); stroke-width: 2px;"></line><line x1="134" y1="460" x2="134" y2="380.8857440687615" style="stroke: rgb(0, 85, 255); stroke-width: 2px;"></line><line x1="135" y1="460" x2="135" y2="382.87772523696157" style="stroke: rgb(0, 85, 255); stroke-width: 2px;"></line><line x1="136" y1="460" x2="136" y2="384.8125920153818" style="stroke: rgb(0, 85, 255); stroke-width: 2px;"></line><line x1="137" y1="460" x2="137" y2="386.69218010470786" style="stroke: rgb(0, 85, 255); stroke-width: 2px;"></line><line x1="138.00000000000003" y1="460" x2="138.00000000000003" y2="388.5182598828315" style="stroke: rgb(0, 85, 255); stroke-width: 2px;"></line><line x1="139.00000000000003" y1="460" x2="139.00000000000003" y2="390.29253895270637" style="stroke: rgb(0, 85, 255); stroke-width: 2px;"></line><line x1="140" y1="460" x2="140" y2="392.0166645821775" style="stroke: rgb(0, 85, 255); stroke-width: 2px;"></line><line x1="141" y1="460" x2="141" y2="393.6922260407267" style="stroke: rgb(0, 85, 255); stroke-width: 2px;"></line><line x1="142" y1="460" x2="142" y2="395.32075683783756" style="stroke: rgb(0, 85, 255); stroke-width: 2px;"></line><line x1="143" y1="460" x2="143" y2="396.90373686745033" style="stroke: rgb(0, 85, 255); stroke-width: 2px;"></line><line x1="144" y1="460" x2="144" y2="398.4425944627603" style="stroke: rgb(0, 85, 255); stroke-width: 2px;"></line><line x1="145" y1="460" x2="145" y2="399.93870836540697" style="stroke: rgb(0, 85, 255); stroke-width: 2px;"></line><line x1="146" y1="460" x2="146" y2="401.3934096129031" style="stroke: rgb(0, 85, 255); stroke-width: 2px;"></line><line x1="147" y1="460" x2="147" y2="402.8079833479706" style="stroke: rgb(0, 85, 255); stroke-width: 2px;"></line><line x1="148" y1="460" x2="148" y2="404.18367055326945" style="stroke: rgb(0, 85, 255); stroke-width: 2px;"></line><line x1="149" y1="460" x2="149" y2="405.5216697148427" style="stroke: rgb(0, 85, 255); stroke-width: 2px;"></line><line x1="150" y1="460" x2="150" y2="406.8231384174386" style="stroke: rgb(0, 85, 255); stroke-width: 2px;"></line><line x1="150.99999999999997" y1="460" x2="150.99999999999997" y2="408.0891948747234" style="stroke: rgb(0, 85, 255); stroke-width: 2px;"></line><line x1="151.99999999999997" y1="460" x2="151.99999999999997" y2="409.3209193972517" style="stroke: rgb(0, 85, 255); stroke-width: 2px;"></line><line x1="152.99999999999997" y1="460" x2="152.99999999999997" y2="410.51935580093084" style="stroke: rgb(0, 85, 255); stroke-width: 2px;"></line><line x1="153.99999999999997" y1="460" x2="153.99999999999997" y2="411.68551275857965" style="stroke: rgb(0, 85, 255); stroke-width: 2px;"></line><line x1="154.99999999999997" y1="460" x2="154.99999999999997" y2="412.82036509706813" style="stroke: rgb(0, 85, 255); stroke-width: 2px;"></line><line x1="155.99999999999997" y1="460" x2="155.99999999999997" y2="413.9248550424006" style="stroke: rgb(0, 85, 255); stroke-width: 2px;"></line><line x1="156.99999999999994" y1="460" x2="156.99999999999994" y2="414.99989341499975" style="stroke: rgb(0, 85, 255); stroke-width: 2px;"></line><line x1="157.99999999999994" y1="460" x2="157.99999999999994" y2="416.0463607773413" style="stroke: rgb(0, 85, 255); stroke-width: 2px;"></line><line x1="158.99999999999994" y1="460" x2="158.99999999999994" y2="417.0651085359912" style="stroke: rgb(0, 85, 255); stroke-width: 2px;"></line><line x1="159.99999999999994" y1="460" x2="159.99999999999994" y2="418.05696000000006" style="stroke: rgb(0, 85, 255); stroke-width: 2px;"></line><line x1="160.99999999999994" y1="460" x2="160.99999999999994" y2="419.0227113975228" style="stroke: rgb(0, 85, 255); stroke-width: 2px;"></line><line x1="161.99999999999994" y1="460" x2="161.99999999999994" y2="419.96313285244213" style="stroke: rgb(0, 85, 255); stroke-width: 2px;"></line><line x1="162.99999999999994" y1="460" x2="162.99999999999994" y2="420.8789693226965" style="stroke: rgb(0, 85, 255); stroke-width: 2px;"></line><line x1="163.99999999999994" y1="460" x2="163.99999999999994" y2="421.77094150193295" style="stroke: rgb(0, 85, 255); stroke-width: 2px;"></line><line x1="164.99999999999994" y1="460" x2="164.99999999999994" y2="422.63974668603294" style="stroke: rgb(0, 85, 255); stroke-width: 2px;"></line><line x1="165.99999999999991" y1="460" x2="165.99999999999991" y2="423.4860596059895" style="stroke: rgb(0, 85, 255); stroke-width: 2px;"></line><line x1="166.99999999999991" y1="460" x2="166.99999999999991" y2="424.3105332285458" style="stroke: rgb(0, 85, 255); stroke-width: 2px;"></line><line x1="167.99999999999991" y1="460" x2="167.99999999999991" y2="425.11379952594314" style="stroke: rgb(0, 85, 255); stroke-width: 2px;"></line><line x1="168.99999999999991" y1="460" x2="168.99999999999991" y2="425.8964702160653" style="stroke: rgb(0, 85, 255); stroke-width: 2px;"></line><line x1="169.99999999999991" y1="460" x2="169.99999999999991" y2="426.65913747420865" style="stroke: rgb(0, 85, 255); stroke-width: 2px;"></line><line x1="170.99999999999991" y1="460" x2="170.99999999999991" y2="427.40237461765264" style="stroke: rgb(0, 85, 255); stroke-width: 2px;"></line><line x1="171.99999999999991" y1="460" x2="171.99999999999991" y2="428.12673676415335" style="stroke: rgb(0, 85, 255); stroke-width: 2px;"></line><line x1="172.9999999999999" y1="460" x2="172.9999999999999" y2="428.8327614654323" style="stroke: rgb(0, 85, 255); stroke-width: 2px;"></line><line x1="173.9999999999999" y1="460" x2="173.9999999999999" y2="429.52096931668643" style="stroke: rgb(0, 85, 255); stroke-width: 2px;"></line><line x1="174.9999999999999" y1="460" x2="174.9999999999999" y2="430.19186454309914" style="stroke: rgb(0, 85, 255); stroke-width: 2px;"></line><line x1="175.9999999999999" y1="460" x2="175.9999999999999" y2="430.8459355642895" style="stroke: rgb(0, 85, 255); stroke-width: 2px;"></line><line x1="176.9999999999999" y1="460" x2="176.9999999999999" y2="431.48365553759635" style="stroke: rgb(0, 85, 255); stroke-width: 2px;"></line><line x1="177.9999999999999" y1="460" x2="177.9999999999999" y2="432.10548288105383" style="stroke: rgb(0, 85, 255); stroke-width: 2px;"></line><line x1="178.9999999999999" y1="460" x2="178.9999999999999" y2="432.711861776878" style="stroke: rgb(0, 85, 255); stroke-width: 2px;"></line><line x1="179.9999999999999" y1="460" x2="179.9999999999999" y2="433.30322265625" style="stroke: rgb(0, 85, 255); stroke-width: 2px;"></line><line x1="180.9999999999999" y1="460" x2="180.9999999999999" y2="433.87998266614494" style="stroke: rgb(0, 85, 255); stroke-width: 2px;"></line><line x1="181.99999999999986" y1="460" x2="181.99999999999986" y2="434.442546118925" style="stroke: rgb(0, 85, 255); stroke-width: 2px;"></line><line x1="182.99999999999986" y1="460" x2="182.99999999999986" y2="434.9913049253846" style="stroke: rgb(0, 85, 255); stroke-width: 2px;"></line><line x1="183.99999999999986" y1="460" x2="183.99999999999986" y2="435.5266390119045" style="stroke: rgb(0, 85, 255); stroke-width: 2px;"></line><line x1="184.99999999999986" y1="460" x2="184.99999999999986" y2="436.0489167223455" style="stroke: rgb(0, 85, 255); stroke-width: 2px;"></line><line x1="185.99999999999986" y1="460" x2="185.99999999999986" y2="436.55849520528386" style="stroke: rgb(0, 85, 255); stroke-width: 2px;"></line><line x1="186.99999999999986" y1="460" x2="186.99999999999986" y2="437.05572078716693" style="stroke: rgb(0, 85, 255); stroke-width: 2px;"></line><line x1="187.99999999999986" y1="460" x2="187.99999999999986" y2="437.54092933194045" style="stroke: rgb(0, 85, 255); stroke-width: 2px;"></line><line x1="188.99999999999983" y1="460" x2="188.99999999999983" y2="438.0144465876789" style="stroke: rgb(0, 85, 255); stroke-width: 2px;"></line><line x1="189.99999999999983" y1="460" x2="189.99999999999983" y2="438.47658852072476" style="stroke: rgb(0, 85, 255); stroke-width: 2px;"></line><line x1="190.99999999999983" y1="460" x2="190.99999999999983" y2="438.92766163782386" style="stroke: rgb(0, 85, 255); stroke-width: 2px;"></line><line x1="191.99999999999983" y1="460" x2="191.99999999999983" y2="439.3679632967223" style="stroke: rgb(0, 85, 255); stroke-width: 2px;"></line><line x1="192.99999999999983" y1="460" x2="192.99999999999983" y2="439.79778200567057" style="stroke: rgb(0, 85, 255); stroke-width: 2px;"></line><line x1="193.99999999999983" y1="460" x2="193.99999999999983" y2="440.21739771226464" style="stroke: rgb(0, 85, 255); stroke-width: 2px;"></line><line x1="194.99999999999983" y1="460" x2="194.99999999999983" y2="440.62708208203173" style="stroke: rgb(0, 85, 255); stroke-width: 2px;"></line><line x1="195.99999999999983" y1="460" x2="195.99999999999983" y2="441.027098767156" style="stroke: rgb(0, 85, 255); stroke-width: 2px;"></line><line x1="196.99999999999983" y1="460" x2="196.99999999999983" y2="441.4177036657201" style="stroke: rgb(0, 85, 255); stroke-width: 2px;"></line><line x1="197.9999999999998" y1="460" x2="197.9999999999998" y2="441.79914517182425" style="stroke: rgb(0, 85, 255); stroke-width: 2px;"></line><line x1="198.9999999999998" y1="460" x2="198.9999999999998" y2="442.17166441692984" style="stroke: rgb(0, 85, 255); stroke-width: 2px;"></line><line x1="199.9999999999998" y1="460" x2="199.9999999999998" y2="442.53549550275994" style="stroke: rgb(0, 85, 255); stroke-width: 2px;"></line><line x1="200.9999999999998" y1="460" x2="200.9999999999998" y2="442.8908657260762" style="stroke: rgb(0, 85, 255); stroke-width: 2px;"></line><line x1="201.9999999999998" y1="460" x2="201.9999999999998" y2="443.23799579563683" style="stroke: rgb(0, 85, 255); stroke-width: 2px;"></line><line x1="202.9999999999998" y1="460" x2="202.9999999999998" y2="443.5771000416319" style="stroke: rgb(0, 85, 255); stroke-width: 2px;"></line><line x1="203.9999999999998" y1="460" x2="203.9999999999998" y2="443.9083866178751" style="stroke: rgb(0, 85, 255); stroke-width: 2px;"></line><line x1="204.9999999999998" y1="460" x2="204.9999999999998" y2="444.2320576970241" style="stroke: rgb(0, 85, 255); stroke-width: 2px;"></line><line x1="205.99999999999977" y1="460" x2="205.99999999999977" y2="444.5483096590894" style="stroke: rgb(0, 85, 255); stroke-width: 2px;"></line><line x1="206.99999999999977" y1="460" x2="206.99999999999977" y2="444.85733327347936" style="stroke: rgb(0, 85, 255); stroke-width: 2px;"></line><line x1="207.99999999999977" y1="460" x2="207.99999999999977" y2="445.1593138748227" style="stroke: rgb(0, 85, 255); stroke-width: 2px;"></line><line x1="208.99999999999977" y1="460" x2="208.99999999999977" y2="445.45443153279706" style="stroke: rgb(0, 85, 255); stroke-width: 2px;"></line><line x1="209.99999999999977" y1="460" x2="209.99999999999977" y2="445.7428612161842" style="stroke: rgb(0, 85, 255); stroke-width: 2px;"></line><line x1="210.99999999999977" y1="460" x2="210.99999999999977" y2="446.02477295136504" style="stroke: rgb(0, 85, 255); stroke-width: 2px;"></line><line x1="211.99999999999977" y1="460" x2="211.99999999999977" y2="446.3003319754571" style="stroke: rgb(0, 85, 255); stroke-width: 2px;"></line><line x1="212.99999999999974" y1="460" x2="212.99999999999974" y2="446.56969888428983" style="stroke: rgb(0, 85, 255); stroke-width: 2px;"></line><line x1="213.99999999999974" y1="460" x2="213.99999999999974" y2="446.83302977540734" style="stroke: rgb(0, 85, 255); stroke-width: 2px;"></line><line x1="214.99999999999974" y1="460" x2="214.99999999999974" y2="447.09047638627663" style="stroke: rgb(0, 85, 255); stroke-width: 2px;"></line><line x1="215.99999999999974" y1="460" x2="215.99999999999974" y2="447.3421862278772" style="stroke: rgb(0, 85, 255); stroke-width: 2px;"></line><line x1="216.99999999999974" y1="460" x2="216.99999999999974" y2="447.58830271383795" style="stroke: rgb(0, 85, 255); stroke-width: 2px;"></line><line x1="217.99999999999974" y1="460" x2="217.99999999999974" y2="447.8289652852808" style="stroke: rgb(0, 85, 255); stroke-width: 2px;"></line><line x1="218.99999999999972" y1="460" x2="218.99999999999972" y2="448.064309531527" style="stroke: rgb(0, 85, 255); stroke-width: 2px;"></line><line x1="219.99999999999972" y1="460" x2="219.99999999999972" y2="448.294467306813" style="stroke: rgb(0, 85, 255); stroke-width: 2px;"></line><line x1="220.99999999999972" y1="460" x2="220.99999999999972" y2="448.5195668431583" style="stroke: rgb(0, 85, 255); stroke-width: 2px;"></line><line x1="221.99999999999972" y1="460" x2="221.99999999999972" y2="448.7397328595237" style="stroke: rgb(0, 85, 255); stroke-width: 2px;"></line><line x1="222.99999999999972" y1="460" x2="222.99999999999972" y2="448.9550866673899" style="stroke: rgb(0, 85, 255); stroke-width: 2px;"></line><line x1="223.99999999999972" y1="460" x2="223.99999999999972" y2="449.16574627288435" style="stroke: rgb(0, 85, 255); stroke-width: 2px;"></line><line x1="224.99999999999972" y1="460" x2="224.99999999999972" y2="449.3718264755785" style="stroke: rgb(0, 85, 255); stroke-width: 2px;"></line><line x1="225.99999999999972" y1="460" x2="225.99999999999972" y2="449.57343896407144" style="stroke: rgb(0, 85, 255); stroke-width: 2px;"></line><line x1="226.99999999999972" y1="460" x2="226.99999999999972" y2="449.7706924084747" style="stroke: rgb(0, 85, 255); stroke-width: 2px;"></line><line x1="227.99999999999972" y1="460" x2="227.99999999999972" y2="449.96369254990475" style="stroke: rgb(0, 85, 255); stroke-width: 2px;"></line><line x1="228.99999999999972" y1="460" x2="228.99999999999972" y2="450.1525422870894" style="stroke: rgb(0, 85, 255); stroke-width: 2px;"></line><line x1="229.99999999999972" y1="460" x2="229.99999999999972" y2="450.337341760188" style="stroke: rgb(0, 85, 255); stroke-width: 2px;"></line><line x1="230.99999999999972" y1="460" x2="230.99999999999972" y2="450.5181884319224" style="stroke: rgb(0, 85, 255); stroke-width: 2px;"></line><line x1="231.9999999999997" y1="460" x2="231.9999999999997" y2="450.6951771661113" style="stroke: rgb(0, 85, 255); stroke-width: 2px;"></line><line x1="232.9999999999997" y1="460" x2="232.9999999999997" y2="450.8684003036992" style="stroke: rgb(0, 85, 255); stroke-width: 2px;"></line><line x1="233.9999999999997" y1="460" x2="233.9999999999997" y2="451.0379477363646" style="stroke: rgb(0, 85, 255); stroke-width: 2px;"></line><line x1="234.9999999999997" y1="460" x2="234.9999999999997" y2="451.203906977792" style="stroke: rgb(0, 85, 255); stroke-width: 2px;"></line><line x1="235.9999999999997" y1="460" x2="235.9999999999997" y2="451.3663632326874" style="stroke: rgb(0, 85, 255); stroke-width: 2px;"></line><line x1="236.9999999999997" y1="460" x2="236.9999999999997" y2="451.5253994636141" style="stroke: rgb(0, 85, 255); stroke-width: 2px;"></line><line x1="237.99999999999966" y1="460" x2="237.99999999999966" y2="451.68109645572423" style="stroke: rgb(0, 85, 255); stroke-width: 2px;"></line><line x1="238.99999999999966" y1="460" x2="238.99999999999966" y2="451.8335328794556" style="stroke: rgb(0, 85, 255); stroke-width: 2px;"></line><line x1="239.99999999999966" y1="460" x2="239.99999999999966" y2="451.9827853512661" style="stroke: rgb(0, 85, 255); stroke-width: 2px;"></line><line x1="240.99999999999966" y1="460" x2="240.99999999999966" y2="452.12892849246856" style="stroke: rgb(0, 85, 255); stroke-width: 2px;"></line><line x1="241.99999999999966" y1="460" x2="241.99999999999966" y2="452.27203498623265" style="stroke: rgb(0, 85, 255); stroke-width: 2px;"></line><line x1="242.99999999999966" y1="460" x2="242.99999999999966" y2="452.412175632815" style="stroke: rgb(0, 85, 255); stroke-width: 2px;"></line><line x1="243.99999999999966" y1="460" x2="243.99999999999966" y2="452.5494194030762" style="stroke: rgb(0, 85, 255); stroke-width: 2px;"></line><line x1="244.99999999999963" y1="460" x2="244.99999999999963" y2="452.68383349034303" style="stroke: rgb(0, 85, 255); stroke-width: 2px;"></line><line x1="245.99999999999963" y1="460" x2="245.99999999999963" y2="452.81548336067124" style="stroke: rgb(0, 85, 255); stroke-width: 2px;"></line><line x1="246.99999999999963" y1="460" x2="246.99999999999963" y2="452.9444328015611" style="stroke: rgb(0, 85, 255); stroke-width: 2px;"></line><line x1="247.99999999999963" y1="460" x2="247.99999999999963" y2="453.0707439691784" style="stroke: rgb(0, 85, 255); stroke-width: 2px;"></line><line x1="248.99999999999963" y1="460" x2="248.99999999999963" y2="453.1944774341301" style="stroke: rgb(0, 85, 255); stroke-width: 2px;"></line><line x1="249.99999999999963" y1="460" x2="249.99999999999963" y2="453.31569222584176" style="stroke: rgb(0, 85, 255); stroke-width: 2px;"></line><line x1="250.9999999999996" y1="460" x2="250.9999999999996" y2="453.43444587558406" style="stroke: rgb(0, 85, 255); stroke-width: 2px;"></line><line x1="251.9999999999996" y1="460" x2="251.9999999999996" y2="453.5507944581917" style="stroke: rgb(0, 85, 255); stroke-width: 2px;"></line><line x1="252.9999999999996" y1="460" x2="252.9999999999996" y2="453.6647926325187" style="stroke: rgb(0, 85, 255); stroke-width: 2px;"></line><line x1="253.9999999999996" y1="460" x2="253.9999999999996" y2="453.77649368067017" style="stroke: rgb(0, 85, 255); stroke-width: 2px;"></line><line x1="254.9999999999996" y1="460" x2="254.9999999999996" y2="453.8859495460521" style="stroke: rgb(0, 85, 255); stroke-width: 2px;"></line><line x1="100" y1="460" x2="100" y2="480" style="stroke: rgb(0, 85, 255); stroke-width: 2px;"></line><line x1="255.4117463021105" y1="460" x2="255.4117463021105" y2="480" style="stroke: rgb(0, 85, 255); stroke-width: 2px;"></line><text x="100" y="500" style="stroke: rgb(0, 85, 255); font-size: 9pt; font-family: sans-serif; text-anchor: middle;">0.000</text><text x="255.4117463021105" y="500" style="stroke: rgb(0, 85, 255); font-size: 9pt; font-family: sans-serif; text-anchor: middle;">3.885</text><text x="177.70587315105524" y="490" style="stroke: rgb(0, 85, 255); font-size: 9pt; font-family: sans-serif; text-anchor: middle;">&lt;- Accept H₀ -&gt;</text><text x="305.4117463021105" y="490" style="stroke: red; font-size: 9pt; font-family: sans-serif; text-anchor: middle;">&lt;- Reject H₀</text><text x="305.4117463021105" y="430" style="stroke: red; font-size: 9pt; font-family: sans-serif; text-anchor: middle;">0.050</text><line x1="187.59261828777574" y1="460" x2="187.59261828777574" y2="510" style="stroke-width: 2px; stroke: green;"></line><text x="187.59261828777574" y="520" style="stroke: green; font-size: 9pt; font-family: sans-serif; text-anchor: middle;">Fo = 2.19, p-value = 0.1546</text><text x="300" y="535" style="stroke: rgb(0, 85, 255); font-size: 9pt; font-family: sans-serif; text-anchor: middle;">[Decision] Accept H₀</text></svg>