<svg xmlns="http://www.w3.org/2000/svg" id="SVG" width="600" height="560" xlink="http://www.w3.org/1999/xlink"><text x="290" y="50" style="font-size: 17px; font-family: sans-seirf; stroke: black; text-anchor: middle;">OtterLength  Stem and Leaf Plot</text><text class="titleStem" x="40" y="100" style="stroke: rgb(0, 85, 255);">Stem</text><text class="titleStem" x="110" y="100" style="stroke: rgb(0, 85, 255);"> Leaf</text><line x1="20" x2="580" y1="110" y2="110" style="stroke: black;"></line><text class="stem" x="70" y="130" style="stroke: rgb(0, 85, 255);">60</text><text class="leaf" x="118" y="130" style="stroke: rgb(255, 165, 0);">7</text><text class="stem" x="70" y="145" style="stroke: rgb(0, 85, 255);">61</text><text class="leaf" x="118" y="145" style="stroke: rgb(255, 165, 0);">7</text><text class="stem" x="70" y="160" style="stroke: rgb(0, 85, 255);">62</text><text class="stem" x="70" y="175" style="stroke: rgb(0, 85, 255);">63</text><text class="leaf" x="118" y="175" style="stroke: rgb(0, 170, 0);">2</text><text class="leaf" x="126" y="175" style="stroke: rgb(0, 0, 205);">6</text><text class="stem" x="70" y="190" style="stroke: rgb(0, 85, 255);">64</text><text class="leaf" x="118" y="190" style="stroke: rgb(255, 0, 221);">4</text><text class="stem" x="70" y="205" style="stroke: rgb(0, 85, 255);">65</text><text class="leaf" x="118" y="205" style="stroke: rgb(255, 228, 0);">3</text><text class="stem" x="70" y="220" style="stroke: rgb(0, 85, 255);">66</text><text class="leaf" x="118" y="220" style="stroke: rgb(255, 69, 0);">1</text><text class="stem" x="70" y="235" style="stroke: rgb(0, 85, 255);">67</text><text class="leaf" x="118" y="235" style="stroke: rgb(0, 170, 0);">2</text><text class="leaf" x="126" y="235" style="stroke: rgb(0, 0, 205);">6</text><text class="leaf" x="134" y="235" style="stroke: rgb(135, 206, 235);">9</text><text class="stem" x="70" y="250" style="stroke: rgb(0, 85, 255);">68</text><text class="leaf" x="118" y="250" style="stroke: rgb(0, 170, 0);">2</text><text class="leaf" x="126" y="250" style="stroke: rgb(255, 228, 0);">3</text><text class="leaf" x="134" y="250" style="stroke: rgb(0, 0, 205);">6</text><text class="leaf" x="142" y="250" style="stroke: rgb(255, 165, 0);">7</text><text class="leaf" x="150" y="250" style="stroke: rgb(255, 165, 0);">7</text><text class="stem" x="70" y="265" style="stroke: rgb(0, 85, 255);">69</text><text class="leaf" x="118" y="265" style="stroke: rgb(255, 228, 0);">3</text><text class="leaf" x="126" y="265" style="stroke: rgb(255, 0, 221);">4</text><text class="leaf" x="134" y="265" style="stroke: rgb(255, 165, 0);">7</text><text class="leaf" x="142" y="265" style="stroke: rgb(255, 165, 0);">7</text><text class="stem" x="70" y="280" style="stroke: rgb(0, 85, 255);">70</text><text class="leaf" x="118" y="280" style="stroke: rgb(0, 170, 0);">2</text><text class="leaf" x="126" y="280" style="stroke: rgb(128, 128, 0);">5</text><text class="stem" x="70" y="295" style="stroke: rgb(0, 85, 255);">71</text><text class="leaf" x="118" y="295" style="stroke: rgb(255, 228, 0);">3</text><text class="stem" x="70" y="310" style="stroke: rgb(0, 85, 255);">72</text><text class="leaf" x="118" y="310" style="stroke: rgb(255, 228, 0);">3</text><text class="leaf" x="126" y="310" style="stroke: rgb(255, 0, 221);">4</text><text class="leaf" x="134" y="310" style="stroke: rgb(124, 252, 0);">8</text><text class="stem" x="70" y="325" style="stroke: rgb(0, 85, 255);">73</text><text class="stem" x="70" y="340" style="stroke: rgb(0, 85, 255);">74</text><text class="leaf" x="118" y="340" style="stroke: rgb(0, 170, 0);">2</text><text class="stem" x="70" y="355" style="stroke: rgb(0, 85, 255);">75</text><text class="leaf" x="118" y="355" style="stroke: rgb(0, 170, 0);">2</text><text class="stem" x="70" y="370" style="stroke: rgb(0, 85, 255);">76</text><text class="leaf" x="118" y="370" style="stroke: rgb(128, 128, 0);">5</text><text class="stem" x="70" y="385" style="stroke: rgb(0, 85, 255);">77</text><text class="leaf" x="118" y="385" style="stroke: rgb(0, 0, 205);">6</text><text class="stem" x="70" y="400" style="stroke: rgb(0, 85, 255);">78</text><text class="leaf" x="118" y="400" style="stroke: rgb(255, 69, 0);">1</text></svg>