<svg xmlns="http://www.w3.org/2000/svg" id="SVG" style="width: 600px; height: 560px;"><text x="290" y="50" style="font-size: 17px; font-family: sans-seirf; stroke: black; text-anchor: middle;">Height Confidence Interval Graph</text><text x="290" y="530" style="font-size: 12px; font-family: sans-seirf; stroke: black; text-anchor: middle;">Height</text><text x="520" y="280" style="font-size: 12px; font-family: sans-seirf; stroke: rgb(0, 85, 255); text-anchor: start;"></text><line x1="80" x2="500" y1="80" y2="80" style="stroke: black;"></line><g transform="translate(80,480)" fill="none" font-size="10" font-family="sans-serif" text-anchor="middle"><path class="domain" stroke="#000" d="M0.5,6V0.5H420.5V6"></path><g class="tick" opacity="1" transform="translate(13.624999999999883,0)"><line stroke="#000" y2="6"></line><text fill="#000" y="9" dy="0.71em">168</text></g><g class="tick" opacity="1" transform="translate(57.374999999999915,0)"><line stroke="#000" y2="6"></line><text fill="#000" y="9" dy="0.71em">170</text></g><g class="tick" opacity="1" transform="translate(101.12499999999993,0)"><line stroke="#000" y2="6"></line><text fill="#000" y="9" dy="0.71em">172</text></g><g class="tick" opacity="1" transform="translate(144.87499999999994,0)"><line stroke="#000" y2="6"></line><text fill="#000" y="9" dy="0.71em">174</text></g><g class="tick" opacity="1" transform="translate(188.62499999999997,0)"><line stroke="#000" y2="6"></line><text fill="#000" y="9" dy="0.71em">176</text></g><g class="tick" opacity="1" transform="translate(232.37500000000003,0)"><line stroke="#000" y2="6"></line><text fill="#000" y="9" dy="0.71em">178</text></g><g class="tick" opacity="1" transform="translate(276.12500000000006,0)"><line stroke="#000" y2="6"></line><text fill="#000" y="9" dy="0.71em">180</text></g><g class="tick" opacity="1" transform="translate(319.87500000000006,0)"><line stroke="#000" y2="6"></line><text fill="#000" y="9" dy="0.71em">182</text></g><g class="tick" opacity="1" transform="translate(363.6250000000001,0)"><line stroke="#000" y2="6"></line><text fill="#000" y="9" dy="0.71em">184</text></g><g class="tick" opacity="1" transform="translate(407.3750000000001,0)"><line stroke="#000" y2="6"></line><text fill="#000" y="9" dy="0.71em">186</text></g></g><line x1="80" x2="80" y1="80" y2="480" style="stroke: black;"></line><line x1="500" x2="500" y1="80" y2="480" style="stroke: black;"></line><circle class="circle" tooltip="circle" stroke="black" cx="114.99999999999989" cy="472" r="4" style="fill: rgb(0, 85, 255);"></circle><circle class="circle" tooltip="circle" stroke="black" cx="180.62499999999994" cy="472" r="4" style="fill: rgb(0, 85, 255);"></circle><circle class="circle" tooltip="circle" stroke="black" cx="202.49999999999994" cy="472" r="4" style="fill: rgb(0, 85, 255);"></circle><circle class="circle" tooltip="circle" stroke="black" cx="246.24999999999997" cy="472" r="4" style="fill: rgb(0, 85, 255);"></circle><circle class="circle" tooltip="circle" stroke="black" cx="268.125" cy="472" r="4" style="fill: rgb(0, 85, 255);"></circle><circle class="circle" tooltip="circle" stroke="black" cx="290" cy="472" r="4" style="fill: rgb(0, 85, 255);"></circle><circle class="circle" tooltip="circle" stroke="black" cx="311.875" cy="472" r="4" style="fill: rgb(0, 85, 255);"></circle><circle class="circle" tooltip="circle" stroke="black" cx="355.625" cy="472" r="4" style="fill: rgb(0, 85, 255);"></circle><circle class="circle" tooltip="circle" stroke="black" cx="399.37500000000006" cy="472" r="4" style="fill: rgb(0, 85, 255);"></circle><circle class="circle" tooltip="circle" stroke="black" cx="465.0000000000001" cy="472" r="4" style="fill: rgb(0, 85, 255);"></circle><line class="mean" x1="283.4374999999998" y1="85" x2="283.4374999999998" y2="480" style="stroke: rgb(255, 69, 0);"></line><text class="mean" x="288.4374999999998" y="280" style="text-anchor: start; font-size: 9px; font-family: sans-serif; stroke: rgb(255, 69, 0);">x̄=176.70</text><text class="mean" x="485" y="95" style="text-anchor: end; font-size: 9px; font-family: sans-serif; stroke: rgb(0, 85, 255);">n=10</text><text class="mean" x="490" y="110" style="text-anchor: end; font-size: 9px; font-family: sans-serif; stroke: rgb(0, 85, 255);">s=4.81</text><circle class="std" cx="283.4374999999998" cy="285" r="1" style="fill: green;"></circle><line class="std" x1="208.19111833363664" y1="285" x2="283.4374999999998" y2="285" style="stroke: yellowgreen;"></line><line class="std" x1="358.6838816663629" y1="285" x2="283.4374999999998" y2="285" style="stroke: yellowgreen;"></line><circle class="std" cx="208.19111833363664" cy="285" r="1" style="fill: yellowgreen;"></circle><circle class="std" cx="358.6838816663629" cy="285" r="1" style="fill: yellowgreen;"></circle><text class="std" x="208.19111833363664" y="295" style="text-anchor: middle; font-size: 9px; font-family: sans-serif; stroke: green;">95% CI</text></svg>