<svg xmlns="http://www.w3.org/2000/svg" id="chart" width="600" height="400"> <text x="300" y="30" style="font-family: sans-serif; font-size: 12pt; stroke: black; text-anchor: middle;">H₀: σ₁² = σ₂² , H₁: σ₁² ≠ σ₂²</text><text x="300" y="60" style="font-family: sans-serif; font-size: 9pt; stroke: green; text-anchor: middle;">[TestStat] = ( S₁² / S₂² )  ~  F(11,9) Distribution</text><g transform="translate(100,270)" fill="none" font-size="10" font-family="sans-serif" text-anchor="middle"><path class="domain" stroke="#000" d="M0.5,6V0.5H400.5V6"></path><g class="tick" opacity="1" transform="translate(0.5,0)"><line stroke="#000" y2="6"></line><text fill="#000" y="9" dy="0.71em">0</text></g><g class="tick" opacity="1" transform="translate(40.5,0)"><line stroke="#000" y2="6"></line><text fill="#000" y="9" dy="0.71em">1</text></g><g class="tick" opacity="1" transform="translate(80.5,0)"><line stroke="#000" y2="6"></line><text fill="#000" y="9" dy="0.71em">2</text></g><g class="tick" opacity="1" transform="translate(120.5,0)"><line stroke="#000" y2="6"></line><text fill="#000" y="9" dy="0.71em">3</text></g><g class="tick" opacity="1" transform="translate(160.5,0)"><line stroke="#000" y2="6"></line><text fill="#000" y="9" dy="0.71em">4</text></g><g class="tick" opacity="1" transform="translate(200.5,0)"><line stroke="#000" y2="6"></line><text fill="#000" y="9" dy="0.71em">5</text></g><g class="tick" opacity="1" transform="translate(240.5,0)"><line stroke="#000" y2="6"></line><text fill="#000" y="9" dy="0.71em">6</text></g><g class="tick" opacity="1" transform="translate(280.5,0)"><line stroke="#000" y2="6"></line><text fill="#000" y="9" dy="0.71em">7</text></g><g class="tick" opacity="1" transform="translate(320.5,0)"><line stroke="#000" y2="6"></line><text fill="#000" y="9" dy="0.71em">8</text></g><g class="tick" opacity="1" transform="translate(360.5,0)"><line stroke="#000" y2="6"></line><text fill="#000" y="9" dy="0.71em">9</text></g><g class="tick" opacity="1" transform="translate(400.5,0)"><line stroke="#000" y2="6"></line><text fill="#000" y="9" dy="0.71em">10</text></g></g><g transform="translate(100,60)" fill="none" font-size="10" font-family="sans-serif" text-anchor="end"><path class="domain" stroke="#000" d="M-6,0.5H0.5V210.5H-6"></path><g class="tick" opacity="1" transform="translate(0,0.5)"><line stroke="#000" x2="-6"></line><text fill="#000" x="-9" dy="0.32em">1.8</text></g><g class="tick" opacity="1" transform="translate(0,23.833333333333314)"><line stroke="#000" x2="-6"></line><text fill="#000" x="-9" dy="0.32em">1.6</text></g><g class="tick" opacity="1" transform="translate(0,47.166666666666686)"><line stroke="#000" x2="-6"></line><text fill="#000" x="-9" dy="0.32em">1.4</text></g><g class="tick" opacity="1" transform="translate(0,70.5)"><line stroke="#000" x2="-6"></line><text fill="#000" x="-9" dy="0.32em">1.2</text></g><g class="tick" opacity="1" transform="translate(0,93.83333333333333)"><line stroke="#000" x2="-6"></line><text fill="#000" x="-9" dy="0.32em">1.0</text></g><g class="tick" opacity="1" transform="translate(0,117.16666666666666)"><line stroke="#000" x2="-6"></line><text fill="#000" x="-9" dy="0.32em">0.8</text></g><g class="tick" opacity="1" transform="translate(0,140.5)"><line stroke="#000" x2="-6"></line><text fill="#000" x="-9" dy="0.32em">0.6</text></g><g class="tick" opacity="1" transform="translate(0,163.83333333333331)"><line stroke="#000" x2="-6"></line><text fill="#000" x="-9" dy="0.32em">0.4</text></g><g class="tick" opacity="1" transform="translate(0,187.16666666666666)"><line stroke="#000" x2="-6"></line><text fill="#000" x="-9" dy="0.32em">0.2</text></g><g class="tick" opacity="1" transform="translate(0,210.5)"><line stroke="#000" x2="-6"></line><text fill="#000" x="-9" dy="0.32em">0.0</text></g></g><line x1="100" y1="270" x2="101" y2="269.99041591359986" stroke-width="2px" style="stroke: black;"></line><line x1="101" y1="269.99041591359986" x2="102" y2="269.83808347755036" stroke-width="2px" style="stroke: black;"></line><line x1="102" y1="269.83808347755036" x2="103" y2="269.2441946550792" stroke-width="2px" style="stroke: black;"></line><line x1="103" y1="269.2441946550792" x2="104" y2="267.90711133327284" stroke-width="2px" style="stroke: black;"></line><line x1="104" y1="267.90711133327284" x2="105" y2="265.6330937470886" stroke-width="2px" style="stroke: black;"></line><line x1="105" y1="265.6330937470886" x2="106" y2="262.36384997834574" stroke-width="2px" style="stroke: black;"></line><line x1="106" y1="262.36384997834574" x2="107" y2="258.15822986105763" stroke-width="2px" style="stroke: black;"></line><line x1="107" y1="258.15822986105763" x2="108" y2="253.1571873493821" stroke-width="2px" style="stroke: black;"></line><line x1="108" y1="253.1571873493821" x2="109" y2="247.5480403283827" stroke-width="2px" style="stroke: black;"></line><line x1="109" y1="247.5480403283827" x2="110" y2="241.53499679781675" stroke-width="2px" style="stroke: black;"></line><line x1="110" y1="241.53499679781675" x2="111" y2="235.31784012861604" stroke-width="2px" style="stroke: black;"></line><line x1="111" y1="235.31784012861604" x2="112" y2="229.07823133775955" stroke-width="2px" style="stroke: black;"></line><line x1="112" y1="229.07823133775955" x2="113" y2="222.9721579178605" stroke-width="2px" style="stroke: black;"></line><line x1="113" y1="222.9721579178605" x2="114" y2="217.12689845247363" stroke-width="2px" style="stroke: black;"></line><line x1="114" y1="217.12689845247363" x2="115" y2="211.6410528716978" stroke-width="2px" style="stroke: black;"></line><line x1="115" y1="211.6410528716978" x2="116" y2="206.5864828588604" stroke-width="2px" style="stroke: black;"></line><line x1="116" y1="206.5864828588604" x2="117" y2="202.01130594202047" stroke-width="2px" style="stroke: black;"></line><line x1="117" y1="202.01130594202047" x2="118" y2="197.94334459693397" stroke-width="2px" style="stroke: black;"></line><line x1="118" y1="197.94334459693397" x2="119" y2="194.3936353259488" stroke-width="2px" style="stroke: black;"></line><line x1="119" y1="194.3936353259488" x2="120" y2="191.35975438993103" stroke-width="2px" style="stroke: black;"></line><line x1="120" y1="191.35975438993103" x2="121" y2="188.82882478076485" stroke-width="2px" style="stroke: black;"></line><line x1="121" y1="188.82882478076485" x2="122" y2="186.78014256108457" stroke-width="2px" style="stroke: black;"></line><line x1="122" y1="186.78014256108457" x2="123" y2="185.1874085559351" stroke-width="2px" style="stroke: black;"></line><line x1="123" y1="185.1874085559351" x2="124" y2="184.02058076975146" stroke-width="2px" style="stroke: black;"></line><line x1="124" y1="184.02058076975146" x2="125" y2="183.24737944944093" stroke-width="2px" style="stroke: black;"></line><line x1="125" y1="183.24737944944093" x2="126.00000000000001" y2="182.83448463176967" stroke-width="2px" style="stroke: black;"></line><line x1="126.00000000000001" y1="182.83448463176967" x2="127.00000000000001" y2="182.7484683514428" stroke-width="2px" style="stroke: black;"></line><line x1="127.00000000000001" y1="182.7484683514428" x2="128" y2="182.95650259458725" stroke-width="2px" style="stroke: black;"></line><line x1="128" y1="182.95650259458725" x2="129" y2="183.4268810352781" stroke-width="2px" style="stroke: black;"></line><line x1="129" y1="183.4268810352781" x2="130" y2="184.1293885734897" stroke-width="2px" style="stroke: black;"></line><line x1="130" y1="184.1293885734897" x2="131" y2="185.03554833536217" stroke-width="2px" style="stroke: black;"></line><line x1="131" y1="185.03554833536217" x2="132" y2="186.11877149193634" stroke-width="2px" style="stroke: black;"></line><line x1="132" y1="186.11877149193634" x2="133" y2="187.35443122618295" stroke-width="2px" style="stroke: black;"></line><line x1="133" y1="187.35443122618295" x2="134" y2="188.71987854615298" stroke-width="2px" style="stroke: black;"></line><line x1="134" y1="188.71987854615298" x2="135" y2="190.19441444952685" stroke-width="2px" style="stroke: black;"></line><line x1="135" y1="190.19441444952685" x2="136" y2="191.75923019309238" stroke-width="2px" style="stroke: black;"></line><line x1="136" y1="191.75923019309238" x2="137" y2="193.39732508541448" stroke-width="2px" style="stroke: black;"></line><line x1="137" y1="193.39732508541448" x2="138.00000000000003" y2="195.0934092644392" stroke-width="2px" style="stroke: black;"></line><line x1="138.00000000000003" y1="195.0934092644392" x2="139.00000000000003" y2="196.83379730043464" stroke-width="2px" style="stroke: black;"></line><line x1="139.00000000000003" y1="196.83379730043464" x2="140" y2="198.6062971341627" stroke-width="2px" style="stroke: black;"></line><line x1="140" y1="198.6062971341627" x2="141" y2="200.40009777810258" stroke-width="2px" style="stroke: black;"></line><line x1="141" y1="200.40009777810258" x2="142" y2="202.2056583360543" stroke-width="2px" style="stroke: black;"></line><line x1="142" y1="202.2056583360543" x2="143" y2="204.01460019896334" stroke-width="2px" style="stroke: black;"></line><line x1="143" y1="204.01460019896334" x2="144" y2="205.8196037221116" stroke-width="2px" style="stroke: black;"></line><line x1="144" y1="205.8196037221116" x2="145" y2="207.61431025501344" stroke-width="2px" style="stroke: black;"></line><line x1="145" y1="207.61431025501344" x2="146" y2="209.3932300584363" stroke-width="2px" style="stroke: black;"></line><line x1="146" y1="209.3932300584363" x2="147" y2="211.15165638447377" stroke-width="2px" style="stroke: black;"></line><line x1="147" y1="211.15165638447377" x2="148" y2="212.8855858001785" stroke-width="2px" style="stroke: black;"></line><line x1="148" y1="212.8855858001785" x2="149" y2="214.59164469019106" stroke-width="2px" style="stroke: black;"></line><line x1="149" y1="214.59164469019106" x2="150" y2="216.2670217686952" stroke-width="2px" style="stroke: black;"></line><line x1="150" y1="216.2670217686952" x2="150.99999999999997" y2="217.90940635732687" stroke-width="2px" style="stroke: black;"></line><line x1="150.99999999999997" y1="217.90940635732687" x2="151.99999999999997" y2="219.5169321365293" stroke-width="2px" style="stroke: black;"></line><line x1="151.99999999999997" y1="219.5169321365293" x2="152.99999999999997" y2="221.088126047635" stroke-width="2px" style="stroke: black;"></line><line x1="152.99999999999997" y1="221.088126047635" x2="153.99999999999997" y2="222.62186200726302" stroke-width="2px" style="stroke: black;"></line><line x1="153.99999999999997" y1="222.62186200726302" x2="154.99999999999997" y2="224.11731909081385" stroke-width="2px" style="stroke: black;"></line><line x1="154.99999999999997" y1="224.11731909081385" x2="155.99999999999997" y2="225.57394384513827" stroke-width="2px" style="stroke: black;"></line><line x1="155.99999999999997" y1="225.57394384513827" x2="156.99999999999994" y2="226.991416399573" stroke-width="2px" style="stroke: black;"></line><line x1="156.99999999999994" y1="226.991416399573" x2="157.99999999999994" y2="228.36962005775413" stroke-width="2px" style="stroke: black;"></line><line x1="157.99999999999994" y1="228.36962005775413" x2="158.99999999999994" y2="229.7086140685463" stroke-width="2px" style="stroke: black;"></line><line x1="158.99999999999994" y1="229.7086140685463" x2="159.99999999999994" y2="231.00860929203884" stroke-width="2px" style="stroke: black;"></line><line x1="159.99999999999994" y1="231.00860929203884" x2="160.99999999999994" y2="232.2699464950332" stroke-width="2px" style="stroke: black;"></line><line x1="160.99999999999994" y1="232.2699464950332" x2="161.99999999999994" y2="233.49307702920117" stroke-width="2px" style="stroke: black;"></line><line x1="161.99999999999994" y1="233.49307702920117" x2="162.99999999999994" y2="234.6785456636648" stroke-width="2px" style="stroke: black;"></line><line x1="162.99999999999994" y1="234.6785456636648" x2="163.99999999999994" y2="235.82697536183633" stroke-width="2px" style="stroke: black;"></line><line x1="163.99999999999994" y1="235.82697536183633" x2="164.99999999999994" y2="236.93905380971643" stroke-width="2px" style="stroke: black;"></line><line x1="164.99999999999994" y1="236.93905380971643" x2="165.99999999999991" y2="238.01552151935033" stroke-width="2px" style="stroke: black;"></line><line x1="165.99999999999991" y1="238.01552151935033" x2="166.99999999999991" y2="239.05716134667628" stroke-width="2px" style="stroke: black;"></line><line x1="166.99999999999991" y1="239.05716134667628" x2="167.99999999999991" y2="240.06478927753705" stroke-width="2px" style="stroke: black;"></line><line x1="167.99999999999991" y1="240.06478927753705" x2="168.99999999999991" y2="241.0392463491345" stroke-width="2px" style="stroke: black;"></line><line x1="168.99999999999991" y1="241.0392463491345" x2="169.99999999999991" y2="241.98139158670816" stroke-width="2px" style="stroke: black;"></line><line x1="169.99999999999991" y1="241.98139158670816" x2="170.99999999999991" y2="242.89209584673455" stroke-width="2px" style="stroke: black;"></line><line x1="170.99999999999991" y1="242.89209584673455" x2="171.99999999999991" y2="243.77223646851394" stroke-width="2px" style="stroke: black;"></line><line x1="171.99999999999991" y1="243.77223646851394" x2="172.9999999999999" y2="244.62269264568255" stroke-width="2px" style="stroke: black;"></line><line x1="172.9999999999999" y1="244.62269264568255" x2="173.9999999999999" y2="245.44434143801539" stroke-width="2px" style="stroke: black;"></line><line x1="173.9999999999999" y1="245.44434143801539" x2="174.9999999999999" y2="246.23805435191704" stroke-width="2px" style="stroke: black;"></line><line x1="174.9999999999999" y1="246.23805435191704" x2="175.9999999999999" y2="247.00469442529794" stroke-width="2px" style="stroke: black;"></line><line x1="175.9999999999999" y1="247.00469442529794" x2="176.9999999999999" y2="247.7451137591509" stroke-width="2px" style="stroke: black;"></line><line x1="176.9999999999999" y1="247.7451137591509" x2="177.9999999999999" y2="248.4601514441309" stroke-width="2px" style="stroke: black;"></line><line x1="177.9999999999999" y1="248.4601514441309" x2="178.9999999999999" y2="249.15063183585735" stroke-width="2px" style="stroke: black;"></line><line x1="178.9999999999999" y1="249.15063183585735" x2="179.9999999999999" y2="249.81736313754416" stroke-width="2px" style="stroke: black;"></line><line x1="179.9999999999999" y1="249.81736313754416" x2="180.9999999999999" y2="250.4611362529667" stroke-width="2px" style="stroke: black;"></line><line x1="180.9999999999999" y1="250.4611362529667" x2="181.99999999999986" y2="251.08272387674398" stroke-width="2px" style="stroke: black;"></line><line x1="181.99999999999986" y1="251.08272387674398" x2="182.99999999999986" y2="251.68287979248174" stroke-width="2px" style="stroke: black;"></line><line x1="182.99999999999986" y1="251.68287979248174" x2="183.99999999999986" y2="252.26233835252992" stroke-width="2px" style="stroke: black;"></line><line x1="183.99999999999986" y1="252.26233835252992" x2="184.99999999999986" y2="252.82181411598768" stroke-width="2px" style="stroke: black;"></line><line x1="184.99999999999986" y1="252.82181411598768" x2="185.99999999999986" y2="253.36200162417376" stroke-width="2px" style="stroke: black;"></line><line x1="185.99999999999986" y1="253.36200162417376" x2="186.99999999999986" y2="253.88357529509565" stroke-width="2px" style="stroke: black;"></line><line x1="186.99999999999986" y1="253.88357529509565" x2="187.99999999999986" y2="254.38718942052742" stroke-width="2px" style="stroke: black;"></line><line x1="187.99999999999986" y1="254.38718942052742" x2="188.99999999999983" y2="254.87347825116325" stroke-width="2px" style="stroke: black;"></line><line x1="188.99999999999983" y1="254.87347825116325" x2="189.99999999999983" y2="255.34305615697693" stroke-width="2px" style="stroke: black;"></line><line x1="189.99999999999983" y1="255.34305615697693" x2="190.99999999999983" y2="255.79651785140243" stroke-width="2px" style="stroke: black;"></line><line x1="190.99999999999983" y1="255.79651785140243" x2="191.99999999999983" y2="256.23443866927937" stroke-width="2px" style="stroke: black;"></line><line x1="191.99999999999983" y1="256.23443866927937" x2="192.99999999999983" y2="256.65737488969364" stroke-width="2px" style="stroke: black;"></line><line x1="192.99999999999983" y1="256.65737488969364" x2="193.99999999999983" y2="257.06586409589835" stroke-width="2px" style="stroke: black;"></line><line x1="193.99999999999983" y1="257.06586409589835" x2="194.99999999999983" y2="257.4604255654481" stroke-width="2px" style="stroke: black;"></line><line x1="194.99999999999983" y1="257.4604255654481" x2="195.99999999999983" y2="257.8415606845151" stroke-width="2px" style="stroke: black;"></line><line x1="195.99999999999983" y1="257.8415606845151" x2="196.99999999999983" y2="258.20975338111054" stroke-width="2px" style="stroke: black;"></line><line x1="196.99999999999983" y1="258.20975338111054" x2="197.9999999999998" y2="258.56547057259377" stroke-width="2px" style="stroke: black;"></line><line x1="197.9999999999998" y1="258.56547057259377" x2="198.9999999999998" y2="258.90916262345047" stroke-width="2px" style="stroke: black;"></line><line x1="198.9999999999998" y1="258.90916262345047" x2="199.9999999999998" y2="259.2412638098432" stroke-width="2px" style="stroke: black;"></line><line x1="199.9999999999998" y1="259.2412638098432" x2="200.9999999999998" y2="259.56219278790826" stroke-width="2px" style="stroke: black;"></line><line x1="200.9999999999998" y1="259.56219278790826" x2="201.9999999999998" y2="259.8723530631835" stroke-width="2px" style="stroke: black;"></line><line x1="201.9999999999998" y1="259.8723530631835" x2="202.9999999999998" y2="260.1721334589224" stroke-width="2px" style="stroke: black;"></line><line x1="202.9999999999998" y1="260.1721334589224" x2="203.9999999999998" y2="260.46190858137396" stroke-width="2px" style="stroke: black;"></line><line x1="203.9999999999998" y1="260.46190858137396" x2="204.9999999999998" y2="260.74203928039395" stroke-width="2px" style="stroke: black;"></line><line x1="204.9999999999998" y1="260.74203928039395" x2="205.99999999999977" y2="261.0128731040087" stroke-width="2px" style="stroke: black;"></line><line x1="205.99999999999977" y1="261.0128731040087" x2="206.99999999999977" y2="261.27474474577645" stroke-width="2px" style="stroke: black;"></line><line x1="206.99999999999977" y1="261.27474474577645" x2="207.99999999999977" y2="261.527976483987" stroke-width="2px" style="stroke: black;"></line><line x1="207.99999999999977" y1="261.527976483987" x2="208.99999999999977" y2="261.77287861191667" stroke-width="2px" style="stroke: black;"></line><line x1="208.99999999999977" y1="261.77287861191667" x2="209.99999999999977" y2="262.0097498585039" stroke-width="2px" style="stroke: black;"></line><line x1="209.99999999999977" y1="262.0097498585039" x2="210.99999999999977" y2="262.2388777989488" stroke-width="2px" style="stroke: black;"></line><line x1="210.99999999999977" y1="262.2388777989488" x2="211.99999999999977" y2="262.4605392548529" stroke-width="2px" style="stroke: black;"></line><line x1="211.99999999999977" y1="262.4605392548529" x2="212.99999999999974" y2="262.67500068361863" stroke-width="2px" style="stroke: black;"></line><line x1="212.99999999999974" y1="262.67500068361863" x2="213.99999999999974" y2="262.88251855691703" stroke-width="2px" style="stroke: black;"></line><line x1="213.99999999999974" y1="262.88251855691703" x2="214.99999999999974" y2="263.0833397281069" stroke-width="2px" style="stroke: black;"></line><line x1="214.99999999999974" y1="263.0833397281069" x2="215.99999999999974" y2="263.27770178855855" stroke-width="2px" style="stroke: black;"></line><line x1="215.99999999999974" y1="263.27770178855855" x2="216.99999999999974" y2="263.46583341288675" stroke-width="2px" style="stroke: black;"></line><line x1="216.99999999999974" y1="263.46583341288675" x2="217.99999999999974" y2="263.6479546931529" stroke-width="2px" style="stroke: black;"></line><line x1="217.99999999999974" y1="263.6479546931529" x2="218.99999999999972" y2="263.8242774621324" stroke-width="2px" style="stroke: black;"></line><line x1="218.99999999999972" y1="263.8242774621324" x2="219.99999999999972" y2="263.9950056057816" stroke-width="2px" style="stroke: black;"></line><line x1="219.99999999999972" y1="263.9950056057816" x2="220.99999999999972" y2="264.160335365068" stroke-width="2px" style="stroke: black;"></line><line x1="220.99999999999972" y1="264.160335365068" x2="221.99999999999972" y2="264.32045562735016" stroke-width="2px" style="stroke: black;"></line><line x1="221.99999999999972" y1="264.32045562735016" x2="222.99999999999972" y2="264.4755482075162" stroke-width="2px" style="stroke: black;"></line><line x1="222.99999999999972" y1="264.4755482075162" x2="223.99999999999972" y2="264.62578811910555" stroke-width="2px" style="stroke: black;"></line><line x1="223.99999999999972" y1="264.62578811910555" x2="224.99999999999972" y2="264.77134383565016" stroke-width="2px" style="stroke: black;"></line><line x1="224.99999999999972" y1="264.77134383565016" x2="225.99999999999972" y2="264.9123775424836" stroke-width="2px" style="stroke: black;"></line><line x1="225.99999999999972" y1="264.9123775424836" x2="226.99999999999972" y2="265.049045379273" stroke-width="2px" style="stroke: black;"></line><line x1="226.99999999999972" y1="265.049045379273" x2="227.99999999999972" y2="265.18149767353356" stroke-width="2px" style="stroke: black;"></line><line x1="227.99999999999972" y1="265.18149767353356" x2="228.99999999999972" y2="265.30987916538976" stroke-width="2px" style="stroke: black;"></line><line x1="228.99999999999972" y1="265.30987916538976" x2="229.99999999999972" y2="265.43432922384847" stroke-width="2px" style="stroke: black;"></line><line x1="229.99999999999972" y1="265.43432922384847" x2="230.99999999999972" y2="265.55498205484935" stroke-width="2px" style="stroke: black;"></line><line x1="230.99999999999972" y1="265.55498205484935" x2="231.9999999999997" y2="265.6719669013567" stroke-width="2px" style="stroke: black;"></line><line x1="231.9999999999997" y1="265.6719669013567" x2="232.9999999999997" y2="265.785408235756" stroke-width="2px" style="stroke: black;"></line><line x1="232.9999999999997" y1="265.785408235756" x2="233.9999999999997" y2="265.89542594481355" stroke-width="2px" style="stroke: black;"></line><line x1="233.9999999999997" y1="265.89542594481355" x2="234.9999999999997" y2="266.0021355074556" stroke-width="2px" style="stroke: black;"></line><line x1="234.9999999999997" y1="266.0021355074556" x2="235.9999999999997" y2="266.10564816561777" stroke-width="2px" style="stroke: black;"></line><line x1="235.9999999999997" y1="266.10564816561777" x2="236.9999999999997" y2="266.2060710884117" stroke-width="2px" style="stroke: black;"></line><line x1="236.9999999999997" y1="266.2060710884117" x2="237.99999999999966" y2="266.30350752984907" stroke-width="2px" style="stroke: black;"></line><line x1="237.99999999999966" y1="266.30350752984907" x2="238.99999999999966" y2="266.39805698035957" stroke-width="2px" style="stroke: black;"></line><line x1="238.99999999999966" y1="266.39805698035957" x2="239.99999999999966" y2="266.4898153123315" stroke-width="2px" style="stroke: black;"></line><line x1="239.99999999999966" y1="266.4898153123315" x2="240.99999999999966" y2="266.57887491989857" stroke-width="2px" style="stroke: black;"></line><line x1="240.99999999999966" y1="266.57887491989857" x2="241.99999999999966" y2="266.6653248531906" stroke-width="2px" style="stroke: black;"></line><line x1="241.99999999999966" y1="266.6653248531906" x2="242.99999999999966" y2="266.7492509472576" stroke-width="2px" style="stroke: black;"></line><line x1="242.99999999999966" y1="266.7492509472576" x2="243.99999999999966" y2="266.8307359458733" stroke-width="2px" style="stroke: black;"></line><line x1="243.99999999999966" y1="266.8307359458733" x2="244.99999999999963" y2="266.9098596204146" stroke-width="2px" style="stroke: black;"></line><line x1="244.99999999999963" y1="266.9098596204146" x2="245.99999999999963" y2="266.9866988840095" stroke-width="2px" style="stroke: black;"></line><line x1="245.99999999999963" y1="266.9866988840095" x2="246.99999999999963" y2="267.0613279011382" stroke-width="2px" style="stroke: black;"></line><line x1="246.99999999999963" y1="267.0613279011382" x2="247.99999999999963" y2="267.13381819286633" stroke-width="2px" style="stroke: black;"></line><line x1="247.99999999999963" y1="267.13381819286633" x2="248.99999999999963" y2="267.20423873788343" stroke-width="2px" style="stroke: black;"></line><line x1="248.99999999999963" y1="267.20423873788343" x2="249.99999999999963" y2="267.27265606951283" stroke-width="2px" style="stroke: black;"></line><line x1="249.99999999999963" y1="267.27265606951283" x2="250.9999999999996" y2="267.33913436885365" stroke-width="2px" style="stroke: black;"></line><line x1="250.9999999999996" y1="267.33913436885365" x2="251.9999999999996" y2="267.40373555421013" stroke-width="2px" style="stroke: black;"></line><line x1="251.9999999999996" y1="267.40373555421013" x2="252.9999999999996" y2="267.46651936695696" stroke-width="2px" style="stroke: black;"></line><line x1="252.9999999999996" y1="267.46651936695696" x2="253.9999999999996" y2="267.52754345398387" stroke-width="2px" style="stroke: black;"></line><line x1="253.9999999999996" y1="267.52754345398387" x2="254.9999999999996" y2="267.5868634468583" stroke-width="2px" style="stroke: black;"></line><line x1="254.9999999999996" y1="267.5868634468583" x2="255.9999999999996" y2="267.64453303783813" stroke-width="2px" style="stroke: black;"></line><line x1="255.9999999999996" y1="267.64453303783813" x2="256.9999999999996" y2="267.7006040528632" stroke-width="2px" style="stroke: black;"></line><line x1="256.9999999999996" y1="267.7006040528632" x2="257.9999999999996" y2="267.75512652164645" stroke-width="2px" style="stroke: black;"></line><line x1="257.9999999999996" y1="267.75512652164645" x2="258.9999999999996" y2="267.80814874498515" stroke-width="2px" style="stroke: black;"></line><line x1="258.9999999999996" y1="267.80814874498515" x2="259.9999999999996" y2="267.8597173594029" stroke-width="2px" style="stroke: black;"></line><line x1="259.9999999999996" y1="267.8597173594029" x2="260.9999999999996" y2="267.9098773992331" stroke-width="2px" style="stroke: black;"></line><line x1="260.9999999999996" y1="267.9098773992331" x2="261.9999999999996" y2="267.95867235624706" stroke-width="2px" style="stroke: black;"></line><line x1="261.9999999999996" y1="267.95867235624706" x2="262.9999999999996" y2="268.0061442369275" stroke-width="2px" style="stroke: black;"></line><line x1="262.9999999999996" y1="268.0061442369275" x2="263.99999999999966" y2="268.0523336174836" stroke-width="2px" style="stroke: black;"></line><line x1="263.99999999999966" y1="268.0523336174836" x2="264.99999999999966" y2="268.0972796966996" stroke-width="2px" style="stroke: black;"></line><line x1="264.99999999999966" y1="268.0972796966996" x2="265.99999999999966" y2="268.14102034670566" stroke-width="2px" style="stroke: black;"></line><line x1="265.99999999999966" y1="268.14102034670566" x2="266.99999999999966" y2="268.18359216175577" stroke-width="2px" style="stroke: black;"></line><line x1="266.99999999999966" y1="268.18359216175577" x2="267.99999999999966" y2="268.2250305050942" stroke-width="2px" style="stroke: black;"></line><line x1="267.99999999999966" y1="268.2250305050942" x2="268.9999999999997" y2="268.2653695539885" stroke-width="2px" style="stroke: black;"></line><line x1="268.9999999999997" y1="268.2653695539885" x2="269.9999999999997" y2="268.30464234300393" stroke-width="2px" style="stroke: black;"></line><line x1="269.9999999999997" y1="268.30464234300393" x2="270.9999999999997" y2="268.3428808055911" stroke-width="2px" style="stroke: black;"></line><line x1="270.9999999999997" y1="268.3428808055911" x2="271.9999999999998" y2="268.38011581405544" stroke-width="2px" style="stroke: black;"></line><line x1="271.9999999999998" y1="268.38011581405544" x2="272.9999999999998" y2="268.4163772179747" stroke-width="2px" style="stroke: black;"></line><line x1="272.9999999999998" y1="268.4163772179747" x2="273.9999999999998" y2="268.4516938811276" stroke-width="2px" style="stroke: black;"></line><line x1="273.9999999999998" y1="268.4516938811276" x2="274.9999999999998" y2="268.48609371699405" stroke-width="2px" style="stroke: black;"></line><line x1="274.9999999999998" y1="268.48609371699405" x2="275.9999999999998" y2="268.5196037228851" stroke-width="2px" style="stroke: black;"></line><line x1="275.9999999999998" y1="268.5196037228851" x2="276.99999999999983" y2="268.55225001275863" stroke-width="2px" style="stroke: black;"></line><line x1="276.99999999999983" y1="268.55225001275863" x2="277.99999999999983" y2="268.584057848773" stroke-width="2px" style="stroke: black;"></line><line x1="277.99999999999983" y1="268.584057848773" x2="278.99999999999983" y2="268.61505167163125" stroke-width="2px" style="stroke: black;"></line><line x1="278.99999999999983" y1="268.61505167163125" x2="279.9999999999999" y2="268.6452551297637" stroke-width="2px" style="stroke: black;"></line><line x1="279.9999999999999" y1="268.6452551297637" x2="280.9999999999999" y2="268.6746911073962" stroke-width="2px" style="stroke: black;"></line><line x1="280.9999999999999" y1="268.6746911073962" x2="281.9999999999999" y2="268.703381751549" stroke-width="2px" style="stroke: black;"></line><line x1="281.9999999999999" y1="268.703381751549" x2="282.9999999999999" y2="268.7313484980096" stroke-width="2px" style="stroke: black;"></line><line x1="282.9999999999999" y1="268.7313484980096" x2="283.9999999999999" y2="268.75861209632023" stroke-width="2px" style="stroke: black;"></line><line x1="283.9999999999999" y1="268.75861209632023" x2="284.99999999999994" y2="268.7851926338202" stroke-width="2px" style="stroke: black;"></line><line x1="284.99999999999994" y1="268.7851926338202" x2="285.99999999999994" y2="268.8111095587804" stroke-width="2px" style="stroke: black;"></line><line x1="285.99999999999994" y1="268.8111095587804" x2="286.99999999999994" y2="268.8363817026671" stroke-width="2px" style="stroke: black;"></line><line x1="286.99999999999994" y1="268.8363817026671" x2="288" y2="268.86102730156864" stroke-width="2px" style="stroke: black;"></line><line x1="288" y1="268.86102730156864" x2="289" y2="268.88506401681997" stroke-width="2px" style="stroke: black;"></line><line x1="289" y1="268.88506401681997" x2="290" y2="268.9085089548553" stroke-width="2px" style="stroke: black;"></line><line x1="290" y1="268.9085089548553" x2="291" y2="268.931378686321" stroke-width="2px" style="stroke: black;"></line><line x1="291" y1="268.931378686321" x2="292" y2="268.95368926447725" stroke-width="2px" style="stroke: black;"></line><line x1="292" y1="268.95368926447725" x2="293.00000000000006" y2="268.9754562429166" stroke-width="2px" style="stroke: black;"></line><line x1="293.00000000000006" y1="268.9754562429166" x2="294.00000000000006" y2="268.9966946926272" stroke-width="2px" style="stroke: black;"></line><line x1="294.00000000000006" y1="268.9966946926272" x2="295.00000000000006" y2="269.0174192184254" stroke-width="2px" style="stroke: black;"></line><line x1="295.00000000000006" y1="269.0174192184254" x2="296.0000000000001" y2="269.03764397478346" stroke-width="2px" style="stroke: black;"></line><line x1="296.0000000000001" y1="269.03764397478346" x2="297.0000000000001" y2="269.0573826810761" stroke-width="2px" style="stroke: black;"></line><line x1="297.0000000000001" y1="269.0573826810761" x2="298.0000000000001" y2="269.0766486362677" stroke-width="2px" style="stroke: black;"></line><line x1="298.0000000000001" y1="269.0766486362677" x2="299.0000000000001" y2="269.0954547330633" stroke-width="2px" style="stroke: black;"></line><line x1="299.0000000000001" y1="269.0954547330633" x2="300.0000000000001" y2="269.11381347154384" stroke-width="2px" style="stroke: black;"></line><line x1="300.0000000000001" y1="269.11381347154384" x2="301.00000000000017" y2="269.13173697230485" stroke-width="2px" style="stroke: black;"></line><line x1="301.00000000000017" y1="269.13173697230485" x2="302.00000000000017" y2="269.1492369891196" stroke-width="2px" style="stroke: black;"></line><line x1="302.00000000000017" y1="269.1492369891196" x2="303.00000000000017" y2="269.16632492114377" stroke-width="2px" style="stroke: black;"></line><line x1="303.00000000000017" y1="269.16632492114377" x2="304.0000000000002" y2="269.1830118246799" stroke-width="2px" style="stroke: black;"></line><line x1="304.0000000000002" y1="269.1830118246799" x2="305.0000000000002" y2="269.19930842451873" stroke-width="2px" style="stroke: black;"></line><line x1="305.0000000000002" y1="269.19930842451873" x2="306.0000000000002" y2="269.21522512487326" stroke-width="2px" style="stroke: black;"></line><line x1="306.0000000000002" y1="269.21522512487326" x2="307.0000000000002" y2="269.2307720199218" stroke-width="2px" style="stroke: black;"></line><line x1="307.0000000000002" y1="269.2307720199218" x2="308.0000000000003" y2="269.2459589039744" stroke-width="2px" style="stroke: black;"></line><line x1="308.0000000000003" y1="269.2459589039744" x2="309.0000000000003" y2="269.26079528127775" stroke-width="2px" style="stroke: black;"></line><line x1="309.0000000000003" y1="269.26079528127775" x2="310.0000000000003" y2="269.27529037547157" stroke-width="2px" style="stroke: black;"></line><line x1="310.0000000000003" y1="269.27529037547157" x2="311.00000000000034" y2="269.2894531387103" stroke-width="2px" style="stroke: black;"></line><line x1="311.00000000000034" y1="269.2894531387103" x2="312.00000000000034" y2="269.30329226046285" stroke-width="2px" style="stroke: black;"></line><line x1="312.00000000000034" y1="269.30329226046285" x2="313.00000000000034" y2="269.3168161760018" stroke-width="2px" style="stroke: black;"></line><line x1="313.00000000000034" y1="269.3168161760018" x2="314.00000000000034" y2="269.33003307459546" stroke-width="2px" style="stroke: black;"></line><line x1="314.00000000000034" y1="269.33003307459546" x2="315.00000000000034" y2="269.3429509074118" stroke-width="2px" style="stroke: black;"></line><line x1="315.00000000000034" y1="269.3429509074118" x2="316.00000000000034" y2="269.355577395147" stroke-width="2px" style="stroke: black;"></line><line x1="316.00000000000034" y1="269.355577395147" x2="317.00000000000034" y2="269.36792003538807" stroke-width="2px" style="stroke: black;"></line><line x1="317.00000000000034" y1="269.36792003538807" x2="318.0000000000004" y2="269.3799861097192" stroke-width="2px" style="stroke: black;"></line><line x1="318.0000000000004" y1="269.3799861097192" x2="319.0000000000004" y2="269.3917826905825" stroke-width="2px" style="stroke: black;"></line><line x1="319.0000000000004" y1="269.3917826905825" x2="320.0000000000004" y2="269.4033166479011" stroke-width="2px" style="stroke: black;"></line><line x1="320.0000000000004" y1="269.4033166479011" x2="321.00000000000045" y2="269.4145946554742" stroke-width="2px" style="stroke: black;"></line><line x1="321.00000000000045" y1="269.4145946554742" x2="322.00000000000045" y2="269.4256231971522" stroke-width="2px" style="stroke: black;"></line><line x1="322.00000000000045" y1="269.4256231971522" x2="323.00000000000045" y2="269.43640857280036" stroke-width="2px" style="stroke: black;"></line><line x1="323.00000000000045" y1="269.43640857280036" x2="324.0000000000005" y2="269.446956904058" stroke-width="2px" style="stroke: black;"></line><line x1="324.0000000000005" y1="269.446956904058" x2="325.0000000000005" y2="269.4572741399023" stroke-width="2px" style="stroke: black;"></line><line x1="325.0000000000005" y1="269.4572741399023" x2="326.0000000000005" y2="269.46736606202177" stroke-width="2px" style="stroke: black;"></line><line x1="326.0000000000005" y1="269.46736606202177" x2="327.00000000000057" y2="269.47723829000836" stroke-width="2px" style="stroke: black;"></line><line x1="327.00000000000057" y1="269.47723829000836" x2="328.00000000000057" y2="269.4868962863738" stroke-width="2px" style="stroke: black;"></line><line x1="328.00000000000057" y1="269.4868962863738" x2="329.00000000000057" y2="269.4963453613963" stroke-width="2px" style="stroke: black;"></line><line x1="329.00000000000057" y1="269.4963453613963" x2="330.00000000000057" y2="269.50559067780506" stroke-width="2px" style="stroke: black;"></line><line x1="330.00000000000057" y1="269.50559067780506" x2="331.00000000000057" y2="269.51463725530647" stroke-width="2px" style="stroke: black;"></line><line x1="331.00000000000057" y1="269.51463725530647" x2="332.00000000000057" y2="269.5234899749603" stroke-width="2px" style="stroke: black;"></line><line x1="332.00000000000057" y1="269.5234899749603" x2="333.00000000000057" y2="269.5321535834086" stroke-width="2px" style="stroke: black;"></line><line x1="333.00000000000057" y1="269.5321535834086" x2="334.0000000000006" y2="269.54063269696496" stroke-width="2px" style="stroke: black;"></line><line x1="334.0000000000006" y1="269.54063269696496" x2="335.0000000000006" y2="269.5489318055671" stroke-width="2px" style="stroke: black;"></line><line x1="335.0000000000006" y1="269.5489318055671" x2="336.0000000000006" y2="269.5570552765995" stroke-width="2px" style="stroke: black;"></line><line x1="336.0000000000006" y1="269.5570552765995" x2="337.0000000000007" y2="269.5650073585893" stroke-width="2px" style="stroke: black;"></line><line x1="337.0000000000007" y1="269.5650073585893" x2="338.0000000000007" y2="269.572792184781" stroke-width="2px" style="stroke: black;"></line><line x1="338.0000000000007" y1="269.572792184781" x2="339.0000000000007" y2="269.5804137765935" stroke-width="2px" style="stroke: black;"></line><line x1="339.0000000000007" y1="269.5804137765935" x2="340.00000000000074" y2="269.58787604696386" stroke-width="2px" style="stroke: black;"></line><line x1="340.00000000000074" y1="269.58787604696386" x2="341.00000000000074" y2="269.59518280358265" stroke-width="2px" style="stroke: black;"></line><line x1="341.00000000000074" y1="269.59518280358265" x2="342.00000000000074" y2="269.60233775202295" stroke-width="2px" style="stroke: black;"></line><line x1="342.00000000000074" y1="269.60233775202295" x2="343.0000000000008" y2="269.60934449876845" stroke-width="2px" style="stroke: black;"></line><line x1="343.0000000000008" y1="269.60934449876845" x2="344.0000000000008" y2="269.6162065541433" stroke-width="2px" style="stroke: black;"></line><line x1="344.0000000000008" y1="269.6162065541433" x2="345.0000000000008" y2="269.6229273351472" stroke-width="2px" style="stroke: black;"></line><line x1="345.0000000000008" y1="269.6229273351472" x2="346.0000000000008" y2="269.6295101681995" stroke-width="2px" style="stroke: black;"></line><line x1="346.0000000000008" y1="269.6295101681995" x2="347.0000000000008" y2="269.6359582917948" stroke-width="2px" style="stroke: black;"></line><line x1="347.0000000000008" y1="269.6359582917948" x2="348.0000000000008" y2="269.6422748590737" stroke-width="2px" style="stroke: black;"></line><line x1="348.0000000000008" y1="269.6422748590737" x2="349.0000000000008" y2="269.64846294031133" stroke-width="2px" style="stroke: black;"></line><line x1="349.0000000000008" y1="269.64846294031133" x2="350.00000000000085" y2="269.65452552532673" stroke-width="2px" style="stroke: black;"></line><line x1="350.00000000000085" y1="269.65452552532673" x2="351.00000000000085" y2="269.6604655258153" stroke-width="2px" style="stroke: black;"></line><line x1="351.00000000000085" y1="269.6604655258153" x2="352.00000000000085" y2="269.666285777608" stroke-width="2px" style="stroke: black;"></line><line x1="352.00000000000085" y1="269.666285777608" x2="353.0000000000009" y2="269.6719890428581" stroke-width="2px" style="stroke: black;"></line><line x1="353.0000000000009" y1="269.6719890428581" x2="354.0000000000009" y2="269.6775780121604" stroke-width="2px" style="stroke: black;"></line><line x1="354.0000000000009" y1="269.6775780121604" x2="355.0000000000009" y2="269.6830553066024" stroke-width="2px" style="stroke: black;"></line><line x1="355.0000000000009" y1="269.6830553066024" x2="356.00000000000097" y2="269.68842347975215" stroke-width="2px" style="stroke: black;"></line><line x1="356.00000000000097" y1="269.68842347975215" x2="357.00000000000097" y2="269.6936850195835" stroke-width="2px" style="stroke: black;"></line><line x1="357.00000000000097" y1="269.6936850195835" x2="358.00000000000097" y2="269.6988423503414" stroke-width="2px" style="stroke: black;"></line><line x1="358.00000000000097" y1="269.6988423503414" x2="359.000000000001" y2="269.70389783434916" stroke-width="2px" style="stroke: black;"></line><line x1="359.000000000001" y1="269.70389783434916" x2="360.000000000001" y2="269.70885377375976" stroke-width="2px" style="stroke: black;"></line><line x1="360.000000000001" y1="269.70885377375976" x2="361.000000000001" y2="269.7137124122527" stroke-width="2px" style="stroke: black;"></line><line x1="361.000000000001" y1="269.7137124122527" x2="362.000000000001" y2="269.71847593667883" stroke-width="2px" style="stroke: black;"></line><line x1="362.000000000001" y1="269.71847593667883" x2="363.000000000001" y2="269.72314647865437" stroke-width="2px" style="stroke: black;"></line><line x1="363.000000000001" y1="269.72314647865437" x2="364.000000000001" y2="269.727726116106" stroke-width="2px" style="stroke: black;"></line><line x1="364.000000000001" y1="269.727726116106" x2="365.000000000001" y2="269.7322168747686" stroke-width="2px" style="stroke: black;"></line><line x1="365.000000000001" y1="269.7322168747686" x2="366.0000000000011" y2="269.7366207296375" stroke-width="2px" style="stroke: black;"></line><line x1="366.0000000000011" y1="269.7366207296375" x2="367.0000000000011" y2="269.7409396063761" stroke-width="2px" style="stroke: black;"></line><line x1="367.0000000000011" y1="269.7409396063761" x2="368.0000000000011" y2="269.7451753826814" stroke-width="2px" style="stroke: black;"></line><line x1="368.0000000000011" y1="269.7451753826814" x2="369.00000000000114" y2="269.74932988960705" stroke-width="2px" style="stroke: black;"></line><line x1="369.00000000000114" y1="269.74932988960705" x2="370.00000000000114" y2="269.75340491284794" stroke-width="2px" style="stroke: black;"></line><line x1="370.00000000000114" y1="269.75340491284794" x2="371.00000000000114" y2="269.75740219398455" stroke-width="2px" style="stroke: black;"></line><line x1="371.00000000000114" y1="269.75740219398455" x2="372.0000000000012" y2="269.76132343169087" stroke-width="2px" style="stroke: black;"></line><line x1="372.0000000000012" y1="269.76132343169087" x2="373.0000000000012" y2="269.765170282906" stroke-width="2px" style="stroke: black;"></line><line x1="373.0000000000012" y1="269.765170282906" x2="374.0000000000012" y2="269.7689443639703" stroke-width="2px" style="stroke: black;"></line><line x1="374.0000000000012" y1="269.7689443639703" x2="375.00000000000125" y2="269.77264725172813" stroke-width="2px" style="stroke: black;"></line><line x1="375.00000000000125" y1="269.77264725172813" x2="376.00000000000125" y2="269.7762804845972" stroke-width="2px" style="stroke: black;"></line><line x1="376.00000000000125" y1="269.7762804845972" x2="377.00000000000125" y2="269.77984556360695" stroke-width="2px" style="stroke: black;"></line><line x1="377.00000000000125" y1="269.77984556360695" x2="378.00000000000125" y2="269.78334395340585" stroke-width="2px" style="stroke: black;"></line><line x1="378.00000000000125" y1="269.78334395340585" x2="379.00000000000125" y2="269.7867770832385" stroke-width="2px" style="stroke: black;"></line><line x1="379.00000000000125" y1="269.7867770832385" x2="380.00000000000125" y2="269.79014634789496" stroke-width="2px" style="stroke: black;"></line><line x1="380.00000000000125" y1="269.79014634789496" x2="381.00000000000125" y2="269.79345310863107" stroke-width="2px" style="stroke: black;"></line><line x1="381.00000000000125" y1="269.79345310863107" x2="382.0000000000013" y2="269.79669869406285" stroke-width="2px" style="stroke: black;"></line><line x1="382.0000000000013" y1="269.79669869406285" x2="383.0000000000013" y2="269.7998844010342" stroke-width="2px" style="stroke: black;"></line><line x1="383.0000000000013" y1="269.7998844010342" x2="384.0000000000013" y2="269.8030114954593" stroke-width="2px" style="stroke: black;"></line><line x1="384.0000000000013" y1="269.8030114954593" x2="385.00000000000136" y2="269.8060812131408" stroke-width="2px" style="stroke: black;"></line><line x1="385.00000000000136" y1="269.8060812131408" x2="386.00000000000136" y2="269.80909476056416" stroke-width="2px" style="stroke: black;"></line><line x1="386.00000000000136" y1="269.80909476056416" x2="387.00000000000136" y2="269.8120533156687" stroke-width="2px" style="stroke: black;"></line><line x1="387.00000000000136" y1="269.8120533156687" x2="388.0000000000014" y2="269.81495802859735" stroke-width="2px" style="stroke: black;"></line><line x1="388.0000000000014" y1="269.81495802859735" x2="389.0000000000014" y2="269.81781002242354" stroke-width="2px" style="stroke: black;"></line><line x1="389.0000000000014" y1="269.81781002242354" x2="390.0000000000014" y2="269.8206103938584" stroke-width="2px" style="stroke: black;"></line><line x1="390.0000000000014" y1="269.8206103938584" x2="391.0000000000015" y2="269.8233602139368" stroke-width="2px" style="stroke: black;"></line><line x1="391.0000000000015" y1="269.8233602139368" x2="392.0000000000015" y2="269.8260605286846" stroke-width="2px" style="stroke: black;"></line><line x1="392.0000000000015" y1="269.8260605286846" x2="393.0000000000015" y2="269.82871235976626" stroke-width="2px" style="stroke: black;"></line><line x1="393.0000000000015" y1="269.82871235976626" x2="394.0000000000015" y2="269.83131670511455" stroke-width="2px" style="stroke: black;"></line><line x1="394.0000000000015" y1="269.83131670511455" x2="395.0000000000015" y2="269.8338745395418" stroke-width="2px" style="stroke: black;"></line><line x1="395.0000000000015" y1="269.8338745395418" x2="396.0000000000015" y2="269.83638681533455" stroke-width="2px" style="stroke: black;"></line><line x1="396.0000000000015" y1="269.83638681533455" x2="397.0000000000015" y2="269.83885446283114" stroke-width="2px" style="stroke: black;"></line><line x1="397.0000000000015" y1="269.83885446283114" x2="398.00000000000153" y2="269.84127839098284" stroke-width="2px" style="stroke: black;"></line><line x1="398.00000000000153" y1="269.84127839098284" x2="399.00000000000153" y2="269.8436594878997" stroke-width="2px" style="stroke: black;"></line><line x1="399.00000000000153" y1="269.8436594878997" x2="400.00000000000153" y2="269.84599862138066" stroke-width="2px" style="stroke: black;"></line><line x1="400.00000000000153" y1="269.84599862138066" x2="401.0000000000016" y2="269.8482966394292" stroke-width="2px" style="stroke: black;"></line><line x1="401.0000000000016" y1="269.8482966394292" x2="402.0000000000016" y2="269.8505543707545" stroke-width="2px" style="stroke: black;"></line><line x1="402.0000000000016" y1="269.8505543707545" x2="403.0000000000016" y2="269.85277262525864" stroke-width="2px" style="stroke: black;"></line><line x1="403.0000000000016" y1="269.85277262525864" x2="404.00000000000165" y2="269.85495219451036" stroke-width="2px" style="stroke: black;"></line><line x1="404.00000000000165" y1="269.85495219451036" x2="405.00000000000165" y2="269.8570938522058" stroke-width="2px" style="stroke: black;"></line><line x1="405.00000000000165" y1="269.8570938522058" x2="406.00000000000165" y2="269.8591983546164" stroke-width="2px" style="stroke: black;"></line><line x1="406.00000000000165" y1="269.8591983546164" x2="407.0000000000017" y2="269.8612664410244" stroke-width="2px" style="stroke: black;"></line><line x1="407.0000000000017" y1="269.8612664410244" x2="408.0000000000017" y2="269.8632988341468" stroke-width="2px" style="stroke: black;"></line><line x1="408.0000000000017" y1="269.8632988341468" x2="409.0000000000017" y2="269.8652962405473" stroke-width="2px" style="stroke: black;"></line><line x1="409.0000000000017" y1="269.8652962405473" x2="410.0000000000017" y2="269.867259351037" stroke-width="2px" style="stroke: black;"></line><line x1="410.0000000000017" y1="269.867259351037" x2="411.0000000000017" y2="269.8691888410646" stroke-width="2px" style="stroke: black;"></line><line x1="411.0000000000017" y1="269.8691888410646" x2="412.0000000000017" y2="269.87108537109566" stroke-width="2px" style="stroke: black;"></line><line x1="412.0000000000017" y1="269.87108537109566" x2="413.0000000000017" y2="269.87294958698135" stroke-width="2px" style="stroke: black;"></line><line x1="413.0000000000017" y1="269.87294958698135" x2="414.00000000000176" y2="269.87478212031795" stroke-width="2px" style="stroke: black;"></line><line x1="414.00000000000176" y1="269.87478212031795" x2="415.00000000000176" y2="269.876583588796" stroke-width="2px" style="stroke: black;"></line><line x1="415.00000000000176" y1="269.876583588796" x2="416.00000000000176" y2="269.8783545965403" stroke-width="2px" style="stroke: black;"></line><line x1="416.00000000000176" y1="269.8783545965403" x2="417.0000000000018" y2="269.8800957344409" stroke-width="2px" style="stroke: black;"></line><line x1="417.0000000000018" y1="269.8800957344409" x2="418.0000000000018" y2="269.88180758047486" stroke-width="2px" style="stroke: black;"></line><line x1="418.0000000000018" y1="269.88180758047486" x2="419.0000000000018" y2="269.8834907000199" stroke-width="2px" style="stroke: black;"></line><line x1="419.0000000000018" y1="269.8834907000199" x2="420.0000000000019" y2="269.8851456461593" stroke-width="2px" style="stroke: black;"></line><line x1="420.0000000000019" y1="269.8851456461593" x2="421.0000000000019" y2="269.886772959979" stroke-width="2px" style="stroke: black;"></line><line x1="421.0000000000019" y1="269.886772959979" x2="422.0000000000019" y2="269.88837317085637" stroke-width="2px" style="stroke: black;"></line><line x1="422.0000000000019" y1="269.88837317085637" x2="423.00000000000193" y2="269.8899467967419" stroke-width="2px" style="stroke: black;"></line><line x1="423.00000000000193" y1="269.8899467967419" x2="424.00000000000193" y2="269.8914943444332" stroke-width="2px" style="stroke: black;"></line><line x1="424.00000000000193" y1="269.8914943444332" x2="425.00000000000193" y2="269.8930163098416" stroke-width="2px" style="stroke: black;"></line><line x1="425.00000000000193" y1="269.8930163098416" x2="426.00000000000193" y2="269.89451317825194" stroke-width="2px" style="stroke: black;"></line><line x1="426.00000000000193" y1="269.89451317825194" x2="427.00000000000193" y2="269.8959854245757" stroke-width="2px" style="stroke: black;"></line><line x1="427.00000000000193" y1="269.8959854245757" x2="428.00000000000193" y2="269.8974335135972" stroke-width="2px" style="stroke: black;"></line><line x1="428.00000000000193" y1="269.8974335135972" x2="429.00000000000193" y2="269.89885790021356" stroke-width="2px" style="stroke: black;"></line><line x1="429.00000000000193" y1="269.89885790021356" x2="430.000000000002" y2="269.90025902966835" stroke-width="2px" style="stroke: black;"></line><line x1="430.000000000002" y1="269.90025902966835" x2="431.000000000002" y2="269.9016373377793" stroke-width="2px" style="stroke: black;"></line><line x1="431.000000000002" y1="269.9016373377793" x2="432.000000000002" y2="269.9029932511599" stroke-width="2px" style="stroke: black;"></line><line x1="432.000000000002" y1="269.9029932511599" x2="433.00000000000205" y2="269.9043271874355" stroke-width="2px" style="stroke: black;"></line><line x1="433.00000000000205" y1="269.9043271874355" x2="434.00000000000205" y2="269.90563955545366" stroke-width="2px" style="stroke: black;"></line><line x1="434.00000000000205" y1="269.90563955545366" x2="435.00000000000205" y2="269.90693075548916" stroke-width="2px" style="stroke: black;"></line><line x1="435.00000000000205" y1="269.90693075548916" x2="436.0000000000021" y2="269.9082011794438" stroke-width="2px" style="stroke: black;"></line><line x1="436.0000000000021" y1="269.9082011794438" x2="437.0000000000021" y2="269.9094512110409" stroke-width="2px" style="stroke: black;"></line><line x1="437.0000000000021" y1="269.9094512110409" x2="438.0000000000021" y2="269.91068122601524" stroke-width="2px" style="stroke: black;"></line><line x1="438.0000000000021" y1="269.91068122601524" x2="439.00000000000216" y2="269.9118915922976" stroke-width="2px" style="stroke: black;"></line><line x1="439.00000000000216" y1="269.9118915922976" x2="440.00000000000216" y2="269.9130826701951" stroke-width="2px" style="stroke: black;"></line><line x1="440.00000000000216" y1="269.9130826701951" x2="441.00000000000216" y2="269.9142548125666" stroke-width="2px" style="stroke: black;"></line><line x1="441.00000000000216" y1="269.9142548125666" x2="442.00000000000216" y2="269.915408364994" stroke-width="2px" style="stroke: black;"></line><line x1="442.00000000000216" y1="269.915408364994" x2="443.00000000000216" y2="269.91654366594884" stroke-width="2px" style="stroke: black;"></line><line x1="443.00000000000216" y1="269.91654366594884" x2="444.00000000000216" y2="269.9176610469552" stroke-width="2px" style="stroke: black;"></line><line x1="444.00000000000216" y1="269.9176610469552" x2="445.00000000000216" y2="269.9187608327478" stroke-width="2px" style="stroke: black;"></line><line x1="445.00000000000216" y1="269.9187608327478" x2="446.0000000000022" y2="269.919843341427" stroke-width="2px" style="stroke: black;"></line><line x1="446.0000000000022" y1="269.919843341427" x2="447.0000000000022" y2="269.9209088846091" stroke-width="2px" style="stroke: black;"></line><line x1="447.0000000000022" y1="269.9209088846091" x2="448.0000000000022" y2="269.9219577675734" stroke-width="2px" style="stroke: black;"></line><line x1="448.0000000000022" y1="269.9219577675734" x2="449.0000000000023" y2="269.9229902894056" stroke-width="2px" style="stroke: black;"></line><line x1="449.0000000000023" y1="269.9229902894056" x2="450.0000000000023" y2="269.9240067431373" stroke-width="2px" style="stroke: black;"></line><line x1="450.0000000000023" y1="269.9240067431373" x2="451.0000000000023" y2="269.9250074158821" stroke-width="2px" style="stroke: black;"></line><line x1="451.0000000000023" y1="269.9250074158821" x2="452.00000000000233" y2="269.9259925889689" stroke-width="2px" style="stroke: black;"></line><line x1="452.00000000000233" y1="269.9259925889689" x2="453.00000000000233" y2="269.92696253807117" stroke-width="2px" style="stroke: black;"></line><line x1="453.00000000000233" y1="269.92696253807117" x2="454.00000000000233" y2="269.92791753333347" stroke-width="2px" style="stroke: black;"></line><line x1="454.00000000000233" y1="269.92791753333347" x2="455.0000000000024" y2="269.9288578394945" stroke-width="2px" style="stroke: black;"></line><line x1="455.0000000000024" y1="269.9288578394945" x2="456.0000000000024" y2="269.92978371600776" stroke-width="2px" style="stroke: black;"></line><line x1="456.0000000000024" y1="269.92978371600776" x2="457.0000000000024" y2="269.9306954171586" stroke-width="2px" style="stroke: black;"></line><line x1="457.0000000000024" y1="269.9306954171586" x2="458.0000000000024" y2="269.9315931921787" stroke-width="2px" style="stroke: black;"></line><line x1="458.0000000000024" y1="269.9315931921787" x2="459.0000000000024" y2="269.9324772853579" stroke-width="2px" style="stroke: black;"></line><line x1="459.0000000000024" y1="269.9324772853579" x2="460.0000000000024" y2="269.9333479361529" stroke-width="2px" style="stroke: black;"></line><line x1="460.0000000000024" y1="269.9333479361529" x2="461.0000000000024" y2="269.93420537929404" stroke-width="2px" style="stroke: black;"></line><line x1="461.0000000000024" y1="269.93420537929404" x2="462.00000000000244" y2="269.93504984488845" stroke-width="2px" style="stroke: black;"></line><line x1="462.00000000000244" y1="269.93504984488845" x2="463.00000000000244" y2="269.93588155852177" stroke-width="2px" style="stroke: black;"></line><line x1="463.00000000000244" y1="269.93588155852177" x2="464.00000000000244" y2="269.9367007413568" stroke-width="2px" style="stroke: black;"></line><line x1="464.00000000000244" y1="269.9367007413568" x2="465.0000000000025" y2="269.9375076102298" stroke-width="2px" style="stroke: black;"></line><line x1="465.0000000000025" y1="269.9375076102298" x2="466.0000000000025" y2="269.9383023777448" stroke-width="2px" style="stroke: black;"></line><line x1="466.0000000000025" y1="269.9383023777448" x2="467.0000000000025" y2="269.9390852523655" stroke-width="2px" style="stroke: black;"></line><line x1="467.0000000000025" y1="269.9390852523655" x2="468.00000000000256" y2="269.93985643850476" stroke-width="2px" style="stroke: black;"></line><line x1="468.00000000000256" y1="269.93985643850476" x2="469.00000000000256" y2="269.9406161366123" stroke-width="2px" style="stroke: black;"></line><line x1="469.00000000000256" y1="269.9406161366123" x2="470.00000000000256" y2="269.94136454325997" stroke-width="2px" style="stroke: black;"></line><line x1="470.00000000000256" y1="269.94136454325997" x2="471.0000000000026" y2="269.9421018512255" stroke-width="2px" style="stroke: black;"></line><line x1="471.0000000000026" y1="269.9421018512255" x2="472.0000000000026" y2="269.9428282495737" stroke-width="2px" style="stroke: black;"></line><line x1="472.0000000000026" y1="269.9428282495737" x2="473.0000000000026" y2="269.9435439237361" stroke-width="2px" style="stroke: black;"></line><line x1="473.0000000000026" y1="269.9435439237361" x2="474.0000000000026" y2="269.9442490555885" stroke-width="2px" style="stroke: black;"></line><line x1="474.0000000000026" y1="269.9442490555885" x2="475.0000000000026" y2="269.944943823527" stroke-width="2px" style="stroke: black;"></line><line x1="475.0000000000026" y1="269.944943823527" x2="476.0000000000026" y2="269.9456284025419" stroke-width="2px" style="stroke: black;"></line><line x1="476.0000000000026" y1="269.9456284025419" x2="477.0000000000026" y2="269.9463029642901" stroke-width="2px" style="stroke: black;"></line><line x1="477.0000000000026" y1="269.9463029642901" x2="478.0000000000027" y2="269.9469676771658" stroke-width="2px" style="stroke: black;"></line><line x1="478.0000000000027" y1="269.9469676771658" x2="479.0000000000027" y2="269.9476227063692" stroke-width="2px" style="stroke: black;"></line><line x1="479.0000000000027" y1="269.9476227063692" x2="480.0000000000027" y2="269.9482682139743" stroke-width="2px" style="stroke: black;"></line><line x1="480.0000000000027" y1="269.9482682139743" x2="481.00000000000273" y2="269.94890435899447" stroke-width="2px" style="stroke: black;"></line><line x1="481.00000000000273" y1="269.94890435899447" x2="482.00000000000273" y2="269.94953129744675" stroke-width="2px" style="stroke: black;"></line><line x1="482.00000000000273" y1="269.94953129744675" x2="483.00000000000273" y2="269.95014918241475" stroke-width="2px" style="stroke: black;"></line><line x1="483.00000000000273" y1="269.95014918241475" x2="484.0000000000028" y2="269.9507581641099" stroke-width="2px" style="stroke: black;"></line><line x1="484.0000000000028" y1="269.9507581641099" x2="485.0000000000028" y2="269.95135838993156" stroke-width="2px" style="stroke: black;"></line><line x1="485.0000000000028" y1="269.95135838993156" x2="486.0000000000028" y2="269.9519500045255" stroke-width="2px" style="stroke: black;"></line><line x1="486.0000000000028" y1="269.9519500045255" x2="487.00000000000284" y2="269.952533149841" stroke-width="2px" style="stroke: black;"></line><line x1="487.00000000000284" y1="269.952533149841" x2="488.00000000000284" y2="269.953107965187" stroke-width="2px" style="stroke: black;"></line><line x1="488.00000000000284" y1="269.953107965187" x2="489.00000000000284" y2="269.95367458728674" stroke-width="2px" style="stroke: black;"></line><line x1="489.00000000000284" y1="269.95367458728674" x2="490.00000000000284" y2="269.95423315033105" stroke-width="2px" style="stroke: black;"></line><line x1="490.00000000000284" y1="269.95423315033105" x2="491.00000000000284" y2="269.9547837860305" stroke-width="2px" style="stroke: black;"></line><line x1="491.00000000000284" y1="269.9547837860305" x2="492.00000000000284" y2="269.9553266236664" stroke-width="2px" style="stroke: black;"></line><line x1="492.00000000000284" y1="269.9553266236664" x2="493.00000000000284" y2="269.955861790141" stroke-width="2px" style="stroke: black;"></line><line x1="493.00000000000284" y1="269.955861790141" x2="494.0000000000029" y2="269.9563894100258" stroke-width="2px" style="stroke: black;"></line><line x1="494.0000000000029" y1="269.9563894100258" x2="495.0000000000029" y2="269.95690960560916" stroke-width="2px" style="stroke: black;"></line><line x1="495.0000000000029" y1="269.95690960560916" x2="496.0000000000029" y2="269.95742249694337" stroke-width="2px" style="stroke: black;"></line><line x1="496.0000000000029" y1="269.95742249694337" x2="497.00000000000296" y2="269.9579282018895" stroke-width="2px" style="stroke: black;"></line><line x1="497.00000000000296" y1="269.9579282018895" x2="498.00000000000296" y2="269.95842683616246" stroke-width="2px" style="stroke: black;"></line><line x1="498.00000000000296" y1="269.95842683616246" x2="499.00000000000296" y2="269.9589185133741" stroke-width="2px" style="stroke: black;"></line><line x1="499.00000000000296" y1="269.9589185133741" x2="500.000000000003" y2="269.95940334507594" stroke-width="2px" style="stroke: black;"></line><line x1="111.1485868734744" y1="270" x2="111.1485868734744" y2="235.38804758673686" stroke-width="2px" style="stroke: rgb(0, 85, 255);"></line><line x1="112.14858687347441" y1="270" x2="112.14858687347441" y2="229.15909254757474" stroke-width="2px" style="stroke: rgb(0, 85, 255);"></line><line x1="113.14858687347441" y1="270" x2="113.14858687347441" y2="223.08442812204885" stroke-width="2px" style="stroke: rgb(0, 85, 255);"></line><line x1="114.14858687347441" y1="270" x2="114.14858687347441" y2="217.2870119966939" stroke-width="2px" style="stroke: rgb(0, 85, 255);"></line><line x1="115.14858687347441" y1="270" x2="115.14858687347441" y2="211.86131465207848" stroke-width="2px" style="stroke: rgb(0, 85, 255);"></line><line x1="116.14858687347441" y1="270" x2="116.14858687347441" y2="206.87546368949398" stroke-width="2px" style="stroke: rgb(0, 85, 255);"></line><line x1="117.14858687347441" y1="270" x2="117.14858687347441" y2="202.37433784989838" stroke-width="2px" style="stroke: rgb(0, 85, 255);"></line><line x1="118.14858687347441" y1="270" x2="118.14858687347441" y2="198.38304579213656" stroke-width="2px" style="stroke: rgb(0, 85, 255);"></line><line x1="119.14858687347441" y1="270" x2="119.14858687347441" y2="194.91042026123347" stroke-width="2px" style="stroke: rgb(0, 85, 255);"></line><line x1="120.14858687347441" y1="270" x2="120.14858687347441" y2="191.9523029008257" stroke-width="2px" style="stroke: rgb(0, 85, 255);"></line><line x1="121.14858687347441" y1="270" x2="121.14858687347441" y2="189.4944971739458" stroke-width="2px" style="stroke: rgb(0, 85, 255);"></line><line x1="122.14858687347441" y1="270" x2="122.14858687347441" y2="187.51533606164713" stroke-width="2px" style="stroke: rgb(0, 85, 255);"></line><line x1="123.14858687347441" y1="270" x2="123.14858687347441" y2="185.98785590559163" stroke-width="2px" style="stroke: rgb(0, 85, 255);"></line><line x1="124.14858687347441" y1="270" x2="124.14858687347441" y2="184.88159492226464" stroke-width="2px" style="stroke: rgb(0, 85, 255);"></line><line x1="125.14858687347441" y1="270" x2="125.14858687347441" y2="184.1640499463188" stroke-width="2px" style="stroke: rgb(0, 85, 255);"></line><line x1="126.14858687347441" y1="270" x2="126.14858687347441" y2="183.80183188060784" stroke-width="2px" style="stroke: rgb(0, 85, 255);"></line><line x1="127.14858687347441" y1="270" x2="127.14858687347441" y2="183.7615620417572" stroke-width="2px" style="stroke: rgb(0, 85, 255);"></line><line x1="128.14858687347441" y1="270" x2="128.14858687347441" y2="184.01055012837145" stroke-width="2px" style="stroke: rgb(0, 85, 255);"></line><line x1="129.14858687347441" y1="270" x2="129.14858687347441" y2="184.51729129512063" stroke-width="2px" style="stroke: rgb(0, 85, 255);"></line><line x1="130.14858687347441" y1="270" x2="130.14858687347441" y2="185.25181571326007" stroke-width="2px" style="stroke: rgb(0, 85, 255);"></line><line x1="131.14858687347441" y1="270" x2="131.14858687347441" y2="186.1859196284991" stroke-width="2px" style="stroke: rgb(0, 85, 255);"></line><line x1="132.14858687347441" y1="270" x2="132.14858687347441" y2="187.29330265268868" stroke-width="2px" style="stroke: rgb(0, 85, 255);"></line><line x1="133.14858687347441" y1="270" x2="133.14858687347441" y2="188.54963205280836" stroke-width="2px" style="stroke: rgb(0, 85, 255);"></line><line x1="134.14858687347441" y1="270" x2="134.14858687347441" y2="189.9325512324925" stroke-width="2px" style="stroke: rgb(0, 85, 255);"></line><line x1="135.14858687347441" y1="270" x2="135.14858687347441" y2="191.42164647499357" stroke-width="2px" style="stroke: rgb(0, 85, 255);"></line><line x1="136.14858687347441" y1="270" x2="136.14858687347441" y2="192.9983833285755" stroke-width="2px" style="stroke: rgb(0, 85, 255);"></line><line x1="137.14858687347441" y1="270" x2="137.14858687347441" y2="194.64602173896355" stroke-width="2px" style="stroke: rgb(0, 85, 255);"></line><line x1="138.14858687347441" y1="270" x2="138.14858687347441" y2="196.34951712955362" stroke-width="2px" style="stroke: rgb(0, 85, 255);"></line><line x1="139.14858687347441" y1="270" x2="139.14858687347441" y2="198.09541305475065" stroke-width="2px" style="stroke: rgb(0, 85, 255);"></line><line x1="140.14858687347441" y1="270" x2="140.14858687347441" y2="199.8717297608262" stroke-width="2px" style="stroke: rgb(0, 85, 255);"></line><line x1="141.14858687347441" y1="270" x2="141.14858687347441" y2="201.6678519400961" stroke-width="2px" style="stroke: rgb(0, 85, 255);"></line><line x1="142.14858687347441" y1="270" x2="142.14858687347441" y2="203.47441811982645" stroke-width="2px" style="stroke: rgb(0, 85, 255);"></line><line x1="143.14858687347441" y1="270" x2="143.14858687347441" y2="205.28321345309894" stroke-width="2px" style="stroke: rgb(0, 85, 255);"></line><line x1="144.14858687347441" y1="270" x2="144.14858687347441" y2="207.08706714537408" stroke-width="2px" style="stroke: rgb(0, 85, 255);"></line><line x1="145.14858687347441" y1="270" x2="145.14858687347441" y2="208.8797553323942" stroke-width="2px" style="stroke: rgb(0, 85, 255);"></line><line x1="146.14858687347441" y1="270" x2="146.14858687347441" y2="210.65590990086875" stroke-width="2px" style="stroke: rgb(0, 85, 255);"></line><line x1="147.14858687347441" y1="270" x2="147.14858687347441" y2="212.41093349519085" stroke-width="2px" style="stroke: rgb(0, 85, 255);"></line><line x1="148.14858687347441" y1="270" x2="148.14858687347441" y2="214.14092076621833" stroke-width="2px" style="stroke: rgb(0, 85, 255);"></line><line x1="149.14858687347441" y1="270" x2="149.14858687347441" y2="215.8425857796446" stroke-width="2px" style="stroke: rgb(0, 85, 255);"></line><line x1="150.14858687347441" y1="270" x2="150.14858687347441" y2="217.51319540152605" stroke-width="2px" style="stroke: rgb(0, 85, 255);"></line><line x1="151.1485868734744" y1="270" x2="151.1485868734744" y2="219.15050840889882" stroke-width="2px" style="stroke: rgb(0, 85, 255);"></line><line x1="152.1485868734744" y1="270" x2="152.1485868734744" y2="220.7527200273985" stroke-width="2px" style="stroke: rgb(0, 85, 255);"></line><line x1="153.1485868734744" y1="270" x2="153.1485868734744" y2="222.31841157002086" stroke-width="2px" style="stroke: rgb(0, 85, 255);"></line><line x1="154.1485868734744" y1="270" x2="154.1485868734744" y2="223.84650483727512" stroke-width="2px" style="stroke: rgb(0, 85, 255);"></line><line x1="155.1485868734744" y1="270" x2="155.1485868734744" y2="225.33622093555852" stroke-width="2px" style="stroke: rgb(0, 85, 255);"></line><line x1="156.1485868734744" y1="270" x2="156.1485868734744" y2="226.78704317485412" stroke-width="2px" style="stroke: rgb(0, 85, 255);"></line><line x1="157.14858687347436" y1="270" x2="157.14858687347436" y2="228.19868371669455" stroke-width="2px" style="stroke: rgb(0, 85, 255);"></line><line x1="158.14858687347436" y1="270" x2="158.14858687347436" y2="229.5710536570172" stroke-width="2px" style="stroke: rgb(0, 85, 255);"></line><line x1="159.14858687347436" y1="270" x2="159.14858687347436" y2="230.90423624479112" stroke-width="2px" style="stroke: rgb(0, 85, 255);"></line><line x1="160.14858687347436" y1="270" x2="160.14858687347436" y2="232.19846295506437" stroke-width="2px" style="stroke: rgb(0, 85, 255);"></line><line x1="161.14858687347436" y1="270" x2="161.14858687347436" y2="233.45409215364518" stroke-width="2px" style="stroke: rgb(0, 85, 255);"></line><line x1="162.14858687347436" y1="270" x2="162.14858687347436" y2="234.6715901093711" stroke-width="2px" style="stroke: rgb(0, 85, 255);"></line><line x1="163.14858687347436" y1="270" x2="163.14858687347436" y2="235.85151412844556" stroke-width="2px" style="stroke: rgb(0, 85, 255);"></line><line x1="164.14858687347436" y1="270" x2="164.14858687347436" y2="236.9944976033062" stroke-width="2px" style="stroke: rgb(0, 85, 255);"></line><line x1="165.14858687347436" y1="270" x2="165.14858687347436" y2="238.10123678573663" stroke-width="2px" style="stroke: rgb(0, 85, 255);"></line><line x1="166.14858687347433" y1="270" x2="166.14858687347433" y2="239.1724791102871" stroke-width="2px" style="stroke: rgb(0, 85, 255);"></line><line x1="167.14858687347433" y1="270" x2="167.14858687347433" y2="240.20901290946708" stroke-width="2px" style="stroke: rgb(0, 85, 255);"></line><line x1="168.14858687347433" y1="270" x2="168.14858687347433" y2="241.2116583765498" stroke-width="2px" style="stroke: rgb(0, 85, 255);"></line><line x1="169.14858687347433" y1="270" x2="169.14858687347433" y2="242.18125964519038" stroke-width="2px" style="stroke: rgb(0, 85, 255);"></line><line x1="170.14858687347433" y1="270" x2="170.14858687347433" y2="243.1186778674109" stroke-width="2px" style="stroke: rgb(0, 85, 255);"></line><line x1="171.14858687347433" y1="270" x2="171.14858687347433" y2="244.02478518287882" stroke-width="2px" style="stroke: rgb(0, 85, 255);"></line><line x1="172.14858687347433" y1="270" x2="172.14858687347433" y2="244.9004594828382" stroke-width="2px" style="stroke: rgb(0, 85, 255);"></line><line x1="173.1485868734743" y1="270" x2="173.1485868734743" y2="245.74657988159439" stroke-width="2px" style="stroke: rgb(0, 85, 255);"></line><line x1="174.1485868734743" y1="270" x2="174.1485868734743" y2="246.56402281716095" stroke-width="2px" style="stroke: rgb(0, 85, 255);"></line><line x1="175.1485868734743" y1="270" x2="175.1485868734743" y2="247.35365871059528" stroke-width="2px" style="stroke: rgb(0, 85, 255);"></line><line x1="176.1485868734743" y1="270" x2="176.1485868734743" y2="248.11634912074607" stroke-width="2px" style="stroke: rgb(0, 85, 255);"></line><line x1="177.1485868734743" y1="270" x2="177.1485868734743" y2="248.8529443376542" stroke-width="2px" style="stroke: rgb(0, 85, 255);"></line><line x1="178.1485868734743" y1="270" x2="178.1485868734743" y2="249.564281363752" stroke-width="2px" style="stroke: rgb(0, 85, 255);"></line><line x1="179.1485868734743" y1="270" x2="179.1485868734743" y2="250.25118223733685" stroke-width="2px" style="stroke: rgb(0, 85, 255);"></line><line x1="180.1485868734743" y1="270" x2="180.1485868734743" y2="250.9144526576088" stroke-width="2px" style="stroke: rgb(0, 85, 255);"></line><line x1="181.1485868734743" y1="270" x2="181.1485868734743" y2="251.5548808748974" stroke-width="2px" style="stroke: rgb(0, 85, 255);"></line><line x1="182.14858687347427" y1="270" x2="182.14858687347427" y2="252.17323681361097" stroke-width="2px" style="stroke: rgb(0, 85, 255);"></line><line x1="183.14858687347427" y1="270" x2="183.14858687347427" y2="252.77027139895208" stroke-width="2px" style="stroke: rgb(0, 85, 255);"></line><line x1="184.14858687347427" y1="270" x2="184.14858687347427" y2="253.34671606160092" stroke-width="2px" style="stroke: rgb(0, 85, 255);"></line><line x1="185.14858687347427" y1="270" x2="185.14858687347427" y2="253.9032823974013" stroke-width="2px" style="stroke: rgb(0, 85, 255);"></line><line x1="186.14858687347427" y1="270" x2="186.14858687347427" y2="254.44066196162822" stroke-width="2px" style="stroke: rgb(0, 85, 255);"></line><line x1="187.14858687347427" y1="270" x2="187.14858687347427" y2="254.9595261796924" stroke-width="2px" style="stroke: rgb(0, 85, 255);"></line><line x1="188.14858687347427" y1="270" x2="188.14858687347427" y2="255.4605263581821" stroke-width="2px" style="stroke: rgb(0, 85, 255);"></line><line x1="189.14858687347424" y1="270" x2="189.14858687347424" y2="255.94429378196756" stroke-width="2px" style="stroke: rgb(0, 85, 255);"></line><line x1="190.14858687347424" y1="270" x2="190.14858687347424" y2="256.4114398847296" stroke-width="2px" style="stroke: rgb(0, 85, 255);"></line><line x1="191.14858687347424" y1="270" x2="191.14858687347424" y2="256.86255648173466" stroke-width="2px" style="stroke: rgb(0, 85, 255);"></line><line x1="192.14858687347424" y1="270" x2="192.14858687347424" y2="257.2982160549859" stroke-width="2px" style="stroke: rgb(0, 85, 255);"></line><line x1="193.14858687347424" y1="270" x2="193.14858687347424" y2="257.71897208204274" stroke-width="2px" style="stroke: rgb(0, 85, 255);"></line><line x1="194.14858687347424" y1="270" x2="194.14858687347424" y2="258.1253594008446" stroke-width="2px" style="stroke: rgb(0, 85, 255);"></line><line x1="195.14858687347424" y1="270" x2="195.14858687347424" y2="258.5178946038005" stroke-width="2px" style="stroke: rgb(0, 85, 255);"></line><line x1="196.14858687347424" y1="270" x2="196.14858687347424" y2="258.89707645523157" stroke-width="2px" style="stroke: rgb(0, 85, 255);"></line><line x1="197.14858687347424" y1="270" x2="197.14858687347424" y2="259.26338632699105" stroke-width="2px" style="stroke: rgb(0, 85, 255);"></line><line x1="198.14858687347422" y1="270" x2="198.14858687347422" y2="259.6172886477413" stroke-width="2px" style="stroke: rgb(0, 85, 255);"></line><line x1="199.14858687347422" y1="270" x2="199.14858687347422" y2="259.9592313619469" stroke-width="2px" style="stroke: rgb(0, 85, 255);"></line><line x1="200.14858687347422" y1="270" x2="200.14858687347422" y2="260.2896463951632" stroke-width="2px" style="stroke: rgb(0, 85, 255);"></line><line x1="201.14858687347422" y1="270" x2="201.14858687347422" y2="260.6089501226562" stroke-width="2px" style="stroke: rgb(0, 85, 255);"></line><line x1="202.14858687347422" y1="270" x2="202.14858687347422" y2="260.9175438387996" stroke-width="2px" style="stroke: rgb(0, 85, 255);"></line><line x1="203.14858687347422" y1="270" x2="203.14858687347422" y2="261.2158142250517" stroke-width="2px" style="stroke: rgb(0, 85, 255);"></line><line x1="204.14858687347422" y1="270" x2="204.14858687347422" y2="261.5041338146385" stroke-width="2px" style="stroke: rgb(0, 85, 255);"></line><line x1="205.14858687347422" y1="270" x2="205.14858687347422" y2="261.78286145234784" stroke-width="2px" style="stroke: rgb(0, 85, 255);"></line><line x1="206.1485868734742" y1="270" x2="206.1485868734742" y2="262.052342748091" stroke-width="2px" style="stroke: rgb(0, 85, 255);"></line><line x1="207.1485868734742" y1="270" x2="207.1485868734742" y2="262.31291052310763" stroke-width="2px" style="stroke: rgb(0, 85, 255);"></line><line x1="208.1485868734742" y1="270" x2="208.1485868734742" y2="262.564885247882" stroke-width="2px" style="stroke: rgb(0, 85, 255);"></line><line x1="209.1485868734742" y1="270" x2="209.1485868734742" y2="262.8085754710109" stroke-width="2px" style="stroke: rgb(0, 85, 255);"></line><line x1="210.1485868734742" y1="270" x2="210.1485868734742" y2="263.04427823841104" stroke-width="2px" style="stroke: rgb(0, 85, 255);"></line><line x1="211.1485868734742" y1="270" x2="211.1485868734742" y2="263.2722795023858" stroke-width="2px" style="stroke: rgb(0, 85, 255);"></line><line x1="212.1485868734742" y1="270" x2="212.1485868734742" y2="263.49285452018444" stroke-width="2px" style="stroke: rgb(0, 85, 255);"></line><line x1="213.14858687347416" y1="270" x2="213.14858687347416" y2="263.70626824178777" stroke-width="2px" style="stroke: rgb(0, 85, 255);"></line><line x1="214.14858687347416" y1="270" x2="214.14858687347416" y2="263.9127756867393" stroke-width="2px" style="stroke: rgb(0, 85, 255);"></line><line x1="215.14858687347416" y1="270" x2="215.14858687347416" y2="264.1126223099179" stroke-width="2px" style="stroke: rgb(0, 85, 255);"></line><line x1="216.14858687347416" y1="270" x2="216.14858687347416" y2="264.3060443562115" stroke-width="2px" style="stroke: rgb(0, 85, 255);"></line><line x1="217.14858687347416" y1="270" x2="217.14858687347416" y2="264.4932692041065" stroke-width="2px" style="stroke: rgb(0, 85, 255);"></line><line x1="218.14858687347416" y1="270" x2="218.14858687347416" y2="264.67451569825795" stroke-width="2px" style="stroke: rgb(0, 85, 255);"></line><line x1="219.14858687347413" y1="270" x2="219.14858687347413" y2="264.84999447114274" stroke-width="2px" style="stroke: rgb(0, 85, 255);"></line><line x1="220.14858687347413" y1="270" x2="220.14858687347413" y2="265.0199082539357" stroke-width="2px" style="stroke: rgb(0, 85, 255);"></line><line x1="221.14858687347413" y1="270" x2="221.14858687347413" y2="265.1844521767737" stroke-width="2px" style="stroke: rgb(0, 85, 255);"></line><line x1="222.14858687347413" y1="270" x2="222.14858687347413" y2="265.34381405860097" stroke-width="2px" style="stroke: rgb(0, 85, 255);"></line><line x1="223.14858687347413" y1="270" x2="223.14858687347413" y2="265.4981746868046" stroke-width="2px" style="stroke: rgb(0, 85, 255);"></line><line x1="224.14858687347413" y1="270" x2="224.14858687347413" y2="265.6477080868673" stroke-width="2px" style="stroke: rgb(0, 85, 255);"></line><line x1="225.14858687347413" y1="270" x2="225.14858687347413" y2="265.7925817822768" stroke-width="2px" style="stroke: rgb(0, 85, 255);"></line><line x1="226.14858687347413" y1="270" x2="226.14858687347413" y2="265.93295704494017" stroke-width="2px" style="stroke: rgb(0, 85, 255);"></line><line x1="227.14858687347413" y1="270" x2="227.14858687347413" y2="266.06898913635916" stroke-width="2px" style="stroke: rgb(0, 85, 255);"></line><line x1="228.14858687347413" y1="270" x2="228.14858687347413" y2="266.2008275398274" stroke-width="2px" style="stroke: rgb(0, 85, 255);"></line><line x1="229.14858687347413" y1="270" x2="229.14858687347413" y2="266.3286161839138" stroke-width="2px" style="stroke: rgb(0, 85, 255);"></line><line x1="230.14858687347413" y1="270" x2="230.14858687347413" y2="266.4524936574968" stroke-width="2px" style="stroke: rgb(0, 85, 255);"></line><line x1="231.14858687347413" y1="270" x2="231.14858687347413" y2="266.5725934166155" stroke-width="2px" style="stroke: rgb(0, 85, 255);"></line><line x1="232.1485868734741" y1="270" x2="232.1485868734741" y2="266.68904398340203" stroke-width="2px" style="stroke: rgb(0, 85, 255);"></line><line x1="233.1485868734741" y1="270" x2="233.1485868734741" y2="266.80196913735614" stroke-width="2px" style="stroke: rgb(0, 85, 255);"></line><line x1="234.1485868734741" y1="270" x2="234.1485868734741" y2="266.9114880992224" stroke-width="2px" style="stroke: rgb(0, 85, 255);"></line><line x1="235.1485868734741" y1="270" x2="235.1485868734741" y2="267.0177157077234" stroke-width="2px" style="stroke: rgb(0, 85, 255);"></line><line x1="236.1485868734741" y1="270" x2="236.1485868734741" y2="267.1207625894011" stroke-width="2px" style="stroke: rgb(0, 85, 255);"></line><line x1="237.1485868734741" y1="270" x2="237.1485868734741" y2="267.2207353218108" stroke-width="2px" style="stroke: rgb(0, 85, 255);"></line><line x1="238.14858687347407" y1="270" x2="238.14858687347407" y2="267.31773659030836" stroke-width="2px" style="stroke: rgb(0, 85, 255);"></line><line x1="239.14858687347407" y1="270" x2="239.14858687347407" y2="267.4118653386658" stroke-width="2px" style="stroke: rgb(0, 85, 255);"></line><line x1="240.14858687347407" y1="270" x2="240.14858687347407" y2="267.50321691374273" stroke-width="2px" style="stroke: rgb(0, 85, 255);"></line><line x1="241.14858687347407" y1="270" x2="241.14858687347407" y2="267.5918832044373" stroke-width="2px" style="stroke: rgb(0, 85, 255);"></line><line x1="242.14858687347407" y1="270" x2="242.14858687347407" y2="267.67795277513176" stroke-width="2px" style="stroke: rgb(0, 85, 255);"></line><line x1="243.14858687347407" y1="270" x2="243.14858687347407" y2="267.76151099384344" stroke-width="2px" style="stroke: rgb(0, 85, 255);"></line><line x1="244.14858687347407" y1="270" x2="244.14858687347407" y2="267.842640155284" stroke-width="2px" style="stroke: rgb(0, 85, 255);"></line><line x1="245.14858687347404" y1="270" x2="245.14858687347404" y2="267.92141959902386" stroke-width="2px" style="stroke: rgb(0, 85, 255);"></line><line x1="246.14858687347404" y1="270" x2="246.14858687347404" y2="267.997925822953" stroke-width="2px" style="stroke: rgb(0, 85, 255);"></line><line x1="247.14858687347404" y1="270" x2="247.14858687347404" y2="268.07223259222195" stroke-width="2px" style="stroke: rgb(0, 85, 255);"></line><line x1="248.14858687347404" y1="270" x2="248.14858687347404" y2="268.1444110438409" stroke-width="2px" style="stroke: rgb(0, 85, 255);"></line><line x1="249.14858687347404" y1="270" x2="249.14858687347404" y2="268.21452978710926" stroke-width="2px" style="stroke: rgb(0, 85, 255);"></line><line x1="250.14858687347404" y1="270" x2="250.14858687347404" y2="268.28265500004056" stroke-width="2px" style="stroke: rgb(0, 85, 255);"></line><line x1="251.14858687347402" y1="270" x2="251.14858687347402" y2="268.34885052194363" stroke-width="2px" style="stroke: rgb(0, 85, 255);"></line><line x1="252.14858687347402" y1="270" x2="252.14858687347402" y2="268.41317794231264" stroke-width="2px" style="stroke: rgb(0, 85, 255);"></line><line x1="253.14858687347402" y1="270" x2="253.14858687347402" y2="268.4756966861751" stroke-width="2px" style="stroke: rgb(0, 85, 255);"></line><line x1="254.14858687347402" y1="270" x2="254.14858687347402" y2="268.53646409604085" stroke-width="2px" style="stroke: rgb(0, 85, 255);"></line><line x1="255.14858687347402" y1="270" x2="255.14858687347402" y2="268.5955355105877" stroke-width="2px" style="stroke: rgb(0, 85, 255);"></line><line x1="256.148586873474" y1="270" x2="256.148586873474" y2="268.65296434021786" stroke-width="2px" style="stroke: rgb(0, 85, 255);"></line><text x="111.1485868734744" y="300" style="font-family: sans-serif; font-size: 9pt; stroke: rgb(0, 85, 255); text-anchor: middle;">0.279</text><text x="256.4829783874448" y="300" style="font-family: sans-serif; font-size: 9pt; stroke: rgb(0, 85, 255); text-anchor: middle;">3.912</text><text x="183.8157826304596" y="300" style="font-family: sans-serif; font-size: 9pt; stroke: rgb(0, 85, 255); text-anchor: middle;">&lt;- Accept H₀ -&gt;</text><text x="51.1485868734744" y="300" style="font-family: sans-serif; font-size: 9pt; stroke: red; text-anchor: middle;">Reject H₀ -&gt;</text><text x="316.4829783874448" y="300" style="font-family: sans-serif; font-size: 9pt; stroke: red; text-anchor: middle;">&lt;- Reject H₀</text><text x="71.1485868734744" y="240" style="font-family: sans-serif; font-size: 9pt; stroke: red; text-anchor: middle;">0.025</text><text x="301.4829783874448" y="240" style="font-family: sans-serif; font-size: 9pt; stroke: red; text-anchor: middle;">0.025</text><line x1="128.63905325443787" y1="270" x2="128.63905325443787" y2="315" stroke-width="2px" style="stroke: green;"></line><text x="128.63905325443787" y="325" style="font-family: sans-serif; font-size: 9pt; stroke: green; text-anchor: middle;">F₀ = 0.72, p-value = 0.5921</text><text x="300" y="355" style="font-family: sans-serif; font-size: 9pt; stroke: blue; text-anchor: middle;">[Decision] Accept H₀</text></svg>