<svg xmlns="http://www.w3.org/2000/svg" id="SVG" width="600" height="560"><text x="290" y="40" style="font-size: 17px; font-family: sans-seirf; stroke: black; text-anchor: middle;">Probability Histogram and Normal Distribution</text><g class="axis" transform="translate(80, 80) " fill="none" font-size="10" font-family="sans-serif" text-anchor="end"><path class="domain" stroke="#000" d="M-6,200.5H0.5V0.5H-6"></path><g class="tick" opacity="1" transform="translate(0,200.5)"><line stroke="#000" x2="-6"></line><text fill="#000" x="-9" dy="0.32em">0.00</text></g><g class="tick" opacity="1" transform="translate(0,180.235212762708)"><line stroke="#000" x2="-6"></line><text fill="#000" x="-9" dy="0.32em">0.01</text></g><g class="tick" opacity="1" transform="translate(0,159.97042552541598)"><line stroke="#000" x2="-6"></line><text fill="#000" x="-9" dy="0.32em">0.02</text></g><g class="tick" opacity="1" transform="translate(0,139.705638288124)"><line stroke="#000" x2="-6"></line><text fill="#000" x="-9" dy="0.32em">0.03</text></g><g class="tick" opacity="1" transform="translate(0,119.44085105083198)"><line stroke="#000" x2="-6"></line><text fill="#000" x="-9" dy="0.32em">0.04</text></g><g class="tick" opacity="1" transform="translate(0,99.17606381353997)"><line stroke="#000" x2="-6"></line><text fill="#000" x="-9" dy="0.32em">0.05</text></g><g class="tick" opacity="1" transform="translate(0,78.91127657624799)"><line stroke="#000" x2="-6"></line><text fill="#000" x="-9" dy="0.32em">0.06</text></g><g class="tick" opacity="1" transform="translate(0,58.64648933895597)"><line stroke="#000" x2="-6"></line><text fill="#000" x="-9" dy="0.32em">0.07</text></g><g class="tick" opacity="1" transform="translate(0,38.38170210166396)"><line stroke="#000" x2="-6"></line><text fill="#000" x="-9" dy="0.32em">0.08</text></g><g class="tick" opacity="1" transform="translate(0,18.116914864371978)"><line stroke="#000" x2="-6"></line><text fill="#000" x="-9" dy="0.32em">0.09</text></g></g><g class="axis" transform="translate(80, 280) " fill="none" font-size="10" font-family="sans-serif" text-anchor="end"><path class="domain" stroke="#000" d="M-6,200.5H0.5V0.5H-6"></path><g class="tick" opacity="1" transform="translate(0,200.5)"><line stroke="#000" x2="-6"></line><text fill="#000" x="-9" dy="0.32em">0.00</text></g><g class="tick" opacity="1" transform="translate(0,180.235212762708)"><line stroke="#000" x2="-6"></line><text fill="#000" x="-9" dy="0.32em">0.01</text></g><g class="tick" opacity="1" transform="translate(0,159.97042552541598)"><line stroke="#000" x2="-6"></line><text fill="#000" x="-9" dy="0.32em">0.02</text></g><g class="tick" opacity="1" transform="translate(0,139.705638288124)"><line stroke="#000" x2="-6"></line><text fill="#000" x="-9" dy="0.32em">0.03</text></g><g class="tick" opacity="1" transform="translate(0,119.44085105083198)"><line stroke="#000" x2="-6"></line><text fill="#000" x="-9" dy="0.32em">0.04</text></g><g class="tick" opacity="1" transform="translate(0,99.17606381353997)"><line stroke="#000" x2="-6"></line><text fill="#000" x="-9" dy="0.32em">0.05</text></g><g class="tick" opacity="1" transform="translate(0,78.91127657624799)"><line stroke="#000" x2="-6"></line><text fill="#000" x="-9" dy="0.32em">0.06</text></g><g class="tick" opacity="1" transform="translate(0,58.64648933895597)"><line stroke="#000" x2="-6"></line><text fill="#000" x="-9" dy="0.32em">0.07</text></g><g class="tick" opacity="1" transform="translate(0,38.38170210166396)"><line stroke="#000" x2="-6"></line><text fill="#000" x="-9" dy="0.32em">0.08</text></g><g class="tick" opacity="1" transform="translate(0,18.116914864371978)"><line stroke="#000" x2="-6"></line><text fill="#000" x="-9" dy="0.32em">0.09</text></g></g><line x1="500" x2="500" y1="80" y2="480" style="stroke: black;"></line><line x1="80" x2="500" y1="80" y2="80" style="stroke: black;"></line><line x1="80" x2="500" y1="280" y2="280" style="stroke: black;"></line><line x1="80" x2="500" y1="480" y2="480" style="stroke: black;"></line><line x1="80" x2="80" y1="480" y2="485" style="stroke: black;"></line><text class="myaxis" x="80" y="500" style="text-anchor: middle; font-family: sans-serif; font-size: 7px; stroke: rgb(0, 85, 255);">35.87</text><line x1="106.25" x2="106.25" y1="480" y2="485" style="stroke: black;"></line><text class="myaxis" x="106.25" y="500" style="text-anchor: middle; font-family: sans-serif; font-size: 7px; stroke: rgb(0, 85, 255);">41.57</text><line x1="132.5" x2="132.5" y1="480" y2="485" style="stroke: black;"></line><text class="myaxis" x="132.5" y="500" style="text-anchor: middle; font-family: sans-serif; font-size: 7px; stroke: rgb(0, 85, 255);">47.26</text><line x1="158.75" x2="158.75" y1="480" y2="485" style="stroke: black;"></line><text class="myaxis" x="158.75" y="500" style="text-anchor: middle; font-family: sans-serif; font-size: 7px; stroke: rgb(0, 85, 255);">52.96</text><line x1="185" x2="185" y1="480" y2="485" style="stroke: black;"></line><text class="myaxis" x="185" y="500" style="text-anchor: middle; font-family: sans-serif; font-size: 7px; stroke: rgb(0, 85, 255);">58.66</text><line x1="211.24999999999997" x2="211.24999999999997" y1="480" y2="485" style="stroke: black;"></line><text class="myaxis" x="211.24999999999997" y="500" style="text-anchor: middle; font-family: sans-serif; font-size: 7px; stroke: rgb(0, 85, 255);">64.36</text><line x1="237.49999999999994" x2="237.49999999999994" y1="480" y2="485" style="stroke: black;"></line><text class="myaxis" x="237.49999999999994" y="500" style="text-anchor: middle; font-family: sans-serif; font-size: 7px; stroke: rgb(0, 85, 255);">70.06</text><line x1="263.75" x2="263.75" y1="480" y2="485" style="stroke: black;"></line><text class="myaxis" x="263.75" y="500" style="text-anchor: middle; font-family: sans-serif; font-size: 7px; stroke: rgb(0, 85, 255);">75.76</text><line x1="290" x2="290" y1="480" y2="485" style="stroke: black;"></line><text class="myaxis" x="290" y="500" style="text-anchor: middle; font-family: sans-serif; font-size: 7px; stroke: rgb(0, 85, 255);">81.46</text><line x1="316.25" x2="316.25" y1="480" y2="485" style="stroke: black;"></line><text class="myaxis" x="316.25" y="500" style="text-anchor: middle; font-family: sans-serif; font-size: 7px; stroke: rgb(0, 85, 255);">87.16</text><line x1="342.5" x2="342.5" y1="480" y2="485" style="stroke: black;"></line><text class="myaxis" x="342.5" y="500" style="text-anchor: middle; font-family: sans-serif; font-size: 7px; stroke: rgb(0, 85, 255);">92.86</text><line x1="368.74999999999994" x2="368.74999999999994" y1="480" y2="485" style="stroke: black;"></line><text class="myaxis" x="368.74999999999994" y="500" style="text-anchor: middle; font-family: sans-serif; font-size: 7px; stroke: rgb(0, 85, 255);">98.56</text><line x1="395" x2="395" y1="480" y2="485" style="stroke: black;"></line><text class="myaxis" x="395" y="500" style="text-anchor: middle; font-family: sans-serif; font-size: 7px; stroke: rgb(0, 85, 255);">104.26</text><line x1="421.2500000000001" x2="421.2500000000001" y1="480" y2="485" style="stroke: black;"></line><text class="myaxis" x="421.2500000000001" y="500" style="text-anchor: middle; font-family: sans-serif; font-size: 7px; stroke: rgb(0, 85, 255);">109.96</text><line x1="447.50000000000006" x2="447.50000000000006" y1="480" y2="485" style="stroke: black;"></line><text class="myaxis" x="447.50000000000006" y="500" style="text-anchor: middle; font-family: sans-serif; font-size: 7px; stroke: rgb(0, 85, 255);">115.66</text><line x1="473.75" x2="473.75" y1="480" y2="485" style="stroke: black;"></line><text class="myaxis" x="473.75" y="500" style="text-anchor: middle; font-family: sans-serif; font-size: 7px; stroke: rgb(0, 85, 255);">121.36</text><line x1="500" x2="500" y1="480" y2="485" style="stroke: black;"></line><text class="myaxis" x="500" y="500" style="text-anchor: middle; font-family: sans-serif; font-size: 7px; stroke: rgb(0, 85, 255);">127.06</text><text x="290" y="530" style="font-size: 12px; font-family: sans-seirf; stroke: black; text-anchor: middle;">Score</text><text x="520" y="180" style="font-size: 12px; font-family: sans-seirf; stroke: rgb(0, 85, 255); text-anchor: start;">Group 1</text><rect class="bar" x="80" width="26.25" height="0" y="280" style="fill: rgb(0, 85, 255); stroke: black; stroke-width: 1px;"></rect><rect class="bar" x="106.25" width="26.25" height="0" y="280" style="fill: rgb(0, 85, 255); stroke: black; stroke-width: 1px;"></rect><rect class="bar" x="132.5" width="26.25" height="0" y="280" style="fill: rgb(0, 85, 255); stroke: black; stroke-width: 1px;"></rect><rect class="bar" x="158.75" width="26.25" height="0" y="280" style="fill: rgb(0, 85, 255); stroke: black; stroke-width: 1px;"></rect><rect class="bar" x="185" width="26.25" height="0" y="280" style="fill: rgb(0, 85, 255); stroke: black; stroke-width: 1px;"></rect><rect class="bar" x="211.24999999999997" width="26.25" height="50.793650793650784" y="229.20634920634922" style="fill: rgb(0, 85, 255); stroke: black; stroke-width: 1px;"></rect><rect class="bar" x="237.49999999999994" width="26.25" height="50.793650793650784" y="229.20634920634922" style="fill: rgb(0, 85, 255); stroke: black; stroke-width: 1px;"></rect><rect class="bar" x="263.75" width="26.25" height="50.793650793650784" y="229.20634920634922" style="fill: rgb(0, 85, 255); stroke: black; stroke-width: 1px;"></rect><rect class="bar" x="290" width="26.25" height="50.793650793650784" y="229.20634920634922" style="fill: rgb(0, 85, 255); stroke: black; stroke-width: 1px;"></rect><rect class="bar" x="316.25" width="26.25" height="50.793650793650784" y="229.20634920634922" style="fill: rgb(0, 85, 255); stroke: black; stroke-width: 1px;"></rect><rect class="bar" x="342.5" width="26.25" height="101.58730158730157" y="178.41269841269843" style="fill: rgb(0, 85, 255); stroke: black; stroke-width: 1px;"></rect><rect class="bar" x="368.74999999999994" width="26.25" height="0" y="280" style="fill: rgb(0, 85, 255); stroke: black; stroke-width: 1px;"></rect><rect class="bar" x="395" width="26.25" height="0" y="280" style="fill: rgb(0, 85, 255); stroke: black; stroke-width: 1px;"></rect><rect class="bar" x="421.2500000000001" width="26.25" height="0" y="280" style="fill: rgb(0, 85, 255); stroke: black; stroke-width: 1px;"></rect><rect class="bar" x="447.50000000000006" width="26.25" height="0" y="280" style="fill: rgb(0, 85, 255); stroke: black; stroke-width: 1px;"></rect><rect class="bar" x="473.75" width="26.25" height="0" y="280" style="fill: rgb(0, 85, 255); stroke: black; stroke-width: 1px;"></rect><line x1="300.37545609506753" y1="205.01439982389513" x2="300.37545609506753" y2="285" style="stroke: red;"></line><text x="300.37545609506753" y="292" style="stroke: red; text-anchor: middle; font-family: sans-serif; font-size: 7pt;">Mean=83.71</text><text x="380.37545609506753" y="292" style="stroke: red; text-anchor: middle; font-family: sans-serif; font-size: 7pt;">Std Dev=10.78</text><line x1="80" x2="84.15841584158417" y1="279.99603774256303" y2="279.99427424955826" style="stroke: red;"></line><line x1="84.15841584158417" x2="88.31683168316835" y1="279.99427424955826" y2="279.9917836991039" style="stroke: red;"></line><line x1="88.31683168316835" x2="92.47524752475252" y1="279.9917836991039" y2="279.98829222277607" style="stroke: red;"></line><line x1="92.47524752475252" x2="96.63366336633669" y1="279.98829222277607" y2="279.98343365281136" style="stroke: red;"></line><line x1="96.63366336633669" x2="100.79207920792086" y1="279.98343365281136" y2="279.97672266473336" style="stroke: red;"></line><line x1="100.79207920792086" x2="104.95049504950504" y1="279.97672266473336" y2="279.9675216498918" style="stroke: red;"></line><line x1="104.95049504950504" x2="109.10891089108921" y1="279.9675216498918" y2="279.9550003795662" style="stroke: red;"></line><line x1="109.10891089108921" x2="113.26732673267338" y1="279.9550003795662" y2="279.9380875576919" style="stroke: red;"></line><line x1="113.26732673267338" x2="117.42574257425755" y1="279.9380875576919" y2="279.91541346862755" style="stroke: red;"></line><line x1="117.42574257425755" x2="121.58415841584173" y1="279.91541346862755" y2="279.8852431310148" style="stroke: red;"></line><line x1="121.58415841584173" x2="125.7425742574259" y1="279.8852431310148" y2="279.8453996905241" style="stroke: red;"></line><line x1="125.7425742574259" x2="129.90099009901007" y1="279.8453996905241" y2="279.79317824376125" style="stroke: red;"></line><line x1="129.90099009901007" x2="134.05940594059425" y1="279.79317824376125" y2="279.7252508999295" style="stroke: red;"></line><line x1="134.05940594059425" x2="138.21782178217842" y1="279.7252508999295" y2="279.6375646667399" style="stroke: red;"></line><line x1="138.21782178217842" x2="142.37623762376262" y1="279.6375646667399" y2="279.52523469367446" style="stroke: red;"></line><line x1="142.37623762376262" x2="146.53465346534676" y1="279.52523469367446" y2="279.3824365071409" style="stroke: red;"></line><line x1="146.53465346534676" x2="150.69306930693097" y1="279.3824365071409" y2="279.2023020999555" style="stroke: red;"></line><line x1="150.69306930693097" x2="154.8514851485151" y1="279.2023020999555" y2="278.97682604426063" style="stroke: red;"></line><line x1="154.8514851485151" x2="159.0099009900993" y1="278.97682604426063" y2="278.69678911329544" style="stroke: red;"></line><line x1="159.0099009900993" x2="163.16831683168346" y1="278.69678911329544" y2="278.3517081322358" style="stroke: red;"></line><line x1="163.16831683168346" x2="167.32673267326766" y1="278.3517081322358" y2="277.9298218196561" style="stroke: red;"></line><line x1="167.32673267326766" x2="171.4851485148518" y1="277.9298218196561" y2="277.4181230999159" style="stroke: red;"></line><line x1="171.4851485148518" x2="175.643564356436" y1="277.4181230999159" y2="276.80244862291903" style="stroke: red;"></line><line x1="175.643564356436" x2="179.80198019802017" y1="276.80244862291903" y2="276.0676358793711" style="stroke: red;"></line><line x1="179.80198019802017" x2="183.96039603960435" y1="276.0676358793711" y2="275.1977572148581" style="stroke: red;"></line><line x1="183.96039603960435" x2="188.1188118811885" y1="275.1977572148581" y2="274.1764381164823" style="stroke: red;"></line><line x1="188.1188118811885" x2="192.2772277227727" y1="274.1764381164823" y2="272.98726430195416" style="stroke: red;"></line><line x1="192.2772277227727" x2="196.43564356435687" y1="272.98726430195416" y2="271.61427836761607" style="stroke: red;"></line><line x1="196.43564356435687" x2="200.59405940594104" y1="271.61427836761607" y2="270.04256210152994" style="stroke: red;"></line><line x1="200.59405940594104" x2="204.7524752475252" y1="270.04256210152994" y2="268.258895171937" style="stroke: red;"></line><line x1="204.7524752475252" x2="208.91089108910938" y1="268.258895171937" y2="266.2524749762486" style="stroke: red;"></line><line x1="208.91089108910938" x2="213.06930693069353" y1="266.2524749762486" y2="264.01567628153816" style="stroke: red;"></line><line x1="213.06930693069353" x2="217.22772277227767" y1="264.01567628153816" y2="261.5448232803442" style="stroke: red;"></line><line x1="217.22772277227767" x2="221.3861386138618" y1="261.5448232803442" y2="258.84094126046386" style="stroke: red;"></line><line x1="221.3861386138618" x2="225.54455445544596" y1="258.84094126046386" y2="255.91045071293152" style="stroke: red;"></line><line x1="225.54455445544596" x2="229.7029702970301" y1="255.91045071293152" y2="252.7657638479243" style="stroke: red;"></line><line x1="229.7029702970301" x2="233.86138613861422" y1="252.7657638479243" y2="249.42574258558497" style="stroke: red;"></line><line x1="233.86138613861422" x2="238.01980198019837" y1="249.42574258558497" y2="245.91597849033073" style="stroke: red;"></line><line x1="238.01980198019837" x2="242.1782178217825" y1="245.91597849033073" y2="242.26885905609117" style="stroke: red;"></line><line x1="242.1782178217825" x2="246.33663366336665" y1="242.26885905609117" y2="238.5233913035044" style="stroke: red;"></line><line x1="246.33663366336665" x2="250.4950495049508" y1="238.5233913035044" y2="234.72476271319" style="stroke: red;"></line><line x1="250.4950495049508" x2="254.65346534653494" y1="234.72476271319" y2="230.92363078953764" style="stroke: red;"></line><line x1="254.65346534653494" x2="258.81188118811906" y1="230.92363078953764" y2="227.17514552875298" style="stroke: red;"></line><line x1="258.81188118811906" x2="262.9702970297032" y1="227.17514552875298" y2="223.53772307736904" style="stroke: red;"></line><line x1="262.9702970297032" x2="267.12871287128735" y1="223.53772307736904" y2="220.07160309550835" style="stroke: red;"></line><line x1="267.12871287128735" x2="271.2871287128715" y1="220.07160309550835" y2="216.83723587529306" style="stroke: red;"></line><line x1="271.2871287128715" x2="275.44554455445564" y1="216.83723587529306" y2="213.8935571755434" style="stroke: red;"></line><line x1="275.44554455445564" x2="279.6039603960398" y1="213.8935571755434" y2="211.29621813184576" style="stroke: red;"></line><line x1="279.6039603960398" x2="283.7623762376239" y1="211.29621813184576" y2="209.09584371801333" style="stroke: red;"></line><line x1="283.7623762376239" x2="287.92079207920807" y1="209.09584371801333" y2="207.33639549000299" style="stroke: red;"></line><line x1="287.92079207920807" x2="292.0792079207922" y1="207.33639549000299" y2="206.05371239909798" style="stroke: red;"></line><line x1="292.0792079207922" x2="296.2376237623763" y1="206.05371239909798" y2="205.2742972622006" style="stroke: red;"></line><line x1="296.2376237623763" x2="300.3960396039605" y1="205.2742972622006" y2="205.01440626631077" style="stroke: red;"></line><line x1="300.3960396039605" x2="304.5544554455446" y1="205.01440626631077" y2="205.27948519466963" style="stroke: red;"></line><line x1="304.5544554455446" x2="308.71287128712873" y1="205.27948519466963" y2="206.06397968372426" style="stroke: red;"></line><line x1="308.71287128712873" x2="312.87128712871294" y1="206.06397968372426" y2="207.35152874488182" style="stroke: red;"></line><line x1="312.87128712871294" x2="317.0297029702971" y1="207.35152874488182" y2="209.1155321334078" style="stroke: red;"></line><line x1="317.0297029702971" x2="321.18811881188117" y1="209.1155321334078" y2="211.32006408308706" style="stroke: red;"></line><line x1="321.18811881188117" x2="325.34653465346537" y1="211.32006408308706" y2="213.92108956897778" style="stroke: red;"></line><line x1="325.34653465346537" x2="329.50495049504946" y1="213.92108956897778" y2="216.86792560194587" style="stroke: red;"></line><line x1="329.50495049504946" x2="333.6633663366336" y1="216.86792560194587" y2="220.10487988545927" style="stroke: red;"></line><line x1="333.6633663366336" x2="337.82178217821775" y1="220.10487988545927" y2="223.57299300758308" style="stroke: red;"></line><line x1="337.82178217821775" x2="341.9801980198019" y1="223.57299300758308" y2="227.21180843918887" style="stroke: red;"></line><line x1="341.9801980198019" x2="346.13861386138603" y1="227.21180843918887" y2="230.96109690476027" style="stroke: red;"></line><line x1="346.13861386138603" x2="350.2970297029702" y1="230.96109690476027" y2="234.76246784480446" style="stroke: red;"></line><line x1="350.2970297029702" x2="354.4554455445543" y1="234.76246784480446" y2="238.56081011571703" style="stroke: red;"></line><line x1="354.4554455445543" x2="358.61386138613847" y1="238.56081011571703" y2="242.30551600426742" style="stroke: red;"></line><line x1="358.61386138613847" x2="362.7722772277226" y1="242.30551600426742" y2="245.95145618142317" style="stroke: red;"></line><line x1="362.7722772277226" x2="366.93069306930676" y1="245.95145618142317" y2="249.45968745052258" style="stroke: red;"></line><line x1="366.93069306930676" x2="371.0891089108909" y1="249.45968745052258" y2="252.79788915085456" style="stroke: red;"></line><line x1="371.0891089108909" x2="375.247524752475" y1="252.79788915085456" y2="255.94053704313149" style="stroke: red;"></line><line x1="375.247524752475" x2="379.4059405940592" y1="255.94053704313149" y2="258.86883475393824" style="stroke: red;"></line><line x1="379.4059405940592" x2="383.5643564356433" y1="258.86883475393824" y2="261.5704318956389" style="stroke: red;"></line><line x1="383.5643564356433" x2="387.7227722772275" y1="261.5704318956389" y2="264.0389645061198" style="stroke: red;"></line><line x1="387.7227722772275" x2="391.88118811881156" y1="264.0389645061198" y2="266.2734573658445" style="stroke: red;"></line><line x1="391.88118811881156" x2="396.03960396039577" y1="266.2734573658445" y2="268.27762912708835" style="stroke: red;"></line><line x1="396.03960396039577" x2="400.19801980197985" y1="268.27762912708835" y2="270.0591402662586" style="stroke: red;"></line><line x1="400.19801980197985" x2="404.35643564356405" y1="270.0591402662586" y2="271.62882099848986" style="stroke: red;"></line><line x1="404.35643564356405" x2="408.5148514851481" y1="271.62882099848986" y2="272.999911906493" style="stroke: red;"></line><line x1="408.5148514851481" x2="412.67326732673234" y1="272.999911906493" y2="274.18734460247623" style="stroke: red;"></line><line x1="412.67326732673234" x2="416.8316831683164" y1="274.18734460247623" y2="275.2070837312875" style="stroke: red;"></line><line x1="416.8316831683164" x2="420.9900990099006" y1="275.2070837312875" y2="276.07554546927935" style="stroke: red;"></line><line x1="420.9900990099006" x2="425.14851485148466" y1="276.07554546927935" y2="276.80910175214746" style="stroke: red;"></line><line x1="425.14851485148466" x2="429.30693069306886" y1="276.80910175214746" y2="277.4236740756387" style="stroke: red;"></line><line x1="429.30693069306886" x2="433.46534653465295" y1="277.4236740756387" y2="277.9344160708467" style="stroke: red;"></line><line x1="433.46534653465295" x2="437.62376237623715" y1="277.9344160708467" y2="278.355480291464" style="stroke: red;"></line><line x1="437.62376237623715" x2="441.78217821782124" y1="278.355480291464" y2="278.6998618157458" style="stroke: red;"></line><line x1="441.78217821782124" x2="445.94059405940544" y1="278.6998618157458" y2="278.9793093451349" style="stroke: red;"></line><line x1="445.94059405940544" x2="450.09900990098953" y1="278.9793093451349" y2="279.2042934045676" style="stroke: red;"></line><line x1="450.09900990098953" x2="454.25742574257373" y1="279.2042934045676" y2="279.3840209078172" style="stroke: red;"></line><line x1="454.25742574257373" x2="458.41584158415776" y1="279.3840209078172" y2="279.5264856126551" style="stroke: red;"></line><line x1="458.41584158415776" x2="462.574257425742" y1="279.5264856126551" y2="279.63854471323015" style="stroke: red;"></line><line x1="462.574257425742" x2="466.73267326732605" y1="279.63854471323015" y2="279.72601286092663" style="stroke: red;"></line><line x1="466.73267326732605" x2="470.89108910891025" y1="279.72601286092663" y2="279.7937661410816" style="stroke: red;"></line><line x1="470.89108910891025" x2="475.0495049504944" y1="279.7937661410816" y2="279.8458498495711" style="stroke: red;"></line><line x1="475.0495049504944" x2="479.20792079207854" y1="279.8458498495711" y2="279.88558521946425" style="stroke: red;"></line><line x1="479.20792079207854" x2="483.3663366336627" y1="279.88558521946425" y2="279.9156714747956" style="stroke: red;"></line><line x1="483.3663366336627" x2="487.5247524752468" y1="279.9156714747956" y2="279.93828068850877" style="stroke: red;"></line><line x1="487.5247524752468" x2="491.683168316831" y1="279.93828068850877" y2="279.95514386662757" style="stroke: red;"></line><line x1="491.683168316831" x2="495.8415841584152" y1="279.95514386662757" y2="279.96762745894" style="stroke: red;"></line><text x="520" y="380" style="font-size: 12px; font-family: sans-seirf; stroke: rgb(255, 69, 0); text-anchor: start;">Group 2</text><rect class="bar" x="80" width="26.25" height="0" y="480" style="fill: rgb(255, 69, 0); stroke: black; stroke-width: 1px;"></rect><rect class="bar" x="106.25" width="26.25" height="0" y="480" style="fill: rgb(255, 69, 0); stroke: black; stroke-width: 1px;"></rect><rect class="bar" x="132.5" width="26.25" height="0" y="480" style="fill: rgb(255, 69, 0); stroke: black; stroke-width: 1px;"></rect><rect class="bar" x="158.75" width="26.25" height="59.25925925925926" y="420.74074074074076" style="fill: rgb(255, 69, 0); stroke: black; stroke-width: 1px;"></rect><rect class="bar" x="185" width="26.25" height="0" y="480" style="fill: rgb(255, 69, 0); stroke: black; stroke-width: 1px;"></rect><rect class="bar" x="211.24999999999997" width="26.25" height="0" y="480" style="fill: rgb(255, 69, 0); stroke: black; stroke-width: 1px;"></rect><rect class="bar" x="237.49999999999994" width="26.25" height="59.25925925925926" y="420.74074074074076" style="fill: rgb(255, 69, 0); stroke: black; stroke-width: 1px;"></rect><rect class="bar" x="263.75" width="26.25" height="0" y="480" style="fill: rgb(255, 69, 0); stroke: black; stroke-width: 1px;"></rect><rect class="bar" x="290" width="26.25" height="177.77777777777777" y="302.22222222222223" style="fill: rgb(255, 69, 0); stroke: black; stroke-width: 1px;"></rect><rect class="bar" x="316.25" width="26.25" height="59.25925925925926" y="420.74074074074076" style="fill: rgb(255, 69, 0); stroke: black; stroke-width: 1px;"></rect><rect class="bar" x="342.5" width="26.25" height="0" y="480" style="fill: rgb(255, 69, 0); stroke: black; stroke-width: 1px;"></rect><rect class="bar" x="368.74999999999994" width="26.25" height="0" y="480" style="fill: rgb(255, 69, 0); stroke: black; stroke-width: 1px;"></rect><rect class="bar" x="395" width="26.25" height="0" y="480" style="fill: rgb(255, 69, 0); stroke: black; stroke-width: 1px;"></rect><rect class="bar" x="421.2500000000001" width="26.25" height="0" y="480" style="fill: rgb(255, 69, 0); stroke: black; stroke-width: 1px;"></rect><rect class="bar" x="447.50000000000006" width="26.25" height="0" y="480" style="fill: rgb(255, 69, 0); stroke: black; stroke-width: 1px;"></rect><rect class="bar" x="473.75" width="26.25" height="0" y="480" style="fill: rgb(255, 69, 0); stroke: black; stroke-width: 1px;"></rect><line x1="277.895301222421" y1="405.01439982389513" x2="277.895301222421" y2="485" style="stroke: red;"></line><text x="277.895301222421" y="492" style="stroke: red; text-anchor: middle; font-family: sans-serif; font-size: 7pt;">Mean=78.83</text><text x="357.895301222421" y="492" style="stroke: red; text-anchor: middle; font-family: sans-serif; font-size: 7pt;">Std Dev=12.53</text><line x1="80" x2="84.15841584158417" y1="479.81982094044656" y2="479.76990143927316" style="stroke: red;"></line><line x1="84.15841584158417" x2="88.31683168316835" y1="479.76990143927316" y2="479.7076736349557" style="stroke: red;"></line><line x1="88.31683168316835" x2="92.47524752475252" y1="479.7076736349557" y2="479.63054072954174" style="stroke: red;"></line><line x1="92.47524752475252" x2="96.63366336633669" y1="479.63054072954174" y2="479.5354744051439" style="stroke: red;"></line><line x1="96.63366336633669" x2="100.79207920792086" y1="479.5354744051439" y2="479.4189717805523" style="stroke: red;"></line><line x1="100.79207920792086" x2="104.95049504950504" y1="479.4189717805523" y2="479.2770149762514" style="stroke: red;"></line><line x1="104.95049504950504" x2="109.10891089108921" y1="479.2770149762514" y2="479.10503536462545" style="stroke: red;"></line><line x1="109.10891089108921" x2="113.26732673267338" y1="479.10503536462545" y2="478.8978849181204" style="stroke: red;"></line><line x1="113.26732673267338" x2="117.42574257425755" y1="478.8978849181204" y2="478.64981737656797" style="stroke: red;"></line><line x1="117.42574257425755" x2="121.58415841584173" y1="478.64981737656797" y2="478.3544822129913" style="stroke: red;"></line><line x1="121.58415841584173" x2="125.7425742574259" y1="478.3544822129913" y2="478.00493455956104" style="stroke: red;"></line><line x1="125.7425742574259" x2="129.90099009901007" y1="478.00493455956104" y2="477.5936643348569" style="stroke: red;"></line><line x1="129.90099009901007" x2="134.05940594059425" y1="477.5936643348569" y2="477.1126477627322" style="stroke: red;"></line><line x1="134.05940594059425" x2="138.21782178217842" y1="477.1126477627322" y2="476.5534242656975" style="stroke: red;"></line><line x1="138.21782178217842" x2="142.37623762376262" y1="476.5534242656975" y2="475.9072013288406" style="stroke: red;"></line><line x1="142.37623762376262" x2="146.53465346534676" y1="475.9072013288406" y2="475.16498934622535" style="stroke: red;"></line><line x1="146.53465346534676" x2="150.69306930693097" y1="475.16498934622535" y2="474.3177676703319" style="stroke: red;"></line><line x1="150.69306930693097" x2="154.8514851485151" y1="474.3177676703319" y2="473.3566820859646" style="stroke: red;"></line><line x1="154.8514851485151" x2="159.0099009900993" y1="473.3566820859646" y2="472.27327273433264" style="stroke: red;"></line><line x1="159.0099009900993" x2="163.16831683168346" y1="472.27327273433264" y2="471.05973014496544" style="stroke: red;"></line><line x1="163.16831683168346" x2="167.32673267326766" y1="471.05973014496544" y2="469.70917553108626" style="stroke: red;"></line><line x1="167.32673267326766" x2="171.4851485148518" y1="469.70917553108626" y2="468.21595992048196" style="stroke: red;"></line><line x1="171.4851485148518" x2="175.643564356436" y1="468.21595992048196" y2="466.57597509463943" style="stroke: red;"></line><line x1="175.643564356436" x2="179.80198019802017" y1="466.57597509463943" y2="464.7869677713584" style="stroke: red;"></line><line x1="179.80198019802017" x2="183.96039603960435" y1="464.7869677713584" y2="462.8488470762898" style="stroke: red;"></line><line x1="183.96039603960435" x2="188.1188118811885" y1="462.8488470762898" y2="460.7639741977514" style="stroke: red;"></line><line x1="188.1188118811885" x2="192.2772277227727" y1="460.7639741977514" y2="458.5374222975753" style="stroke: red;"></line><line x1="192.2772277227727" x2="196.43564356435687" y1="458.5374222975753" y2="456.17719434396554" style="stroke: red;"></line><line x1="196.43564356435687" x2="200.59405940594104" y1="456.17719434396554" y2="453.6943866142761" style="stroke: red;"></line><line x1="200.59405940594104" x2="204.7524752475252" y1="453.6943866142761" y2="451.10328624282243" style="stroke: red;"></line><line x1="204.7524752475252" x2="208.91089108910938" y1="451.10328624282243" y2="448.4213923949761" style="stroke: red;"></line><line x1="208.91089108910938" x2="213.06930693069353" y1="448.4213923949761" y2="445.6693524399255" style="stroke: red;"></line><line x1="213.06930693069353" x2="217.22772277227767" y1="445.6693524399255" y2="442.87080684562545" style="stroke: red;"></line><line x1="217.22772277227767" x2="221.3861386138618" y1="442.87080684562545" y2="440.052139372716" style="stroke: red;"></line><line x1="221.3861386138618" x2="225.54455445544596" y1="440.052139372716" y2="437.24213240892186" style="stroke: red;"></line><line x1="225.54455445544596" x2="229.7029702970301" y1="437.24213240892186" y2="434.4715308404835" style="stroke: red;"></line><line x1="229.7029702970301" x2="233.86138613861422" y1="434.4715308404835" y2="431.7725215552661" style="stroke: red;"></line><line x1="233.86138613861422" x2="238.01980198019837" y1="431.7725215552661" y2="429.1781393464768" style="stroke: red;"></line><line x1="238.01980198019837" x2="242.1782178217825" y1="429.1781393464768" y2="426.72161345819745" style="stroke: red;"></line><line x1="242.1782178217825" x2="246.33663366336665" y1="426.72161345819745" y2="424.4356721042768" style="stroke: red;"></line><line x1="246.33663366336665" x2="250.4950495049508" y1="424.4356721042768" y2="422.35182482928496" style="stroke: red;"></line><line x1="250.4950495049508" x2="254.65346534653494" y1="422.35182482928496" y2="420.4996444121548" style="stroke: red;"></line><line x1="254.65346534653494" x2="258.81188118811906" y1="420.4996444121548" y2="418.9060710168864" style="stroke: red;"></line><line x1="258.81188118811906" x2="262.9702970297032" y1="418.9060710168864" y2="417.5947613850633" style="stroke: red;"></line><line x1="262.9702970297032" x2="267.12871287128735" y1="417.5947613850633" y2="416.5855050010709" style="stroke: red;"></line><line x1="267.12871287128735" x2="271.2871287128715" y1="416.5855050010709" y2="415.89372735047505" style="stroke: red;"></line><line x1="271.2871287128715" x2="275.44554455445564" y1="415.89372735047505" y2="415.53009769239395" style="stroke: red;"></line><line x1="275.44554455445564" x2="279.6039603960398" y1="415.53009769239395" y2="415.50025528317013" style="stroke: red;"></line><line x1="279.6039603960398" x2="283.7623762376239" y1="415.50025528317013" y2="415.8046638695332" style="stroke: red;"></line><line x1="283.7623762376239" x2="287.92079207920807" y1="415.8046638695332" y2="416.4385996984097" style="stroke: red;"></line><line x1="287.92079207920807" x2="292.0792079207922" y1="416.4385996984097" y2="417.39227347664166" style="stroke: red;"></line><line x1="292.0792079207922" x2="296.2376237623763" y1="417.39227347664166" y2="418.65108187988403" style="stroke: red;"></line><line x1="296.2376237623763" x2="300.3960396039605" y1="418.65108187988403" y2="420.19597957977413" style="stroke: red;"></line><line x1="300.3960396039605" x2="304.5544554455446" y1="420.19597957977413" y2="422.0039585444873" style="stroke: red;"></line><line x1="304.5544554455446" x2="308.71287128712873" y1="422.0039585444873" y2="424.0486177590018" style="stroke: red;"></line><line x1="308.71287128712873" x2="312.87128712871294" y1="424.0486177590018" y2="426.30080366303946" style="stroke: red;"></line><line x1="312.87128712871294" x2="317.0297029702971" y1="426.30080366303946" y2="428.7292996301264" style="stroke: red;"></line><line x1="317.0297029702971" x2="321.18811881188117" y1="428.7292996301264" y2="431.301541776671" style="stroke: red;"></line><line x1="321.18811881188117" x2="325.34653465346537" y1="431.301541776671" y2="433.98433831190744" style="stroke: red;"></line><line x1="325.34653465346537" x2="329.50495049504946" y1="433.98433831190744" y2="436.74457048556" style="stroke: red;"></line><line x1="329.50495049504946" x2="333.6633663366336" y1="436.74457048556" y2="439.5498548824357" style="stroke: red;"></line><line x1="333.6633663366336" x2="337.82178217821775" y1="439.5498548824357" y2="442.36914923504446" style="stroke: red;"></line><line x1="337.82178217821775" x2="341.9801980198019" y1="442.36914923504446" y2="445.1732869292262" style="stroke: red;"></line><line x1="341.9801980198019" x2="346.13861386138603" y1="445.1732869292262" y2="447.9354287950332" style="stroke: red;"></line><line x1="346.13861386138603" x2="350.2970297029702" y1="447.9354287950332" y2="450.63142442663354" style="stroke: red;"></line><line x1="350.2970297029702" x2="354.4554455445543" y1="450.63142442663354" y2="453.24007898151467" style="stroke: red;"></line><line x1="354.4554455445543" x2="358.61386138613847" y1="453.24007898151467" y2="455.74332500124245" style="stroke: red;"></line><line x1="358.61386138613847" x2="362.7722772277226" y1="455.74332500124245" y2="458.12630212219426" style="stroke: red;"></line><line x1="362.7722772277226" x2="366.93069306930676" y1="458.12630212219426" y2="460.3773504788313" style="stroke: red;"></line><line x1="366.93069306930676" x2="371.0891089108909" y1="460.3773504788313" y2="462.48792604789344" style="stroke: red;"></line><line x1="371.0891089108909" x2="375.247524752475" y1="462.48792604789344" y2="464.45244807559885" style="stroke: red;"></line><line x1="375.247524752475" x2="379.4059405940592" y1="464.45244807559885" y2="466.26809004073766" style="stroke: red;"></line><line x1="379.4059405940592" x2="383.5643564356433" y1="466.26809004073766" y2="467.9345263351951" style="stroke: red;"></line><line x1="383.5643564356433" x2="387.7227722772275" y1="467.9345263351951" y2="469.45364701900047" style="stroke: red;"></line><line x1="387.7227722772275" x2="391.88118811881156" y1="469.45364701900047" y2="470.8292526823263" style="stroke: red;"></line><line x1="391.88118811881156" x2="396.03960396039577" y1="470.8292526823263" y2="472.0667406931938" style="stroke: red;"></line><line x1="396.03960396039577" x2="400.19801980197985" y1="472.0667406931938" y2="473.1727930107022" style="stroke: red;"></line><line x1="400.19801980197985" x2="404.35643564356405" y1="473.1727930107022" y2="474.15507438964534" style="stroke: red;"></line><line x1="404.35643564356405" x2="408.5148514851481" y1="474.15507438964534" y2="475.02194828466787" style="stroke: red;"></line><line x1="408.5148514851481" x2="412.67326732673234" y1="475.02194828466787" y2="475.7822161678747" style="stroke: red;"></line><line x1="412.67326732673234" x2="416.8316831683164" y1="475.7822161678747" y2="476.44488438224823" style="stroke: red;"></line><line x1="416.8316831683164" x2="420.9900990099006" y1="476.44488438224823" y2="477.0189611324103" style="stroke: red;"></line><line x1="420.9900990099006" x2="425.14851485148466" y1="477.0189611324103" y2="477.51328481912964" style="stroke: red;"></line><line x1="425.14851485148466" x2="429.30693069306886" y1="477.51328481912964" y2="477.93638369536717" style="stroke: red;"></line><line x1="429.30693069306886" x2="433.46534653465295" y1="477.93638369536717" y2="478.29636578630635" style="stroke: red;"></line><line x1="433.46534653465295" x2="437.62376237623715" y1="478.29636578630635" y2="478.6008371871299" style="stroke: red;"></line><line x1="437.62376237623715" x2="441.78217821782124" y1="478.6008371871299" y2="478.8568462317762" style="stroke: red;"></line><line x1="441.78217821782124" x2="445.94059405940544" y1="478.8568462317762" y2="479.07085060497576" style="stroke: red;"></line><line x1="445.94059405940544" x2="450.09900990098953" y1="479.07085060497576" y2="479.2487042320505" style="stroke: red;"></line><line x1="450.09900990098953" x2="454.25742574257373" y1="479.2487042320505" y2="479.39566070406215" style="stroke: red;"></line><line x1="454.25742574257373" x2="458.41584158415776" y1="479.39566070406215" y2="479.5163900541466" style="stroke: red;"></line><line x1="458.41584158415776" x2="462.574257425742" y1="479.5163900541466" y2="479.6150058669061" style="stroke: red;"></line><line x1="462.574257425742" x2="466.73267326732605" y1="479.6150058669061" y2="479.6950999492663" style="stroke: red;"></line><line x1="466.73267326732605" x2="470.89108910891025" y1="479.6950999492663" y2="479.7597820924306" style="stroke: red;"></line><line x1="470.89108910891025" x2="475.0495049504944" y1="479.7597820924306" y2="479.811722787165" style="stroke: red;"></line><line x1="475.0495049504944" x2="479.20792079207854" y1="479.811722787165" y2="479.8531970985065" style="stroke: red;"></line><line x1="479.20792079207854" x2="483.3663366336627" y1="479.8531970985065" y2="479.8861282445442" style="stroke: red;"></line><line x1="483.3663366336627" x2="487.5247524752468" y1="479.8861282445442" y2="479.9121297443074" style="stroke: red;"></line><line x1="487.5247524752468" x2="491.683168316831" y1="479.9121297443074" y2="479.93254529267443" style="stroke: red;"></line><line x1="491.683168316831" x2="495.8415841584152" y1="479.93254529267443" y2="479.9484857795379" style="stroke: red;"></line></svg>