<svg xmlns="http://www.w3.org/2000/svg" id="SVG" width="600" height="560"><text x="290" y="40" style="font-size: 17px; font-family: sans-seirf; stroke: black; text-anchor: middle;">Probability Histogram and Normal Distribution</text><g class="axis" transform="translate(80, 80) " fill="none" font-size="10" font-family="sans-serif" text-anchor="end"><path class="domain" stroke="#000" d="M-6,400.5H0.5V0.5H-6"></path><g class="tick" opacity="1" transform="translate(0,400.5)"><line stroke="#000" x2="-6"></line><text fill="#000" x="-9" dy="0.32em">0.00</text></g><g class="tick" opacity="1" transform="translate(0,361.40460472878044)"><line stroke="#000" x2="-6"></line><text fill="#000" x="-9" dy="0.32em">0.01</text></g><g class="tick" opacity="1" transform="translate(0,322.30920945756094)"><line stroke="#000" x2="-6"></line><text fill="#000" x="-9" dy="0.32em">0.02</text></g><g class="tick" opacity="1" transform="translate(0,283.21381418634144)"><line stroke="#000" x2="-6"></line><text fill="#000" x="-9" dy="0.32em">0.03</text></g><g class="tick" opacity="1" transform="translate(0,244.11841891512185)"><line stroke="#000" x2="-6"></line><text fill="#000" x="-9" dy="0.32em">0.04</text></g><g class="tick" opacity="1" transform="translate(0,205.02302364390232)"><line stroke="#000" x2="-6"></line><text fill="#000" x="-9" dy="0.32em">0.05</text></g><g class="tick" opacity="1" transform="translate(0,165.92762837268282)"><line stroke="#000" x2="-6"></line><text fill="#000" x="-9" dy="0.32em">0.06</text></g><g class="tick" opacity="1" transform="translate(0,126.8322331014632)"><line stroke="#000" x2="-6"></line><text fill="#000" x="-9" dy="0.32em">0.07</text></g><g class="tick" opacity="1" transform="translate(0,87.7368378302437)"><line stroke="#000" x2="-6"></line><text fill="#000" x="-9" dy="0.32em">0.08</text></g><g class="tick" opacity="1" transform="translate(0,48.6414425590242)"><line stroke="#000" x2="-6"></line><text fill="#000" x="-9" dy="0.32em">0.09</text></g><g class="tick" opacity="1" transform="translate(0,9.54604728780464)"><line stroke="#000" x2="-6"></line><text fill="#000" x="-9" dy="0.32em">0.10</text></g></g><line x1="500" x2="500" y1="80" y2="480" style="stroke: black;"></line><line x1="80" x2="500" y1="80" y2="80" style="stroke: black;"></line><line x1="80" x2="500" y1="480" y2="480" style="stroke: black;"></line><line x1="80" x2="80" y1="480" y2="485" style="stroke: black;"></line><text class="myaxis" x="80" y="500" style="text-anchor: middle; font-family: sans-serif; font-size: 7px; stroke: rgb(0, 85, 255);">182.71</text><line x1="106.24999999999983" x2="106.24999999999983" y1="480" y2="485" style="stroke: black;"></line><text class="myaxis" x="106.24999999999983" y="500" style="text-anchor: middle; font-family: sans-serif; font-size: 7px; stroke: rgb(0, 85, 255);">184.91</text><line x1="132.5" x2="132.5" y1="480" y2="485" style="stroke: black;"></line><text class="myaxis" x="132.5" y="500" style="text-anchor: middle; font-family: sans-serif; font-size: 7px; stroke: rgb(0, 85, 255);">187.11</text><line x1="158.75000000000017" x2="158.75000000000017" y1="480" y2="485" style="stroke: black;"></line><text class="myaxis" x="158.75000000000017" y="500" style="text-anchor: middle; font-family: sans-serif; font-size: 7px; stroke: rgb(0, 85, 255);">189.30</text><line x1="185" x2="185" y1="480" y2="485" style="stroke: black;"></line><text class="myaxis" x="185" y="500" style="text-anchor: middle; font-family: sans-serif; font-size: 7px; stroke: rgb(0, 85, 255);">191.50</text><line x1="211.24999999999983" x2="211.24999999999983" y1="480" y2="485" style="stroke: black;"></line><text class="myaxis" x="211.24999999999983" y="500" style="text-anchor: middle; font-family: sans-serif; font-size: 7px; stroke: rgb(0, 85, 255);">193.70</text><line x1="237.5" x2="237.5" y1="480" y2="485" style="stroke: black;"></line><text class="myaxis" x="237.5" y="500" style="text-anchor: middle; font-family: sans-serif; font-size: 7px; stroke: rgb(0, 85, 255);">195.90</text><line x1="263.75000000000017" x2="263.75000000000017" y1="480" y2="485" style="stroke: black;"></line><text class="myaxis" x="263.75000000000017" y="500" style="text-anchor: middle; font-family: sans-serif; font-size: 7px; stroke: rgb(0, 85, 255);">198.10</text><line x1="290" x2="290" y1="480" y2="485" style="stroke: black;"></line><text class="myaxis" x="290" y="500" style="text-anchor: middle; font-family: sans-serif; font-size: 7px; stroke: rgb(0, 85, 255);">200.30</text><line x1="316.24999999999983" x2="316.24999999999983" y1="480" y2="485" style="stroke: black;"></line><text class="myaxis" x="316.24999999999983" y="500" style="text-anchor: middle; font-family: sans-serif; font-size: 7px; stroke: rgb(0, 85, 255);">202.50</text><line x1="342.5" x2="342.5" y1="480" y2="485" style="stroke: black;"></line><text class="myaxis" x="342.5" y="500" style="text-anchor: middle; font-family: sans-serif; font-size: 7px; stroke: rgb(0, 85, 255);">204.70</text><line x1="368.75000000000017" x2="368.75000000000017" y1="480" y2="485" style="stroke: black;"></line><text class="myaxis" x="368.75000000000017" y="500" style="text-anchor: middle; font-family: sans-serif; font-size: 7px; stroke: rgb(0, 85, 255);">206.90</text><line x1="395" x2="395" y1="480" y2="485" style="stroke: black;"></line><text class="myaxis" x="395" y="500" style="text-anchor: middle; font-family: sans-serif; font-size: 7px; stroke: rgb(0, 85, 255);">209.10</text><line x1="421.24999999999983" x2="421.24999999999983" y1="480" y2="485" style="stroke: black;"></line><text class="myaxis" x="421.24999999999983" y="500" style="text-anchor: middle; font-family: sans-serif; font-size: 7px; stroke: rgb(0, 85, 255);">211.30</text><line x1="447.5" x2="447.5" y1="480" y2="485" style="stroke: black;"></line><text class="myaxis" x="447.5" y="500" style="text-anchor: middle; font-family: sans-serif; font-size: 7px; stroke: rgb(0, 85, 255);">213.49</text><line x1="473.75000000000017" x2="473.75000000000017" y1="480" y2="485" style="stroke: black;"></line><text class="myaxis" x="473.75000000000017" y="500" style="text-anchor: middle; font-family: sans-serif; font-size: 7px; stroke: rgb(0, 85, 255);">215.69</text><line x1="500" x2="500" y1="480" y2="485" style="stroke: black;"></line><text class="myaxis" x="500" y="500" style="text-anchor: middle; font-family: sans-serif; font-size: 7px; stroke: rgb(0, 85, 255);">217.89</text><text x="290" y="530" style="font-size: 12px; font-family: sans-seirf; stroke: black; text-anchor: middle;">Weight</text><rect class="bar" x="80" width="26.25" height="0" y="480" style="fill: rgb(0, 85, 255); stroke: black; stroke-width: 1px;"></rect><rect class="bar" x="106.24999999999983" width="26.25" height="0" y="480" style="fill: rgb(0, 85, 255); stroke: black; stroke-width: 1px;"></rect><rect class="bar" x="132.5" width="26.25" height="0" y="480" style="fill: rgb(0, 85, 255); stroke: black; stroke-width: 1px;"></rect><rect class="bar" x="158.75000000000017" width="26.25" height="0" y="480" style="fill: rgb(0, 85, 255); stroke: black; stroke-width: 1px;"></rect><rect class="bar" x="185" width="26.25" height="0" y="480" style="fill: rgb(0, 85, 255); stroke: black; stroke-width: 1px;"></rect><rect class="bar" x="211.24999999999983" width="26.25" height="355.5555555555555" y="124.44444444444451" style="fill: rgb(0, 85, 255); stroke: black; stroke-width: 1px;"></rect><rect class="bar" x="237.5" width="26.25" height="355.5555555555555" y="124.44444444444451" style="fill: rgb(0, 85, 255); stroke: black; stroke-width: 1px;"></rect><rect class="bar" x="263.75000000000017" width="26.25" height="177.77777777777774" y="302.2222222222223" style="fill: rgb(0, 85, 255); stroke: black; stroke-width: 1px;"></rect><rect class="bar" x="290" width="26.25" height="177.77777777777774" y="302.2222222222223" style="fill: rgb(0, 85, 255); stroke: black; stroke-width: 1px;"></rect><rect class="bar" x="316.24999999999983" width="26.25" height="355.5555555555555" y="124.44444444444451" style="fill: rgb(0, 85, 255); stroke: black; stroke-width: 1px;"></rect><rect class="bar" x="342.5" width="26.25" height="177.77777777777774" y="302.2222222222223" style="fill: rgb(0, 85, 255); stroke: black; stroke-width: 1px;"></rect><rect class="bar" x="368.75000000000017" width="26.25" height="177.77777777777774" y="302.2222222222223" style="fill: rgb(0, 85, 255); stroke: black; stroke-width: 1px;"></rect><rect class="bar" x="395" width="26.25" height="0" y="480" style="fill: rgb(0, 85, 255); stroke: black; stroke-width: 1px;"></rect><rect class="bar" x="421.24999999999983" width="26.25" height="0" y="480" style="fill: rgb(0, 85, 255); stroke: black; stroke-width: 1px;"></rect><rect class="bar" x="447.5" width="26.25" height="0" y="480" style="fill: rgb(0, 85, 255); stroke: black; stroke-width: 1px;"></rect><rect class="bar" x="473.75000000000017" width="26.25" height="0" y="480" style="fill: rgb(0, 85, 255); stroke: black; stroke-width: 1px;"></rect><line x1="290" y1="125.38463964317077" x2="290" y2="485" style="stroke: red;"></line><text x="290" y="492" style="stroke: red; text-anchor: middle; font-family: sans-serif; font-size: 7pt;">Mean=200.30</text><text x="370" y="492" style="stroke: red; text-anchor: middle; font-family: sans-serif; font-size: 7pt;">Std Dev=4.40</text><line x1="80" x2="84.15841584158403" y1="479.8810397993201" y2="479.83720630490296" style="stroke: red;"></line><line x1="84.15841584158403" x2="88.31683168316806" y1="479.83720630490296" y2="479.7786147124859" style="stroke: red;"></line><line x1="88.31683168316806" x2="92.47524752475209" y1="479.7786147124859" y2="479.70081817097577" style="stroke: red;"></line><line x1="92.47524752475209" x2="96.63366336633612" y1="479.70081817097577" y2="479.59821200895317" style="stroke: red;"></line><line x1="96.63366336633612" x2="100.79207920792015" y1="479.59821200895317" y2="479.46379115520597" style="stroke: red;"></line><line x1="100.79207920792015" x2="104.95049504950418" y1="479.46379115520597" y2="479.2888744594377" style="stroke: red;"></line><line x1="104.95049504950418" x2="109.10891089108821" y1="479.2888744594377" y2="479.06279658474256" style="stroke: red;"></line><line x1="109.10891089108821" x2="113.26732673267225" y1="479.06279658474256" y2="478.77257000986225" style="stroke: red;"></line><line x1="113.26732673267225" x2="117.42574257425628" y1="478.77257000986225" y2="478.4025220208106" style="stroke: red;"></line><line x1="117.42574257425628" x2="121.5841584158403" y1="478.4025220208106" y2="477.93391439290383" style="stroke: red;"></line><line x1="121.5841584158403" x2="125.74257425742434" y1="477.93391439290383" y2="477.3445567374394" style="stroke: red;"></line><line x1="125.74257425742434" x2="129.90099009900837" y1="477.3445567374394" y2="476.6084281429514" style="stroke: red;"></line><line x1="129.90099009900837" x2="134.0594059405924" y1="476.6084281429514" y2="475.6953256613185" style="stroke: red;"></line><line x1="134.0594059405924" x2="138.21782178217643" y1="475.6953256613185" y2="474.57056220208835" style="stroke: red;"></line><line x1="138.21782178217643" x2="142.37623762376046" y1="474.57056220208835" y2="473.1947402756225" style="stroke: red;"></line><line x1="142.37623762376046" x2="146.5346534653445" y1="473.1947402756225" y2="471.52363148319307" style="stroke: red;"></line><line x1="146.5346534653445" x2="150.69306930692852" y1="471.52363148319307" y2="469.5081943573985" style="stroke: red;"></line><line x1="150.69306930692852" x2="154.85148514851255" y1="469.5081943573985" y2="467.0947647402864" style="stroke: red;"></line><line x1="154.85148514851255" x2="159.00990099009658" y1="467.0947647402864" y2="464.22545296289115" style="stroke: red;"></line><line x1="159.00990099009658" x2="163.1683168316806" y1="464.22545296289115" y2="460.83878027957473" style="stroke: red;"></line><line x1="163.1683168316806" x2="167.32673267326464" y1="460.83878027957473" y2="456.87058297298756" style="stroke: red;"></line><line x1="167.32673267326464" x2="171.48514851484867" y1="456.87058297298756" y2="452.2552060135004" style="stroke: red;"></line><line x1="171.48514851484867" x2="175.6435643564327" y1="452.2552060135004" y2="446.926998974228" style="stroke: red;"></line><line x1="175.6435643564327" x2="179.80198019801674" y1="446.926998974228" y2="440.8221150604253" style="stroke: red;"></line><line x1="179.80198019801674" x2="183.96039603960077" y1="440.8221150604253" y2="433.88059978143406" style="stroke: red;"></line><line x1="183.96039603960077" x2="188.1188118811848" y1="433.88059978143406" y2="426.0487393509432" style="stroke: red;"></line><line x1="188.1188118811848" x2="192.27722772276883" y1="426.0487393509432" y2="417.2816209418981" style="stroke: red;"></line><line x1="192.27722772276883" x2="196.43564356435286" y1="417.2816209418981" y2="407.5458382571973" style="stroke: red;"></line><line x1="196.43564356435286" x2="200.5940594059369" y1="407.5458382571973" y2="396.82225751420197" style="stroke: red;"></line><line x1="200.5940594059369" x2="204.75247524752092" y1="396.82225751420197" y2="385.1087420450975" style="stroke: red;"></line><line x1="204.75247524752092" x2="208.91089108910495" y1="385.1087420450975" y2="372.42271954956254" style="stroke: red;"></line><line x1="208.91089108910495" x2="213.06930693068898" y1="372.42271954956254" y2="358.8034658855976" style="stroke: red;"></line><line x1="213.06930693068898" x2="217.227722772273" y1="358.8034658855976" y2="344.3139743637247" style="stroke: red;"></line><line x1="217.227722772273" x2="221.38613861385704" y1="344.3139743637247" y2="329.042280864979" style="stroke: red;"></line><line x1="221.38613861385704" x2="225.54455445544107" y1="329.042280864979" y2="313.10212351041037" style="stroke: red;"></line><line x1="225.54455445544107" x2="229.7029702970251" y1="313.10212351041037" y2="296.6328314825225" style="stroke: red;"></line><line x1="229.7029702970251" x2="233.86138613860913" y1="296.6328314825225" y2="279.79836091069546" style="stroke: red;"></line><line x1="233.86138613860913" x2="238.0198019801932" y1="279.79836091069546" y2="262.78542596496277" style="stroke: red;"></line><line x1="238.0198019801932" x2="242.1782178217772" y1="262.78542596496277" y2="245.80070942623757" style="stroke: red;"></line><line x1="242.1782178217772" x2="246.33663366336123" y1="245.80070942623757" y2="229.0671774943508" style="stroke: red;"></line><line x1="246.33663366336123" x2="250.49504950494526" y1="229.0671774943508" y2="212.81956650260406" style="stroke: red;"></line><line x1="250.49504950494526" x2="254.6534653465293" y1="212.81956650260406" y2="197.2991522383681" style="stroke: red;"></line><line x1="254.6534653465293" x2="258.8118811881133" y1="197.2991522383681" y2="182.74795323144508" style="stroke: red;"></line><line x1="258.8118811881133" x2="262.97029702969735" y1="182.74795323144508" y2="169.40255513212082" style="stroke: red;"></line><line x1="262.97029702969735" x2="267.1287128712814" y1="169.40255513212082" y2="157.48777176058286" style="stroke: red;"></line><line x1="267.1287128712814" x2="271.2871287128654" y1="157.48777176058286" y2="147.2103774832184" style="stroke: red;"></line><line x1="271.2871287128654" x2="275.44554455444944" y1="147.2103774832184" y2="138.7531536523776" style="stroke: red;"></line><line x1="275.44554455444944" x2="279.6039603960335" y1="138.7531536523776" y2="132.2694879448889" style="stroke: red;"></line><line x1="279.6039603960335" x2="283.7623762376175" y1="132.2694879448889" y2="127.87874927717559" style="stroke: red;"></line><line x1="283.7623762376175" x2="287.92079207920153" y1="127.87874927717559" y2="125.66263305204205" style="stroke: red;"></line><line x1="287.92079207920153" x2="292.07920792078556" y1="125.66263305204205" y2="125.66263305203859" style="stroke: red;"></line><line x1="292.07920792078556" x2="296.2376237623696" y1="125.66263305203859" y2="127.8787492771653" style="stroke: red;"></line><line x1="296.2376237623696" x2="300.3960396039536" y1="127.8787492771653" y2="132.26948794487197" style="stroke: red;"></line><line x1="300.3960396039536" x2="304.55445544553766" y1="132.26948794487197" y2="138.75315365235429" style="stroke: red;"></line><line x1="304.55445544553766" x2="308.7128712871217" y1="138.75315365235429" y2="147.2103774831893" style="stroke: red;"></line><line x1="308.7128712871217" x2="312.8712871287057" y1="147.2103774831893" y2="157.48777176054836" style="stroke: red;"></line><line x1="312.8712871287057" x2="317.0297029702898" y1="157.48777176054836" y2="169.40255513208155" style="stroke: red;"></line><line x1="317.0297029702898" x2="321.1881188118738" y1="169.40255513208155" y2="182.74795323140182" style="stroke: red;"></line><line x1="321.1881188118738" x2="325.3465346534578" y1="182.74795323140182" y2="197.29915223832143" style="stroke: red;"></line><line x1="325.3465346534578" x2="329.50495049504184" y1="197.29915223832143" y2="212.81956650255472" style="stroke: red;"></line><line x1="329.50495049504184" x2="333.66336633662587" y1="212.81956650255472" y2="229.06717749429953" style="stroke: red;"></line><line x1="333.66336633662587" x2="337.8217821782099" y1="229.06717749429953" y2="245.80070942618516" style="stroke: red;"></line><line x1="337.8217821782099" x2="341.98019801979393" y1="245.80070942618516" y2="262.78542596491" style="stroke: red;"></line><line x1="341.98019801979393" x2="346.13861386137796" y1="262.78542596491" y2="279.7983609106428" style="stroke: red;"></line><line x1="346.13861386137796" x2="350.297029702962" y1="279.7983609106428" y2="296.6328314824708" style="stroke: red;"></line><line x1="350.297029702962" x2="354.455445544546" y1="296.6328314824708" y2="313.1021235103601" style="stroke: red;"></line><line x1="354.455445544546" x2="358.61386138613005" y1="313.1021235103601" y2="329.0422808649305" style="stroke: red;"></line><line x1="358.61386138613005" x2="362.7722772277141" y1="329.0422808649305" y2="344.3139743636785" style="stroke: red;"></line><line x1="362.7722772277141" x2="366.9306930692981" y1="344.3139743636785" y2="358.803465885554" style="stroke: red;"></line><line x1="366.9306930692981" x2="371.08910891088215" y1="358.803465885554" y2="372.42271954952173" style="stroke: red;"></line><line x1="371.08910891088215" x2="375.2475247524662" y1="372.42271954952173" y2="385.10874204505967" style="stroke: red;"></line><line x1="375.2475247524662" x2="379.4059405940502" y1="385.10874204505967" y2="396.8222575141672" style="stroke: red;"></line><line x1="379.4059405940502" x2="383.56435643563424" y1="396.8222575141672" y2="407.54583825716566" style="stroke: red;"></line><line x1="383.56435643563424" x2="387.72277227721827" y1="407.54583825716566" y2="417.2816209418694" style="stroke: red;"></line><line x1="387.72277227721827" x2="391.8811881188023" y1="417.2816209418694" y2="426.0487393509175" style="stroke: red;"></line><line x1="391.8811881188023" x2="396.0396039603864" y1="426.0487393509175" y2="433.8805997814112" style="stroke: red;"></line><line x1="396.0396039603864" x2="400.19801980197036" y1="433.8805997814112" y2="440.8221150604051" style="stroke: red;"></line><line x1="400.19801980197036" x2="404.3564356435544" y1="440.8221150604051" y2="446.92699897421033" style="stroke: red;"></line><line x1="404.3564356435544" x2="408.5148514851384" y1="446.92699897421033" y2="452.255206013485" style="stroke: red;"></line><line x1="408.5148514851384" x2="412.67326732672245" y1="452.255206013485" y2="456.87058297297426" style="stroke: red;"></line><line x1="412.67326732672245" x2="416.83168316830654" y1="456.87058297297426" y2="460.83878027956337" style="stroke: red;"></line><line x1="416.83168316830654" x2="420.9900990098905" y1="460.83878027956337" y2="464.2254529628815" style="stroke: red;"></line><line x1="420.9900990098905" x2="425.14851485147454" y1="464.2254529628815" y2="467.0947647402782" style="stroke: red;"></line><line x1="425.14851485147454" x2="429.3069306930586" y1="467.0947647402782" y2="469.5081943573917" style="stroke: red;"></line><line x1="429.3069306930586" x2="433.4653465346426" y1="469.5081943573917" y2="471.5236314831874" style="stroke: red;"></line><line x1="433.4653465346426" x2="437.62376237622664" y1="471.5236314831874" y2="473.1947402756178" style="stroke: red;"></line><line x1="437.62376237622664" x2="441.78217821781067" y1="473.1947402756178" y2="474.5705622020845" style="stroke: red;"></line><line x1="441.78217821781067" x2="445.9405940593947" y1="474.5705622020845" y2="475.6953256613154" style="stroke: red;"></line><line x1="445.9405940593947" x2="450.0990099009788" y1="475.6953256613154" y2="476.60842814294887" style="stroke: red;"></line><line x1="450.0990099009788" x2="454.25742574256276" y1="476.60842814294887" y2="477.34455673743736" style="stroke: red;"></line><line x1="454.25742574256276" x2="458.4158415841468" y1="477.34455673743736" y2="477.93391439290224" style="stroke: red;"></line><line x1="458.4158415841468" x2="462.5742574257309" y1="477.93391439290224" y2="478.4025220208093" style="stroke: red;"></line><line x1="462.5742574257309" x2="466.73267326731485" y1="478.4025220208093" y2="478.7725700098612" style="stroke: red;"></line><line x1="466.73267326731485" x2="470.8910891088989" y1="478.7725700098612" y2="479.06279658474176" style="stroke: red;"></line><line x1="470.8910891088989" x2="475.0495049504829" y1="479.06279658474176" y2="479.2888744594371" style="stroke: red;"></line><line x1="475.0495049504829" x2="479.20792079206694" y1="479.2888744594371" y2="479.4637911552055" style="stroke: red;"></line><line x1="479.20792079206694" x2="483.36633663365103" y1="479.4637911552055" y2="479.59821200895277" style="stroke: red;"></line><line x1="483.36633663365103" x2="487.524752475235" y1="479.59821200895277" y2="479.7008181709755" style="stroke: red;"></line><line x1="487.524752475235" x2="491.68316831681904" y1="479.7008181709755" y2="479.77861471248565" style="stroke: red;"></line><line x1="491.68316831681904" x2="495.84158415840307" y1="479.77861471248565" y2="479.8372063049028" style="stroke: red;"></line></svg>