<svg xmlns="http://www.w3.org/2000/svg" id="SVG" width="600" height="560"><text x="290" y="40" style="font-size: 17px; font-family: sans-seirf; stroke: black; text-anchor: middle;">Probability Histogram and Normal Distribution</text><g class="axis" transform="translate(80, 80) " fill="none" font-size="10" font-family="sans-serif" text-anchor="end"><path class="domain" stroke="#000" d="M-6,133.83333333333334H0.5V0.5H-6"></path><g class="tick" opacity="1" transform="translate(0,133.83333333333334)"><line stroke="#000" x2="-6"></line><text fill="#000" x="-9" dy="0.32em">0.00</text></g><g class="tick" opacity="1" transform="translate(0,118.97923985403852)"><line stroke="#000" x2="-6"></line><text fill="#000" x="-9" dy="0.32em">0.05</text></g><g class="tick" opacity="1" transform="translate(0,104.12514637474371)"><line stroke="#000" x2="-6"></line><text fill="#000" x="-9" dy="0.32em">0.10</text></g><g class="tick" opacity="1" transform="translate(0,89.27105289544889)"><line stroke="#000" x2="-6"></line><text fill="#000" x="-9" dy="0.32em">0.15</text></g><g class="tick" opacity="1" transform="translate(0,74.41695941615407)"><line stroke="#000" x2="-6"></line><text fill="#000" x="-9" dy="0.32em">0.20</text></g><g class="tick" opacity="1" transform="translate(0,59.562865936859254)"><line stroke="#000" x2="-6"></line><text fill="#000" x="-9" dy="0.32em">0.25</text></g><g class="tick" opacity="1" transform="translate(0,44.708772457564436)"><line stroke="#000" x2="-6"></line><text fill="#000" x="-9" dy="0.32em">0.30</text></g><g class="tick" opacity="1" transform="translate(0,29.854678978269618)"><line stroke="#000" x2="-6"></line><text fill="#000" x="-9" dy="0.32em">0.35</text></g><g class="tick" opacity="1" transform="translate(0,15.000585498974786)"><line stroke="#000" x2="-6"></line><text fill="#000" x="-9" dy="0.32em">0.40</text></g></g><g class="axis" transform="translate(80, 213.33333333333334) " fill="none" font-size="10" font-family="sans-serif" text-anchor="end"><path class="domain" stroke="#000" d="M-6,133.83333333333334H0.5V0.5H-6"></path><g class="tick" opacity="1" transform="translate(0,133.83333333333334)"><line stroke="#000" x2="-6"></line><text fill="#000" x="-9" dy="0.32em">0.00</text></g><g class="tick" opacity="1" transform="translate(0,118.97923985403852)"><line stroke="#000" x2="-6"></line><text fill="#000" x="-9" dy="0.32em">0.05</text></g><g class="tick" opacity="1" transform="translate(0,104.12514637474371)"><line stroke="#000" x2="-6"></line><text fill="#000" x="-9" dy="0.32em">0.10</text></g><g class="tick" opacity="1" transform="translate(0,89.27105289544889)"><line stroke="#000" x2="-6"></line><text fill="#000" x="-9" dy="0.32em">0.15</text></g><g class="tick" opacity="1" transform="translate(0,74.41695941615407)"><line stroke="#000" x2="-6"></line><text fill="#000" x="-9" dy="0.32em">0.20</text></g><g class="tick" opacity="1" transform="translate(0,59.562865936859254)"><line stroke="#000" x2="-6"></line><text fill="#000" x="-9" dy="0.32em">0.25</text></g><g class="tick" opacity="1" transform="translate(0,44.708772457564436)"><line stroke="#000" x2="-6"></line><text fill="#000" x="-9" dy="0.32em">0.30</text></g><g class="tick" opacity="1" transform="translate(0,29.854678978269618)"><line stroke="#000" x2="-6"></line><text fill="#000" x="-9" dy="0.32em">0.35</text></g><g class="tick" opacity="1" transform="translate(0,15.000585498974786)"><line stroke="#000" x2="-6"></line><text fill="#000" x="-9" dy="0.32em">0.40</text></g></g><g class="axis" transform="translate(80, 346.6666666666667) " fill="none" font-size="10" font-family="sans-serif" text-anchor="end"><path class="domain" stroke="#000" d="M-6,133.83333333333334H0.5V0.5H-6"></path><g class="tick" opacity="1" transform="translate(0,133.83333333333334)"><line stroke="#000" x2="-6"></line><text fill="#000" x="-9" dy="0.32em">0.00</text></g><g class="tick" opacity="1" transform="translate(0,118.97923985403852)"><line stroke="#000" x2="-6"></line><text fill="#000" x="-9" dy="0.32em">0.05</text></g><g class="tick" opacity="1" transform="translate(0,104.12514637474371)"><line stroke="#000" x2="-6"></line><text fill="#000" x="-9" dy="0.32em">0.10</text></g><g class="tick" opacity="1" transform="translate(0,89.27105289544889)"><line stroke="#000" x2="-6"></line><text fill="#000" x="-9" dy="0.32em">0.15</text></g><g class="tick" opacity="1" transform="translate(0,74.41695941615407)"><line stroke="#000" x2="-6"></line><text fill="#000" x="-9" dy="0.32em">0.20</text></g><g class="tick" opacity="1" transform="translate(0,59.562865936859254)"><line stroke="#000" x2="-6"></line><text fill="#000" x="-9" dy="0.32em">0.25</text></g><g class="tick" opacity="1" transform="translate(0,44.708772457564436)"><line stroke="#000" x2="-6"></line><text fill="#000" x="-9" dy="0.32em">0.30</text></g><g class="tick" opacity="1" transform="translate(0,29.854678978269618)"><line stroke="#000" x2="-6"></line><text fill="#000" x="-9" dy="0.32em">0.35</text></g><g class="tick" opacity="1" transform="translate(0,15.000585498974786)"><line stroke="#000" x2="-6"></line><text fill="#000" x="-9" dy="0.32em">0.40</text></g></g><line x1="500" x2="500" y1="80" y2="480" style="stroke: black;"></line><line x1="80" x2="500" y1="80" y2="80" style="stroke: black;"></line><line x1="80" x2="500" y1="213.33333333333334" y2="213.33333333333334" style="stroke: black;"></line><line x1="80" x2="500" y1="346.6666666666667" y2="346.6666666666667" style="stroke: black;"></line><line x1="80" x2="500" y1="480" y2="480" style="stroke: black;"></line><line x1="80" x2="80" y1="480" y2="485" style="stroke: black;"></line><text class="myaxis" x="80" y="500" style="text-anchor: middle; font-family: sans-serif; font-size: 7px; stroke: rgb(0, 85, 255);">39.75</text><line x1="106.24999999999999" x2="106.24999999999999" y1="480" y2="485" style="stroke: black;"></line><text class="myaxis" x="106.24999999999999" y="500" style="text-anchor: middle; font-family: sans-serif; font-size: 7px; stroke: rgb(0, 85, 255);">42.87</text><line x1="132.49999999999997" x2="132.49999999999997" y1="480" y2="485" style="stroke: black;"></line><text class="myaxis" x="132.49999999999997" y="500" style="text-anchor: middle; font-family: sans-serif; font-size: 7px; stroke: rgb(0, 85, 255);">45.99</text><line x1="158.75" x2="158.75" y1="480" y2="485" style="stroke: black;"></line><text class="myaxis" x="158.75" y="500" style="text-anchor: middle; font-family: sans-serif; font-size: 7px; stroke: rgb(0, 85, 255);">49.11</text><line x1="185" x2="185" y1="480" y2="485" style="stroke: black;"></line><text class="myaxis" x="185" y="500" style="text-anchor: middle; font-family: sans-serif; font-size: 7px; stroke: rgb(0, 85, 255);">52.23</text><line x1="211.24999999999997" x2="211.24999999999997" y1="480" y2="485" style="stroke: black;"></line><text class="myaxis" x="211.24999999999997" y="500" style="text-anchor: middle; font-family: sans-serif; font-size: 7px; stroke: rgb(0, 85, 255);">55.34</text><line x1="237.50000000000003" x2="237.50000000000003" y1="480" y2="485" style="stroke: black;"></line><text class="myaxis" x="237.50000000000003" y="500" style="text-anchor: middle; font-family: sans-serif; font-size: 7px; stroke: rgb(0, 85, 255);">58.46</text><line x1="263.75" x2="263.75" y1="480" y2="485" style="stroke: black;"></line><text class="myaxis" x="263.75" y="500" style="text-anchor: middle; font-family: sans-serif; font-size: 7px; stroke: rgb(0, 85, 255);">61.58</text><line x1="290" x2="290" y1="480" y2="485" style="stroke: black;"></line><text class="myaxis" x="290" y="500" style="text-anchor: middle; font-family: sans-serif; font-size: 7px; stroke: rgb(0, 85, 255);">64.70</text><line x1="316.2499999999999" x2="316.2499999999999" y1="480" y2="485" style="stroke: black;"></line><text class="myaxis" x="316.2499999999999" y="500" style="text-anchor: middle; font-family: sans-serif; font-size: 7px; stroke: rgb(0, 85, 255);">67.82</text><line x1="342.49999999999994" x2="342.49999999999994" y1="480" y2="485" style="stroke: black;"></line><text class="myaxis" x="342.49999999999994" y="500" style="text-anchor: middle; font-family: sans-serif; font-size: 7px; stroke: rgb(0, 85, 255);">70.94</text><line x1="368.75" x2="368.75" y1="480" y2="485" style="stroke: black;"></line><text class="myaxis" x="368.75" y="500" style="text-anchor: middle; font-family: sans-serif; font-size: 7px; stroke: rgb(0, 85, 255);">74.06</text><line x1="395.00000000000006" x2="395.00000000000006" y1="480" y2="485" style="stroke: black;"></line><text class="myaxis" x="395.00000000000006" y="500" style="text-anchor: middle; font-family: sans-serif; font-size: 7px; stroke: rgb(0, 85, 255);">77.17</text><line x1="421.25" x2="421.25" y1="480" y2="485" style="stroke: black;"></line><text class="myaxis" x="421.25" y="500" style="text-anchor: middle; font-family: sans-serif; font-size: 7px; stroke: rgb(0, 85, 255);">80.29</text><line x1="447.50000000000006" x2="447.50000000000006" y1="480" y2="485" style="stroke: black;"></line><text class="myaxis" x="447.50000000000006" y="500" style="text-anchor: middle; font-family: sans-serif; font-size: 7px; stroke: rgb(0, 85, 255);">83.41</text><line x1="473.74999999999994" x2="473.74999999999994" y1="480" y2="485" style="stroke: black;"></line><text class="myaxis" x="473.74999999999994" y="500" style="text-anchor: middle; font-family: sans-serif; font-size: 7px; stroke: rgb(0, 85, 255);">86.53</text><line x1="500" x2="500" y1="480" y2="485" style="stroke: black;"></line><text class="myaxis" x="500" y="500" style="text-anchor: middle; font-family: sans-serif; font-size: 7px; stroke: rgb(0, 85, 255);">89.65</text><text x="290" y="530" style="font-size: 12px; font-family: sans-seirf; stroke: black; text-anchor: middle;">Score</text><text x="520" y="146.66666666666669" style="font-size: 12px; font-family: sans-seirf; stroke: rgb(0, 85, 255); text-anchor: start;">A</text><rect class="bar" x="80" width="26.25" height="0" y="213.33333333333334" style="fill: rgb(0, 85, 255); stroke: black; stroke-width: 1px;"></rect><rect class="bar" x="106.24999999999999" width="26.25" height="0" y="213.33333333333334" style="fill: rgb(0, 85, 255); stroke: black; stroke-width: 1px;"></rect><rect class="bar" x="132.49999999999997" width="26.25" height="0" y="213.33333333333334" style="fill: rgb(0, 85, 255); stroke: black; stroke-width: 1px;"></rect><rect class="bar" x="158.75" width="26.25" height="0" y="213.33333333333334" style="fill: rgb(0, 85, 255); stroke: black; stroke-width: 1px;"></rect><rect class="bar" x="185" width="26.25" height="0" y="213.33333333333334" style="fill: rgb(0, 85, 255); stroke: black; stroke-width: 1px;"></rect><rect class="bar" x="211.24999999999997" width="26.25" height="0" y="213.33333333333334" style="fill: rgb(0, 85, 255); stroke: black; stroke-width: 1px;"></rect><rect class="bar" x="237.50000000000003" width="26.25" height="23.816138762007157" y="189.51719457132617" style="fill: rgb(0, 85, 255); stroke: black; stroke-width: 1px;"></rect><rect class="bar" x="263.75" width="26.25" height="0" y="213.33333333333334" style="fill: rgb(0, 85, 255); stroke: black; stroke-width: 1px;"></rect><rect class="bar" x="290" width="26.25" height="47.63227752401431" y="165.70105580931903" style="fill: rgb(0, 85, 255); stroke: black; stroke-width: 1px;"></rect><rect class="bar" x="316.2499999999999" width="26.25" height="23.816138762007157" y="189.51719457132617" style="fill: rgb(0, 85, 255); stroke: black; stroke-width: 1px;"></rect><rect class="bar" x="342.49999999999994" width="26.25" height="0" y="213.33333333333334" style="fill: rgb(0, 85, 255); stroke: black; stroke-width: 1px;"></rect><rect class="bar" x="368.75" width="26.25" height="0" y="213.33333333333334" style="fill: rgb(0, 85, 255); stroke: black; stroke-width: 1px;"></rect><rect class="bar" x="395.00000000000006" width="26.25" height="0" y="213.33333333333334" style="fill: rgb(0, 85, 255); stroke: black; stroke-width: 1px;"></rect><rect class="bar" x="421.25" width="26.25" height="0" y="213.33333333333334" style="fill: rgb(0, 85, 255); stroke: black; stroke-width: 1px;"></rect><rect class="bar" x="447.50000000000006" width="26.25" height="0" y="213.33333333333334" style="fill: rgb(0, 85, 255); stroke: black; stroke-width: 1px;"></rect><rect class="bar" x="473.74999999999994" width="26.25" height="0" y="213.33333333333334" style="fill: rgb(0, 85, 255); stroke: black; stroke-width: 1px;"></rect><line x1="292.52525801069226" y1="94.81481481481481" x2="292.52525801069226" y2="218.33333333333334" style="stroke: red;"></line><text x="292.52525801069226" y="225.33333333333334" style="stroke: red; text-anchor: middle; font-family: sans-serif; font-size: 7pt;">Mean=65.00</text><text x="372.52525801069226" y="225.33333333333334" style="stroke: red; text-anchor: middle; font-family: sans-serif; font-size: 7pt;">Std Dev=4.32</text><line x1="80" x2="84.15841584158417" y1="213.33333227951334" y2="213.33333129102917" style="stroke: red;"></line><line x1="84.15841584158417" x2="88.31683168316835" y1="213.33333129102917" y2="213.33332942675716" style="stroke: red;"></line><line x1="88.31683168316835" x2="92.47524752475252" y1="213.33332942675716" y2="213.33332595778944" style="stroke: red;"></line><line x1="92.47524752475252" x2="96.6336633663367" y1="213.33332595778944" y2="213.3333195893162" style="stroke: red;"></line><line x1="96.6336633663367" x2="100.79207920792088" y1="213.3333195893162" y2="213.33330805460596" style="stroke: red;"></line><line x1="100.79207920792088" x2="104.95049504950505" y1="213.33330805460596" y2="213.33328744327525" style="stroke: red;"></line><line x1="104.95049504950505" x2="109.10891089108922" y1="213.33328744327525" y2="213.3332511083316" style="stroke: red;"></line><line x1="109.10891089108922" x2="113.26732673267341" y1="213.3332511083316" y2="213.3331879177139" style="stroke: red;"></line><line x1="113.26732673267341" x2="117.42574257425758" y1="213.3331879177139" y2="213.33307950499506" style="stroke: red;"></line><line x1="117.42574257425758" x2="121.58415841584176" y1="213.33307950499506" y2="213.3328960216923" style="stroke: red;"></line><line x1="121.58415841584176" x2="125.74257425742593" y1="213.3328960216923" y2="213.3325896914323" style="stroke: red;"></line><line x1="125.74257425742593" x2="129.9009900990101" y1="213.3325896914323" y2="213.33208520699114" style="stroke: red;"></line><line x1="129.9009900990101" x2="134.05940594059427" y1="213.33208520699114" y2="213.33126569236518" style="stroke: red;"></line><line x1="134.05940594059427" x2="138.21782178217845" y1="213.33126569236518" y2="213.32995257917634" style="stroke: red;"></line><line x1="138.21782178217845" x2="142.37623762376262" y1="213.32995257917634" y2="213.32787733868855" style="stroke: red;"></line><line x1="142.37623762376262" x2="146.53465346534682" y1="213.32787733868855" y2="213.32464260523454" style="stroke: red;"></line><line x1="146.53465346534682" x2="150.69306930693097" y1="213.32464260523454" y2="213.31966988645905" style="stroke: red;"></line><line x1="150.69306930693097" x2="154.85148514851517" y1="213.31966988645905" y2="213.31213087272477" style="stroke: red;"></line><line x1="154.85148514851517" x2="159.0099009900993" y1="213.31213087272477" y2="213.30085945642782" style="stroke: red;"></line><line x1="159.0099009900993" x2="163.1683168316835" y1="213.30085945642782" y2="213.28424210512068" style="stroke: red;"></line><line x1="163.1683168316835" x2="167.32673267326766" y1="213.28424210512068" y2="213.26008537260103" style="stroke: red;"></line><line x1="167.32673267326766" x2="171.48514851485186" y1="213.26008537260103" y2="213.22546125129844" style="stroke: red;"></line><line x1="171.48514851485186" x2="175.64356435643603" y1="213.22546125129844" y2="213.17653390800066" style="stroke: red;"></line><line x1="175.64356435643603" x2="179.8019801980202" y1="213.17653390800066" y2="213.10837517141366" style="stroke: red;"></line><line x1="179.8019801980202" x2="183.96039603960435" y1="213.10837517141366" y2="213.01478090093173" style="stroke: red;"></line><line x1="183.96039603960435" x2="188.11881188118855" y1="213.01478090093173" y2="212.88810583558254" style="stroke: red;"></line><line x1="188.11881188118855" x2="192.27722772277275" y1="212.88810583558254" y2="212.71914025900273" style="stroke: red;"></line><line x1="192.27722772277275" x2="196.4356435643569" y1="212.71914025900273" y2="212.49705714013484" style="stroke: red;"></line><line x1="196.4356435643569" x2="200.59405940594107" y1="212.49705714013484" y2="212.2094624112588" style="stroke: red;"></line><line x1="200.59405940594107" x2="204.75247524752524" y1="212.2094624112588" y2="211.84258264449386" style="stroke: red;"></line><line x1="204.75247524752524" x2="208.91089108910944" y1="211.84258264449386" y2="211.381622444339" style="stroke: red;"></line><line x1="208.91089108910944" x2="213.0693069306936" y1="211.381622444339" y2="210.81131735223218" style="stroke: red;"></line><line x1="213.0693069306936" x2="217.22772277227776" y1="210.81131735223218" y2="210.11669623931112" style="stroke: red;"></line><line x1="217.22772277227776" x2="221.38613861386196" y1="210.11669623931112" y2="209.28404986733167" style="stroke: red;"></line><line x1="221.38613861386196" x2="225.54455445544613" y1="209.28404986733167" y2="208.3020800968713" style="stroke: red;"></line><line x1="225.54455445544613" x2="229.7029702970303" y1="208.3020800968713" y2="207.1631785813053" style="stroke: red;"></line><line x1="229.7029702970303" x2="233.86138613861448" y1="207.1631785813053" y2="205.86475709255782" style="stroke: red;"></line><line x1="233.86138613861448" x2="238.01980198019865" y1="205.86475709255782" y2="204.41052706994455" style="stroke: red;"></line><line x1="238.01980198019865" x2="242.17821782178282" y1="204.41052706994455" y2="202.81160726501363" style="stroke: red;"></line><line x1="242.17821782178282" x2="246.336633663367" y1="202.81160726501363" y2="201.0873292256614" style="stroke: red;"></line><line x1="246.336633663367" x2="250.49504950495117" y1="201.0873292256614" y2="199.26561405578795" style="stroke: red;"></line><line x1="250.49504950495117" x2="254.65346534653534" y1="199.26561405578795" y2="197.38281250479918" style="stroke: red;"></line><line x1="254.65346534653534" x2="258.8118811881195" y1="197.38281250479918" y2="195.48293440568213" style="stroke: red;"></line><line x1="258.8118811881195" x2="262.9702970297037" y1="195.48293440568213" y2="193.61624115680948" style="stroke: red;"></line><line x1="262.9702970297037" x2="267.12871287128786" y1="193.61624115680948" y2="191.83723254114147" style="stroke: red;"></line><line x1="267.12871287128786" x2="271.28712871287206" y1="191.83723254114147" y2="190.20212099072188" style="stroke: red;"></line><line x1="271.28712871287206" x2="275.4455445544562" y1="190.20212099072188" y2="188.76594539931045" style="stroke: red;"></line><line x1="275.4455445544562" x2="279.6039603960404" y1="188.76594539931045" y2="187.57952527944818" style="stroke: red;"></line><line x1="279.6039603960404" x2="283.7623762376246" y1="187.57952527944818" y2="186.6864875799823" style="stroke: red;"></line><line x1="283.7623762376246" x2="287.9207920792087" y1="186.6864875799823" y2="186.12060763219284" style="stroke: red;"></line><line x1="287.9207920792087" x2="292.0792079207929" y1="186.12060763219284" y2="185.9036898575168" style="stroke: red;"></line><line x1="292.0792079207929" x2="296.2376237623771" y1="185.9036898575168" y2="186.04417355753674" style="stroke: red;"></line><line x1="296.2376237623771" x2="300.3960396039613" y1="186.04417355753674" y2="186.5365880542282" style="stroke: red;"></line><line x1="300.3960396039613" x2="304.5544554455455" y1="186.5365880542282" y2="187.36190621634964" style="stroke: red;"></line><line x1="304.5544554455455" x2="308.71287128712964" y1="187.36190621634964" y2="188.48876452617233" style="stroke: red;"></line><line x1="308.71287128712964" x2="312.8712871287138" y1="188.48876452617233" y2="189.87544063149463" style="stroke: red;"></line><line x1="312.8712871287138" x2="317.029702970298" y1="189.87544063149463" y2="191.47241459767127" style="stroke: red;"></line><line x1="317.029702970298" x2="321.18811881188213" y1="191.47241459767127" y2="193.2252948920309" style="stroke: red;"></line><line x1="321.18811881188213" x2="325.34653465346634" y1="193.2252948920309" y2="195.07786889192082" style="stroke: red;"></line><line x1="325.34653465346634" x2="329.5049504950505" y1="195.07786889192082" y2="196.97504161884578" style="stroke: red;"></line><line x1="329.5049504950505" x2="333.6633663366347" y1="196.97504161884578" y2="198.8654534840139" style="stroke: red;"></line><line x1="333.6633663366347" x2="337.8217821782189" y1="198.8654534840139" y2="200.70361337723972" style="stroke: red;"></line><line x1="337.8217821782189" x2="341.980198019803" y1="200.70361337723972" y2="202.45144084246152" style="stroke: red;"></line><line x1="341.980198019803" x2="346.1386138613872" y1="202.45144084246152" y2="204.07917291557192" style="stroke: red;"></line><line x1="346.1386138613872" x2="350.2970297029714" y1="204.07917291557192" y2="205.56565024046208" style="stroke: red;"></line><line x1="350.2970297029714" x2="354.4554455445555" y1="205.56565024046208" y2="206.89804727491452" style="stroke: red;"></line><line x1="354.4554455445555" x2="358.6138613861397" y1="206.89804727491452" y2="208.07114851587832" style="stroke: red;"></line><line x1="358.6138613861397" x2="362.7722772277239" y1="208.07114851587832" y2="209.08629461443647" style="stroke: red;"></line><line x1="362.7722772277239" x2="366.93069306930806" y1="209.08629461443647" y2="209.95012901828557" style="stroke: red;"></line><line x1="366.93069306930806" x2="371.08910891089226" y1="209.95012901828557" y2="210.6732691576176" style="stroke: red;"></line><line x1="371.08910891089226" x2="375.2475247524764" y1="210.6732691576176" y2="211.26900922120618" style="stroke: red;"></line><line x1="375.2475247524764" x2="379.4059405940606" y1="211.26900922120618" y2="211.7521379455035" style="stroke: red;"></line><line x1="379.4059405940606" x2="383.56435643564475" y1="211.7521379455035" y2="212.13792831396842" style="stroke: red;"></line><line x1="383.56435643564475" x2="387.72277227722896" y1="212.13792831396842" y2="212.44132996603537" style="stroke: red;"></line><line x1="387.72277227722896" x2="391.88118811881316" y1="212.44132996603537" y2="212.67637202100437" style="stroke: red;"></line><line x1="391.88118811881316" x2="396.0396039603973" y1="212.67637202100437" y2="212.85576559664943" style="stroke: red;"></line><line x1="396.0396039603973" x2="400.19801980198145" y1="212.85576559664943" y2="212.99068230000645" style="stroke: red;"></line><line x1="400.19801980198145" x2="404.35643564356565" y1="212.99068230000645" y2="213.09067735525068" style="stroke: red;"></line><line x1="404.35643564356565" x2="408.51485148514985" y1="213.09067735525068" y2="213.16372318775103" style="stroke: red;"></line><line x1="408.51485148514985" x2="412.673267326734" y1="213.16372318775103" y2="213.21632021818635" style="stroke: red;"></line><line x1="412.673267326734" x2="416.8316831683182" y1="213.21632021818635" y2="213.25365520231503" style="stroke: red;"></line><line x1="416.8316831683182" x2="420.99009900990234" y1="213.25365520231503" y2="213.2797825758806" style="stroke: red;"></line><line x1="420.99009900990234" x2="425.1485148514865" y1="213.2797825758806" y2="213.29780997796792" style="stroke: red;"></line><line x1="425.1485148514865" x2="429.3069306930707" y1="213.29780997796792" y2="213.31007469822623" style="stroke: red;"></line><line x1="429.3069306930707" x2="433.4653465346549" y1="213.31007469822623" y2="213.31830273210514" style="stroke: red;"></line><line x1="433.4653465346549" x2="437.6237623762391" y1="213.31830273210514" y2="213.3237461647771" style="stroke: red;"></line><line x1="437.6237623762391" x2="441.78217821782323" y1="213.3237461647771" y2="213.3272976526463" style="stroke: red;"></line><line x1="441.78217821782323" x2="445.9405940594074" y1="213.3272976526463" y2="213.32958287771046" style="stroke: red;"></line><line x1="445.9405940594074" x2="450.0990099009916" y1="213.32958287771046" y2="213.33103314344996" style="stroke: red;"></line><line x1="450.0990099009916" x2="454.2574257425757" y1="213.33103314344996" y2="213.33194092943796" style="stroke: red;"></line><line x1="454.2574257425757" x2="458.4158415841599" y1="213.33194092943796" y2="213.3325013997565" style="stroke: red;"></line><line x1="458.4158415841599" x2="462.5742574257441" y1="213.3325013997565" y2="213.3328427260869" style="stroke: red;"></line><line x1="462.5742574257441" x2="466.7326732673283" y1="213.3328427260869" y2="213.333047770852" style="stroke: red;"></line><line x1="466.7326732673283" x2="470.89108910891247" y1="213.333047770852" y2="213.33316927805123" style="stroke: red;"></line><line x1="470.89108910891247" x2="475.0495049504966" y1="213.33316927805123" y2="213.33324030801356" style="stroke: red;"></line><line x1="475.0495049504966" x2="479.2079207920808" y1="213.33324030801356" y2="213.33328126975573" style="stroke: red;"></line><line x1="479.2079207920808" x2="483.36633663366496" y1="213.33328126975573" y2="213.3333045733436" style="stroke: red;"></line><line x1="483.36633663366496" x2="487.52475247524916" y1="213.3333045733436" y2="213.3333176526376" style="stroke: red;"></line><line x1="487.52475247524916" x2="491.6831683168333" y1="213.3333176526376" y2="213.33332489486136" style="stroke: red;"></line><line x1="491.6831683168333" x2="495.84158415841745" y1="213.33332489486136" y2="213.33332885120612" style="stroke: red;"></line><text x="520" y="280" style="font-size: 12px; font-family: sans-seirf; stroke: rgb(255, 69, 0); text-anchor: start;">B</text><rect class="bar" x="80" width="26.25" height="0" y="346.6666666666667" style="fill: rgb(255, 69, 0); stroke: black; stroke-width: 1px;"></rect><rect class="bar" x="106.24999999999999" width="26.25" height="0" y="346.6666666666667" style="fill: rgb(255, 69, 0); stroke: black; stroke-width: 1px;"></rect><rect class="bar" x="132.49999999999997" width="26.25" height="0" y="346.6666666666667" style="fill: rgb(255, 69, 0); stroke: black; stroke-width: 1px;"></rect><rect class="bar" x="158.75" width="26.25" height="0" y="346.6666666666667" style="fill: rgb(255, 69, 0); stroke: black; stroke-width: 1px;"></rect><rect class="bar" x="185" width="26.25" height="31.754851682676204" y="314.9118149839905" style="fill: rgb(255, 69, 0); stroke: black; stroke-width: 1px;"></rect><rect class="bar" x="211.24999999999997" width="26.25" height="31.754851682676204" y="314.9118149839905" style="fill: rgb(255, 69, 0); stroke: black; stroke-width: 1px;"></rect><rect class="bar" x="237.50000000000003" width="26.25" height="0" y="346.6666666666667" style="fill: rgb(255, 69, 0); stroke: black; stroke-width: 1px;"></rect><rect class="bar" x="263.75" width="26.25" height="31.754851682676204" y="314.9118149839905" style="fill: rgb(255, 69, 0); stroke: black; stroke-width: 1px;"></rect><rect class="bar" x="290" width="26.25" height="0" y="346.6666666666667" style="fill: rgb(255, 69, 0); stroke: black; stroke-width: 1px;"></rect><rect class="bar" x="316.2499999999999" width="26.25" height="0" y="346.6666666666667" style="fill: rgb(255, 69, 0); stroke: black; stroke-width: 1px;"></rect><rect class="bar" x="342.49999999999994" width="26.25" height="0" y="346.6666666666667" style="fill: rgb(255, 69, 0); stroke: black; stroke-width: 1px;"></rect><rect class="bar" x="368.75" width="26.25" height="0" y="346.6666666666667" style="fill: rgb(255, 69, 0); stroke: black; stroke-width: 1px;"></rect><rect class="bar" x="395.00000000000006" width="26.25" height="0" y="346.6666666666667" style="fill: rgb(255, 69, 0); stroke: black; stroke-width: 1px;"></rect><rect class="bar" x="421.25" width="26.25" height="0" y="346.6666666666667" style="fill: rgb(255, 69, 0); stroke: black; stroke-width: 1px;"></rect><rect class="bar" x="447.50000000000006" width="26.25" height="0" y="346.6666666666667" style="fill: rgb(255, 69, 0); stroke: black; stroke-width: 1px;"></rect><rect class="bar" x="473.74999999999994" width="26.25" height="0" y="346.6666666666667" style="fill: rgb(255, 69, 0); stroke: black; stroke-width: 1px;"></rect><line x1="233.60257109453894" y1="228.14814814814815" x2="233.60257109453894" y2="351.6666666666667" style="stroke: red;"></line><text x="233.60257109453894" y="358.6666666666667" style="stroke: red; text-anchor: middle; font-family: sans-serif; font-size: 7pt;">Mean=58.00</text><text x="313.6025710945389" y="358.6666666666667" style="stroke: red; text-anchor: middle; font-family: sans-serif; font-size: 7pt;">Std Dev=4.36</text><line x1="80" x2="84.15841584158417" y1="346.6624130254382" y2="346.65987417750057" style="stroke: red;"></line><line x1="84.15841584158417" x2="88.31683168316835" y1="346.65987417750057" y2="346.65595841546127" style="stroke: red;"></line><line x1="88.31683168316835" x2="92.47524752475252" y1="346.65595841546127" y2="346.650000733118" style="stroke: red;"></line><line x1="92.47524752475252" x2="96.6336633663367" y1="346.650000733118" y2="346.64105945804795" style="stroke: red;"></line><line x1="96.6336633663367" x2="100.79207920792088" y1="346.64105945804795" y2="346.62782334760885" style="stroke: red;"></line><line x1="100.79207920792088" x2="104.95049504950505" y1="346.62782334760885" y2="346.6084976230639" style="stroke: red;"></line><line x1="104.95049504950505" x2="109.10891089108922" y1="346.6084976230639" y2="346.58066853558415" style="stroke: red;"></line><line x1="109.10891089108922" x2="113.26732673267341" y1="346.58066853558415" y2="346.5411482067721" style="stroke: red;"></line><line x1="113.26732673267341" x2="117.42574257425758" y1="346.5411482067721" y2="346.48580451669034" style="stroke: red;"></line><line x1="117.42574257425758" x2="121.58415841584176" y1="346.48580451669034" y2="346.409384742447" style="stroke: red;"></line><line x1="121.58415841584176" x2="125.74257425742593" y1="346.409384742447" y2="346.3053463685265" style="stroke: red;"></line><line x1="125.74257425742593" x2="129.9009900990101" y1="346.3053463685265" y2="346.1657137109671" style="stroke: red;"></line><line x1="129.9009900990101" x2="134.05940594059427" y1="346.1657137109671" y2="345.9809842298785" style="stroke: red;"></line><line x1="134.05940594059427" x2="138.21782178217845" y1="345.9809842298785" y2="345.7401129417271" style="stroke: red;"></line><line x1="138.21782178217845" x2="142.37623762376262" y1="345.7401129417271" y2="345.430606286955" style="stroke: red;"></line><line x1="142.37623762376262" x2="146.53465346534682" y1="345.430606286955" y2="345.0387571419796" style="stroke: red;"></line><line x1="146.53465346534682" x2="150.69306930693097" y1="345.0387571419796" y2="344.5500493682574" style="stroke: red;"></line><line x1="150.69306930693097" x2="154.85148514851517" y1="344.5500493682574" y2="343.949752509268" style="stroke: red;"></line><line x1="154.85148514851517" x2="159.0099009900993" y1="343.949752509268" y2="343.2237144827783" style="stroke: red;"></line><line x1="159.0099009900993" x2="163.1683168316835" y1="343.2237144827783" y2="342.3593424348348" style="stroke: red;"></line><line x1="163.1683168316835" x2="167.32673267326766" y1="342.3593424348348" y2="341.3467401179611" style="stroke: red;"></line><line x1="167.32673267326766" x2="171.48514851485186" y1="341.3467401179611" y2="340.1799458503897" style="stroke: red;"></line><line x1="171.48514851485186" x2="175.64356435643603" y1="340.1799458503897" y2="338.8581907379924" style="stroke: red;"></line><line x1="175.64356435643603" x2="179.8019801980202" y1="338.8581907379924" y2="337.3870754800722" style="stroke: red;"></line><line x1="179.8019801980202" x2="183.96039603960435" y1="337.3870754800722" y2="335.77954915973373" style="stroke: red;"></line><line x1="183.96039603960435" x2="188.11881188118855" y1="335.77954915973373" y2="334.0565682606492" style="stroke: red;"></line><line x1="188.11881188118855" x2="192.27722772277275" y1="334.0565682606492" y2="332.24732144140967" style="stroke: red;"></line><line x1="192.27722772277275" x2="196.4356435643569" y1="332.24732144140967" y2="330.38892684776414" style="stroke: red;"></line><line x1="196.4356435643569" x2="200.59405940594107" y1="330.38892684776414" y2="328.52554383271115" style="stroke: red;"></line><line x1="200.59405940594107" x2="204.75247524752524" y1="328.52554383271115" y2="326.7068878614861" style="stroke: red;"></line><line x1="204.75247524752524" x2="208.91089108910944" y1="326.7068878614861" y2="324.98619216564487" style="stroke: red;"></line><line x1="208.91089108910944" x2="213.0693069306936" y1="324.98619216564487" y2="323.41771682332904" style="stroke: red;"></line><line x1="213.0693069306936" x2="217.22772277227776" y1="323.41771682332904" y2="322.05395880892183" style="stroke: red;"></line><line x1="217.22772277227776" x2="221.38613861386196" y1="322.05395880892183" y2="320.94275842133754" style="stroke: red;"></line><line x1="221.38613861386196" x2="225.54455445544613" y1="320.94275842133754" y2="320.1245223924845" style="stroke: red;"></line><line x1="225.54455445544613" x2="229.7029702970303" y1="320.1245223924845" y2="319.6297876348466" style="stroke: red;"></line><line x1="229.7029702970303" x2="233.86138613861448" y1="319.6297876348466" y2="319.47733020529904" style="stroke: red;"></line><line x1="233.86138613861448" x2="238.01980198019865" y1="319.47733020529904" y2="319.6729827093426" style="stroke: red;"></line><line x1="238.01980198019865" x2="242.17821782178282" y1="319.6729827093426" y2="320.20926398277265" style="stroke: red;"></line><line x1="242.17821782178282" x2="246.336633663367" y1="320.20926398277265" y2="321.06585382787637" style="stroke: red;"></line><line x1="246.336633663367" x2="250.49504950495117" y1="321.06585382787637" y2="322.21087080709475" style="stroke: red;"></line><line x1="250.49504950495117" x2="254.65346534653534" y1="322.21087080709475" y2="323.6028410794598" style="stroke: red;"></line><line x1="254.65346534653534" x2="258.8118811881195" y1="323.6028410794598" y2="325.19318881912204" style="stroke: red;"></line><line x1="258.8118811881195" x2="262.9702970297037" y1="325.19318881912204" y2="326.92903997883235" style="stroke: red;"></line><line x1="262.9702970297037" x2="267.12871287128786" y1="326.92903997883235" y2="328.756114649525" style="stroke: red;"></line><line x1="267.12871287128786" x2="271.28712871287206" y1="328.756114649525" y2="330.6214897218762" style="stroke: red;"></line><line x1="271.28712871287206" x2="275.4455445544562" y1="330.6214897218762" y2="332.47604083623486" style="stroke: red;"></line><line x1="275.4455445544562" x2="279.6039603960404" y1="332.47604083623486" y2="334.27641619342387" style="stroke: red;"></line><line x1="279.6039603960404" x2="283.7623762376246" y1="334.27641619342387" y2="335.98644856693494" style="stroke: red;"></line><line x1="283.7623762376246" x2="287.9207920792087" y1="335.98644856693494" y2="337.5779690250091" style="stroke: red;"></line><line x1="287.9207920792087" x2="292.0792079207929" y1="337.5779690250091" y2="339.03103995157164" style="stroke: red;"></line><line x1="292.0792079207929" x2="296.2376237623771" y1="339.03103995157164" y2="340.33367056808225" style="stroke: red;"></line><line x1="296.2376237623771" x2="300.3960396039613" y1="340.33367056808225" y2="341.4811115952385" style="stroke: red;"></line><line x1="300.3960396039613" x2="304.5544554455455" y1="341.4811115952385" y2="342.47484517456166" style="stroke: red;"></line><line x1="304.5544554455455" x2="308.71287128712964" y1="342.47484517456166" y2="343.3213917984641" style="stroke: red;"></line><line x1="308.71287128712964" x2="312.8712871287138" y1="343.3213917984641" y2="344.0310494587212" style="stroke: red;"></line><line x1="312.8712871287138" x2="317.029702970298" y1="344.0310494587212" y2="344.6166643132059" style="stroke: red;"></line><line x1="317.029702970298" x2="321.18811881188213" y1="344.6166643132059" y2="345.09251025151434" style="stroke: red;"></line><line x1="321.18811881188213" x2="325.34653465346634" y1="345.09251025151434" y2="345.47333021648785" style="stroke: red;"></line><line x1="325.34653465346634" x2="329.5049504950505" y1="345.47333021648785" y2="345.7735680275193" style="stroke: red;"></line><line x1="329.5049504950505" x2="333.6633663366347" y1="345.7735680275193" y2="346.00679808970773" style="stroke: red;"></line><line x1="333.6633663366347" x2="337.8217821782189" y1="346.00679808970773" y2="346.18534327705106" style="stroke: red;"></line><line x1="337.8217821782189" x2="341.980198019803" y1="346.18534327705106" y2="346.3200591442619" style="stroke: red;"></line><line x1="341.980198019803" x2="346.1386138613872" y1="346.3200591442619" y2="346.4202554346431" style="stroke: red;"></line><line x1="346.1386138613872" x2="350.2970297029714" y1="346.4202554346431" y2="346.49372305869457" style="stroke: red;"></line><line x1="350.2970297029714" x2="354.4554455445555" y1="346.49372305869457" y2="346.54683543348796" style="stroke: red;"></line><line x1="354.4554455445555" x2="358.6138613861397" y1="346.54683543348796" y2="346.58469626919685" style="stroke: red;"></line><line x1="358.6138613861397" x2="362.7722772277239" y1="346.58469626919685" y2="346.6113105581551" style="stroke: red;"></line><line x1="362.7722772277239" x2="366.93069306930806" y1="346.6113105581551" y2="346.62976078697153" style="stroke: red;"></line><line x1="366.93069306930806" x2="371.08910891089226" y1="346.62976078697153" y2="346.6423755729162" style="stroke: red;"></line><line x1="371.08910891089226" x2="375.2475247524764" y1="346.6423755729162" y2="346.65088255745127" style="stroke: red;"></line><line x1="375.2475247524764" x2="379.4059405940606" y1="346.65088255745127" y2="346.65654121084515" style="stroke: red;"></line><line x1="379.4059405940606" x2="383.56435643564475" y1="346.65654121084515" y2="346.66025411927626" style="stroke: red;"></line><line x1="383.56435643564475" x2="387.72277227722896" y1="346.66025411927626" y2="346.66265737094153" style="stroke: red;"></line><line x1="387.72277227722896" x2="391.88118811881316" y1="346.66265737094153" y2="346.66419194082755" style="stroke: red;"></line><line x1="391.88118811881316" x2="396.0396039603973" y1="346.66419194082755" y2="346.66515864495756" style="stroke: red;"></line><line x1="396.0396039603973" x2="400.19801980198145" y1="346.66515864495756" y2="346.6657594529813" style="stroke: red;"></line><line x1="400.19801980198145" x2="404.35643564356565" y1="346.6657594529813" y2="346.6661278598382" style="stroke: red;"></line><line x1="404.35643564356565" x2="408.51485148514985" y1="346.6661278598382" y2="346.6663507459632" style="stroke: red;"></line><line x1="408.51485148514985" x2="412.673267326734" y1="346.6663507459632" y2="346.66648379577464" style="stroke: red;"></line><line x1="412.673267326734" x2="416.8316831683182" y1="346.66648379577464" y2="346.6665621627476" style="stroke: red;"></line><line x1="416.8316831683182" x2="420.99009900990234" y1="346.6665621627476" y2="346.66660770875797" style="stroke: red;"></line><line x1="420.99009900990234" x2="425.1485148514865" y1="346.66660770875797" y2="346.66663382894166" style="stroke: red;"></line><line x1="425.1485148514865" x2="429.3069306930707" y1="346.66663382894166" y2="346.66664861050015" style="stroke: red;"></line><line x1="429.3069306930707" x2="433.4653465346549" y1="346.66664861050015" y2="346.66665686500875" style="stroke: red;"></line><line x1="433.4653465346549" x2="437.6237623762391" y1="346.66665686500875" y2="346.6666614138163" style="stroke: red;"></line><line x1="437.6237623762391" x2="441.78217821782323" y1="346.6666614138163" y2="346.6666638875165" style="stroke: red;"></line><line x1="441.78217821782323" x2="445.9405940594074" y1="346.6666638875165" y2="346.6666652150549" style="stroke: red;"></line><line x1="445.9405940594074" x2="450.0990099009916" y1="346.6666652150549" y2="346.66666591813447" style="stroke: red;"></line><line x1="450.0990099009916" x2="454.2574257425757" y1="346.66666591813447" y2="346.6666662856079" style="stroke: red;"></line><line x1="454.2574257425757" x2="458.4158415841599" y1="346.6666662856079" y2="346.6666664751551" style="stroke: red;"></line><line x1="458.4158415841599" x2="462.5742574257441" y1="346.6666664751551" y2="346.66666657164575" style="stroke: red;"></line><line x1="462.5742574257441" x2="466.7326732673283" y1="346.66666657164575" y2="346.6666666201225" style="stroke: red;"></line><line x1="466.7326732673283" x2="470.89108910891247" y1="346.6666666201225" y2="346.6666666441589" style="stroke: red;"></line><line x1="470.89108910891247" x2="475.0495049504966" y1="346.6666666441589" y2="346.6666666559213" style="stroke: red;"></line><line x1="475.0495049504966" x2="479.2079207920808" y1="346.6666666559213" y2="346.6666666616022" style="stroke: red;"></line><line x1="479.2079207920808" x2="483.36633663366496" y1="346.6666666616022" y2="346.6666666643102" style="stroke: red;"></line><line x1="483.36633663366496" x2="487.52475247524916" y1="346.6666666643102" y2="346.6666666655842" style="stroke: red;"></line><line x1="487.52475247524916" x2="491.6831683168333" y1="346.6666666655842" y2="346.6666666661758" style="stroke: red;"></line><line x1="491.6831683168333" x2="495.84158415841745" y1="346.6666666661758" y2="346.66666666644693" style="stroke: red;"></line><text x="520" y="413.33333333333337" style="font-size: 12px; font-family: sans-seirf; stroke: rgb(0, 170, 0); text-anchor: start;">C</text><rect class="bar" x="80" width="26.25" height="0" y="480" style="fill: rgb(0, 170, 0); stroke: black; stroke-width: 1px;"></rect><rect class="bar" x="106.24999999999999" width="26.25" height="0" y="480" style="fill: rgb(0, 170, 0); stroke: black; stroke-width: 1px;"></rect><rect class="bar" x="132.49999999999997" width="26.25" height="0" y="480" style="fill: rgb(0, 170, 0); stroke: black; stroke-width: 1px;"></rect><rect class="bar" x="158.75" width="26.25" height="0" y="480" style="fill: rgb(0, 170, 0); stroke: black; stroke-width: 1px;"></rect><rect class="bar" x="185" width="26.25" height="0" y="480" style="fill: rgb(0, 170, 0); stroke: black; stroke-width: 1px;"></rect><rect class="bar" x="211.24999999999997" width="26.25" height="0" y="480" style="fill: rgb(0, 170, 0); stroke: black; stroke-width: 1px;"></rect><rect class="bar" x="237.50000000000003" width="26.25" height="0" y="480" style="fill: rgb(0, 170, 0); stroke: black; stroke-width: 1px;"></rect><rect class="bar" x="263.75" width="26.25" height="0" y="480" style="fill: rgb(0, 170, 0); stroke: black; stroke-width: 1px;"></rect><rect class="bar" x="290" width="26.25" height="0" y="480" style="fill: rgb(0, 170, 0); stroke: black; stroke-width: 1px;"></rect><rect class="bar" x="316.2499999999999" width="26.25" height="31.754851682676204" y="448.2451483173238" style="fill: rgb(0, 170, 0); stroke: black; stroke-width: 1px;"></rect><rect class="bar" x="342.49999999999994" width="26.25" height="63.50970336535241" y="416.4902966346476" style="fill: rgb(0, 170, 0); stroke: black; stroke-width: 1px;"></rect><rect class="bar" x="368.75" width="26.25" height="0" y="480" style="fill: rgb(0, 170, 0); stroke: black; stroke-width: 1px;"></rect><rect class="bar" x="395.00000000000006" width="26.25" height="0" y="480" style="fill: rgb(0, 170, 0); stroke: black; stroke-width: 1px;"></rect><rect class="bar" x="421.25" width="26.25" height="0" y="480" style="fill: rgb(0, 170, 0); stroke: black; stroke-width: 1px;"></rect><rect class="bar" x="447.50000000000006" width="26.25" height="0" y="480" style="fill: rgb(0, 170, 0); stroke: black; stroke-width: 1px;"></rect><rect class="bar" x="473.74999999999994" width="26.25" height="0" y="480" style="fill: rgb(0, 170, 0); stroke: black; stroke-width: 1px;"></rect><line x1="343.0304182245379" y1="361.48148148148147" x2="343.0304182245379" y2="485" style="stroke: red;"></line><text x="343.0304182245379" y="492" style="stroke: red; text-anchor: middle; font-family: sans-serif; font-size: 7pt;">Mean=71.00</text><text x="423.0304182245379" y="492" style="stroke: red; text-anchor: middle; font-family: sans-serif; font-size: 7pt;">Std Dev=1.00</text><line x1="80" x2="84.15841584158417" y1="480" y2="480" style="stroke: red;"></line><line x1="84.15841584158417" x2="88.31683168316835" y1="480" y2="480" style="stroke: red;"></line><line x1="88.31683168316835" x2="92.47524752475252" y1="480" y2="480" style="stroke: red;"></line><line x1="92.47524752475252" x2="96.6336633663367" y1="480" y2="480" style="stroke: red;"></line><line x1="96.6336633663367" x2="100.79207920792088" y1="480" y2="480" style="stroke: red;"></line><line x1="100.79207920792088" x2="104.95049504950505" y1="480" y2="480" style="stroke: red;"></line><line x1="104.95049504950505" x2="109.10891089108922" y1="480" y2="480" style="stroke: red;"></line><line x1="109.10891089108922" x2="113.26732673267341" y1="480" y2="480" style="stroke: red;"></line><line x1="113.26732673267341" x2="117.42574257425758" y1="480" y2="480" style="stroke: red;"></line><line x1="117.42574257425758" x2="121.58415841584176" y1="480" y2="480" style="stroke: red;"></line><line x1="121.58415841584176" x2="125.74257425742593" y1="480" y2="480" style="stroke: red;"></line><line x1="125.74257425742593" x2="129.9009900990101" y1="480" y2="480" style="stroke: red;"></line><line x1="129.9009900990101" x2="134.05940594059427" y1="480" y2="480" style="stroke: red;"></line><line x1="134.05940594059427" x2="138.21782178217845" y1="480" y2="480" style="stroke: red;"></line><line x1="138.21782178217845" x2="142.37623762376262" y1="480" y2="480" style="stroke: red;"></line><line x1="142.37623762376262" x2="146.53465346534682" y1="480" y2="480" style="stroke: red;"></line><line x1="146.53465346534682" x2="150.69306930693097" y1="480" y2="480" style="stroke: red;"></line><line x1="150.69306930693097" x2="154.85148514851517" y1="480" y2="480" style="stroke: red;"></line><line x1="154.85148514851517" x2="159.0099009900993" y1="480" y2="480" style="stroke: red;"></line><line x1="159.0099009900993" x2="163.1683168316835" y1="480" y2="480" style="stroke: red;"></line><line x1="163.1683168316835" x2="167.32673267326766" y1="480" y2="480" style="stroke: red;"></line><line x1="167.32673267326766" x2="171.48514851485186" y1="480" y2="480" style="stroke: red;"></line><line x1="171.48514851485186" x2="175.64356435643603" y1="480" y2="480" style="stroke: red;"></line><line x1="175.64356435643603" x2="179.8019801980202" y1="480" y2="480" style="stroke: red;"></line><line x1="179.8019801980202" x2="183.96039603960435" y1="480" y2="480" style="stroke: red;"></line><line x1="183.96039603960435" x2="188.11881188118855" y1="480" y2="480" style="stroke: red;"></line><line x1="188.11881188118855" x2="192.27722772277275" y1="480" y2="480" style="stroke: red;"></line><line x1="192.27722772277275" x2="196.4356435643569" y1="480" y2="480" style="stroke: red;"></line><line x1="196.4356435643569" x2="200.59405940594107" y1="480" y2="480" style="stroke: red;"></line><line x1="200.59405940594107" x2="204.75247524752524" y1="480" y2="480" style="stroke: red;"></line><line x1="204.75247524752524" x2="208.91089108910944" y1="480" y2="480" style="stroke: red;"></line><line x1="208.91089108910944" x2="213.0693069306936" y1="480" y2="480" style="stroke: red;"></line><line x1="213.0693069306936" x2="217.22772277227776" y1="480" y2="480" style="stroke: red;"></line><line x1="217.22772277227776" x2="221.38613861386196" y1="480" y2="480" style="stroke: red;"></line><line x1="221.38613861386196" x2="225.54455445544613" y1="480" y2="480" style="stroke: red;"></line><line x1="225.54455445544613" x2="229.7029702970303" y1="480" y2="480" style="stroke: red;"></line><line x1="229.7029702970303" x2="233.86138613861448" y1="480" y2="480" style="stroke: red;"></line><line x1="233.86138613861448" x2="238.01980198019865" y1="480" y2="480" style="stroke: red;"></line><line x1="238.01980198019865" x2="242.17821782178282" y1="480" y2="480" style="stroke: red;"></line><line x1="242.17821782178282" x2="246.336633663367" y1="480" y2="480" style="stroke: red;"></line><line x1="246.336633663367" x2="250.49504950495117" y1="480" y2="480" style="stroke: red;"></line><line x1="250.49504950495117" x2="254.65346534653534" y1="480" y2="480" style="stroke: red;"></line><line x1="254.65346534653534" x2="258.8118811881195" y1="480" y2="480" style="stroke: red;"></line><line x1="258.8118811881195" x2="262.9702970297037" y1="480" y2="480" style="stroke: red;"></line><line x1="262.9702970297037" x2="267.12871287128786" y1="480" y2="480" style="stroke: red;"></line><line x1="267.12871287128786" x2="271.28712871287206" y1="480" y2="480" style="stroke: red;"></line><line x1="271.28712871287206" x2="275.4455445544562" y1="480" y2="479.9999999999988" style="stroke: red;"></line><line x1="275.4455445544562" x2="279.6039603960404" y1="479.9999999999988" y2="479.9999999999444" style="stroke: red;"></line><line x1="279.6039603960404" x2="283.7623762376246" y1="479.9999999999444" y2="479.9999999979654" style="stroke: red;"></line><line x1="283.7623762376246" x2="287.9207920792087" y1="479.9999999979654" y2="479.9999999416377" style="stroke: red;"></line><line x1="287.9207920792087" x2="292.0792079207929" y1="479.9999999416377" y2="479.9999986884207" style="stroke: red;"></line><line x1="292.0792079207929" x2="296.2376237623771" y1="479.9999986884207" y2="479.99997690778724" style="stroke: red;"></line><line x1="296.2376237623771" x2="300.3960396039613" y1="479.99997690778724" y2="479.99968147389507" style="stroke: red;"></line><line x1="300.3960396039613" x2="304.5544554455455" y1="479.99968147389507" y2="479.9965578246758" style="stroke: red;"></line><line x1="304.5544554455455" x2="308.71287128712964" y1="479.9965578246758" y2="479.97085732463864" style="stroke: red;"></line><line x1="308.71287128712964" x2="312.8712871287138" y1="479.97085732463864" y2="479.806698900034" style="stroke: red;"></line><line x1="312.8712871287138" x2="317.029702970298" y1="479.806698900034" y2="478.9955051656952" style="stroke: red;"></line><line x1="317.029702970298" x2="321.18811881188213" y1="478.9955051656952" y2="475.9105060930134" style="stroke: red;"></line><line x1="321.18811881188213" x2="325.34653465346634" y1="475.9105060930134" y2="466.95632712040987" style="stroke: red;"></line><line x1="325.34653465346634" x2="329.5049504950505" y1="466.95632712040987" y2="447.40592149141634" style="stroke: red;"></line><line x1="329.5049504950505" x2="333.6633663366347" y1="447.40592149141634" y2="416.19040453235664" style="stroke: red;"></line><line x1="333.6633663366347" x2="337.8217821782189" y1="416.19040453235664" y2="382.131766193891" style="stroke: red;"></line><line x1="337.8217821782189" x2="341.980198019803" y1="382.131766193891" y2="362.40036176616957" style="stroke: red;"></line><line x1="341.980198019803" x2="346.1386138613872" y1="362.40036176616957" y2="369.2920787652434" style="stroke: red;"></line><line x1="346.1386138613872" x2="350.2970297029714" y1="369.2920787652434" y2="398.3493057308086" style="stroke: red;"></line><line x1="350.2970297029714" x2="354.4554455445555" y1="398.3493057308086" y2="432.8209118259294" style="stroke: red;"></line><line x1="354.4554455445555" x2="358.6138613861397" y1="432.8209118259294" y2="458.6426345167963" style="stroke: red;"></line><line x1="358.6138613861397" x2="362.7722772277239" y1="458.6426345167963" y2="472.42549438704015" style="stroke: red;"></line><line x1="362.7722772277239" x2="366.93069306930806" y1="472.42549438704015" y2="477.89540090533427" style="stroke: red;"></line><line x1="366.93069306930806" x2="371.08910891089226" y1="477.89540090533427" y2="479.5418655586146" style="stroke: red;"></line><line x1="371.08910891089226" x2="375.2475247524764" y1="479.5418655586146" y2="479.9218687125821" style="stroke: red;"></line><line x1="375.2475247524764" x2="379.4059405940606" y1="479.9218687125821" y2="479.98956084143595" style="stroke: red;"></line><line x1="379.4059405940606" x2="383.56435643564475" y1="479.98956084143595" y2="479.99890726593134" style="stroke: red;"></line><line x1="383.56435643564475" x2="387.72277227722896" y1="479.99890726593134" y2="479.99991038680776" style="stroke: red;"></line><line x1="387.72277227722896" x2="391.88118811881316" y1="479.99991038680776" y2="479.99999424244777" style="stroke: red;"></line><line x1="391.88118811881316" x2="396.0396039603973" y1="479.99999424244777" y2="479.9999997101907" style="stroke: red;"></line><line x1="396.0396039603973" x2="400.19801980198145" y1="479.9999997101907" y2="479.99999998857135" style="stroke: red;"></line><line x1="400.19801980198145" x2="404.35643564356565" y1="479.99999998857135" y2="479.9999999996469" style="stroke: red;"></line><line x1="404.35643564356565" x2="408.51485148514985" y1="479.9999999996469" y2="479.9999999999915" style="stroke: red;"></line><line x1="408.51485148514985" x2="412.673267326734" y1="479.9999999999915" y2="479.99999999999983" style="stroke: red;"></line><line x1="412.673267326734" x2="416.8316831683182" y1="479.99999999999983" y2="480" style="stroke: red;"></line><line x1="416.8316831683182" x2="420.99009900990234" y1="480" y2="480" style="stroke: red;"></line><line x1="420.99009900990234" x2="425.1485148514865" y1="480" y2="480" style="stroke: red;"></line><line x1="425.1485148514865" x2="429.3069306930707" y1="480" y2="480" style="stroke: red;"></line><line x1="429.3069306930707" x2="433.4653465346549" y1="480" y2="480" style="stroke: red;"></line><line x1="433.4653465346549" x2="437.6237623762391" y1="480" y2="480" style="stroke: red;"></line><line x1="437.6237623762391" x2="441.78217821782323" y1="480" y2="480" style="stroke: red;"></line><line x1="441.78217821782323" x2="445.9405940594074" y1="480" y2="480" style="stroke: red;"></line><line x1="445.9405940594074" x2="450.0990099009916" y1="480" y2="480" style="stroke: red;"></line><line x1="450.0990099009916" x2="454.2574257425757" y1="480" y2="480" style="stroke: red;"></line><line x1="454.2574257425757" x2="458.4158415841599" y1="480" y2="480" style="stroke: red;"></line><line x1="458.4158415841599" x2="462.5742574257441" y1="480" y2="480" style="stroke: red;"></line><line x1="462.5742574257441" x2="466.7326732673283" y1="480" y2="480" style="stroke: red;"></line><line x1="466.7326732673283" x2="470.89108910891247" y1="480" y2="480" style="stroke: red;"></line><line x1="470.89108910891247" x2="475.0495049504966" y1="480" y2="480" style="stroke: red;"></line><line x1="475.0495049504966" x2="479.2079207920808" y1="480" y2="480" style="stroke: red;"></line><line x1="479.2079207920808" x2="483.36633663366496" y1="480" y2="480" style="stroke: red;"></line><line x1="483.36633663366496" x2="487.52475247524916" y1="480" y2="480" style="stroke: red;"></line><line x1="487.52475247524916" x2="491.6831683168333" y1="480" y2="480" style="stroke: red;"></line><line x1="491.6831683168333" x2="495.84158415841745" y1="480" y2="480" style="stroke: red;"></line></svg>