<svg xmlns="http://www.w3.org/2000/svg" id="SVG" width="600" height="560"><text x="300" y="45" style="font-size: 17px; font-family: sans-seirf; stroke: black; text-anchor: middle;">Sales(y) : Advertise(x)  Scatter Plot</text><text x="-140" y="110" transform="rotate(-90 30 100)" style="font-size: 12px; font-family: sans-seirf; stroke: black; text-anchor: end;">Sales</text><text x="300" y="535" style="font-size: 12px; font-family: sans-seirf; stroke: black; text-anchor: middle;">Advertise</text><g transform="translate(90,490)" fill="none" font-size="10" font-family="sans-serif" text-anchor="middle"><path class="domain" stroke="#000" d="M0.5,6V0.5H420.5V6"></path><g class="tick" opacity="1" transform="translate(0.5,0)"><line stroke="#000" y2="6"></line><text fill="#000" y="9" dy="0.71em">3</text></g><g class="tick" opacity="1" transform="translate(42.5,0)"><line stroke="#000" y2="6"></line><text fill="#000" y="9" dy="0.71em">4</text></g><g class="tick" opacity="1" transform="translate(84.5,0)"><line stroke="#000" y2="6"></line><text fill="#000" y="9" dy="0.71em">5</text></g><g class="tick" opacity="1" transform="translate(126.5,0)"><line stroke="#000" y2="6"></line><text fill="#000" y="9" dy="0.71em">6</text></g><g class="tick" opacity="1" transform="translate(168.5,0)"><line stroke="#000" y2="6"></line><text fill="#000" y="9" dy="0.71em">7</text></g><g class="tick" opacity="1" transform="translate(210.5,0)"><line stroke="#000" y2="6"></line><text fill="#000" y="9" dy="0.71em">8</text></g><g class="tick" opacity="1" transform="translate(252.5,0)"><line stroke="#000" y2="6"></line><text fill="#000" y="9" dy="0.71em">9</text></g><g class="tick" opacity="1" transform="translate(294.5,0)"><line stroke="#000" y2="6"></line><text fill="#000" y="9" dy="0.71em">10</text></g><g class="tick" opacity="1" transform="translate(336.5,0)"><line stroke="#000" y2="6"></line><text fill="#000" y="9" dy="0.71em">11</text></g><g class="tick" opacity="1" transform="translate(378.5,0)"><line stroke="#000" y2="6"></line><text fill="#000" y="9" dy="0.71em">12</text></g><g class="tick" opacity="1" transform="translate(420.5,0)"><line stroke="#000" y2="6"></line><text fill="#000" y="9" dy="0.71em">13</text></g></g><g transform="translate(90,90)" fill="none" font-size="10" font-family="sans-serif" text-anchor="middle"><path class="domain" stroke="#000" d="M0.5,-6V0.5H420.5V-6"></path><g class="tick" opacity="1" transform="translate(0.5,0)"><line stroke="#000" y2="-6"></line><text fill="#000" y="-9" dy="0em">3</text></g><g class="tick" opacity="1" transform="translate(42.5,0)"><line stroke="#000" y2="-6"></line><text fill="#000" y="-9" dy="0em">4</text></g><g class="tick" opacity="1" transform="translate(84.5,0)"><line stroke="#000" y2="-6"></line><text fill="#000" y="-9" dy="0em">5</text></g><g class="tick" opacity="1" transform="translate(126.5,0)"><line stroke="#000" y2="-6"></line><text fill="#000" y="-9" dy="0em">6</text></g><g class="tick" opacity="1" transform="translate(168.5,0)"><line stroke="#000" y2="-6"></line><text fill="#000" y="-9" dy="0em">7</text></g><g class="tick" opacity="1" transform="translate(210.5,0)"><line stroke="#000" y2="-6"></line><text fill="#000" y="-9" dy="0em">8</text></g><g class="tick" opacity="1" transform="translate(252.5,0)"><line stroke="#000" y2="-6"></line><text fill="#000" y="-9" dy="0em">9</text></g><g class="tick" opacity="1" transform="translate(294.5,0)"><line stroke="#000" y2="-6"></line><text fill="#000" y="-9" dy="0em">10</text></g><g class="tick" opacity="1" transform="translate(336.5,0)"><line stroke="#000" y2="-6"></line><text fill="#000" y="-9" dy="0em">11</text></g><g class="tick" opacity="1" transform="translate(378.5,0)"><line stroke="#000" y2="-6"></line><text fill="#000" y="-9" dy="0em">12</text></g><g class="tick" opacity="1" transform="translate(420.5,0)"><line stroke="#000" y2="-6"></line><text fill="#000" y="-9" dy="0em">13</text></g></g><g transform="translate(90,90)" fill="none" font-size="10" font-family="sans-serif" text-anchor="end"><path class="domain" stroke="#000" d="M-6,400.5H0.5V0.5H-6"></path><g class="tick" opacity="1" transform="translate(0,375.73809523809524)"><line stroke="#000" x2="-6"></line><text fill="#000" x="-9" dy="0.32em">38</text></g><g class="tick" opacity="1" transform="translate(0,345.26190476190476)"><line stroke="#000" x2="-6"></line><text fill="#000" x="-9" dy="0.32em">40</text></g><g class="tick" opacity="1" transform="translate(0,314.7857142857143)"><line stroke="#000" x2="-6"></line><text fill="#000" x="-9" dy="0.32em">42</text></g><g class="tick" opacity="1" transform="translate(0,284.3095238095238)"><line stroke="#000" x2="-6"></line><text fill="#000" x="-9" dy="0.32em">44</text></g><g class="tick" opacity="1" transform="translate(0,253.83333333333334)"><line stroke="#000" x2="-6"></line><text fill="#000" x="-9" dy="0.32em">46</text></g><g class="tick" opacity="1" transform="translate(0,223.35714285714286)"><line stroke="#000" x2="-6"></line><text fill="#000" x="-9" dy="0.32em">48</text></g><g class="tick" opacity="1" transform="translate(0,192.88095238095235)"><line stroke="#000" x2="-6"></line><text fill="#000" x="-9" dy="0.32em">50</text></g><g class="tick" opacity="1" transform="translate(0,162.4047619047619)"><line stroke="#000" x2="-6"></line><text fill="#000" x="-9" dy="0.32em">52</text></g><g class="tick" opacity="1" transform="translate(0,131.92857142857144)"><line stroke="#000" x2="-6"></line><text fill="#000" x="-9" dy="0.32em">54</text></g><g class="tick" opacity="1" transform="translate(0,101.45238095238096)"><line stroke="#000" x2="-6"></line><text fill="#000" x="-9" dy="0.32em">56</text></g><g class="tick" opacity="1" transform="translate(0,70.97619047619048)"><line stroke="#000" x2="-6"></line><text fill="#000" x="-9" dy="0.32em">58</text></g><g class="tick" opacity="1" transform="translate(0,40.5)"><line stroke="#000" x2="-6"></line><text fill="#000" x="-9" dy="0.32em">60</text></g><g class="tick" opacity="1" transform="translate(0,10.023809523809518)"><line stroke="#000" x2="-6"></line><text fill="#000" x="-9" dy="0.32em">62</text></g></g><g transform="translate(510,90)" fill="none" font-size="10" font-family="sans-serif" text-anchor="start"><path class="domain" stroke="#000" d="M6,400.5H0.5V0.5H6"></path><g class="tick" opacity="1" transform="translate(0,375.73809523809524)"><line stroke="#000" x2="6"></line><text fill="#000" x="9" dy="0.32em">38</text></g><g class="tick" opacity="1" transform="translate(0,345.26190476190476)"><line stroke="#000" x2="6"></line><text fill="#000" x="9" dy="0.32em">40</text></g><g class="tick" opacity="1" transform="translate(0,314.7857142857143)"><line stroke="#000" x2="6"></line><text fill="#000" x="9" dy="0.32em">42</text></g><g class="tick" opacity="1" transform="translate(0,284.3095238095238)"><line stroke="#000" x2="6"></line><text fill="#000" x="9" dy="0.32em">44</text></g><g class="tick" opacity="1" transform="translate(0,253.83333333333334)"><line stroke="#000" x2="6"></line><text fill="#000" x="9" dy="0.32em">46</text></g><g class="tick" opacity="1" transform="translate(0,223.35714285714286)"><line stroke="#000" x2="6"></line><text fill="#000" x="9" dy="0.32em">48</text></g><g class="tick" opacity="1" transform="translate(0,192.88095238095235)"><line stroke="#000" x2="6"></line><text fill="#000" x="9" dy="0.32em">50</text></g><g class="tick" opacity="1" transform="translate(0,162.4047619047619)"><line stroke="#000" x2="6"></line><text fill="#000" x="9" dy="0.32em">52</text></g><g class="tick" opacity="1" transform="translate(0,131.92857142857144)"><line stroke="#000" x2="6"></line><text fill="#000" x="9" dy="0.32em">54</text></g><g class="tick" opacity="1" transform="translate(0,101.45238095238096)"><line stroke="#000" x2="6"></line><text fill="#000" x="9" dy="0.32em">56</text></g><g class="tick" opacity="1" transform="translate(0,70.97619047619048)"><line stroke="#000" x2="6"></line><text fill="#000" x="9" dy="0.32em">58</text></g><g class="tick" opacity="1" transform="translate(0,40.5)"><line stroke="#000" x2="6"></line><text fill="#000" x="9" dy="0.32em">60</text></g><g class="tick" opacity="1" transform="translate(0,10.023809523809518)"><line stroke="#000" x2="6"></line><text fill="#000" x="9" dy="0.32em">62</text></g></g><circle data-sheetrowid="0" class="datapoint" stroke="black" cx="132" cy="450" r="4" style="fill: rgb(0, 85, 255);"><title>(4,39)</title></circle><circle data-sheetrowid="1" class="datapoint" stroke="black" cx="216" cy="404.2857142857143" r="4" style="fill: rgb(0, 85, 255);"><title>(6,42)</title></circle><circle data-sheetrowid="2" class="datapoint" stroke="black" cx="216" cy="358.57142857142856" r="4" style="fill: rgb(0, 85, 255);"><title>(6,45)</title></circle><circle data-sheetrowid="3" class="datapoint" stroke="black" cx="300" cy="328.0952380952381" r="4" style="fill: rgb(0, 85, 255);"><title>(8,47)</title></circle><circle data-sheetrowid="4" class="datapoint" stroke="black" cx="300" cy="282.3809523809524" r="4" style="fill: rgb(0, 85, 255);"><title>(8,50)</title></circle><circle data-sheetrowid="5" class="datapoint" stroke="black" cx="342" cy="282.3809523809524" r="4" style="fill: rgb(0, 85, 255);"><title>(9,50)</title></circle><circle data-sheetrowid="6" class="datapoint" stroke="black" cx="342" cy="251.9047619047619" r="4" style="fill: rgb(0, 85, 255);"><title>(9,52)</title></circle><circle data-sheetrowid="7" class="datapoint" stroke="black" cx="384" cy="206.1904761904762" r="4" style="fill: rgb(0, 85, 255);"><title>(10,55)</title></circle><circle data-sheetrowid="8" class="datapoint" stroke="black" cx="468" cy="175.71428571428572" r="4" style="fill: rgb(0, 85, 255);"><title>(12,57)</title></circle><circle data-sheetrowid="9" class="datapoint" stroke="black" cx="468" cy="130" r="4" style="fill: rgb(0, 85, 255);"><title>(12,60)</title></circle></svg>