<svg xmlns="http://www.w3.org/2000/svg" id="chart" width="600" height="400"> <text x="310" y="45" style="font-family: sans-serif; font-size: 12pt; stroke: black; text-anchor: middle;">Wilcoxon Rank Sum Test Table</text><text x="310" y="60" style="font-family: sans-serif; font-size: 9pt; stroke: black; text-anchor: middle;"></text><text x="310" y="75" style="font-family: sans-serif; font-size: 9pt; stroke: green; text-anchor: middle;">n₁ = 7, n₂ = 6</text><g transform="translate(60,90)" fill="none" font-size="10" font-family="sans-serif" text-anchor="end"><path class="domain" stroke="#000" d="M-6,0.5H0.5V260.5H-6"></path><g class="tick" opacity="1" transform="translate(0,3.4042553191489446)"><line stroke="#000" x2="-6"></line><text fill="#000" x="-9" dy="0.32em">0.065</text></g><g class="tick" opacity="1" transform="translate(0,23.180851063829778)"><line stroke="#000" x2="-6"></line><text fill="#000" x="-9" dy="0.32em">0.060</text></g><g class="tick" opacity="1" transform="translate(0,42.95744680851061)"><line stroke="#000" x2="-6"></line><text fill="#000" x="-9" dy="0.32em">0.055</text></g><g class="tick" opacity="1" transform="translate(0,62.73404255319147)"><line stroke="#000" x2="-6"></line><text fill="#000" x="-9" dy="0.32em">0.050</text></g><g class="tick" opacity="1" transform="translate(0,82.51063829787233)"><line stroke="#000" x2="-6"></line><text fill="#000" x="-9" dy="0.32em">0.045</text></g><g class="tick" opacity="1" transform="translate(0,102.2872340425532)"><line stroke="#000" x2="-6"></line><text fill="#000" x="-9" dy="0.32em">0.040</text></g><g class="tick" opacity="1" transform="translate(0,122.063829787234)"><line stroke="#000" x2="-6"></line><text fill="#000" x="-9" dy="0.32em">0.035</text></g><g class="tick" opacity="1" transform="translate(0,141.8404255319149)"><line stroke="#000" x2="-6"></line><text fill="#000" x="-9" dy="0.32em">0.030</text></g><g class="tick" opacity="1" transform="translate(0,161.61702127659572)"><line stroke="#000" x2="-6"></line><text fill="#000" x="-9" dy="0.32em">0.025</text></g><g class="tick" opacity="1" transform="translate(0,181.3936170212766)"><line stroke="#000" x2="-6"></line><text fill="#000" x="-9" dy="0.32em">0.020</text></g><g class="tick" opacity="1" transform="translate(0,201.17021276595744)"><line stroke="#000" x2="-6"></line><text fill="#000" x="-9" dy="0.32em">0.015</text></g><g class="tick" opacity="1" transform="translate(0,220.9468085106383)"><line stroke="#000" x2="-6"></line><text fill="#000" x="-9" dy="0.32em">0.010</text></g><g class="tick" opacity="1" transform="translate(0,240.72340425531914)"><line stroke="#000" x2="-6"></line><text fill="#000" x="-9" dy="0.32em">0.005</text></g><g class="tick" opacity="1" transform="translate(0,260.5)"><line stroke="#000" x2="-6"></line><text fill="#000" x="-9" dy="0.32em">0.000</text></g></g><line x1="60" y1="350" x2="560" y2="350" style="stroke: black;"></line><text class="barname" x="74.44186046511628" y="370" transform="rotate(90,74.44186046511628,370)  " style="font-family: sans-serif; font-size: 8pt; text-anchor: middle;">22</text><text class="barname" x="97.69767441860465" y="370" transform="rotate(90,97.69767441860465,370)  " style="font-family: sans-serif; font-size: 8pt; text-anchor: middle;">24</text><text class="barname" x="120.95348837209302" y="370" transform="rotate(90,120.95348837209302,370)  " style="font-family: sans-serif; font-size: 8pt; text-anchor: middle;">26</text><text class="barname" x="144.2093023255814" y="370" transform="rotate(90,144.2093023255814,370)  " style="font-family: sans-serif; font-size: 8pt; text-anchor: middle;">28</text><text class="barname" x="167.46511627906978" y="370" transform="rotate(90,167.46511627906978,370)  " style="font-family: sans-serif; font-size: 8pt; text-anchor: middle;">30</text><text class="barname" x="190.72093023255815" y="370" transform="rotate(90,190.72093023255815,370)  " style="font-family: sans-serif; font-size: 8pt; text-anchor: middle;">32</text><text class="barname" x="213.97674418604652" y="370" transform="rotate(90,213.97674418604652,370)  " style="font-family: sans-serif; font-size: 8pt; text-anchor: middle;">34</text><text class="barname" x="237.2325581395349" y="370" transform="rotate(90,237.2325581395349,370)  " style="font-family: sans-serif; font-size: 8pt; text-anchor: middle;">36</text><text class="barname" x="260.48837209302326" y="370" transform="rotate(90,260.48837209302326,370)  " style="font-family: sans-serif; font-size: 8pt; text-anchor: middle;">38</text><text class="barname" x="283.74418604651163" y="370" transform="rotate(90,283.74418604651163,370)  " style="font-family: sans-serif; font-size: 8pt; text-anchor: middle;">40</text><text class="barname" x="307" y="370" transform="rotate(90,307,370)  " style="font-family: sans-serif; font-size: 8pt; text-anchor: middle;">42</text><text class="barname" x="330.25581395348837" y="370" transform="rotate(90,330.25581395348837,370)  " style="font-family: sans-serif; font-size: 8pt; text-anchor: middle;">44</text><text class="barname" x="353.5116279069767" y="370" transform="rotate(90,353.5116279069767,370)  " style="font-family: sans-serif; font-size: 8pt; text-anchor: middle;">46</text><text class="barname" x="376.7674418604651" y="370" transform="rotate(90,376.7674418604651,370)  " style="font-family: sans-serif; font-size: 8pt; text-anchor: middle;">48</text><text class="barname" x="400.0232558139534" y="370" transform="rotate(90,400.0232558139534,370)  " style="font-family: sans-serif; font-size: 8pt; text-anchor: middle;">50</text><text class="barname" x="423.27906976744185" y="370" transform="rotate(90,423.27906976744185,370)  " style="font-family: sans-serif; font-size: 8pt; text-anchor: middle;">52</text><text class="barname" x="446.53488372093017" y="370" transform="rotate(90,446.53488372093017,370)  " style="font-family: sans-serif; font-size: 8pt; text-anchor: middle;">54</text><text class="barname" x="469.7906976744186" y="370" transform="rotate(90,469.7906976744186,370)  " style="font-family: sans-serif; font-size: 8pt; text-anchor: middle;">56</text><text class="barname" x="493.0465116279069" y="370" transform="rotate(90,493.0465116279069,370)  " style="font-family: sans-serif; font-size: 8pt; text-anchor: middle;">58</text><text class="barname" x="516.3023255813954" y="370" transform="rotate(90,516.3023255813954,370)  " style="font-family: sans-serif; font-size: 8pt; text-anchor: middle;">60</text><text class="barname" x="539.5581395348837" y="370" transform="rotate(90,539.5581395348837,370)  " style="font-family: sans-serif; font-size: 8pt; text-anchor: middle;">62</text><rect height="2.3049645390070923" width="7.751937984496124" x="61.93798449612403" y="347.6950354609929" style="fill: rgb(0, 85, 255);"></rect><rect height="2.3049645390070923" width="7.751937984496124" x="73.56589147286822" y="347.6950354609929" style="fill: rgb(0, 85, 255);"></rect><rect height="4.609929078014185" width="7.751937984496124" x="85.1937984496124" y="345.3900709219858" style="fill: rgb(0, 85, 255);"></rect><rect height="6.914893617021277" width="7.751937984496124" x="96.82170542635659" y="343.0851063829787" style="fill: rgb(0, 85, 255);"></rect><rect height="11.524822695035462" width="7.751937984496124" x="108.44961240310077" y="338.4751773049645" style="fill: rgb(0, 85, 255);"></rect><rect height="16.134751773049643" width="7.751937984496124" x="120.07751937984496" y="333.86524822695037" style="fill: rgb(0, 85, 255);"></rect><rect height="25.354609929078013" width="7.751937984496124" x="131.70542635658916" y="324.64539007092196" style="fill: rgb(0, 85, 255);"></rect><rect height="32.26950354609929" width="7.751937984496124" x="143.33333333333331" y="317.73049645390074" style="fill: rgb(0, 85, 255);"></rect><rect height="43.79432624113475" width="7.751937984496124" x="154.96124031007753" y="306.20567375886526" style="fill: rgb(0, 85, 255);"></rect><rect height="55.319148936170215" width="7.751937984496124" x="166.58914728682169" y="294.6808510638298" style="fill: rgb(0, 85, 255);"></rect><rect height="71.45390070921985" width="7.751937984496124" x="178.2170542635659" y="278.54609929078015" style="fill: rgb(0, 85, 255);"></rect><rect height="85.28368794326241" width="7.751937984496124" x="189.84496124031006" y="264.7163120567376" style="fill: rgb(0, 85, 255);"></rect><rect height="106.02836879432624" width="7.751937984496124" x="201.47286821705427" y="243.97163120567376" style="fill: rgb(0, 85, 255);"></rect><rect height="119.8581560283688" width="7.751937984496124" x="213.10077519379843" y="230.1418439716312" style="fill: rgb(0, 85, 255);"></rect><rect height="140.6028368794326" width="7.751937984496124" x="224.72868217054264" y="209.3971631205674" style="fill: rgb(0, 85, 255);"></rect><rect height="156.73758865248226" width="7.751937984496124" x="236.3565891472868" y="193.26241134751774" style="fill: rgb(0, 85, 255);"></rect><rect height="175.177304964539" width="7.751937984496124" x="247.984496124031" y="174.822695035461" style="fill: rgb(0, 85, 255);"></rect><rect height="186.70212765957447" width="7.751937984496124" x="259.61240310077517" y="163.29787234042553" style="fill: rgb(0, 85, 255);"></rect><rect height="202.8368794326241" width="7.751937984496124" x="271.2403100775194" y="147.1631205673759" style="fill: rgb(0, 85, 255);"></rect><rect height="207.4468085106383" width="7.751937984496124" x="282.86821705426354" y="142.5531914893617" style="fill: rgb(0, 85, 255);"></rect><rect height="216.66666666666666" width="7.751937984496124" x="294.49612403100775" y="133.33333333333334" style="fill: rgb(0, 85, 255);"></rect><rect height="216.66666666666666" width="7.751937984496124" x="306.1240310077519" y="133.33333333333334" style="fill: rgb(0, 85, 255);"></rect><rect height="216.66666666666666" width="7.751937984496124" x="317.7519379844961" y="133.33333333333334" style="fill: rgb(0, 85, 255);"></rect><rect height="207.4468085106383" width="7.751937984496124" x="329.37984496124034" y="142.5531914893617" style="fill: rgb(0, 85, 255);"></rect><rect height="202.8368794326241" width="7.751937984496124" x="341.0077519379845" y="147.1631205673759" style="fill: rgb(0, 85, 255);"></rect><rect height="186.70212765957447" width="7.751937984496124" x="352.63565891472865" y="163.29787234042553" style="fill: rgb(0, 85, 255);"></rect><rect height="175.177304964539" width="7.751937984496124" x="364.26356589147287" y="174.822695035461" style="fill: rgb(0, 85, 255);"></rect><rect height="156.73758865248226" width="7.751937984496124" x="375.8914728682171" y="193.26241134751774" style="fill: rgb(0, 85, 255);"></rect><rect height="140.6028368794326" width="7.751937984496124" x="387.51937984496124" y="209.3971631205674" style="fill: rgb(0, 85, 255);"></rect><rect height="119.8581560283688" width="7.751937984496124" x="399.1472868217054" y="230.1418439716312" style="fill: rgb(0, 85, 255);"></rect><rect height="106.02836879432624" width="7.751937984496124" x="410.7751937984496" y="243.97163120567376" style="fill: rgb(0, 85, 255);"></rect><rect height="85.28368794326241" width="7.751937984496124" x="422.4031007751938" y="264.7163120567376" style="fill: rgb(0, 85, 255);"></rect><rect height="71.45390070921985" width="7.751937984496124" x="434.031007751938" y="278.54609929078015" style="fill: rgb(0, 85, 255);"></rect><rect height="55.319148936170215" width="7.751937984496124" x="445.65891472868213" y="294.6808510638298" style="fill: rgb(0, 85, 255);"></rect><rect height="43.79432624113475" width="7.751937984496124" x="457.28682170542635" y="306.20567375886526" style="fill: rgb(0, 85, 255);"></rect><rect height="32.26950354609929" width="7.751937984496124" x="468.91472868217056" y="317.73049645390074" style="fill: rgb(0, 85, 255);"></rect><rect height="25.354609929078013" width="7.751937984496124" x="480.5426356589147" y="324.64539007092196" style="fill: rgb(0, 85, 255);"></rect><rect height="16.134751773049643" width="7.751937984496124" x="492.1705426356589" y="333.86524822695037" style="fill: rgb(0, 85, 255);"></rect><rect height="11.524822695035462" width="7.751937984496124" x="503.7984496124031" y="338.4751773049645" style="fill: rgb(0, 85, 255);"></rect><rect height="6.914893617021277" width="7.751937984496124" x="515.4263565891473" y="343.0851063829787" style="fill: rgb(0, 85, 255);"></rect><rect height="4.609929078014185" width="7.751937984496124" x="527.0542635658915" y="345.3900709219858" style="fill: rgb(0, 85, 255);"></rect><rect height="2.3049645390070923" width="7.751937984496124" x="538.6821705426356" y="347.6950354609929" style="fill: rgb(0, 85, 255);"></rect><rect height="2.3049645390070923" width="7.751937984496124" x="550.3100775193798" y="347.6950354609929" style="fill: rgb(0, 85, 255);"></rect></svg>