<svg xmlns="http://www.w3.org/2000/svg" id="SVG" width="600" height="560"><text x="290" y="40" style="font-family: sans-serif; font-size: 12pt; stroke: black; text-anchor: middle;">Wilcoxon Signed Rank Sum Test</text><text x="290" y="55" style="font-family: sans-serif; font-size: 9pt; stroke: black; text-anchor: middle;">H₀: M = M₀   , H₁: M ≠ M₀</text><text x="290" y="70" style="font-family: sans-serif; font-size: 9pt; stroke: green; text-anchor: middle;">[TestStat] (R+) ~ Wilcoxson Sign (n = 7) Distribution</text><g transform="translate(80,80)" fill="none" font-size="10" font-family="sans-serif" text-anchor="end"><path class="domain" stroke="#000" d="M-6,0.5H0.5V400.5H-6"></path><g class="tick" opacity="1" transform="translate(0,27.16666666666663)"><line stroke="#000" x2="-6"></line><text fill="#000" x="-9" dy="0.32em">0.07</text></g><g class="tick" opacity="1" transform="translate(0,80.5)"><line stroke="#000" x2="-6"></line><text fill="#000" x="-9" dy="0.32em">0.06</text></g><g class="tick" opacity="1" transform="translate(0,133.83333333333331)"><line stroke="#000" x2="-6"></line><text fill="#000" x="-9" dy="0.32em">0.05</text></g><g class="tick" opacity="1" transform="translate(0,187.16666666666666)"><line stroke="#000" x2="-6"></line><text fill="#000" x="-9" dy="0.32em">0.04</text></g><g class="tick" opacity="1" transform="translate(0,240.5)"><line stroke="#000" x2="-6"></line><text fill="#000" x="-9" dy="0.32em">0.03</text></g><g class="tick" opacity="1" transform="translate(0,293.8333333333333)"><line stroke="#000" x2="-6"></line><text fill="#000" x="-9" dy="0.32em">0.02</text></g><g class="tick" opacity="1" transform="translate(0,347.1666666666667)"><line stroke="#000" x2="-6"></line><text fill="#000" x="-9" dy="0.32em">0.01</text></g><g class="tick" opacity="1" transform="translate(0,400.5)"><line stroke="#000" x2="-6"></line><text fill="#000" x="-9" dy="0.32em">0.00</text></g></g><line x1="80" y1="480" x2="500" y2="480" style="stroke: black;"></line><text class="barname" x="84.24137931034483" y="500" transform="rotate(30,84.24137931034483,500)  " style="font-family: sans-serif; font-size: 8pt; text-anchor: middle;">0</text><text class="barname" x="98.72413793103448" y="500" transform="rotate(30,98.72413793103448,500)  " style="font-family: sans-serif; font-size: 8pt; text-anchor: middle;">1</text><text class="barname" x="113.20689655172413" y="500" transform="rotate(30,113.20689655172413,500)  " style="font-family: sans-serif; font-size: 8pt; text-anchor: middle;">2</text><text class="barname" x="127.68965517241378" y="500" transform="rotate(30,127.68965517241378,500)  " style="font-family: sans-serif; font-size: 8pt; text-anchor: middle;">3</text><text class="barname" x="142.17241379310343" y="500" transform="rotate(30,142.17241379310343,500)  " style="font-family: sans-serif; font-size: 8pt; text-anchor: middle;">4</text><text class="barname" x="156.65517241379308" y="500" transform="rotate(30,156.65517241379308,500)  " style="font-family: sans-serif; font-size: 8pt; text-anchor: middle;">5</text><text class="barname" x="171.13793103448276" y="500" transform="rotate(30,171.13793103448276,500)  " style="font-family: sans-serif; font-size: 8pt; text-anchor: middle;">6</text><text class="barname" x="185.6206896551724" y="500" transform="rotate(30,185.6206896551724,500)  " style="font-family: sans-serif; font-size: 8pt; text-anchor: middle;">7</text><text class="barname" x="200.10344827586206" y="500" transform="rotate(30,200.10344827586206,500)  " style="font-family: sans-serif; font-size: 8pt; text-anchor: middle;">8</text><text class="barname" x="214.58620689655172" y="500" transform="rotate(30,214.58620689655172,500)  " style="font-family: sans-serif; font-size: 8pt; text-anchor: middle;">9</text><text class="barname" x="229.06896551724137" y="500" transform="rotate(30,229.06896551724137,500)  " style="font-family: sans-serif; font-size: 8pt; text-anchor: middle;">10</text><text class="barname" x="243.55172413793102" y="500" transform="rotate(30,243.55172413793102,500)  " style="font-family: sans-serif; font-size: 8pt; text-anchor: middle;">11</text><text class="barname" x="258.0344827586207" y="500" transform="rotate(30,258.0344827586207,500)  " style="font-family: sans-serif; font-size: 8pt; text-anchor: middle;">12</text><text class="barname" x="272.51724137931035" y="500" transform="rotate(30,272.51724137931035,500)  " style="font-family: sans-serif; font-size: 8pt; text-anchor: middle;">13</text><text class="barname" x="287" y="500" transform="rotate(30,287,500)  " style="font-family: sans-serif; font-size: 8pt; text-anchor: middle;">14</text><text class="barname" x="301.48275862068965" y="500" transform="rotate(30,301.48275862068965,500)  " style="font-family: sans-serif; font-size: 8pt; text-anchor: middle;">15</text><text class="barname" x="315.9655172413793" y="500" transform="rotate(30,315.9655172413793,500)  " style="font-family: sans-serif; font-size: 8pt; text-anchor: middle;">16</text><text class="barname" x="330.44827586206895" y="500" transform="rotate(30,330.44827586206895,500)  " style="font-family: sans-serif; font-size: 8pt; text-anchor: middle;">17</text><text class="barname" x="344.9310344827586" y="500" transform="rotate(30,344.9310344827586,500)  " style="font-family: sans-serif; font-size: 8pt; text-anchor: middle;">18</text><text class="barname" x="359.41379310344826" y="500" transform="rotate(30,359.41379310344826,500)  " style="font-family: sans-serif; font-size: 8pt; text-anchor: middle;">19</text><text class="barname" x="373.8965517241379" y="500" transform="rotate(30,373.8965517241379,500)  " style="font-family: sans-serif; font-size: 8pt; text-anchor: middle;">20</text><text class="barname" x="388.37931034482756" y="500" transform="rotate(30,388.37931034482756,500)  " style="font-family: sans-serif; font-size: 8pt; text-anchor: middle;">21</text><text class="barname" x="402.8620689655172" y="500" transform="rotate(30,402.8620689655172,500)  " style="font-family: sans-serif; font-size: 8pt; text-anchor: middle;">22</text><text class="barname" x="417.34482758620686" y="500" transform="rotate(30,417.34482758620686,500)  " style="font-family: sans-serif; font-size: 8pt; text-anchor: middle;">23</text><text class="barname" x="431.82758620689657" y="500" transform="rotate(30,431.82758620689657,500)  " style="font-family: sans-serif; font-size: 8pt; text-anchor: middle;">24</text><text class="barname" x="446.3103448275862" y="500" transform="rotate(30,446.3103448275862,500)  " style="font-family: sans-serif; font-size: 8pt; text-anchor: middle;">25</text><text class="barname" x="460.7931034482759" y="500" transform="rotate(30,460.7931034482759,500)  " style="font-family: sans-serif; font-size: 8pt; text-anchor: middle;">26</text><text class="barname" x="475.2758620689655" y="500" transform="rotate(30,475.2758620689655,500)  " style="font-family: sans-serif; font-size: 8pt; text-anchor: middle;">27</text><text class="barname" x="489.7586206896552" y="500" transform="rotate(30,489.7586206896552,500)  " style="font-family: sans-serif; font-size: 8pt; text-anchor: middle;">28</text><rect height="41.66666666666667" width="9.655172413793103" x="82.41379310344827" y="438.3333333333333" style="fill: rgb(0, 85, 255);"></rect><rect height="41.66666666666667" width="9.655172413793103" x="96.89655172413792" y="438.3333333333333" style="fill: rgb(0, 85, 255);"></rect><rect height="41.66666666666667" width="9.655172413793103" x="111.37931034482759" y="438.3333333333333" style="fill: rgb(0, 85, 255);"></rect><rect height="83.33333333333334" width="9.655172413793103" x="125.86206896551724" y="396.66666666666663" style="fill: rgb(0, 85, 255);"></rect><rect height="83.33333333333334" width="9.655172413793103" x="140.3448275862069" y="396.66666666666663" style="fill: rgb(0, 85, 255);"></rect><rect height="125.00000000000001" width="9.655172413793103" x="154.82758620689654" y="355" style="fill: rgb(0, 85, 255);"></rect><rect height="166.66666666666669" width="9.655172413793103" x="169.31034482758622" y="313.3333333333333" style="fill: rgb(0, 85, 255);"></rect><rect height="208.33333333333337" width="9.655172413793103" x="183.79310344827587" y="271.66666666666663" style="fill: rgb(0, 85, 255);"></rect><rect height="208.33333333333337" width="9.655172413793103" x="198.27586206896552" y="271.66666666666663" style="fill: rgb(0, 85, 255);"></rect><rect height="250.00000000000003" width="9.655172413793103" x="212.75862068965517" y="229.99999999999997" style="fill: rgb(0, 85, 255);"></rect><rect height="291.6666666666667" width="9.655172413793103" x="227.24137931034483" y="188.33333333333331" style="fill: rgb(0, 85, 255);"></rect><rect height="291.6666666666667" width="9.655172413793103" x="241.72413793103448" y="188.33333333333331" style="fill: rgb(0, 85, 255);"></rect><rect height="333.33333333333337" width="9.655172413793103" x="256.2068965517241" y="146.66666666666663" style="fill: rgb(0, 85, 255);"></rect><rect height="333.33333333333337" width="9.655172413793103" x="270.6896551724138" y="146.66666666666663" style="fill: rgb(0, 85, 255);"></rect><rect height="333.33333333333337" width="9.655172413793103" x="285.17241379310343" y="146.66666666666663" style="fill: rgb(0, 85, 255);"></rect><rect height="333.33333333333337" width="9.655172413793103" x="299.6551724137931" y="146.66666666666663" style="fill: rgb(0, 85, 255);"></rect><rect height="333.33333333333337" width="9.655172413793103" x="314.13793103448273" y="146.66666666666663" style="fill: rgb(0, 85, 255);"></rect><rect height="291.6666666666667" width="9.655172413793103" x="328.6206896551724" y="188.33333333333331" style="fill: rgb(0, 85, 255);"></rect><rect height="291.6666666666667" width="9.655172413793103" x="343.10344827586204" y="188.33333333333331" style="fill: rgb(0, 85, 255);"></rect><rect height="250.00000000000003" width="9.655172413793103" x="357.5862068965517" y="229.99999999999997" style="fill: rgb(0, 85, 255);"></rect><rect height="208.33333333333337" width="9.655172413793103" x="372.06896551724134" y="271.66666666666663" style="fill: rgb(0, 85, 255);"></rect><rect height="208.33333333333337" width="9.655172413793103" x="386.551724137931" y="271.66666666666663" style="fill: rgb(0, 85, 255);"></rect><rect height="166.66666666666669" width="9.655172413793103" x="401.03448275862064" y="313.3333333333333" style="fill: rgb(0, 85, 255);"></rect><rect height="125.00000000000001" width="9.655172413793103" x="415.5172413793103" y="355" style="fill: rgb(0, 85, 255);"></rect><rect height="83.33333333333334" width="9.655172413793103" x="430" y="396.66666666666663" style="fill: rgb(0, 85, 255);"></rect><rect height="83.33333333333334" width="9.655172413793103" x="444.48275862068965" y="396.66666666666663" style="fill: rgb(0, 85, 255);"></rect><rect height="41.66666666666667" width="9.655172413793103" x="458.9655172413793" y="438.3333333333333" style="fill: rgb(0, 85, 255);"></rect><rect height="41.66666666666667" width="9.655172413793103" x="473.44827586206895" y="438.3333333333333" style="fill: rgb(0, 85, 255);"></rect><rect height="41.66666666666667" width="9.655172413793103" x="487.9310344827586" y="438.3333333333333" style="fill: rgb(0, 85, 255);"></rect><line x1="362.41379310344826" y1="100" x2="362.41379310344826" y2="510" style="stroke: green; stroke-width: 2px;"></line><text x="362.41379310344826" y="525" style="font-size: 9pt; stroke: green; text-anchor: middle;">R+ = 19</text><text x="357.41379310344826" y="540" style="font-size: 9pt; stroke: green; text-anchor: end;">P( X ≤ (R+) ) = 0.8125</text><text x="367.41379310344826" y="540" style="font-size: 9pt; stroke: green; text-anchor: start;">P( X ≥ (R+) ) = 0.2344</text><line x1="130.68965517241378" y1="300" x2="130.68965517241378" y2="500" style="stroke: red; stroke-width: 1px;"></line><text x="130.68965517241378" y="510" style="font-size: 9pt; stroke: red; text-anchor: middle;">3</text><text x="125.68965517241378" y="450" style="font-size: 9pt; stroke: red; text-anchor: end;">0.0391</text><line x1="449.3103448275862" y1="300" x2="449.3103448275862" y2="500" style="stroke: red; stroke-width: 1px;"></line><text x="449.3103448275862" y="510" style="font-size: 9pt; stroke: red; text-anchor: middle;">25</text><text x="454.3103448275862" y="450" style="font-size: 9pt; stroke: red; text-anchor: start;">0.0391</text></svg>