<svg xmlns="http://www.w3.org/2000/svg" id="SVG" width="600" height="560"><text x="290" y="40" style="font-size: 17px; font-family: sans-seirf; stroke: black; text-anchor: middle;">Probability Histogram and Normal Distribution</text><g class="axis" transform="translate(80, 80) " fill="none" font-size="10" font-family="sans-serif" text-anchor="end"><path class="domain" stroke="#000" d="M-6,133.83333333333334H0.5V0.5H-6"></path><g class="tick" opacity="1" transform="translate(0,133.83333333333334)"><line stroke="#000" x2="-6"></line><text fill="#000" x="-9" dy="0.32em">0.00</text></g><g class="tick" opacity="1" transform="translate(0,123.89849303924944)"><line stroke="#000" x2="-6"></line><text fill="#000" x="-9" dy="0.32em">0.02</text></g><g class="tick" opacity="1" transform="translate(0,113.96365274516556)"><line stroke="#000" x2="-6"></line><text fill="#000" x="-9" dy="0.32em">0.04</text></g><g class="tick" opacity="1" transform="translate(0,104.02881245108166)"><line stroke="#000" x2="-6"></line><text fill="#000" x="-9" dy="0.32em">0.06</text></g><g class="tick" opacity="1" transform="translate(0,94.09397215699778)"><line stroke="#000" x2="-6"></line><text fill="#000" x="-9" dy="0.32em">0.08</text></g><g class="tick" opacity="1" transform="translate(0,84.15913186291388)"><line stroke="#000" x2="-6"></line><text fill="#000" x="-9" dy="0.32em">0.10</text></g><g class="tick" opacity="1" transform="translate(0,74.22429156882998)"><line stroke="#000" x2="-6"></line><text fill="#000" x="-9" dy="0.32em">0.12</text></g><g class="tick" opacity="1" transform="translate(0,64.28945127474609)"><line stroke="#000" x2="-6"></line><text fill="#000" x="-9" dy="0.32em">0.14</text></g><g class="tick" opacity="1" transform="translate(0,54.354610980662216)"><line stroke="#000" x2="-6"></line><text fill="#000" x="-9" dy="0.32em">0.16</text></g><g class="tick" opacity="1" transform="translate(0,44.41977068657832)"><line stroke="#000" x2="-6"></line><text fill="#000" x="-9" dy="0.32em">0.18</text></g><g class="tick" opacity="1" transform="translate(0,34.484930392494405)"><line stroke="#000" x2="-6"></line><text fill="#000" x="-9" dy="0.32em">0.20</text></g><g class="tick" opacity="1" transform="translate(0,24.550090098410536)"><line stroke="#000" x2="-6"></line><text fill="#000" x="-9" dy="0.32em">0.22</text></g><g class="tick" opacity="1" transform="translate(0,14.615249804326638)"><line stroke="#000" x2="-6"></line><text fill="#000" x="-9" dy="0.32em">0.24</text></g><g class="tick" opacity="1" transform="translate(0,4.6804095102427254)"><line stroke="#000" x2="-6"></line><text fill="#000" x="-9" dy="0.32em">0.26</text></g></g><g class="axis" transform="translate(80, 213.33333333333334) " fill="none" font-size="10" font-family="sans-serif" text-anchor="end"><path class="domain" stroke="#000" d="M-6,133.83333333333334H0.5V0.5H-6"></path><g class="tick" opacity="1" transform="translate(0,133.83333333333334)"><line stroke="#000" x2="-6"></line><text fill="#000" x="-9" dy="0.32em">0.00</text></g><g class="tick" opacity="1" transform="translate(0,123.89849303924944)"><line stroke="#000" x2="-6"></line><text fill="#000" x="-9" dy="0.32em">0.02</text></g><g class="tick" opacity="1" transform="translate(0,113.96365274516556)"><line stroke="#000" x2="-6"></line><text fill="#000" x="-9" dy="0.32em">0.04</text></g><g class="tick" opacity="1" transform="translate(0,104.02881245108166)"><line stroke="#000" x2="-6"></line><text fill="#000" x="-9" dy="0.32em">0.06</text></g><g class="tick" opacity="1" transform="translate(0,94.09397215699778)"><line stroke="#000" x2="-6"></line><text fill="#000" x="-9" dy="0.32em">0.08</text></g><g class="tick" opacity="1" transform="translate(0,84.15913186291388)"><line stroke="#000" x2="-6"></line><text fill="#000" x="-9" dy="0.32em">0.10</text></g><g class="tick" opacity="1" transform="translate(0,74.22429156882998)"><line stroke="#000" x2="-6"></line><text fill="#000" x="-9" dy="0.32em">0.12</text></g><g class="tick" opacity="1" transform="translate(0,64.28945127474609)"><line stroke="#000" x2="-6"></line><text fill="#000" x="-9" dy="0.32em">0.14</text></g><g class="tick" opacity="1" transform="translate(0,54.354610980662216)"><line stroke="#000" x2="-6"></line><text fill="#000" x="-9" dy="0.32em">0.16</text></g><g class="tick" opacity="1" transform="translate(0,44.41977068657832)"><line stroke="#000" x2="-6"></line><text fill="#000" x="-9" dy="0.32em">0.18</text></g><g class="tick" opacity="1" transform="translate(0,34.484930392494405)"><line stroke="#000" x2="-6"></line><text fill="#000" x="-9" dy="0.32em">0.20</text></g><g class="tick" opacity="1" transform="translate(0,24.550090098410536)"><line stroke="#000" x2="-6"></line><text fill="#000" x="-9" dy="0.32em">0.22</text></g><g class="tick" opacity="1" transform="translate(0,14.615249804326638)"><line stroke="#000" x2="-6"></line><text fill="#000" x="-9" dy="0.32em">0.24</text></g><g class="tick" opacity="1" transform="translate(0,4.6804095102427254)"><line stroke="#000" x2="-6"></line><text fill="#000" x="-9" dy="0.32em">0.26</text></g></g><g class="axis" transform="translate(80, 346.6666666666667) " fill="none" font-size="10" font-family="sans-serif" text-anchor="end"><path class="domain" stroke="#000" d="M-6,133.83333333333334H0.5V0.5H-6"></path><g class="tick" opacity="1" transform="translate(0,133.83333333333334)"><line stroke="#000" x2="-6"></line><text fill="#000" x="-9" dy="0.32em">0.00</text></g><g class="tick" opacity="1" transform="translate(0,123.89849303924944)"><line stroke="#000" x2="-6"></line><text fill="#000" x="-9" dy="0.32em">0.02</text></g><g class="tick" opacity="1" transform="translate(0,113.96365274516556)"><line stroke="#000" x2="-6"></line><text fill="#000" x="-9" dy="0.32em">0.04</text></g><g class="tick" opacity="1" transform="translate(0,104.02881245108166)"><line stroke="#000" x2="-6"></line><text fill="#000" x="-9" dy="0.32em">0.06</text></g><g class="tick" opacity="1" transform="translate(0,94.09397215699778)"><line stroke="#000" x2="-6"></line><text fill="#000" x="-9" dy="0.32em">0.08</text></g><g class="tick" opacity="1" transform="translate(0,84.15913186291388)"><line stroke="#000" x2="-6"></line><text fill="#000" x="-9" dy="0.32em">0.10</text></g><g class="tick" opacity="1" transform="translate(0,74.22429156882998)"><line stroke="#000" x2="-6"></line><text fill="#000" x="-9" dy="0.32em">0.12</text></g><g class="tick" opacity="1" transform="translate(0,64.28945127474609)"><line stroke="#000" x2="-6"></line><text fill="#000" x="-9" dy="0.32em">0.14</text></g><g class="tick" opacity="1" transform="translate(0,54.354610980662216)"><line stroke="#000" x2="-6"></line><text fill="#000" x="-9" dy="0.32em">0.16</text></g><g class="tick" opacity="1" transform="translate(0,44.41977068657832)"><line stroke="#000" x2="-6"></line><text fill="#000" x="-9" dy="0.32em">0.18</text></g><g class="tick" opacity="1" transform="translate(0,34.484930392494405)"><line stroke="#000" x2="-6"></line><text fill="#000" x="-9" dy="0.32em">0.20</text></g><g class="tick" opacity="1" transform="translate(0,24.550090098410536)"><line stroke="#000" x2="-6"></line><text fill="#000" x="-9" dy="0.32em">0.22</text></g><g class="tick" opacity="1" transform="translate(0,14.615249804326638)"><line stroke="#000" x2="-6"></line><text fill="#000" x="-9" dy="0.32em">0.24</text></g><g class="tick" opacity="1" transform="translate(0,4.6804095102427254)"><line stroke="#000" x2="-6"></line><text fill="#000" x="-9" dy="0.32em">0.26</text></g></g><line x1="500" x2="500" y1="80" y2="480" style="stroke: black;"></line><line x1="80" x2="500" y1="80" y2="80" style="stroke: black;"></line><line x1="80" x2="500" y1="213.33333333333334" y2="213.33333333333334" style="stroke: black;"></line><line x1="80" x2="500" y1="346.6666666666667" y2="346.6666666666667" style="stroke: black;"></line><line x1="80" x2="500" y1="480" y2="480" style="stroke: black;"></line><line x1="80" x2="80" y1="480" y2="485" style="stroke: black;"></line><text class="myaxis" x="80" y="500" style="text-anchor: middle; font-family: sans-serif; font-size: 7px; stroke: rgb(0, 85, 255);">5.53</text><line x1="106.25" x2="106.25" y1="480" y2="485" style="stroke: black;"></line><text class="myaxis" x="106.25" y="500" style="text-anchor: middle; font-family: sans-serif; font-size: 7px; stroke: rgb(0, 85, 255);">7.21</text><line x1="132.5" x2="132.5" y1="480" y2="485" style="stroke: black;"></line><text class="myaxis" x="132.5" y="500" style="text-anchor: middle; font-family: sans-serif; font-size: 7px; stroke: rgb(0, 85, 255);">8.89</text><line x1="158.75" x2="158.75" y1="480" y2="485" style="stroke: black;"></line><text class="myaxis" x="158.75" y="500" style="text-anchor: middle; font-family: sans-serif; font-size: 7px; stroke: rgb(0, 85, 255);">10.56</text><line x1="185" x2="185" y1="480" y2="485" style="stroke: black;"></line><text class="myaxis" x="185" y="500" style="text-anchor: middle; font-family: sans-serif; font-size: 7px; stroke: rgb(0, 85, 255);">12.24</text><line x1="211.25" x2="211.25" y1="480" y2="485" style="stroke: black;"></line><text class="myaxis" x="211.25" y="500" style="text-anchor: middle; font-family: sans-serif; font-size: 7px; stroke: rgb(0, 85, 255);">13.92</text><line x1="237.5" x2="237.5" y1="480" y2="485" style="stroke: black;"></line><text class="myaxis" x="237.5" y="500" style="text-anchor: middle; font-family: sans-serif; font-size: 7px; stroke: rgb(0, 85, 255);">15.59</text><line x1="263.75" x2="263.75" y1="480" y2="485" style="stroke: black;"></line><text class="myaxis" x="263.75" y="500" style="text-anchor: middle; font-family: sans-serif; font-size: 7px; stroke: rgb(0, 85, 255);">17.27</text><line x1="290.00000000000006" x2="290.00000000000006" y1="480" y2="485" style="stroke: black;"></line><text class="myaxis" x="290.00000000000006" y="500" style="text-anchor: middle; font-family: sans-serif; font-size: 7px; stroke: rgb(0, 85, 255);">18.95</text><line x1="316.25" x2="316.25" y1="480" y2="485" style="stroke: black;"></line><text class="myaxis" x="316.25" y="500" style="text-anchor: middle; font-family: sans-serif; font-size: 7px; stroke: rgb(0, 85, 255);">20.62</text><line x1="342.5" x2="342.5" y1="480" y2="485" style="stroke: black;"></line><text class="myaxis" x="342.5" y="500" style="text-anchor: middle; font-family: sans-serif; font-size: 7px; stroke: rgb(0, 85, 255);">22.30</text><line x1="368.74999999999994" x2="368.74999999999994" y1="480" y2="485" style="stroke: black;"></line><text class="myaxis" x="368.74999999999994" y="500" style="text-anchor: middle; font-family: sans-serif; font-size: 7px; stroke: rgb(0, 85, 255);">23.98</text><line x1="394.99999999999994" x2="394.99999999999994" y1="480" y2="485" style="stroke: black;"></line><text class="myaxis" x="394.99999999999994" y="500" style="text-anchor: middle; font-family: sans-serif; font-size: 7px; stroke: rgb(0, 85, 255);">25.65</text><line x1="421.24999999999994" x2="421.24999999999994" y1="480" y2="485" style="stroke: black;"></line><text class="myaxis" x="421.24999999999994" y="500" style="text-anchor: middle; font-family: sans-serif; font-size: 7px; stroke: rgb(0, 85, 255);">27.33</text><line x1="447.5" x2="447.5" y1="480" y2="485" style="stroke: black;"></line><text class="myaxis" x="447.5" y="500" style="text-anchor: middle; font-family: sans-serif; font-size: 7px; stroke: rgb(0, 85, 255);">29.01</text><line x1="473.74999999999994" x2="473.74999999999994" y1="480" y2="485" style="stroke: black;"></line><text class="myaxis" x="473.74999999999994" y="500" style="text-anchor: middle; font-family: sans-serif; font-size: 7px; stroke: rgb(0, 85, 255);">30.68</text><line x1="500" x2="500" y1="480" y2="485" style="stroke: black;"></line><text class="myaxis" x="500" y="500" style="text-anchor: middle; font-family: sans-serif; font-size: 7px; stroke: rgb(0, 85, 255);">32.36</text><text x="290" y="530" style="font-size: 12px; font-family: sans-seirf; stroke: black; text-anchor: middle;">Miles</text><text x="520" y="146.66666666666669" style="font-size: 12px; font-family: sans-seirf; stroke: rgb(0, 85, 255); text-anchor: start;">A</text><rect class="bar" x="80" width="26.25" height="0" y="213.33333333333334" style="fill: rgb(0, 85, 255); stroke: black; stroke-width: 1px;"></rect><rect class="bar" x="106.25" width="26.25" height="0" y="213.33333333333334" style="fill: rgb(0, 85, 255); stroke: black; stroke-width: 1px;"></rect><rect class="bar" x="132.5" width="26.25" height="0" y="213.33333333333334" style="fill: rgb(0, 85, 255); stroke: black; stroke-width: 1px;"></rect><rect class="bar" x="158.75" width="26.25" height="0" y="213.33333333333334" style="fill: rgb(0, 85, 255); stroke: black; stroke-width: 1px;"></rect><rect class="bar" x="185" width="26.25" height="0" y="213.33333333333334" style="fill: rgb(0, 85, 255); stroke: black; stroke-width: 1px;"></rect><rect class="bar" x="211.25" width="26.25" height="0" y="213.33333333333334" style="fill: rgb(0, 85, 255); stroke: black; stroke-width: 1px;"></rect><rect class="bar" x="237.5" width="26.25" height="59.25925925925927" y="154.07407407407408" style="fill: rgb(0, 85, 255); stroke: black; stroke-width: 1px;"></rect><rect class="bar" x="263.75" width="26.25" height="0" y="213.33333333333334" style="fill: rgb(0, 85, 255); stroke: black; stroke-width: 1px;"></rect><rect class="bar" x="290.00000000000006" width="26.25" height="59.25925925925927" y="154.07407407407408" style="fill: rgb(0, 85, 255); stroke: black; stroke-width: 1px;"></rect><rect class="bar" x="316.25" width="26.25" height="59.25925925925927" y="154.07407407407408" style="fill: rgb(0, 85, 255); stroke: black; stroke-width: 1px;"></rect><rect class="bar" x="342.5" width="26.25" height="59.25925925925927" y="154.07407407407408" style="fill: rgb(0, 85, 255); stroke: black; stroke-width: 1px;"></rect><rect class="bar" x="368.74999999999994" width="26.25" height="59.25925925925927" y="154.07407407407408" style="fill: rgb(0, 85, 255); stroke: black; stroke-width: 1px;"></rect><rect class="bar" x="394.99999999999994" width="26.25" height="0" y="213.33333333333334" style="fill: rgb(0, 85, 255); stroke: black; stroke-width: 1px;"></rect><rect class="bar" x="421.24999999999994" width="26.25" height="0" y="213.33333333333334" style="fill: rgb(0, 85, 255); stroke: black; stroke-width: 1px;"></rect><rect class="bar" x="447.5" width="26.25" height="0" y="213.33333333333334" style="fill: rgb(0, 85, 255); stroke: black; stroke-width: 1px;"></rect><rect class="bar" x="473.74999999999994" width="26.25" height="0" y="213.33333333333334" style="fill: rgb(0, 85, 255); stroke: black; stroke-width: 1px;"></rect><line x1="318.39241152593536" y1="148.44449910331426" x2="318.39241152593536" y2="218.33333333333334" style="stroke: red;"></line><text x="318.39241152593536" y="225.33333333333334" style="stroke: red; text-anchor: middle; font-family: sans-serif; font-size: 7pt;">Mean=20.76</text><text x="398.39241152593536" y="225.33333333333334" style="stroke: red; text-anchor: middle; font-family: sans-serif; font-size: 7pt;">Std Dev=3.15</text><line x1="80" x2="84.15841584158416" y1="213.33281024158606" y2="213.3325494072573" style="stroke: red;"></line><line x1="84.15841584158416" x2="88.31683168316833" y1="213.3325494072573" y2="213.3321668444624" style="stroke: red;"></line><line x1="88.31683168316833" x2="92.47524752475249" y1="213.3321668444624" y2="213.33160990060904" style="stroke: red;"></line><line x1="92.47524752475249" x2="96.63366336633666" y1="213.33160990060904" y2="213.33080510486812" style="stroke: red;"></line><line x1="96.63366336633666" x2="100.79207920792082" y1="213.33080510486812" y2="213.32965080120243" style="stroke: red;"></line><line x1="100.79207920792082" x2="104.950495049505" y1="213.32965080120243" y2="213.32800753129715" style="stroke: red;"></line><line x1="104.950495049505" x2="109.10891089108915" y1="213.32800753129715" y2="213.32568561753797" style="stroke: red;"></line><line x1="109.10891089108915" x2="113.26732673267333" y1="213.32568561753797" y2="213.32242931162003" style="stroke: red;"></line><line x1="113.26732673267333" x2="117.42574257425748" y1="213.32242931162003" y2="213.31789679479905" style="stroke: red;"></line><line x1="117.42574257425748" x2="121.58415841584164" y1="213.31789679479905" y2="213.31163524956386" style="stroke: red;"></line><line x1="121.58415841584164" x2="125.7425742574258" y1="213.31163524956386" y2="213.30305018051823" style="stroke: red;"></line><line x1="125.7425742574258" x2="129.90099009900996" y1="213.30305018051823" y2="213.2913681580873" style="stroke: red;"></line><line x1="129.90099009900996" x2="134.0594059405941" y1="213.2913681580873" y2="213.27559220843685" style="stroke: red;"></line><line x1="134.0594059405941" x2="138.21782178217825" y1="213.27559220843685" y2="213.2544491949647" style="stroke: red;"></line><line x1="138.21782178217825" x2="142.3762376237624" y1="213.2544491949647" y2="213.22632875045693" style="stroke: red;"></line><line x1="142.3762376237624" x2="146.53465346534654" y1="213.22632875045693" y2="213.1892136441003" style="stroke: red;"></line><line x1="146.53465346534654" x2="150.6930693069307" y1="213.1892136441003" y2="213.1406019218645" style="stroke: red;"></line><line x1="150.6930693069307" x2="154.85148514851485" y1="213.1406019218645" y2="213.0774217561538" style="stroke: red;"></line><line x1="154.85148514851485" x2="159.00990099009903" y1="213.0774217561538" y2="212.9959406881492" style="stroke: red;"></line><line x1="159.00990099009903" x2="163.16831683168317" y1="212.9959406881492" y2="212.89167184116943" style="stroke: red;"></line><line x1="163.16831683168317" x2="167.32673267326732" y1="212.89167184116943" y2="212.75928070991202" style="stroke: red;"></line><line x1="167.32673267326732" x2="171.48514851485146" y1="212.75928070991202" y2="212.5924972568233" style="stroke: red;"></line><line x1="171.48514851485146" x2="175.6435643564356" y1="212.5924972568233" y2="212.38403922286554" style="stroke: red;"></line><line x1="175.6435643564356" x2="179.80198019801975" y1="212.38403922286554" y2="212.12555371547478" style="stroke: red;"></line><line x1="179.80198019801975" x2="183.96039603960392" y1="212.12555371547478" y2="211.80758518153857" style="stroke: red;"></line><line x1="183.96039603960392" x2="188.11881188118807" y1="211.80758518153857" y2="211.4195786998492" style="stroke: red;"></line><line x1="188.11881188118807" x2="192.27722772277224" y1="211.4195786998492" y2="210.94992801412252" style="stroke: red;"></line><line x1="192.27722772277224" x2="196.43564356435638" y1="210.94992801412252" y2="210.38607774585765" style="stroke: red;"></line><line x1="196.43564356435638" x2="200.59405940594053" y1="210.38607774585765" y2="209.714688650061" style="stroke: red;"></line><line x1="200.59405940594053" x2="204.75247524752467" y1="209.714688650061" y2="208.92187349428372" style="stroke: red;"></line><line x1="204.75247524752467" x2="208.91089108910882" y1="208.92187349428372" y2="207.9935090680732" style="stroke: red;"></line><line x1="208.91089108910882" x2="213.069306930693" y1="207.9935090680732" y2="206.91562692291285" style="stroke: red;"></line><line x1="213.069306930693" x2="217.22772277227713" y1="206.91562692291285" y2="205.6748817142916" style="stroke: red;"></line><line x1="217.22772277227713" x2="221.38613861386128" y1="205.6748817142916" y2="204.25909154682873" style="stroke: red;"></line><line x1="221.38613861386128" x2="225.54455445544542" y1="204.25909154682873" y2="202.65783966440654" style="stroke: red;"></line><line x1="225.54455445544542" x2="229.70297029702957" y1="202.65783966440654" y2="200.8631214118142" style="stroke: red;"></line><line x1="229.70297029702957" x2="233.86138613861374" y1="200.8631214118142" y2="198.87001492824766" style="stroke: red;"></line><line x1="233.86138613861374" x2="238.01980198019785" y1="198.87001492824766" y2="196.6773488845391" style="stroke: red;"></line><line x1="238.01980198019785" x2="242.17821782178203" y1="196.6773488845391" y2="194.2883361569383" style="stroke: red;"></line><line x1="242.17821782178203" x2="246.33663366336617" y1="194.2883361569383" y2="191.71113906889727" style="stroke: red;"></line><line x1="246.33663366336617" x2="250.49504950495037" y1="191.71113906889727" y2="188.9593301403948" style="stroke: red;"></line><line x1="250.49504950495037" x2="254.65346534653455" y1="188.9593301403948" y2="186.05221252015016" style="stroke: red;"></line><line x1="254.65346534653455" x2="258.8118811881187" y1="186.05221252015016" y2="183.01496670634185" style="stroke: red;"></line><line x1="258.8118811881187" x2="262.9702970297029" y1="183.01496670634185" y2="179.87859492586875" style="stroke: red;"></line><line x1="262.9702970297029" x2="267.12871287128706" y1="179.87859492586875" y2="176.6796416243215" style="stroke: red;"></line><line x1="267.12871287128706" x2="271.2871287128712" y1="176.6796416243215" y2="173.4596777270911" style="stroke: red;"></line><line x1="271.2871287128712" x2="275.4455445544554" y1="173.4596777270911" y2="170.26454729395272" style="stroke: red;"></line><line x1="275.4455445544554" x2="279.6039603960396" y1="170.26454729395272" y2="167.1433873613302" style="stroke: red;"></line><line x1="279.6039603960396" x2="283.7623762376238" y1="167.1433873613302" y2="164.14744445931314" style="stroke: red;"></line><line x1="283.7623762376238" x2="287.920792079208" y1="164.14744445931314" y2="161.32872371157762" style="stroke: red;"></line><line x1="287.920792079208" x2="292.07920792079216" y1="161.32872371157762" y2="158.73851773359493" style="stroke: red;"></line><line x1="292.07920792079216" x2="296.2376237623763" y1="158.73851773359493" y2="156.42587191016662" style="stroke: red;"></line><line x1="296.2376237623763" x2="300.3960396039605" y1="156.42587191016662" y2="154.43604931143255" style="stroke: red;"></line><line x1="300.3960396039605" x2="304.5544554455447" y1="154.43604931143255" y2="152.80906189798935" style="stroke: red;"></line><line x1="304.5544554455447" x2="308.71287128712885" y1="152.80906189798935" y2="151.5783343750548" style="stroke: red;"></line><line x1="308.71287128712885" x2="312.87128712871305" y1="151.5783343750548" y2="150.76956293281032" style="stroke: red;"></line><line x1="312.87128712871305" x2="317.0297029702972" y1="150.76956293281032" y2="150.39982327401233" style="stroke: red;"></line><line x1="317.0297029702972" x2="321.1881188118814" y1="150.39982327401233" y2="150.47697116926565" style="stroke: red;"></line><line x1="321.1881188118814" x2="325.3465346534656" y1="150.47697116926565" y2="150.9993649312185" style="stroke: red;"></line><line x1="325.3465346534656" x2="329.50495049504974" y1="150.9993649312185" y2="151.95592350136923" style="stroke: red;"></line><line x1="329.50495049504974" x2="333.663366336634" y1="151.95592350136923" y2="153.32651727892923" style="stroke: red;"></line><line x1="333.663366336634" x2="337.8217821782181" y1="153.32651727892923" y2="155.08267243889912" style="stroke: red;"></line><line x1="337.8217821782181" x2="341.98019801980234" y1="155.08267243889912" y2="157.18855432076018" style="stroke: red;"></line><line x1="341.98019801980234" x2="346.13861386138643" y1="157.18855432076018" y2="159.6021824608057" style="stroke: red;"></line><line x1="346.13861386138643" x2="350.29702970297063" y1="159.6021824608057" y2="162.27681976609526" style="stroke: red;"></line><line x1="350.29702970297063" x2="354.4554455445548" y1="162.27681976609526" y2="165.16247174109603" style="stroke: red;"></line><line x1="354.4554455445548" x2="358.61386138613904" y1="165.16247174109603" y2="168.20742887624922" style="stroke: red;"></line><line x1="358.61386138613904" x2="362.7722772277232" y1="168.20742887624922" y2="171.35978631593986" style="stroke: red;"></line><line x1="362.7722772277232" x2="366.9306930693074" y1="171.35978631593986" y2="174.56887950343253" style="stroke: red;"></line><line x1="366.9306930693074" x2="371.0891089108915" y1="174.56887950343253" y2="177.78658218096012" style="stroke: red;"></line><line x1="371.0891089108915" x2="375.2475247524757" y1="177.78658218096012" y2="180.9684232476701" style="stroke: red;"></line><line x1="375.2475247524757" x2="379.40594059405987" y1="180.9684232476701" y2="184.0744907647977" style="stroke: red;"></line><line x1="379.40594059405987" x2="383.56435643564413" y1="184.0744907647977" y2="187.07010400603343" style="stroke: red;"></line><line x1="383.56435643564413" x2="387.7227722772282" y1="187.07010400603343" y2="189.9262470496797" style="stroke: red;"></line><line x1="387.7227722772282" x2="391.8811881188125" y1="189.9262470496797" y2="192.61976923527794" style="stroke: red;"></line><line x1="391.8811881188125" x2="396.0396039603966" y1="192.61976923527794" y2="195.13336821810094" style="stroke: red;"></line><line x1="396.0396039603966" x2="400.1980198019808" y1="195.13336821810094" y2="197.45537986344675" style="stroke: red;"></line><line x1="400.1980198019808" x2="404.35643564356496" y1="197.45537986344675" y2="199.5794055186219" style="stroke: red;"></line><line x1="404.35643564356496" x2="408.5148514851492" y1="199.5794055186219" y2="201.50381115400873" style="stroke: red;"></line><line x1="408.5148514851492" x2="412.67326732673325" y1="201.50381115400873" y2="203.23113451577214" style="stroke: red;"></line><line x1="412.67326732673325" x2="416.83168316831757" y1="203.23113451577214" y2="204.76743596873567" style="stroke: red;"></line><line x1="416.83168316831757" x2="420.99009900990166" y1="204.76743596873567" y2="206.12162643123617" style="stroke: red;"></line><line x1="420.99009900990166" x2="425.14851485148586" y1="206.12162643123617" y2="207.3048020953756" style="stroke: red;"></line><line x1="425.14851485148586" x2="429.30693069307" y1="207.3048020953756" y2="208.32961090751323" style="stroke: red;"></line><line x1="429.30693069307" x2="433.46534653465426" y1="208.32961090751323" y2="209.2096704811015" style="stroke: red;"></line><line x1="433.46534653465426" x2="437.62376237623835" y1="209.2096704811015" y2="209.9590516265272" style="stroke: red;"></line><line x1="437.62376237623835" x2="441.7821782178226" y1="209.9590516265272" y2="210.59183635906783" style="stroke: red;"></line><line x1="441.7821782178226" x2="445.94059405940675" y1="210.59183635906783" y2="211.12175436756783" style="stroke: red;"></line><line x1="445.94059405940675" x2="450.09900990099095" y1="211.12175436756783" y2="211.56189769803066" style="stroke: red;"></line><line x1="450.09900990099095" x2="454.2574257425751" y1="211.56189769803066" y2="211.92450995560796" style="stroke: red;"></line><line x1="454.2574257425751" x2="458.4158415841593" y1="211.92450995560796" y2="212.22084371040623" style="stroke: red;"></line><line x1="458.4158415841593" x2="462.57425742574344" y1="212.22084371040623" y2="212.46107799892863" style="stroke: red;"></line><line x1="462.57425742574344" x2="466.7326732673277" y1="212.46107799892863" y2="212.65428678501345" style="stroke: red;"></line><line x1="466.7326732673277" x2="470.89108910891184" y1="212.65428678501345" y2="212.80844888633865" style="stroke: red;"></line><line x1="470.89108910891184" x2="475.04950495049604" y1="212.80844888633865" y2="212.93049006674903" style="stroke: red;"></line><line x1="475.04950495049604" x2="479.2079207920802" y1="212.93049006674903" y2="213.02634861279054" style="stroke: red;"></line><line x1="479.2079207920802" x2="483.3663366336644" y1="213.02634861279054" y2="213.10105662788018" style="stroke: red;"></line><line x1="483.3663366336644" x2="487.5247524752485" y1="213.10105662788018" y2="213.15883037199643" style="stroke: red;"></line><line x1="487.5247524752485" x2="491.6831683168328" y1="213.15883037199643" y2="213.20316414653948" style="stroke: red;"></line><line x1="491.6831683168328" x2="495.8415841584169" y1="213.20316414653948" y2="213.23692338982286" style="stroke: red;"></line><text x="520" y="280" style="font-size: 12px; font-family: sans-seirf; stroke: rgb(255, 69, 0); text-anchor: start;">B</text><rect class="bar" x="80" width="26.25" height="0" y="346.6666666666667" style="fill: rgb(255, 69, 0); stroke: black; stroke-width: 1px;"></rect><rect class="bar" x="106.25" width="26.25" height="0" y="346.6666666666667" style="fill: rgb(255, 69, 0); stroke: black; stroke-width: 1px;"></rect><rect class="bar" x="132.5" width="26.25" height="0" y="346.6666666666667" style="fill: rgb(255, 69, 0); stroke: black; stroke-width: 1px;"></rect><rect class="bar" x="158.75" width="26.25" height="0" y="346.6666666666667" style="fill: rgb(255, 69, 0); stroke: black; stroke-width: 1px;"></rect><rect class="bar" x="185" width="26.25" height="59.25925925925927" y="287.4074074074074" style="fill: rgb(255, 69, 0); stroke: black; stroke-width: 1px;"></rect><rect class="bar" x="211.25" width="26.25" height="0" y="346.6666666666667" style="fill: rgb(255, 69, 0); stroke: black; stroke-width: 1px;"></rect><rect class="bar" x="237.5" width="26.25" height="118.51851851851853" y="228.14814814814815" style="fill: rgb(255, 69, 0); stroke: black; stroke-width: 1px;"></rect><rect class="bar" x="263.75" width="26.25" height="59.25925925925927" y="287.4074074074074" style="fill: rgb(255, 69, 0); stroke: black; stroke-width: 1px;"></rect><rect class="bar" x="290.00000000000006" width="26.25" height="0" y="346.6666666666667" style="fill: rgb(255, 69, 0); stroke: black; stroke-width: 1px;"></rect><rect class="bar" x="316.25" width="26.25" height="59.25925925925927" y="287.4074074074074" style="fill: rgb(255, 69, 0); stroke: black; stroke-width: 1px;"></rect><rect class="bar" x="342.5" width="26.25" height="0" y="346.6666666666667" style="fill: rgb(255, 69, 0); stroke: black; stroke-width: 1px;"></rect><rect class="bar" x="368.74999999999994" width="26.25" height="0" y="346.6666666666667" style="fill: rgb(255, 69, 0); stroke: black; stroke-width: 1px;"></rect><rect class="bar" x="394.99999999999994" width="26.25" height="0" y="346.6666666666667" style="fill: rgb(255, 69, 0); stroke: black; stroke-width: 1px;"></rect><rect class="bar" x="421.24999999999994" width="26.25" height="0" y="346.6666666666667" style="fill: rgb(255, 69, 0); stroke: black; stroke-width: 1px;"></rect><rect class="bar" x="447.5" width="26.25" height="0" y="346.6666666666667" style="fill: rgb(255, 69, 0); stroke: black; stroke-width: 1px;"></rect><rect class="bar" x="473.74999999999994" width="26.25" height="0" y="346.6666666666667" style="fill: rgb(255, 69, 0); stroke: black; stroke-width: 1px;"></rect><line x1="255.1357887880059" y1="281.7778324366476" x2="255.1357887880059" y2="351.6666666666667" style="stroke: red;"></line><text x="255.1357887880059" y="358.6666666666667" style="stroke: red; text-anchor: middle; font-family: sans-serif; font-size: 7pt;">Mean=16.72</text><text x="335.1357887880059" y="358.6666666666667" style="stroke: red; text-anchor: middle; font-family: sans-serif; font-size: 7pt;">Std Dev=3.05</text><line x1="80" x2="84.15841584158416" y1="346.5873516945225" y2="346.5580149793577" style="stroke: red;"></line><line x1="84.15841584158416" x2="88.31683168316833" y1="346.5580149793577" y2="346.51894866352535" style="stroke: red;"></line><line x1="88.31683168316833" x2="92.47524752475249" y1="346.51894866352535" y2="346.4673488894126" style="stroke: red;"></line><line x1="92.47524752475249" x2="96.63366336633666" y1="346.4673488894126" y2="346.39975085798835" style="stroke: red;"></line><line x1="96.63366336633666" x2="100.79207920792082" y1="346.39975085798835" y2="346.31192009105445" style="stroke: red;"></line><line x1="100.79207920792082" x2="104.950495049505" y1="346.31192009105445" y2="346.19874001581513" style="stroke: red;"></line><line x1="104.950495049505" x2="109.10891089108915" y1="346.19874001581513" y2="346.0541005021236" style="stroke: red;"></line><line x1="109.10891089108915" x2="113.26732673267333" y1="346.0541005021236" y2="345.8707934640471" style="stroke: red;"></line><line x1="113.26732673267333" x2="117.42574257425748" y1="345.8707934640471" y2="345.6404231804337" style="stroke: red;"></line><line x1="117.42574257425748" x2="121.58415841584164" y1="345.6404231804337" y2="345.35334049414774" style="stroke: red;"></line><line x1="121.58415841584164" x2="125.7425742574258" y1="345.35334049414774" y2="344.9986113883882" style="stroke: red;"></line><line x1="125.7425742574258" x2="129.90099009900996" y1="344.9986113883882" y2="344.5640314577322" style="stroke: red;"></line><line x1="129.90099009900996" x2="134.0594059405941" y1="344.5640314577322" y2="344.0361983196677" style="stroke: red;"></line><line x1="134.0594059405941" x2="138.21782178217825" y1="344.0361983196677" y2="343.4006538701847" style="stroke: red;"></line><line x1="138.21782178217825" x2="142.3762376237624" y1="343.4006538701847" y2="342.6421073022008" style="stroke: red;"></line><line x1="142.3762376237624" x2="146.53465346534654" y1="342.6421073022008" y2="341.7447478306913" style="stroke: red;"></line><line x1="146.53465346534654" x2="150.6930693069307" y1="341.7447478306913" y2="340.69265300080536" style="stroke: red;"></line><line x1="150.6930693069307" x2="154.85148514851485" y1="340.69265300080536" y2="339.47029425816027" style="stroke: red;"></line><line x1="154.85148514851485" x2="159.00990099009903" y1="339.47029425816027" y2="338.06313618233446" style="stroke: red;"></line><line x1="159.00990099009903" x2="163.16831683168317" y1="338.06313618233446" y2="336.45831957456954" style="stroke: red;"></line><line x1="163.16831683168317" x2="167.32673267326732" y1="336.45831957456954" y2="334.64541170812566" style="stroke: red;"></line><line x1="167.32673267326732" x2="171.48514851485146" y1="334.64541170812566" y2="332.61719986429523" style="stroke: red;"></line><line x1="171.48514851485146" x2="175.6435643564356" y1="332.61719986429523" y2="330.370497258392" style="stroke: red;"></line><line x1="175.6435643564356" x2="179.80198019801975" y1="330.370497258392" y2="327.9069241553173" style="stroke: red;"></line><line x1="179.80198019801975" x2="183.96039603960392" y1="327.9069241553173" y2="325.2336219740579" style="stroke: red;"></line><line x1="183.96039603960392" x2="188.11881188118807" y1="325.2336219740579" y2="322.3638550736453" style="stroke: red;"></line><line x1="188.11881188118807" x2="192.27722772277224" y1="322.3638550736453" y2="319.31745423449007" style="stroke: red;"></line><line x1="192.27722772277224" x2="196.43564356435638" y1="319.31745423449007" y2="316.12105802306365" style="stroke: red;"></line><line x1="196.43564356435638" x2="200.59405940594053" y1="316.12105802306365" y2="312.8081135143175" style="stroke: red;"></line><line x1="200.59405940594053" x2="204.75247524752467" y1="312.8081135143175" y2="309.41860629307354" style="stroke: red;"></line><line x1="204.75247524752467" x2="208.91089108910882" y1="309.41860629307354" y2="305.9985010661269" style="stroke: red;"></line><line x1="208.91089108910882" x2="213.069306930693" y1="305.9985010661269" y2="302.5988881349989" style="stroke: red;"></line><line x1="213.069306930693" x2="217.22772277227713" y1="302.5988881349989" y2="299.27484669844625" style="stroke: red;"></line><line x1="217.22772277227713" x2="221.38613861386128" y1="299.27484669844625" y2="296.08405254956307" style="stroke: red;"></line><line x1="221.38613861386128" x2="225.54455445544542" y1="296.08405254956307" y2="293.0851741196473" style="stroke: red;"></line><line x1="225.54455445544542" x2="229.70297029702957" y1="293.0851741196473" y2="290.33611583227645" style="stroke: red;"></line><line x1="229.70297029702957" x2="233.86138613861374" y1="290.33611583227645" y2="287.8921802085061" style="stroke: red;"></line><line x1="233.86138613861374" x2="238.01980198019785" y1="287.8921802085061" y2="285.8042290593896" style="stroke: red;"></line><line x1="238.01980198019785" x2="242.17821782178203" y1="285.8042290593896" y2="284.11692857280013" style="stroke: red;"></line><line x1="242.17821782178203" x2="246.33663366336617" y1="284.11692857280013" y2="282.8671625957418" style="stroke: red;"></line><line x1="246.33663366336617" x2="250.49504950495037" y1="282.8671625957418" y2="282.0826927315571" style="stroke: red;"></line><line x1="250.49504950495037" x2="254.65346534653455" y1="282.0826927315571" y2="281.78113320023954" style="stroke: red;"></line><line x1="254.65346534653455" x2="258.8118811881187" y1="281.78113320023954" y2="281.9692933215168" style="stroke: red;"></line><line x1="258.8118811881187" x2="262.9702970297029" y1="281.9692933215168" y2="282.64292189651474" style="stroke: red;"></line><line x1="262.9702970297029" x2="267.12871287128706" y1="282.64292189651474" y2="283.78686688843493" style="stroke: red;"></line><line x1="267.12871287128706" x2="271.2871287128712" y1="283.78686688843493" y2="285.3756420263474" style="stroke: red;"></line><line x1="271.2871287128712" x2="275.4455445544554" y1="285.3756420263474" y2="287.3743707433369" style="stroke: red;"></line><line x1="275.4455445544554" x2="279.6039603960396" y1="287.3743707433369" y2="289.74005862904056" style="stroke: red;"></line><line x1="279.6039603960396" x2="283.7623762376238" y1="289.74005862904056" y2="292.423129583487" style="stroke: red;"></line><line x1="283.7623762376238" x2="287.920792079208" y1="292.423129583487" y2="295.3691490986481" style="stroke: red;"></line><line x1="287.920792079208" x2="292.07920792079216" y1="295.3691490986481" y2="298.52065122393185" style="stroke: red;"></line><line x1="292.07920792079216" x2="296.2376237623763" y1="298.52065122393185" y2="301.8189840693043" style="stroke: red;"></line><line x1="296.2376237623763" x2="300.3960396039605" y1="301.8189840693043" y2="305.2060920531688" style="stroke: red;"></line><line x1="300.3960396039605" x2="304.5544554455447" y1="305.2060920531688" y2="308.62616103669285" style="stroke: red;"></line><line x1="304.5544554455447" x2="308.71287128712885" y1="308.62616103669285" y2="312.02706422012653" style="stroke: red;"></line><line x1="308.71287128712885" x2="312.87128712871305" y1="312.02706422012653" y2="315.3615612009029" style="stroke: red;"></line><line x1="312.87128712871305" x2="317.0297029702972" y1="315.3615612009029" y2="318.5882187666647" style="stroke: red;"></line><line x1="317.0297029702972" x2="321.1881188118814" y1="318.5882187666647" y2="321.6720386448165" style="stroke: red;"></line><line x1="321.1881188118814" x2="325.3465346534656" y1="321.6720386448165" y2="324.584793442015" style="stroke: red;"></line><line x1="325.3465346534656" x2="329.50495049504974" y1="324.584793442015" y2="327.3050864146229" style="stroke: red;"></line><line x1="329.50495049504974" x2="333.663366336634" y1="327.3050864146229" y2="329.81816275348126" style="stroke: red;"></line><line x1="333.663366336634" x2="337.8217821782181" y1="329.81816275348126" y2="332.1155092276262" style="stroke: red;"></line><line x1="337.8217821782181" x2="341.98019801980234" y1="332.1155092276262" y2="334.1942850553899" style="stroke: red;"></line><line x1="341.98019801980234" x2="346.13861386138643" y1="334.1942850553899" y2="336.056629751302" style="stroke: red;"></line><line x1="346.13861386138643" x2="350.29702970297063" y1="336.056629751302" y2="337.70889364771085" style="stroke: red;"></line><line x1="350.29702970297063" x2="354.4554455445548" y1="337.70889364771085" y2="339.1608342019825" style="stroke: red;"></line><line x1="354.4554455445548" x2="358.61386138613904" y1="339.1608342019825" y2="340.42481658774005" style="stroke: red;"></line><line x1="358.61386138613904" x2="362.7722772277232" y1="340.42481658774005" y2="341.5150510131542" style="stroke: red;"></line><line x1="362.7722772277232" x2="366.9306930693074" y1="341.5150510131542" y2="342.4468923052648" style="stroke: red;"></line><line x1="366.9306930693074" x2="371.0891089108915" y1="342.4468923052648" y2="343.2362201074332" style="stroke: red;"></line><line x1="371.0891089108915" x2="375.2475247524757" y1="343.2362201074332" y2="343.8989110473585" style="stroke: red;"></line><line x1="375.2475247524757" x2="379.40594059405987" y1="343.8989110473585" y2="344.4504078398637" style="stroke: red;"></line><line x1="379.40594059405987" x2="383.56435643564413" y1="344.4504078398637" y2="344.90538477709316" style="stroke: red;"></line><line x1="383.56435643564413" x2="387.7227722772282" y1="344.90538477709316" y2="345.27750460310676" style="stroke: red;"></line><line x1="387.7227722772282" x2="391.8811881188125" y1="345.27750460310676" y2="345.5792584407054" style="stroke: red;"></line><line x1="391.8811881188125" x2="396.0396039603966" y1="345.5792584407054" y2="345.82187821701" style="stroke: red;"></line><line x1="396.0396039603966" x2="400.1980198019808" y1="345.82187821701" y2="346.0153098316755" style="stroke: red;"></line><line x1="400.1980198019808" x2="404.35643564356496" y1="346.0153098316755" y2="346.1682349887156" style="stroke: red;"></line><line x1="404.35643564356496" x2="408.5148514851492" y1="346.1682349887156" y2="346.28813000151115" style="stroke: red;"></line><line x1="408.5148514851492" x2="412.67326732673325" y1="346.28813000151115" y2="346.3813508016448" style="stroke: red;"></line><line x1="412.67326732673325" x2="416.83168316831757" y1="346.3813508016448" y2="346.45323466129406" style="stroke: red;"></line><line x1="416.83168316831757" x2="420.99009900990166" y1="346.45323466129406" y2="346.50821061774633" style="stroke: red;"></line><line x1="420.99009900990166" x2="425.14851485148586" y1="346.50821061774633" y2="346.5499121327701" style="stroke: red;"></line><line x1="425.14851485148586" x2="429.30693069307" y1="346.5499121327701" y2="346.5812870225529" style="stroke: red;"></line><line x1="429.30693069307" x2="433.46534653465426" y1="346.5812870225529" y2="346.60470107796124" style="stroke: red;"></line><line x1="433.46534653465426" x2="437.62376237623835" y1="346.60470107796124" y2="346.6220330094249" style="stroke: red;"></line><line x1="437.62376237623835" x2="441.7821782178226" y1="346.6220330094249" y2="346.6347593691436" style="stroke: red;"></line><line x1="441.7821782178226" x2="445.94059405940675" y1="346.6347593691436" y2="346.6440289185153" style="stroke: red;"></line><line x1="445.94059405940675" x2="450.09900990099095" y1="346.6440289185153" y2="346.65072652855014" style="stroke: red;"></line><line x1="450.09900990099095" x2="454.2574257425751" y1="346.65072652855014" y2="346.6555271437761" style="stroke: red;"></line><line x1="454.2574257425751" x2="458.4158415841593" y1="346.6555271437761" y2="346.65894063018584" style="stroke: red;"></line><line x1="458.4158415841593" x2="462.57425742574344" y1="346.65894063018584" y2="346.6613484922961" style="stroke: red;"></line><line x1="462.57425742574344" x2="466.7326732673277" y1="346.6613484922961" y2="346.6630335106741" style="stroke: red;"></line><line x1="466.7326732673277" x2="470.89108910891184" y1="346.6630335106741" y2="346.6642033447468" style="stroke: red;"></line><line x1="470.89108910891184" x2="475.04950495049604" y1="346.6642033447468" y2="346.66500908875105" style="stroke: red;"></line><line x1="475.04950495049604" x2="479.2079207920802" y1="346.66500908875105" y2="346.66555968000915" style="stroke: red;"></line><line x1="479.2079207920802" x2="483.3663366336644" y1="346.66555968000915" y2="346.6659329532259" style="stroke: red;"></line><line x1="483.3663366336644" x2="487.5247524752485" y1="346.6659329532259" y2="346.66618402343806" style="stroke: red;"></line><line x1="487.5247524752485" x2="491.6831683168328" y1="346.66618402343806" y2="346.6663515715924" style="stroke: red;"></line><line x1="491.6831683168328" x2="495.8415841584169" y1="346.6663515715924" y2="346.6664625057228" style="stroke: red;"></line><text x="520" y="413.33333333333337" style="font-size: 12px; font-family: sans-seirf; stroke: rgb(0, 170, 0); text-anchor: start;">C</text><rect class="bar" x="80" width="26.25" height="0" y="480" style="fill: rgb(0, 170, 0); stroke: black; stroke-width: 1px;"></rect><rect class="bar" x="106.25" width="26.25" height="0" y="480" style="fill: rgb(0, 170, 0); stroke: black; stroke-width: 1px;"></rect><rect class="bar" x="132.5" width="26.25" height="0" y="480" style="fill: rgb(0, 170, 0); stroke: black; stroke-width: 1px;"></rect><rect class="bar" x="158.75" width="26.25" height="0" y="480" style="fill: rgb(0, 170, 0); stroke: black; stroke-width: 1px;"></rect><rect class="bar" x="185" width="26.25" height="0" y="480" style="fill: rgb(0, 170, 0); stroke: black; stroke-width: 1px;"></rect><rect class="bar" x="211.25" width="26.25" height="59.25925925925927" y="420.74074074074076" style="fill: rgb(0, 170, 0); stroke: black; stroke-width: 1px;"></rect><rect class="bar" x="237.5" width="26.25" height="0" y="480" style="fill: rgb(0, 170, 0); stroke: black; stroke-width: 1px;"></rect><rect class="bar" x="263.75" width="26.25" height="118.51851851851853" y="361.48148148148147" style="fill: rgb(0, 170, 0); stroke: black; stroke-width: 1px;"></rect><rect class="bar" x="290.00000000000006" width="26.25" height="59.25925925925927" y="420.74074074074076" style="fill: rgb(0, 170, 0); stroke: black; stroke-width: 1px;"></rect><rect class="bar" x="316.25" width="26.25" height="0" y="480" style="fill: rgb(0, 170, 0); stroke: black; stroke-width: 1px;"></rect><rect class="bar" x="342.5" width="26.25" height="59.25925925925927" y="420.74074074074076" style="fill: rgb(0, 170, 0); stroke: black; stroke-width: 1px;"></rect><rect class="bar" x="368.74999999999994" width="26.25" height="0" y="480" style="fill: rgb(0, 170, 0); stroke: black; stroke-width: 1px;"></rect><rect class="bar" x="394.99999999999994" width="26.25" height="0" y="480" style="fill: rgb(0, 170, 0); stroke: black; stroke-width: 1px;"></rect><rect class="bar" x="421.24999999999994" width="26.25" height="0" y="480" style="fill: rgb(0, 170, 0); stroke: black; stroke-width: 1px;"></rect><rect class="bar" x="447.5" width="26.25" height="0" y="480" style="fill: rgb(0, 170, 0); stroke: black; stroke-width: 1px;"></rect><rect class="bar" x="473.74999999999994" width="26.25" height="0" y="480" style="fill: rgb(0, 170, 0); stroke: black; stroke-width: 1px;"></rect><line x1="296.47179968605883" y1="415.1111657699809" x2="296.47179968605883" y2="485" style="stroke: red;"></line><text x="296.47179968605883" y="492" style="stroke: red; text-anchor: middle; font-family: sans-serif; font-size: 7pt;">Mean=19.36</text><text x="376.47179968605883" y="492" style="stroke: red; text-anchor: middle; font-family: sans-serif; font-size: 7pt;">Std Dev=3.10</text><line x1="80" x2="84.15841584158416" y1="479.99698422526654" y2="479.99559412241297" style="stroke: red;"></line><line x1="84.15841584158416" x2="88.31683168316833" y1="479.99559412241297" y2="479.9936104146015" style="stroke: red;"></line><line x1="88.31683168316833" x2="92.47524752475249" y1="479.9936104146015" y2="479.99080144402154" style="stroke: red;"></line><line x1="92.47524752475249" x2="96.63366336633666" y1="479.99080144402154" y2="479.9868546135981" style="stroke: red;"></line><line x1="96.63366336633666" x2="100.79207920792082" y1="479.9868546135981" y2="479.9813519346876" style="stroke: red;"></line><line x1="100.79207920792082" x2="104.950495049505" y1="479.9813519346876" y2="479.9737396245575" style="stroke: red;"></line><line x1="104.950495049505" x2="109.10891089108915" y1="479.9737396245575" y2="479.9632908097786" style="stroke: red;"></line><line x1="109.10891089108915" x2="113.26732673267333" y1="479.9632908097786" y2="479.94906041504424" style="stroke: red;"></line><line x1="113.26732673267333" x2="117.42574257425748" y1="479.94906041504424" y2="479.92983141414476" style="stroke: red;"></line><line x1="117.42574257425748" x2="121.58415841584164" y1="479.92983141414476" y2="479.9040518135926" style="stroke: red;"></line><line x1="121.58415841584164" x2="125.7425742574258" y1="479.9040518135926" y2="479.86976205331246" style="stroke: red;"></line><line x1="125.7425742574258" x2="129.90099009900996" y1="479.86976205331246" y2="479.8245129654468" style="stroke: red;"></line><line x1="129.90099009900996" x2="134.0594059405941" y1="479.8245129654468" y2="479.76527505068077" style="stroke: red;"></line><line x1="134.0594059405941" x2="138.21782178217825" y1="479.76527505068077" y2="479.6883406238702" style="stroke: red;"></line><line x1="138.21782178217825" x2="142.3762376237624" y1="479.6883406238702" y2="479.5892213491337" style="stroke: red;"></line><line x1="142.3762376237624" x2="146.53465346534654" y1="479.5892213491337" y2="479.4625448166941" style="stroke: red;"></line><line x1="146.53465346534654" x2="150.6930693069307" y1="479.4625448166941" y2="479.30195507930523" style="stroke: red;"></line><line x1="150.6930693069307" x2="154.85148514851485" y1="479.30195507930523" y2="479.10002341337463" style="stroke: red;"></line><line x1="154.85148514851485" x2="159.00990099009903" y1="479.10002341337463" y2="478.8481769234913" style="stroke: red;"></line><line x1="159.00990099009903" x2="163.16831683168317" y1="478.8481769234913" y2="478.5366538692686" style="stroke: red;"></line><line x1="163.16831683168317" x2="167.32673267326732" y1="478.5366538692686" y2="478.1544956377088" style="stroke: red;"></line><line x1="167.32673267326732" x2="171.48514851485146" y1="478.1544956377088" y2="477.68958597174577" style="stroke: red;"></line><line x1="171.48514851485146" x2="175.6435643564356" y1="477.68958597174577" y2="477.12874824424256" style="stroke: red;"></line><line x1="175.6435643564356" x2="179.80198019801975" y1="477.12874824424256" y2="476.45791108417046" style="stroke: red;"></line><line x1="179.80198019801975" x2="183.96039603960392" y1="476.45791108417046" y2="475.66235137888464" style="stroke: red;"></line><line x1="183.96039603960392" x2="188.11881188118807" y1="475.66235137888464" y2="474.7270214835187" style="stroke: red;"></line><line x1="188.11881188118807" x2="192.27722772277224" y1="474.7270214835187" y2="473.63696430226696" style="stroke: red;"></line><line x1="192.27722772277224" x2="196.43564356435638" y1="473.63696430226696" y2="472.37781576704776" style="stroke: red;"></line><line x1="196.43564356435638" x2="200.59405940594053" y1="472.37781576704776" y2="470.9363892056946" style="stroke: red;"></line><line x1="200.59405940594053" x2="204.75247524752467" y1="470.9363892056946" y2="469.30133033288064" style="stroke: red;"></line><line x1="204.75247524752467" x2="208.91089108910882" y1="469.30133033288064" y2="467.46382537513017" style="stroke: red;"></line><line x1="208.91089108910882" x2="213.069306930693" y1="467.46382537513017" y2="465.4183385100714" style="stroke: red;"></line><line x1="213.069306930693" x2="217.22772277227713" y1="465.4183385100714" y2="463.16334879131716" style="stroke: red;"></line><line x1="217.22772277227713" x2="221.38613861386128" y1="463.16334879131716" y2="460.7020515313404" style="stroke: red;"></line><line x1="221.38613861386128" x2="225.54455445544542" y1="460.7020515313404" y2="458.0429852362116" style="stroke: red;"></line><line x1="225.54455445544542" x2="229.70297029702957" y1="458.0429852362116" y2="455.2005431221654" style="stroke: red;"></line><line x1="229.70297029702957" x2="233.86138613861374" y1="455.2005431221654" y2="452.1953284266967" style="stroke: red;"></line><line x1="233.86138613861374" x2="238.01980198019785" y1="452.1953284266967" y2="449.0543154793606" style="stroke: red;"></line><line x1="238.01980198019785" x2="242.17821782178203" y1="449.0543154793606" y2="445.81078398989393" style="stroke: red;"></line><line x1="242.17821782178203" x2="246.33663366336617" y1="445.81078398989393" y2="442.50400222502236" style="stroke: red;"></line><line x1="246.33663366336617" x2="250.49504950495037" y1="442.50400222502236" y2="439.17864544929114" style="stroke: red;"></line><line x1="250.49504950495037" x2="254.65346534653455" y1="439.17864544929114" y2="435.88394874913183" style="stroke: red;"></line><line x1="254.65346534653455" x2="258.8118811881187" y1="435.88394874913183" y2="432.67260748602246" style="stroke: red;"></line><line x1="258.8118811881187" x2="262.9702970297029" y1="432.67260748602246" y2="429.59945330295125" style="stroke: red;"></line><line x1="262.9702970297029" x2="267.12871287128706" y1="429.59945330295125" y2="426.7199478855656" style="stroke: red;"></line><line x1="267.12871287128706" x2="271.2871287128712" y1="426.7199478855656" y2="424.0885495489128" style="stroke: red;"></line><line x1="271.2871287128712" x2="275.4455445544554" y1="424.0885495489128" y2="421.75701820160594" style="stroke: red;"></line><line x1="275.4455445544554" x2="279.6039603960396" y1="421.75701820160594" y2="419.7727314592547" style="stroke: red;"></line><line x1="279.6039603960396" x2="283.7623762376238" y1="419.7727314592547" y2="418.1770879537551" style="stroke: red;"></line><line x1="283.7623762376238" x2="287.920792079208" y1="418.1770879537551" y2="417.0040727857888" style="stroke: red;"></line><line x1="287.920792079208" x2="292.07920792079216" y1="417.0040727857888" y2="416.2790544701049" style="stroke: red;"></line><line x1="292.07920792079216" x2="296.2376237623763" y1="416.2790544701049" y2="416.0178728304182" style="stroke: red;"></line><line x1="296.2376237623763" x2="300.3960396039605" y1="416.0178728304182" y2="416.22626364054435" style="stroke: red;"></line><line x1="300.3960396039605" x2="304.5544554455447" y1="416.22626364054435" y2="416.8996491991579" style="stroke: red;"></line><line x1="304.5544554455447" x2="308.71287128712885" y1="416.8996491991579" y2="418.0233055172701" style="stroke: red;"></line><line x1="308.71287128712885" x2="312.87128712871305" y1="418.0233055172701" y2="419.5728975907977" style="stroke: red;"></line><line x1="312.87128712871305" x2="317.0297029702972" y1="419.5728975907977" y2="421.5153555817463" style="stroke: red;"></line><line x1="317.0297029702972" x2="321.1881188118814" y1="421.5153555817463" y2="423.8100478523772" style="stroke: red;"></line><line x1="321.1881188118814" x2="325.3465346534656" y1="423.8100478523772" y2="426.4101927585747" style="stroke: red;"></line><line x1="325.3465346534656" x2="329.50495049504974" y1="426.4101927585747" y2="429.264440759424" style="stroke: red;"></line><line x1="329.50495049504974" x2="333.663366336634" y1="429.264440759424" y2="432.3185523021829" style="stroke: red;"></line><line x1="333.663366336634" x2="337.8217821782181" y1="432.3185523021829" y2="435.51709533618015" style="stroke: red;"></line><line x1="337.8217821782181" x2="341.98019801980234" y1="435.51709533618015" y2="438.80508910742435" style="stroke: red;"></line><line x1="341.98019801980234" x2="346.13861386138643" y1="438.80508910742435" y2="442.1295276913634" style="stroke: red;"></line><line x1="346.13861386138643" x2="350.29702970297063" y1="442.1295276913634" y2="445.4407268756627" style="stroke: red;"></line><line x1="350.29702970297063" x2="354.4554455445548" y1="445.4407268756627" y2="448.6934506531075" style="stroke: red;"></line><line x1="354.4554455445548" x2="358.61386138613904" y1="448.6934506531075" y2="451.8477877539095" style="stroke: red;"></line><line x1="358.61386138613904" x2="362.7722772277232" y1="451.8477877539095" y2="454.86976332911956" style="stroke: red;"></line><line x1="362.7722772277232" x2="366.9306930693074" y1="454.86976332911956" y2="457.7316851299461" style="stroke: red;"></line><line x1="366.9306930693074" x2="371.0891089108915" y1="457.7316851299461" y2="460.4122364638101" style="stroke: red;"></line><line x1="371.0891089108915" x2="375.2475247524757" y1="460.4122364638101" y2="462.8963391682138" style="stroke: red;"></line><line x1="375.2475247524757" x2="379.40594059405987" y1="462.8963391682138" y2="465.1748183533293" style="stroke: red;"></line><line x1="379.40594059405987" x2="383.56435643564413" y1="465.1748183533293" y2="467.24390646787344" style="stroke: red;"></line><line x1="383.56435643564413" x2="387.7227722772282" y1="467.24390646787344" y2="469.1046272986183" style="stroke: red;"></line><line x1="387.7227722772282" x2="391.8811881188125" y1="469.1046272986183" y2="470.7621009723701" style="stroke: red;"></line><line x1="391.8811881188125" x2="396.0396039603966" y1="470.7621009723701" y2="472.22480919840166" style="stroke: red;"></line><line x1="396.0396039603966" x2="400.1980198019808" y1="472.22480919840166" y2="473.5038562912485" style="stroke: red;"></line><line x1="400.1980198019808" x2="404.35643564356496" y1="473.5038562912485" y2="474.6122564378968" style="stroke: red;"></line><line x1="404.35643564356496" x2="408.5148514851492" y1="474.6122564378968" y2="475.56427173072007" style="stroke: red;"></line><line x1="408.5148514851492" x2="412.67326732673325" y1="475.56427173072007" y2="476.37481916979914" style="stroke: red;"></line><line x1="412.67326732673325" x2="416.83168316831757" y1="476.37481916979914" y2="477.0589585848258" style="stroke: red;"></line><line x1="416.83168316831757" x2="420.99009900990166" y1="477.0589585848258" y2="477.6314676008411" style="stroke: red;"></line><line x1="420.99009900990166" x2="425.14851485148586" y1="477.6314676008411" y2="478.1065046468392" style="stroke: red;"></line><line x1="425.14851485148586" x2="429.30693069307" y1="478.1065046468392" y2="478.4973567607681" style="stroke: red;"></line><line x1="429.30693069307" x2="433.46534653465426" y1="478.4973567607681" y2="478.81626566726095" style="stroke: red;"></line><line x1="433.46534653465426" x2="437.62376237623835" y1="478.81626566726095" y2="479.07432330403975" style="stroke: red;"></line><line x1="437.62376237623835" x2="441.7821782178226" y1="479.07432330403975" y2="479.28142659240257" style="stroke: red;"></line><line x1="441.7821782178226" x2="445.94059405940675" y1="479.28142659240257" y2="479.44628068107426" style="stroke: red;"></line><line x1="445.94059405940675" x2="450.09900990099095" y1="479.44628068107426" y2="479.5764400043572" style="stroke: red;"></line><line x1="450.09900990099095" x2="454.2574257425751" y1="479.5764400043572" y2="479.6783771333617" style="stroke: red;"></line><line x1="454.2574257425751" x2="458.4158415841593" y1="479.6783771333617" y2="479.757570410529" style="stroke: red;"></line><line x1="458.4158415841593" x2="462.57425742574344" y1="479.757570410529" y2="479.81860260005465" style="stroke: red;"></line><line x1="462.57425742574344" x2="466.7326732673277" y1="479.81860260005465" y2="479.8652641353296" style="stroke: red;"></line><line x1="466.7326732673277" x2="470.89108910891184" y1="479.8652641353296" y2="479.90065589672105" style="stroke: red;"></line><line x1="470.89108910891184" x2="475.04950495049604" y1="479.90065589672105" y2="479.92728773078017" style="stroke: red;"></line><line x1="475.04950495049604" x2="479.2079207920802" y1="479.92728773078017" y2="479.94717007099865" style="stroke: red;"></line><line x1="479.2079207920802" x2="483.3663366336644" y1="479.94717007099865" y2="479.96189700797254" style="stroke: red;"></line><line x1="483.3663366336644" x2="487.5247524752485" y1="479.96189700797254" y2="479.97271996916146" style="stroke: red;"></line><line x1="487.5247524752485" x2="491.6831683168328" y1="479.97271996916146" y2="479.98061180593135" style="stroke: red;"></line><line x1="491.6831683168328" x2="495.8415841584169" y1="479.98061180593135" y2="479.98632155956113" style="stroke: red;"></line></svg>