<svg xmlns="http://www.w3.org/2000/svg" id="chart" width="600" height="600"> <text x="40" y="25" style="font-size: 13pt; stroke: blue; text-anchor: start;">Binomial Distribution n = 10, p = 0.50</text><text x="260" y="580" style="font-family: sans-serif; font-size: 9pt; stroke: rgb(0, 85, 255); text-anchor: middle;">Mean = 5.00,  Std Dev = 1.58</text><g transform="translate(40,50)" fill="none" font-size="10" font-family="sans-serif" text-anchor="end"><path class="domain" stroke="#000" d="M-6,0.5H0.5V490.5H-6"></path><g class="tick" opacity="1" transform="translate(0,14.111111111111143)"><line stroke="#000" x2="-6"></line><text fill="#000" x="-9" dy="0.32em">0.35</text></g><g class="tick" opacity="1" transform="translate(0,82.16666666666663)"><line stroke="#000" x2="-6"></line><text fill="#000" x="-9" dy="0.32em">0.30</text></g><g class="tick" opacity="1" transform="translate(0,150.22222222222223)"><line stroke="#000" x2="-6"></line><text fill="#000" x="-9" dy="0.32em">0.25</text></g><g class="tick" opacity="1" transform="translate(0,218.27777777777777)"><line stroke="#000" x2="-6"></line><text fill="#000" x="-9" dy="0.32em">0.20</text></g><g class="tick" opacity="1" transform="translate(0,286.3333333333333)"><line stroke="#000" x2="-6"></line><text fill="#000" x="-9" dy="0.32em">0.15</text></g><g class="tick" opacity="1" transform="translate(0,354.3888888888889)"><line stroke="#000" x2="-6"></line><text fill="#000" x="-9" dy="0.32em">0.10</text></g><g class="tick" opacity="1" transform="translate(0,422.44444444444446)"><line stroke="#000" x2="-6"></line><text fill="#000" x="-9" dy="0.32em">0.05</text></g><g class="tick" opacity="1" transform="translate(0,490.5)"><line stroke="#000" x2="-6"></line><text fill="#000" x="-9" dy="0.32em">0.00</text></g></g><line x1="40" y1="540" x2="560" y2="540" style="stroke: black;"></line><text class="barname" x="60.63636363636363" y="560" transform="rotate(30,60.63636363636363,560)  " style="font-family: sans-serif; font-size: 8pt; text-anchor: middle;">0</text><text class="barname" x="107.9090909090909" y="560" transform="rotate(30,107.9090909090909,560)  " style="font-family: sans-serif; font-size: 8pt; text-anchor: middle;">1</text><text class="barname" x="155.1818181818182" y="560" transform="rotate(30,155.1818181818182,560)  " style="font-family: sans-serif; font-size: 8pt; text-anchor: middle;">2</text><text class="barname" x="202.45454545454544" y="560" transform="rotate(30,202.45454545454544,560)  " style="font-family: sans-serif; font-size: 8pt; text-anchor: middle;">3</text><text class="barname" x="249.72727272727272" y="560" transform="rotate(30,249.72727272727272,560)  " style="font-family: sans-serif; font-size: 8pt; text-anchor: middle;">4</text><text class="barname" x="297" y="560" transform="rotate(30,297,560)  " style="font-family: sans-serif; font-size: 8pt; text-anchor: middle;">5</text><text class="barname" x="344.27272727272725" y="560" transform="rotate(30,344.27272727272725,560)  " style="font-family: sans-serif; font-size: 8pt; text-anchor: middle;">6</text><text class="barname" x="391.54545454545456" y="560" transform="rotate(30,391.54545454545456,560)  " style="font-family: sans-serif; font-size: 8pt; text-anchor: middle;">7</text><text class="barname" x="438.8181818181818" y="560" transform="rotate(30,438.8181818181818,560)  " style="font-family: sans-serif; font-size: 8pt; text-anchor: middle;">8</text><text class="barname" x="486.09090909090907" y="560" transform="rotate(30,486.09090909090907,560)  " style="font-family: sans-serif; font-size: 8pt; text-anchor: middle;">9</text><text class="barname" x="533.3636363636364" y="560" transform="rotate(30,533.3636363636364,560)  " style="font-family: sans-serif; font-size: 8pt; text-anchor: middle;">10</text><rect height="1.3292100694444444" width="31.515151515151516" x="47.878787878787875" y="538.6707899305555" style="fill: rgb(0, 85, 255);"></rect><rect height="13.292100694444446" width="31.515151515151516" x="95.15151515151516" y="526.7078993055555" style="fill: rgb(0, 85, 255);"></rect><rect height="59.81445312499999" width="31.515151515151516" x="142.42424242424244" y="480.185546875" style="fill: rgb(0, 85, 255);"></rect><rect height="159.5052083333335" width="31.515151515151516" x="189.6969696969697" y="380.4947916666665" style="fill: rgb(0, 85, 255);"></rect><rect height="279.13411458333366" width="31.515151515151516" x="236.96969696969697" y="260.86588541666634" style="fill: rgb(0, 85, 255);"></rect><rect height="334.96093750000006" width="31.515151515151516" x="284.24242424242425" y="205.03906249999994" style="fill: rgb(0, 85, 255);"></rect><rect height="279.13411458333314" width="31.515151515151516" x="331.5151515151515" y="260.86588541666686" style="fill: rgb(0, 85, 255);"></rect><rect height="159.50520833333323" width="31.515151515151516" x="378.7878787878788" y="380.49479166666674" style="fill: rgb(0, 85, 255);"></rect><rect height="59.814453124999886" width="31.515151515151516" x="426.06060606060606" y="480.1855468750001" style="fill: rgb(0, 85, 255);"></rect><rect height="13.292100694444411" width="31.515151515151516" x="473.3333333333333" y="526.7078993055555" style="fill: rgb(0, 85, 255);"></rect><rect height="1.3292100694444444" width="31.515151515151516" x="520.6060606060606" y="538.6707899305555" style="fill: rgb(0, 85, 255);"></rect><text class="freqfont2" x="63.63636363636363" y="533.6707899305555">0.001</text><text class="freqfont2" x="110.9090909090909" y="521.7078993055555">0.010</text><text class="freqfont2" x="158.1818181818182" y="475.185546875">0.044</text><text class="freqfont2" x="205.45454545454544" y="375.4947916666665">0.117</text><text class="freqfont2" x="252.72727272727272" y="255.86588541666634">0.205</text><text class="freqfont2" x="300" y="200.03906249999994">0.246</text><text class="freqfont2" x="347.27272727272725" y="255.86588541666686">0.205</text><text class="freqfont2" x="394.54545454545456" y="375.49479166666674">0.117</text><text class="freqfont2" x="441.8181818181818" y="475.1855468750001">0.044</text><text class="freqfont2" x="489.09090909090907" y="521.7078993055555">0.010</text><text class="freqfont2" x="536.3636363636364" y="533.6707899305555">0.001</text></svg>