<?xml version="1.0" encoding="UTF-8"?>
<!DOCTYPE svg PUBLIC "-//W3C//DTD SVG 1.1//EN" "http://www.w3.org/Graphics/SVG/1.1/DTD/svg11.dtd">
<svg xmlns="http://www.w3.org/2000/svg" version="1.1" viewBox="0 0 45 45" stroke="none">
	<rect width="100%" height="100%" fill="#FFFFFF"/>
	<path d="M4,4h1v1h-1z M5,4h1v1h-1z M6,4h1v1h-1z M7,4h1v1h-1z M8,4h1v1h-1z M9,4h1v1h-1z M10,4h1v1h-1z M12,4h1v1h-1z M14,4h1v1h-1z M15,4h1v1h-1z M19,4h1v1h-1z M21,4h1v1h-1z M22,4h1v1h-1z M23,4h1v1h-1z M24,4h1v1h-1z M25,4h1v1h-1z M26,4h1v1h-1z M27,4h1v1h-1z M28,4h1v1h-1z M29,4h1v1h-1z M30,4h1v1h-1z M34,4h1v1h-1z M35,4h1v1h-1z M36,4h1v1h-1z M37,4h1v1h-1z M38,4h1v1h-1z M39,4h1v1h-1z M40,4h1v1h-1z M4,5h1v1h-1z M10,5h1v1h-1z M12,5h1v1h-1z M14,5h1v1h-1z M16,5h1v1h-1z M18,5h1v1h-1z M21,5h1v1h-1z M23,5h1v1h-1z M24,5h1v1h-1z M26,5h1v1h-1z M28,5h1v1h-1z M29,5h1v1h-1z M34,5h1v1h-1z M40,5h1v1h-1z M4,6h1v1h-1z M6,6h1v1h-1z M7,6h1v1h-1z M8,6h1v1h-1z M10,6h1v1h-1z M12,6h1v1h-1z M13,6h1v1h-1z M14,6h1v1h-1z M17,6h1v1h-1z M20,6h1v1h-1z M22,6h1v1h-1z M25,6h1v1h-1z M26,6h1v1h-1z M27,6h1v1h-1z M28,6h1v1h-1z M29,6h1v1h-1z M31,6h1v1h-1z M34,6h1v1h-1z M36,6h1v1h-1z M37,6h1v1h-1z M38,6h1v1h-1z M40,6h1v1h-1z M4,7h1v1h-1z M6,7h1v1h-1z M7,7h1v1h-1z M8,7h1v1h-1z M10,7h1v1h-1z M13,7h1v1h-1z M15,7h1v1h-1z M16,7h1v1h-1z M17,7h1v1h-1z M18,7h1v1h-1z M20,7h1v1h-1z M21,7h1v1h-1z M22,7h1v1h-1z M23,7h1v1h-1z M25,7h1v1h-1z M26,7h1v1h-1z M27,7h1v1h-1z M29,7h1v1h-1z M30,7h1v1h-1z M34,7h1v1h-1z M36,7h1v1h-1z M37,7h1v1h-1z M38,7h1v1h-1z M40,7h1v1h-1z M4,8h1v1h-1z M6,8h1v1h-1z M7,8h1v1h-1z M8,8h1v1h-1z M10,8h1v1h-1z M12,8h1v1h-1z M13,8h1v1h-1z M14,8h1v1h-1z M20,8h1v1h-1z M23,8h1v1h-1z M24,8h1v1h-1z M29,8h1v1h-1z M30,8h1v1h-1z M32,8h1v1h-1z M34,8h1v1h-1z M36,8h1v1h-1z M37,8h1v1h-1z M38,8h1v1h-1z M40,8h1v1h-1z M4,9h1v1h-1z M10,9h1v1h-1z M13,9h1v1h-1z M15,9h1v1h-1z M18,9h1v1h-1z M19,9h1v1h-1z M20,9h1v1h-1z M24,9h1v1h-1z M25,9h1v1h-1z M26,9h1v1h-1z M27,9h1v1h-1z M30,9h1v1h-1z M34,9h1v1h-1z M40,9h1v1h-1z M4,10h1v1h-1z M5,10h1v1h-1z M6,10h1v1h-1z M7,10h1v1h-1z M8,10h1v1h-1z M9,10h1v1h-1z M10,10h1v1h-1z M12,10h1v1h-1z M14,10h1v1h-1z M16,10h1v1h-1z M18,10h1v1h-1z M20,10h1v1h-1z M22,10h1v1h-1z M24,10h1v1h-1z M26,10h1v1h-1z M28,10h1v1h-1z M30,10h1v1h-1z M32,10h1v1h-1z M34,10h1v1h-1z M35,10h1v1h-1z M36,10h1v1h-1z M37,10h1v1h-1z M38,10h1v1h-1z M39,10h1v1h-1z M40,10h1v1h-1z M13,11h1v1h-1z M14,11h1v1h-1z M16,11h1v1h-1z M17,11h1v1h-1z M18,11h1v1h-1z M19,11h1v1h-1z M21,11h1v1h-1z M22,11h1v1h-1z M28,11h1v1h-1z M29,11h1v1h-1z M4,12h1v1h-1z M7,12h1v1h-1z M8,12h1v1h-1z M9,12h1v1h-1z M10,12h1v1h-1z M11,12h1v1h-1z M12,12h1v1h-1z M13,12h1v1h-1z M14,12h1v1h-1z M15,12h1v1h-1z M25,12h1v1h-1z M26,12h1v1h-1z M28,12h1v1h-1z M29,12h1v1h-1z M31,12h1v1h-1z M33,12h1v1h-1z M36,12h1v1h-1z M38,12h1v1h-1z M39,12h1v1h-1z M40,12h1v1h-1z M5,13h1v1h-1z M7,13h1v1h-1z M8,13h1v1h-1z M11,13h1v1h-1z M14,13h1v1h-1z M16,13h1v1h-1z M17,13h1v1h-1z M20,13h1v1h-1z M22,13h1v1h-1z M24,13h1v1h-1z M25,13h1v1h-1z M26,13h1v1h-1z M28,13h1v1h-1z M29,13h1v1h-1z M30,13h1v1h-1z M31,13h1v1h-1z M35,13h1v1h-1z M36,13h1v1h-1z M37,13h1v1h-1z M38,13h1v1h-1z M39,13h1v1h-1z M4,14h1v1h-1z M6,14h1v1h-1z M8,14h1v1h-1z M9,14h1v1h-1z M10,14h1v1h-1z M11,14h1v1h-1z M12,14h1v1h-1z M15,14h1v1h-1z M17,14h1v1h-1z M19,14h1v1h-1z M20,14h1v1h-1z M21,14h1v1h-1z M24,14h1v1h-1z M26,14h1v1h-1z M27,14h1v1h-1z M28,14h1v1h-1z M29,14h1v1h-1z M31,14h1v1h-1z M34,14h1v1h-1z M40,14h1v1h-1z M4,15h1v1h-1z M5,15h1v1h-1z M6,15h1v1h-1z M7,15h1v1h-1z M13,15h1v1h-1z M14,15h1v1h-1z M16,15h1v1h-1z M17,15h1v1h-1z M18,15h1v1h-1z M20,15h1v1h-1z M21,15h1v1h-1z M23,15h1v1h-1z M28,15h1v1h-1z M32,15h1v1h-1z M35,15h1v1h-1z M37,15h1v1h-1z M38,15h1v1h-1z M39,15h1v1h-1z M40,15h1v1h-1z M5,16h1v1h-1z M7,16h1v1h-1z M9,16h1v1h-1z M10,16h1v1h-1z M11,16h1v1h-1z M13,16h1v1h-1z M14,16h1v1h-1z M16,16h1v1h-1z M17,16h1v1h-1z M19,16h1v1h-1z M20,16h1v1h-1z M21,16h1v1h-1z M24,16h1v1h-1z M28,16h1v1h-1z M32,16h1v1h-1z M34,16h1v1h-1z M37,16h1v1h-1z M38,16h1v1h-1z M40,16h1v1h-1z M6,17h1v1h-1z M7,17h1v1h-1z M9,17h1v1h-1z M15,17h1v1h-1z M18,17h1v1h-1z M19,17h1v1h-1z M20,17h1v1h-1z M22,17h1v1h-1z M24,17h1v1h-1z M25,17h1v1h-1z M27,17h1v1h-1z M30,17h1v1h-1z M31,17h1v1h-1z M32,17h1v1h-1z M33,17h1v1h-1z M36,17h1v1h-1z M37,17h1v1h-1z M4,18h1v1h-1z M10,18h1v1h-1z M11,18h1v1h-1z M12,18h1v1h-1z M14,18h1v1h-1z M17,18h1v1h-1z M19,18h1v1h-1z M20,18h1v1h-1z M22,18h1v1h-1z M23,18h1v1h-1z M24,18h1v1h-1z M26,18h1v1h-1z M28,18h1v1h-1z M31,18h1v1h-1z M32,18h1v1h-1z M34,18h1v1h-1z M36,18h1v1h-1z M37,18h1v1h-1z M38,18h1v1h-1z M39,18h1v1h-1z M40,18h1v1h-1z M8,19h1v1h-1z M9,19h1v1h-1z M12,19h1v1h-1z M13,19h1v1h-1z M16,19h1v1h-1z M26,19h1v1h-1z M30,19h1v1h-1z M33,19h1v1h-1z M34,19h1v1h-1z M35,19h1v1h-1z M36,19h1v1h-1z M37,19h1v1h-1z M38,19h1v1h-1z M39,19h1v1h-1z M4,20h1v1h-1z M5,20h1v1h-1z M8,20h1v1h-1z M9,20h1v1h-1z M10,20h1v1h-1z M11,20h1v1h-1z M13,20h1v1h-1z M14,20h1v1h-1z M15,20h1v1h-1z M17,20h1v1h-1z M18,20h1v1h-1z M19,20h1v1h-1z M21,20h1v1h-1z M22,20h1v1h-1z M24,20h1v1h-1z M25,20h1v1h-1z M27,20h1v1h-1z M28,20h1v1h-1z M30,20h1v1h-1z M31,20h1v1h-1z M34,20h1v1h-1z M35,20h1v1h-1z M38,20h1v1h-1z M39,20h1v1h-1z M40,20h1v1h-1z M4,21h1v1h-1z M8,21h1v1h-1z M9,21h1v1h-1z M11,21h1v1h-1z M12,21h1v1h-1z M13,21h1v1h-1z M15,21h1v1h-1z M16,21h1v1h-1z M18,21h1v1h-1z M21,21h1v1h-1z M26,21h1v1h-1z M27,21h1v1h-1z M28,21h1v1h-1z M29,21h1v1h-1z M31,21h1v1h-1z M33,21h1v1h-1z M35,21h1v1h-1z M4,22h1v1h-1z M5,22h1v1h-1z M7,22h1v1h-1z M8,22h1v1h-1z M9,22h1v1h-1z M10,22h1v1h-1z M13,22h1v1h-1z M14,22h1v1h-1z M15,22h1v1h-1z M18,22h1v1h-1z M20,22h1v1h-1z M22,22h1v1h-1z M23,22h1v1h-1z M24,22h1v1h-1z M25,22h1v1h-1z M27,22h1v1h-1z M28,22h1v1h-1z M29,22h1v1h-1z M31,22h1v1h-1z M32,22h1v1h-1z M34,22h1v1h-1z M35,22h1v1h-1z M38,22h1v1h-1z M40,22h1v1h-1z M5,23h1v1h-1z M6,23h1v1h-1z M13,23h1v1h-1z M14,23h1v1h-1z M16,23h1v1h-1z M18,23h1v1h-1z M19,23h1v1h-1z M20,23h1v1h-1z M24,23h1v1h-1z M26,23h1v1h-1z M27,23h1v1h-1z M28,23h1v1h-1z M29,23h1v1h-1z M31,23h1v1h-1z M32,23h1v1h-1z M33,23h1v1h-1z M35,23h1v1h-1z M36,23h1v1h-1z M37,23h1v1h-1z M40,23h1v1h-1z M5,24h1v1h-1z M7,24h1v1h-1z M8,24h1v1h-1z M9,24h1v1h-1z M10,24h1v1h-1z M11,24h1v1h-1z M13,24h1v1h-1z M14,24h1v1h-1z M17,24h1v1h-1z M18,24h1v1h-1z M20,24h1v1h-1z M21,24h1v1h-1z M24,24h1v1h-1z M25,24h1v1h-1z M27,24h1v1h-1z M30,24h1v1h-1z M34,24h1v1h-1z M36,24h1v1h-1z M37,24h1v1h-1z M7,25h1v1h-1z M9,25h1v1h-1z M12,25h1v1h-1z M14,25h1v1h-1z M17,25h1v1h-1z M18,25h1v1h-1z M19,25h1v1h-1z M21,25h1v1h-1z M22,25h1v1h-1z M25,25h1v1h-1z M27,25h1v1h-1z M29,25h1v1h-1z M30,25h1v1h-1z M31,25h1v1h-1z M35,25h1v1h-1z M36,25h1v1h-1z M38,25h1v1h-1z M7,26h1v1h-1z M8,26h1v1h-1z M9,26h1v1h-1z M10,26h1v1h-1z M12,26h1v1h-1z M13,26h1v1h-1z M15,26h1v1h-1z M17,26h1v1h-1z M18,26h1v1h-1z M19,26h1v1h-1z M20,26h1v1h-1z M24,26h1v1h-1z M27,26h1v1h-1z M29,26h1v1h-1z M30,26h1v1h-1z M31,26h1v1h-1z M32,26h1v1h-1z M35,26h1v1h-1z M37,26h1v1h-1z M40,26h1v1h-1z M5,27h1v1h-1z M7,27h1v1h-1z M9,27h1v1h-1z M11,27h1v1h-1z M12,27h1v1h-1z M13,27h1v1h-1z M16,27h1v1h-1z M17,27h1v1h-1z M18,27h1v1h-1z M20,27h1v1h-1z M22,27h1v1h-1z M24,27h1v1h-1z M26,27h1v1h-1z M28,27h1v1h-1z M31,27h1v1h-1z M32,27h1v1h-1z M33,27h1v1h-1z M34,27h1v1h-1z M35,27h1v1h-1z M36,27h1v1h-1z M38,27h1v1h-1z M39,27h1v1h-1z M4,28h1v1h-1z M5,28h1v1h-1z M6,28h1v1h-1z M7,28h1v1h-1z M8,28h1v1h-1z M10,28h1v1h-1z M13,28h1v1h-1z M17,28h1v1h-1z M18,28h1v1h-1z M21,28h1v1h-1z M23,28h1v1h-1z M24,28h1v1h-1z M25,28h1v1h-1z M26,28h1v1h-1z M27,28h1v1h-1z M28,28h1v1h-1z M29,28h1v1h-1z M30,28h1v1h-1z M31,28h1v1h-1z M32,28h1v1h-1z M34,28h1v1h-1z M4,29h1v1h-1z M5,29h1v1h-1z M6,29h1v1h-1z M7,29h1v1h-1z M9,29h1v1h-1z M12,29h1v1h-1z M14,29h1v1h-1z M15,29h1v1h-1z M17,29h1v1h-1z M21,29h1v1h-1z M22,29h1v1h-1z M23,29h1v1h-1z M24,29h1v1h-1z M28,29h1v1h-1z M29,29h1v1h-1z M30,29h1v1h-1z M31,29h1v1h-1z M34,29h1v1h-1z M36,29h1v1h-1z M37,29h1v1h-1z M38,29h1v1h-1z M4,30h1v1h-1z M5,30h1v1h-1z M7,30h1v1h-1z M8,30h1v1h-1z M10,30h1v1h-1z M14,30h1v1h-1z M17,30h1v1h-1z M19,30h1v1h-1z M21,30h1v1h-1z M23,30h1v1h-1z M26,30h1v1h-1z M28,30h1v1h-1z M29,30h1v1h-1z M30,30h1v1h-1z M31,30h1v1h-1z M33,30h1v1h-1z M37,30h1v1h-1z M39,30h1v1h-1z M40,30h1v1h-1z M4,31h1v1h-1z M11,31h1v1h-1z M12,31h1v1h-1z M15,31h1v1h-1z M20,31h1v1h-1z M23,31h1v1h-1z M24,31h1v1h-1z M27,31h1v1h-1z M28,31h1v1h-1z M35,31h1v1h-1z M36,31h1v1h-1z M37,31h1v1h-1z M38,31h1v1h-1z M40,31h1v1h-1z M4,32h1v1h-1z M8,32h1v1h-1z M9,32h1v1h-1z M10,32h1v1h-1z M13,32h1v1h-1z M14,32h1v1h-1z M15,32h1v1h-1z M16,32h1v1h-1z M17,32h1v1h-1z M18,32h1v1h-1z M19,32h1v1h-1z M23,32h1v1h-1z M26,32h1v1h-1z M29,32h1v1h-1z M30,32h1v1h-1z M31,32h1v1h-1z M32,32h1v1h-1z M33,32h1v1h-1z M34,32h1v1h-1z M35,32h1v1h-1z M36,32h1v1h-1z M38,32h1v1h-1z M12,33h1v1h-1z M14,33h1v1h-1z M15,33h1v1h-1z M16,33h1v1h-1z M19,33h1v1h-1z M21,33h1v1h-1z M22,33h1v1h-1z M23,33h1v1h-1z M24,33h1v1h-1z M25,33h1v1h-1z M29,33h1v1h-1z M31,33h1v1h-1z M32,33h1v1h-1z M36,33h1v1h-1z M39,33h1v1h-1z M4,34h1v1h-1z M5,34h1v1h-1z M6,34h1v1h-1z M7,34h1v1h-1z M8,34h1v1h-1z M9,34h1v1h-1z M10,34h1v1h-1z M12,34h1v1h-1z M14,34h1v1h-1z M17,34h1v1h-1z M19,34h1v1h-1z M20,34h1v1h-1z M21,34h1v1h-1z M22,34h1v1h-1z M23,34h1v1h-1z M26,34h1v1h-1z M27,34h1v1h-1z M30,34h1v1h-1z M32,34h1v1h-1z M34,34h1v1h-1z M36,34h1v1h-1z M37,34h1v1h-1z M40,34h1v1h-1z M4,35h1v1h-1z M10,35h1v1h-1z M12,35h1v1h-1z M13,35h1v1h-1z M14,35h1v1h-1z M15,35h1v1h-1z M16,35h1v1h-1z M17,35h1v1h-1z M19,35h1v1h-1z M20,35h1v1h-1z M23,35h1v1h-1z M24,35h1v1h-1z M29,35h1v1h-1z M30,35h1v1h-1z M31,35h1v1h-1z M32,35h1v1h-1z M36,35h1v1h-1z M39,35h1v1h-1z M40,35h1v1h-1z M4,36h1v1h-1z M6,36h1v1h-1z M7,36h1v1h-1z M8,36h1v1h-1z M10,36h1v1h-1z M12,36h1v1h-1z M14,36h1v1h-1z M16,36h1v1h-1z M17,36h1v1h-1z M19,36h1v1h-1z M20,36h1v1h-1z M22,36h1v1h-1z M23,36h1v1h-1z M25,36h1v1h-1z M26,36h1v1h-1z M28,36h1v1h-1z M29,36h1v1h-1z M31,36h1v1h-1z M32,36h1v1h-1z M33,36h1v1h-1z M34,36h1v1h-1z M35,36h1v1h-1z M36,36h1v1h-1z M37,36h1v1h-1z M39,36h1v1h-1z M40,36h1v1h-1z M4,37h1v1h-1z M6,37h1v1h-1z M7,37h1v1h-1z M8,37h1v1h-1z M10,37h1v1h-1z M12,37h1v1h-1z M17,37h1v1h-1z M18,37h1v1h-1z M21,37h1v1h-1z M24,37h1v1h-1z M26,37h1v1h-1z M28,37h1v1h-1z M29,37h1v1h-1z M30,37h1v1h-1z M31,37h1v1h-1z M32,37h1v1h-1z M33,37h1v1h-1z M34,37h1v1h-1z M37,37h1v1h-1z M38,37h1v1h-1z M40,37h1v1h-1z M4,38h1v1h-1z M6,38h1v1h-1z M7,38h1v1h-1z M8,38h1v1h-1z M10,38h1v1h-1z M14,38h1v1h-1z M15,38h1v1h-1z M17,38h1v1h-1z M24,38h1v1h-1z M25,38h1v1h-1z M26,38h1v1h-1z M27,38h1v1h-1z M28,38h1v1h-1z M29,38h1v1h-1z M33,38h1v1h-1z M36,38h1v1h-1z M37,38h1v1h-1z M40,38h1v1h-1z M4,39h1v1h-1z M10,39h1v1h-1z M13,39h1v1h-1z M14,39h1v1h-1z M17,39h1v1h-1z M19,39h1v1h-1z M21,39h1v1h-1z M22,39h1v1h-1z M23,39h1v1h-1z M26,39h1v1h-1z M28,39h1v1h-1z M30,39h1v1h-1z M31,39h1v1h-1z M35,39h1v1h-1z M36,39h1v1h-1z M37,39h1v1h-1z M38,39h1v1h-1z M39,39h1v1h-1z M40,39h1v1h-1z M4,40h1v1h-1z M5,40h1v1h-1z M6,40h1v1h-1z M7,40h1v1h-1z M8,40h1v1h-1z M9,40h1v1h-1z M10,40h1v1h-1z M12,40h1v1h-1z M13,40h1v1h-1z M14,40h1v1h-1z M15,40h1v1h-1z M16,40h1v1h-1z M20,40h1v1h-1z M24,40h1v1h-1z M28,40h1v1h-1z M32,40h1v1h-1z M34,40h1v1h-1z M37,40h1v1h-1z M40,40h1v1h-1z" fill="#000000"/>
</svg>
