<?xml version="1.0" encoding="UTF-8"?>
<!DOCTYPE svg PUBLIC "-//W3C//DTD SVG 1.1//EN" "http://www.w3.org/Graphics/SVG/1.1/DTD/svg11.dtd">
<svg xmlns="http://www.w3.org/2000/svg" version="1.1" viewBox="0 0 41 41" stroke="none">
	<rect width="100%" height="100%" fill="#FFFFFF"/>
	<path d="M4,4h1v1h-1z M5,4h1v1h-1z M6,4h1v1h-1z M7,4h1v1h-1z M8,4h1v1h-1z M9,4h1v1h-1z M10,4h1v1h-1z M12,4h1v1h-1z M14,4h1v1h-1z M15,4h1v1h-1z M17,4h1v1h-1z M18,4h1v1h-1z M30,4h1v1h-1z M31,4h1v1h-1z M32,4h1v1h-1z M33,4h1v1h-1z M34,4h1v1h-1z M35,4h1v1h-1z M36,4h1v1h-1z M4,5h1v1h-1z M10,5h1v1h-1z M12,5h1v1h-1z M13,5h1v1h-1z M14,5h1v1h-1z M16,5h1v1h-1z M17,5h1v1h-1z M18,5h1v1h-1z M21,5h1v1h-1z M22,5h1v1h-1z M23,5h1v1h-1z M30,5h1v1h-1z M36,5h1v1h-1z M4,6h1v1h-1z M6,6h1v1h-1z M7,6h1v1h-1z M8,6h1v1h-1z M10,6h1v1h-1z M12,6h1v1h-1z M15,6h1v1h-1z M17,6h1v1h-1z M18,6h1v1h-1z M19,6h1v1h-1z M22,6h1v1h-1z M23,6h1v1h-1z M24,6h1v1h-1z M25,6h1v1h-1z M26,6h1v1h-1z M27,6h1v1h-1z M28,6h1v1h-1z M30,6h1v1h-1z M32,6h1v1h-1z M33,6h1v1h-1z M34,6h1v1h-1z M36,6h1v1h-1z M4,7h1v1h-1z M6,7h1v1h-1z M7,7h1v1h-1z M8,7h1v1h-1z M10,7h1v1h-1z M14,7h1v1h-1z M15,7h1v1h-1z M16,7h1v1h-1z M18,7h1v1h-1z M20,7h1v1h-1z M22,7h1v1h-1z M24,7h1v1h-1z M25,7h1v1h-1z M28,7h1v1h-1z M30,7h1v1h-1z M32,7h1v1h-1z M33,7h1v1h-1z M34,7h1v1h-1z M36,7h1v1h-1z M4,8h1v1h-1z M6,8h1v1h-1z M7,8h1v1h-1z M8,8h1v1h-1z M10,8h1v1h-1z M12,8h1v1h-1z M14,8h1v1h-1z M15,8h1v1h-1z M16,8h1v1h-1z M19,8h1v1h-1z M20,8h1v1h-1z M21,8h1v1h-1z M22,8h1v1h-1z M24,8h1v1h-1z M25,8h1v1h-1z M26,8h1v1h-1z M30,8h1v1h-1z M32,8h1v1h-1z M33,8h1v1h-1z M34,8h1v1h-1z M36,8h1v1h-1z M4,9h1v1h-1z M10,9h1v1h-1z M14,9h1v1h-1z M15,9h1v1h-1z M16,9h1v1h-1z M19,9h1v1h-1z M20,9h1v1h-1z M22,9h1v1h-1z M27,9h1v1h-1z M28,9h1v1h-1z M30,9h1v1h-1z M36,9h1v1h-1z M4,10h1v1h-1z M5,10h1v1h-1z M6,10h1v1h-1z M7,10h1v1h-1z M8,10h1v1h-1z M9,10h1v1h-1z M10,10h1v1h-1z M12,10h1v1h-1z M14,10h1v1h-1z M16,10h1v1h-1z M18,10h1v1h-1z M20,10h1v1h-1z M22,10h1v1h-1z M24,10h1v1h-1z M26,10h1v1h-1z M28,10h1v1h-1z M30,10h1v1h-1z M31,10h1v1h-1z M32,10h1v1h-1z M33,10h1v1h-1z M34,10h1v1h-1z M35,10h1v1h-1z M36,10h1v1h-1z M14,11h1v1h-1z M16,11h1v1h-1z M17,11h1v1h-1z M19,11h1v1h-1z M20,11h1v1h-1z M24,11h1v1h-1z M27,11h1v1h-1z M4,12h1v1h-1z M7,12h1v1h-1z M8,12h1v1h-1z M9,12h1v1h-1z M10,12h1v1h-1z M11,12h1v1h-1z M12,12h1v1h-1z M15,12h1v1h-1z M18,12h1v1h-1z M21,12h1v1h-1z M27,12h1v1h-1z M29,12h1v1h-1z M32,12h1v1h-1z M34,12h1v1h-1z M35,12h1v1h-1z M36,12h1v1h-1z M4,13h1v1h-1z M5,13h1v1h-1z M9,13h1v1h-1z M14,13h1v1h-1z M15,13h1v1h-1z M16,13h1v1h-1z M17,13h1v1h-1z M19,13h1v1h-1z M21,13h1v1h-1z M23,13h1v1h-1z M26,13h1v1h-1z M27,13h1v1h-1z M29,13h1v1h-1z M31,13h1v1h-1z M32,13h1v1h-1z M33,13h1v1h-1z M34,13h1v1h-1z M35,13h1v1h-1z M7,14h1v1h-1z M10,14h1v1h-1z M12,14h1v1h-1z M14,14h1v1h-1z M17,14h1v1h-1z M19,14h1v1h-1z M20,14h1v1h-1z M22,14h1v1h-1z M25,14h1v1h-1z M26,14h1v1h-1z M27,14h1v1h-1z M30,14h1v1h-1z M32,14h1v1h-1z M33,14h1v1h-1z M34,14h1v1h-1z M36,14h1v1h-1z M5,15h1v1h-1z M7,15h1v1h-1z M11,15h1v1h-1z M12,15h1v1h-1z M16,15h1v1h-1z M17,15h1v1h-1z M19,15h1v1h-1z M20,15h1v1h-1z M21,15h1v1h-1z M22,15h1v1h-1z M23,15h1v1h-1z M24,15h1v1h-1z M26,15h1v1h-1z M27,15h1v1h-1z M29,15h1v1h-1z M30,15h1v1h-1z M31,15h1v1h-1z M34,15h1v1h-1z M35,15h1v1h-1z M36,15h1v1h-1z M6,16h1v1h-1z M7,16h1v1h-1z M8,16h1v1h-1z M10,16h1v1h-1z M11,16h1v1h-1z M12,16h1v1h-1z M16,16h1v1h-1z M17,16h1v1h-1z M19,16h1v1h-1z M20,16h1v1h-1z M21,16h1v1h-1z M22,16h1v1h-1z M24,16h1v1h-1z M27,16h1v1h-1z M28,16h1v1h-1z M30,16h1v1h-1z M4,17h1v1h-1z M7,17h1v1h-1z M9,17h1v1h-1z M12,17h1v1h-1z M16,17h1v1h-1z M17,17h1v1h-1z M18,17h1v1h-1z M22,17h1v1h-1z M23,17h1v1h-1z M24,17h1v1h-1z M27,17h1v1h-1z M28,17h1v1h-1z M31,17h1v1h-1z M33,17h1v1h-1z M34,17h1v1h-1z M4,18h1v1h-1z M8,18h1v1h-1z M10,18h1v1h-1z M11,18h1v1h-1z M13,18h1v1h-1z M15,18h1v1h-1z M16,18h1v1h-1z M17,18h1v1h-1z M19,18h1v1h-1z M20,18h1v1h-1z M23,18h1v1h-1z M25,18h1v1h-1z M26,18h1v1h-1z M32,18h1v1h-1z M33,18h1v1h-1z M34,18h1v1h-1z M4,19h1v1h-1z M5,19h1v1h-1z M6,19h1v1h-1z M7,19h1v1h-1z M9,19h1v1h-1z M11,19h1v1h-1z M12,19h1v1h-1z M14,19h1v1h-1z M15,19h1v1h-1z M19,19h1v1h-1z M20,19h1v1h-1z M22,19h1v1h-1z M23,19h1v1h-1z M24,19h1v1h-1z M27,19h1v1h-1z M29,19h1v1h-1z M34,19h1v1h-1z M36,19h1v1h-1z M5,20h1v1h-1z M7,20h1v1h-1z M9,20h1v1h-1z M10,20h1v1h-1z M11,20h1v1h-1z M12,20h1v1h-1z M16,20h1v1h-1z M18,20h1v1h-1z M20,20h1v1h-1z M23,20h1v1h-1z M24,20h1v1h-1z M26,20h1v1h-1z M27,20h1v1h-1z M28,20h1v1h-1z M29,20h1v1h-1z M30,20h1v1h-1z M31,20h1v1h-1z M32,20h1v1h-1z M5,21h1v1h-1z M7,21h1v1h-1z M8,21h1v1h-1z M9,21h1v1h-1z M11,21h1v1h-1z M12,21h1v1h-1z M13,21h1v1h-1z M16,21h1v1h-1z M18,21h1v1h-1z M22,21h1v1h-1z M23,21h1v1h-1z M25,21h1v1h-1z M29,21h1v1h-1z M30,21h1v1h-1z M32,21h1v1h-1z M34,21h1v1h-1z M36,21h1v1h-1z M6,22h1v1h-1z M7,22h1v1h-1z M9,22h1v1h-1z M10,22h1v1h-1z M11,22h1v1h-1z M13,22h1v1h-1z M16,22h1v1h-1z M17,22h1v1h-1z M18,22h1v1h-1z M19,22h1v1h-1z M22,22h1v1h-1z M23,22h1v1h-1z M25,22h1v1h-1z M27,22h1v1h-1z M28,22h1v1h-1z M29,22h1v1h-1z M30,22h1v1h-1z M33,22h1v1h-1z M34,22h1v1h-1z M35,22h1v1h-1z M36,22h1v1h-1z M4,23h1v1h-1z M5,23h1v1h-1z M7,23h1v1h-1z M9,23h1v1h-1z M12,23h1v1h-1z M13,23h1v1h-1z M18,23h1v1h-1z M20,23h1v1h-1z M22,23h1v1h-1z M23,23h1v1h-1z M26,23h1v1h-1z M27,23h1v1h-1z M30,23h1v1h-1z M31,23h1v1h-1z M32,23h1v1h-1z M33,23h1v1h-1z M34,23h1v1h-1z M36,23h1v1h-1z M5,24h1v1h-1z M6,24h1v1h-1z M7,24h1v1h-1z M8,24h1v1h-1z M9,24h1v1h-1z M10,24h1v1h-1z M11,24h1v1h-1z M14,24h1v1h-1z M16,24h1v1h-1z M17,24h1v1h-1z M18,24h1v1h-1z M19,24h1v1h-1z M20,24h1v1h-1z M22,24h1v1h-1z M23,24h1v1h-1z M25,24h1v1h-1z M26,24h1v1h-1z M27,24h1v1h-1z M28,24h1v1h-1z M31,24h1v1h-1z M33,24h1v1h-1z M4,25h1v1h-1z M6,25h1v1h-1z M14,25h1v1h-1z M20,25h1v1h-1z M22,25h1v1h-1z M24,25h1v1h-1z M26,25h1v1h-1z M27,25h1v1h-1z M30,25h1v1h-1z M31,25h1v1h-1z M32,25h1v1h-1z M33,25h1v1h-1z M34,25h1v1h-1z M4,26h1v1h-1z M7,26h1v1h-1z M9,26h1v1h-1z M10,26h1v1h-1z M12,26h1v1h-1z M13,26h1v1h-1z M16,26h1v1h-1z M19,26h1v1h-1z M21,26h1v1h-1z M22,26h1v1h-1z M24,26h1v1h-1z M25,26h1v1h-1z M26,26h1v1h-1z M27,26h1v1h-1z M28,26h1v1h-1z M29,26h1v1h-1z M30,26h1v1h-1z M31,26h1v1h-1z M33,26h1v1h-1z M35,26h1v1h-1z M36,26h1v1h-1z M4,27h1v1h-1z M6,27h1v1h-1z M7,27h1v1h-1z M8,27h1v1h-1z M12,27h1v1h-1z M14,27h1v1h-1z M15,27h1v1h-1z M19,27h1v1h-1z M20,27h1v1h-1z M21,27h1v1h-1z M23,27h1v1h-1z M26,27h1v1h-1z M29,27h1v1h-1z M30,27h1v1h-1z M34,27h1v1h-1z M35,27h1v1h-1z M36,27h1v1h-1z M4,28h1v1h-1z M5,28h1v1h-1z M7,28h1v1h-1z M8,28h1v1h-1z M9,28h1v1h-1z M10,28h1v1h-1z M11,28h1v1h-1z M12,28h1v1h-1z M16,28h1v1h-1z M18,28h1v1h-1z M20,28h1v1h-1z M24,28h1v1h-1z M26,28h1v1h-1z M28,28h1v1h-1z M29,28h1v1h-1z M30,28h1v1h-1z M31,28h1v1h-1z M32,28h1v1h-1z M33,28h1v1h-1z M34,28h1v1h-1z M35,28h1v1h-1z M12,29h1v1h-1z M15,29h1v1h-1z M16,29h1v1h-1z M17,29h1v1h-1z M18,29h1v1h-1z M19,29h1v1h-1z M20,29h1v1h-1z M21,29h1v1h-1z M25,29h1v1h-1z M28,29h1v1h-1z M32,29h1v1h-1z M34,29h1v1h-1z M36,29h1v1h-1z M4,30h1v1h-1z M5,30h1v1h-1z M6,30h1v1h-1z M7,30h1v1h-1z M8,30h1v1h-1z M9,30h1v1h-1z M10,30h1v1h-1z M12,30h1v1h-1z M13,30h1v1h-1z M15,30h1v1h-1z M16,30h1v1h-1z M19,30h1v1h-1z M21,30h1v1h-1z M22,30h1v1h-1z M23,30h1v1h-1z M24,30h1v1h-1z M26,30h1v1h-1z M27,30h1v1h-1z M28,30h1v1h-1z M30,30h1v1h-1z M32,30h1v1h-1z M34,30h1v1h-1z M4,31h1v1h-1z M10,31h1v1h-1z M12,31h1v1h-1z M14,31h1v1h-1z M15,31h1v1h-1z M16,31h1v1h-1z M19,31h1v1h-1z M22,31h1v1h-1z M26,31h1v1h-1z M28,31h1v1h-1z M32,31h1v1h-1z M34,31h1v1h-1z M36,31h1v1h-1z M4,32h1v1h-1z M6,32h1v1h-1z M7,32h1v1h-1z M8,32h1v1h-1z M10,32h1v1h-1z M12,32h1v1h-1z M13,32h1v1h-1z M17,32h1v1h-1z M18,32h1v1h-1z M21,32h1v1h-1z M22,32h1v1h-1z M23,32h1v1h-1z M24,32h1v1h-1z M25,32h1v1h-1z M27,32h1v1h-1z M28,32h1v1h-1z M29,32h1v1h-1z M30,32h1v1h-1z M31,32h1v1h-1z M32,32h1v1h-1z M35,32h1v1h-1z M36,32h1v1h-1z M4,33h1v1h-1z M6,33h1v1h-1z M7,33h1v1h-1z M8,33h1v1h-1z M10,33h1v1h-1z M12,33h1v1h-1z M15,33h1v1h-1z M16,33h1v1h-1z M18,33h1v1h-1z M20,33h1v1h-1z M21,33h1v1h-1z M22,33h1v1h-1z M25,33h1v1h-1z M26,33h1v1h-1z M29,33h1v1h-1z M33,33h1v1h-1z M34,33h1v1h-1z M35,33h1v1h-1z M36,33h1v1h-1z M4,34h1v1h-1z M6,34h1v1h-1z M7,34h1v1h-1z M8,34h1v1h-1z M10,34h1v1h-1z M14,34h1v1h-1z M15,34h1v1h-1z M16,34h1v1h-1z M18,34h1v1h-1z M19,34h1v1h-1z M20,34h1v1h-1z M21,34h1v1h-1z M23,34h1v1h-1z M24,34h1v1h-1z M28,34h1v1h-1z M31,34h1v1h-1z M32,34h1v1h-1z M35,34h1v1h-1z M36,34h1v1h-1z M4,35h1v1h-1z M10,35h1v1h-1z M16,35h1v1h-1z M18,35h1v1h-1z M19,35h1v1h-1z M22,35h1v1h-1z M24,35h1v1h-1z M30,35h1v1h-1z M32,35h1v1h-1z M33,35h1v1h-1z M34,35h1v1h-1z M35,35h1v1h-1z M36,35h1v1h-1z M4,36h1v1h-1z M5,36h1v1h-1z M6,36h1v1h-1z M7,36h1v1h-1z M8,36h1v1h-1z M9,36h1v1h-1z M10,36h1v1h-1z M12,36h1v1h-1z M14,36h1v1h-1z M15,36h1v1h-1z M17,36h1v1h-1z M18,36h1v1h-1z M20,36h1v1h-1z M21,36h1v1h-1z M22,36h1v1h-1z M27,36h1v1h-1z M28,36h1v1h-1z M31,36h1v1h-1z" fill="#000000"/>
</svg>
