<?xml version="1.0" encoding="UTF-8"?>
<!DOCTYPE svg PUBLIC "-//W3C//DTD SVG 1.1//EN" "http://www.w3.org/Graphics/SVG/1.1/DTD/svg11.dtd">
<svg xmlns="http://www.w3.org/2000/svg" version="1.1" viewBox="0 0 45 45" stroke="none">
	<rect width="100%" height="100%" fill="#FFFFFF"/>
	<path d="M4,4h1v1h-1z M5,4h1v1h-1z M6,4h1v1h-1z M7,4h1v1h-1z M8,4h1v1h-1z M9,4h1v1h-1z M10,4h1v1h-1z M12,4h1v1h-1z M13,4h1v1h-1z M14,4h1v1h-1z M15,4h1v1h-1z M16,4h1v1h-1z M18,4h1v1h-1z M21,4h1v1h-1z M22,4h1v1h-1z M24,4h1v1h-1z M25,4h1v1h-1z M28,4h1v1h-1z M31,4h1v1h-1z M34,4h1v1h-1z M35,4h1v1h-1z M36,4h1v1h-1z M37,4h1v1h-1z M38,4h1v1h-1z M39,4h1v1h-1z M40,4h1v1h-1z M4,5h1v1h-1z M10,5h1v1h-1z M12,5h1v1h-1z M14,5h1v1h-1z M17,5h1v1h-1z M19,5h1v1h-1z M21,5h1v1h-1z M23,5h1v1h-1z M24,5h1v1h-1z M26,5h1v1h-1z M27,5h1v1h-1z M34,5h1v1h-1z M40,5h1v1h-1z M4,6h1v1h-1z M6,6h1v1h-1z M7,6h1v1h-1z M8,6h1v1h-1z M10,6h1v1h-1z M14,6h1v1h-1z M16,6h1v1h-1z M18,6h1v1h-1z M19,6h1v1h-1z M24,6h1v1h-1z M26,6h1v1h-1z M27,6h1v1h-1z M29,6h1v1h-1z M31,6h1v1h-1z M32,6h1v1h-1z M34,6h1v1h-1z M36,6h1v1h-1z M37,6h1v1h-1z M38,6h1v1h-1z M40,6h1v1h-1z M4,7h1v1h-1z M6,7h1v1h-1z M7,7h1v1h-1z M8,7h1v1h-1z M10,7h1v1h-1z M12,7h1v1h-1z M13,7h1v1h-1z M15,7h1v1h-1z M16,7h1v1h-1z M18,7h1v1h-1z M21,7h1v1h-1z M22,7h1v1h-1z M23,7h1v1h-1z M24,7h1v1h-1z M27,7h1v1h-1z M29,7h1v1h-1z M32,7h1v1h-1z M34,7h1v1h-1z M36,7h1v1h-1z M37,7h1v1h-1z M38,7h1v1h-1z M40,7h1v1h-1z M4,8h1v1h-1z M6,8h1v1h-1z M7,8h1v1h-1z M8,8h1v1h-1z M10,8h1v1h-1z M16,8h1v1h-1z M18,8h1v1h-1z M19,8h1v1h-1z M20,8h1v1h-1z M21,8h1v1h-1z M22,8h1v1h-1z M23,8h1v1h-1z M24,8h1v1h-1z M25,8h1v1h-1z M28,8h1v1h-1z M29,8h1v1h-1z M30,8h1v1h-1z M31,8h1v1h-1z M32,8h1v1h-1z M34,8h1v1h-1z M36,8h1v1h-1z M37,8h1v1h-1z M38,8h1v1h-1z M40,8h1v1h-1z M4,9h1v1h-1z M10,9h1v1h-1z M13,9h1v1h-1z M16,9h1v1h-1z M17,9h1v1h-1z M20,9h1v1h-1z M23,9h1v1h-1z M24,9h1v1h-1z M25,9h1v1h-1z M26,9h1v1h-1z M28,9h1v1h-1z M34,9h1v1h-1z M40,9h1v1h-1z M4,10h1v1h-1z M5,10h1v1h-1z M6,10h1v1h-1z M7,10h1v1h-1z M8,10h1v1h-1z M9,10h1v1h-1z M10,10h1v1h-1z M12,10h1v1h-1z M14,10h1v1h-1z M16,10h1v1h-1z M18,10h1v1h-1z M20,10h1v1h-1z M22,10h1v1h-1z M24,10h1v1h-1z M26,10h1v1h-1z M28,10h1v1h-1z M30,10h1v1h-1z M32,10h1v1h-1z M34,10h1v1h-1z M35,10h1v1h-1z M36,10h1v1h-1z M37,10h1v1h-1z M38,10h1v1h-1z M39,10h1v1h-1z M40,10h1v1h-1z M12,11h1v1h-1z M13,11h1v1h-1z M14,11h1v1h-1z M18,11h1v1h-1z M19,11h1v1h-1z M21,11h1v1h-1z M22,11h1v1h-1z M23,11h1v1h-1z M27,11h1v1h-1z M30,11h1v1h-1z M4,12h1v1h-1z M6,12h1v1h-1z M7,12h1v1h-1z M9,12h1v1h-1z M10,12h1v1h-1z M11,12h1v1h-1z M17,12h1v1h-1z M20,12h1v1h-1z M24,12h1v1h-1z M26,12h1v1h-1z M29,12h1v1h-1z M32,12h1v1h-1z M34,12h1v1h-1z M37,12h1v1h-1z M39,12h1v1h-1z M40,12h1v1h-1z M5,13h1v1h-1z M7,13h1v1h-1z M8,13h1v1h-1z M11,13h1v1h-1z M15,13h1v1h-1z M16,13h1v1h-1z M18,13h1v1h-1z M19,13h1v1h-1z M20,13h1v1h-1z M28,13h1v1h-1z M29,13h1v1h-1z M31,13h1v1h-1z M33,13h1v1h-1z M35,13h1v1h-1z M39,13h1v1h-1z M4,14h1v1h-1z M5,14h1v1h-1z M10,14h1v1h-1z M12,14h1v1h-1z M16,14h1v1h-1z M17,14h1v1h-1z M19,14h1v1h-1z M25,14h1v1h-1z M26,14h1v1h-1z M27,14h1v1h-1z M29,14h1v1h-1z M36,14h1v1h-1z M37,14h1v1h-1z M38,14h1v1h-1z M7,15h1v1h-1z M11,15h1v1h-1z M13,15h1v1h-1z M14,15h1v1h-1z M16,15h1v1h-1z M19,15h1v1h-1z M23,15h1v1h-1z M27,15h1v1h-1z M29,15h1v1h-1z M31,15h1v1h-1z M32,15h1v1h-1z M33,15h1v1h-1z M34,15h1v1h-1z M35,15h1v1h-1z M36,15h1v1h-1z M37,15h1v1h-1z M38,15h1v1h-1z M5,16h1v1h-1z M7,16h1v1h-1z M9,16h1v1h-1z M10,16h1v1h-1z M11,16h1v1h-1z M13,16h1v1h-1z M14,16h1v1h-1z M17,16h1v1h-1z M26,16h1v1h-1z M27,16h1v1h-1z M28,16h1v1h-1z M29,16h1v1h-1z M30,16h1v1h-1z M33,16h1v1h-1z M34,16h1v1h-1z M35,16h1v1h-1z M36,16h1v1h-1z M37,16h1v1h-1z M38,16h1v1h-1z M39,16h1v1h-1z M40,16h1v1h-1z M4,17h1v1h-1z M5,17h1v1h-1z M6,17h1v1h-1z M8,17h1v1h-1z M9,17h1v1h-1z M11,17h1v1h-1z M15,17h1v1h-1z M16,17h1v1h-1z M19,17h1v1h-1z M20,17h1v1h-1z M22,17h1v1h-1z M23,17h1v1h-1z M24,17h1v1h-1z M25,17h1v1h-1z M28,17h1v1h-1z M29,17h1v1h-1z M30,17h1v1h-1z M31,17h1v1h-1z M32,17h1v1h-1z M34,17h1v1h-1z M35,17h1v1h-1z M36,17h1v1h-1z M37,17h1v1h-1z M39,17h1v1h-1z M40,17h1v1h-1z M4,18h1v1h-1z M10,18h1v1h-1z M11,18h1v1h-1z M12,18h1v1h-1z M16,18h1v1h-1z M20,18h1v1h-1z M21,18h1v1h-1z M22,18h1v1h-1z M23,18h1v1h-1z M24,18h1v1h-1z M25,18h1v1h-1z M26,18h1v1h-1z M32,18h1v1h-1z M33,18h1v1h-1z M36,18h1v1h-1z M38,18h1v1h-1z M39,18h1v1h-1z M5,19h1v1h-1z M6,19h1v1h-1z M7,19h1v1h-1z M12,19h1v1h-1z M13,19h1v1h-1z M14,19h1v1h-1z M15,19h1v1h-1z M16,19h1v1h-1z M18,19h1v1h-1z M20,19h1v1h-1z M21,19h1v1h-1z M22,19h1v1h-1z M24,19h1v1h-1z M25,19h1v1h-1z M31,19h1v1h-1z M32,19h1v1h-1z M34,19h1v1h-1z M35,19h1v1h-1z M39,19h1v1h-1z M40,19h1v1h-1z M5,20h1v1h-1z M6,20h1v1h-1z M7,20h1v1h-1z M8,20h1v1h-1z M9,20h1v1h-1z M10,20h1v1h-1z M12,20h1v1h-1z M14,20h1v1h-1z M15,20h1v1h-1z M17,20h1v1h-1z M18,20h1v1h-1z M19,20h1v1h-1z M20,20h1v1h-1z M21,20h1v1h-1z M22,20h1v1h-1z M24,20h1v1h-1z M27,20h1v1h-1z M30,20h1v1h-1z M37,20h1v1h-1z M38,20h1v1h-1z M39,20h1v1h-1z M40,20h1v1h-1z M4,21h1v1h-1z M6,21h1v1h-1z M12,21h1v1h-1z M14,21h1v1h-1z M15,21h1v1h-1z M17,21h1v1h-1z M18,21h1v1h-1z M20,21h1v1h-1z M23,21h1v1h-1z M24,21h1v1h-1z M26,21h1v1h-1z M32,21h1v1h-1z M34,21h1v1h-1z M37,21h1v1h-1z M39,21h1v1h-1z M40,21h1v1h-1z M4,22h1v1h-1z M5,22h1v1h-1z M6,22h1v1h-1z M7,22h1v1h-1z M10,22h1v1h-1z M11,22h1v1h-1z M14,22h1v1h-1z M16,22h1v1h-1z M18,22h1v1h-1z M19,22h1v1h-1z M20,22h1v1h-1z M23,22h1v1h-1z M25,22h1v1h-1z M26,22h1v1h-1z M28,22h1v1h-1z M30,22h1v1h-1z M31,22h1v1h-1z M33,22h1v1h-1z M34,22h1v1h-1z M36,22h1v1h-1z M39,22h1v1h-1z M40,22h1v1h-1z M7,23h1v1h-1z M8,23h1v1h-1z M9,23h1v1h-1z M12,23h1v1h-1z M14,23h1v1h-1z M15,23h1v1h-1z M17,23h1v1h-1z M21,23h1v1h-1z M23,23h1v1h-1z M26,23h1v1h-1z M31,23h1v1h-1z M34,23h1v1h-1z M35,23h1v1h-1z M37,23h1v1h-1z M39,23h1v1h-1z M8,24h1v1h-1z M10,24h1v1h-1z M13,24h1v1h-1z M15,24h1v1h-1z M20,24h1v1h-1z M21,24h1v1h-1z M22,24h1v1h-1z M24,24h1v1h-1z M27,24h1v1h-1z M28,24h1v1h-1z M30,24h1v1h-1z M31,24h1v1h-1z M36,24h1v1h-1z M40,24h1v1h-1z M5,25h1v1h-1z M8,25h1v1h-1z M13,25h1v1h-1z M14,25h1v1h-1z M20,25h1v1h-1z M22,25h1v1h-1z M24,25h1v1h-1z M26,25h1v1h-1z M27,25h1v1h-1z M29,25h1v1h-1z M32,25h1v1h-1z M35,25h1v1h-1z M37,25h1v1h-1z M4,26h1v1h-1z M5,26h1v1h-1z M7,26h1v1h-1z M8,26h1v1h-1z M10,26h1v1h-1z M13,26h1v1h-1z M15,26h1v1h-1z M16,26h1v1h-1z M18,26h1v1h-1z M20,26h1v1h-1z M21,26h1v1h-1z M24,26h1v1h-1z M25,26h1v1h-1z M27,26h1v1h-1z M28,26h1v1h-1z M29,26h1v1h-1z M30,26h1v1h-1z M32,26h1v1h-1z M34,26h1v1h-1z M35,26h1v1h-1z M8,27h1v1h-1z M9,27h1v1h-1z M11,27h1v1h-1z M12,27h1v1h-1z M13,27h1v1h-1z M18,27h1v1h-1z M20,27h1v1h-1z M22,27h1v1h-1z M23,27h1v1h-1z M24,27h1v1h-1z M26,27h1v1h-1z M27,27h1v1h-1z M29,27h1v1h-1z M31,27h1v1h-1z M32,27h1v1h-1z M33,27h1v1h-1z M36,27h1v1h-1z M38,27h1v1h-1z M39,27h1v1h-1z M40,27h1v1h-1z M7,28h1v1h-1z M9,28h1v1h-1z M10,28h1v1h-1z M14,28h1v1h-1z M15,28h1v1h-1z M17,28h1v1h-1z M22,28h1v1h-1z M25,28h1v1h-1z M28,28h1v1h-1z M31,28h1v1h-1z M34,28h1v1h-1z M36,28h1v1h-1z M38,28h1v1h-1z M40,28h1v1h-1z M5,29h1v1h-1z M7,29h1v1h-1z M12,29h1v1h-1z M13,29h1v1h-1z M16,29h1v1h-1z M17,29h1v1h-1z M18,29h1v1h-1z M20,29h1v1h-1z M21,29h1v1h-1z M22,29h1v1h-1z M24,29h1v1h-1z M27,29h1v1h-1z M30,29h1v1h-1z M33,29h1v1h-1z M36,29h1v1h-1z M39,29h1v1h-1z M40,29h1v1h-1z M5,30h1v1h-1z M6,30h1v1h-1z M9,30h1v1h-1z M10,30h1v1h-1z M12,30h1v1h-1z M14,30h1v1h-1z M15,30h1v1h-1z M16,30h1v1h-1z M17,30h1v1h-1z M18,30h1v1h-1z M19,30h1v1h-1z M20,30h1v1h-1z M22,30h1v1h-1z M23,30h1v1h-1z M25,30h1v1h-1z M26,30h1v1h-1z M29,30h1v1h-1z M30,30h1v1h-1z M32,30h1v1h-1z M33,30h1v1h-1z M34,30h1v1h-1z M35,30h1v1h-1z M36,30h1v1h-1z M37,30h1v1h-1z M38,30h1v1h-1z M39,30h1v1h-1z M4,31h1v1h-1z M6,31h1v1h-1z M7,31h1v1h-1z M9,31h1v1h-1z M13,31h1v1h-1z M14,31h1v1h-1z M16,31h1v1h-1z M17,31h1v1h-1z M18,31h1v1h-1z M20,31h1v1h-1z M23,31h1v1h-1z M25,31h1v1h-1z M26,31h1v1h-1z M27,31h1v1h-1z M28,31h1v1h-1z M30,31h1v1h-1z M37,31h1v1h-1z M39,31h1v1h-1z M40,31h1v1h-1z M8,32h1v1h-1z M9,32h1v1h-1z M10,32h1v1h-1z M12,32h1v1h-1z M13,32h1v1h-1z M15,32h1v1h-1z M18,32h1v1h-1z M19,32h1v1h-1z M22,32h1v1h-1z M23,32h1v1h-1z M25,32h1v1h-1z M26,32h1v1h-1z M28,32h1v1h-1z M29,32h1v1h-1z M30,32h1v1h-1z M31,32h1v1h-1z M32,32h1v1h-1z M33,32h1v1h-1z M34,32h1v1h-1z M35,32h1v1h-1z M36,32h1v1h-1z M37,32h1v1h-1z M38,32h1v1h-1z M39,32h1v1h-1z M40,32h1v1h-1z M12,33h1v1h-1z M13,33h1v1h-1z M15,33h1v1h-1z M16,33h1v1h-1z M18,33h1v1h-1z M19,33h1v1h-1z M21,33h1v1h-1z M22,33h1v1h-1z M24,33h1v1h-1z M25,33h1v1h-1z M27,33h1v1h-1z M28,33h1v1h-1z M31,33h1v1h-1z M32,33h1v1h-1z M36,33h1v1h-1z M39,33h1v1h-1z M4,34h1v1h-1z M5,34h1v1h-1z M6,34h1v1h-1z M7,34h1v1h-1z M8,34h1v1h-1z M9,34h1v1h-1z M10,34h1v1h-1z M12,34h1v1h-1z M14,34h1v1h-1z M18,34h1v1h-1z M19,34h1v1h-1z M21,34h1v1h-1z M24,34h1v1h-1z M29,34h1v1h-1z M32,34h1v1h-1z M34,34h1v1h-1z M36,34h1v1h-1z M37,34h1v1h-1z M38,34h1v1h-1z M39,34h1v1h-1z M40,34h1v1h-1z M4,35h1v1h-1z M10,35h1v1h-1z M12,35h1v1h-1z M14,35h1v1h-1z M18,35h1v1h-1z M20,35h1v1h-1z M24,35h1v1h-1z M27,35h1v1h-1z M28,35h1v1h-1z M30,35h1v1h-1z M31,35h1v1h-1z M32,35h1v1h-1z M36,35h1v1h-1z M40,35h1v1h-1z M4,36h1v1h-1z M6,36h1v1h-1z M7,36h1v1h-1z M8,36h1v1h-1z M10,36h1v1h-1z M14,36h1v1h-1z M15,36h1v1h-1z M16,36h1v1h-1z M18,36h1v1h-1z M22,36h1v1h-1z M23,36h1v1h-1z M26,36h1v1h-1z M29,36h1v1h-1z M32,36h1v1h-1z M33,36h1v1h-1z M34,36h1v1h-1z M35,36h1v1h-1z M36,36h1v1h-1z M39,36h1v1h-1z M4,37h1v1h-1z M6,37h1v1h-1z M7,37h1v1h-1z M8,37h1v1h-1z M10,37h1v1h-1z M12,37h1v1h-1z M15,37h1v1h-1z M19,37h1v1h-1z M22,37h1v1h-1z M25,37h1v1h-1z M28,37h1v1h-1z M29,37h1v1h-1z M33,37h1v1h-1z M34,37h1v1h-1z M36,37h1v1h-1z M37,37h1v1h-1z M40,37h1v1h-1z M4,38h1v1h-1z M6,38h1v1h-1z M7,38h1v1h-1z M8,38h1v1h-1z M10,38h1v1h-1z M12,38h1v1h-1z M13,38h1v1h-1z M16,38h1v1h-1z M20,38h1v1h-1z M24,38h1v1h-1z M26,38h1v1h-1z M27,38h1v1h-1z M29,38h1v1h-1z M31,38h1v1h-1z M33,38h1v1h-1z M34,38h1v1h-1z M36,38h1v1h-1z M37,38h1v1h-1z M4,39h1v1h-1z M10,39h1v1h-1z M13,39h1v1h-1z M14,39h1v1h-1z M20,39h1v1h-1z M22,39h1v1h-1z M26,39h1v1h-1z M27,39h1v1h-1z M29,39h1v1h-1z M30,39h1v1h-1z M32,39h1v1h-1z M34,39h1v1h-1z M36,39h1v1h-1z M38,39h1v1h-1z M4,40h1v1h-1z M5,40h1v1h-1z M6,40h1v1h-1z M7,40h1v1h-1z M8,40h1v1h-1z M9,40h1v1h-1z M10,40h1v1h-1z M12,40h1v1h-1z M14,40h1v1h-1z M15,40h1v1h-1z M18,40h1v1h-1z M19,40h1v1h-1z M20,40h1v1h-1z M21,40h1v1h-1z M23,40h1v1h-1z M26,40h1v1h-1z M27,40h1v1h-1z M28,40h1v1h-1z M29,40h1v1h-1z M30,40h1v1h-1z M31,40h1v1h-1z M35,40h1v1h-1z M36,40h1v1h-1z M38,40h1v1h-1z M39,40h1v1h-1z M40,40h1v1h-1z" fill="#000000"/>
</svg>
