<?xml version="1.0" encoding="UTF-8"?>
<!DOCTYPE svg PUBLIC "-//W3C//DTD SVG 1.1//EN" "http://www.w3.org/Graphics/SVG/1.1/DTD/svg11.dtd">
<svg xmlns="http://www.w3.org/2000/svg" version="1.1" viewBox="0 0 61 61" stroke="none">
	<rect width="100%" height="100%" fill="#FFFFFF"/>
	<path d="M4,4h1v1h-1z M5,4h1v1h-1z M6,4h1v1h-1z M7,4h1v1h-1z M8,4h1v1h-1z M9,4h1v1h-1z M10,4h1v1h-1z M12,4h1v1h-1z M16,4h1v1h-1z M18,4h1v1h-1z M19,4h1v1h-1z M20,4h1v1h-1z M21,4h1v1h-1z M22,4h1v1h-1z M23,4h1v1h-1z M28,4h1v1h-1z M32,4h1v1h-1z M34,4h1v1h-1z M35,4h1v1h-1z M37,4h1v1h-1z M39,4h1v1h-1z M40,4h1v1h-1z M41,4h1v1h-1z M42,4h1v1h-1z M43,4h1v1h-1z M44,4h1v1h-1z M46,4h1v1h-1z M50,4h1v1h-1z M51,4h1v1h-1z M52,4h1v1h-1z M53,4h1v1h-1z M54,4h1v1h-1z M55,4h1v1h-1z M56,4h1v1h-1z M4,5h1v1h-1z M10,5h1v1h-1z M12,5h1v1h-1z M16,5h1v1h-1z M21,5h1v1h-1z M22,5h1v1h-1z M23,5h1v1h-1z M25,5h1v1h-1z M26,5h1v1h-1z M29,5h1v1h-1z M30,5h1v1h-1z M33,5h1v1h-1z M34,5h1v1h-1z M35,5h1v1h-1z M36,5h1v1h-1z M38,5h1v1h-1z M42,5h1v1h-1z M43,5h1v1h-1z M44,5h1v1h-1z M46,5h1v1h-1z M47,5h1v1h-1z M50,5h1v1h-1z M56,5h1v1h-1z M4,6h1v1h-1z M6,6h1v1h-1z M7,6h1v1h-1z M8,6h1v1h-1z M10,6h1v1h-1z M13,6h1v1h-1z M15,6h1v1h-1z M16,6h1v1h-1z M17,6h1v1h-1z M18,6h1v1h-1z M19,6h1v1h-1z M23,6h1v1h-1z M25,6h1v1h-1z M29,6h1v1h-1z M32,6h1v1h-1z M36,6h1v1h-1z M39,6h1v1h-1z M47,6h1v1h-1z M50,6h1v1h-1z M52,6h1v1h-1z M53,6h1v1h-1z M54,6h1v1h-1z M56,6h1v1h-1z M4,7h1v1h-1z M6,7h1v1h-1z M7,7h1v1h-1z M8,7h1v1h-1z M10,7h1v1h-1z M12,7h1v1h-1z M13,7h1v1h-1z M14,7h1v1h-1z M15,7h1v1h-1z M19,7h1v1h-1z M20,7h1v1h-1z M29,7h1v1h-1z M32,7h1v1h-1z M35,7h1v1h-1z M37,7h1v1h-1z M40,7h1v1h-1z M43,7h1v1h-1z M46,7h1v1h-1z M48,7h1v1h-1z M50,7h1v1h-1z M52,7h1v1h-1z M53,7h1v1h-1z M54,7h1v1h-1z M56,7h1v1h-1z M4,8h1v1h-1z M6,8h1v1h-1z M7,8h1v1h-1z M8,8h1v1h-1z M10,8h1v1h-1z M13,8h1v1h-1z M14,8h1v1h-1z M17,8h1v1h-1z M18,8h1v1h-1z M19,8h1v1h-1z M20,8h1v1h-1z M21,8h1v1h-1z M26,8h1v1h-1z M28,8h1v1h-1z M29,8h1v1h-1z M30,8h1v1h-1z M31,8h1v1h-1z M32,8h1v1h-1z M33,8h1v1h-1z M35,8h1v1h-1z M36,8h1v1h-1z M37,8h1v1h-1z M41,8h1v1h-1z M42,8h1v1h-1z M45,8h1v1h-1z M46,8h1v1h-1z M50,8h1v1h-1z M52,8h1v1h-1z M53,8h1v1h-1z M54,8h1v1h-1z M56,8h1v1h-1z M4,9h1v1h-1z M10,9h1v1h-1z M13,9h1v1h-1z M14,9h1v1h-1z M15,9h1v1h-1z M16,9h1v1h-1z M18,9h1v1h-1z M20,9h1v1h-1z M21,9h1v1h-1z M24,9h1v1h-1z M28,9h1v1h-1z M32,9h1v1h-1z M33,9h1v1h-1z M34,9h1v1h-1z M35,9h1v1h-1z M41,9h1v1h-1z M42,9h1v1h-1z M43,9h1v1h-1z M46,9h1v1h-1z M50,9h1v1h-1z M56,9h1v1h-1z M4,10h1v1h-1z M5,10h1v1h-1z M6,10h1v1h-1z M7,10h1v1h-1z M8,10h1v1h-1z M9,10h1v1h-1z M10,10h1v1h-1z M12,10h1v1h-1z M14,10h1v1h-1z M16,10h1v1h-1z M18,10h1v1h-1z M20,10h1v1h-1z M22,10h1v1h-1z M24,10h1v1h-1z M26,10h1v1h-1z M28,10h1v1h-1z M30,10h1v1h-1z M32,10h1v1h-1z M34,10h1v1h-1z M36,10h1v1h-1z M38,10h1v1h-1z M40,10h1v1h-1z M42,10h1v1h-1z M44,10h1v1h-1z M46,10h1v1h-1z M48,10h1v1h-1z M50,10h1v1h-1z M51,10h1v1h-1z M52,10h1v1h-1z M53,10h1v1h-1z M54,10h1v1h-1z M55,10h1v1h-1z M56,10h1v1h-1z M12,11h1v1h-1z M15,11h1v1h-1z M16,11h1v1h-1z M17,11h1v1h-1z M18,11h1v1h-1z M21,11h1v1h-1z M23,11h1v1h-1z M24,11h1v1h-1z M27,11h1v1h-1z M28,11h1v1h-1z M32,11h1v1h-1z M33,11h1v1h-1z M36,11h1v1h-1z M37,11h1v1h-1z M38,11h1v1h-1z M40,11h1v1h-1z M42,11h1v1h-1z M43,11h1v1h-1z M44,11h1v1h-1z M47,11h1v1h-1z M4,12h1v1h-1z M6,12h1v1h-1z M7,12h1v1h-1z M9,12h1v1h-1z M10,12h1v1h-1z M11,12h1v1h-1z M15,12h1v1h-1z M16,12h1v1h-1z M17,12h1v1h-1z M18,12h1v1h-1z M19,12h1v1h-1z M26,12h1v1h-1z M27,12h1v1h-1z M28,12h1v1h-1z M29,12h1v1h-1z M30,12h1v1h-1z M31,12h1v1h-1z M32,12h1v1h-1z M34,12h1v1h-1z M36,12h1v1h-1z M37,12h1v1h-1z M39,12h1v1h-1z M41,12h1v1h-1z M42,12h1v1h-1z M43,12h1v1h-1z M44,12h1v1h-1z M45,12h1v1h-1z M46,12h1v1h-1z M48,12h1v1h-1z M50,12h1v1h-1z M53,12h1v1h-1z M55,12h1v1h-1z M56,12h1v1h-1z M4,13h1v1h-1z M9,13h1v1h-1z M11,13h1v1h-1z M12,13h1v1h-1z M14,13h1v1h-1z M15,13h1v1h-1z M17,13h1v1h-1z M19,13h1v1h-1z M21,13h1v1h-1z M22,13h1v1h-1z M23,13h1v1h-1z M24,13h1v1h-1z M26,13h1v1h-1z M28,13h1v1h-1z M29,13h1v1h-1z M31,13h1v1h-1z M32,13h1v1h-1z M34,13h1v1h-1z M36,13h1v1h-1z M39,13h1v1h-1z M40,13h1v1h-1z M44,13h1v1h-1z M45,13h1v1h-1z M46,13h1v1h-1z M47,13h1v1h-1z M49,13h1v1h-1z M53,13h1v1h-1z M54,13h1v1h-1z M56,13h1v1h-1z M8,14h1v1h-1z M9,14h1v1h-1z M10,14h1v1h-1z M12,14h1v1h-1z M13,14h1v1h-1z M14,14h1v1h-1z M15,14h1v1h-1z M16,14h1v1h-1z M17,14h1v1h-1z M18,14h1v1h-1z M19,14h1v1h-1z M20,14h1v1h-1z M21,14h1v1h-1z M24,14h1v1h-1z M25,14h1v1h-1z M26,14h1v1h-1z M27,14h1v1h-1z M28,14h1v1h-1z M30,14h1v1h-1z M31,14h1v1h-1z M34,14h1v1h-1z M35,14h1v1h-1z M37,14h1v1h-1z M38,14h1v1h-1z M43,14h1v1h-1z M44,14h1v1h-1z M46,14h1v1h-1z M47,14h1v1h-1z M48,14h1v1h-1z M50,14h1v1h-1z M51,14h1v1h-1z M52,14h1v1h-1z M55,14h1v1h-1z M4,15h1v1h-1z M5,15h1v1h-1z M7,15h1v1h-1z M11,15h1v1h-1z M13,15h1v1h-1z M15,15h1v1h-1z M18,15h1v1h-1z M20,15h1v1h-1z M21,15h1v1h-1z M24,15h1v1h-1z M26,15h1v1h-1z M35,15h1v1h-1z M36,15h1v1h-1z M38,15h1v1h-1z M40,15h1v1h-1z M41,15h1v1h-1z M45,15h1v1h-1z M47,15h1v1h-1z M49,15h1v1h-1z M50,15h1v1h-1z M51,15h1v1h-1z M52,15h1v1h-1z M53,15h1v1h-1z M56,15h1v1h-1z M5,16h1v1h-1z M6,16h1v1h-1z M10,16h1v1h-1z M11,16h1v1h-1z M12,16h1v1h-1z M13,16h1v1h-1z M18,16h1v1h-1z M19,16h1v1h-1z M20,16h1v1h-1z M21,16h1v1h-1z M25,16h1v1h-1z M30,16h1v1h-1z M32,16h1v1h-1z M33,16h1v1h-1z M34,16h1v1h-1z M37,16h1v1h-1z M39,16h1v1h-1z M40,16h1v1h-1z M42,16h1v1h-1z M43,16h1v1h-1z M45,16h1v1h-1z M46,16h1v1h-1z M47,16h1v1h-1z M49,16h1v1h-1z M52,16h1v1h-1z M53,16h1v1h-1z M54,16h1v1h-1z M55,16h1v1h-1z M56,16h1v1h-1z M5,17h1v1h-1z M6,17h1v1h-1z M8,17h1v1h-1z M9,17h1v1h-1z M12,17h1v1h-1z M13,17h1v1h-1z M14,17h1v1h-1z M15,17h1v1h-1z M18,17h1v1h-1z M19,17h1v1h-1z M20,17h1v1h-1z M21,17h1v1h-1z M23,17h1v1h-1z M26,17h1v1h-1z M27,17h1v1h-1z M29,17h1v1h-1z M32,17h1v1h-1z M33,17h1v1h-1z M35,17h1v1h-1z M37,17h1v1h-1z M39,17h1v1h-1z M41,17h1v1h-1z M42,17h1v1h-1z M44,17h1v1h-1z M47,17h1v1h-1z M48,17h1v1h-1z M49,17h1v1h-1z M51,17h1v1h-1z M52,17h1v1h-1z M54,17h1v1h-1z M5,18h1v1h-1z M7,18h1v1h-1z M8,18h1v1h-1z M10,18h1v1h-1z M11,18h1v1h-1z M20,18h1v1h-1z M22,18h1v1h-1z M23,18h1v1h-1z M25,18h1v1h-1z M26,18h1v1h-1z M27,18h1v1h-1z M30,18h1v1h-1z M31,18h1v1h-1z M32,18h1v1h-1z M33,18h1v1h-1z M35,18h1v1h-1z M37,18h1v1h-1z M38,18h1v1h-1z M42,18h1v1h-1z M45,18h1v1h-1z M47,18h1v1h-1z M53,18h1v1h-1z M54,18h1v1h-1z M55,18h1v1h-1z M56,18h1v1h-1z M4,19h1v1h-1z M5,19h1v1h-1z M6,19h1v1h-1z M7,19h1v1h-1z M8,19h1v1h-1z M11,19h1v1h-1z M13,19h1v1h-1z M14,19h1v1h-1z M17,19h1v1h-1z M18,19h1v1h-1z M21,19h1v1h-1z M23,19h1v1h-1z M24,19h1v1h-1z M26,19h1v1h-1z M27,19h1v1h-1z M28,19h1v1h-1z M29,19h1v1h-1z M32,19h1v1h-1z M33,19h1v1h-1z M34,19h1v1h-1z M35,19h1v1h-1z M36,19h1v1h-1z M38,19h1v1h-1z M39,19h1v1h-1z M44,19h1v1h-1z M45,19h1v1h-1z M47,19h1v1h-1z M50,19h1v1h-1z M55,19h1v1h-1z M4,20h1v1h-1z M5,20h1v1h-1z M6,20h1v1h-1z M7,20h1v1h-1z M8,20h1v1h-1z M9,20h1v1h-1z M10,20h1v1h-1z M12,20h1v1h-1z M14,20h1v1h-1z M15,20h1v1h-1z M19,20h1v1h-1z M22,20h1v1h-1z M25,20h1v1h-1z M31,20h1v1h-1z M32,20h1v1h-1z M33,20h1v1h-1z M36,20h1v1h-1z M38,20h1v1h-1z M43,20h1v1h-1z M46,20h1v1h-1z M47,20h1v1h-1z M48,20h1v1h-1z M49,20h1v1h-1z M50,20h1v1h-1z M53,20h1v1h-1z M56,20h1v1h-1z M6,21h1v1h-1z M11,21h1v1h-1z M12,21h1v1h-1z M13,21h1v1h-1z M15,21h1v1h-1z M16,21h1v1h-1z M17,21h1v1h-1z M18,21h1v1h-1z M21,21h1v1h-1z M23,21h1v1h-1z M24,21h1v1h-1z M25,21h1v1h-1z M27,21h1v1h-1z M29,21h1v1h-1z M31,21h1v1h-1z M36,21h1v1h-1z M37,21h1v1h-1z M39,21h1v1h-1z M43,21h1v1h-1z M45,21h1v1h-1z M49,21h1v1h-1z M50,21h1v1h-1z M51,21h1v1h-1z M52,21h1v1h-1z M53,21h1v1h-1z M7,22h1v1h-1z M8,22h1v1h-1z M9,22h1v1h-1z M10,22h1v1h-1z M11,22h1v1h-1z M12,22h1v1h-1z M14,22h1v1h-1z M15,22h1v1h-1z M16,22h1v1h-1z M17,22h1v1h-1z M18,22h1v1h-1z M20,22h1v1h-1z M21,22h1v1h-1z M22,22h1v1h-1z M23,22h1v1h-1z M26,22h1v1h-1z M27,22h1v1h-1z M29,22h1v1h-1z M30,22h1v1h-1z M35,22h1v1h-1z M36,22h1v1h-1z M37,22h1v1h-1z M39,22h1v1h-1z M40,22h1v1h-1z M42,22h1v1h-1z M43,22h1v1h-1z M46,22h1v1h-1z M47,22h1v1h-1z M49,22h1v1h-1z M52,22h1v1h-1z M53,22h1v1h-1z M4,23h1v1h-1z M5,23h1v1h-1z M6,23h1v1h-1z M7,23h1v1h-1z M8,23h1v1h-1z M9,23h1v1h-1z M11,23h1v1h-1z M13,23h1v1h-1z M14,23h1v1h-1z M15,23h1v1h-1z M18,23h1v1h-1z M24,23h1v1h-1z M26,23h1v1h-1z M27,23h1v1h-1z M29,23h1v1h-1z M30,23h1v1h-1z M31,23h1v1h-1z M32,23h1v1h-1z M34,23h1v1h-1z M37,23h1v1h-1z M38,23h1v1h-1z M39,23h1v1h-1z M40,23h1v1h-1z M42,23h1v1h-1z M43,23h1v1h-1z M45,23h1v1h-1z M48,23h1v1h-1z M50,23h1v1h-1z M51,23h1v1h-1z M53,23h1v1h-1z M54,23h1v1h-1z M56,23h1v1h-1z M4,24h1v1h-1z M5,24h1v1h-1z M6,24h1v1h-1z M7,24h1v1h-1z M10,24h1v1h-1z M12,24h1v1h-1z M15,24h1v1h-1z M16,24h1v1h-1z M17,24h1v1h-1z M18,24h1v1h-1z M21,24h1v1h-1z M23,24h1v1h-1z M24,24h1v1h-1z M25,24h1v1h-1z M27,24h1v1h-1z M28,24h1v1h-1z M30,24h1v1h-1z M32,24h1v1h-1z M33,24h1v1h-1z M34,24h1v1h-1z M37,24h1v1h-1z M39,24h1v1h-1z M44,24h1v1h-1z M46,24h1v1h-1z M48,24h1v1h-1z M49,24h1v1h-1z M50,24h1v1h-1z M51,24h1v1h-1z M53,24h1v1h-1z M54,24h1v1h-1z M55,24h1v1h-1z M4,25h1v1h-1z M7,25h1v1h-1z M11,25h1v1h-1z M12,25h1v1h-1z M14,25h1v1h-1z M15,25h1v1h-1z M17,25h1v1h-1z M19,25h1v1h-1z M22,25h1v1h-1z M23,25h1v1h-1z M24,25h1v1h-1z M25,25h1v1h-1z M27,25h1v1h-1z M31,25h1v1h-1z M33,25h1v1h-1z M34,25h1v1h-1z M39,25h1v1h-1z M40,25h1v1h-1z M46,25h1v1h-1z M47,25h1v1h-1z M51,25h1v1h-1z M53,25h1v1h-1z M54,25h1v1h-1z M56,25h1v1h-1z M4,26h1v1h-1z M6,26h1v1h-1z M7,26h1v1h-1z M8,26h1v1h-1z M9,26h1v1h-1z M10,26h1v1h-1z M13,26h1v1h-1z M16,26h1v1h-1z M17,26h1v1h-1z M20,26h1v1h-1z M22,26h1v1h-1z M24,26h1v1h-1z M26,26h1v1h-1z M27,26h1v1h-1z M29,26h1v1h-1z M31,26h1v1h-1z M32,26h1v1h-1z M33,26h1v1h-1z M34,26h1v1h-1z M35,26h1v1h-1z M38,26h1v1h-1z M40,26h1v1h-1z M41,26h1v1h-1z M42,26h1v1h-1z M45,26h1v1h-1z M46,26h1v1h-1z M47,26h1v1h-1z M49,26h1v1h-1z M50,26h1v1h-1z M52,26h1v1h-1z M4,27h1v1h-1z M7,27h1v1h-1z M9,27h1v1h-1z M12,27h1v1h-1z M14,27h1v1h-1z M15,27h1v1h-1z M16,27h1v1h-1z M18,27h1v1h-1z M21,27h1v1h-1z M24,27h1v1h-1z M27,27h1v1h-1z M28,27h1v1h-1z M35,27h1v1h-1z M36,27h1v1h-1z M38,27h1v1h-1z M41,27h1v1h-1z M45,27h1v1h-1z M46,27h1v1h-1z M52,27h1v1h-1z M56,27h1v1h-1z M6,28h1v1h-1z M8,28h1v1h-1z M9,28h1v1h-1z M10,28h1v1h-1z M11,28h1v1h-1z M12,28h1v1h-1z M14,28h1v1h-1z M15,28h1v1h-1z M16,28h1v1h-1z M18,28h1v1h-1z M22,28h1v1h-1z M24,28h1v1h-1z M28,28h1v1h-1z M29,28h1v1h-1z M30,28h1v1h-1z M31,28h1v1h-1z M32,28h1v1h-1z M34,28h1v1h-1z M35,28h1v1h-1z M39,28h1v1h-1z M41,28h1v1h-1z M43,28h1v1h-1z M47,28h1v1h-1z M48,28h1v1h-1z M49,28h1v1h-1z M50,28h1v1h-1z M51,28h1v1h-1z M52,28h1v1h-1z M53,28h1v1h-1z M54,28h1v1h-1z M55,28h1v1h-1z M5,29h1v1h-1z M7,29h1v1h-1z M8,29h1v1h-1z M12,29h1v1h-1z M16,29h1v1h-1z M18,29h1v1h-1z M20,29h1v1h-1z M21,29h1v1h-1z M24,29h1v1h-1z M25,29h1v1h-1z M26,29h1v1h-1z M28,29h1v1h-1z M32,29h1v1h-1z M33,29h1v1h-1z M36,29h1v1h-1z M37,29h1v1h-1z M39,29h1v1h-1z M40,29h1v1h-1z M41,29h1v1h-1z M42,29h1v1h-1z M43,29h1v1h-1z M46,29h1v1h-1z M47,29h1v1h-1z M48,29h1v1h-1z M52,29h1v1h-1z M53,29h1v1h-1z M54,29h1v1h-1z M56,29h1v1h-1z M4,30h1v1h-1z M5,30h1v1h-1z M6,30h1v1h-1z M7,30h1v1h-1z M8,30h1v1h-1z M10,30h1v1h-1z M12,30h1v1h-1z M14,30h1v1h-1z M19,30h1v1h-1z M23,30h1v1h-1z M26,30h1v1h-1z M27,30h1v1h-1z M28,30h1v1h-1z M30,30h1v1h-1z M32,30h1v1h-1z M33,30h1v1h-1z M34,30h1v1h-1z M39,30h1v1h-1z M40,30h1v1h-1z M42,30h1v1h-1z M44,30h1v1h-1z M48,30h1v1h-1z M50,30h1v1h-1z M52,30h1v1h-1z M53,30h1v1h-1z M55,30h1v1h-1z M56,30h1v1h-1z M5,31h1v1h-1z M8,31h1v1h-1z M12,31h1v1h-1z M13,31h1v1h-1z M14,31h1v1h-1z M17,31h1v1h-1z M21,31h1v1h-1z M22,31h1v1h-1z M25,31h1v1h-1z M27,31h1v1h-1z M28,31h1v1h-1z M32,31h1v1h-1z M35,31h1v1h-1z M37,31h1v1h-1z M39,31h1v1h-1z M41,31h1v1h-1z M42,31h1v1h-1z M43,31h1v1h-1z M44,31h1v1h-1z M45,31h1v1h-1z M46,31h1v1h-1z M48,31h1v1h-1z M52,31h1v1h-1z M53,31h1v1h-1z M56,31h1v1h-1z M4,32h1v1h-1z M5,32h1v1h-1z M7,32h1v1h-1z M8,32h1v1h-1z M9,32h1v1h-1z M10,32h1v1h-1z M11,32h1v1h-1z M12,32h1v1h-1z M13,32h1v1h-1z M14,32h1v1h-1z M15,32h1v1h-1z M16,32h1v1h-1z M17,32h1v1h-1z M18,32h1v1h-1z M20,32h1v1h-1z M23,32h1v1h-1z M24,32h1v1h-1z M27,32h1v1h-1z M28,32h1v1h-1z M29,32h1v1h-1z M30,32h1v1h-1z M31,32h1v1h-1z M32,32h1v1h-1z M33,32h1v1h-1z M34,32h1v1h-1z M36,32h1v1h-1z M38,32h1v1h-1z M43,32h1v1h-1z M46,32h1v1h-1z M48,32h1v1h-1z M49,32h1v1h-1z M50,32h1v1h-1z M51,32h1v1h-1z M52,32h1v1h-1z M53,32h1v1h-1z M55,32h1v1h-1z M56,32h1v1h-1z M5,33h1v1h-1z M6,33h1v1h-1z M8,33h1v1h-1z M11,33h1v1h-1z M12,33h1v1h-1z M13,33h1v1h-1z M18,33h1v1h-1z M19,33h1v1h-1z M20,33h1v1h-1z M23,33h1v1h-1z M25,33h1v1h-1z M27,33h1v1h-1z M31,33h1v1h-1z M33,33h1v1h-1z M37,33h1v1h-1z M38,33h1v1h-1z M39,33h1v1h-1z M40,33h1v1h-1z M41,33h1v1h-1z M44,33h1v1h-1z M47,33h1v1h-1z M48,33h1v1h-1z M51,33h1v1h-1z M54,33h1v1h-1z M4,34h1v1h-1z M10,34h1v1h-1z M12,34h1v1h-1z M13,34h1v1h-1z M14,34h1v1h-1z M16,34h1v1h-1z M18,34h1v1h-1z M19,34h1v1h-1z M22,34h1v1h-1z M23,34h1v1h-1z M25,34h1v1h-1z M28,34h1v1h-1z M29,34h1v1h-1z M30,34h1v1h-1z M31,34h1v1h-1z M32,34h1v1h-1z M33,34h1v1h-1z M34,34h1v1h-1z M38,34h1v1h-1z M39,34h1v1h-1z M42,34h1v1h-1z M43,34h1v1h-1z M49,34h1v1h-1z M53,34h1v1h-1z M4,35h1v1h-1z M6,35h1v1h-1z M8,35h1v1h-1z M9,35h1v1h-1z M12,35h1v1h-1z M14,35h1v1h-1z M15,35h1v1h-1z M16,35h1v1h-1z M18,35h1v1h-1z M19,35h1v1h-1z M20,35h1v1h-1z M21,35h1v1h-1z M22,35h1v1h-1z M23,35h1v1h-1z M26,35h1v1h-1z M27,35h1v1h-1z M28,35h1v1h-1z M34,35h1v1h-1z M35,35h1v1h-1z M37,35h1v1h-1z M40,35h1v1h-1z M41,35h1v1h-1z M42,35h1v1h-1z M43,35h1v1h-1z M44,35h1v1h-1z M45,35h1v1h-1z M47,35h1v1h-1z M49,35h1v1h-1z M50,35h1v1h-1z M51,35h1v1h-1z M53,35h1v1h-1z M54,35h1v1h-1z M55,35h1v1h-1z M4,36h1v1h-1z M6,36h1v1h-1z M7,36h1v1h-1z M8,36h1v1h-1z M9,36h1v1h-1z M10,36h1v1h-1z M11,36h1v1h-1z M12,36h1v1h-1z M14,36h1v1h-1z M15,36h1v1h-1z M16,36h1v1h-1z M17,36h1v1h-1z M18,36h1v1h-1z M19,36h1v1h-1z M20,36h1v1h-1z M22,36h1v1h-1z M24,36h1v1h-1z M25,36h1v1h-1z M26,36h1v1h-1z M27,36h1v1h-1z M30,36h1v1h-1z M34,36h1v1h-1z M39,36h1v1h-1z M41,36h1v1h-1z M44,36h1v1h-1z M46,36h1v1h-1z M47,36h1v1h-1z M49,36h1v1h-1z M51,36h1v1h-1z M52,36h1v1h-1z M54,36h1v1h-1z M5,37h1v1h-1z M6,37h1v1h-1z M11,37h1v1h-1z M14,37h1v1h-1z M20,37h1v1h-1z M21,37h1v1h-1z M22,37h1v1h-1z M23,37h1v1h-1z M24,37h1v1h-1z M25,37h1v1h-1z M26,37h1v1h-1z M27,37h1v1h-1z M28,37h1v1h-1z M31,37h1v1h-1z M33,37h1v1h-1z M36,37h1v1h-1z M39,37h1v1h-1z M40,37h1v1h-1z M41,37h1v1h-1z M43,37h1v1h-1z M44,37h1v1h-1z M45,37h1v1h-1z M46,37h1v1h-1z M47,37h1v1h-1z M48,37h1v1h-1z M50,37h1v1h-1z M52,37h1v1h-1z M55,37h1v1h-1z M56,37h1v1h-1z M4,38h1v1h-1z M6,38h1v1h-1z M7,38h1v1h-1z M10,38h1v1h-1z M12,38h1v1h-1z M13,38h1v1h-1z M15,38h1v1h-1z M16,38h1v1h-1z M17,38h1v1h-1z M18,38h1v1h-1z M21,38h1v1h-1z M27,38h1v1h-1z M30,38h1v1h-1z M32,38h1v1h-1z M33,38h1v1h-1z M36,38h1v1h-1z M38,38h1v1h-1z M40,38h1v1h-1z M42,38h1v1h-1z M45,38h1v1h-1z M48,38h1v1h-1z M51,38h1v1h-1z M54,38h1v1h-1z M55,38h1v1h-1z M7,39h1v1h-1z M8,39h1v1h-1z M9,39h1v1h-1z M12,39h1v1h-1z M13,39h1v1h-1z M14,39h1v1h-1z M15,39h1v1h-1z M16,39h1v1h-1z M18,39h1v1h-1z M21,39h1v1h-1z M22,39h1v1h-1z M24,39h1v1h-1z M27,39h1v1h-1z M28,39h1v1h-1z M32,39h1v1h-1z M33,39h1v1h-1z M34,39h1v1h-1z M38,39h1v1h-1z M43,39h1v1h-1z M45,39h1v1h-1z M47,39h1v1h-1z M48,39h1v1h-1z M53,39h1v1h-1z M56,39h1v1h-1z M4,40h1v1h-1z M6,40h1v1h-1z M7,40h1v1h-1z M9,40h1v1h-1z M10,40h1v1h-1z M12,40h1v1h-1z M16,40h1v1h-1z M17,40h1v1h-1z M19,40h1v1h-1z M23,40h1v1h-1z M28,40h1v1h-1z M29,40h1v1h-1z M32,40h1v1h-1z M33,40h1v1h-1z M35,40h1v1h-1z M39,40h1v1h-1z M40,40h1v1h-1z M41,40h1v1h-1z M42,40h1v1h-1z M45,40h1v1h-1z M46,40h1v1h-1z M48,40h1v1h-1z M49,40h1v1h-1z M53,40h1v1h-1z M54,40h1v1h-1z M55,40h1v1h-1z M4,41h1v1h-1z M5,41h1v1h-1z M7,41h1v1h-1z M9,41h1v1h-1z M12,41h1v1h-1z M17,41h1v1h-1z M18,41h1v1h-1z M19,41h1v1h-1z M23,41h1v1h-1z M24,41h1v1h-1z M26,41h1v1h-1z M27,41h1v1h-1z M28,41h1v1h-1z M29,41h1v1h-1z M31,41h1v1h-1z M35,41h1v1h-1z M40,41h1v1h-1z M41,41h1v1h-1z M42,41h1v1h-1z M43,41h1v1h-1z M47,41h1v1h-1z M48,41h1v1h-1z M49,41h1v1h-1z M51,41h1v1h-1z M53,41h1v1h-1z M56,41h1v1h-1z M4,42h1v1h-1z M5,42h1v1h-1z M7,42h1v1h-1z M8,42h1v1h-1z M10,42h1v1h-1z M12,42h1v1h-1z M13,42h1v1h-1z M16,42h1v1h-1z M17,42h1v1h-1z M18,42h1v1h-1z M22,42h1v1h-1z M24,42h1v1h-1z M26,42h1v1h-1z M28,42h1v1h-1z M29,42h1v1h-1z M30,42h1v1h-1z M34,42h1v1h-1z M36,42h1v1h-1z M37,42h1v1h-1z M38,42h1v1h-1z M39,42h1v1h-1z M40,42h1v1h-1z M42,42h1v1h-1z M43,42h1v1h-1z M44,42h1v1h-1z M45,42h1v1h-1z M46,42h1v1h-1z M47,42h1v1h-1z M49,42h1v1h-1z M50,42h1v1h-1z M51,42h1v1h-1z M53,42h1v1h-1z M55,42h1v1h-1z M56,42h1v1h-1z M5,43h1v1h-1z M7,43h1v1h-1z M8,43h1v1h-1z M9,43h1v1h-1z M11,43h1v1h-1z M12,43h1v1h-1z M13,43h1v1h-1z M14,43h1v1h-1z M17,43h1v1h-1z M18,43h1v1h-1z M19,43h1v1h-1z M20,43h1v1h-1z M24,43h1v1h-1z M27,43h1v1h-1z M29,43h1v1h-1z M30,43h1v1h-1z M33,43h1v1h-1z M34,43h1v1h-1z M36,43h1v1h-1z M41,43h1v1h-1z M42,43h1v1h-1z M43,43h1v1h-1z M46,43h1v1h-1z M47,43h1v1h-1z M48,43h1v1h-1z M50,43h1v1h-1z M51,43h1v1h-1z M53,43h1v1h-1z M8,44h1v1h-1z M9,44h1v1h-1z M10,44h1v1h-1z M11,44h1v1h-1z M14,44h1v1h-1z M16,44h1v1h-1z M19,44h1v1h-1z M20,44h1v1h-1z M21,44h1v1h-1z M22,44h1v1h-1z M23,44h1v1h-1z M24,44h1v1h-1z M30,44h1v1h-1z M32,44h1v1h-1z M35,44h1v1h-1z M36,44h1v1h-1z M37,44h1v1h-1z M43,44h1v1h-1z M44,44h1v1h-1z M45,44h1v1h-1z M46,44h1v1h-1z M48,44h1v1h-1z M49,44h1v1h-1z M52,44h1v1h-1z M53,44h1v1h-1z M4,45h1v1h-1z M5,45h1v1h-1z M6,45h1v1h-1z M9,45h1v1h-1z M13,45h1v1h-1z M14,45h1v1h-1z M15,45h1v1h-1z M17,45h1v1h-1z M18,45h1v1h-1z M22,45h1v1h-1z M24,45h1v1h-1z M25,45h1v1h-1z M26,45h1v1h-1z M27,45h1v1h-1z M29,45h1v1h-1z M30,45h1v1h-1z M32,45h1v1h-1z M33,45h1v1h-1z M35,45h1v1h-1z M37,45h1v1h-1z M38,45h1v1h-1z M40,45h1v1h-1z M42,45h1v1h-1z M47,45h1v1h-1z M48,45h1v1h-1z M49,45h1v1h-1z M50,45h1v1h-1z M51,45h1v1h-1z M55,45h1v1h-1z M4,46h1v1h-1z M5,46h1v1h-1z M7,46h1v1h-1z M8,46h1v1h-1z M9,46h1v1h-1z M10,46h1v1h-1z M18,46h1v1h-1z M20,46h1v1h-1z M21,46h1v1h-1z M22,46h1v1h-1z M24,46h1v1h-1z M25,46h1v1h-1z M28,46h1v1h-1z M34,46h1v1h-1z M38,46h1v1h-1z M39,46h1v1h-1z M44,46h1v1h-1z M45,46h1v1h-1z M48,46h1v1h-1z M51,46h1v1h-1z M52,46h1v1h-1z M53,46h1v1h-1z M55,46h1v1h-1z M5,47h1v1h-1z M6,47h1v1h-1z M11,47h1v1h-1z M13,47h1v1h-1z M14,47h1v1h-1z M15,47h1v1h-1z M17,47h1v1h-1z M18,47h1v1h-1z M19,47h1v1h-1z M24,47h1v1h-1z M25,47h1v1h-1z M27,47h1v1h-1z M28,47h1v1h-1z M29,47h1v1h-1z M31,47h1v1h-1z M33,47h1v1h-1z M35,47h1v1h-1z M37,47h1v1h-1z M38,47h1v1h-1z M41,47h1v1h-1z M42,47h1v1h-1z M43,47h1v1h-1z M44,47h1v1h-1z M45,47h1v1h-1z M47,47h1v1h-1z M51,47h1v1h-1z M52,47h1v1h-1z M53,47h1v1h-1z M54,47h1v1h-1z M56,47h1v1h-1z M7,48h1v1h-1z M10,48h1v1h-1z M14,48h1v1h-1z M16,48h1v1h-1z M19,48h1v1h-1z M21,48h1v1h-1z M23,48h1v1h-1z M25,48h1v1h-1z M26,48h1v1h-1z M28,48h1v1h-1z M29,48h1v1h-1z M30,48h1v1h-1z M31,48h1v1h-1z M32,48h1v1h-1z M33,48h1v1h-1z M37,48h1v1h-1z M38,48h1v1h-1z M41,48h1v1h-1z M44,48h1v1h-1z M45,48h1v1h-1z M47,48h1v1h-1z M48,48h1v1h-1z M49,48h1v1h-1z M50,48h1v1h-1z M51,48h1v1h-1z M52,48h1v1h-1z M53,48h1v1h-1z M54,48h1v1h-1z M56,48h1v1h-1z M12,49h1v1h-1z M13,49h1v1h-1z M14,49h1v1h-1z M17,49h1v1h-1z M18,49h1v1h-1z M21,49h1v1h-1z M22,49h1v1h-1z M23,49h1v1h-1z M24,49h1v1h-1z M26,49h1v1h-1z M27,49h1v1h-1z M28,49h1v1h-1z M32,49h1v1h-1z M34,49h1v1h-1z M35,49h1v1h-1z M36,49h1v1h-1z M39,49h1v1h-1z M40,49h1v1h-1z M43,49h1v1h-1z M44,49h1v1h-1z M46,49h1v1h-1z M47,49h1v1h-1z M48,49h1v1h-1z M52,49h1v1h-1z M53,49h1v1h-1z M55,49h1v1h-1z M56,49h1v1h-1z M4,50h1v1h-1z M5,50h1v1h-1z M6,50h1v1h-1z M7,50h1v1h-1z M8,50h1v1h-1z M9,50h1v1h-1z M10,50h1v1h-1z M12,50h1v1h-1z M13,50h1v1h-1z M14,50h1v1h-1z M15,50h1v1h-1z M16,50h1v1h-1z M17,50h1v1h-1z M19,50h1v1h-1z M20,50h1v1h-1z M21,50h1v1h-1z M23,50h1v1h-1z M24,50h1v1h-1z M25,50h1v1h-1z M26,50h1v1h-1z M27,50h1v1h-1z M28,50h1v1h-1z M30,50h1v1h-1z M32,50h1v1h-1z M34,50h1v1h-1z M36,50h1v1h-1z M37,50h1v1h-1z M38,50h1v1h-1z M39,50h1v1h-1z M44,50h1v1h-1z M47,50h1v1h-1z M48,50h1v1h-1z M50,50h1v1h-1z M52,50h1v1h-1z M54,50h1v1h-1z M55,50h1v1h-1z M4,51h1v1h-1z M10,51h1v1h-1z M12,51h1v1h-1z M18,51h1v1h-1z M19,51h1v1h-1z M23,51h1v1h-1z M28,51h1v1h-1z M32,51h1v1h-1z M34,51h1v1h-1z M35,51h1v1h-1z M37,51h1v1h-1z M38,51h1v1h-1z M40,51h1v1h-1z M42,51h1v1h-1z M43,51h1v1h-1z M45,51h1v1h-1z M46,51h1v1h-1z M48,51h1v1h-1z M52,51h1v1h-1z M55,51h1v1h-1z M4,52h1v1h-1z M6,52h1v1h-1z M7,52h1v1h-1z M8,52h1v1h-1z M10,52h1v1h-1z M17,52h1v1h-1z M18,52h1v1h-1z M19,52h1v1h-1z M22,52h1v1h-1z M26,52h1v1h-1z M28,52h1v1h-1z M29,52h1v1h-1z M30,52h1v1h-1z M31,52h1v1h-1z M32,52h1v1h-1z M33,52h1v1h-1z M35,52h1v1h-1z M36,52h1v1h-1z M37,52h1v1h-1z M39,52h1v1h-1z M40,52h1v1h-1z M42,52h1v1h-1z M47,52h1v1h-1z M48,52h1v1h-1z M49,52h1v1h-1z M50,52h1v1h-1z M51,52h1v1h-1z M52,52h1v1h-1z M53,52h1v1h-1z M54,52h1v1h-1z M55,52h1v1h-1z M4,53h1v1h-1z M6,53h1v1h-1z M7,53h1v1h-1z M8,53h1v1h-1z M10,53h1v1h-1z M12,53h1v1h-1z M13,53h1v1h-1z M14,53h1v1h-1z M16,53h1v1h-1z M18,53h1v1h-1z M19,53h1v1h-1z M20,53h1v1h-1z M22,53h1v1h-1z M23,53h1v1h-1z M24,53h1v1h-1z M29,53h1v1h-1z M30,53h1v1h-1z M31,53h1v1h-1z M33,53h1v1h-1z M37,53h1v1h-1z M39,53h1v1h-1z M40,53h1v1h-1z M42,53h1v1h-1z M47,53h1v1h-1z M55,53h1v1h-1z M4,54h1v1h-1z M6,54h1v1h-1z M7,54h1v1h-1z M8,54h1v1h-1z M10,54h1v1h-1z M12,54h1v1h-1z M16,54h1v1h-1z M19,54h1v1h-1z M20,54h1v1h-1z M22,54h1v1h-1z M23,54h1v1h-1z M24,54h1v1h-1z M25,54h1v1h-1z M26,54h1v1h-1z M30,54h1v1h-1z M31,54h1v1h-1z M32,54h1v1h-1z M33,54h1v1h-1z M34,54h1v1h-1z M36,54h1v1h-1z M37,54h1v1h-1z M38,54h1v1h-1z M41,54h1v1h-1z M42,54h1v1h-1z M46,54h1v1h-1z M47,54h1v1h-1z M49,54h1v1h-1z M51,54h1v1h-1z M54,54h1v1h-1z M4,55h1v1h-1z M10,55h1v1h-1z M13,55h1v1h-1z M15,55h1v1h-1z M17,55h1v1h-1z M19,55h1v1h-1z M25,55h1v1h-1z M29,55h1v1h-1z M30,55h1v1h-1z M34,55h1v1h-1z M35,55h1v1h-1z M36,55h1v1h-1z M37,55h1v1h-1z M42,55h1v1h-1z M43,55h1v1h-1z M44,55h1v1h-1z M45,55h1v1h-1z M47,55h1v1h-1z M51,55h1v1h-1z M52,55h1v1h-1z M55,55h1v1h-1z M4,56h1v1h-1z M5,56h1v1h-1z M6,56h1v1h-1z M7,56h1v1h-1z M8,56h1v1h-1z M9,56h1v1h-1z M10,56h1v1h-1z M12,56h1v1h-1z M15,56h1v1h-1z M16,56h1v1h-1z M18,56h1v1h-1z M23,56h1v1h-1z M24,56h1v1h-1z M27,56h1v1h-1z M29,56h1v1h-1z M30,56h1v1h-1z M35,56h1v1h-1z M36,56h1v1h-1z M37,56h1v1h-1z M41,56h1v1h-1z M42,56h1v1h-1z M45,56h1v1h-1z M48,56h1v1h-1z M49,56h1v1h-1z M55,56h1v1h-1z" fill="#000000"/>
</svg>
