<?xml version="1.0" encoding="UTF-8"?>
<!DOCTYPE svg PUBLIC "-//W3C//DTD SVG 1.1//EN" "http://www.w3.org/Graphics/SVG/1.1/DTD/svg11.dtd">
<svg xmlns="http://www.w3.org/2000/svg" version="1.1" viewBox="0 0 57 57" stroke="none">
	<rect width="100%" height="100%" fill="#FFFFFF"/>
	<path d="M4,4h1v1h-1z M5,4h1v1h-1z M6,4h1v1h-1z M7,4h1v1h-1z M8,4h1v1h-1z M9,4h1v1h-1z M10,4h1v1h-1z M12,4h1v1h-1z M13,4h1v1h-1z M14,4h1v1h-1z M15,4h1v1h-1z M18,4h1v1h-1z M20,4h1v1h-1z M21,4h1v1h-1z M27,4h1v1h-1z M29,4h1v1h-1z M30,4h1v1h-1z M32,4h1v1h-1z M33,4h1v1h-1z M34,4h1v1h-1z M35,4h1v1h-1z M36,4h1v1h-1z M40,4h1v1h-1z M44,4h1v1h-1z M46,4h1v1h-1z M47,4h1v1h-1z M48,4h1v1h-1z M49,4h1v1h-1z M50,4h1v1h-1z M51,4h1v1h-1z M52,4h1v1h-1z M4,5h1v1h-1z M10,5h1v1h-1z M13,5h1v1h-1z M16,5h1v1h-1z M20,5h1v1h-1z M22,5h1v1h-1z M23,5h1v1h-1z M25,5h1v1h-1z M26,5h1v1h-1z M27,5h1v1h-1z M34,5h1v1h-1z M35,5h1v1h-1z M38,5h1v1h-1z M39,5h1v1h-1z M42,5h1v1h-1z M43,5h1v1h-1z M44,5h1v1h-1z M46,5h1v1h-1z M52,5h1v1h-1z M4,6h1v1h-1z M6,6h1v1h-1z M7,6h1v1h-1z M8,6h1v1h-1z M10,6h1v1h-1z M13,6h1v1h-1z M19,6h1v1h-1z M22,6h1v1h-1z M25,6h1v1h-1z M26,6h1v1h-1z M33,6h1v1h-1z M36,6h1v1h-1z M38,6h1v1h-1z M39,6h1v1h-1z M40,6h1v1h-1z M43,6h1v1h-1z M44,6h1v1h-1z M46,6h1v1h-1z M48,6h1v1h-1z M49,6h1v1h-1z M50,6h1v1h-1z M52,6h1v1h-1z M4,7h1v1h-1z M6,7h1v1h-1z M7,7h1v1h-1z M8,7h1v1h-1z M10,7h1v1h-1z M12,7h1v1h-1z M14,7h1v1h-1z M16,7h1v1h-1z M19,7h1v1h-1z M21,7h1v1h-1z M23,7h1v1h-1z M26,7h1v1h-1z M27,7h1v1h-1z M29,7h1v1h-1z M30,7h1v1h-1z M32,7h1v1h-1z M34,7h1v1h-1z M37,7h1v1h-1z M38,7h1v1h-1z M43,7h1v1h-1z M46,7h1v1h-1z M48,7h1v1h-1z M49,7h1v1h-1z M50,7h1v1h-1z M52,7h1v1h-1z M4,8h1v1h-1z M6,8h1v1h-1z M7,8h1v1h-1z M8,8h1v1h-1z M10,8h1v1h-1z M12,8h1v1h-1z M13,8h1v1h-1z M14,8h1v1h-1z M19,8h1v1h-1z M20,8h1v1h-1z M21,8h1v1h-1z M22,8h1v1h-1z M23,8h1v1h-1z M24,8h1v1h-1z M26,8h1v1h-1z M27,8h1v1h-1z M28,8h1v1h-1z M29,8h1v1h-1z M30,8h1v1h-1z M33,8h1v1h-1z M34,8h1v1h-1z M35,8h1v1h-1z M39,8h1v1h-1z M46,8h1v1h-1z M48,8h1v1h-1z M49,8h1v1h-1z M50,8h1v1h-1z M52,8h1v1h-1z M4,9h1v1h-1z M10,9h1v1h-1z M12,9h1v1h-1z M13,9h1v1h-1z M15,9h1v1h-1z M16,9h1v1h-1z M17,9h1v1h-1z M18,9h1v1h-1z M21,9h1v1h-1z M22,9h1v1h-1z M24,9h1v1h-1z M26,9h1v1h-1z M30,9h1v1h-1z M31,9h1v1h-1z M32,9h1v1h-1z M33,9h1v1h-1z M35,9h1v1h-1z M36,9h1v1h-1z M38,9h1v1h-1z M40,9h1v1h-1z M41,9h1v1h-1z M42,9h1v1h-1z M46,9h1v1h-1z M52,9h1v1h-1z M4,10h1v1h-1z M5,10h1v1h-1z M6,10h1v1h-1z M7,10h1v1h-1z M8,10h1v1h-1z M9,10h1v1h-1z M10,10h1v1h-1z M12,10h1v1h-1z M14,10h1v1h-1z M16,10h1v1h-1z M18,10h1v1h-1z M20,10h1v1h-1z M22,10h1v1h-1z M24,10h1v1h-1z M26,10h1v1h-1z M28,10h1v1h-1z M30,10h1v1h-1z M32,10h1v1h-1z M34,10h1v1h-1z M36,10h1v1h-1z M38,10h1v1h-1z M40,10h1v1h-1z M42,10h1v1h-1z M44,10h1v1h-1z M46,10h1v1h-1z M47,10h1v1h-1z M48,10h1v1h-1z M49,10h1v1h-1z M50,10h1v1h-1z M51,10h1v1h-1z M52,10h1v1h-1z M12,11h1v1h-1z M15,11h1v1h-1z M17,11h1v1h-1z M22,11h1v1h-1z M26,11h1v1h-1z M30,11h1v1h-1z M31,11h1v1h-1z M36,11h1v1h-1z M38,11h1v1h-1z M39,11h1v1h-1z M44,11h1v1h-1z M4,12h1v1h-1z M8,12h1v1h-1z M10,12h1v1h-1z M11,12h1v1h-1z M12,12h1v1h-1z M13,12h1v1h-1z M14,12h1v1h-1z M16,12h1v1h-1z M19,12h1v1h-1z M21,12h1v1h-1z M23,12h1v1h-1z M25,12h1v1h-1z M26,12h1v1h-1z M27,12h1v1h-1z M28,12h1v1h-1z M29,12h1v1h-1z M30,12h1v1h-1z M31,12h1v1h-1z M33,12h1v1h-1z M34,12h1v1h-1z M36,12h1v1h-1z M37,12h1v1h-1z M39,12h1v1h-1z M40,12h1v1h-1z M41,12h1v1h-1z M44,12h1v1h-1z M45,12h1v1h-1z M46,12h1v1h-1z M47,12h1v1h-1z M48,12h1v1h-1z M49,12h1v1h-1z M52,12h1v1h-1z M6,13h1v1h-1z M7,13h1v1h-1z M9,13h1v1h-1z M11,13h1v1h-1z M12,13h1v1h-1z M15,13h1v1h-1z M16,13h1v1h-1z M18,13h1v1h-1z M19,13h1v1h-1z M20,13h1v1h-1z M21,13h1v1h-1z M23,13h1v1h-1z M24,13h1v1h-1z M25,13h1v1h-1z M27,13h1v1h-1z M28,13h1v1h-1z M30,13h1v1h-1z M31,13h1v1h-1z M32,13h1v1h-1z M34,13h1v1h-1z M35,13h1v1h-1z M36,13h1v1h-1z M37,13h1v1h-1z M39,13h1v1h-1z M41,13h1v1h-1z M42,13h1v1h-1z M45,13h1v1h-1z M46,13h1v1h-1z M47,13h1v1h-1z M48,13h1v1h-1z M5,14h1v1h-1z M7,14h1v1h-1z M10,14h1v1h-1z M16,14h1v1h-1z M21,14h1v1h-1z M22,14h1v1h-1z M24,14h1v1h-1z M25,14h1v1h-1z M27,14h1v1h-1z M29,14h1v1h-1z M30,14h1v1h-1z M33,14h1v1h-1z M34,14h1v1h-1z M35,14h1v1h-1z M36,14h1v1h-1z M40,14h1v1h-1z M41,14h1v1h-1z M42,14h1v1h-1z M51,14h1v1h-1z M6,15h1v1h-1z M11,15h1v1h-1z M16,15h1v1h-1z M19,15h1v1h-1z M20,15h1v1h-1z M21,15h1v1h-1z M26,15h1v1h-1z M30,15h1v1h-1z M32,15h1v1h-1z M34,15h1v1h-1z M35,15h1v1h-1z M36,15h1v1h-1z M38,15h1v1h-1z M40,15h1v1h-1z M41,15h1v1h-1z M43,15h1v1h-1z M44,15h1v1h-1z M46,15h1v1h-1z M50,15h1v1h-1z M52,15h1v1h-1z M4,16h1v1h-1z M5,16h1v1h-1z M7,16h1v1h-1z M8,16h1v1h-1z M10,16h1v1h-1z M11,16h1v1h-1z M12,16h1v1h-1z M14,16h1v1h-1z M15,16h1v1h-1z M16,16h1v1h-1z M17,16h1v1h-1z M20,16h1v1h-1z M23,16h1v1h-1z M24,16h1v1h-1z M26,16h1v1h-1z M27,16h1v1h-1z M28,16h1v1h-1z M31,16h1v1h-1z M34,16h1v1h-1z M36,16h1v1h-1z M37,16h1v1h-1z M39,16h1v1h-1z M40,16h1v1h-1z M41,16h1v1h-1z M43,16h1v1h-1z M44,16h1v1h-1z M45,16h1v1h-1z M48,16h1v1h-1z M50,16h1v1h-1z M4,17h1v1h-1z M5,17h1v1h-1z M6,17h1v1h-1z M8,17h1v1h-1z M14,17h1v1h-1z M15,17h1v1h-1z M16,17h1v1h-1z M19,17h1v1h-1z M20,17h1v1h-1z M21,17h1v1h-1z M25,17h1v1h-1z M26,17h1v1h-1z M27,17h1v1h-1z M29,17h1v1h-1z M30,17h1v1h-1z M31,17h1v1h-1z M34,17h1v1h-1z M36,17h1v1h-1z M39,17h1v1h-1z M40,17h1v1h-1z M42,17h1v1h-1z M43,17h1v1h-1z M46,17h1v1h-1z M49,17h1v1h-1z M51,17h1v1h-1z M4,18h1v1h-1z M5,18h1v1h-1z M6,18h1v1h-1z M7,18h1v1h-1z M8,18h1v1h-1z M9,18h1v1h-1z M10,18h1v1h-1z M11,18h1v1h-1z M13,18h1v1h-1z M14,18h1v1h-1z M17,18h1v1h-1z M24,18h1v1h-1z M25,18h1v1h-1z M27,18h1v1h-1z M30,18h1v1h-1z M32,18h1v1h-1z M33,18h1v1h-1z M34,18h1v1h-1z M35,18h1v1h-1z M37,18h1v1h-1z M39,18h1v1h-1z M42,18h1v1h-1z M43,18h1v1h-1z M44,18h1v1h-1z M45,18h1v1h-1z M46,18h1v1h-1z M4,19h1v1h-1z M5,19h1v1h-1z M8,19h1v1h-1z M11,19h1v1h-1z M12,19h1v1h-1z M15,19h1v1h-1z M16,19h1v1h-1z M17,19h1v1h-1z M18,19h1v1h-1z M19,19h1v1h-1z M22,19h1v1h-1z M23,19h1v1h-1z M24,19h1v1h-1z M28,19h1v1h-1z M30,19h1v1h-1z M34,19h1v1h-1z M36,19h1v1h-1z M37,19h1v1h-1z M38,19h1v1h-1z M39,19h1v1h-1z M40,19h1v1h-1z M44,19h1v1h-1z M45,19h1v1h-1z M48,19h1v1h-1z M50,19h1v1h-1z M51,19h1v1h-1z M5,20h1v1h-1z M6,20h1v1h-1z M10,20h1v1h-1z M12,20h1v1h-1z M14,20h1v1h-1z M15,20h1v1h-1z M16,20h1v1h-1z M20,20h1v1h-1z M21,20h1v1h-1z M22,20h1v1h-1z M28,20h1v1h-1z M30,20h1v1h-1z M36,20h1v1h-1z M38,20h1v1h-1z M40,20h1v1h-1z M41,20h1v1h-1z M44,20h1v1h-1z M45,20h1v1h-1z M46,20h1v1h-1z M48,20h1v1h-1z M49,20h1v1h-1z M50,20h1v1h-1z M5,21h1v1h-1z M8,21h1v1h-1z M12,21h1v1h-1z M13,21h1v1h-1z M15,21h1v1h-1z M16,21h1v1h-1z M17,21h1v1h-1z M18,21h1v1h-1z M20,21h1v1h-1z M22,21h1v1h-1z M23,21h1v1h-1z M24,21h1v1h-1z M25,21h1v1h-1z M26,21h1v1h-1z M28,21h1v1h-1z M30,21h1v1h-1z M32,21h1v1h-1z M33,21h1v1h-1z M34,21h1v1h-1z M35,21h1v1h-1z M36,21h1v1h-1z M37,21h1v1h-1z M39,21h1v1h-1z M40,21h1v1h-1z M41,21h1v1h-1z M42,21h1v1h-1z M45,21h1v1h-1z M46,21h1v1h-1z M47,21h1v1h-1z M48,21h1v1h-1z M49,21h1v1h-1z M6,22h1v1h-1z M9,22h1v1h-1z M10,22h1v1h-1z M13,22h1v1h-1z M14,22h1v1h-1z M15,22h1v1h-1z M17,22h1v1h-1z M18,22h1v1h-1z M20,22h1v1h-1z M21,22h1v1h-1z M24,22h1v1h-1z M27,22h1v1h-1z M28,22h1v1h-1z M29,22h1v1h-1z M30,22h1v1h-1z M31,22h1v1h-1z M34,22h1v1h-1z M37,22h1v1h-1z M40,22h1v1h-1z M41,22h1v1h-1z M42,22h1v1h-1z M43,22h1v1h-1z M44,22h1v1h-1z M47,22h1v1h-1z M49,22h1v1h-1z M50,22h1v1h-1z M6,23h1v1h-1z M7,23h1v1h-1z M9,23h1v1h-1z M12,23h1v1h-1z M13,23h1v1h-1z M15,23h1v1h-1z M16,23h1v1h-1z M18,23h1v1h-1z M20,23h1v1h-1z M21,23h1v1h-1z M24,23h1v1h-1z M26,23h1v1h-1z M27,23h1v1h-1z M28,23h1v1h-1z M31,23h1v1h-1z M36,23h1v1h-1z M40,23h1v1h-1z M41,23h1v1h-1z M42,23h1v1h-1z M45,23h1v1h-1z M48,23h1v1h-1z M50,23h1v1h-1z M51,23h1v1h-1z M52,23h1v1h-1z M8,24h1v1h-1z M10,24h1v1h-1z M14,24h1v1h-1z M20,24h1v1h-1z M21,24h1v1h-1z M26,24h1v1h-1z M28,24h1v1h-1z M29,24h1v1h-1z M30,24h1v1h-1z M31,24h1v1h-1z M34,24h1v1h-1z M35,24h1v1h-1z M36,24h1v1h-1z M38,24h1v1h-1z M39,24h1v1h-1z M40,24h1v1h-1z M41,24h1v1h-1z M43,24h1v1h-1z M44,24h1v1h-1z M47,24h1v1h-1z M48,24h1v1h-1z M49,24h1v1h-1z M50,24h1v1h-1z M52,24h1v1h-1z M4,25h1v1h-1z M5,25h1v1h-1z M7,25h1v1h-1z M9,25h1v1h-1z M14,25h1v1h-1z M17,25h1v1h-1z M23,25h1v1h-1z M24,25h1v1h-1z M28,25h1v1h-1z M30,25h1v1h-1z M31,25h1v1h-1z M33,25h1v1h-1z M34,25h1v1h-1z M35,25h1v1h-1z M37,25h1v1h-1z M39,25h1v1h-1z M40,25h1v1h-1z M42,25h1v1h-1z M43,25h1v1h-1z M45,25h1v1h-1z M46,25h1v1h-1z M47,25h1v1h-1z M51,25h1v1h-1z M52,25h1v1h-1z M4,26h1v1h-1z M5,26h1v1h-1z M7,26h1v1h-1z M8,26h1v1h-1z M9,26h1v1h-1z M10,26h1v1h-1z M11,26h1v1h-1z M12,26h1v1h-1z M17,26h1v1h-1z M19,26h1v1h-1z M21,26h1v1h-1z M22,26h1v1h-1z M26,26h1v1h-1z M27,26h1v1h-1z M28,26h1v1h-1z M29,26h1v1h-1z M30,26h1v1h-1z M31,26h1v1h-1z M32,26h1v1h-1z M33,26h1v1h-1z M34,26h1v1h-1z M35,26h1v1h-1z M37,26h1v1h-1z M39,26h1v1h-1z M40,26h1v1h-1z M42,26h1v1h-1z M44,26h1v1h-1z M45,26h1v1h-1z M46,26h1v1h-1z M47,26h1v1h-1z M48,26h1v1h-1z M49,26h1v1h-1z M8,27h1v1h-1z M12,27h1v1h-1z M14,27h1v1h-1z M17,27h1v1h-1z M25,27h1v1h-1z M26,27h1v1h-1z M30,27h1v1h-1z M31,27h1v1h-1z M34,27h1v1h-1z M36,27h1v1h-1z M37,27h1v1h-1z M39,27h1v1h-1z M40,27h1v1h-1z M42,27h1v1h-1z M44,27h1v1h-1z M48,27h1v1h-1z M50,27h1v1h-1z M52,27h1v1h-1z M5,28h1v1h-1z M6,28h1v1h-1z M7,28h1v1h-1z M8,28h1v1h-1z M10,28h1v1h-1z M12,28h1v1h-1z M13,28h1v1h-1z M14,28h1v1h-1z M15,28h1v1h-1z M19,28h1v1h-1z M20,28h1v1h-1z M22,28h1v1h-1z M23,28h1v1h-1z M26,28h1v1h-1z M28,28h1v1h-1z M30,28h1v1h-1z M31,28h1v1h-1z M33,28h1v1h-1z M36,28h1v1h-1z M40,28h1v1h-1z M41,28h1v1h-1z M43,28h1v1h-1z M44,28h1v1h-1z M46,28h1v1h-1z M48,28h1v1h-1z M50,28h1v1h-1z M51,28h1v1h-1z M6,29h1v1h-1z M7,29h1v1h-1z M8,29h1v1h-1z M12,29h1v1h-1z M14,29h1v1h-1z M18,29h1v1h-1z M20,29h1v1h-1z M21,29h1v1h-1z M24,29h1v1h-1z M26,29h1v1h-1z M30,29h1v1h-1z M31,29h1v1h-1z M32,29h1v1h-1z M33,29h1v1h-1z M34,29h1v1h-1z M35,29h1v1h-1z M36,29h1v1h-1z M37,29h1v1h-1z M41,29h1v1h-1z M42,29h1v1h-1z M44,29h1v1h-1z M48,29h1v1h-1z M51,29h1v1h-1z M4,30h1v1h-1z M5,30h1v1h-1z M7,30h1v1h-1z M8,30h1v1h-1z M9,30h1v1h-1z M10,30h1v1h-1z M11,30h1v1h-1z M12,30h1v1h-1z M16,30h1v1h-1z M17,30h1v1h-1z M21,30h1v1h-1z M22,30h1v1h-1z M23,30h1v1h-1z M24,30h1v1h-1z M26,30h1v1h-1z M27,30h1v1h-1z M28,30h1v1h-1z M29,30h1v1h-1z M30,30h1v1h-1z M33,30h1v1h-1z M34,30h1v1h-1z M37,30h1v1h-1z M40,30h1v1h-1z M42,30h1v1h-1z M44,30h1v1h-1z M45,30h1v1h-1z M46,30h1v1h-1z M47,30h1v1h-1z M48,30h1v1h-1z M50,30h1v1h-1z M6,31h1v1h-1z M7,31h1v1h-1z M12,31h1v1h-1z M15,31h1v1h-1z M19,31h1v1h-1z M21,31h1v1h-1z M23,31h1v1h-1z M24,31h1v1h-1z M25,31h1v1h-1z M29,31h1v1h-1z M30,31h1v1h-1z M31,31h1v1h-1z M33,31h1v1h-1z M36,31h1v1h-1z M39,31h1v1h-1z M40,31h1v1h-1z M41,31h1v1h-1z M46,31h1v1h-1z M48,31h1v1h-1z M50,31h1v1h-1z M4,32h1v1h-1z M5,32h1v1h-1z M9,32h1v1h-1z M10,32h1v1h-1z M15,32h1v1h-1z M18,32h1v1h-1z M21,32h1v1h-1z M24,32h1v1h-1z M28,32h1v1h-1z M30,32h1v1h-1z M31,32h1v1h-1z M36,32h1v1h-1z M38,32h1v1h-1z M39,32h1v1h-1z M40,32h1v1h-1z M42,32h1v1h-1z M45,32h1v1h-1z M46,32h1v1h-1z M50,32h1v1h-1z M51,32h1v1h-1z M7,33h1v1h-1z M8,33h1v1h-1z M13,33h1v1h-1z M15,33h1v1h-1z M16,33h1v1h-1z M17,33h1v1h-1z M18,33h1v1h-1z M20,33h1v1h-1z M22,33h1v1h-1z M23,33h1v1h-1z M24,33h1v1h-1z M26,33h1v1h-1z M27,33h1v1h-1z M29,33h1v1h-1z M30,33h1v1h-1z M31,33h1v1h-1z M32,33h1v1h-1z M33,33h1v1h-1z M34,33h1v1h-1z M37,33h1v1h-1z M40,33h1v1h-1z M42,33h1v1h-1z M43,33h1v1h-1z M48,33h1v1h-1z M4,34h1v1h-1z M5,34h1v1h-1z M7,34h1v1h-1z M9,34h1v1h-1z M10,34h1v1h-1z M11,34h1v1h-1z M12,34h1v1h-1z M13,34h1v1h-1z M16,34h1v1h-1z M17,34h1v1h-1z M18,34h1v1h-1z M19,34h1v1h-1z M20,34h1v1h-1z M23,34h1v1h-1z M27,34h1v1h-1z M28,34h1v1h-1z M29,34h1v1h-1z M33,34h1v1h-1z M34,34h1v1h-1z M35,34h1v1h-1z M36,34h1v1h-1z M37,34h1v1h-1z M41,34h1v1h-1z M42,34h1v1h-1z M43,34h1v1h-1z M44,34h1v1h-1z M47,34h1v1h-1z M49,34h1v1h-1z M4,35h1v1h-1z M6,35h1v1h-1z M7,35h1v1h-1z M11,35h1v1h-1z M12,35h1v1h-1z M13,35h1v1h-1z M18,35h1v1h-1z M19,35h1v1h-1z M20,35h1v1h-1z M21,35h1v1h-1z M22,35h1v1h-1z M25,35h1v1h-1z M28,35h1v1h-1z M30,35h1v1h-1z M35,35h1v1h-1z M36,35h1v1h-1z M38,35h1v1h-1z M42,35h1v1h-1z M45,35h1v1h-1z M46,35h1v1h-1z M47,35h1v1h-1z M50,35h1v1h-1z M51,35h1v1h-1z M4,36h1v1h-1z M5,36h1v1h-1z M7,36h1v1h-1z M8,36h1v1h-1z M10,36h1v1h-1z M12,36h1v1h-1z M14,36h1v1h-1z M16,36h1v1h-1z M17,36h1v1h-1z M21,36h1v1h-1z M22,36h1v1h-1z M27,36h1v1h-1z M33,36h1v1h-1z M34,36h1v1h-1z M36,36h1v1h-1z M37,36h1v1h-1z M38,36h1v1h-1z M39,36h1v1h-1z M40,36h1v1h-1z M41,36h1v1h-1z M44,36h1v1h-1z M45,36h1v1h-1z M50,36h1v1h-1z M52,36h1v1h-1z M8,37h1v1h-1z M9,37h1v1h-1z M12,37h1v1h-1z M13,37h1v1h-1z M14,37h1v1h-1z M15,37h1v1h-1z M18,37h1v1h-1z M20,37h1v1h-1z M21,37h1v1h-1z M22,37h1v1h-1z M23,37h1v1h-1z M24,37h1v1h-1z M26,37h1v1h-1z M27,37h1v1h-1z M28,37h1v1h-1z M32,37h1v1h-1z M33,37h1v1h-1z M34,37h1v1h-1z M36,37h1v1h-1z M37,37h1v1h-1z M39,37h1v1h-1z M40,37h1v1h-1z M42,37h1v1h-1z M45,37h1v1h-1z M48,37h1v1h-1z M49,37h1v1h-1z M4,38h1v1h-1z M6,38h1v1h-1z M7,38h1v1h-1z M8,38h1v1h-1z M10,38h1v1h-1z M13,38h1v1h-1z M14,38h1v1h-1z M16,38h1v1h-1z M17,38h1v1h-1z M20,38h1v1h-1z M24,38h1v1h-1z M25,38h1v1h-1z M26,38h1v1h-1z M29,38h1v1h-1z M31,38h1v1h-1z M32,38h1v1h-1z M33,38h1v1h-1z M34,38h1v1h-1z M39,38h1v1h-1z M41,38h1v1h-1z M43,38h1v1h-1z M44,38h1v1h-1z M47,38h1v1h-1z M49,38h1v1h-1z M50,38h1v1h-1z M51,38h1v1h-1z M6,39h1v1h-1z M9,39h1v1h-1z M11,39h1v1h-1z M12,39h1v1h-1z M13,39h1v1h-1z M18,39h1v1h-1z M20,39h1v1h-1z M22,39h1v1h-1z M27,39h1v1h-1z M28,39h1v1h-1z M31,39h1v1h-1z M33,39h1v1h-1z M35,39h1v1h-1z M36,39h1v1h-1z M39,39h1v1h-1z M40,39h1v1h-1z M41,39h1v1h-1z M43,39h1v1h-1z M46,39h1v1h-1z M47,39h1v1h-1z M50,39h1v1h-1z M51,39h1v1h-1z M6,40h1v1h-1z M7,40h1v1h-1z M9,40h1v1h-1z M10,40h1v1h-1z M12,40h1v1h-1z M14,40h1v1h-1z M16,40h1v1h-1z M18,40h1v1h-1z M19,40h1v1h-1z M22,40h1v1h-1z M25,40h1v1h-1z M27,40h1v1h-1z M28,40h1v1h-1z M29,40h1v1h-1z M30,40h1v1h-1z M31,40h1v1h-1z M33,40h1v1h-1z M34,40h1v1h-1z M36,40h1v1h-1z M37,40h1v1h-1z M39,40h1v1h-1z M40,40h1v1h-1z M42,40h1v1h-1z M45,40h1v1h-1z M46,40h1v1h-1z M49,40h1v1h-1z M50,40h1v1h-1z M51,40h1v1h-1z M4,41h1v1h-1z M8,41h1v1h-1z M11,41h1v1h-1z M12,41h1v1h-1z M14,41h1v1h-1z M18,41h1v1h-1z M19,41h1v1h-1z M20,41h1v1h-1z M21,41h1v1h-1z M23,41h1v1h-1z M24,41h1v1h-1z M27,41h1v1h-1z M28,41h1v1h-1z M32,41h1v1h-1z M33,41h1v1h-1z M34,41h1v1h-1z M37,41h1v1h-1z M40,41h1v1h-1z M42,41h1v1h-1z M43,41h1v1h-1z M45,41h1v1h-1z M46,41h1v1h-1z M48,41h1v1h-1z M49,41h1v1h-1z M51,41h1v1h-1z M52,41h1v1h-1z M5,42h1v1h-1z M9,42h1v1h-1z M10,42h1v1h-1z M11,42h1v1h-1z M13,42h1v1h-1z M16,42h1v1h-1z M19,42h1v1h-1z M20,42h1v1h-1z M23,42h1v1h-1z M29,42h1v1h-1z M34,42h1v1h-1z M37,42h1v1h-1z M41,42h1v1h-1z M42,42h1v1h-1z M43,42h1v1h-1z M47,42h1v1h-1z M49,42h1v1h-1z M50,42h1v1h-1z M5,43h1v1h-1z M6,43h1v1h-1z M7,43h1v1h-1z M14,43h1v1h-1z M15,43h1v1h-1z M16,43h1v1h-1z M20,43h1v1h-1z M25,43h1v1h-1z M30,43h1v1h-1z M31,43h1v1h-1z M35,43h1v1h-1z M36,43h1v1h-1z M37,43h1v1h-1z M38,43h1v1h-1z M39,43h1v1h-1z M40,43h1v1h-1z M50,43h1v1h-1z M4,44h1v1h-1z M5,44h1v1h-1z M6,44h1v1h-1z M10,44h1v1h-1z M11,44h1v1h-1z M12,44h1v1h-1z M13,44h1v1h-1z M14,44h1v1h-1z M17,44h1v1h-1z M19,44h1v1h-1z M22,44h1v1h-1z M23,44h1v1h-1z M26,44h1v1h-1z M27,44h1v1h-1z M28,44h1v1h-1z M29,44h1v1h-1z M30,44h1v1h-1z M31,44h1v1h-1z M33,44h1v1h-1z M34,44h1v1h-1z M36,44h1v1h-1z M37,44h1v1h-1z M40,44h1v1h-1z M41,44h1v1h-1z M44,44h1v1h-1z M45,44h1v1h-1z M46,44h1v1h-1z M47,44h1v1h-1z M48,44h1v1h-1z M50,44h1v1h-1z M52,44h1v1h-1z M12,45h1v1h-1z M14,45h1v1h-1z M17,45h1v1h-1z M19,45h1v1h-1z M21,45h1v1h-1z M24,45h1v1h-1z M26,45h1v1h-1z M30,45h1v1h-1z M32,45h1v1h-1z M33,45h1v1h-1z M34,45h1v1h-1z M36,45h1v1h-1z M37,45h1v1h-1z M41,45h1v1h-1z M42,45h1v1h-1z M43,45h1v1h-1z M44,45h1v1h-1z M48,45h1v1h-1z M49,45h1v1h-1z M50,45h1v1h-1z M51,45h1v1h-1z M4,46h1v1h-1z M5,46h1v1h-1z M6,46h1v1h-1z M7,46h1v1h-1z M8,46h1v1h-1z M9,46h1v1h-1z M10,46h1v1h-1z M12,46h1v1h-1z M15,46h1v1h-1z M16,46h1v1h-1z M17,46h1v1h-1z M21,46h1v1h-1z M23,46h1v1h-1z M24,46h1v1h-1z M25,46h1v1h-1z M26,46h1v1h-1z M28,46h1v1h-1z M30,46h1v1h-1z M31,46h1v1h-1z M32,46h1v1h-1z M33,46h1v1h-1z M35,46h1v1h-1z M36,46h1v1h-1z M37,46h1v1h-1z M40,46h1v1h-1z M42,46h1v1h-1z M44,46h1v1h-1z M46,46h1v1h-1z M48,46h1v1h-1z M49,46h1v1h-1z M50,46h1v1h-1z M51,46h1v1h-1z M4,47h1v1h-1z M10,47h1v1h-1z M19,47h1v1h-1z M20,47h1v1h-1z M21,47h1v1h-1z M22,47h1v1h-1z M25,47h1v1h-1z M26,47h1v1h-1z M30,47h1v1h-1z M31,47h1v1h-1z M33,47h1v1h-1z M36,47h1v1h-1z M37,47h1v1h-1z M38,47h1v1h-1z M40,47h1v1h-1z M44,47h1v1h-1z M48,47h1v1h-1z M50,47h1v1h-1z M51,47h1v1h-1z M52,47h1v1h-1z M4,48h1v1h-1z M6,48h1v1h-1z M7,48h1v1h-1z M8,48h1v1h-1z M10,48h1v1h-1z M12,48h1v1h-1z M14,48h1v1h-1z M16,48h1v1h-1z M17,48h1v1h-1z M18,48h1v1h-1z M19,48h1v1h-1z M20,48h1v1h-1z M21,48h1v1h-1z M23,48h1v1h-1z M24,48h1v1h-1z M26,48h1v1h-1z M27,48h1v1h-1z M28,48h1v1h-1z M29,48h1v1h-1z M30,48h1v1h-1z M33,48h1v1h-1z M34,48h1v1h-1z M35,48h1v1h-1z M36,48h1v1h-1z M37,48h1v1h-1z M38,48h1v1h-1z M39,48h1v1h-1z M40,48h1v1h-1z M41,48h1v1h-1z M44,48h1v1h-1z M45,48h1v1h-1z M46,48h1v1h-1z M47,48h1v1h-1z M48,48h1v1h-1z M50,48h1v1h-1z M51,48h1v1h-1z M4,49h1v1h-1z M6,49h1v1h-1z M7,49h1v1h-1z M8,49h1v1h-1z M10,49h1v1h-1z M13,49h1v1h-1z M14,49h1v1h-1z M15,49h1v1h-1z M16,49h1v1h-1z M18,49h1v1h-1z M20,49h1v1h-1z M21,49h1v1h-1z M25,49h1v1h-1z M26,49h1v1h-1z M27,49h1v1h-1z M33,49h1v1h-1z M34,49h1v1h-1z M36,49h1v1h-1z M37,49h1v1h-1z M39,49h1v1h-1z M42,49h1v1h-1z M43,49h1v1h-1z M44,49h1v1h-1z M49,49h1v1h-1z M50,49h1v1h-1z M51,49h1v1h-1z M52,49h1v1h-1z M4,50h1v1h-1z M6,50h1v1h-1z M7,50h1v1h-1z M8,50h1v1h-1z M10,50h1v1h-1z M13,50h1v1h-1z M15,50h1v1h-1z M16,50h1v1h-1z M24,50h1v1h-1z M25,50h1v1h-1z M26,50h1v1h-1z M29,50h1v1h-1z M32,50h1v1h-1z M33,50h1v1h-1z M34,50h1v1h-1z M35,50h1v1h-1z M39,50h1v1h-1z M41,50h1v1h-1z M42,50h1v1h-1z M44,50h1v1h-1z M51,50h1v1h-1z M52,50h1v1h-1z M4,51h1v1h-1z M10,51h1v1h-1z M14,51h1v1h-1z M16,51h1v1h-1z M17,51h1v1h-1z M22,51h1v1h-1z M23,51h1v1h-1z M24,51h1v1h-1z M25,51h1v1h-1z M31,51h1v1h-1z M34,51h1v1h-1z M36,51h1v1h-1z M37,51h1v1h-1z M38,51h1v1h-1z M40,51h1v1h-1z M42,51h1v1h-1z M44,51h1v1h-1z M50,51h1v1h-1z M51,51h1v1h-1z M4,52h1v1h-1z M5,52h1v1h-1z M6,52h1v1h-1z M7,52h1v1h-1z M8,52h1v1h-1z M9,52h1v1h-1z M10,52h1v1h-1z M12,52h1v1h-1z M13,52h1v1h-1z M14,52h1v1h-1z M18,52h1v1h-1z M20,52h1v1h-1z M22,52h1v1h-1z M23,52h1v1h-1z M28,52h1v1h-1z M29,52h1v1h-1z M30,52h1v1h-1z M33,52h1v1h-1z M34,52h1v1h-1z M36,52h1v1h-1z M38,52h1v1h-1z M40,52h1v1h-1z M46,52h1v1h-1z M47,52h1v1h-1z M48,52h1v1h-1z M49,52h1v1h-1z M50,52h1v1h-1z M51,52h1v1h-1z M52,52h1v1h-1z" fill="#000000"/>
</svg>
