<svg xmlns="http://www.w3.org/2000/svg" id="SVG" width="600" height="560" xlink="http://www.w3.org/1999/xlink"><text x="290" y="50" style="font-size: 17px; font-family: sans-seirf; stroke: black; text-anchor: middle;">(Group  Gender)  Marital  Bar Graph</text><text x="290" y="530" style="font-size: 12px; font-family: sans-seirf; stroke: black; text-anchor: middle;">Frequency</text><text x="10" y="95" transform="rotate(-90 30 100)" style="font-size: 12px; font-family: sans-seirf; stroke: black; text-anchor: end;">Marital</text><g transform="translate(80,480)" fill="none" font-size="10" font-family="sans-serif" text-anchor="middle"><path class="domain" stroke="#000" d="M0.5,6V0.5H175.5V6"></path><g class="tick" opacity="1" transform="translate(0.5,0)"><line stroke="#000" y2="6"></line><text fill="#000" y="9" dy="0.71em">5.0</text></g><g class="tick" opacity="1" transform="translate(18,0)"><line stroke="#000" y2="6"></line><text fill="#000" y="9" dy="0.71em">4.5</text></g><g class="tick" opacity="1" transform="translate(35.5,0)"><line stroke="#000" y2="6"></line><text fill="#000" y="9" dy="0.71em">4.0</text></g><g class="tick" opacity="1" transform="translate(53.000000000000014,0)"><line stroke="#000" y2="6"></line><text fill="#000" y="9" dy="0.71em">3.5</text></g><g class="tick" opacity="1" transform="translate(70.5,0)"><line stroke="#000" y2="6"></line><text fill="#000" y="9" dy="0.71em">3.0</text></g><g class="tick" opacity="1" transform="translate(88,0)"><line stroke="#000" y2="6"></line><text fill="#000" y="9" dy="0.71em">2.5</text></g><g class="tick" opacity="1" transform="translate(105.5,0)"><line stroke="#000" y2="6"></line><text fill="#000" y="9" dy="0.71em">2.0</text></g><g class="tick" opacity="1" transform="translate(123,0)"><line stroke="#000" y2="6"></line><text fill="#000" y="9" dy="0.71em">1.5</text></g><g class="tick" opacity="1" transform="translate(140.5,0)"><line stroke="#000" y2="6"></line><text fill="#000" y="9" dy="0.71em">1.0</text></g><g class="tick" opacity="1" transform="translate(158,0)"><line stroke="#000" y2="6"></line><text fill="#000" y="9" dy="0.71em">0.5</text></g><g class="tick" opacity="1" transform="translate(175.5,0)"><line stroke="#000" y2="6"></line><text fill="#000" y="9" dy="0.71em">0.0</text></g></g><g transform="translate(325,480)" fill="none" font-size="10" font-family="sans-serif" text-anchor="middle"><path class="domain" stroke="#000" d="M0.5,6V0.5H175.5V6"></path><g class="tick" opacity="1" transform="translate(0.5,0)"><line stroke="#000" y2="6"></line><text fill="#000" y="9" dy="0.71em">0.0</text></g><g class="tick" opacity="1" transform="translate(18,0)"><line stroke="#000" y2="6"></line><text fill="#000" y="9" dy="0.71em">0.5</text></g><g class="tick" opacity="1" transform="translate(35.5,0)"><line stroke="#000" y2="6"></line><text fill="#000" y="9" dy="0.71em">1.0</text></g><g class="tick" opacity="1" transform="translate(53,0)"><line stroke="#000" y2="6"></line><text fill="#000" y="9" dy="0.71em">1.5</text></g><g class="tick" opacity="1" transform="translate(70.5,0)"><line stroke="#000" y2="6"></line><text fill="#000" y="9" dy="0.71em">2.0</text></g><g class="tick" opacity="1" transform="translate(88,0)"><line stroke="#000" y2="6"></line><text fill="#000" y="9" dy="0.71em">2.5</text></g><g class="tick" opacity="1" transform="translate(105.5,0)"><line stroke="#000" y2="6"></line><text fill="#000" y="9" dy="0.71em">3.0</text></g><g class="tick" opacity="1" transform="translate(122.99999999999999,0)"><line stroke="#000" y2="6"></line><text fill="#000" y="9" dy="0.71em">3.5</text></g><g class="tick" opacity="1" transform="translate(140.5,0)"><line stroke="#000" y2="6"></line><text fill="#000" y="9" dy="0.71em">4.0</text></g><g class="tick" opacity="1" transform="translate(158,0)"><line stroke="#000" y2="6"></line><text fill="#000" y="9" dy="0.71em">4.5</text></g><g class="tick" opacity="1" transform="translate(175.5,0)"><line stroke="#000" y2="6"></line><text fill="#000" y="9" dy="0.71em">5.0</text></g></g><text class="barname" x="290" y="151.66666666666669" style="text-anchor: middle; font-family: sans-serif; font-size: 8pt;">3</text><text class="barname" x="290" y="285" style="text-anchor: middle; font-family: sans-serif; font-size: 8pt;">2</text><text class="barname" x="290" y="418.33333333333337" style="text-anchor: middle; font-family: sans-serif; font-size: 8pt;">1</text><text x="255" y="80" style="font-size: 12px; font-family: sans-seirf; stroke: rgb(0, 85, 255); text-anchor: end;">Group 1</text><text x="325" y="80" style="font-size: 12px; font-family: sans-seirf; stroke: rgb(255, 69, 0); text-anchor: start;">Group 2</text><rect class="bar" x="220" y="106.66666666666667" width="35" style="fill: rgb(0, 85, 255);" height="80"></rect><rect class="bar" x="220" y="240" width="35" style="fill: rgb(0, 85, 255);" height="80"></rect><rect class="bar" x="115" y="373.33333333333337" width="140" style="fill: rgb(0, 85, 255);" height="80"></rect><rect class="bar" x="325" y="106.66666666666667" width="0" style="fill: rgb(255, 69, 0);" height="80"></rect><rect class="bar" x="325" y="240" width="70" style="fill: rgb(255, 69, 0);" height="80"></rect><rect class="bar" x="325" y="373.33333333333337" width="70" style="fill: rgb(255, 69, 0);" height="80"></rect></svg>