<svg xmlns="http://www.w3.org/2000/svg" id="chart" width="600" height="400"> <text x="300" y="30" style="font-family: sans-serif; font-size: 12pt; stroke: black; text-anchor: middle;">H₀: μ₁ - μ₂ = 0.00 , H₁: μ₁ - μ₂ ≠ 0.00</text><text x="300" y="60" style="font-family: sans-serif; font-size: 9pt; stroke: green; text-anchor: middle;">[TestStat] = (d̄ - D) / ( Sd/√n) )  ~  t(7) Distribution</text><g transform="translate(90,270)" fill="none" font-size="10" font-family="sans-serif" text-anchor="middle"><path class="domain" stroke="#000" d="M0.5,6V0.5H420.5V6"></path><g class="tick" opacity="1" transform="translate(0.5,0)"><line stroke="#000" y2="6"></line><text fill="#000" y="9" dy="0.71em">-5</text></g><g class="tick" opacity="1" transform="translate(42.5,0)"><line stroke="#000" y2="6"></line><text fill="#000" y="9" dy="0.71em">-4</text></g><g class="tick" opacity="1" transform="translate(84.5,0)"><line stroke="#000" y2="6"></line><text fill="#000" y="9" dy="0.71em">-3</text></g><g class="tick" opacity="1" transform="translate(126.5,0)"><line stroke="#000" y2="6"></line><text fill="#000" y="9" dy="0.71em">-2</text></g><g class="tick" opacity="1" transform="translate(168.5,0)"><line stroke="#000" y2="6"></line><text fill="#000" y="9" dy="0.71em">-1</text></g><g class="tick" opacity="1" transform="translate(210.5,0)"><line stroke="#000" y2="6"></line><text fill="#000" y="9" dy="0.71em">0</text></g><g class="tick" opacity="1" transform="translate(252.5,0)"><line stroke="#000" y2="6"></line><text fill="#000" y="9" dy="0.71em">1</text></g><g class="tick" opacity="1" transform="translate(294.5,0)"><line stroke="#000" y2="6"></line><text fill="#000" y="9" dy="0.71em">2</text></g><g class="tick" opacity="1" transform="translate(336.5,0)"><line stroke="#000" y2="6"></line><text fill="#000" y="9" dy="0.71em">3</text></g><g class="tick" opacity="1" transform="translate(378.5,0)"><line stroke="#000" y2="6"></line><text fill="#000" y="9" dy="0.71em">4</text></g><g class="tick" opacity="1" transform="translate(420.5,0)"><line stroke="#000" y2="6"></line><text fill="#000" y="9" dy="0.71em">5</text></g></g><g transform="translate(90,60)" fill="none" font-size="10" font-family="sans-serif" text-anchor="end"><path class="domain" stroke="#000" d="M-6,0.5H0.5V210.5H-6"></path><g class="tick" opacity="1" transform="translate(0,13.103023372808707)"><line stroke="#000" x2="-6"></line><text fill="#000" x="-9" dy="0.32em">0.45</text></g><g class="tick" opacity="1" transform="translate(0,35.036020775829996)"><line stroke="#000" x2="-6"></line><text fill="#000" x="-9" dy="0.32em">0.40</text></g><g class="tick" opacity="1" transform="translate(0,56.96901817885126)"><line stroke="#000" x2="-6"></line><text fill="#000" x="-9" dy="0.32em">0.35</text></g><g class="tick" opacity="1" transform="translate(0,78.90201558187249)"><line stroke="#000" x2="-6"></line><text fill="#000" x="-9" dy="0.32em">0.30</text></g><g class="tick" opacity="1" transform="translate(0,100.83501298489375)"><line stroke="#000" x2="-6"></line><text fill="#000" x="-9" dy="0.32em">0.25</text></g><g class="tick" opacity="1" transform="translate(0,122.768010387915)"><line stroke="#000" x2="-6"></line><text fill="#000" x="-9" dy="0.32em">0.20</text></g><g class="tick" opacity="1" transform="translate(0,144.70100779093625)"><line stroke="#000" x2="-6"></line><text fill="#000" x="-9" dy="0.32em">0.15</text></g><g class="tick" opacity="1" transform="translate(0,166.6340051939575)"><line stroke="#000" x2="-6"></line><text fill="#000" x="-9" dy="0.32em">0.10</text></g><g class="tick" opacity="1" transform="translate(0,188.56700259697874)"><line stroke="#000" x2="-6"></line><text fill="#000" x="-9" dy="0.32em">0.05</text></g><g class="tick" opacity="1" transform="translate(0,210.5)"><line stroke="#000" x2="-6"></line><text fill="#000" x="-9" dy="0.32em">0.00</text></g></g><line x1="90" y1="269.61330254372433" x2="91" y2="269.6016048281632" stroke-width="2px" style="stroke: black;"></line><line x1="91" y1="269.6016048281632" x2="92" y2="269.5895204785227" stroke-width="2px" style="stroke: black;"></line><line x1="92" y1="269.5895204785227" x2="92.99999999999999" y2="269.57703575589187" stroke-width="2px" style="stroke: black;"></line><line x1="92.99999999999999" y1="269.57703575589187" x2="93.99999999999999" y2="269.564136404509" stroke-width="2px" style="stroke: black;"></line><line x1="93.99999999999999" y1="269.564136404509" x2="94.99999999999999" y2="269.55080763151005" stroke-width="2px" style="stroke: black;"></line><line x1="94.99999999999999" y1="269.55080763151005" x2="95.99999999999997" y2="269.53703408586733" stroke-width="2px" style="stroke: black;"></line><line x1="95.99999999999997" y1="269.53703408586733" x2="96.99999999999997" y2="269.52279983648515" stroke-width="2px" style="stroke: black;"></line><line x1="96.99999999999997" y1="269.52279983648515" x2="97.99999999999997" y2="269.5080883494202" stroke-width="2px" style="stroke: black;"></line><line x1="97.99999999999997" y1="269.5080883494202" x2="98.99999999999997" y2="269.4928824641912" stroke-width="2px" style="stroke: black;"></line><line x1="98.99999999999997" y1="269.4928824641912" x2="99.99999999999997" y2="269.47716436914214" stroke-width="2px" style="stroke: black;"></line><line x1="99.99999999999997" y1="269.47716436914214" x2="100.99999999999996" y2="269.4609155758222" stroke-width="2px" style="stroke: black;"></line><line x1="100.99999999999996" y1="269.4609155758222" x2="101.99999999999996" y2="269.44411689234306" stroke-width="2px" style="stroke: black;"></line><line x1="101.99999999999996" y1="269.44411689234306" x2="102.99999999999996" y2="269.426748395675" stroke-width="2px" style="stroke: black;"></line><line x1="102.99999999999996" y1="269.426748395675" x2="103.99999999999994" y2="269.4087894028384" stroke-width="2px" style="stroke: black;"></line><line x1="103.99999999999994" y1="269.4087894028384" x2="104.99999999999994" y2="269.39021844094964" stroke-width="2px" style="stroke: black;"></line><line x1="104.99999999999994" y1="269.39021844094964" x2="105.99999999999994" y2="269.3710132160762" stroke-width="2px" style="stroke: black;"></line><line x1="105.99999999999994" y1="269.3710132160762" x2="106.99999999999994" y2="269.35115058085506" stroke-width="2px" style="stroke: black;"></line><line x1="106.99999999999994" y1="269.35115058085506" x2="107.99999999999994" y2="269.33060650082666" stroke-width="2px" style="stroke: black;"></line><line x1="107.99999999999994" y1="269.33060650082666" x2="108.99999999999993" y2="269.3093560194364" stroke-width="2px" style="stroke: black;"></line><line x1="108.99999999999993" y1="269.3093560194364" x2="109.99999999999993" y2="269.2873732216514" stroke-width="2px" style="stroke: black;"></line><line x1="109.99999999999993" y1="269.2873732216514" x2="110.99999999999993" y2="269.26463119614175" stroke-width="2px" style="stroke: black;"></line><line x1="110.99999999999993" y1="269.26463119614175" x2="111.99999999999991" y2="269.24110199597027" stroke-width="2px" style="stroke: black;"></line><line x1="111.99999999999991" y1="269.24110199597027" x2="112.99999999999991" y2="269.21675659773666" stroke-width="2px" style="stroke: black;"></line><line x1="112.99999999999991" y1="269.21675659773666" x2="113.99999999999991" y2="269.1915648591175" stroke-width="2px" style="stroke: black;"></line><line x1="113.99999999999991" y1="269.1915648591175" x2="114.99999999999991" y2="269.16549547474204" stroke-width="2px" style="stroke: black;"></line><line x1="114.99999999999991" y1="269.16549547474204" x2="115.99999999999991" y2="269.1385159303447" stroke-width="2px" style="stroke: black;"></line><line x1="115.99999999999991" y1="269.1385159303447" x2="116.9999999999999" y2="269.11059245512797" stroke-width="2px" style="stroke: black;"></line><line x1="116.9999999999999" y1="269.11059245512797" x2="117.9999999999999" y2="269.0816899722742" stroke-width="2px" style="stroke: black;"></line><line x1="117.9999999999999" y1="269.0816899722742" x2="118.9999999999999" y2="269.05177204753664" stroke-width="2px" style="stroke: black;"></line><line x1="118.9999999999999" y1="269.05177204753664" x2="119.99999999999989" y2="269.020800835843" stroke-width="2px" style="stroke: black;"></line><line x1="119.99999999999989" y1="269.020800835843" x2="120.99999999999989" y2="268.98873702583984" stroke-width="2px" style="stroke: black;"></line><line x1="120.99999999999989" y1="268.98873702583984" x2="121.99999999999989" y2="268.95553978230623" stroke-width="2px" style="stroke: black;"></line><line x1="121.99999999999989" y1="268.95553978230623" x2="122.99999999999989" y2="268.9211666863619" stroke-width="2px" style="stroke: black;"></line><line x1="122.99999999999989" y1="268.9211666863619" x2="123.99999999999989" y2="268.8855736733943" stroke-width="2px" style="stroke: black;"></line><line x1="123.99999999999989" y1="268.8855736733943" x2="124.99999999999987" y2="268.84871496862604" stroke-width="2px" style="stroke: black;"></line><line x1="124.99999999999987" y1="268.84871496862604" x2="125.99999999999987" y2="268.81054302024455" stroke-width="2px" style="stroke: black;"></line><line x1="125.99999999999987" y1="268.81054302024455" x2="126.99999999999987" y2="268.77100843001097" stroke-width="2px" style="stroke: black;"></line><line x1="126.99999999999987" y1="268.77100843001097" x2="127.99999999999986" y2="268.73005988126675" stroke-width="2px" style="stroke: black;"></line><line x1="127.99999999999986" y1="268.73005988126675" x2="128.99999999999986" y2="268.6876440642527" stroke-width="2px" style="stroke: black;"></line><line x1="128.99999999999986" y1="268.6876440642527" x2="129.99999999999986" y2="268.6437055986554" stroke-width="2px" style="stroke: black;"></line><line x1="129.99999999999986" y1="268.6437055986554" x2="130.99999999999986" y2="268.59818695329255" stroke-width="2px" style="stroke: black;"></line><line x1="130.99999999999986" y1="268.59818695329255" x2="131.99999999999986" y2="268.5510283628499" stroke-width="2px" style="stroke: black;"></line><line x1="131.99999999999986" y1="268.5510283628499" x2="132.99999999999983" y2="268.50216774157934" stroke-width="2px" style="stroke: black;"></line><line x1="132.99999999999983" y1="268.50216774157934" x2="133.99999999999983" y2="268.45154059386795" stroke-width="2px" style="stroke: black;"></line><line x1="133.99999999999983" y1="268.45154059386795" x2="134.99999999999983" y2="268.39907992158646" stroke-width="2px" style="stroke: black;"></line><line x1="134.99999999999983" y1="268.39907992158646" x2="135.99999999999983" y2="268.3447161281253" stroke-width="2px" style="stroke: black;"></line><line x1="135.99999999999983" y1="268.3447161281253" x2="136.99999999999983" y2="268.28837691902606" stroke-width="2px" style="stroke: black;"></line><line x1="136.99999999999983" y1="268.28837691902606" x2="137.99999999999983" y2="268.2299871991158" stroke-width="2px" style="stroke: black;"></line><line x1="137.99999999999983" y1="268.2299871991158" x2="138.99999999999983" y2="268.169468966052" stroke-width="2px" style="stroke: black;"></line><line x1="138.99999999999983" y1="268.169468966052" x2="139.99999999999983" y2="268.10674120018734" stroke-width="2px" style="stroke: black;"></line><line x1="139.99999999999983" y1="268.10674120018734" x2="140.99999999999983" y2="268.0417197506617" stroke-width="2px" style="stroke: black;"></line><line x1="140.99999999999983" y1="268.0417197506617" x2="141.99999999999983" y2="267.97431721763394" stroke-width="2px" style="stroke: black;"></line><line x1="141.99999999999983" y1="267.97431721763394" x2="142.9999999999998" y2="267.90444283056473" stroke-width="2px" style="stroke: black;"></line><line x1="142.9999999999998" y1="267.90444283056473" x2="143.9999999999998" y2="267.83200232246384" stroke-width="2px" style="stroke: black;"></line><line x1="143.9999999999998" y1="267.83200232246384" x2="144.9999999999998" y2="267.7568978000205" stroke-width="2px" style="stroke: black;"></line><line x1="144.9999999999998" y1="267.7568978000205" x2="145.9999999999998" y2="267.6790276095357" stroke-width="2px" style="stroke: black;"></line><line x1="145.9999999999998" y1="267.6790276095357" x2="146.9999999999998" y2="267.5982861985813" stroke-width="2px" style="stroke: black;"></line><line x1="146.9999999999998" y1="267.5982861985813" x2="147.9999999999998" y2="267.5145639733139" stroke-width="2px" style="stroke: black;"></line><line x1="147.9999999999998" y1="267.5145639733139" x2="148.9999999999998" y2="267.42774715137745" stroke-width="2px" style="stroke: black;"></line><line x1="148.9999999999998" y1="267.42774715137745" x2="149.99999999999977" y2="267.3377176103346" stroke-width="2px" style="stroke: black;"></line><line x1="149.99999999999977" y1="267.3377176103346" x2="150.99999999999977" y2="267.24435273157377" stroke-width="2px" style="stroke: black;"></line><line x1="150.99999999999977" y1="267.24435273157377" x2="151.99999999999977" y2="267.14752523964535" stroke-width="2px" style="stroke: black;"></line><line x1="151.99999999999977" y1="267.14752523964535" x2="152.99999999999977" y2="267.04710303699187" stroke-width="2px" style="stroke: black;"></line><line x1="152.99999999999977" y1="267.04710303699187" x2="153.99999999999977" y2="266.9429490340453" stroke-width="2px" style="stroke: black;"></line><line x1="153.99999999999977" y1="266.9429490340453" x2="154.99999999999977" y2="266.8349209746747" stroke-width="2px" style="stroke: black;"></line><line x1="154.99999999999977" y1="266.8349209746747" x2="155.99999999999977" y2="266.72287125698324" stroke-width="2px" style="stroke: black;"></line><line x1="155.99999999999977" y1="266.72287125698324" x2="156.99999999999977" y2="266.6066467494638" stroke-width="2px" style="stroke: black;"></line><line x1="156.99999999999977" y1="266.6066467494638" x2="157.99999999999977" y2="266.4860886025394" stroke-width="2px" style="stroke: black;"></line><line x1="157.99999999999977" y1="266.4860886025394" x2="158.99999999999974" y2="266.3610320555319" stroke-width="2px" style="stroke: black;"></line><line x1="158.99999999999974" y1="266.3610320555319" x2="159.99999999999974" y2="266.2313062391196" stroke-width="2px" style="stroke: black;"></line><line x1="159.99999999999974" y1="266.2313062391196" x2="160.99999999999974" y2="266.09673397336576" stroke-width="2px" style="stroke: black;"></line><line x1="160.99999999999974" y1="266.09673397336576" x2="161.99999999999974" y2="265.95713156142153" stroke-width="2px" style="stroke: black;"></line><line x1="161.99999999999974" y1="265.95713156142153" x2="162.99999999999974" y2="265.8123085790323" stroke-width="2px" style="stroke: black;"></line><line x1="162.99999999999974" y1="265.8123085790323" x2="163.99999999999974" y2="265.6620676600005" stroke-width="2px" style="stroke: black;"></line><line x1="163.99999999999974" y1="265.6620676600005" x2="164.99999999999974" y2="265.5062042777909" stroke-width="2px" style="stroke: black;"></line><line x1="164.99999999999974" y1="265.5062042777909" x2="165.99999999999972" y2="265.34450652349" stroke-width="2px" style="stroke: black;"></line><line x1="165.99999999999972" y1="265.34450652349" x2="166.99999999999972" y2="265.1767548803707" stroke-width="2px" style="stroke: black;"></line><line x1="166.99999999999972" y1="265.1767548803707" x2="167.99999999999972" y2="265.00272199534663" stroke-width="2px" style="stroke: black;"></line><line x1="167.99999999999972" y1="265.00272199534663" x2="168.99999999999972" y2="264.8221724476403" stroke-width="2px" style="stroke: black;"></line><line x1="168.99999999999972" y1="264.8221724476403" x2="169.99999999999972" y2="264.63486251503366" stroke-width="2px" style="stroke: black;"></line><line x1="169.99999999999972" y1="264.63486251503366" x2="170.99999999999972" y2="264.44053993811394" stroke-width="2px" style="stroke: black;"></line><line x1="170.99999999999972" y1="264.44053993811394" x2="171.99999999999972" y2="264.23894368297715" stroke-width="2px" style="stroke: black;"></line><line x1="171.99999999999972" y1="264.23894368297715" x2="172.99999999999972" y2="264.0298037029054" stroke-width="2px" style="stroke: black;"></line><line x1="172.99999999999972" y1="264.0298037029054" x2="173.99999999999972" y2="263.8128406995893" stroke-width="2px" style="stroke: black;"></line><line x1="173.99999999999972" y1="263.8128406995893" x2="174.9999999999997" y2="263.58776588452844" stroke-width="2px" style="stroke: black;"></line><line x1="174.9999999999997" y1="263.58776588452844" x2="175.9999999999997" y2="263.3542807413068" stroke-width="2px" style="stroke: black;"></line><line x1="175.9999999999997" y1="263.3542807413068" x2="176.9999999999997" y2="263.1120767895088" stroke-width="2px" style="stroke: black;"></line><line x1="176.9999999999997" y1="263.1120767895088" x2="177.9999999999997" y2="262.86083535111396" stroke-width="2px" style="stroke: black;"></line><line x1="177.9999999999997" y1="262.86083535111396" x2="178.9999999999997" y2="262.6002273202873" stroke-width="2px" style="stroke: black;"></line><line x1="178.9999999999997" y1="262.6002273202873" x2="179.9999999999997" y2="262.3299129375632" stroke-width="2px" style="stroke: black;"></line><line x1="179.9999999999997" y1="262.3299129375632" x2="180.9999999999997" y2="262.0495415695079" stroke-width="2px" style="stroke: black;"></line><line x1="180.9999999999997" y1="262.0495415695079" x2="181.99999999999966" y2="261.75875149503673" stroke-width="2px" style="stroke: black;"></line><line x1="181.99999999999966" y1="261.75875149503673" x2="182.99999999999966" y2="261.45716969966077" stroke-width="2px" style="stroke: black;"></line><line x1="182.99999999999966" y1="261.45716969966077" x2="183.99999999999966" y2="261.14441167903624" stroke-width="2px" style="stroke: black;"></line><line x1="183.99999999999966" y1="261.14441167903624" x2="184.99999999999966" y2="260.820081253299" stroke-width="2px" style="stroke: black;"></line><line x1="184.99999999999966" y1="260.820081253299" x2="185.99999999999966" y2="260.48377039377675" stroke-width="2px" style="stroke: black;"></line><line x1="185.99999999999966" y1="260.48377039377675" x2="186.99999999999966" y2="260.13505906378776" stroke-width="2px" style="stroke: black;"></line><line x1="186.99999999999966" y1="260.13505906378776" x2="187.99999999999966" y2="259.7735150753585" stroke-width="2px" style="stroke: black;"></line><line x1="187.99999999999966" y1="259.7735150753585" x2="188.99999999999966" y2="259.3986939638155" stroke-width="2px" style="stroke: black;"></line><line x1="188.99999999999966" y1="259.3986939638155" x2="189.99999999999966" y2="259.0101388823408" stroke-width="2px" style="stroke: black;"></line><line x1="189.99999999999966" y1="259.0101388823408" x2="190.99999999999963" y2="258.60738051871397" stroke-width="2px" style="stroke: black;"></line><line x1="190.99999999999963" y1="258.60738051871397" x2="191.99999999999963" y2="258.18993703660294" stroke-width="2px" style="stroke: black;"></line><line x1="191.99999999999963" y1="258.18993703660294" x2="192.99999999999963" y2="257.7573140439111" stroke-width="2px" style="stroke: black;"></line><line x1="192.99999999999963" y1="257.7573140439111" x2="193.99999999999963" y2="257.3090045908324" stroke-width="2px" style="stroke: black;"></line><line x1="193.99999999999963" y1="257.3090045908324" x2="194.99999999999963" y2="256.8444892004176" stroke-width="2px" style="stroke: black;"></line><line x1="194.99999999999963" y1="256.8444892004176" x2="195.9999999999996" y2="256.36323593460645" stroke-width="2px" style="stroke: black;"></line><line x1="195.9999999999996" y1="256.36323593460645" x2="196.9999999999996" y2="255.86470049883323" stroke-width="2px" style="stroke: black;"></line><line x1="196.9999999999996" y1="255.86470049883323" x2="197.9999999999996" y2="255.34832638846962" stroke-width="2px" style="stroke: black;"></line><line x1="197.9999999999996" y1="255.34832638846962" x2="198.9999999999996" y2="254.81354508052124" stroke-width="2px" style="stroke: black;"></line><line x1="198.9999999999996" y1="254.81354508052124" x2="199.9999999999996" y2="254.259776274149" stroke-width="2px" style="stroke: black;"></line><line x1="199.9999999999996" y1="254.259776274149" x2="200.9999999999996" y2="253.6864281837378" stroke-width="2px" style="stroke: black;"></line><line x1="200.9999999999996" y1="253.6864281837378" x2="201.9999999999996" y2="253.09289788838208" stroke-width="2px" style="stroke: black;"></line><line x1="201.9999999999996" y1="253.09289788838208" x2="202.9999999999996" y2="252.478571741802" stroke-width="2px" style="stroke: black;"></line><line x1="202.9999999999996" y1="252.478571741802" x2="203.9999999999996" y2="251.84282584683987" stroke-width="2px" style="stroke: black;"></line><line x1="203.9999999999996" y1="251.84282584683987" x2="204.9999999999996" y2="251.18502659881534" stroke-width="2px" style="stroke: black;"></line><line x1="204.9999999999996" y1="251.18502659881534" x2="205.9999999999996" y2="250.50453130213603" stroke-width="2px" style="stroke: black;"></line><line x1="205.9999999999996" y1="250.50453130213603" x2="206.9999999999996" y2="249.80068886466762" stroke-width="2px" style="stroke: black;"></line><line x1="206.9999999999996" y1="249.80068886466762" x2="207.9999999999996" y2="249.07284057445798" stroke-width="2px" style="stroke: black;"></line><line x1="207.9999999999996" y1="249.07284057445798" x2="208.99999999999957" y2="248.3203209634872" stroke-width="2px" style="stroke: black;"></line><line x1="208.99999999999957" y1="248.3203209634872" x2="209.99999999999957" y2="247.54245876316995" stroke-width="2px" style="stroke: black;"></line><line x1="209.99999999999957" y1="247.54245876316995" x2="210.99999999999957" y2="246.73857795637122" stroke-width="2px" style="stroke: black;"></line><line x1="210.99999999999957" y1="246.73857795637122" x2="211.99999999999957" y2="245.907998930706" stroke-width="2px" style="stroke: black;"></line><line x1="211.99999999999957" y1="245.907998930706" x2="212.99999999999957" y2="245.0500397378735" stroke-width="2px" style="stroke: black;"></line><line x1="212.99999999999957" y1="245.0500397378735" x2="213.99999999999957" y2="244.16401746372694" stroke-width="2px" style="stroke: black;"></line><line x1="213.99999999999957" y1="244.16401746372694" x2="214.99999999999955" y2="243.24924971369353" stroke-width="2px" style="stroke: black;"></line><line x1="214.99999999999955" y1="243.24924971369353" x2="215.99999999999955" y2="242.30505621803732" stroke-width="2px" style="stroke: black;"></line><line x1="215.99999999999955" y1="242.30505621803732" x2="216.99999999999955" y2="241.33076056129022" stroke-width="2px" style="stroke: black;"></line><line x1="216.99999999999955" y1="241.33076056129022" x2="217.99999999999955" y2="240.32569203996565" stroke-width="2px" style="stroke: black;"></line><line x1="217.99999999999955" y1="240.32569203996565" x2="218.99999999999955" y2="239.28918765240863" stroke-width="2px" style="stroke: black;"></line><line x1="218.99999999999955" y1="239.28918765240863" x2="219.99999999999955" y2="238.22059422431985" stroke-width="2px" style="stroke: black;"></line><line x1="219.99999999999955" y1="238.22059422431985" x2="220.99999999999955" y2="237.11927067312027" stroke-width="2px" style="stroke: black;"></line><line x1="220.99999999999955" y1="237.11927067312027" x2="221.99999999999952" y2="235.9845904138881" stroke-width="2px" style="stroke: black;"></line><line x1="221.99999999999952" y1="235.9845904138881" x2="222.99999999999952" y2="234.81594390910104" stroke-width="2px" style="stroke: black;"></line><line x1="222.99999999999952" y1="234.81594390910104" x2="223.99999999999952" y2="233.6127413638498" stroke-width="2px" style="stroke: black;"></line><line x1="223.99999999999952" y1="233.6127413638498" x2="224.99999999999952" y2="232.37441556754695" stroke-width="2px" style="stroke: black;"></line><line x1="224.99999999999952" y1="232.37441556754695" x2="225.99999999999952" y2="231.1004248824414" stroke-width="2px" style="stroke: black;"></line><line x1="225.99999999999952" y1="231.1004248824414" x2="226.99999999999952" y2="229.79025637845314" stroke-width="2px" style="stroke: black;"></line><line x1="226.99999999999952" y1="229.79025637845314" x2="227.9999999999995" y2="228.44342911296923" stroke-width="2px" style="stroke: black;"></line><line x1="227.9999999999995" y1="228.44342911296923" x2="228.9999999999995" y2="227.05949755328282" stroke-width="2px" style="stroke: black;"></line><line x1="228.9999999999995" y1="227.05949755328282" x2="229.9999999999995" y2="225.6380551383162" stroke-width="2px" style="stroke: black;"></line><line x1="229.9999999999995" y1="225.6380551383162" x2="230.9999999999995" y2="224.17873797514173" stroke-width="2px" style="stroke: black;"></line><line x1="230.9999999999995" y1="224.17873797514173" x2="231.9999999999995" y2="222.68122866460243" stroke-width="2px" style="stroke: black;"></line><line x1="231.9999999999995" y1="222.68122866460243" x2="232.9999999999995" y2="221.14526024903742" stroke-width="2px" style="stroke: black;"></line><line x1="232.9999999999995" y1="221.14526024903742" x2="233.9999999999995" y2="219.57062027374286" stroke-width="2px" style="stroke: black;"></line><line x1="233.9999999999995" y1="219.57062027374286" x2="234.9999999999995" y2="217.95715495233793" stroke-width="2px" style="stroke: black;"></line><line x1="234.9999999999995" y1="217.95715495233793" x2="235.9999999999995" y2="216.30477342467753" stroke-width="2px" style="stroke: black;"></line><line x1="235.9999999999995" y1="216.30477342467753" x2="236.9999999999995" y2="214.61345209435098" stroke-width="2px" style="stroke: black;"></line><line x1="236.9999999999995" y1="214.61345209435098" x2="237.9999999999995" y2="212.8832390311418" stroke-width="2px" style="stroke: black;"></line><line x1="237.9999999999995" y1="212.8832390311418" x2="238.9999999999995" y2="211.11425842210895" stroke-width="2px" style="stroke: black;"></line><line x1="238.9999999999995" y1="211.11425842210895" x2="239.9999999999995" y2="209.30671505318412" stroke-width="2px" style="stroke: black;"></line><line x1="239.9999999999995" y1="209.30671505318412" x2="240.99999999999946" y2="207.46089880138885" stroke-width="2px" style="stroke: black;"></line><line x1="240.99999999999946" y1="207.46089880138885" x2="241.99999999999946" y2="205.57718911595887" stroke-width="2px" style="stroke: black;"></line><line x1="241.99999999999946" y1="205.57718911595887" x2="242.99999999999946" y2="203.65605946484428" stroke-width="2px" style="stroke: black;"></line><line x1="242.99999999999946" y1="203.65605946484428" x2="243.99999999999946" y2="201.69808172124814" stroke-width="2px" style="stroke: black;"></line><line x1="243.99999999999946" y1="201.69808172124814" x2="244.99999999999946" y2="199.70393046308828" stroke-width="2px" style="stroke: black;"></line><line x1="244.99999999999946" y1="199.70393046308828" x2="245.99999999999946" y2="197.6743871565409" stroke-width="2px" style="stroke: black;"></line><line x1="245.99999999999946" y1="197.6743871565409" x2="246.99999999999943" y2="195.6103441931702" stroke-width="2px" style="stroke: black;"></line><line x1="246.99999999999943" y1="195.6103441931702" x2="247.99999999999943" y2="193.51280874858804" stroke-width="2px" style="stroke: black;"></line><line x1="247.99999999999943" y1="193.51280874858804" x2="248.99999999999943" y2="191.38290642914774" stroke-width="2px" style="stroke: black;"></line><line x1="248.99999999999943" y1="191.38290642914774" x2="249.99999999999943" y2="189.22188467188153" stroke-width="2px" style="stroke: black;"></line><line x1="249.99999999999943" y1="189.22188467188153" x2="250.99999999999943" y2="187.03111586176857" stroke-width="2px" style="stroke: black;"></line><line x1="250.99999999999943" y1="187.03111586176857" x2="251.99999999999943" y2="184.81210012949674" stroke-width="2px" style="stroke: black;"></line><line x1="251.99999999999943" y1="184.81210012949674" x2="252.99999999999943" y2="182.5664677921863" stroke-width="2px" style="stroke: black;"></line><line x1="252.99999999999943" y1="182.5664677921863" x2="253.9999999999994" y2="180.2959813991036" stroke-width="2px" style="stroke: black;"></line><line x1="253.9999999999994" y1="180.2959813991036" x2="254.9999999999994" y2="178.002537344235" stroke-width="2px" style="stroke: black;"></line><line x1="254.9999999999994" y1="178.002537344235" x2="255.9999999999994" y2="175.688167007748" stroke-width="2px" style="stroke: black;"></line><line x1="255.9999999999994" y1="175.688167007748" x2="256.99999999999943" y2="173.35503738885217" stroke-width="2px" style="stroke: black;"></line><line x1="256.99999999999943" y1="173.35503738885217" x2="257.99999999999943" y2="171.00545119342874" stroke-width="2px" style="stroke: black;"></line><line x1="257.99999999999943" y1="171.00545119342874" x2="258.99999999999943" y2="168.64184634102776" stroke-width="2px" style="stroke: black;"></line><line x1="258.99999999999943" y1="168.64184634102776" x2="259.9999999999994" y2="166.2667948574708" stroke-width="2px" style="stroke: black;"></line><line x1="259.9999999999994" y1="166.2667948574708" x2="260.9999999999994" y2="163.8830011213522" stroke-width="2px" style="stroke: black;"></line><line x1="260.9999999999994" y1="163.8830011213522" x2="261.9999999999994" y2="161.49329943521872" stroke-width="2px" style="stroke: black;"></line><line x1="261.9999999999994" y1="161.49329943521872" x2="262.99999999999943" y2="159.10065089513705" stroke-width="2px" style="stroke: black;"></line><line x1="262.99999999999943" y1="159.10065089513705" x2="263.99999999999943" y2="156.70813953572582" stroke-width="2px" style="stroke: black;"></line><line x1="263.99999999999943" y1="156.70813953572582" x2="264.99999999999943" y2="154.3189677315448" stroke-width="2px" style="stroke: black;"></line><line x1="264.99999999999943" y1="154.3189677315448" x2="265.99999999999943" y2="151.9364508399785" stroke-width="2px" style="stroke: black;"></line><line x1="265.99999999999943" y1="151.9364508399785" x2="266.99999999999943" y2="149.56401107541876" stroke-width="2px" style="stroke: black;"></line><line x1="266.99999999999943" y1="149.56401107541876" x2="267.99999999999943" y2="147.20517060961873" stroke-width="2px" style="stroke: black;"></line><line x1="267.99999999999943" y1="147.20517060961873" x2="268.99999999999943" y2="144.86354389853074" stroke-width="2px" style="stroke: black;"></line><line x1="268.99999999999943" y1="144.86354389853074" x2="269.99999999999943" y2="142.54282924172276" stroke-width="2px" style="stroke: black;"></line><line x1="269.99999999999943" y1="142.54282924172276" x2="270.99999999999943" y2="140.24679958654374" stroke-width="2px" style="stroke: black;"></line><line x1="270.99999999999943" y1="140.24679958654374" x2="271.99999999999943" y2="137.97929259554442" stroke-width="2px" style="stroke: black;"></line><line x1="271.99999999999943" y1="137.97929259554442" x2="272.99999999999943" y2="135.7442000021852" stroke-width="2px" style="stroke: black;"></line><line x1="272.99999999999943" y1="135.7442000021852" x2="273.99999999999943" y2="133.54545628652946" stroke-width="2px" style="stroke: black;"></line><line x1="273.99999999999943" y1="133.54545628652946" x2="274.99999999999943" y2="131.38702670935888" stroke-width="2px" style="stroke: black;"></line><line x1="274.99999999999943" y1="131.38702670935888" x2="275.99999999999943" y2="129.272894749883" stroke-width="2px" style="stroke: black;"></line><line x1="275.99999999999943" y1="129.272894749883" x2="276.99999999999943" y2="127.20704899887753" stroke-width="2px" style="stroke: black;"></line><line x1="276.99999999999943" y1="127.20704899887753" x2="277.99999999999943" y2="125.19346956558832" stroke-width="2px" style="stroke: black;"></line><line x1="277.99999999999943" y1="125.19346956558832" x2="278.99999999999943" y2="123.23611406301026" stroke-width="2px" style="stroke: black;"></line><line x1="278.99999999999943" y1="123.23611406301026" x2="279.99999999999943" y2="121.3389032420948" stroke-width="2px" style="stroke: black;"></line><line x1="279.99999999999943" y1="121.3389032420948" x2="280.99999999999943" y2="119.50570635098384" stroke-width="2px" style="stroke: black;"></line><line x1="280.99999999999943" y1="119.50570635098384" x2="281.99999999999943" y2="117.74032630042689" stroke-width="2px" style="stroke: black;"></line><line x1="281.99999999999943" y1="117.74032630042689" x2="282.99999999999943" y2="116.04648472102397" stroke-width="2px" style="stroke: black;"></line><line x1="282.99999999999943" y1="116.04648472102397" x2="283.99999999999943" y2="114.42780700179051" stroke-width="2px" style="stroke: black;"></line><line x1="283.99999999999943" y1="114.42780700179051" x2="284.99999999999943" y2="112.88780740266645" stroke-width="2px" style="stroke: black;"></line><line x1="284.99999999999943" y1="112.88780740266645" x2="285.99999999999943" y2="111.42987433595695" stroke-width="2px" style="stroke: black;"></line><line x1="285.99999999999943" y1="111.42987433595695" x2="286.99999999999943" y2="110.05725591320311" stroke-width="2px" style="stroke: black;"></line><line x1="286.99999999999943" y1="110.05725591320311" x2="287.99999999999943" y2="108.77304585462986" stroke-width="2px" style="stroke: black;"></line><line x1="287.99999999999943" y1="108.77304585462986" x2="288.99999999999943" y2="107.58016985803314" stroke-width="2px" style="stroke: black;"></line><line x1="288.99999999999943" y1="107.58016985803314" x2="289.99999999999943" y2="106.48137252274722" stroke-width="2px" style="stroke: black;"></line><line x1="289.99999999999943" y1="106.48137252274722" x2="290.99999999999943" y2="105.47920492215351" stroke-width="2px" style="stroke: black;"></line><line x1="290.99999999999943" y1="105.47920492215351" x2="291.99999999999943" y2="104.5760129150504" stroke-width="2px" style="stroke: black;"></line><line x1="291.99999999999943" y1="104.5760129150504" x2="292.99999999999943" y2="103.77392628211871" stroke-width="2px" style="stroke: black;"></line><line x1="292.99999999999943" y1="103.77392628211871" x2="293.99999999999943" y2="103.07484876871223" stroke-width="2px" style="stroke: black;"></line><line x1="293.99999999999943" y1="103.07484876871223" x2="294.99999999999943" y2="102.48044910931446" stroke-width="2px" style="stroke: black;"></line><line x1="294.99999999999943" y1="102.48044910931446" x2="295.99999999999943" y2="101.99215310228504" stroke-width="2px" style="stroke: black;"></line><line x1="295.99999999999943" y1="101.99215310228504" x2="296.99999999999943" y2="101.61113679603741" stroke-width="2px" style="stroke: black;"></line><line x1="296.99999999999943" y1="101.61113679603741" x2="297.99999999999943" y2="101.33832083961889" stroke-width="2px" style="stroke: black;"></line><line x1="297.99999999999943" y1="101.33832083961889" x2="298.99999999999943" y2="101.17436604188882" stroke-width="2px" style="stroke: black;"></line><line x1="298.99999999999943" y1="101.17436604188882" x2="299.99999999999943" y2="101.11967017421003" stroke-width="2px" style="stroke: black;"></line><line x1="299.99999999999943" y1="101.11967017421003" x2="300.99999999999943" y2="101.17436604188867" stroke-width="2px" style="stroke: black;"></line><line x1="300.99999999999943" y1="101.17436604188867" x2="301.99999999999943" y2="101.33832083961875" stroke-width="2px" style="stroke: black;"></line><line x1="301.99999999999943" y1="101.33832083961875" x2="302.99999999999943" y2="101.6111367960371" stroke-width="2px" style="stroke: black;"></line><line x1="302.99999999999943" y1="101.6111367960371" x2="303.99999999999943" y2="101.99215310228459" stroke-width="2px" style="stroke: black;"></line><line x1="303.99999999999943" y1="101.99215310228459" x2="304.99999999999943" y2="102.48044910931384" stroke-width="2px" style="stroke: black;"></line><line x1="304.99999999999943" y1="102.48044910931384" x2="305.99999999999943" y2="103.07484876871146" stroke-width="2px" style="stroke: black;"></line><line x1="305.99999999999943" y1="103.07484876871146" x2="306.99999999999943" y2="103.77392628211786" stroke-width="2px" style="stroke: black;"></line><line x1="306.99999999999943" y1="103.77392628211786" x2="307.99999999999943" y2="104.57601291504952" stroke-width="2px" style="stroke: black;"></line><line x1="307.99999999999943" y1="104.57601291504952" x2="308.99999999999943" y2="105.47920492215238" stroke-width="2px" style="stroke: black;"></line><line x1="308.99999999999943" y1="105.47920492215238" x2="309.99999999999943" y2="106.48137252274591" stroke-width="2px" style="stroke: black;"></line><line x1="309.99999999999943" y1="106.48137252274591" x2="310.99999999999943" y2="107.58016985803184" stroke-width="2px" style="stroke: black;"></line><line x1="310.99999999999943" y1="107.58016985803184" x2="311.99999999999943" y2="108.77304585462844" stroke-width="2px" style="stroke: black;"></line><line x1="311.99999999999943" y1="108.77304585462844" x2="312.99999999999943" y2="110.05725591320157" stroke-width="2px" style="stroke: black;"></line><line x1="312.99999999999943" y1="110.05725591320157" x2="313.99999999999943" y2="111.42987433595545" stroke-width="2px" style="stroke: black;"></line><line x1="313.99999999999943" y1="111.42987433595545" x2="314.99999999999943" y2="112.8878074026648" stroke-width="2px" style="stroke: black;"></line><line x1="314.99999999999943" y1="112.8878074026648" x2="315.99999999999943" y2="114.42780700178872" stroke-width="2px" style="stroke: black;"></line><line x1="315.99999999999943" y1="114.42780700178872" x2="316.99999999999943" y2="116.04648472102215" stroke-width="2px" style="stroke: black;"></line><line x1="316.99999999999943" y1="116.04648472102215" x2="317.99999999999943" y2="117.7403263004249" stroke-width="2px" style="stroke: black;"></line><line x1="317.99999999999943" y1="117.7403263004249" x2="318.99999999999943" y2="119.50570635098174" stroke-width="2px" style="stroke: black;"></line><line x1="318.99999999999943" y1="119.50570635098174" x2="319.99999999999943" y2="121.33890324209275" stroke-width="2px" style="stroke: black;"></line><line x1="319.99999999999943" y1="121.33890324209275" x2="320.99999999999943" y2="123.23611406300813" stroke-width="2px" style="stroke: black;"></line><line x1="320.99999999999943" y1="123.23611406300813" x2="321.99999999999943" y2="125.19346956558613" stroke-width="2px" style="stroke: black;"></line><line x1="321.99999999999943" y1="125.19346956558613" x2="322.99999999999943" y2="127.20704899887525" stroke-width="2px" style="stroke: black;"></line><line x1="322.99999999999943" y1="127.20704899887525" x2="323.99999999999943" y2="129.2728947498806" stroke-width="2px" style="stroke: black;"></line><line x1="323.99999999999943" y1="129.2728947498806" x2="324.99999999999943" y2="131.3870267093564" stroke-width="2px" style="stroke: black;"></line><line x1="324.99999999999943" y1="131.3870267093564" x2="325.99999999999943" y2="133.545456286527" stroke-width="2px" style="stroke: black;"></line><line x1="325.99999999999943" y1="133.545456286527" x2="326.99999999999943" y2="135.7442000021827" stroke-width="2px" style="stroke: black;"></line><line x1="326.99999999999943" y1="135.7442000021827" x2="327.99999999999943" y2="137.9792925955419" stroke-width="2px" style="stroke: black;"></line><line x1="327.99999999999943" y1="137.9792925955419" x2="328.99999999999943" y2="140.24679958654113" stroke-width="2px" style="stroke: black;"></line><line x1="328.99999999999943" y1="140.24679958654113" x2="329.99999999999943" y2="142.54282924172014" stroke-width="2px" style="stroke: black;"></line><line x1="329.99999999999943" y1="142.54282924172014" x2="330.99999999999943" y2="144.86354389852818" stroke-width="2px" style="stroke: black;"></line><line x1="330.99999999999943" y1="144.86354389852818" x2="331.99999999999943" y2="147.20517060961598" stroke-width="2px" style="stroke: black;"></line><line x1="331.99999999999943" y1="147.20517060961598" x2="332.99999999999943" y2="149.56401107541615" stroke-width="2px" style="stroke: black;"></line><line x1="332.99999999999943" y1="149.56401107541615" x2="333.99999999999943" y2="151.9364508399758" stroke-width="2px" style="stroke: black;"></line><line x1="333.99999999999943" y1="151.9364508399758" x2="334.99999999999943" y2="154.31896773154207" stroke-width="2px" style="stroke: black;"></line><line x1="334.99999999999943" y1="154.31896773154207" x2="335.99999999999943" y2="156.7081395357231" stroke-width="2px" style="stroke: black;"></line><line x1="335.99999999999943" y1="156.7081395357231" x2="336.99999999999943" y2="159.10065089513432" stroke-width="2px" style="stroke: black;"></line><line x1="336.99999999999943" y1="159.10065089513432" x2="337.99999999999943" y2="161.4932994352161" stroke-width="2px" style="stroke: black;"></line><line x1="337.99999999999943" y1="161.4932994352161" x2="338.99999999999943" y2="163.8830011213495" stroke-width="2px" style="stroke: black;"></line><line x1="338.99999999999943" y1="163.8830011213495" x2="339.9999999999995" y2="166.26679485746814" stroke-width="2px" style="stroke: black;"></line><line x1="339.9999999999995" y1="166.26679485746814" x2="340.9999999999995" y2="168.6418463410251" stroke-width="2px" style="stroke: black;"></line><line x1="340.9999999999995" y1="168.6418463410251" x2="341.9999999999995" y2="171.00545119342604" stroke-width="2px" style="stroke: black;"></line><line x1="341.9999999999995" y1="171.00545119342604" x2="342.99999999999943" y2="173.3550373888495" stroke-width="2px" style="stroke: black;"></line><line x1="342.99999999999943" y1="173.3550373888495" x2="343.99999999999943" y2="175.6881670077454" stroke-width="2px" style="stroke: black;"></line><line x1="343.99999999999943" y1="175.6881670077454" x2="344.99999999999943" y2="178.00253734423245" stroke-width="2px" style="stroke: black;"></line><line x1="344.99999999999943" y1="178.00253734423245" x2="345.99999999999943" y2="180.295981399101" stroke-width="2px" style="stroke: black;"></line><line x1="345.99999999999943" y1="180.295981399101" x2="346.99999999999943" y2="182.56646779218386" stroke-width="2px" style="stroke: black;"></line><line x1="346.99999999999943" y1="182.56646779218386" x2="347.99999999999943" y2="184.8121001294942" stroke-width="2px" style="stroke: black;"></line><line x1="347.99999999999943" y1="184.8121001294942" x2="348.99999999999943" y2="187.03111586176607" stroke-width="2px" style="stroke: black;"></line><line x1="348.99999999999943" y1="187.03111586176607" x2="349.99999999999943" y2="189.22188467187902" stroke-width="2px" style="stroke: black;"></line><line x1="349.99999999999943" y1="189.22188467187902" x2="350.99999999999943" y2="191.3829064291453" stroke-width="2px" style="stroke: black;"></line><line x1="350.99999999999943" y1="191.3829064291453" x2="351.99999999999943" y2="193.51280874858568" stroke-width="2px" style="stroke: black;"></line><line x1="351.99999999999943" y1="193.51280874858568" x2="352.99999999999943" y2="195.61034419316786" stroke-width="2px" style="stroke: black;"></line><line x1="352.99999999999943" y1="195.61034419316786" x2="353.99999999999943" y2="197.67438715653856" stroke-width="2px" style="stroke: black;"></line><line x1="353.99999999999943" y1="197.67438715653856" x2="354.99999999999943" y2="199.703930463086" stroke-width="2px" style="stroke: black;"></line><line x1="354.99999999999943" y1="199.703930463086" x2="355.99999999999943" y2="201.6980817212459" stroke-width="2px" style="stroke: black;"></line><line x1="355.99999999999943" y1="201.6980817212459" x2="356.99999999999943" y2="203.65605946484212" stroke-width="2px" style="stroke: black;"></line><line x1="356.99999999999943" y1="203.65605946484212" x2="357.99999999999943" y2="205.57718911595668" stroke-width="2px" style="stroke: black;"></line><line x1="357.99999999999943" y1="205.57718911595668" x2="358.99999999999943" y2="207.46089880138672" stroke-width="2px" style="stroke: black;"></line><line x1="358.99999999999943" y1="207.46089880138672" x2="359.99999999999943" y2="209.30671505318207" stroke-width="2px" style="stroke: black;"></line><line x1="359.99999999999943" y1="209.30671505318207" x2="360.99999999999943" y2="211.11425842210693" stroke-width="2px" style="stroke: black;"></line><line x1="360.99999999999943" y1="211.11425842210693" x2="361.99999999999943" y2="212.88323903113985" stroke-width="2px" style="stroke: black;"></line><line x1="361.99999999999943" y1="212.88323903113985" x2="362.99999999999943" y2="214.61345209434904" stroke-width="2px" style="stroke: black;"></line><line x1="362.99999999999943" y1="214.61345209434904" x2="363.99999999999943" y2="216.30477342467566" stroke-width="2px" style="stroke: black;"></line><line x1="363.99999999999943" y1="216.30477342467566" x2="364.99999999999943" y2="217.9571549523361" stroke-width="2px" style="stroke: black;"></line><line x1="364.99999999999943" y1="217.9571549523361" x2="365.99999999999943" y2="219.57062027374107" stroke-width="2px" style="stroke: black;"></line><line x1="365.99999999999943" y1="219.57062027374107" x2="366.99999999999943" y2="221.1452602490357" stroke-width="2px" style="stroke: black;"></line><line x1="366.99999999999943" y1="221.1452602490357" x2="367.9999999999994" y2="222.68122866460072" stroke-width="2px" style="stroke: black;"></line><line x1="367.9999999999994" y1="222.68122866460072" x2="368.9999999999994" y2="224.1787379751401" stroke-width="2px" style="stroke: black;"></line><line x1="368.9999999999994" y1="224.1787379751401" x2="369.9999999999994" y2="225.63805513831454" stroke-width="2px" style="stroke: black;"></line><line x1="369.9999999999994" y1="225.63805513831454" x2="370.9999999999994" y2="227.05949755328123" stroke-width="2px" style="stroke: black;"></line><line x1="370.9999999999994" y1="227.05949755328123" x2="371.9999999999994" y2="228.4434291129677" stroke-width="2px" style="stroke: black;"></line><line x1="371.9999999999994" y1="228.4434291129677" x2="372.9999999999994" y2="229.79025637845166" stroke-width="2px" style="stroke: black;"></line><line x1="372.9999999999994" y1="229.79025637845166" x2="373.9999999999994" y2="231.1004248824399" stroke-width="2px" style="stroke: black;"></line><line x1="373.9999999999994" y1="231.1004248824399" x2="374.9999999999994" y2="232.37441556754553" stroke-width="2px" style="stroke: black;"></line><line x1="374.9999999999994" y1="232.37441556754553" x2="375.9999999999994" y2="233.61274136384844" stroke-width="2px" style="stroke: black;"></line><line x1="375.9999999999994" y1="233.61274136384844" x2="376.9999999999994" y2="234.81594390909973" stroke-width="2px" style="stroke: black;"></line><line x1="376.9999999999994" y1="234.81594390909973" x2="377.9999999999994" y2="235.9845904138868" stroke-width="2px" style="stroke: black;"></line><line x1="377.9999999999994" y1="235.9845904138868" x2="378.9999999999994" y2="237.11927067311902" stroke-width="2px" style="stroke: black;"></line><line x1="378.9999999999994" y1="237.11927067311902" x2="379.9999999999994" y2="238.22059422431863" stroke-width="2px" style="stroke: black;"></line><line x1="379.9999999999994" y1="238.22059422431863" x2="380.9999999999993" y2="239.28918765240743" stroke-width="2px" style="stroke: black;"></line><line x1="380.9999999999993" y1="239.28918765240743" x2="381.9999999999993" y2="240.3256920399645" stroke-width="2px" style="stroke: black;"></line><line x1="381.9999999999993" y1="240.3256920399645" x2="382.9999999999993" y2="241.3307605612891" stroke-width="2px" style="stroke: black;"></line><line x1="382.9999999999993" y1="241.3307605612891" x2="383.9999999999993" y2="242.30505621803627" stroke-width="2px" style="stroke: black;"></line><line x1="383.9999999999993" y1="242.30505621803627" x2="384.9999999999993" y2="243.24924971369248" stroke-width="2px" style="stroke: black;"></line><line x1="384.9999999999993" y1="243.24924971369248" x2="385.9999999999993" y2="244.1640174637259" stroke-width="2px" style="stroke: black;"></line><line x1="385.9999999999993" y1="244.1640174637259" x2="386.9999999999993" y2="245.05003973787254" stroke-width="2px" style="stroke: black;"></line><line x1="386.9999999999993" y1="245.05003973787254" x2="387.9999999999993" y2="245.90799893070505" stroke-width="2px" style="stroke: black;"></line><line x1="387.9999999999993" y1="245.90799893070505" x2="388.9999999999993" y2="246.7385779563703" stroke-width="2px" style="stroke: black;"></line><line x1="388.9999999999993" y1="246.7385779563703" x2="389.9999999999993" y2="247.54245876316907" stroke-width="2px" style="stroke: black;"></line><line x1="389.9999999999993" y1="247.54245876316907" x2="390.9999999999993" y2="248.32032096348635" stroke-width="2px" style="stroke: black;"></line><line x1="390.9999999999993" y1="248.32032096348635" x2="391.9999999999993" y2="249.07284057445713" stroke-width="2px" style="stroke: black;"></line><line x1="391.9999999999993" y1="249.07284057445713" x2="392.9999999999993" y2="249.8006888646668" stroke-width="2px" style="stroke: black;"></line><line x1="392.9999999999993" y1="249.8006888646668" x2="393.99999999999926" y2="250.50453130213526" stroke-width="2px" style="stroke: black;"></line><line x1="393.99999999999926" y1="250.50453130213526" x2="394.99999999999926" y2="251.18502659881457" stroke-width="2px" style="stroke: black;"></line><line x1="394.99999999999926" y1="251.18502659881457" x2="395.99999999999926" y2="251.84282584683916" stroke-width="2px" style="stroke: black;"></line><line x1="395.99999999999926" y1="251.84282584683916" x2="396.99999999999926" y2="252.4785717418013" stroke-width="2px" style="stroke: black;"></line><line x1="396.99999999999926" y1="252.4785717418013" x2="397.99999999999926" y2="253.0928978883814" stroke-width="2px" style="stroke: black;"></line><line x1="397.99999999999926" y1="253.0928978883814" x2="398.99999999999926" y2="253.68642818373715" stroke-width="2px" style="stroke: black;"></line><line x1="398.99999999999926" y1="253.68642818373715" x2="399.99999999999926" y2="254.25977627414838" stroke-width="2px" style="stroke: black;"></line><line x1="399.99999999999926" y1="254.25977627414838" x2="400.99999999999926" y2="254.8135450805206" stroke-width="2px" style="stroke: black;"></line><line x1="400.99999999999926" y1="254.8135450805206" x2="401.99999999999926" y2="255.34832638846902" stroke-width="2px" style="stroke: black;"></line><line x1="401.99999999999926" y1="255.34832638846902" x2="402.99999999999926" y2="255.86470049883263" stroke-width="2px" style="stroke: black;"></line><line x1="402.99999999999926" y1="255.86470049883263" x2="403.99999999999926" y2="256.3632359346059" stroke-width="2px" style="stroke: black;"></line><line x1="403.99999999999926" y1="256.3632359346059" x2="404.99999999999926" y2="256.8444892004171" stroke-width="2px" style="stroke: black;"></line><line x1="404.99999999999926" y1="256.8444892004171" x2="405.99999999999926" y2="257.3090045908319" stroke-width="2px" style="stroke: black;"></line><line x1="405.99999999999926" y1="257.3090045908319" x2="406.9999999999992" y2="257.75731404391064" stroke-width="2px" style="stroke: black;"></line><line x1="406.9999999999992" y1="257.75731404391064" x2="407.9999999999992" y2="258.1899370366025" stroke-width="2px" style="stroke: black;"></line><line x1="407.9999999999992" y1="258.1899370366025" x2="408.9999999999992" y2="258.6073805187135" stroke-width="2px" style="stroke: black;"></line><line x1="408.9999999999992" y1="258.6073805187135" x2="409.9999999999992" y2="259.01013888234036" stroke-width="2px" style="stroke: black;"></line><line x1="409.9999999999992" y1="259.01013888234036" x2="410.9999999999992" y2="259.39869396381505" stroke-width="2px" style="stroke: black;"></line><line x1="410.9999999999992" y1="259.39869396381505" x2="411.9999999999992" y2="259.7735150753581" stroke-width="2px" style="stroke: black;"></line><line x1="411.9999999999992" y1="259.7735150753581" x2="412.9999999999992" y2="260.13505906378737" stroke-width="2px" style="stroke: black;"></line><line x1="412.9999999999992" y1="260.13505906378737" x2="413.9999999999992" y2="260.48377039377635" stroke-width="2px" style="stroke: black;"></line><line x1="413.9999999999992" y1="260.48377039377635" x2="414.9999999999992" y2="260.82008125329867" stroke-width="2px" style="stroke: black;"></line><line x1="414.9999999999992" y1="260.82008125329867" x2="415.9999999999992" y2="261.14441167903584" stroke-width="2px" style="stroke: black;"></line><line x1="415.9999999999992" y1="261.14441167903584" x2="416.9999999999992" y2="261.4571696996604" stroke-width="2px" style="stroke: black;"></line><line x1="416.9999999999992" y1="261.4571696996604" x2="417.9999999999992" y2="261.7587514950364" stroke-width="2px" style="stroke: black;"></line><line x1="417.9999999999992" y1="261.7587514950364" x2="418.9999999999992" y2="262.0495415695076" stroke-width="2px" style="stroke: black;"></line><line x1="418.9999999999992" y1="262.0495415695076" x2="419.9999999999992" y2="262.32991293756294" stroke-width="2px" style="stroke: black;"></line><line x1="419.9999999999992" y1="262.32991293756294" x2="420.9999999999992" y2="262.600227320287" stroke-width="2px" style="stroke: black;"></line><line x1="420.9999999999992" y1="262.600227320287" x2="421.9999999999992" y2="262.8608353511137" stroke-width="2px" style="stroke: black;"></line><line x1="421.9999999999992" y1="262.8608353511137" x2="422.9999999999992" y2="263.11207678950854" stroke-width="2px" style="stroke: black;"></line><line x1="422.9999999999992" y1="263.11207678950854" x2="423.9999999999992" y2="263.3542807413066" stroke-width="2px" style="stroke: black;"></line><line x1="423.9999999999992" y1="263.3542807413066" x2="424.9999999999992" y2="263.58776588452815" stroke-width="2px" style="stroke: black;"></line><line x1="424.9999999999992" y1="263.58776588452815" x2="425.9999999999992" y2="263.812840699589" stroke-width="2px" style="stroke: black;"></line><line x1="425.9999999999992" y1="263.812840699589" x2="426.9999999999992" y2="264.02980370290516" stroke-width="2px" style="stroke: black;"></line><line x1="426.9999999999992" y1="264.02980370290516" x2="427.9999999999992" y2="264.2389436829769" stroke-width="2px" style="stroke: black;"></line><line x1="427.9999999999992" y1="264.2389436829769" x2="428.9999999999992" y2="264.4405399381137" stroke-width="2px" style="stroke: black;"></line><line x1="428.9999999999992" y1="264.4405399381137" x2="429.9999999999992" y2="264.63486251503343" stroke-width="2px" style="stroke: black;"></line><line x1="429.9999999999992" y1="264.63486251503343" x2="430.9999999999992" y2="264.82217244764007" stroke-width="2px" style="stroke: black;"></line><line x1="430.9999999999992" y1="264.82217244764007" x2="431.99999999999915" y2="265.00272199534646" stroke-width="2px" style="stroke: black;"></line><line x1="431.99999999999915" y1="265.00272199534646" x2="432.99999999999915" y2="265.17675488037054" stroke-width="2px" style="stroke: black;"></line><line x1="432.99999999999915" y1="265.17675488037054" x2="433.99999999999915" y2="265.34450652348977" stroke-width="2px" style="stroke: black;"></line><line x1="433.99999999999915" y1="265.34450652348977" x2="434.99999999999915" y2="265.50620427779074" stroke-width="2px" style="stroke: black;"></line><line x1="434.99999999999915" y1="265.50620427779074" x2="435.99999999999915" y2="265.66206766000033" stroke-width="2px" style="stroke: black;"></line><line x1="435.99999999999915" y1="265.66206766000033" x2="436.99999999999915" y2="265.8123085790321" stroke-width="2px" style="stroke: black;"></line><line x1="436.99999999999915" y1="265.8123085790321" x2="437.99999999999915" y2="265.9571315614214" stroke-width="2px" style="stroke: black;"></line><line x1="437.99999999999915" y1="265.9571315614214" x2="438.99999999999915" y2="266.0967339733656" stroke-width="2px" style="stroke: black;"></line><line x1="438.99999999999915" y1="266.0967339733656" x2="439.99999999999915" y2="266.2313062391195" stroke-width="2px" style="stroke: black;"></line><line x1="439.99999999999915" y1="266.2313062391195" x2="440.99999999999915" y2="266.3610320555318" stroke-width="2px" style="stroke: black;"></line><line x1="440.99999999999915" y1="266.3610320555318" x2="441.99999999999915" y2="266.48608860253927" stroke-width="2px" style="stroke: black;"></line><line x1="441.99999999999915" y1="266.48608860253927" x2="442.99999999999915" y2="266.60664674946366" stroke-width="2px" style="stroke: black;"></line><line x1="442.99999999999915" y1="266.60664674946366" x2="443.99999999999915" y2="266.7228712569831" stroke-width="2px" style="stroke: black;"></line><line x1="443.99999999999915" y1="266.7228712569831" x2="444.9999999999991" y2="266.8349209746745" stroke-width="2px" style="stroke: black;"></line><line x1="444.9999999999991" y1="266.8349209746745" x2="445.9999999999991" y2="266.9429490340451" stroke-width="2px" style="stroke: black;"></line><line x1="445.9999999999991" y1="266.9429490340451" x2="446.9999999999991" y2="267.04710303699176" stroke-width="2px" style="stroke: black;"></line><line x1="446.9999999999991" y1="267.04710303699176" x2="447.9999999999991" y2="267.14752523964523" stroke-width="2px" style="stroke: black;"></line><line x1="447.9999999999991" y1="267.14752523964523" x2="448.9999999999991" y2="267.2443527315737" stroke-width="2px" style="stroke: black;"></line><line x1="448.9999999999991" y1="267.2443527315737" x2="449.9999999999991" y2="267.33771761033455" stroke-width="2px" style="stroke: black;"></line><line x1="449.9999999999991" y1="267.33771761033455" x2="450.9999999999991" y2="267.42774715137733" stroke-width="2px" style="stroke: black;"></line><line x1="450.9999999999991" y1="267.42774715137733" x2="451.9999999999991" y2="267.5145639733138" stroke-width="2px" style="stroke: black;"></line><line x1="451.9999999999991" y1="267.5145639733138" x2="452.9999999999991" y2="267.59828619858126" stroke-width="2px" style="stroke: black;"></line><line x1="452.9999999999991" y1="267.59828619858126" x2="453.9999999999991" y2="267.67902760953564" stroke-width="2px" style="stroke: black;"></line><line x1="453.9999999999991" y1="267.67902760953564" x2="454.9999999999991" y2="267.7568978000204" stroke-width="2px" style="stroke: black;"></line><line x1="454.9999999999991" y1="267.7568978000204" x2="455.9999999999991" y2="267.8320023224638" stroke-width="2px" style="stroke: black;"></line><line x1="455.9999999999991" y1="267.8320023224638" x2="456.9999999999991" y2="267.9044428305647" stroke-width="2px" style="stroke: black;"></line><line x1="456.9999999999991" y1="267.9044428305647" x2="457.99999999999903" y2="267.9743172176339" stroke-width="2px" style="stroke: black;"></line><line x1="457.99999999999903" y1="267.9743172176339" x2="458.99999999999903" y2="268.04171975066157" stroke-width="2px" style="stroke: black;"></line><line x1="458.99999999999903" y1="268.04171975066157" x2="459.99999999999903" y2="268.1067412001873" stroke-width="2px" style="stroke: black;"></line><line x1="459.99999999999903" y1="268.1067412001873" x2="460.99999999999903" y2="268.16946896605197" stroke-width="2px" style="stroke: black;"></line><line x1="460.99999999999903" y1="268.16946896605197" x2="461.99999999999903" y2="268.22998719911567" stroke-width="2px" style="stroke: black;"></line><line x1="461.99999999999903" y1="268.22998719911567" x2="462.99999999999903" y2="268.28837691902595" stroke-width="2px" style="stroke: black;"></line><line x1="462.99999999999903" y1="268.28837691902595" x2="463.99999999999903" y2="268.3447161281252" stroke-width="2px" style="stroke: black;"></line><line x1="463.99999999999903" y1="268.3447161281252" x2="464.99999999999903" y2="268.3990799215864" stroke-width="2px" style="stroke: black;"></line><line x1="464.99999999999903" y1="268.3990799215864" x2="465.99999999999903" y2="268.4515405938679" stroke-width="2px" style="stroke: black;"></line><line x1="465.99999999999903" y1="268.4515405938679" x2="466.99999999999903" y2="268.5021677415793" stroke-width="2px" style="stroke: black;"></line><line x1="466.99999999999903" y1="268.5021677415793" x2="467.99999999999903" y2="268.5510283628499" stroke-width="2px" style="stroke: black;"></line><line x1="467.99999999999903" y1="268.5510283628499" x2="468.99999999999903" y2="268.5981869532925" stroke-width="2px" style="stroke: black;"></line><line x1="468.99999999999903" y1="268.5981869532925" x2="469.99999999999903" y2="268.64370559865534" stroke-width="2px" style="stroke: black;"></line><line x1="469.99999999999903" y1="268.64370559865534" x2="470.999999999999" y2="268.68764406425265" stroke-width="2px" style="stroke: black;"></line><line x1="470.999999999999" y1="268.68764406425265" x2="471.999999999999" y2="268.7300598812667" stroke-width="2px" style="stroke: black;"></line><line x1="471.999999999999" y1="268.7300598812667" x2="472.999999999999" y2="268.7710084300109" stroke-width="2px" style="stroke: black;"></line><line x1="472.999999999999" y1="268.7710084300109" x2="473.999999999999" y2="268.8105430202445" stroke-width="2px" style="stroke: black;"></line><line x1="473.999999999999" y1="268.8105430202445" x2="474.999999999999" y2="268.848714968626" stroke-width="2px" style="stroke: black;"></line><line x1="474.999999999999" y1="268.848714968626" x2="475.999999999999" y2="268.8855736733942" stroke-width="2px" style="stroke: black;"></line><line x1="475.999999999999" y1="268.8855736733942" x2="476.999999999999" y2="268.92116668636186" stroke-width="2px" style="stroke: black;"></line><line x1="476.999999999999" y1="268.92116668636186" x2="477.999999999999" y2="268.9555397823062" stroke-width="2px" style="stroke: black;"></line><line x1="477.999999999999" y1="268.9555397823062" x2="478.999999999999" y2="268.9887370258398" stroke-width="2px" style="stroke: black;"></line><line x1="478.999999999999" y1="268.9887370258398" x2="479.999999999999" y2="269.020800835843" stroke-width="2px" style="stroke: black;"></line><line x1="479.999999999999" y1="269.020800835843" x2="480.999999999999" y2="269.05177204753664" stroke-width="2px" style="stroke: black;"></line><line x1="480.999999999999" y1="269.05177204753664" x2="481.999999999999" y2="269.0816899722742" stroke-width="2px" style="stroke: black;"></line><line x1="481.999999999999" y1="269.0816899722742" x2="482.999999999999" y2="269.11059245512797" stroke-width="2px" style="stroke: black;"></line><line x1="482.999999999999" y1="269.11059245512797" x2="483.999999999999" y2="269.1385159303446" stroke-width="2px" style="stroke: black;"></line><line x1="483.999999999999" y1="269.1385159303446" x2="484.999999999999" y2="269.16549547474204" stroke-width="2px" style="stroke: black;"></line><line x1="484.999999999999" y1="269.16549547474204" x2="485.999999999999" y2="269.1915648591174" stroke-width="2px" style="stroke: black;"></line><line x1="485.999999999999" y1="269.1915648591174" x2="486.999999999999" y2="269.21675659773666" stroke-width="2px" style="stroke: black;"></line><line x1="486.999999999999" y1="269.21675659773666" x2="487.999999999999" y2="269.2411019959702" stroke-width="2px" style="stroke: black;"></line><line x1="487.999999999999" y1="269.2411019959702" x2="488.999999999999" y2="269.26463119614175" stroke-width="2px" style="stroke: black;"></line><line x1="488.999999999999" y1="269.26463119614175" x2="489.999999999999" y2="269.28737322165136" stroke-width="2px" style="stroke: black;"></line><line x1="489.999999999999" y1="269.28737322165136" x2="490.999999999999" y2="269.30935601943634" stroke-width="2px" style="stroke: black;"></line><line x1="490.999999999999" y1="269.30935601943634" x2="491.999999999999" y2="269.33060650082666" stroke-width="2px" style="stroke: black;"></line><line x1="491.999999999999" y1="269.33060650082666" x2="492.999999999999" y2="269.35115058085506" stroke-width="2px" style="stroke: black;"></line><line x1="492.999999999999" y1="269.35115058085506" x2="493.999999999999" y2="269.3710132160762" stroke-width="2px" style="stroke: black;"></line><line x1="493.999999999999" y1="269.3710132160762" x2="494.999999999999" y2="269.39021844094964" stroke-width="2px" style="stroke: black;"></line><line x1="494.999999999999" y1="269.39021844094964" x2="495.9999999999989" y2="269.40878940283835" stroke-width="2px" style="stroke: black;"></line><line x1="495.9999999999989" y1="269.40878940283835" x2="496.9999999999989" y2="269.426748395675" stroke-width="2px" style="stroke: black;"></line><line x1="496.9999999999989" y1="269.426748395675" x2="497.9999999999989" y2="269.44411689234306" stroke-width="2px" style="stroke: black;"></line><line x1="497.9999999999989" y1="269.44411689234306" x2="498.9999999999989" y2="269.4609155758221" stroke-width="2px" style="stroke: black;"></line><line x1="498.9999999999989" y1="269.4609155758221" x2="499.9999999999989" y2="269.47716436914214" stroke-width="2px" style="stroke: black;"></line><line x1="499.9999999999989" y1="269.47716436914214" x2="500.9999999999989" y2="269.49288246419115" stroke-width="2px" style="stroke: black;"></line><line x1="500.9999999999989" y1="269.49288246419115" x2="501.9999999999989" y2="269.5080883494202" stroke-width="2px" style="stroke: black;"></line><line x1="501.9999999999989" y1="269.5080883494202" x2="502.9999999999989" y2="269.52279983648515" stroke-width="2px" style="stroke: black;"></line><line x1="502.9999999999989" y1="269.52279983648515" x2="503.9999999999989" y2="269.53703408586733" stroke-width="2px" style="stroke: black;"></line><line x1="503.9999999999989" y1="269.53703408586733" x2="504.9999999999989" y2="269.55080763151005" stroke-width="2px" style="stroke: black;"></line><line x1="504.9999999999989" y1="269.55080763151005" x2="505.9999999999989" y2="269.564136404509" stroke-width="2px" style="stroke: black;"></line><line x1="505.9999999999989" y1="269.564136404509" x2="506.9999999999989" y2="269.5770357558918" stroke-width="2px" style="stroke: black;"></line><line x1="506.9999999999989" y1="269.5770357558918" x2="507.9999999999989" y2="269.5895204785226" stroke-width="2px" style="stroke: black;"></line><line x1="507.9999999999989" y1="269.5895204785226" x2="508.9999999999989" y2="269.60160482816315" stroke-width="2px" style="stroke: black;"></line><line x1="508.9999999999989" y1="269.60160482816315" x2="509.9999999999989" y2="269.61330254372433" stroke-width="2px" style="stroke: black;"></line><line x1="200.68578195905064" y1="270" x2="200.68578195905064" y2="254.86873030466847" stroke-width="2px" style="stroke: rgb(0, 85, 255);"></line><line x1="201.68578195905064" y1="270" x2="201.68578195905064" y2="254.28160724061536" stroke-width="2px" style="stroke: rgb(0, 85, 255);"></line><line x1="202.68578195905064" y1="270" x2="202.68578195905064" y2="253.6738822722509" stroke-width="2px" style="stroke: rgb(0, 85, 255);"></line><line x1="203.68578195905064" y1="270" x2="203.68578195905064" y2="253.04493466822223" stroke-width="2px" style="stroke: rgb(0, 85, 255);"></line><line x1="204.68578195905064" y1="270" x2="204.68578195905064" y2="252.39413381123873" stroke-width="2px" style="stroke: rgb(0, 85, 255);"></line><line x1="205.68578195905064" y1="270" x2="205.68578195905064" y2="251.7208397911843" stroke-width="2px" style="stroke: rgb(0, 85, 255);"></line><line x1="206.68578195905064" y1="270" x2="206.68578195905064" y2="251.02440407456257" stroke-width="2px" style="stroke: rgb(0, 85, 255);"></line><line x1="207.68578195905062" y1="270" x2="207.68578195905062" y2="250.30417025484422" stroke-width="2px" style="stroke: rgb(0, 85, 255);"></line><line x1="208.68578195905062" y1="270" x2="208.68578195905062" y2="249.55947488836463" stroke-width="2px" style="stroke: rgb(0, 85, 255);"></line><line x1="209.68578195905062" y1="270" x2="209.68578195905062" y2="248.78964842048413" stroke-width="2px" style="stroke: rgb(0, 85, 255);"></line><line x1="210.68578195905062" y1="270" x2="210.68578195905062" y2="247.99401620676355" stroke-width="2px" style="stroke: rgb(0, 85, 255);"></line><line x1="211.68578195905062" y1="270" x2="211.68578195905062" y2="247.1718996339253" stroke-width="2px" style="stroke: rgb(0, 85, 255);"></line><line x1="212.68578195905062" y1="270" x2="212.68578195905062" y2="246.3226173453601" stroke-width="2px" style="stroke: rgb(0, 85, 255);"></line><line x1="213.6857819590506" y1="270" x2="213.6857819590506" y2="245.44548657589948" stroke-width="2px" style="stroke: rgb(0, 85, 255);"></line><line x1="214.6857819590506" y1="270" x2="214.6857819590506" y2="244.5398246005003" stroke-width="2px" style="stroke: rgb(0, 85, 255);"></line><line x1="215.6857819590506" y1="270" x2="215.6857819590506" y2="243.6049503013759" stroke-width="2px" style="stroke: rgb(0, 85, 255);"></line><line x1="216.6857819590506" y1="270" x2="216.6857819590506" y2="242.640185857957" stroke-width="2px" style="stroke: rgb(0, 85, 255);"></line><line x1="217.6857819590506" y1="270" x2="217.6857819590506" y2="241.6448585638681" stroke-width="2px" style="stroke: rgb(0, 85, 255);"></line><line x1="218.6857819590506" y1="270" x2="218.6857819590506" y2="240.61830277486078" stroke-width="2px" style="stroke: rgb(0, 85, 255);"></line><line x1="219.68578195905056" y1="270" x2="219.68578195905056" y2="239.55986199134665" stroke-width="2px" style="stroke: rgb(0, 85, 255);"></line><line x1="220.68578195905056" y1="270" x2="220.68578195905056" y2="238.4688910788197" stroke-width="2px" style="stroke: rgb(0, 85, 255);"></line><line x1="221.68578195905056" y1="270" x2="221.68578195905056" y2="237.344758629043" stroke-width="2px" style="stroke: rgb(0, 85, 255);"></line><line x1="222.68578195905056" y1="270" x2="222.68578195905056" y2="236.18684946439748" stroke-width="2px" style="stroke: rgb(0, 85, 255);"></line><line x1="223.68578195905056" y1="270" x2="223.68578195905056" y2="234.99456728724317" stroke-width="2px" style="stroke: rgb(0, 85, 255);"></line><line x1="224.68578195905056" y1="270" x2="224.68578195905056" y2="233.76733747552825" stroke-width="2px" style="stroke: rgb(0, 85, 255);"></line><line x1="225.68578195905056" y1="270" x2="225.68578195905056" y2="232.50461002518762" stroke-width="2px" style="stroke: rgb(0, 85, 255);"></line><line x1="226.68578195905053" y1="270" x2="226.68578195905053" y2="231.20586263910468" stroke-width="2px" style="stroke: rgb(0, 85, 255);"></line><line x1="227.68578195905053" y1="270" x2="227.68578195905053" y2="229.87060396156073" stroke-width="2px" style="stroke: rgb(0, 85, 255);"></line><line x1="228.68578195905053" y1="270" x2="228.68578195905053" y2="228.49837695616412" stroke-width="2px" style="stroke: rgb(0, 85, 255);"></line><line x1="229.68578195905053" y1="270" x2="229.68578195905053" y2="227.08876242423602" stroke-width="2px" style="stroke: rgb(0, 85, 255);"></line><line x1="230.68578195905053" y1="270" x2="230.68578195905053" y2="225.64138265953102" stroke-width="2px" style="stroke: rgb(0, 85, 255);"></line><line x1="231.68578195905053" y1="270" x2="231.68578195905053" y2="224.15590523398208" stroke-width="2px" style="stroke: rgb(0, 85, 255);"></line><line x1="232.68578195905053" y1="270" x2="232.68578195905053" y2="222.63204690789482" stroke-width="2px" style="stroke: rgb(0, 85, 255);"></line><line x1="233.68578195905053" y1="270" x2="233.68578195905053" y2="221.0695776566585" stroke-width="2px" style="stroke: rgb(0, 85, 255);"></line><line x1="234.68578195905053" y1="270" x2="234.68578195905053" y2="219.4683248046138" stroke-width="2px" style="stroke: rgb(0, 85, 255);"></line><line x1="235.68578195905053" y1="270" x2="235.68578195905053" y2="217.82817725520505" stroke-width="2px" style="stroke: rgb(0, 85, 255);"></line><line x1="236.68578195905053" y1="270" x2="236.68578195905053" y2="216.14908980496762" stroke-width="2px" style="stroke: rgb(0, 85, 255);"></line><line x1="237.68578195905053" y1="270" x2="237.68578195905053" y2="214.43108752725436" stroke-width="2px" style="stroke: rgb(0, 85, 255);"></line><line x1="238.68578195905053" y1="270" x2="238.68578195905053" y2="212.67427020990544" stroke-width="2px" style="stroke: rgb(0, 85, 255);"></line><line x1="239.6857819590505" y1="270" x2="239.6857819590505" y2="210.87881682931592" stroke-width="2px" style="stroke: rgb(0, 85, 255);"></line><line x1="240.6857819590505" y1="270" x2="240.6857819590505" y2="209.04499004156935" stroke-width="2px" style="stroke: rgb(0, 85, 255);"></line><line x1="241.6857819590505" y1="270" x2="241.6857819590505" y2="207.17314066949677" stroke-width="2px" style="stroke: rgb(0, 85, 255);"></line><line x1="242.6857819590505" y1="270" x2="242.6857819590505" y2="205.263712162702" stroke-width="2px" style="stroke: rgb(0, 85, 255);"></line><line x1="243.6857819590505" y1="270" x2="243.6857819590505" y2="203.3172450057794" stroke-width="2px" style="stroke: rgb(0, 85, 255);"></line><line x1="244.6857819590505" y1="270" x2="244.6857819590505" y2="201.33438104816398" stroke-width="2px" style="stroke: rgb(0, 85, 255);"></line><line x1="245.68578195905047" y1="270" x2="245.68578195905047" y2="199.31586772730788" stroke-width="2px" style="stroke: rgb(0, 85, 255);"></line><line x1="246.68578195905047" y1="270" x2="246.68578195905047" y2="197.26256215519822" stroke-width="2px" style="stroke: rgb(0, 85, 255);"></line><line x1="247.68578195905047" y1="270" x2="247.68578195905047" y2="195.17543503663893" stroke-width="2px" style="stroke: rgb(0, 85, 255);"></line><line x1="248.68578195905047" y1="270" x2="248.68578195905047" y2="193.05557438623833" stroke-width="2px" style="stroke: rgb(0, 85, 255);"></line><line x1="249.68578195905047" y1="270" x2="249.68578195905047" y2="190.90418900970226" stroke-width="2px" style="stroke: rgb(0, 85, 255);"></line><line x1="250.68578195905047" y1="270" x2="250.68578195905047" y2="188.72261171385128" stroke-width="2px" style="stroke: rgb(0, 85, 255);"></line><line x1="251.68578195905044" y1="270" x2="251.68578195905044" y2="186.5123022087929" stroke-width="2px" style="stroke: rgb(0, 85, 255);"></line><line x1="252.68578195905044" y1="270" x2="252.68578195905044" y2="184.2748496649089" stroke-width="2px" style="stroke: rgb(0, 85, 255);"></line><line x1="253.68578195905044" y1="270" x2="253.68578195905044" y2="182.01197488679497" stroke-width="2px" style="stroke: rgb(0, 85, 255);"></line><line x1="254.68578195905044" y1="270" x2="254.68578195905044" y2="179.72553206604033" stroke-width="2px" style="stroke: rgb(0, 85, 255);"></line><line x1="255.68578195905044" y1="270" x2="255.68578195905044" y2="177.41751007478933" stroke-width="2px" style="stroke: rgb(0, 85, 255);"></line><line x1="256.6857819590505" y1="270" x2="256.6857819590505" y2="175.09003326240884" stroke-width="2px" style="stroke: rgb(0, 85, 255);"></line><line x1="257.6857819590505" y1="270" x2="257.6857819590505" y2="172.74536171831943" stroke-width="2px" style="stroke: rgb(0, 85, 255);"></line><line x1="258.6857819590505" y1="270" x2="258.6857819590505" y2="170.38589096516048" stroke-width="2px" style="stroke: rgb(0, 85, 255);"></line><line x1="259.6857819590505" y1="270" x2="259.6857819590505" y2="168.01415104796882" stroke-width="2px" style="stroke: rgb(0, 85, 255);"></line><line x1="260.6857819590505" y1="270" x2="260.6857819590505" y2="165.63280498697065" stroke-width="2px" style="stroke: rgb(0, 85, 255);"></line><line x1="261.6857819590505" y1="270" x2="261.6857819590505" y2="163.24464656393943" stroke-width="2px" style="stroke: rgb(0, 85, 255);"></line><line x1="262.6857819590505" y1="270" x2="262.6857819590505" y2="160.85259741485993" stroke-width="2px" style="stroke: rgb(0, 85, 255);"></line><line x1="263.6857819590504" y1="270" x2="263.6857819590504" y2="158.45970340487014" stroke-width="2px" style="stroke: rgb(0, 85, 255);"></line><line x1="264.6857819590504" y1="270" x2="264.6857819590504" y2="156.06913026512638" stroke-width="2px" style="stroke: rgb(0, 85, 255);"></line><line x1="265.6857819590504" y1="270" x2="265.6857819590504" y2="153.68415847535036" stroke-width="2px" style="stroke: rgb(0, 85, 255);"></line><line x1="266.6857819590505" y1="270" x2="266.6857819590505" y2="151.30817738035034" stroke-width="2px" style="stroke: rgb(0, 85, 255);"></line><line x1="267.6857819590505" y1="270" x2="267.6857819590505" y2="148.9446785337563" stroke-width="2px" style="stroke: rgb(0, 85, 255);"></line><line x1="268.6857819590505" y1="270" x2="268.6857819590505" y2="146.59724826753396" stroke-width="2px" style="stroke: rgb(0, 85, 255);"></line><line x1="269.6857819590505" y1="270" x2="269.6857819590505" y2="144.2695594915187" stroke-width="2px" style="stroke: rgb(0, 85, 255);"></line><line x1="270.6857819590505" y1="270" x2="270.6857819590505" y2="141.9653627332047" stroke-width="2px" style="stroke: rgb(0, 85, 255);"></line><line x1="271.6857819590505" y1="270" x2="271.6857819590505" y2="139.68847643427827" stroke-width="2px" style="stroke: rgb(0, 85, 255);"></line><line x1="272.6857819590505" y1="270" x2="272.6857819590505" y2="137.4427765268606" stroke-width="2px" style="stroke: rgb(0, 85, 255);"></line><line x1="273.6857819590505" y1="270" x2="273.6857819590505" y2="135.2321853190504" stroke-width="2px" style="stroke: rgb(0, 85, 255);"></line><line x1="274.6857819590505" y1="270" x2="274.6857819590505" y2="133.06065972608585" stroke-width="2px" style="stroke: rgb(0, 85, 255);"></line><line x1="275.6857819590505" y1="270" x2="275.6857819590505" y2="130.9321788901825" stroke-width="2px" style="stroke: rgb(0, 85, 255);"></line><line x1="276.6857819590505" y1="270" x2="276.6857819590505" y2="128.85073123880306" stroke-width="2px" style="stroke: rgb(0, 85, 255);"></line><line x1="277.6857819590505" y1="270" x2="277.6857819590505" y2="126.82030103767457" stroke-width="2px" style="stroke: rgb(0, 85, 255);"></line><line x1="278.6857819590505" y1="270" x2="278.6857819590505" y2="124.84485450122094" stroke-width="2px" style="stroke: rgb(0, 85, 255);"></line><line x1="279.6857819590505" y1="270" x2="279.6857819590505" y2="122.92832552913725" stroke-width="2px" style="stroke: rgb(0, 85, 255);"></line><line x1="280.6857819590505" y1="270" x2="280.6857819590505" y2="121.07460114350968" stroke-width="2px" style="stroke: rgb(0, 85, 255);"></line><line x1="281.6857819590505" y1="270" x2="281.6857819590505" y2="119.28750670610575" stroke-width="2px" style="stroke: rgb(0, 85, 255);"></line><line x1="282.6857819590505" y1="270" x2="282.6857819590505" y2="117.57079100013294" stroke-width="2px" style="stroke: rgb(0, 85, 255);"></line><line x1="283.6857819590505" y1="270" x2="283.6857819590505" y2="115.92811126482547" stroke-width="2px" style="stroke: rgb(0, 85, 255);"></line><line x1="284.6857819590505" y1="270" x2="284.6857819590505" y2="114.36301827458158" stroke-width="2px" style="stroke: rgb(0, 85, 255);"></line><line x1="285.6857819590505" y1="270" x2="285.6857819590505" y2="112.87894155697839" stroke-width="2px" style="stroke: rgb(0, 85, 255);"></line><line x1="286.6857819590505" y1="270" x2="286.6857819590505" y2="111.47917484578642" stroke-width="2px" style="stroke: rgb(0, 85, 255);"></line><line x1="287.6857819590505" y1="270" x2="287.6857819590505" y2="110.16686186602126" stroke-width="2px" style="stroke: rgb(0, 85, 255);"></line><line x1="288.6857819590505" y1="270" x2="288.6857819590505" y2="108.94498254808425" stroke-width="2px" style="stroke: rgb(0, 85, 255);"></line><line x1="289.6857819590505" y1="270" x2="289.6857819590505" y2="107.81633976712314" stroke-width="2px" style="stroke: rgb(0, 85, 255);"></line><line x1="290.6857819590505" y1="270" x2="290.6857819590505" y2="106.78354670185789" stroke-width="2px" style="stroke: rgb(0, 85, 255);"></line><line x1="291.6857819590505" y1="270" x2="291.6857819590505" y2="105.84901490428541" stroke-width="2px" style="stroke: rgb(0, 85, 255);"></line><line x1="292.6857819590505" y1="270" x2="292.6857819590505" y2="105.01494316787827" stroke-width="2px" style="stroke: rgb(0, 85, 255);"></line><line x1="293.6857819590505" y1="270" x2="293.6857819590505" y2="104.28330727717949" stroke-width="2px" style="stroke: rgb(0, 85, 255);"></line><line x1="294.6857819590505" y1="270" x2="294.6857819590505" y2="103.65585071607566" stroke-width="2px" style="stroke: rgb(0, 85, 255);"></line><line x1="295.6857819590505" y1="270" x2="295.6857819590505" y2="103.13407640556767" stroke-width="2px" style="stroke: rgb(0, 85, 255);"></line><line x1="296.6857819590505" y1="270" x2="296.6857819590505" y2="102.71923953461183" stroke-width="2px" style="stroke: rgb(0, 85, 255);"></line><line x1="297.6857819590505" y1="270" x2="297.6857819590505" y2="102.41234153963566" stroke-width="2px" style="stroke: rgb(0, 85, 255);"></line><line x1="298.6857819590505" y1="270" x2="298.6857819590505" y2="102.21412527974454" stroke-width="2px" style="stroke: rgb(0, 85, 255);"></line><line x1="299.6857819590505" y1="270" x2="299.6857819590505" y2="102.12507144549613" stroke-width="2px" style="stroke: rgb(0, 85, 255);"></line><line x1="300.6857819590505" y1="270" x2="300.6857819590505" y2="102.14539622955752" stroke-width="2px" style="stroke: rgb(0, 85, 255);"></line><line x1="301.6857819590505" y1="270" x2="301.6857819590505" y2="102.27505027765983" stroke-width="2px" style="stroke: rgb(0, 85, 255);"></line><line x1="302.6857819590505" y1="270" x2="302.6857819590505" y2="102.51371892816076" stroke-width="2px" style="stroke: rgb(0, 85, 255);"></line><line x1="303.6857819590505" y1="270" x2="303.6857819590505" y2="102.86082373831422" stroke-width="2px" style="stroke: rgb(0, 85, 255);"></line><line x1="304.6857819590505" y1="270" x2="304.6857819590505" y2="103.3155252851684" stroke-width="2px" style="stroke: rgb(0, 85, 255);"></line><line x1="305.6857819590505" y1="270" x2="305.6857819590505" y2="103.87672721896465" stroke-width="2px" style="stroke: rgb(0, 85, 255);"></line><line x1="306.6857819590505" y1="270" x2="306.6857819590505" y2="104.54308153712682" stroke-width="2px" style="stroke: rgb(0, 85, 255);"></line><line x1="307.6857819590505" y1="270" x2="307.6857819590505" y2="105.3129950375127" stroke-width="2px" style="stroke: rgb(0, 85, 255);"></line><line x1="308.6857819590505" y1="270" x2="308.6857819590505" y2="106.18463690064925" stroke-width="2px" style="stroke: rgb(0, 85, 255);"></line><line x1="309.6857819590505" y1="270" x2="309.6857819590505" y2="107.15594734231209" stroke-width="2px" style="stroke: rgb(0, 85, 255);"></line><line x1="310.6857819590505" y1="270" x2="310.6857819590505" y2="108.22464727009339" stroke-width="2px" style="stroke: rgb(0, 85, 255);"></line><line x1="311.6857819590505" y1="270" x2="311.6857819590505" y2="109.38824887064413" stroke-width="2px" style="stroke: rgb(0, 85, 255);"></line><line x1="312.6857819590505" y1="270" x2="312.6857819590505" y2="110.6440670481172" stroke-width="2px" style="stroke: rgb(0, 85, 255);"></line><line x1="313.6857819590505" y1="270" x2="313.6857819590505" y2="111.98923162905172" stroke-width="2px" style="stroke: rgb(0, 85, 255);"></line><line x1="314.6857819590505" y1="270" x2="314.6857819590505" y2="113.42070024456393" stroke-width="2px" style="stroke: rgb(0, 85, 255);"></line><line x1="315.6857819590505" y1="270" x2="315.6857819590505" y2="114.93527179726337" stroke-width="2px" style="stroke: rgb(0, 85, 255);"></line><line x1="316.6857819590505" y1="270" x2="316.6857819590505" y2="116.52960041783905" stroke-width="2px" style="stroke: rgb(0, 85, 255);"></line><line x1="317.6857819590505" y1="270" x2="317.6857819590505" y2="118.20020981473209" stroke-width="2px" style="stroke: rgb(0, 85, 255);"></line><line x1="318.6857819590505" y1="270" x2="318.6857819590505" y2="119.94350791973818" stroke-width="2px" style="stroke: rgb(0, 85, 255);"></line><line x1="319.6857819590505" y1="270" x2="319.6857819590505" y2="121.75580173273917" stroke-width="2px" style="stroke: rgb(0, 85, 255);"></line><line x1="320.68578195905053" y1="270" x2="320.68578195905053" y2="123.63331227001063" stroke-width="2px" style="stroke: rgb(0, 85, 255);"></line><line x1="321.6857819590505" y1="270" x2="321.6857819590505" y2="125.57218952265296" stroke-width="2px" style="stroke: rgb(0, 85, 255);"></line><line x1="322.6857819590505" y1="270" x2="322.6857819590505" y2="127.56852733458734" stroke-width="2px" style="stroke: rgb(0, 85, 255);"></line><line x1="323.6857819590505" y1="270" x2="323.6857819590505" y2="129.61837811319035" stroke-width="2px" style="stroke: rgb(0, 85, 255);"></line><line x1="324.6857819590505" y1="270" x2="324.6857819590505" y2="131.71776728993578" stroke-width="2px" style="stroke: rgb(0, 85, 255);"></line><line x1="325.6857819590505" y1="270" x2="325.6857819590505" y2="133.86270745330134" stroke-width="2px" style="stroke: rgb(0, 85, 255);"></line><line x1="326.6857819590505" y1="270" x2="326.6857819590505" y2="136.04921208159567" stroke-width="2px" style="stroke: rgb(0, 85, 255);"></line><line x1="327.68578195905053" y1="270" x2="327.68578195905053" y2="138.2733088091902" stroke-width="2px" style="stroke: rgb(0, 85, 255);"></line><line x1="328.68578195905053" y1="270" x2="328.68578195905053" y2="140.5310521658199" stroke-width="2px" style="stroke: rgb(0, 85, 255);"></line><line x1="329.68578195905053" y1="270" x2="329.68578195905053" y2="142.81853573505225" stroke-width="2px" style="stroke: rgb(0, 85, 255);"></line><line x1="330.68578195905053" y1="270" x2="330.68578195905053" y2="145.13190368465" stroke-width="2px" style="stroke: rgb(0, 85, 255);"></line><line x1="331.6857819590505" y1="270" x2="331.6857819590505" y2="147.46736162826787" stroke-width="2px" style="stroke: rgb(0, 85, 255);"></line><line x1="332.6857819590505" y1="270" x2="332.6857819590505" y2="149.82118678467464" stroke-width="2px" style="stroke: rgb(0, 85, 255);"></line><line x1="333.6857819590505" y1="270" x2="333.6857819590505" y2="152.189737407385" stroke-width="2px" style="stroke: rgb(0, 85, 255);"></line><line x1="334.6857819590505" y1="270" x2="334.6857819590505" y2="154.56946146416198" stroke-width="2px" style="stroke: rgb(0, 85, 255);"></line><line x1="335.6857819590505" y1="270" x2="335.6857819590505" y2="156.95690455225463" stroke-width="2px" style="stroke: rgb(0, 85, 255);"></line><line x1="336.68578195905053" y1="270" x2="336.68578195905053" y2="159.34871704139758" stroke-width="2px" style="stroke: rgb(0, 85, 255);"></line><line x1="337.68578195905053" y1="270" x2="337.68578195905053" y2="161.7416604424756" stroke-width="2px" style="stroke: rgb(0, 85, 255);"></line><line x1="338.68578195905053" y1="270" x2="338.68578195905053" y2="164.132613005313" stroke-width="2px" style="stroke: rgb(0, 85, 255);"></line><line x1="339.68578195905053" y1="270" x2="339.68578195905053" y2="166.51857455423192" stroke-width="2px" style="stroke: rgb(0, 85, 255);"></line><line x1="340.68578195905053" y1="270" x2="340.68578195905053" y2="168.8966705748186" stroke-width="2px" style="stroke: rgb(0, 85, 255);"></line><line x1="341.68578195905053" y1="270" x2="341.68578195905053" y2="171.26415556972" stroke-width="2px" style="stroke: rgb(0, 85, 255);"></line><line x1="342.6857819590505" y1="270" x2="342.6857819590505" y2="173.61841570524075" stroke-width="2px" style="stroke: rgb(0, 85, 255);"></line><line x1="343.6857819590505" y1="270" x2="343.6857819590505" y2="175.9569707740215" stroke-width="2px" style="stroke: rgb(0, 85, 255);"></line><line x1="344.6857819590505" y1="270" x2="344.6857819590505" y2="178.27747550214494" stroke-width="2px" style="stroke: rgb(0, 85, 255);"></line><line x1="345.6857819590505" y1="270" x2="345.6857819590505" y2="180.57772023164375" stroke-width="2px" style="stroke: rgb(0, 85, 255);"></line><line x1="346.6857819590505" y1="270" x2="346.6857819590505" y2="182.85563101157163" stroke-width="2px" style="stroke: rgb(0, 85, 255);"></line><line x1="347.6857819590505" y1="270" x2="347.6857819590505" y2="185.1092691325664" stroke-width="2px" style="stroke: rgb(0, 85, 255);"></line><line x1="348.6857819590505" y1="270" x2="348.6857819590505" y2="187.33683014119515" stroke-width="2px" style="stroke: rgb(0, 85, 255);"></line><line x1="349.6857819590505" y1="270" x2="349.6857819590505" y2="189.53664237133654" stroke-width="2px" style="stroke: rgb(0, 85, 255);"></line><line x1="350.6857819590505" y1="270" x2="350.6857819590505" y2="191.70716503046077" stroke-width="2px" style="stroke: rgb(0, 85, 255);"></line><line x1="351.6857819590505" y1="270" x2="351.6857819590505" y2="193.8469858789201" stroke-width="2px" style="stroke: rgb(0, 85, 255);"></line><line x1="352.6857819590505" y1="270" x2="352.6857819590505" y2="195.9548185403052" stroke-width="2px" style="stroke: rgb(0, 85, 255);"></line><line x1="353.6857819590505" y1="270" x2="353.6857819590505" y2="198.02949948056545" stroke-width="2px" style="stroke: rgb(0, 85, 255);"></line><line x1="354.6857819590504" y1="270" x2="354.6857819590504" y2="200.06998469297397" stroke-width="2px" style="stroke: rgb(0, 85, 255);"></line><line x1="355.6857819590504" y1="270" x2="355.6857819590504" y2="202.075346125164" stroke-width="2px" style="stroke: rgb(0, 85, 255);"></line><line x1="356.6857819590504" y1="270" x2="356.6857819590504" y2="204.04476788339952" stroke-width="2px" style="stroke: rgb(0, 85, 255);"></line><line x1="357.6857819590504" y1="270" x2="357.6857819590504" y2="205.97754224800005" stroke-width="2px" style="stroke: rgb(0, 85, 255);"></line><line x1="358.6857819590504" y1="270" x2="358.6857819590504" y2="207.87306553244122" stroke-width="2px" style="stroke: rgb(0, 85, 255);"></line><line x1="359.6857819590504" y1="270" x2="359.6857819590504" y2="209.73083381712945" stroke-width="2px" style="stroke: rgb(0, 85, 255);"></line><line x1="360.6857819590504" y1="270" x2="360.6857819590504" y2="211.55043858722036" stroke-width="2px" style="stroke: rgb(0, 85, 255);"></line><line x1="361.6857819590504" y1="270" x2="361.6857819590504" y2="213.33156230214496" stroke-width="2px" style="stroke: rgb(0, 85, 255);"></line><line x1="362.6857819590504" y1="270" x2="362.6857819590504" y2="215.07397392274396" stroke-width="2px" style="stroke: rgb(0, 85, 255);"></line><line x1="363.6857819590504" y1="270" x2="363.6857819590504" y2="216.77752442011086" stroke-width="2px" style="stroke: rgb(0, 85, 255);"></line><line x1="364.6857819590504" y1="270" x2="364.6857819590504" y2="218.4421422884286" stroke-width="2px" style="stroke: rgb(0, 85, 255);"></line><line x1="365.6857819590504" y1="270" x2="365.6857819590504" y2="220.06782908226478" stroke-width="2px" style="stroke: rgb(0, 85, 255);"></line><line x1="366.6857819590504" y1="270" x2="366.6857819590504" y2="221.65465499699147" stroke-width="2px" style="stroke: rgb(0, 85, 255);"></line><line x1="367.68578195905036" y1="270" x2="367.68578195905036" y2="223.20275450921844" stroke-width="2px" style="stroke: rgb(0, 85, 255);"></line><line x1="368.68578195905036" y1="270" x2="368.68578195905036" y2="224.71232209239977" stroke-width="2px" style="stroke: rgb(0, 85, 255);"></line><line x1="369.68578195905036" y1="270" x2="369.68578195905036" y2="226.18360802108936" stroke-width="2px" style="stroke: rgb(0, 85, 255);"></line><line x1="370.68578195905036" y1="270" x2="370.68578195905036" y2="227.616914275702" stroke-width="2px" style="stroke: rgb(0, 85, 255);"></line><line x1="371.68578195905036" y1="270" x2="371.68578195905036" y2="229.01259055808055" stroke-width="2px" style="stroke: rgb(0, 85, 255);"></line><line x1="372.68578195905036" y1="270" x2="372.68578195905036" y2="230.37103042669096" stroke-width="2px" style="stroke: rgb(0, 85, 255);"></line><line x1="373.68578195905036" y1="270" x2="373.68578195905036" y2="231.69266755886258" stroke-width="2px" style="stroke: rgb(0, 85, 255);"></line><line x1="374.68578195905036" y1="270" x2="374.68578195905036" y2="232.97797214617026" stroke-width="2px" style="stroke: rgb(0, 85, 255);"></line><line x1="375.68578195905036" y1="270" x2="375.68578195905036" y2="234.22744742781623" stroke-width="2px" style="stroke: rgb(0, 85, 255);"></line><line x1="376.68578195905036" y1="270" x2="376.68578195905036" y2="235.441626365716" stroke-width="2px" style="stroke: rgb(0, 85, 255);"></line><line x1="377.68578195905036" y1="270" x2="377.68578195905036" y2="236.621068463924" stroke-width="2px" style="stroke: rgb(0, 85, 255);"></line><line x1="378.68578195905036" y1="270" x2="378.68578195905036" y2="237.76635673405116" stroke-width="2px" style="stroke: rgb(0, 85, 255);"></line><line x1="379.68578195905036" y1="270" x2="379.68578195905036" y2="238.87809480742393" stroke-width="2px" style="stroke: rgb(0, 85, 255);"></line><line x1="380.68578195905036" y1="270" x2="380.68578195905036" y2="239.95690419391792" stroke-width="2px" style="stroke: rgb(0, 85, 255);"></line><line x1="381.68578195905036" y1="270" x2="381.68578195905036" y2="241.00342168665642" stroke-width="2px" style="stroke: rgb(0, 85, 255);"></line><line x1="382.68578195905036" y1="270" x2="382.68578195905036" y2="242.01829691110257" stroke-width="2px" style="stroke: rgb(0, 85, 255);"></line><line x1="383.68578195905036" y1="270" x2="383.68578195905036" y2="243.0021900164821" stroke-width="2px" style="stroke: rgb(0, 85, 255);"></line><line x1="384.68578195905036" y1="270" x2="384.68578195905036" y2="243.9557695069551" stroke-width="2px" style="stroke: rgb(0, 85, 255);"></line><line x1="385.68578195905036" y1="270" x2="385.68578195905036" y2="244.87971020949962" stroke-width="2px" style="stroke: rgb(0, 85, 255);"></line><line x1="386.68578195905036" y1="270" x2="386.68578195905036" y2="245.7746913750795" stroke-width="2px" style="stroke: rgb(0, 85, 255);"></line><line x1="387.68578195905036" y1="270" x2="387.68578195905036" y2="246.64139490933684" stroke-width="2px" style="stroke: rgb(0, 85, 255);"></line><line x1="388.68578195905036" y1="270" x2="388.68578195905036" y2="247.48050372877032" stroke-width="2px" style="stroke: rgb(0, 85, 255);"></line><line x1="389.68578195905036" y1="270" x2="389.68578195905036" y2="248.29270023813535" stroke-width="2px" style="stroke: rgb(0, 85, 255);"></line><line x1="390.68578195905036" y1="270" x2="390.68578195905036" y2="249.0786649246214" stroke-width="2px" style="stroke: rgb(0, 85, 255);"></line><line x1="391.68578195905036" y1="270" x2="391.68578195905036" y2="249.83907506422582" stroke-width="2px" style="stroke: rgb(0, 85, 255);"></line><line x1="392.68578195905036" y1="270" x2="392.68578195905036" y2="250.57460353564647" stroke-width="2px" style="stroke: rgb(0, 85, 255);"></line><line x1="393.68578195905036" y1="270" x2="393.68578195905036" y2="251.28591773695433" stroke-width="2px" style="stroke: rgb(0, 85, 255);"></line><line x1="394.68578195905036" y1="270" x2="394.68578195905036" y2="251.97367860027862" stroke-width="2px" style="stroke: rgb(0, 85, 255);"></line><line x1="395.68578195905036" y1="270" x2="395.68578195905036" y2="252.63853969973815" stroke-width="2px" style="stroke: rgb(0, 85, 255);"></line><line x1="396.68578195905036" y1="270" x2="396.68578195905036" y2="253.28114644787829" stroke-width="2px" style="stroke: rgb(0, 85, 255);"></line><line x1="397.68578195905036" y1="270" x2="397.68578195905036" y2="253.90213537592285" stroke-width="2px" style="stroke: rgb(0, 85, 255);"></line><line x1="398.68578195905036" y1="270" x2="398.68578195905036" y2="254.50213349321984" stroke-width="2px" style="stroke: rgb(0, 85, 255);"></line><text x="200.68578195905064" y="310" style="font-family: sans-serif; font-size: 9pt; stroke: rgb(0, 85, 255); text-anchor: middle;">-2.365</text><text x="399.31421804094936" y="310" style="font-family: sans-serif; font-size: 9pt; stroke: rgb(0, 85, 255); text-anchor: middle;">2.365</text><text x="300" y="310" style="font-family: sans-serif; font-size: 9pt; stroke: rgb(0, 85, 255); text-anchor: middle;">&lt;- Accept H₀ -&gt;</text><text x="140.68578195905064" y="310" style="font-family: sans-serif; font-size: 9pt; stroke: red; text-anchor: middle;">Reject H₀ -&gt;</text><text x="459.31421804094936" y="310" style="font-family: sans-serif; font-size: 9pt; stroke: red; text-anchor: middle;">&lt;- Reject H₀</text><text x="160.68578195905064" y="250" style="font-family: sans-serif; font-size: 9pt; stroke: red; text-anchor: middle;">0.025</text><text x="444.31421804094936" y="250" style="font-family: sans-serif; font-size: 9pt; stroke: red; text-anchor: middle;">0.025</text><line x1="168.51920292301236" y1="270" x2="168.51920292301236" y2="330" stroke-width="2px" style="stroke: green;"></line><text x="168.51920292301236" y="345" style="font-family: sans-serif; font-size: 9pt; stroke: green; text-anchor: middle;">[TestStat] = -3.130</text><text x="168.51920292301236" y="360" style="font-family: sans-serif; font-size: 9pt; stroke: green; text-anchor: middle;">p-value = 0.0166</text><text x="300" y="380" style="font-family: sans-serif; font-size: 9pt; stroke: red; text-anchor: middle;">[Decision] Reject H₀</text></svg>