<svg xmlns="http://www.w3.org/2000/svg" id="SVG" width="600" height="560" xlink="http://www.w3.org/1999/xlink"><text x="290" y="50" style="font-size: 17px; font-family: sans-seirf; stroke: black; text-anchor: middle;">(Group  Gender)   Age  Histogram</text><g class="axis" transform="translate(80, 80) " fill="none" font-size="10" font-family="sans-serif" text-anchor="end"><path class="domain" stroke="#000" d="M-6,200.5H0.5V0.5H-6"></path><g class="tick" opacity="1" transform="translate(0,200.5)"><line stroke="#000" x2="-6"></line><text fill="#000" x="-9" dy="0.32em">0.0</text></g><g class="tick" opacity="1" transform="translate(0,180.5)"><line stroke="#000" x2="-6"></line><text fill="#000" x="-9" dy="0.32em">0.5</text></g><g class="tick" opacity="1" transform="translate(0,160.5)"><line stroke="#000" x2="-6"></line><text fill="#000" x="-9" dy="0.32em">1.0</text></g><g class="tick" opacity="1" transform="translate(0,140.5)"><line stroke="#000" x2="-6"></line><text fill="#000" x="-9" dy="0.32em">1.5</text></g><g class="tick" opacity="1" transform="translate(0,120.5)"><line stroke="#000" x2="-6"></line><text fill="#000" x="-9" dy="0.32em">2.0</text></g><g class="tick" opacity="1" transform="translate(0,100.5)"><line stroke="#000" x2="-6"></line><text fill="#000" x="-9" dy="0.32em">2.5</text></g><g class="tick" opacity="1" transform="translate(0,80.5)"><line stroke="#000" x2="-6"></line><text fill="#000" x="-9" dy="0.32em">3.0</text></g><g class="tick" opacity="1" transform="translate(0,60.5)"><line stroke="#000" x2="-6"></line><text fill="#000" x="-9" dy="0.32em">3.5</text></g><g class="tick" opacity="1" transform="translate(0,40.5)"><line stroke="#000" x2="-6"></line><text fill="#000" x="-9" dy="0.32em">4.0</text></g><g class="tick" opacity="1" transform="translate(0,20.5)"><line stroke="#000" x2="-6"></line><text fill="#000" x="-9" dy="0.32em">4.5</text></g><g class="tick" opacity="1" transform="translate(0,0.5)"><line stroke="#000" x2="-6"></line><text fill="#000" x="-9" dy="0.32em">5.0</text></g></g><g class="axis" transform="translate(80, 280) " fill="none" font-size="10" font-family="sans-serif" text-anchor="end"><path class="domain" stroke="#000" d="M-6,200.5H0.5V0.5H-6"></path><g class="tick" opacity="1" transform="translate(0,200.5)"><line stroke="#000" x2="-6"></line><text fill="#000" x="-9" dy="0.32em">0.0</text></g><g class="tick" opacity="1" transform="translate(0,180.5)"><line stroke="#000" x2="-6"></line><text fill="#000" x="-9" dy="0.32em">0.5</text></g><g class="tick" opacity="1" transform="translate(0,160.5)"><line stroke="#000" x2="-6"></line><text fill="#000" x="-9" dy="0.32em">1.0</text></g><g class="tick" opacity="1" transform="translate(0,140.5)"><line stroke="#000" x2="-6"></line><text fill="#000" x="-9" dy="0.32em">1.5</text></g><g class="tick" opacity="1" transform="translate(0,120.5)"><line stroke="#000" x2="-6"></line><text fill="#000" x="-9" dy="0.32em">2.0</text></g><g class="tick" opacity="1" transform="translate(0,100.5)"><line stroke="#000" x2="-6"></line><text fill="#000" x="-9" dy="0.32em">2.5</text></g><g class="tick" opacity="1" transform="translate(0,80.5)"><line stroke="#000" x2="-6"></line><text fill="#000" x="-9" dy="0.32em">3.0</text></g><g class="tick" opacity="1" transform="translate(0,60.5)"><line stroke="#000" x2="-6"></line><text fill="#000" x="-9" dy="0.32em">3.5</text></g><g class="tick" opacity="1" transform="translate(0,40.5)"><line stroke="#000" x2="-6"></line><text fill="#000" x="-9" dy="0.32em">4.0</text></g><g class="tick" opacity="1" transform="translate(0,20.5)"><line stroke="#000" x2="-6"></line><text fill="#000" x="-9" dy="0.32em">4.5</text></g><g class="tick" opacity="1" transform="translate(0,0.5)"><line stroke="#000" x2="-6"></line><text fill="#000" x="-9" dy="0.32em">5.0</text></g></g><line x1="500" x2="500" y1="80" y2="480" style="stroke: black;"></line><line x1="80" x2="500" y1="80" y2="80" style="stroke: black;"></line><line x1="80" x2="500" y1="280" y2="280" style="stroke: black;"></line><line x1="80" x2="500" y1="480" y2="480" style="stroke: black;"></line><line x1="80" x2="80" y1="480" y2="485" style="stroke: black;"></line><text class="myaxis" x="80" y="500" style="text-anchor: middle; font-family: sans-serif; font-size: 7px; stroke: rgb(0, 85, 255);">19.57</text><line x1="126.66666666666666" x2="126.66666666666666" y1="480" y2="485" style="stroke: black;"></line><text class="myaxis" x="126.66666666666666" y="500" style="text-anchor: middle; font-family: sans-serif; font-size: 7px; stroke: rgb(0, 85, 255);">25.00</text><line x1="173.33333333333331" x2="173.33333333333331" y1="480" y2="485" style="stroke: black;"></line><text class="myaxis" x="173.33333333333331" y="500" style="text-anchor: middle; font-family: sans-serif; font-size: 7px; stroke: rgb(0, 85, 255);">30.43</text><line x1="220" x2="220" y1="480" y2="485" style="stroke: black;"></line><text class="myaxis" x="220" y="500" style="text-anchor: middle; font-family: sans-serif; font-size: 7px; stroke: rgb(0, 85, 255);">35.86</text><line x1="266.66666666666663" x2="266.66666666666663" y1="480" y2="485" style="stroke: black;"></line><text class="myaxis" x="266.66666666666663" y="500" style="text-anchor: middle; font-family: sans-serif; font-size: 7px; stroke: rgb(0, 85, 255);">41.29</text><line x1="313.3333333333333" x2="313.3333333333333" y1="480" y2="485" style="stroke: black;"></line><text class="myaxis" x="313.3333333333333" y="500" style="text-anchor: middle; font-family: sans-serif; font-size: 7px; stroke: rgb(0, 85, 255);">46.71</text><line x1="360" x2="360" y1="480" y2="485" style="stroke: black;"></line><text class="myaxis" x="360" y="500" style="text-anchor: middle; font-family: sans-serif; font-size: 7px; stroke: rgb(0, 85, 255);">52.14</text><line x1="406.66666666666663" x2="406.66666666666663" y1="480" y2="485" style="stroke: black;"></line><text class="myaxis" x="406.66666666666663" y="500" style="text-anchor: middle; font-family: sans-serif; font-size: 7px; stroke: rgb(0, 85, 255);">57.57</text><line x1="453.3333333333333" x2="453.3333333333333" y1="480" y2="485" style="stroke: black;"></line><text class="myaxis" x="453.3333333333333" y="500" style="text-anchor: middle; font-family: sans-serif; font-size: 7px; stroke: rgb(0, 85, 255);">63.00</text><line x1="500" x2="500" y1="480" y2="485" style="stroke: black;"></line><text class="myaxis" x="500" y="500" style="text-anchor: middle; font-family: sans-serif; font-size: 7px; stroke: rgb(0, 85, 255);">68.43</text><text x="290" y="530" style="font-size: 12px; font-family: sans-seirf; stroke: black; text-anchor: middle;"> Age</text><text x="25" y="95" transform="rotate(-90 30 100)" style="font-size: 12px; font-family: sans-seirf; stroke: black; text-anchor: end;">Frequency</text><text x="520" y="180" style="font-size: 12px; font-family: sans-seirf; stroke: rgb(0, 85, 255); text-anchor: start;">Group 1</text><rect class="bar" x="80" width="46.66666666666665" height="0" y="280" style="fill: rgb(0, 85, 255); stroke: black; stroke-width: 1px;"></rect><rect class="bar" x="126.66666666666666" width="46.66666666666665" height="120" y="160" style="fill: rgb(0, 85, 255); stroke: black; stroke-width: 1px;"></rect><rect class="bar" x="173.33333333333331" width="46.66666666666665" height="120" y="160" style="fill: rgb(0, 85, 255); stroke: black; stroke-width: 1px;"></rect><rect class="bar" x="220" width="46.66666666666665" height="40" y="240" style="fill: rgb(0, 85, 255); stroke: black; stroke-width: 1px;"></rect><rect class="bar" x="266.66666666666663" width="46.66666666666665" height="120" y="160" style="fill: rgb(0, 85, 255); stroke: black; stroke-width: 1px;"></rect><rect class="bar" x="313.3333333333333" width="46.66666666666665" height="40" y="240" style="fill: rgb(0, 85, 255); stroke: black; stroke-width: 1px;"></rect><rect class="bar" x="360" width="46.66666666666665" height="40" y="240" style="fill: rgb(0, 85, 255); stroke: black; stroke-width: 1px;"></rect><rect class="bar" x="406.66666666666663" width="46.66666666666665" height="40" y="240" style="fill: rgb(0, 85, 255); stroke: black; stroke-width: 1px;"></rect><rect class="bar" x="453.3333333333333" width="46.66666666666665" height="0" y="280" style="fill: rgb(0, 85, 255); stroke: black; stroke-width: 1px;"></rect><rect class="bar" x="500" width="46.66666666666665" height="0" y="280" style="fill: rgb(0, 85, 255); stroke: black; stroke-width: 1px;"></rect><text x="520" y="380" style="font-size: 12px; font-family: sans-seirf; stroke: rgb(255, 69, 0); text-anchor: start;">Group 2</text><rect class="bar" x="80" width="46.66666666666665" height="0" y="480" style="fill: rgb(255, 69, 0); stroke: black; stroke-width: 1px;"></rect><rect class="bar" x="126.66666666666666" width="46.66666666666665" height="80" y="400" style="fill: rgb(255, 69, 0); stroke: black; stroke-width: 1px;"></rect><rect class="bar" x="173.33333333333331" width="46.66666666666665" height="160" y="320" style="fill: rgb(255, 69, 0); stroke: black; stroke-width: 1px;"></rect><rect class="bar" x="220" width="46.66666666666665" height="120" y="360" style="fill: rgb(255, 69, 0); stroke: black; stroke-width: 1px;"></rect><rect class="bar" x="266.66666666666663" width="46.66666666666665" height="120" y="360" style="fill: rgb(255, 69, 0); stroke: black; stroke-width: 1px;"></rect><rect class="bar" x="313.3333333333333" width="46.66666666666665" height="40" y="440" style="fill: rgb(255, 69, 0); stroke: black; stroke-width: 1px;"></rect><rect class="bar" x="360" width="46.66666666666665" height="80" y="400" style="fill: rgb(255, 69, 0); stroke: black; stroke-width: 1px;"></rect><rect class="bar" x="406.66666666666663" width="46.66666666666665" height="80" y="400" style="fill: rgb(255, 69, 0); stroke: black; stroke-width: 1px;"></rect><rect class="bar" x="453.3333333333333" width="46.66666666666665" height="0" y="480" style="fill: rgb(255, 69, 0); stroke: black; stroke-width: 1px;"></rect><rect class="bar" x="500" width="46.66666666666665" height="0" y="480" style="fill: rgb(255, 69, 0); stroke: black; stroke-width: 1px;"></rect><line class="histmean" x1="245.69500674763827" y1="115" x2="245.69500674763827" y2="285"></line><text class="histmean" x="245.69500674763827" y="290" style="stroke: red; text-anchor: middle; font-family: sans-serif; font-size: 7pt;">Mean=38.85</text><line class="histmean" x1="273.312693498452" y1="315" x2="273.312693498452" y2="485"></line><text class="histmean" x="273.312693498452" y="490" style="stroke: red; text-anchor: middle; font-family: sans-serif; font-size: 7pt;">Mean=42.06</text><text class="histfreq" x="103.33333333333333" y="276" style="stroke: red; text-anchor: middle; font-family: sans-serif; font-size: 8pt;">0</text><text class="histfreq" x="150" y="156" style="stroke: red; text-anchor: middle; font-family: sans-serif; font-size: 8pt;">3</text><text class="histfreq" x="196.66666666666666" y="156" style="stroke: red; text-anchor: middle; font-family: sans-serif; font-size: 8pt;">3</text><text class="histfreq" x="243.33333333333331" y="236" style="stroke: red; text-anchor: middle; font-family: sans-serif; font-size: 8pt;">1</text><text class="histfreq" x="290" y="156" style="stroke: red; text-anchor: middle; font-family: sans-serif; font-size: 8pt;">3</text><text class="histfreq" x="336.6666666666667" y="236" style="stroke: red; text-anchor: middle; font-family: sans-serif; font-size: 8pt;">1</text><text class="histfreq" x="383.3333333333333" y="236" style="stroke: red; text-anchor: middle; font-family: sans-serif; font-size: 8pt;">1</text><text class="histfreq" x="430" y="236" style="stroke: red; text-anchor: middle; font-family: sans-serif; font-size: 8pt;">1</text><text class="histfreq" x="476.6666666666666" y="276" style="stroke: red; text-anchor: middle; font-family: sans-serif; font-size: 8pt;">0</text><text class="histfreq" x="103.33333333333333" y="476" style="stroke: red; text-anchor: middle; font-family: sans-serif; font-size: 8pt;">0</text><text class="histfreq" x="150" y="396" style="stroke: red; text-anchor: middle; font-family: sans-serif; font-size: 8pt;">2</text><text class="histfreq" x="196.66666666666666" y="316" style="stroke: red; text-anchor: middle; font-family: sans-serif; font-size: 8pt;">4</text><text class="histfreq" x="243.33333333333331" y="356" style="stroke: red; text-anchor: middle; font-family: sans-serif; font-size: 8pt;">3</text><text class="histfreq" x="290" y="356" style="stroke: red; text-anchor: middle; font-family: sans-serif; font-size: 8pt;">3</text><text class="histfreq" x="336.6666666666667" y="436" style="stroke: red; text-anchor: middle; font-family: sans-serif; font-size: 8pt;">1</text><text class="histfreq" x="383.3333333333333" y="396" style="stroke: red; text-anchor: middle; font-family: sans-serif; font-size: 8pt;">2</text><text class="histfreq" x="430" y="396" style="stroke: red; text-anchor: middle; font-family: sans-serif; font-size: 8pt;">2</text><text class="histfreq" x="476.6666666666666" y="476" style="stroke: red; text-anchor: middle; font-family: sans-serif; font-size: 8pt;">0</text><circle class="histline" cx="103.33333333333333" cy="280" r="3" style="stroke: lime; stroke-width: 2px;"></circle><line class="histline" x1="103.33333333333333" x2="150" y1="280" y2="160" style="stroke: lime; stroke-width: 2px;"></line><circle class="histline" cx="150" cy="160" r="3" style="stroke: lime; stroke-width: 2px;"></circle><circle class="histline" cx="150" cy="160" r="3" style="stroke: lime; stroke-width: 2px;"></circle><line class="histline" x1="150" x2="196.66666666666666" y1="160" y2="160" style="stroke: lime; stroke-width: 2px;"></line><circle class="histline" cx="196.66666666666666" cy="160" r="3" style="stroke: lime; stroke-width: 2px;"></circle><circle class="histline" cx="196.66666666666666" cy="160" r="3" style="stroke: lime; stroke-width: 2px;"></circle><line class="histline" x1="196.66666666666666" x2="243.33333333333331" y1="160" y2="240" style="stroke: lime; stroke-width: 2px;"></line><circle class="histline" cx="243.33333333333331" cy="240" r="3" style="stroke: lime; stroke-width: 2px;"></circle><circle class="histline" cx="243.33333333333331" cy="240" r="3" style="stroke: lime; stroke-width: 2px;"></circle><line class="histline" x1="243.33333333333331" x2="290" y1="240" y2="160" style="stroke: lime; stroke-width: 2px;"></line><circle class="histline" cx="290" cy="160" r="3" style="stroke: lime; stroke-width: 2px;"></circle><circle class="histline" cx="290" cy="160" r="3" style="stroke: lime; stroke-width: 2px;"></circle><line class="histline" x1="290" x2="336.6666666666667" y1="160" y2="240" style="stroke: lime; stroke-width: 2px;"></line><circle class="histline" cx="336.6666666666667" cy="240" r="3" style="stroke: lime; stroke-width: 2px;"></circle><circle class="histline" cx="336.6666666666667" cy="240" r="3" style="stroke: lime; stroke-width: 2px;"></circle><line class="histline" x1="336.6666666666667" x2="383.3333333333333" y1="240" y2="240" style="stroke: lime; stroke-width: 2px;"></line><circle class="histline" cx="383.3333333333333" cy="240" r="3" style="stroke: lime; stroke-width: 2px;"></circle><circle class="histline" cx="383.3333333333333" cy="240" r="3" style="stroke: lime; stroke-width: 2px;"></circle><line class="histline" x1="383.3333333333333" x2="430" y1="240" y2="240" style="stroke: lime; stroke-width: 2px;"></line><circle class="histline" cx="430" cy="240" r="3" style="stroke: lime; stroke-width: 2px;"></circle><circle class="histline" cx="430" cy="240" r="3" style="stroke: lime; stroke-width: 2px;"></circle><line class="histline" x1="430" x2="476.6666666666666" y1="240" y2="280" style="stroke: lime; stroke-width: 2px;"></line><circle class="histline" cx="476.6666666666666" cy="280" r="3" style="stroke: lime; stroke-width: 2px;"></circle><circle class="histline" cx="103.33333333333333" cy="480" r="3" style="stroke: lime; stroke-width: 2px;"></circle><line class="histline" x1="103.33333333333333" x2="150" y1="480" y2="400" style="stroke: lime; stroke-width: 2px;"></line><circle class="histline" cx="150" cy="400" r="3" style="stroke: lime; stroke-width: 2px;"></circle><circle class="histline" cx="150" cy="400" r="3" style="stroke: lime; stroke-width: 2px;"></circle><line class="histline" x1="150" x2="196.66666666666666" y1="400" y2="320" style="stroke: lime; stroke-width: 2px;"></line><circle class="histline" cx="196.66666666666666" cy="320" r="3" style="stroke: lime; stroke-width: 2px;"></circle><circle class="histline" cx="196.66666666666666" cy="320" r="3" style="stroke: lime; stroke-width: 2px;"></circle><line class="histline" x1="196.66666666666666" x2="243.33333333333331" y1="320" y2="360" style="stroke: lime; stroke-width: 2px;"></line><circle class="histline" cx="243.33333333333331" cy="360" r="3" style="stroke: lime; stroke-width: 2px;"></circle><circle class="histline" cx="243.33333333333331" cy="360" r="3" style="stroke: lime; stroke-width: 2px;"></circle><line class="histline" x1="243.33333333333331" x2="290" y1="360" y2="360" style="stroke: lime; stroke-width: 2px;"></line><circle class="histline" cx="290" cy="360" r="3" style="stroke: lime; stroke-width: 2px;"></circle><circle class="histline" cx="290" cy="360" r="3" style="stroke: lime; stroke-width: 2px;"></circle><line class="histline" x1="290" x2="336.6666666666667" y1="360" y2="440" style="stroke: lime; stroke-width: 2px;"></line><circle class="histline" cx="336.6666666666667" cy="440" r="3" style="stroke: lime; stroke-width: 2px;"></circle><circle class="histline" cx="336.6666666666667" cy="440" r="3" style="stroke: lime; stroke-width: 2px;"></circle><line class="histline" x1="336.6666666666667" x2="383.3333333333333" y1="440" y2="400" style="stroke: lime; stroke-width: 2px;"></line><circle class="histline" cx="383.3333333333333" cy="400" r="3" style="stroke: lime; stroke-width: 2px;"></circle><circle class="histline" cx="383.3333333333333" cy="400" r="3" style="stroke: lime; stroke-width: 2px;"></circle><line class="histline" x1="383.3333333333333" x2="430" y1="400" y2="400" style="stroke: lime; stroke-width: 2px;"></line><circle class="histline" cx="430" cy="400" r="3" style="stroke: lime; stroke-width: 2px;"></circle><circle class="histline" cx="430" cy="400" r="3" style="stroke: lime; stroke-width: 2px;"></circle><line class="histline" x1="430" x2="476.6666666666666" y1="400" y2="480" style="stroke: lime; stroke-width: 2px;"></line><circle class="histline" cx="476.6666666666666" cy="480" r="3" style="stroke: lime; stroke-width: 2px;"></circle></svg>