<svg xmlns="http://www.w3.org/2000/svg" id="SVG" width="600" height="560"><text x="290" y="40" style="font-size: 17px; font-family: sans-seirf; stroke: black; text-anchor: middle;">Factor A - Factor B Mean Graph</text><text x="55" y="280" style="font-size: 12px; font-family: sans-seirf; stroke: black; text-anchor: end;">Miles</text><rect x="80" y="80" width="420" height="400" style="fill: white; stroke: black;"></rect><g class="axis" transform="translate(80, 80) " fill="none" font-size="10" font-family="sans-serif" text-anchor="end"><path class="domain" stroke="#000" d="M-6,400.5H0.5V0.5H-6"></path><g class="tick" opacity="1" transform="translate(0,383.9733893557423)"><line stroke="#000" x2="-6"></line><text fill="#000" x="-9" dy="0.32em">12</text></g><g class="tick" opacity="1" transform="translate(0,327.9509803921569)"><line stroke="#000" x2="-6"></line><text fill="#000" x="-9" dy="0.32em">14</text></g><g class="tick" opacity="1" transform="translate(0,271.92857142857144)"><line stroke="#000" x2="-6"></line><text fill="#000" x="-9" dy="0.32em">16</text></g><g class="tick" opacity="1" transform="translate(0,215.906162464986)"><line stroke="#000" x2="-6"></line><text fill="#000" x="-9" dy="0.32em">18</text></g><g class="tick" opacity="1" transform="translate(0,159.88375350140058)"><line stroke="#000" x2="-6"></line><text fill="#000" x="-9" dy="0.32em">20</text></g><g class="tick" opacity="1" transform="translate(0,103.86134453781517)"><line stroke="#000" x2="-6"></line><text fill="#000" x="-9" dy="0.32em">22</text></g><g class="tick" opacity="1" transform="translate(0,47.838935574229765)"><line stroke="#000" x2="-6"></line><text fill="#000" x="-9" dy="0.32em">24</text></g></g><text x="510" y="80" style="font-size: 12px; font-family: sans-seirf; stroke: black; text-anchor: start;">FactorB : Driver</text><text x="510" y="100" style="font-size: 12px; font-family: sans-seirf; stroke: rgb(255, 69, 0); text-anchor: start;">Level1 (1)</text><text x="510" y="120" style="font-size: 12px; font-family: sans-seirf; stroke: rgb(0, 170, 0); text-anchor: start;">Level2 (2)</text><text x="510" y="140" style="font-size: 12px; font-family: sans-seirf; stroke: rgb(255, 228, 0); text-anchor: start;">Level3 (3)</text><text x="510" y="160" style="font-size: 12px; font-family: sans-seirf; stroke: rgb(255, 0, 221); text-anchor: start;">Level4 (4)</text><text x="510" y="180" style="font-size: 12px; font-family: sans-seirf; stroke: rgb(128, 128, 0); text-anchor: start;">Level5 (5)</text><text x="70" y="500" style="font-size: 12px; font-family: sans-seirf; stroke: black; text-anchor: middle;">FactorA : Car</text><text x="150" y="500" style="font-size: 12px; font-family: sans-seirf; stroke: black; text-anchor: middle;">Level1 (A)</text><circle class="circle" tooltip="circle" cx="150" cy="172.15686274509812" r="3" style="fill: rgb(255, 69, 0);"></circle><circle class="circle" tooltip="circle" cx="150" cy="348.62745098039215" r="3" style="fill: rgb(0, 170, 0);"></circle><circle class="circle" tooltip="circle" cx="150" cy="247.78711484593842" r="3" style="fill: rgb(255, 228, 0);"></circle><circle class="circle" tooltip="circle" cx="150" cy="208.57142857142856" r="3" style="fill: rgb(255, 228, 0);"></circle><circle class="circle" tooltip="circle" cx="150" cy="113.33333333333337" r="3" style="fill: rgb(255, 228, 0);"></circle><text x="290" y="500" style="font-size: 12px; font-family: sans-seirf; stroke: black; text-anchor: middle;">Level2 (B)</text><circle class="circle" tooltip="circle" cx="290" cy="343.0252100840336" r="3" style="fill: rgb(255, 69, 0);"></circle><circle class="circle" tooltip="circle" cx="290" cy="446.6666666666667" r="3" style="fill: rgb(0, 170, 0);"></circle><circle class="circle" tooltip="circle" cx="290" cy="354.22969187675073" r="3" style="fill: rgb(255, 228, 0);"></circle><circle class="circle" tooltip="circle" cx="290" cy="301.00840336134456" r="3" style="fill: rgb(255, 228, 0);"></circle><circle class="circle" tooltip="circle" cx="290" cy="211.37254901960785" r="3" style="fill: rgb(255, 228, 0);"></circle><text x="430" y="500" style="font-size: 12px; font-family: sans-seirf; stroke: black; text-anchor: middle;">Level3 (C)</text><circle class="circle" tooltip="circle" cx="430" cy="233.78151260504208" r="3" style="fill: rgb(255, 69, 0);"></circle><circle class="circle" tooltip="circle" cx="430" cy="373.83753501400565" r="3" style="fill: rgb(0, 170, 0);"></circle><circle class="circle" tooltip="circle" cx="430" cy="275.7983193277312" r="3" style="fill: rgb(255, 228, 0);"></circle><circle class="circle" tooltip="circle" cx="430" cy="270.1960784313726" r="3" style="fill: rgb(255, 228, 0);"></circle><circle class="circle" tooltip="circle" cx="430" cy="132.9411764705883" r="3" style="fill: rgb(255, 228, 0);"></circle><circle class="std" cx="150" cy="172.15686274509812" r="5" style="fill: rgb(255, 69, 0);"></circle><line class="std" x1="150" y1="172.15686274509812" x2="290" y2="343.0252100840336" style="stroke-width: 3px; stroke: rgb(255, 69, 0);"></line><circle class="std" cx="290" cy="343.0252100840336" r="5" style="fill: rgb(255, 69, 0);"></circle><circle class="std" cx="290" cy="343.0252100840336" r="5" style="fill: rgb(255, 69, 0);"></circle><line class="std" x1="290" y1="343.0252100840336" x2="430" y2="233.78151260504208" style="stroke-width: 3px; stroke: rgb(255, 69, 0);"></line><circle class="std" cx="430" cy="233.78151260504208" r="5" style="fill: rgb(255, 69, 0);"></circle><circle class="std" cx="150" cy="348.62745098039215" r="5" style="fill: rgb(0, 170, 0);"></circle><line class="std" x1="150" y1="348.62745098039215" x2="290" y2="446.6666666666667" style="stroke-width: 3px; stroke: rgb(0, 170, 0);"></line><circle class="std" cx="290" cy="446.6666666666667" r="5" style="fill: rgb(0, 170, 0);"></circle><circle class="std" cx="290" cy="446.6666666666667" r="5" style="fill: rgb(0, 170, 0);"></circle><line class="std" x1="290" y1="446.6666666666667" x2="430" y2="373.83753501400565" style="stroke-width: 3px; stroke: rgb(0, 170, 0);"></line><circle class="std" cx="430" cy="373.83753501400565" r="5" style="fill: rgb(0, 170, 0);"></circle><circle class="std" cx="150" cy="247.78711484593842" r="5" style="fill: rgb(255, 228, 0);"></circle><line class="std" x1="150" y1="247.78711484593842" x2="290" y2="354.22969187675073" style="stroke-width: 3px; stroke: rgb(255, 228, 0);"></line><circle class="std" cx="290" cy="354.22969187675073" r="5" style="fill: rgb(255, 228, 0);"></circle><circle class="std" cx="290" cy="354.22969187675073" r="5" style="fill: rgb(255, 228, 0);"></circle><line class="std" x1="290" y1="354.22969187675073" x2="430" y2="275.7983193277312" style="stroke-width: 3px; stroke: rgb(255, 228, 0);"></line><circle class="std" cx="430" cy="275.7983193277312" r="5" style="fill: rgb(255, 228, 0);"></circle><circle class="std" cx="150" cy="208.57142857142856" r="5" style="fill: rgb(255, 0, 221);"></circle><line class="std" x1="150" y1="208.57142857142856" x2="290" y2="301.00840336134456" style="stroke-width: 3px; stroke: rgb(255, 0, 221);"></line><circle class="std" cx="290" cy="301.00840336134456" r="5" style="fill: rgb(255, 0, 221);"></circle><circle class="std" cx="290" cy="301.00840336134456" r="5" style="fill: rgb(255, 0, 221);"></circle><line class="std" x1="290" y1="301.00840336134456" x2="430" y2="270.1960784313726" style="stroke-width: 3px; stroke: rgb(255, 0, 221);"></line><circle class="std" cx="430" cy="270.1960784313726" r="5" style="fill: rgb(255, 0, 221);"></circle><circle class="std" cx="150" cy="113.33333333333337" r="5" style="fill: rgb(128, 128, 0);"></circle><line class="std" x1="150" y1="113.33333333333337" x2="290" y2="211.37254901960785" style="stroke-width: 3px; stroke: rgb(128, 128, 0);"></line><circle class="std" cx="290" cy="211.37254901960785" r="5" style="fill: rgb(128, 128, 0);"></circle><circle class="std" cx="290" cy="211.37254901960785" r="5" style="fill: rgb(128, 128, 0);"></circle><line class="std" x1="290" y1="211.37254901960785" x2="430" y2="132.9411764705883" style="stroke-width: 3px; stroke: rgb(128, 128, 0);"></line><circle class="std" cx="430" cy="132.9411764705883" r="5" style="fill: rgb(128, 128, 0);"></circle></svg>