<svg xmlns="http://www.w3.org/2000/svg" id="SVG" width="600" height="560" xlink="http://www.w3.org/1999/xlink"><text x="290" y="50" style="font-size: 17px; font-family: sans-seirf; stroke: black; text-anchor: middle;"> Age  Box-Whisker Plot</text><rect x="80" y="80" width="420" height="400" style="stroke: black; fill: white;"></rect><g transform="translate(80,80)" fill="none" font-size="10" font-family="sans-serif" text-anchor="end"><path class="domain" stroke="#000" d="M-6,400.5H0.5V0.5H-6"></path><g class="tick" opacity="1" transform="translate(0,367.16666666666663)"><line stroke="#000" x2="-6"></line><text fill="#000" x="-9" dy="0.32em">25</text></g><g class="tick" opacity="1" transform="translate(0,323.3070175438596)"><line stroke="#000" x2="-6"></line><text fill="#000" x="-9" dy="0.32em">30</text></g><g class="tick" opacity="1" transform="translate(0,279.4473684210526)"><line stroke="#000" x2="-6"></line><text fill="#000" x="-9" dy="0.32em">35</text></g><g class="tick" opacity="1" transform="translate(0,235.5877192982456)"><line stroke="#000" x2="-6"></line><text fill="#000" x="-9" dy="0.32em">40</text></g><g class="tick" opacity="1" transform="translate(0,191.72807017543857)"><line stroke="#000" x2="-6"></line><text fill="#000" x="-9" dy="0.32em">45</text></g><g class="tick" opacity="1" transform="translate(0,147.86842105263156)"><line stroke="#000" x2="-6"></line><text fill="#000" x="-9" dy="0.32em">50</text></g><g class="tick" opacity="1" transform="translate(0,104.00877192982455)"><line stroke="#000" x2="-6"></line><text fill="#000" x="-9" dy="0.32em">55</text></g><g class="tick" opacity="1" transform="translate(0,60.149122807017534)"><line stroke="#000" x2="-6"></line><text fill="#000" x="-9" dy="0.32em">60</text></g><g class="tick" opacity="1" transform="translate(0,16.289473684210463)"><line stroke="#000" x2="-6"></line><text fill="#000" x="-9" dy="0.32em">65</text></g></g><line x1="237.5" y1="446.66666666666663" x2="342.5" y2="446.66666666666663" style="stroke: rgb(0, 85, 255); stroke-width: 2px;"></line><line x1="290" y1="446.66666666666663" x2="290" y2="383.0701754385965" style="stroke: rgb(0, 85, 255); stroke-width: 2px;"></line><line x1="237.5" y1="113.33333333333331" x2="342.5" y2="113.33333333333331" style="stroke: rgb(0, 85, 255); stroke-width: 2px;"></line><rect x="185" y="242.719298245614" width="210" height="140.35087719298247" style="stroke: black; fill: rgb(0, 85, 255);"></rect><line x1="290" y1="242.719298245614" x2="290" y2="113.33333333333331" style="stroke: rgb(0, 85, 255); stroke-width: 2px;"></line><line x1="185" y1="315.0877192982456" x2="395" y2="315.0877192982456" style="stroke: lime; stroke-width: 2px;"></line></svg>