<svg xmlns="http://www.w3.org/2000/svg" id="SVG" width="600" height="560" xlink="http://www.w3.org/1999/xlink"><text x="290" y="50" style="font-size: 17px; font-family: sans-seirf; stroke: black; text-anchor: middle;"> Line Graph</text><text x="290" y="530" style="font-size: 12px; font-family: sans-seirf; stroke: black; text-anchor: middle;">Country</text><text x="25" y="95" transform="rotate(-90 30 100)" style="font-size: 12px; font-family: sans-seirf; stroke: black; text-anchor: end;"></text><line x1="80" x2="500" y1="480" y2="480" style="stroke: black;"></line><line x1="80" x2="500" y1="80" y2="80" style="stroke: black;"></line><line x1="87" x2="87" y1="480" y2="485" style="stroke: black; stroke-width: 0.5;"></line><text x="82.8" y="485" transform="rotate(90,82.8,485)  " style="text-anchor: start; font-size: 9px; font-family: sans-serif;">Arab Emirate</text><line x1="101" x2="101" y1="480" y2="485" style="stroke: black; stroke-width: 0.5;"></line><text x="96.8" y="485" transform="rotate(90,96.8,485)  " style="text-anchor: start; font-size: 9px; font-family: sans-serif;">Australia</text><line x1="115" x2="115" y1="480" y2="485" style="stroke: black; stroke-width: 0.5;"></line><text x="110.8" y="485" transform="rotate(90,110.8,485)  " style="text-anchor: start; font-size: 9px; font-family: sans-serif;">Austria</text><line x1="129" x2="129" y1="480" y2="485" style="stroke: black; stroke-width: 0.5;"></line><text x="124.8" y="485" transform="rotate(90,124.8,485)  " style="text-anchor: start; font-size: 9px; font-family: sans-serif;">Belgium</text><line x1="143" x2="143" y1="480" y2="485" style="stroke: black; stroke-width: 0.5;"></line><text x="138.8" y="485" transform="rotate(90,138.8,485)  " style="text-anchor: start; font-size: 9px; font-family: sans-serif;">Brazil</text><line x1="157" x2="157" y1="480" y2="485" style="stroke: black; stroke-width: 0.5;"></line><text x="152.8" y="485" transform="rotate(90,152.8,485)  " style="text-anchor: start; font-size: 9px; font-family: sans-serif;">Canada</text><line x1="171" x2="171" y1="480" y2="485" style="stroke: black; stroke-width: 0.5;"></line><text x="166.8" y="485" transform="rotate(90,166.8,485)  " style="text-anchor: start; font-size: 9px; font-family: sans-serif;">China</text><line x1="185" x2="185" y1="480" y2="485" style="stroke: black; stroke-width: 0.5;"></line><text x="180.8" y="485" transform="rotate(90,180.8,485)  " style="text-anchor: start; font-size: 9px; font-family: sans-serif;">Czech Republic</text><line x1="199" x2="199" y1="480" y2="485" style="stroke: black; stroke-width: 0.5;"></line><text x="194.8" y="485" transform="rotate(90,194.8,485)  " style="text-anchor: start; font-size: 9px; font-family: sans-serif;">France</text><line x1="213" x2="213" y1="480" y2="485" style="stroke: black; stroke-width: 0.5;"></line><text x="208.8" y="485" transform="rotate(90,208.8,485)  " style="text-anchor: start; font-size: 9px; font-family: sans-serif;">Germany</text><line x1="227" x2="227" y1="480" y2="485" style="stroke: black; stroke-width: 0.5;"></line><text x="222.8" y="485" transform="rotate(90,222.8,485)  " style="text-anchor: start; font-size: 9px; font-family: sans-serif;">HongKong</text><line x1="241" x2="241" y1="480" y2="485" style="stroke: black; stroke-width: 0.5;"></line><text x="236.8" y="485" transform="rotate(90,236.8,485)  " style="text-anchor: start; font-size: 9px; font-family: sans-serif;">India</text><line x1="255" x2="255" y1="480" y2="485" style="stroke: black; stroke-width: 0.5;"></line><text x="250.8" y="485" transform="rotate(90,250.8,485)  " style="text-anchor: start; font-size: 9px; font-family: sans-serif;">Indonesia</text><line x1="269" x2="269" y1="480" y2="485" style="stroke: black; stroke-width: 0.5;"></line><text x="264.8" y="485" transform="rotate(90,264.8,485)  " style="text-anchor: start; font-size: 9px; font-family: sans-serif;">Italy</text><line x1="283" x2="283" y1="480" y2="485" style="stroke: black; stroke-width: 0.5;"></line><text x="278.8" y="485" transform="rotate(90,278.8,485)  " style="text-anchor: start; font-size: 9px; font-family: sans-serif;">Japan</text><line x1="297" x2="297" y1="480" y2="485" style="stroke: black; stroke-width: 0.5;"></line><text x="292.8" y="485" transform="rotate(90,292.8,485)  " style="text-anchor: start; font-size: 9px; font-family: sans-serif;">Malaysia</text><line x1="311" x2="311" y1="480" y2="485" style="stroke: black; stroke-width: 0.5;"></line><text x="306.8" y="485" transform="rotate(90,306.8,485)  " style="text-anchor: start; font-size: 9px; font-family: sans-serif;">Mexico</text><line x1="325" x2="325" y1="480" y2="485" style="stroke: black; stroke-width: 0.5;"></line><text x="320.8" y="485" transform="rotate(90,320.8,485)  " style="text-anchor: start; font-size: 9px; font-family: sans-serif;">Netherlands</text><line x1="339" x2="339" y1="480" y2="485" style="stroke: black; stroke-width: 0.5;"></line><text x="334.8" y="485" transform="rotate(90,334.8,485)  " style="text-anchor: start; font-size: 9px; font-family: sans-serif;">Poland</text><line x1="353" x2="353" y1="480" y2="485" style="stroke: black; stroke-width: 0.5;"></line><text x="348.8" y="485" transform="rotate(90,348.8,485)  " style="text-anchor: start; font-size: 9px; font-family: sans-serif;">Russia</text><line x1="367" x2="367" y1="480" y2="485" style="stroke: black; stroke-width: 0.5;"></line><text x="362.8" y="485" transform="rotate(90,362.8,485)  " style="text-anchor: start; font-size: 9px; font-family: sans-serif;">SaudiArabia</text><line x1="381" x2="381" y1="480" y2="485" style="stroke: black; stroke-width: 0.5;"></line><text x="376.8" y="485" transform="rotate(90,376.8,485)  " style="text-anchor: start; font-size: 9px; font-family: sans-serif;">Singapore</text><line x1="395" x2="395" y1="480" y2="485" style="stroke: black; stroke-width: 0.5;"></line><text x="390.8" y="485" transform="rotate(90,390.8,485)  " style="text-anchor: start; font-size: 9px; font-family: sans-serif;">Spain</text><line x1="409" x2="409" y1="480" y2="485" style="stroke: black; stroke-width: 0.5;"></line><text x="404.8" y="485" transform="rotate(90,404.8,485)  " style="text-anchor: start; font-size: 9px; font-family: sans-serif;">Switzerland</text><line x1="423" x2="423" y1="480" y2="485" style="stroke: black; stroke-width: 0.5;"></line><text x="418.8" y="485" transform="rotate(90,418.8,485)  " style="text-anchor: start; font-size: 9px; font-family: sans-serif;">Thailand</text><line x1="437" x2="437" y1="480" y2="485" style="stroke: black; stroke-width: 0.5;"></line><text x="432.8" y="485" transform="rotate(90,432.8,485)  " style="text-anchor: start; font-size: 9px; font-family: sans-serif;">Turkey</text><line x1="451" x2="451" y1="480" y2="485" style="stroke: black; stroke-width: 0.5;"></line><text x="446.8" y="485" transform="rotate(90,446.8,485)  " style="text-anchor: start; font-size: 9px; font-family: sans-serif;">UK</text><line x1="465" x2="465" y1="480" y2="485" style="stroke: black; stroke-width: 0.5;"></line><text x="460.8" y="485" transform="rotate(90,460.8,485)  " style="text-anchor: start; font-size: 9px; font-family: sans-serif;">USA</text><line x1="479" x2="479" y1="480" y2="485" style="stroke: black; stroke-width: 0.5;"></line><text x="474.8" y="485" transform="rotate(90,474.8,485)  " style="text-anchor: start; font-size: 9px; font-family: sans-serif;">VietNam</text><line x1="493" x2="493" y1="480" y2="485" style="stroke: black; stroke-width: 0.5;"></line><text x="488.8" y="485" transform="rotate(90,488.8,485)  " style="text-anchor: start; font-size: 9px; font-family: sans-serif;">Korea</text><g transform="translate(80,80)" fill="none" font-size="10" font-family="sans-serif" text-anchor="end"><path class="domain" stroke="#000" d="M-6,0.5H0.5V400.5H-6"></path><g class="tick" opacity="1" transform="translate(0,18.029880478087648)"><line stroke="#000" x2="-6"></line><text fill="#000" x="-9" dy="0.32em">2,400</text></g><g class="tick" opacity="1" transform="translate(0,49.90239043824704)"><line stroke="#000" x2="-6"></line><text fill="#000" x="-9" dy="0.32em">2,200</text></g><g class="tick" opacity="1" transform="translate(0,81.77490039840637)"><line stroke="#000" x2="-6"></line><text fill="#000" x="-9" dy="0.32em">2,000</text></g><g class="tick" opacity="1" transform="translate(0,113.64741035856571)"><line stroke="#000" x2="-6"></line><text fill="#000" x="-9" dy="0.32em">1,800</text></g><g class="tick" opacity="1" transform="translate(0,145.5199203187251)"><line stroke="#000" x2="-6"></line><text fill="#000" x="-9" dy="0.32em">1,600</text></g><g class="tick" opacity="1" transform="translate(0,177.3924302788845)"><line stroke="#000" x2="-6"></line><text fill="#000" x="-9" dy="0.32em">1,400</text></g><g class="tick" opacity="1" transform="translate(0,209.26494023904382)"><line stroke="#000" x2="-6"></line><text fill="#000" x="-9" dy="0.32em">1,200</text></g><g class="tick" opacity="1" transform="translate(0,241.1374501992032)"><line stroke="#000" x2="-6"></line><text fill="#000" x="-9" dy="0.32em">1,000</text></g><g class="tick" opacity="1" transform="translate(0,273.00996015936255)"><line stroke="#000" x2="-6"></line><text fill="#000" x="-9" dy="0.32em">800</text></g><g class="tick" opacity="1" transform="translate(0,304.88247011952194)"><line stroke="#000" x2="-6"></line><text fill="#000" x="-9" dy="0.32em">600</text></g><g class="tick" opacity="1" transform="translate(0,336.7549800796813)"><line stroke="#000" x2="-6"></line><text fill="#000" x="-9" dy="0.32em">400</text></g><g class="tick" opacity="1" transform="translate(0,368.6274900398406)"><line stroke="#000" x2="-6"></line><text fill="#000" x="-9" dy="0.32em">200</text></g><g class="tick" opacity="1" transform="translate(0,400.5)"><line stroke="#000" x2="-6"></line><text fill="#000" x="-9" dy="0.32em">0</text></g></g><line x1="500" x2="500" y1="80" y2="480" style="stroke: black;"></line><circle cx="87" cy="442.8685258964143" r="4" style="fill: rgb(0, 85, 255);"><title>233</title></circle><circle cx="101" cy="449.8804780876494" r="4" style="fill: rgb(0, 85, 255);"><title>189</title></circle><line x1="87" x2="101" y1="442.8685258964143" y2="449.8804780876494" style="stroke: rgb(0, 85, 255);"></line><circle cx="115" cy="455.61752988047806" r="4" style="fill: rgb(0, 85, 255);"><title>153</title></circle><line x1="101" x2="115" y1="449.8804780876494" y2="455.61752988047806" style="stroke: rgb(0, 85, 255);"></line><circle cx="129" cy="416.41434262948206" r="4" style="fill: rgb(0, 85, 255);"><title>399</title></circle><line x1="115" x2="129" y1="455.61752988047806" y2="416.41434262948206" style="stroke: rgb(0, 85, 255);"></line><circle cx="143" cy="449.56175298804783" r="4" style="fill: rgb(0, 85, 255);"><title>191</title></circle><line x1="129" x2="143" y1="416.41434262948206" y2="449.56175298804783" style="stroke: rgb(0, 85, 255);"></line><circle cx="157" cy="414.9800796812749" r="4" style="fill: rgb(0, 85, 255);"><title>408</title></circle><line x1="143" x2="157" y1="449.56175298804783" y2="414.9800796812749" style="stroke: rgb(0, 85, 255);"></line><circle cx="171" cy="116.49402390438246" r="4" style="fill: rgb(0, 85, 255);"><title>2281</title></circle><line x1="157" x2="171" y1="414.9800796812749" y2="116.49402390438246" style="stroke: rgb(0, 85, 255);"></line><circle cx="185" cy="454.8207171314741" r="4" style="fill: rgb(0, 85, 255);"><title>158</title></circle><line x1="171" x2="185" y1="116.49402390438246" y2="454.8207171314741" style="stroke: rgb(0, 85, 255);"></line><circle cx="199" cy="399.36254980079684" r="4" style="fill: rgb(0, 85, 255);"><title>506</title></circle><line x1="185" x2="199" y1="454.8207171314741" y2="399.36254980079684" style="stroke: rgb(0, 85, 255);"></line><circle cx="213" cy="268.207171314741" r="4" style="fill: rgb(0, 85, 255);"><title>1329</title></circle><line x1="199" x2="213" y1="399.36254980079684" y2="268.207171314741" style="stroke: rgb(0, 85, 255);"></line><circle cx="227" cy="405.8964143426295" r="4" style="fill: rgb(0, 85, 255);"><title>465</title></circle><line x1="213" x2="227" y1="268.207171314741" y2="405.8964143426295" style="stroke: rgb(0, 85, 255);"></line><circle cx="241" cy="437.60956175298804" r="4" style="fill: rgb(0, 85, 255);"><title>266</title></circle><line x1="227" x2="241" y1="405.8964143426295" y2="437.60956175298804" style="stroke: rgb(0, 85, 255);"></line><circle cx="255" cy="456.0956175298805" r="4" style="fill: rgb(0, 85, 255);"><title>150</title></circle><line x1="241" x2="255" y1="437.60956175298804" y2="456.0956175298805" style="stroke: rgb(0, 85, 255);"></line><circle cx="269" cy="406.8525896414343" r="4" style="fill: rgb(0, 85, 255);"><title>459</title></circle><line x1="255" x2="269" y1="456.0956175298805" y2="406.8525896414343" style="stroke: rgb(0, 85, 255);"></line><circle cx="283" cy="380.398406374502" r="4" style="fill: rgb(0, 85, 255);"><title>625</title></circle><line x1="269" x2="283" y1="406.8525896414343" y2="380.398406374502" style="stroke: rgb(0, 85, 255);"></line><circle cx="297" cy="448.1274900398406" r="4" style="fill: rgb(0, 85, 255);"><title>200</title></circle><line x1="283" x2="297" y1="380.398406374502" y2="448.1274900398406" style="stroke: rgb(0, 85, 255);"></line><circle cx="311" cy="419.2828685258964" r="4" style="fill: rgb(0, 85, 255);"><title>381</title></circle><line x1="297" x2="311" y1="448.1274900398406" y2="419.2828685258964" style="stroke: rgb(0, 85, 255);"></line><circle cx="325" cy="389.6414342629482" r="4" style="fill: rgb(0, 85, 255);"><title>567</title></circle><line x1="311" x2="325" y1="419.2828685258964" y2="389.6414342629482" style="stroke: rgb(0, 85, 255);"></line><circle cx="339" cy="448.44621513944224" r="4" style="fill: rgb(0, 85, 255);"><title>198</title></circle><line x1="325" x2="339" y1="389.6414342629482" y2="448.44621513944224" style="stroke: rgb(0, 85, 255);"></line><circle cx="353" cy="425.3386454183267" r="4" style="fill: rgb(0, 85, 255);"><title>343</title></circle><line x1="339" x2="353" y1="448.44621513944224" y2="425.3386454183267" style="stroke: rgb(0, 85, 255);"></line><circle cx="367" cy="446.53386454183266" r="4" style="fill: rgb(0, 85, 255);"><title>210</title></circle><line x1="353" x2="367" y1="425.3386454183267" y2="446.53386454183266" style="stroke: rgb(0, 85, 255);"></line><circle cx="381" cy="423.9043824701195" r="4" style="fill: rgb(0, 85, 255);"><title>352</title></circle><line x1="367" x2="381" y1="446.53386454183266" y2="423.9043824701195" style="stroke: rgb(0, 85, 255);"></line><circle cx="395" cy="435.0597609561753" r="4" style="fill: rgb(0, 85, 255);"><title>282</title></circle><line x1="381" x2="395" y1="423.9043824701195" y2="435.0597609561753" style="stroke: rgb(0, 85, 255);"></line><circle cx="409" cy="433.7848605577689" r="4" style="fill: rgb(0, 85, 255);"><title>290</title></circle><line x1="395" x2="409" y1="435.0597609561753" y2="433.7848605577689" style="stroke: rgb(0, 85, 255);"></line><circle cx="423" cy="446.37450199203187" r="4" style="fill: rgb(0, 85, 255);"><title>211</title></circle><line x1="409" x2="423" y1="433.7848605577689" y2="446.37450199203187" style="stroke: rgb(0, 85, 255);"></line><circle cx="437" cy="457.0517928286853" r="4" style="fill: rgb(0, 85, 255);"><title>144</title></circle><line x1="423" x2="437" y1="446.37450199203187" y2="457.0517928286853" style="stroke: rgb(0, 85, 255);"></line><circle cx="451" cy="406.69322709163345" r="4" style="fill: rgb(0, 85, 255);"><title>460</title></circle><line x1="437" x2="451" y1="457.0517928286853" y2="406.69322709163345" style="stroke: rgb(0, 85, 255);"></line><circle cx="465" cy="240.1593625498008" r="4" style="fill: rgb(0, 85, 255);"><title>1505</title></circle><line x1="451" x2="465" y1="406.69322709163345" y2="240.1593625498008" style="stroke: rgb(0, 85, 255);"></line><circle cx="479" cy="453.7051792828685" r="4" style="fill: rgb(0, 85, 255);"><title>165</title></circle><line x1="465" x2="479" y1="240.1593625498008" y2="453.7051792828685" style="stroke: rgb(0, 85, 255);"></line><circle cx="493" cy="396.0159362549801" r="4" style="fill: rgb(0, 85, 255);"><title>527</title></circle><line x1="479" x2="493" y1="453.7051792828685" y2="396.0159362549801" style="stroke: rgb(0, 85, 255);"></line><circle cx="87" cy="437.9282868525896" r="4" style="fill: rgb(255, 69, 0);"><title>264</title></circle><circle cx="101" cy="444.7808764940239" r="4" style="fill: rgb(255, 69, 0);"><title>221</title></circle><line x1="87" x2="101" y1="437.9282868525896" y2="444.7808764940239" style="stroke: rgb(255, 69, 0);"></line><circle cx="115" cy="455.2988047808765" r="4" style="fill: rgb(255, 69, 0);"><title>155</title></circle><line x1="101" x2="115" y1="444.7808764940239" y2="455.2988047808765" style="stroke: rgb(255, 69, 0);"></line><circle cx="129" cy="420.0796812749004" r="4" style="fill: rgb(255, 69, 0);"><title>376</title></circle><line x1="115" x2="129" y1="455.2988047808765" y2="420.0796812749004" style="stroke: rgb(255, 69, 0);"></line><circle cx="143" cy="449.8804780876494" r="4" style="fill: rgb(255, 69, 0);"><title>189</title></circle><line x1="129" x2="143" y1="420.0796812749004" y2="449.8804780876494" style="stroke: rgb(255, 69, 0);"></line><circle cx="157" cy="406.37450199203187" r="4" style="fill: rgb(255, 69, 0);"><title>462</title></circle><line x1="143" x2="157" y1="449.8804780876494" y2="406.37450199203187" style="stroke: rgb(255, 69, 0);"></line><circle cx="171" cy="224.70119521912352" r="4" style="fill: rgb(255, 69, 0);"><title>1602</title></circle><line x1="157" x2="171" y1="406.37450199203187" y2="224.70119521912352" style="stroke: rgb(255, 69, 0);"></line><circle cx="185" cy="457.52988047808765" r="4" style="fill: rgb(255, 69, 0);"><title>141</title></circle><line x1="171" x2="185" y1="224.70119521912352" y2="457.52988047808765" style="stroke: rgb(255, 69, 0);"></line><circle cx="199" cy="388.8446215139442" r="4" style="fill: rgb(255, 69, 0);"><title>572</title></circle><line x1="185" x2="199" y1="457.52988047808765" y2="388.8446215139442" style="stroke: rgb(255, 69, 0);"></line><circle cx="213" cy="312.66932270916334" r="4" style="fill: rgb(255, 69, 0);"><title>1050</title></circle><line x1="199" x2="213" y1="388.8446215139442" y2="312.66932270916334" style="stroke: rgb(255, 69, 0);"></line><circle cx="227" cy="396.65338645418325" r="4" style="fill: rgb(255, 69, 0);"><title>523</title></circle><line x1="213" x2="227" y1="312.66932270916334" y2="396.65338645418325" style="stroke: rgb(255, 69, 0);"></line><circle cx="241" cy="417.52988047808765" r="4" style="fill: rgb(255, 69, 0);"><title>392</title></circle><line x1="227" x2="241" y1="396.65338645418325" y2="417.52988047808765" style="stroke: rgb(255, 69, 0);"></line><circle cx="255" cy="457.21115537848607" r="4" style="fill: rgb(255, 69, 0);"><title>143</title></circle><line x1="241" x2="255" y1="417.52988047808765" y2="457.21115537848607" style="stroke: rgb(255, 69, 0);"></line><circle cx="269" cy="414.8207171314741" r="4" style="fill: rgb(255, 69, 0);"><title>409</title></circle><line x1="255" x2="269" y1="457.21115537848607" y2="414.8207171314741" style="stroke: rgb(255, 69, 0);"></line><circle cx="283" cy="376.7330677290837" r="4" style="fill: rgb(255, 69, 0);"><title>648</title></circle><line x1="269" x2="283" y1="414.8207171314741" y2="376.7330677290837" style="stroke: rgb(255, 69, 0);"></line><circle cx="297" cy="451.9521912350598" r="4" style="fill: rgb(255, 69, 0);"><title>176</title></circle><line x1="283" x2="297" y1="376.7330677290837" y2="451.9521912350598" style="stroke: rgb(255, 69, 0);"></line><circle cx="311" cy="410.67729083665336" r="4" style="fill: rgb(255, 69, 0);"><title>435</title></circle><line x1="297" x2="311" y1="451.9521912350598" y2="410.67729083665336" style="stroke: rgb(255, 69, 0);"></line><circle cx="325" cy="399.36254980079684" r="4" style="fill: rgb(255, 69, 0);"><title>506</title></circle><line x1="311" x2="325" y1="410.67729083665336" y2="399.36254980079684" style="stroke: rgb(255, 69, 0);"></line><circle cx="339" cy="449.0836653386454" r="4" style="fill: rgb(255, 69, 0);"><title>194</title></circle><line x1="325" x2="339" y1="399.36254980079684" y2="449.0836653386454" style="stroke: rgb(255, 69, 0);"></line><circle cx="353" cy="450.996015936255" r="4" style="fill: rgb(255, 69, 0);"><title>182</title></circle><line x1="339" x2="353" y1="449.0836653386454" y2="450.996015936255" style="stroke: rgb(255, 69, 0);"></line><circle cx="367" cy="452.43027888446215" r="4" style="fill: rgb(255, 69, 0);"><title>173</title></circle><line x1="353" x2="367" y1="450.996015936255" y2="452.43027888446215" style="stroke: rgb(255, 69, 0);"></line><circle cx="381" cy="432.66932270916334" r="4" style="fill: rgb(255, 69, 0);"><title>297</title></circle><line x1="367" x2="381" y1="452.43027888446215" y2="432.66932270916334" style="stroke: rgb(255, 69, 0);"></line><circle cx="395" cy="430.2788844621514" r="4" style="fill: rgb(255, 69, 0);"><title>312</title></circle><line x1="381" x2="395" y1="432.66932270916334" y2="430.2788844621514" style="stroke: rgb(255, 69, 0);"></line><circle cx="409" cy="439.8406374501992" r="4" style="fill: rgb(255, 69, 0);"><title>252</title></circle><line x1="395" x2="409" y1="430.2788844621514" y2="439.8406374501992" style="stroke: rgb(255, 69, 0);"></line><circle cx="423" cy="447.80876494023903" r="4" style="fill: rgb(255, 69, 0);"><title>202</title></circle><line x1="409" x2="423" y1="439.8406374501992" y2="447.80876494023903" style="stroke: rgb(255, 69, 0);"></line><circle cx="437" cy="447.0119521912351" r="4" style="fill: rgb(255, 69, 0);"><title>207</title></circle><line x1="423" x2="437" y1="447.80876494023903" y2="447.0119521912351" style="stroke: rgb(255, 69, 0);"></line><circle cx="451" cy="380.2390438247012" r="4" style="fill: rgb(255, 69, 0);"><title>626</title></circle><line x1="437" x2="451" y1="447.0119521912351" y2="380.2390438247012" style="stroke: rgb(255, 69, 0);"></line><circle cx="465" cy="122.70916334661354" r="4" style="fill: rgb(255, 69, 0);"><title>2242</title></circle><line x1="451" x2="465" y1="380.2390438247012" y2="122.70916334661354" style="stroke: rgb(255, 69, 0);"></line><circle cx="479" cy="445.7370517928287" r="4" style="fill: rgb(255, 69, 0);"><title>215</title></circle><line x1="465" x2="479" y1="122.70916334661354" y2="445.7370517928287" style="stroke: rgb(255, 69, 0);"></line><circle cx="493" cy="410.51792828685257" r="4" style="fill: rgb(255, 69, 0);"><title>436</title></circle><line x1="479" x2="493" y1="445.7370517928287" y2="410.51792828685257" style="stroke: rgb(255, 69, 0);"></line><circle cx="515" cy="100" r="4" style="fill: rgb(0, 85, 255);"></circle><text x="525" y="105" style="font-size: 12px; font-family: sans-seirf; stroke: rgb(0, 85, 255); text-anchor: start;">Export</text><circle cx="515" cy="120" r="4" style="fill: rgb(255, 69, 0);"></circle><text x="525" y="125" style="font-size: 12px; font-family: sans-seirf; stroke: rgb(255, 69, 0); text-anchor: start;">Import</text></svg>