<svg xmlns="http://www.w3.org/2000/svg" id="chart" width="600" height="600"> <text x="40" y="25" style="font-size: 13pt; stroke: blue; text-anchor: start;">HyperGeometric Distribution N = 20, D = 5, n = 3</text><text x="260" y="580" style="font-family: sans-serif; font-size: 9pt; stroke: rgb(0, 85, 255); text-anchor: middle;">Mean = 0.75,  Std Dev = 0.75</text><g transform="translate(40,50)" fill="none" font-size="10" font-family="sans-serif" text-anchor="end"><path class="domain" stroke="#000" d="M-6,0.5H0.5V490.5H-6"></path><g class="tick" opacity="1" transform="translate(0,14.111111111111143)"><line stroke="#000" x2="-6"></line><text fill="#000" x="-9" dy="0.32em">0.7</text></g><g class="tick" opacity="1" transform="translate(0,82.16666666666663)"><line stroke="#000" x2="-6"></line><text fill="#000" x="-9" dy="0.32em">0.6</text></g><g class="tick" opacity="1" transform="translate(0,150.22222222222223)"><line stroke="#000" x2="-6"></line><text fill="#000" x="-9" dy="0.32em">0.5</text></g><g class="tick" opacity="1" transform="translate(0,218.27777777777777)"><line stroke="#000" x2="-6"></line><text fill="#000" x="-9" dy="0.32em">0.4</text></g><g class="tick" opacity="1" transform="translate(0,286.3333333333333)"><line stroke="#000" x2="-6"></line><text fill="#000" x="-9" dy="0.32em">0.3</text></g><g class="tick" opacity="1" transform="translate(0,354.3888888888889)"><line stroke="#000" x2="-6"></line><text fill="#000" x="-9" dy="0.32em">0.2</text></g><g class="tick" opacity="1" transform="translate(0,422.44444444444446)"><line stroke="#000" x2="-6"></line><text fill="#000" x="-9" dy="0.32em">0.1</text></g><g class="tick" opacity="1" transform="translate(0,490.5)"><line stroke="#000" x2="-6"></line><text fill="#000" x="-9" dy="0.32em">0.0</text></g></g><line x1="40" y1="540" x2="560" y2="540" style="stroke: black;"></line><text class="barname" x="105" y="560" transform="rotate(0,105,560)  " style="font-family: sans-serif; font-size: 8pt; text-anchor: middle;">0</text><text class="barname" x="235" y="560" transform="rotate(0,235,560)  " style="font-family: sans-serif; font-size: 8pt; text-anchor: middle;">1</text><text class="barname" x="365" y="560" transform="rotate(0,365,560)  " style="font-family: sans-serif; font-size: 8pt; text-anchor: middle;">2</text><text class="barname" x="495" y="560" transform="rotate(0,495,560)  " style="font-family: sans-serif; font-size: 8pt; text-anchor: middle;">3</text><rect height="271.62524366471735" width="86.66666666666667" x="61.66666666666667" y="268.37475633528265" style="fill: rgb(0, 85, 255);"></rect><rect height="313.4137426900585" width="86.66666666666667" x="191.66666666666669" y="226.58625730994152" style="fill: rgb(0, 85, 255);"></rect><rect height="89.54678362573098" width="86.66666666666667" x="321.6666666666667" y="450.453216374269" style="fill: rgb(0, 85, 255);"></rect><rect height="5.969785575048732" width="86.66666666666667" x="451.6666666666667" y="534.0302144249513" style="fill: rgb(0, 85, 255);"></rect></svg>