<svg xmlns="http://www.w3.org/2000/svg" id="chart" width="600" height="600"> <text x="40" y="25" style="font-size: 13pt; stroke: blue; text-anchor: start;">Binomial Distribution n = 10, p = 0.20</text><text x="260" y="580" style="font-family: sans-serif; font-size: 9pt; stroke: rgb(0, 85, 255); text-anchor: middle;">Mean = 2.00,  Std Dev = 1.26</text><g transform="translate(40,50)" fill="none" font-size="10" font-family="sans-serif" text-anchor="end"><path class="domain" stroke="#000" d="M-6,0.5H0.5V490.5H-6"></path><g class="tick" opacity="1" transform="translate(0,14.111111111111143)"><line stroke="#000" x2="-6"></line><text fill="#000" x="-9" dy="0.32em">0.35</text></g><g class="tick" opacity="1" transform="translate(0,82.16666666666663)"><line stroke="#000" x2="-6"></line><text fill="#000" x="-9" dy="0.32em">0.30</text></g><g class="tick" opacity="1" transform="translate(0,150.22222222222223)"><line stroke="#000" x2="-6"></line><text fill="#000" x="-9" dy="0.32em">0.25</text></g><g class="tick" opacity="1" transform="translate(0,218.27777777777777)"><line stroke="#000" x2="-6"></line><text fill="#000" x="-9" dy="0.32em">0.20</text></g><g class="tick" opacity="1" transform="translate(0,286.3333333333333)"><line stroke="#000" x2="-6"></line><text fill="#000" x="-9" dy="0.32em">0.15</text></g><g class="tick" opacity="1" transform="translate(0,354.3888888888889)"><line stroke="#000" x2="-6"></line><text fill="#000" x="-9" dy="0.32em">0.10</text></g><g class="tick" opacity="1" transform="translate(0,422.44444444444446)"><line stroke="#000" x2="-6"></line><text fill="#000" x="-9" dy="0.32em">0.05</text></g><g class="tick" opacity="1" transform="translate(0,490.5)"><line stroke="#000" x2="-6"></line><text fill="#000" x="-9" dy="0.32em">0.00</text></g></g><line x1="40" y1="540" x2="560" y2="540" style="stroke: black;"></line><text class="barname" x="60.63636363636363" y="560" transform="rotate(30,60.63636363636363,560)  " style="font-family: sans-serif; font-size: 8pt; text-anchor: middle;">0</text><text class="barname" x="107.9090909090909" y="560" transform="rotate(30,107.9090909090909,560)  " style="font-family: sans-serif; font-size: 8pt; text-anchor: middle;">1</text><text class="barname" x="155.1818181818182" y="560" transform="rotate(30,155.1818181818182,560)  " style="font-family: sans-serif; font-size: 8pt; text-anchor: middle;">2</text><text class="barname" x="202.45454545454544" y="560" transform="rotate(30,202.45454545454544,560)  " style="font-family: sans-serif; font-size: 8pt; text-anchor: middle;">3</text><text class="barname" x="249.72727272727272" y="560" transform="rotate(30,249.72727272727272,560)  " style="font-family: sans-serif; font-size: 8pt; text-anchor: middle;">4</text><text class="barname" x="297" y="560" transform="rotate(30,297,560)  " style="font-family: sans-serif; font-size: 8pt; text-anchor: middle;">5</text><text class="barname" x="344.27272727272725" y="560" transform="rotate(30,344.27272727272725,560)  " style="font-family: sans-serif; font-size: 8pt; text-anchor: middle;">6</text><text class="barname" x="391.54545454545456" y="560" transform="rotate(30,391.54545454545456,560)  " style="font-family: sans-serif; font-size: 8pt; text-anchor: middle;">7</text><text class="barname" x="438.8181818181818" y="560" transform="rotate(30,438.8181818181818,560)  " style="font-family: sans-serif; font-size: 8pt; text-anchor: middle;">8</text><text class="barname" x="486.09090909090907" y="560" transform="rotate(30,486.09090909090907,560)  " style="font-family: sans-serif; font-size: 8pt; text-anchor: middle;">9</text><text class="barname" x="533.3636363636364" y="560" transform="rotate(30,533.3636363636364,560)  " style="font-family: sans-serif; font-size: 8pt; text-anchor: middle;">10</text><rect height="146.14819271111116" width="31.515151515151516" x="47.878787878787875" y="393.85180728888884" style="fill: rgb(0, 85, 255);"></rect><rect height="365.370481777778" width="31.515151515151516" x="95.15151515151516" y="174.62951822222198" style="fill: rgb(0, 85, 255);"></rect><rect height="411.0417920000002" width="31.515151515151516" x="142.42424242424244" y="128.9582079999998" style="fill: rgb(0, 85, 255);"></rect><rect height="274.02786133333376" width="31.515151515151516" x="189.6969696969697" y="265.97213866666624" style="fill: rgb(0, 85, 255);"></rect><rect height="119.8871893333335" width="31.515151515151516" x="236.96969696969697" y="420.1128106666665" style="fill: rgb(0, 85, 255);"></rect><rect height="35.96615680000002" width="31.515151515151516" x="284.24242424242425" y="504.0338432" style="fill: rgb(0, 85, 255);"></rect><rect height="7.492949333333335" width="31.515151515151516" x="331.5151515151515" y="532.5070506666667" style="fill: rgb(0, 85, 255);"></rect><rect height="1.0704213333333323" width="31.515151515151516" x="378.7878787878788" y="538.9295786666667" style="fill: rgb(0, 85, 255);"></rect><rect height="0.1003519999999999" width="31.515151515151516" x="426.06060606060606" y="539.899648" style="fill: rgb(0, 85, 255);"></rect><rect height="0.005575111111111101" width="31.515151515151516" x="473.3333333333333" y="539.994424888889" style="fill: rgb(0, 85, 255);"></rect><rect height="0.00013937777777777783" width="31.515151515151516" x="520.6060606060606" y="539.9998606222222" style="fill: rgb(0, 85, 255);"></rect><text class="freqfont2" x="63.63636363636363" y="388.85180728888884">0.107</text><text class="freqfont2" x="110.9090909090909" y="169.62951822222198">0.268</text><text class="freqfont2" x="158.1818181818182" y="123.95820799999979">0.302</text><text class="freqfont2" x="205.45454545454544" y="260.97213866666624">0.201</text><text class="freqfont2" x="252.72727272727272" y="415.1128106666665">0.088</text><text class="freqfont2" x="300" y="499.0338432">0.026</text><text class="freqfont2" x="347.27272727272725" y="527.5070506666667">0.006</text><text class="freqfont2" x="394.54545454545456" y="533.9295786666667">0.001</text><text class="freqfont2" x="441.8181818181818" y="534.899648">0.000</text><text class="freqfont2" x="489.09090909090907" y="534.994424888889">0.000</text><text class="freqfont2" x="536.3636363636364" y="534.9998606222222">0.000</text></svg>