<svg xmlns="http://www.w3.org/2000/svg" id="chart" width="600" height="600"> <g transform="translate(40,50)" fill="none" font-size="10" font-family="sans-serif" text-anchor="end"><path class="domain" stroke="#000" d="M-6,0.5H0.5V490.5H-6"></path><g class="tick" opacity="1" transform="translate(0,23.833333333333314)"><line stroke="#000" x2="-6"></line><text fill="#000" x="-9" dy="0.32em">0.8</text></g><g class="tick" opacity="1" transform="translate(0,82.16666666666669)"><line stroke="#000" x2="-6"></line><text fill="#000" x="-9" dy="0.32em">0.7</text></g><g class="tick" opacity="1" transform="translate(0,140.5)"><line stroke="#000" x2="-6"></line><text fill="#000" x="-9" dy="0.32em">0.6</text></g><g class="tick" opacity="1" transform="translate(0,198.83333333333331)"><line stroke="#000" x2="-6"></line><text fill="#000" x="-9" dy="0.32em">0.5</text></g><g class="tick" opacity="1" transform="translate(0,257.16666666666663)"><line stroke="#000" x2="-6"></line><text fill="#000" x="-9" dy="0.32em">0.4</text></g><g class="tick" opacity="1" transform="translate(0,315.5)"><line stroke="#000" x2="-6"></line><text fill="#000" x="-9" dy="0.32em">0.3</text></g><g class="tick" opacity="1" transform="translate(0,373.8333333333333)"><line stroke="#000" x2="-6"></line><text fill="#000" x="-9" dy="0.32em">0.2</text></g><g class="tick" opacity="1" transform="translate(0,432.1666666666667)"><line stroke="#000" x2="-6"></line><text fill="#000" x="-9" dy="0.32em">0.1</text></g><g class="tick" opacity="1" transform="translate(0,490.5)"><line stroke="#000" x2="-6"></line><text fill="#000" x="-9" dy="0.32em">0.0</text></g></g><line x1="40" y1="540" x2="560" y2="540" style="stroke: black;"></line><text class="barname" x="62.16129032258064" y="560" transform="rotate(90,62.16129032258064,560)  " style="font-family: sans-serif; font-size: 8pt; text-anchor: middle;">1</text><text class="barname" x="95.70967741935485" y="560" transform="rotate(90,95.70967741935485,560)  " style="font-family: sans-serif; font-size: 8pt; text-anchor: middle;">3</text><text class="barname" x="129.25806451612902" y="560" transform="rotate(90,129.25806451612902,560)  " style="font-family: sans-serif; font-size: 8pt; text-anchor: middle;">5</text><text class="barname" x="162.80645161290323" y="560" transform="rotate(90,162.80645161290323,560)  " style="font-family: sans-serif; font-size: 8pt; text-anchor: middle;">7</text><text class="barname" x="196.35483870967744" y="560" transform="rotate(90,196.35483870967744,560)  " style="font-family: sans-serif; font-size: 8pt; text-anchor: middle;">9</text><text class="barname" x="229.9032258064516" y="560" transform="rotate(90,229.9032258064516,560)  " style="font-family: sans-serif; font-size: 8pt; text-anchor: middle;">11</text><text class="barname" x="263.4516129032258" y="560" transform="rotate(90,263.4516129032258,560)  " style="font-family: sans-serif; font-size: 8pt; text-anchor: middle;">13</text><text class="barname" x="297" y="560" transform="rotate(90,297,560)  " style="font-family: sans-serif; font-size: 8pt; text-anchor: middle;">15</text><text class="barname" x="330.54838709677415" y="560" transform="rotate(90,330.54838709677415,560)  " style="font-family: sans-serif; font-size: 8pt; text-anchor: middle;">17</text><text class="barname" x="364.09677419354836" y="560" transform="rotate(90,364.09677419354836,560)  " style="font-family: sans-serif; font-size: 8pt; text-anchor: middle;">19</text><text class="barname" x="397.64516129032256" y="560" transform="rotate(90,397.64516129032256,560)  " style="font-family: sans-serif; font-size: 8pt; text-anchor: middle;">21</text><text class="barname" x="431.19354838709677" y="560" transform="rotate(90,431.19354838709677,560)  " style="font-family: sans-serif; font-size: 8pt; text-anchor: middle;">23</text><text class="barname" x="464.7419354838709" y="560" transform="rotate(90,464.7419354838709,560)  " style="font-family: sans-serif; font-size: 8pt; text-anchor: middle;">25</text><text class="barname" x="498.2903225806451" y="560" transform="rotate(90,498.2903225806451,560)  " style="font-family: sans-serif; font-size: 8pt; text-anchor: middle;">27</text><text class="barname" x="531.8387096774194" y="560" transform="rotate(90,531.8387096774194,560)  " style="font-family: sans-serif; font-size: 8pt; text-anchor: middle;">29</text><text x="40" y="25" style="font-size: 13pt; stroke: blue; text-anchor: start;">Geometric Distribution p = 0.20</text><text x="260" y="580" style="font-family: sans-serif; font-size: 9pt; stroke: rgb(0, 85, 255); text-anchor: middle;">Mean = 5.00,  Std Dev = 4.47</text><rect height="0" width="11.18279569892473" x="42.795698924731184" y="540" style="fill: rgb(0, 85, 255);"></rect><rect height="116.66666666666669" width="11.18279569892473" x="59.56989247311828" y="423.3333333333333" style="fill: rgb(0, 85, 255);"></rect><rect height="93.33333333333336" width="11.18279569892473" x="76.34408602150538" y="446.66666666666663" style="fill: rgb(0, 85, 255);"></rect><rect height="74.66666666666667" width="11.18279569892473" x="93.11827956989248" y="465.3333333333333" style="fill: rgb(0, 85, 255);"></rect><rect height="59.73333333333334" width="11.18279569892473" x="109.89247311827957" y="480.26666666666665" style="fill: rgb(0, 85, 255);"></rect><rect height="47.786666666666676" width="11.18279569892473" x="126.66666666666667" y="492.2133333333333" style="fill: rgb(0, 85, 255);"></rect><rect height="38.229333333333344" width="11.18279569892473" x="143.44086021505376" y="501.77066666666667" style="fill: rgb(0, 85, 255);"></rect><rect height="30.583466666666677" width="11.18279569892473" x="160.21505376344084" y="509.41653333333335" style="fill: rgb(0, 85, 255);"></rect><rect height="24.46677333333334" width="11.18279569892473" x="176.98924731182797" y="515.5332266666667" style="fill: rgb(0, 85, 255);"></rect><rect height="19.573418666666672" width="11.18279569892473" x="193.76344086021504" y="520.4265813333333" style="fill: rgb(0, 85, 255);"></rect><rect height="15.658734933333339" width="11.18279569892473" x="210.53763440860217" y="524.3412650666667" style="fill: rgb(0, 85, 255);"></rect><rect height="12.526987946666672" width="11.18279569892473" x="227.31182795698925" y="527.4730120533334" style="fill: rgb(0, 85, 255);"></rect><rect height="10.021590357333338" width="11.18279569892473" x="244.08602150537632" y="529.9784096426666" style="fill: rgb(0, 85, 255);"></rect><rect height="8.017272285866671" width="11.18279569892473" x="260.86021505376345" y="531.9827277141334" style="fill: rgb(0, 85, 255);"></rect><rect height="6.413817828693337" width="11.18279569892473" x="277.63440860215053" y="533.5861821713066" style="fill: rgb(0, 85, 255);"></rect><rect height="5.131054262954669" width="11.18279569892473" x="294.4086021505376" y="534.8689457370454" style="fill: rgb(0, 85, 255);"></rect><rect height="4.104843410363736" width="11.18279569892473" x="311.18279569892474" y="535.8951565896363" style="fill: rgb(0, 85, 255);"></rect><rect height="3.283874728290989" width="11.18279569892473" x="327.9569892473118" y="536.716125271709" style="fill: rgb(0, 85, 255);"></rect><rect height="2.6270997826327913" width="11.18279569892473" x="344.73118279569894" y="537.3729002173673" style="fill: rgb(0, 85, 255);"></rect><rect height="2.101679826106233" width="11.18279569892473" x="361.505376344086" y="537.8983201738938" style="fill: rgb(0, 85, 255);"></rect><rect height="1.6813438608849864" width="11.18279569892473" x="378.27956989247315" y="538.318656139115" style="fill: rgb(0, 85, 255);"></rect><rect height="1.3450750887079894" width="11.18279569892473" x="395.0537634408602" y="538.654924911292" style="fill: rgb(0, 85, 255);"></rect><rect height="1.0760600709663914" width="11.18279569892473" x="411.8279569892473" y="538.9239399290336" style="fill: rgb(0, 85, 255);"></rect><rect height="0.8608480567731132" width="11.18279569892473" x="428.60215053763443" y="539.1391519432269" style="fill: rgb(0, 85, 255);"></rect><rect height="0.6886784454184905" width="11.18279569892473" x="445.3763440860215" y="539.3113215545815" style="fill: rgb(0, 85, 255);"></rect><rect height="0.5509427563347925" width="11.18279569892473" x="462.1505376344086" y="539.4490572436652" style="fill: rgb(0, 85, 255);"></rect><rect height="0.440754205067834" width="11.18279569892473" x="478.9247311827957" y="539.5592457949322" style="fill: rgb(0, 85, 255);"></rect><rect height="0.35260336405426723" width="11.18279569892473" x="495.6989247311828" y="539.6473966359457" style="fill: rgb(0, 85, 255);"></rect><rect height="0.2820826912434138" width="11.18279569892473" x="512.4731182795698" y="539.7179173087566" style="fill: rgb(0, 85, 255);"></rect><rect height="0.22566615299473106" width="11.18279569892473" x="529.247311827957" y="539.7743338470053" style="fill: rgb(0, 85, 255);"></rect><rect height="0.18053292239578483" width="11.18279569892473" x="546.0215053763441" y="539.8194670776043" style="fill: rgb(0, 85, 255);"></rect></svg>