<svg xmlns="http://www.w3.org/2000/svg" id="SVG" width="600" height="560"><text x="290" y="50" style="font-size: 17px; font-family: sans-seirf; stroke: black; text-anchor: middle;"> Bar Graph</text><text x="290" y="530" style="font-size: 12px; font-family: sans-seirf; stroke: black; text-anchor: middle;">AgeInterval</text><text x="10" y="95" transform="rotate(-90 30 100)" style="font-size: 12px; font-family: sans-seirf; stroke: black; text-anchor: end;">Frequency</text><line x1="91.66666666666667" x2="91.66666666666667" y1="480" y2="485" style="stroke: black; stroke-width: 0.5;"></line><text x="84.66666666666667" y="490" transform="rotate(30,84.66666666666667,490)  " style="text-anchor: start; font-family: sans-serif; font-size: 9px;">00 - 04</text><line x1="115" x2="115" y1="480" y2="485" style="stroke: black; stroke-width: 0.5;"></line><text x="108" y="490" transform="rotate(30,108,490)  " style="text-anchor: start; font-family: sans-serif; font-size: 9px;">05 - 09</text><line x1="138.33333333333334" x2="138.33333333333334" y1="480" y2="485" style="stroke: black; stroke-width: 0.5;"></line><text x="131.33333333333334" y="490" transform="rotate(30,131.33333333333334,490)  " style="text-anchor: start; font-family: sans-serif; font-size: 9px;">10 - 14</text><line x1="161.66666666666669" x2="161.66666666666669" y1="480" y2="485" style="stroke: black; stroke-width: 0.5;"></line><text x="154.66666666666669" y="490" transform="rotate(30,154.66666666666669,490)  " style="text-anchor: start; font-family: sans-serif; font-size: 9px;">15 - 19</text><line x1="185" x2="185" y1="480" y2="485" style="stroke: black; stroke-width: 0.5;"></line><text x="178" y="490" transform="rotate(30,178,490)  " style="text-anchor: start; font-family: sans-serif; font-size: 9px;">20 - 24</text><line x1="208.33333333333331" x2="208.33333333333331" y1="480" y2="485" style="stroke: black; stroke-width: 0.5;"></line><text x="201.33333333333331" y="490" transform="rotate(30,201.33333333333331,490)  " style="text-anchor: start; font-family: sans-serif; font-size: 9px;">25 - 29</text><line x1="231.66666666666669" x2="231.66666666666669" y1="480" y2="485" style="stroke: black; stroke-width: 0.5;"></line><text x="224.66666666666669" y="490" transform="rotate(30,224.66666666666669,490)  " style="text-anchor: start; font-family: sans-serif; font-size: 9px;">30 - 34</text><line x1="255" x2="255" y1="480" y2="485" style="stroke: black; stroke-width: 0.5;"></line><text x="248" y="490" transform="rotate(30,248,490)  " style="text-anchor: start; font-family: sans-serif; font-size: 9px;">35 - 39</text><line x1="278.3333333333333" x2="278.3333333333333" y1="480" y2="485" style="stroke: black; stroke-width: 0.5;"></line><text x="271.3333333333333" y="490" transform="rotate(30,271.3333333333333,490)  " style="text-anchor: start; font-family: sans-serif; font-size: 9px;">40 - 44</text><line x1="301.6666666666667" x2="301.6666666666667" y1="480" y2="485" style="stroke: black; stroke-width: 0.5;"></line><text x="294.6666666666667" y="490" transform="rotate(30,294.6666666666667,490)  " style="text-anchor: start; font-family: sans-serif; font-size: 9px;">45 - 49</text><line x1="325" x2="325" y1="480" y2="485" style="stroke: black; stroke-width: 0.5;"></line><text x="318" y="490" transform="rotate(30,318,490)  " style="text-anchor: start; font-family: sans-serif; font-size: 9px;">50 - 54</text><line x1="348.3333333333333" x2="348.3333333333333" y1="480" y2="485" style="stroke: black; stroke-width: 0.5;"></line><text x="341.3333333333333" y="490" transform="rotate(30,341.3333333333333,490)  " style="text-anchor: start; font-family: sans-serif; font-size: 9px;">55 - 59</text><line x1="371.6666666666667" x2="371.6666666666667" y1="480" y2="485" style="stroke: black; stroke-width: 0.5;"></line><text x="364.6666666666667" y="490" transform="rotate(30,364.6666666666667,490)  " style="text-anchor: start; font-family: sans-serif; font-size: 9px;">60 - 64</text><line x1="395" x2="395" y1="480" y2="485" style="stroke: black; stroke-width: 0.5;"></line><text x="388" y="490" transform="rotate(30,388,490)  " style="text-anchor: start; font-family: sans-serif; font-size: 9px;">65 - 69</text><line x1="418.3333333333333" x2="418.3333333333333" y1="480" y2="485" style="stroke: black; stroke-width: 0.5;"></line><text x="411.3333333333333" y="490" transform="rotate(30,411.3333333333333,490)  " style="text-anchor: start; font-family: sans-serif; font-size: 9px;">70 - 74</text><line x1="441.6666666666667" x2="441.6666666666667" y1="480" y2="485" style="stroke: black; stroke-width: 0.5;"></line><text x="434.6666666666667" y="490" transform="rotate(30,434.6666666666667,490)  " style="text-anchor: start; font-family: sans-serif; font-size: 9px;">75 - 79</text><line x1="465" x2="465" y1="480" y2="485" style="stroke: black; stroke-width: 0.5;"></line><text x="458" y="490" transform="rotate(30,458,490)  " style="text-anchor: start; font-family: sans-serif; font-size: 9px;">80 - 84</text><line x1="488.3333333333333" x2="488.3333333333333" y1="480" y2="485" style="stroke: black; stroke-width: 0.5;"></line><text x="481.3333333333333" y="490" transform="rotate(30,481.3333333333333,490)  " style="text-anchor: start; font-family: sans-serif; font-size: 9px;">85 above</text><g transform="translate(80,80)" fill="none" font-size="10" font-family="sans-serif" text-anchor="end"><path class="domain" stroke="#000" d="M-6,200.5H0.5V0.5H-6"></path><g class="tick" opacity="1" transform="translate(0,200.5)"><line stroke="#000" x2="-6"></line><text fill="#000" x="-9" dy="0.32em">0</text></g><g class="tick" opacity="1" transform="translate(0,183.97107438016528)"><line stroke="#000" x2="-6"></line><text fill="#000" x="-9" dy="0.32em">20</text></g><g class="tick" opacity="1" transform="translate(0,167.44214876033058)"><line stroke="#000" x2="-6"></line><text fill="#000" x="-9" dy="0.32em">40</text></g><g class="tick" opacity="1" transform="translate(0,150.91322314049586)"><line stroke="#000" x2="-6"></line><text fill="#000" x="-9" dy="0.32em">60</text></g><g class="tick" opacity="1" transform="translate(0,134.38429752066116)"><line stroke="#000" x2="-6"></line><text fill="#000" x="-9" dy="0.32em">80</text></g><g class="tick" opacity="1" transform="translate(0,117.85537190082644)"><line stroke="#000" x2="-6"></line><text fill="#000" x="-9" dy="0.32em">100</text></g><g class="tick" opacity="1" transform="translate(0,101.32644628099173)"><line stroke="#000" x2="-6"></line><text fill="#000" x="-9" dy="0.32em">120</text></g><g class="tick" opacity="1" transform="translate(0,84.79752066115704)"><line stroke="#000" x2="-6"></line><text fill="#000" x="-9" dy="0.32em">140</text></g><g class="tick" opacity="1" transform="translate(0,68.2685950413223)"><line stroke="#000" x2="-6"></line><text fill="#000" x="-9" dy="0.32em">160</text></g><g class="tick" opacity="1" transform="translate(0,51.739669421487605)"><line stroke="#000" x2="-6"></line><text fill="#000" x="-9" dy="0.32em">180</text></g><g class="tick" opacity="1" transform="translate(0,35.21074380165288)"><line stroke="#000" x2="-6"></line><text fill="#000" x="-9" dy="0.32em">200</text></g><g class="tick" opacity="1" transform="translate(0,18.681818181818187)"><line stroke="#000" x2="-6"></line><text fill="#000" x="-9" dy="0.32em">220</text></g><g class="tick" opacity="1" transform="translate(0,2.152892561983464)"><line stroke="#000" x2="-6"></line><text fill="#000" x="-9" dy="0.32em">240</text></g></g><line class="line" x1="80" x2="80" y1="80" y2="480" style="stroke: black;"></line><line class="line" x1="500" x2="500" y1="80" y2="480" style="stroke: black;"></line><g transform="translate(80,280)" fill="none" font-size="10" font-family="sans-serif" text-anchor="end"><path class="domain" stroke="#000" d="M-6,200.5H0.5V0.5H-6"></path><g class="tick" opacity="1" transform="translate(0,200.5)"><line stroke="#000" x2="-6"></line><text fill="#000" x="-9" dy="0.32em">0</text></g><g class="tick" opacity="1" transform="translate(0,183.97107438016528)"><line stroke="#000" x2="-6"></line><text fill="#000" x="-9" dy="0.32em">20</text></g><g class="tick" opacity="1" transform="translate(0,167.44214876033058)"><line stroke="#000" x2="-6"></line><text fill="#000" x="-9" dy="0.32em">40</text></g><g class="tick" opacity="1" transform="translate(0,150.91322314049586)"><line stroke="#000" x2="-6"></line><text fill="#000" x="-9" dy="0.32em">60</text></g><g class="tick" opacity="1" transform="translate(0,134.38429752066116)"><line stroke="#000" x2="-6"></line><text fill="#000" x="-9" dy="0.32em">80</text></g><g class="tick" opacity="1" transform="translate(0,117.85537190082644)"><line stroke="#000" x2="-6"></line><text fill="#000" x="-9" dy="0.32em">100</text></g><g class="tick" opacity="1" transform="translate(0,101.32644628099173)"><line stroke="#000" x2="-6"></line><text fill="#000" x="-9" dy="0.32em">120</text></g><g class="tick" opacity="1" transform="translate(0,84.79752066115704)"><line stroke="#000" x2="-6"></line><text fill="#000" x="-9" dy="0.32em">140</text></g><g class="tick" opacity="1" transform="translate(0,68.2685950413223)"><line stroke="#000" x2="-6"></line><text fill="#000" x="-9" dy="0.32em">160</text></g><g class="tick" opacity="1" transform="translate(0,51.739669421487605)"><line stroke="#000" x2="-6"></line><text fill="#000" x="-9" dy="0.32em">180</text></g><g class="tick" opacity="1" transform="translate(0,35.21074380165288)"><line stroke="#000" x2="-6"></line><text fill="#000" x="-9" dy="0.32em">200</text></g><g class="tick" opacity="1" transform="translate(0,18.681818181818187)"><line stroke="#000" x2="-6"></line><text fill="#000" x="-9" dy="0.32em">220</text></g><g class="tick" opacity="1" transform="translate(0,2.152892561983464)"><line stroke="#000" x2="-6"></line><text fill="#000" x="-9" dy="0.32em">240</text></g></g><line class="line" x1="80" x2="80" y1="80" y2="480" style="stroke: black;"></line><line class="line" x1="500" x2="500" y1="80" y2="480" style="stroke: black;"></line><line class="line" x1="80" x2="500" y1="80" y2="80" style="stroke: black;"></line><line class="line" x1="80" x2="500" y1="280" y2="280" style="stroke: black;"></line><rect x="515" y="180" width="8" height="8" style="fill: rgb(0, 85, 255);"></rect><text x="530" y="190" style="font-size: 12px; font-family: sans-seirf; stroke: rgb(0, 85, 255); text-anchor: start;">2015_Male</text><rect class="bar" height="95.0413223140496" width="13.999999999999998" x="84.66666666666667" y="184.95867768595042" style="fill: rgb(0, 85, 255);"></rect><rect class="bar" height="95.86776859504133" width="13.999999999999998" x="108" y="184.13223140495867" style="fill: rgb(0, 85, 255);"></rect><rect class="bar" height="104.13223140495867" width="13.999999999999998" x="131.33333333333334" y="175.86776859504133" style="fill: rgb(0, 85, 255);"></rect><rect class="bar" height="137.1900826446281" width="13.999999999999998" x="154.66666666666669" y="142.8099173553719" style="fill: rgb(0, 85, 255);"></rect><rect class="bar" height="149.58677685950414" width="13.999999999999998" x="178" y="130.41322314049586" style="fill: rgb(0, 85, 255);"></rect><rect class="bar" height="130.5785123966942" width="13.999999999999998" x="201.33333333333331" y="149.4214876033058" style="fill: rgb(0, 85, 255);"></rect><rect class="bar" height="152.89256198347107" width="13.999999999999998" x="224.66666666666669" y="127.10743801652893" style="fill: rgb(0, 85, 255);"></rect><rect class="bar" height="159.50413223140495" width="13.999999999999998" x="248" y="120.49586776859505" style="fill: rgb(0, 85, 255);"></rect><rect class="bar" height="176.85950413223142" width="13.999999999999998" x="271.3333333333333" y="103.14049586776858" style="fill: rgb(0, 85, 255);"></rect><rect class="bar" height="177.68595041322314" width="13.999999999999998" x="294.6666666666667" y="102.31404958677686" style="fill: rgb(0, 85, 255);"></rect><rect class="bar" height="172.72727272727272" width="13.999999999999998" x="318" y="107.27272727272728" style="fill: rgb(0, 85, 255);"></rect><rect class="bar" height="158.67768595041323" width="13.999999999999998" x="341.3333333333333" y="121.32231404958677" style="fill: rgb(0, 85, 255);"></rect><rect class="bar" height="110.74380165289257" width="13.999999999999998" x="364.6666666666667" y="169.25619834710744" style="fill: rgb(0, 85, 255);"></rect><rect class="bar" height="84.29752066115702" width="13.999999999999998" x="388" y="195.70247933884298" style="fill: rgb(0, 85, 255);"></rect><rect class="bar" height="65.2892561983471" width="13.999999999999998" x="411.3333333333333" y="214.71074380165288" style="fill: rgb(0, 85, 255);"></rect><rect class="bar" height="45.45454545454545" width="13.999999999999998" x="434.6666666666667" y="234.54545454545456" style="fill: rgb(0, 85, 255);"></rect><rect class="bar" height="23.140495867768596" width="13.999999999999998" x="458" y="256.8595041322314" style="fill: rgb(0, 85, 255);"></rect><rect class="bar" height="10.743801652892563" width="13.999999999999998" x="481.3333333333333" y="269.25619834710744" style="fill: rgb(0, 85, 255);"></rect><line class="line" x1="80" x2="500" y1="480" y2="480" style="stroke: black;"></line><rect x="515" y="380" width="8" height="8" style="fill: rgb(255, 69, 0);"></rect><text x="530" y="390" style="font-size: 12px; font-family: sans-seirf; stroke: rgb(255, 69, 0); text-anchor: start;">2015_Female</text><rect class="bar" height="90.08264462809917" width="13.999999999999998" x="84.66666666666667" y="389.91735537190084" style="fill: rgb(255, 69, 0);"></rect><rect class="bar" height="90.08264462809917" width="13.999999999999998" x="108" y="389.91735537190084" style="fill: rgb(255, 69, 0);"></rect><rect class="bar" height="95.86776859504133" width="13.999999999999998" x="131.33333333333334" y="384.1322314049587" style="fill: rgb(255, 69, 0);"></rect><rect class="bar" height="124.79338842975207" width="13.999999999999998" x="154.66666666666669" y="355.2066115702479" style="fill: rgb(255, 69, 0);"></rect><rect class="bar" height="130.5785123966942" width="13.999999999999998" x="178" y="349.42148760330576" style="fill: rgb(255, 69, 0);"></rect><rect class="bar" height="119.83471074380165" width="13.999999999999998" x="201.33333333333331" y="360.1652892561983" style="fill: rgb(255, 69, 0);"></rect><rect class="bar" height="145.45454545454547" width="13.999999999999998" x="224.66666666666669" y="334.5454545454545" style="fill: rgb(255, 69, 0);"></rect><rect class="bar" height="153.71900826446281" width="13.999999999999998" x="248" y="326.2809917355372" style="fill: rgb(255, 69, 0);"></rect><rect class="bar" height="171.07438016528926" width="13.999999999999998" x="271.3333333333333" y="308.92561983471074" style="fill: rgb(255, 69, 0);"></rect><rect class="bar" height="175.20661157024793" width="13.999999999999998" x="294.6666666666667" y="304.7933884297521" style="fill: rgb(255, 69, 0);"></rect><rect class="bar" height="169.4214876033058" width="13.999999999999998" x="318" y="310.57851239669424" style="fill: rgb(255, 69, 0);"></rect><rect class="bar" height="160.3305785123967" width="13.999999999999998" x="341.3333333333333" y="319.6694214876033" style="fill: rgb(255, 69, 0);"></rect><rect class="bar" height="116.52892561983471" width="13.999999999999998" x="364.6666666666667" y="363.4710743801653" style="fill: rgb(255, 69, 0);"></rect><rect class="bar" height="90.9090909090909" width="13.999999999999998" x="388" y="389.0909090909091" style="fill: rgb(255, 69, 0);"></rect><rect class="bar" height="80.16528925619835" width="13.999999999999998" x="411.3333333333333" y="399.8347107438017" style="fill: rgb(255, 69, 0);"></rect><rect class="bar" height="66.11570247933885" width="13.999999999999998" x="434.6666666666667" y="413.88429752066116" style="fill: rgb(255, 69, 0);"></rect><rect class="bar" height="44.62809917355372" width="13.999999999999998" x="458" y="435.3719008264463" style="fill: rgb(255, 69, 0);"></rect><rect class="bar" height="32.231404958677686" width="13.999999999999998" x="481.3333333333333" y="447.7685950413223" style="fill: rgb(255, 69, 0);"></rect></svg>