<svg xmlns="http://www.w3.org/2000/svg" id="chart" width="600" height="400"> <text x="300" y="30" style="font-family: sans-serif; font-size: 12pt; stroke: black; text-anchor: middle;">H₀: p = 0.60 , H₁: p ≠ 0.60</text><text x="300" y="60" style="font-family: sans-serif; font-size: 9pt; stroke: green; text-anchor: middle;">[TestStat] = (p̂ - p₀) / √ ( p₀(1-p₀) / n )  ~  N(0,1)</text><g transform="translate(90,270)" fill="none" font-size="10" font-family="sans-serif" text-anchor="middle"><path class="domain" stroke="#000" d="M0.5,6V0.5H420.5V6"></path><g class="tick" opacity="1" transform="translate(0.5,0)"><line stroke="#000" y2="6"></line><text fill="#000" y="9" dy="0.71em">-5</text></g><g class="tick" opacity="1" transform="translate(42.5,0)"><line stroke="#000" y2="6"></line><text fill="#000" y="9" dy="0.71em">-4</text></g><g class="tick" opacity="1" transform="translate(84.5,0)"><line stroke="#000" y2="6"></line><text fill="#000" y="9" dy="0.71em">-3</text></g><g class="tick" opacity="1" transform="translate(126.5,0)"><line stroke="#000" y2="6"></line><text fill="#000" y="9" dy="0.71em">-2</text></g><g class="tick" opacity="1" transform="translate(168.5,0)"><line stroke="#000" y2="6"></line><text fill="#000" y="9" dy="0.71em">-1</text></g><g class="tick" opacity="1" transform="translate(210.5,0)"><line stroke="#000" y2="6"></line><text fill="#000" y="9" dy="0.71em">0</text></g><g class="tick" opacity="1" transform="translate(252.5,0)"><line stroke="#000" y2="6"></line><text fill="#000" y="9" dy="0.71em">1</text></g><g class="tick" opacity="1" transform="translate(294.5,0)"><line stroke="#000" y2="6"></line><text fill="#000" y="9" dy="0.71em">2</text></g><g class="tick" opacity="1" transform="translate(336.5,0)"><line stroke="#000" y2="6"></line><text fill="#000" y="9" dy="0.71em">3</text></g><g class="tick" opacity="1" transform="translate(378.5,0)"><line stroke="#000" y2="6"></line><text fill="#000" y="9" dy="0.71em">4</text></g><g class="tick" opacity="1" transform="translate(420.5,0)"><line stroke="#000" y2="6"></line><text fill="#000" y="9" dy="0.71em">5</text></g></g><g transform="translate(90,60)" fill="none" font-size="10" font-family="sans-serif" text-anchor="end"><path class="domain" stroke="#000" d="M-6,0.5H0.5V210.5H-6"></path><g class="tick" opacity="1" transform="translate(0,13.103023372808707)"><line stroke="#000" x2="-6"></line><text fill="#000" x="-9" dy="0.32em">0.45</text></g><g class="tick" opacity="1" transform="translate(0,35.036020775829996)"><line stroke="#000" x2="-6"></line><text fill="#000" x="-9" dy="0.32em">0.40</text></g><g class="tick" opacity="1" transform="translate(0,56.96901817885126)"><line stroke="#000" x2="-6"></line><text fill="#000" x="-9" dy="0.32em">0.35</text></g><g class="tick" opacity="1" transform="translate(0,78.90201558187249)"><line stroke="#000" x2="-6"></line><text fill="#000" x="-9" dy="0.32em">0.30</text></g><g class="tick" opacity="1" transform="translate(0,100.83501298489375)"><line stroke="#000" x2="-6"></line><text fill="#000" x="-9" dy="0.32em">0.25</text></g><g class="tick" opacity="1" transform="translate(0,122.768010387915)"><line stroke="#000" x2="-6"></line><text fill="#000" x="-9" dy="0.32em">0.20</text></g><g class="tick" opacity="1" transform="translate(0,144.70100779093625)"><line stroke="#000" x2="-6"></line><text fill="#000" x="-9" dy="0.32em">0.15</text></g><g class="tick" opacity="1" transform="translate(0,166.6340051939575)"><line stroke="#000" x2="-6"></line><text fill="#000" x="-9" dy="0.32em">0.10</text></g><g class="tick" opacity="1" transform="translate(0,188.56700259697874)"><line stroke="#000" x2="-6"></line><text fill="#000" x="-9" dy="0.32em">0.05</text></g><g class="tick" opacity="1" transform="translate(0,210.5)"><line stroke="#000" x2="-6"></line><text fill="#000" x="-9" dy="0.32em">0.00</text></g></g><line x1="90" y1="269.9993478356949" x2="91" y2="269.9992655949584" stroke-width="2px" style="stroke: black;"></line><line x1="91" y1="269.9992655949584" x2="92" y2="269.99917345200714" stroke-width="2px" style="stroke: black;"></line><line x1="92" y1="269.99917345200714" x2="92.99999999999999" y2="269.9990702754415" stroke-width="2px" style="stroke: black;"></line><line x1="92.99999999999999" y1="269.9990702754415" x2="93.99999999999999" y2="269.9989548122005" stroke-width="2px" style="stroke: black;"></line><line x1="93.99999999999999" y1="269.9989548122005" x2="94.99999999999999" y2="269.9988256753923" stroke-width="2px" style="stroke: black;"></line><line x1="94.99999999999999" y1="269.9988256753923" x2="95.99999999999997" y2="269.9986813310119" stroke-width="2px" style="stroke: black;"></line><line x1="95.99999999999997" y1="269.9986813310119" x2="96.99999999999997" y2="269.9985200834555" stroke-width="2px" style="stroke: black;"></line><line x1="96.99999999999997" y1="269.9985200834555" x2="97.99999999999997" y2="269.9983400597368" stroke-width="2px" style="stroke: black;"></line><line x1="97.99999999999997" y1="269.9983400597368" x2="98.99999999999997" y2="269.99813919230024" stroke-width="2px" style="stroke: black;"></line><line x1="98.99999999999997" y1="269.99813919230024" x2="99.99999999999997" y2="269.9979152003236" stroke-width="2px" style="stroke: black;"></line><line x1="99.99999999999997" y1="269.9979152003236" x2="100.99999999999996" y2="269.9976655693923" stroke-width="2px" style="stroke: black;"></line><line x1="100.99999999999996" y1="269.9976655693923" x2="101.99999999999996" y2="269.9973875294227" stroke-width="2px" style="stroke: black;"></line><line x1="101.99999999999996" y1="269.9973875294227" x2="102.99999999999996" y2="269.9970780307017" stroke-width="2px" style="stroke: black;"></line><line x1="102.99999999999996" y1="269.9970780307017" x2="103.99999999999994" y2="269.99673371790516" stroke-width="2px" style="stroke: black;"></line><line x1="103.99999999999994" y1="269.99673371790516" x2="104.99999999999994" y2="269.9963509019465" stroke-width="2px" style="stroke: black;"></line><line x1="104.99999999999994" y1="269.9963509019465" x2="105.99999999999994" y2="269.9959255295008" stroke-width="2px" style="stroke: black;"></line><line x1="105.99999999999994" y1="269.9959255295008" x2="106.99999999999994" y2="269.995453150039" stroke-width="2px" style="stroke: black;"></line><line x1="106.99999999999994" y1="269.995453150039" x2="107.99999999999994" y2="269.9949288802" stroke-width="2px" style="stroke: black;"></line><line x1="107.99999999999994" y1="269.9949288802" x2="108.99999999999993" y2="269.9943473653185" stroke-width="2px" style="stroke: black;"></line><line x1="108.99999999999993" y1="269.9943473653185" x2="109.99999999999993" y2="269.9937027379163" stroke-width="2px" style="stroke: black;"></line><line x1="109.99999999999993" y1="269.9937027379163" x2="110.99999999999993" y2="269.9929885729562" stroke-width="2px" style="stroke: black;"></line><line x1="110.99999999999993" y1="269.9929885729562" x2="111.99999999999991" y2="269.9921978396497" stroke-width="2px" style="stroke: black;"></line><line x1="111.99999999999991" y1="269.9921978396497" x2="112.99999999999991" y2="269.99132284959563" stroke-width="2px" style="stroke: black;"></line><line x1="112.99999999999991" y1="269.99132284959563" x2="113.99999999999991" y2="269.99035520102314" stroke-width="2px" style="stroke: black;"></line><line x1="113.99999999999991" y1="269.99035520102314" x2="114.99999999999991" y2="269.9892857188971" stroke-width="2px" style="stroke: black;"></line><line x1="114.99999999999991" y1="269.9892857188971" x2="115.99999999999991" y2="269.98810439063845" stroke-width="2px" style="stroke: black;"></line><line x1="115.99999999999991" y1="269.98810439063845" x2="116.9999999999999" y2="269.9868002972008" stroke-width="2px" style="stroke: black;"></line><line x1="116.9999999999999" y1="269.9868002972008" x2="117.9999999999999" y2="269.9853615392348" stroke-width="2px" style="stroke: black;"></line><line x1="117.9999999999999" y1="269.9853615392348" x2="118.9999999999999" y2="269.983775158065" stroke-width="2px" style="stroke: black;"></line><line x1="118.9999999999999" y1="269.983775158065" x2="119.99999999999989" y2="269.98202705119155" stroke-width="2px" style="stroke: black;"></line><line x1="119.99999999999989" y1="269.98202705119155" x2="120.99999999999989" y2="269.9801018820251" stroke-width="2px" style="stroke: black;"></line><line x1="120.99999999999989" y1="269.9801018820251" x2="121.99999999999989" y2="269.97798298355127" stroke-width="2px" style="stroke: black;"></line><line x1="121.99999999999989" y1="269.97798298355127" x2="122.99999999999989" y2="269.97565225561715" stroke-width="2px" style="stroke: black;"></line><line x1="122.99999999999989" y1="269.97565225561715" x2="123.99999999999989" y2="269.9730900555235" stroke-width="2px" style="stroke: black;"></line><line x1="123.99999999999989" y1="269.9730900555235" x2="124.99999999999987" y2="269.97027508160176" stroke-width="2px" style="stroke: black;"></line><line x1="124.99999999999987" y1="269.97027508160176" x2="125.99999999999987" y2="269.9671842494494" stroke-width="2px" style="stroke: black;"></line><line x1="125.99999999999987" y1="269.9671842494494" x2="126.99999999999987" y2="269.96379256049465" stroke-width="2px" style="stroke: black;"></line><line x1="126.99999999999987" y1="269.96379256049465" x2="127.99999999999986" y2="269.9600729625569" stroke-width="2px" style="stroke: black;"></line><line x1="127.99999999999986" y1="269.9600729625569" x2="128.99999999999986" y2="269.95599620207" stroke-width="2px" style="stroke: black;"></line><line x1="128.99999999999986" y1="269.95599620207" x2="129.99999999999986" y2="269.95153066763453" stroke-width="2px" style="stroke: black;"></line><line x1="129.99999999999986" y1="269.95153066763453" x2="130.99999999999986" y2="269.9466422245668" stroke-width="2px" style="stroke: black;"></line><line x1="130.99999999999986" y1="269.9466422245668" x2="131.99999999999986" y2="269.94129404011704" stroke-width="2px" style="stroke: black;"></line><line x1="131.99999999999986" y1="269.94129404011704" x2="132.99999999999983" y2="269.93544639903337" stroke-width="2px" style="stroke: black;"></line><line x1="132.99999999999983" y1="269.93544639903337" x2="133.99999999999983" y2="269.92905650915617" stroke-width="2px" style="stroke: black;"></line><line x1="133.99999999999983" y1="269.92905650915617" x2="134.99999999999983" y2="269.92207829673765" stroke-width="2px" style="stroke: black;"></line><line x1="134.99999999999983" y1="269.92207829673765" x2="135.99999999999983" y2="269.9144621911931" stroke-width="2px" style="stroke: black;"></line><line x1="135.99999999999983" y1="269.9144621911931" x2="136.99999999999983" y2="269.9061548990051" stroke-width="2px" style="stroke: black;"></line><line x1="136.99999999999983" y1="269.9061548990051" x2="137.99999999999983" y2="269.8970991665209" stroke-width="2px" style="stroke: black;"></line><line x1="137.99999999999983" y1="269.8970991665209" x2="138.99999999999983" y2="269.8872335314005" stroke-width="2px" style="stroke: black;"></line><line x1="138.99999999999983" y1="269.8872335314005" x2="139.99999999999983" y2="269.87649206250205" stroke-width="2px" style="stroke: black;"></line><line x1="139.99999999999983" y1="269.87649206250205" x2="140.99999999999983" y2="269.8648040880122" stroke-width="2px" style="stroke: black;"></line><line x1="140.99999999999983" y1="269.8648040880122" x2="141.99999999999983" y2="269.85209391166467" stroke-width="2px" style="stroke: black;"></line><line x1="141.99999999999983" y1="269.85209391166467" x2="142.9999999999998" y2="269.8382805169213" stroke-width="2px" style="stroke: black;"></line><line x1="142.9999999999998" y1="269.8382805169213" x2="143.9999999999998" y2="269.8232772590303" stroke-width="2px" style="stroke: black;"></line><line x1="143.9999999999998" y1="269.8232772590303" x2="144.9999999999998" y2="269.8069915449162" stroke-width="2px" style="stroke: black;"></line><line x1="144.9999999999998" y1="269.8069915449162" x2="145.9999999999998" y2="269.7893245009051" stroke-width="2px" style="stroke: black;"></line><line x1="145.9999999999998" y1="269.7893245009051" x2="146.9999999999998" y2="269.77017062833687" stroke-width="2px" style="stroke: black;"></line><line x1="146.9999999999998" y1="269.77017062833687" x2="147.9999999999998" y2="269.7494174471729" stroke-width="2px" style="stroke: black;"></line><line x1="147.9999999999998" y1="269.7494174471729" x2="148.9999999999998" y2="269.7269451277665" stroke-width="2px" style="stroke: black;"></line><line x1="148.9999999999998" y1="269.7269451277665" x2="149.99999999999977" y2="269.7026261110283" stroke-width="2px" style="stroke: black;"></line><line x1="149.99999999999977" y1="269.7026261110283" x2="150.99999999999977" y2="269.6763247172872" stroke-width="2px" style="stroke: black;"></line><line x1="150.99999999999977" y1="269.6763247172872" x2="151.99999999999977" y2="269.6478967442221" stroke-width="2px" style="stroke: black;"></line><line x1="151.99999999999977" y1="269.6478967442221" x2="152.99999999999977" y2="269.617189054318" stroke-width="2px" style="stroke: black;"></line><line x1="152.99999999999977" y1="269.617189054318" x2="153.99999999999977" y2="269.5840391523829" stroke-width="2px" style="stroke: black;"></line><line x1="153.99999999999977" y1="269.5840391523829" x2="154.99999999999977" y2="269.54827475375276" stroke-width="2px" style="stroke: black;"></line><line x1="154.99999999999977" y1="269.54827475375276" x2="155.99999999999977" y2="269.5097133439015" stroke-width="2px" style="stroke: black;"></line><line x1="155.99999999999977" y1="269.5097133439015" x2="156.99999999999977" y2="269.46816173027497" stroke-width="2px" style="stroke: black;"></line><line x1="156.99999999999977" y1="269.46816173027497" x2="157.99999999999977" y2="269.42341558726645" stroke-width="2px" style="stroke: black;"></line><line x1="157.99999999999977" y1="269.42341558726645" x2="158.99999999999974" y2="269.37525899536195" stroke-width="2px" style="stroke: black;"></line><line x1="158.99999999999974" y1="269.37525899536195" x2="159.99999999999974" y2="269.3234639755923" stroke-width="2px" style="stroke: black;"></line><line x1="159.99999999999974" y1="269.3234639755923" x2="160.99999999999974" y2="269.2677900205461" stroke-width="2px" style="stroke: black;"></line><line x1="160.99999999999974" y1="269.2677900205461" x2="161.99999999999974" y2="269.20798362331584" stroke-width="2px" style="stroke: black;"></line><line x1="161.99999999999974" y1="269.20798362331584" x2="162.99999999999974" y2="269.1437778058728" stroke-width="2px" style="stroke: black;"></line><line x1="162.99999999999974" y1="269.1437778058728" x2="163.99999999999974" y2="269.07489164849176" stroke-width="2px" style="stroke: black;"></line><line x1="163.99999999999974" y1="269.07489164849176" x2="164.99999999999974" y2="269.00102982197615" stroke-width="2px" style="stroke: black;"></line><line x1="164.99999999999974" y1="269.00102982197615" x2="165.99999999999972" y2="268.92188212456267" stroke-width="2px" style="stroke: black;"></line><line x1="165.99999999999972" y1="268.92188212456267" x2="166.99999999999972" y2="268.83712302552027" stroke-width="2px" style="stroke: black;"></line><line x1="166.99999999999972" y1="268.83712302552027" x2="167.99999999999972" y2="268.7464112175892" stroke-width="2px" style="stroke: black;"></line><line x1="167.99999999999972" y1="268.7464112175892" x2="168.99999999999972" y2="268.64938918054105" stroke-width="2px" style="stroke: black;"></line><line x1="168.99999999999972" y1="268.64938918054105" x2="169.99999999999972" y2="268.5456827582763" stroke-width="2px" style="stroke: black;"></line><line x1="169.99999999999972" y1="268.5456827582763" x2="170.99999999999972" y2="268.43490075200646" stroke-width="2px" style="stroke: black;"></line><line x1="170.99999999999972" y1="268.43490075200646" x2="171.99999999999972" y2="268.3166345322014" stroke-width="2px" style="stroke: black;"></line><line x1="171.99999999999972" y1="268.3166345322014" x2="172.99999999999972" y2="268.190457672113" stroke-width="2px" style="stroke: black;"></line><line x1="172.99999999999972" y1="268.190457672113" x2="173.99999999999972" y2="268.05592560580766" stroke-width="2px" style="stroke: black;"></line><line x1="173.99999999999972" y1="268.05592560580766" x2="174.9999999999997" y2="267.9125753137685" stroke-width="2px" style="stroke: black;"></line><line x1="174.9999999999997" y1="267.9125753137685" x2="175.9999999999997" y2="267.7599250392388" stroke-width="2px" style="stroke: black;"></line><line x1="175.9999999999997" y1="267.7599250392388" x2="176.9999999999997" y2="267.59747403859194" stroke-width="2px" style="stroke: black;"></line><line x1="176.9999999999997" y1="267.59747403859194" x2="177.9999999999997" y2="267.4247023691163" stroke-width="2px" style="stroke: black;"></line><line x1="177.9999999999997" y1="267.4247023691163" x2="178.9999999999997" y2="267.24107071769686" stroke-width="2px" style="stroke: black;"></line><line x1="178.9999999999997" y1="267.24107071769686" x2="179.9999999999997" y2="267.0460202739618" stroke-width="2px" style="stroke: black;"></line><line x1="179.9999999999997" y1="267.0460202739618" x2="180.9999999999997" y2="266.83897265153837" stroke-width="2px" style="stroke: black;"></line><line x1="180.9999999999997" y1="266.83897265153837" x2="181.99999999999966" y2="266.6193298611226" stroke-width="2px" style="stroke: black;"></line><line x1="181.99999999999966" y1="266.6193298611226" x2="182.99999999999966" y2="266.3864743391219" stroke-width="2px" style="stroke: black;"></line><line x1="182.99999999999966" y1="266.3864743391219" x2="183.99999999999966" y2="266.139769035662" stroke-width="2px" style="stroke: black;"></line><line x1="183.99999999999966" y1="266.139769035662" x2="184.99999999999966" y2="265.8785575657737" stroke-width="2px" style="stroke: black;"></line><line x1="184.99999999999966" y1="265.8785575657737" x2="185.99999999999966" y2="265.60216442757707" stroke-width="2px" style="stroke: black;"></line><line x1="185.99999999999966" y1="265.60216442757707" x2="186.99999999999966" y2="265.3098952912716" stroke-width="2px" style="stroke: black;"></line><line x1="186.99999999999966" y1="265.3098952912716" x2="187.99999999999966" y2="265.0010373627038" stroke-width="2px" style="stroke: black;"></line><line x1="187.99999999999966" y1="265.0010373627038" x2="188.99999999999966" y2="264.67485982523806" stroke-width="2px" style="stroke: black;"></line><line x1="188.99999999999966" y1="264.67485982523806" x2="189.99999999999966" y2="264.3306143635797" stroke-width="2px" style="stroke: black;"></line><line x1="189.99999999999966" y1="264.3306143635797" x2="190.99999999999963" y2="263.96753577310807" stroke-width="2px" style="stroke: black;"></line><line x1="190.99999999999963" y1="263.96753577310807" x2="191.99999999999963" y2="263.584842658159" stroke-width="2px" style="stroke: black;"></line><line x1="191.99999999999963" y1="263.584842658159" x2="192.99999999999963" y2="263.1817382225548" stroke-width="2px" style="stroke: black;"></line><line x1="192.99999999999963" y1="263.1817382225548" x2="193.99999999999963" y2="262.7574111555171" stroke-width="2px" style="stroke: black;"></line><line x1="193.99999999999963" y1="262.7574111555171" x2="194.99999999999963" y2="262.31103661590384" stroke-width="2px" style="stroke: black;"></line><line x1="194.99999999999963" y1="262.31103661590384" x2="195.9999999999996" y2="261.84177731749884" stroke-width="2px" style="stroke: black;"></line><line x1="195.9999999999996" y1="261.84177731749884" x2="196.9999999999996" y2="261.3487847178369" stroke-width="2px" style="stroke: black;"></line><line x1="196.9999999999996" y1="261.3487847178369" x2="197.9999999999996" y2="260.8312003127807" stroke-width="2px" style="stroke: black;"></line><line x1="197.9999999999996" y1="260.8312003127807" x2="198.9999999999996" y2="260.2881570387665" stroke-width="2px" style="stroke: black;"></line><line x1="198.9999999999996" y1="260.2881570387665" x2="199.9999999999996" y2="259.7187807843149" stroke-width="2px" style="stroke: black;"></line><line x1="199.9999999999996" y1="259.7187807843149" x2="200.9999999999996" y2="259.122192012052" stroke-width="2px" style="stroke: black;"></line><line x1="200.9999999999996" y1="259.122192012052" x2="201.9999999999996" y2="258.49750749210745" stroke-width="2px" style="stroke: black;"></line><line x1="201.9999999999996" y1="258.49750749210745" x2="202.9999999999996" y2="257.8438421473555" stroke-width="2px" style="stroke: black;"></line><line x1="202.9999999999996" y1="257.8438421473555" x2="203.9999999999996" y2="257.1603110105333" stroke-width="2px" style="stroke: black;"></line><line x1="203.9999999999996" y1="257.1603110105333" x2="204.9999999999996" y2="256.4460312928176" stroke-width="2px" style="stroke: black;"></line><line x1="204.9999999999996" y1="256.4460312928176" x2="205.9999999999996" y2="255.7001245629631" stroke-width="2px" style="stroke: black;"></line><line x1="205.9999999999996" y1="255.7001245629631" x2="206.9999999999996" y2="254.92171903560268" stroke-width="2px" style="stroke: black;"></line><line x1="206.9999999999996" y1="254.92171903560268" x2="207.9999999999996" y2="254.10995196678806" stroke-width="2px" style="stroke: black;"></line><line x1="207.9999999999996" y1="254.10995196678806" x2="208.99999999999957" y2="253.26397215430612" stroke-width="2px" style="stroke: black;"></line><line x1="208.99999999999957" y1="253.26397215430612" x2="209.99999999999957" y2="252.38294253974328" stroke-width="2px" style="stroke: black;"></line><line x1="209.99999999999957" y1="252.38294253974328" x2="210.99999999999957" y2="251.4660429086939" stroke-width="2px" style="stroke: black;"></line><line x1="210.99999999999957" y1="251.4660429086939" x2="211.99999999999957" y2="250.51247268491497" stroke-width="2px" style="stroke: black;"></line><line x1="211.99999999999957" y1="250.51247268491497" x2="212.99999999999957" y2="249.52145381362533" stroke-width="2px" style="stroke: black;"></line><line x1="212.99999999999957" y1="249.52145381362533" x2="213.99999999999957" y2="248.4922337285342" stroke-width="2px" style="stroke: black;"></line><line x1="213.99999999999957" y1="248.4922337285342" x2="214.99999999999955" y2="247.424088396562" stroke-width="2px" style="stroke: black;"></line><line x1="214.99999999999955" y1="247.424088396562" x2="215.99999999999955" y2="246.31632543359328" stroke-width="2px" style="stroke: black;"></line><line x1="215.99999999999955" y1="246.31632543359328" x2="216.99999999999955" y2="245.1682872839747" stroke-width="2px" style="stroke: black;"></line><line x1="216.99999999999955" y1="245.1682872839747" x2="217.99999999999955" y2="243.97935445584966" stroke-width="2px" style="stroke: black;"></line><line x1="217.99999999999955" y1="243.97935445584966" x2="218.99999999999955" y2="242.7489488038023" stroke-width="2px" style="stroke: black;"></line><line x1="218.99999999999955" y1="242.7489488038023" x2="219.99999999999955" y2="241.47653684967764" stroke-width="2px" style="stroke: black;"></line><line x1="219.99999999999955" y1="241.47653684967764" x2="220.99999999999955" y2="240.16163313184774" stroke-width="2px" style="stroke: black;"></line><line x1="220.99999999999955" y1="240.16163313184774" x2="221.99999999999952" y2="238.80380357261726" stroke-width="2px" style="stroke: black;"></line><line x1="221.99999999999952" y1="238.80380357261726" x2="222.99999999999952" y2="237.40266885290302" stroke-width="2px" style="stroke: black;"></line><line x1="222.99999999999952" y1="237.40266885290302" x2="223.99999999999952" y2="235.9579077827887" stroke-width="2px" style="stroke: black;"></line><line x1="223.99999999999952" y1="235.9579077827887" x2="224.99999999999952" y2="234.46926065605157" stroke-width="2px" style="stroke: black;"></line><line x1="224.99999999999952" y1="234.46926065605157" x2="225.99999999999952" y2="232.93653257628367" stroke-width="2px" style="stroke: black;"></line><line x1="225.99999999999952" y1="232.93653257628367" x2="226.99999999999952" y2="231.35959674179446" stroke-width="2px" style="stroke: black;"></line><line x1="226.99999999999952" y1="231.35959674179446" x2="227.9999999999995" y2="229.73839767608422" stroke-width="2px" style="stroke: black;"></line><line x1="227.9999999999995" y1="229.73839767608422" x2="228.9999999999995" y2="228.07295439032407" stroke-width="2px" style="stroke: black;"></line><line x1="228.9999999999995" y1="228.07295439032407" x2="229.9999999999995" y2="226.36336346397403" stroke-width="2px" style="stroke: black;"></line><line x1="229.9999999999995" y1="226.36336346397403" x2="230.9999999999995" y2="224.60980202941505" stroke-width="2px" style="stroke: black;"></line><line x1="230.9999999999995" y1="224.60980202941505" x2="231.9999999999995" y2="222.812530646272" stroke-width="2px" style="stroke: black;"></line><line x1="231.9999999999995" y1="222.812530646272" x2="232.9999999999995" y2="220.97189605096233" stroke-width="2px" style="stroke: black;"></line><line x1="232.9999999999995" y1="220.97189605096233" x2="233.9999999999995" y2="219.08833376692505" stroke-width="2px" style="stroke: black;"></line><line x1="233.9999999999995" y1="219.08833376692505" x2="234.9999999999995" y2="217.1623705609675" stroke-width="2px" style="stroke: black;"></line><line x1="234.9999999999995" y1="217.1623705609675" x2="235.9999999999995" y2="215.19462673121785" stroke-width="2px" style="stroke: black;"></line><line x1="235.9999999999995" y1="215.19462673121785" x2="236.9999999999995" y2="213.18581821228986" stroke-width="2px" style="stroke: black;"></line><line x1="236.9999999999995" y1="213.18581821228986" x2="237.9999999999995" y2="211.13675848345656" stroke-width="2px" style="stroke: black;"></line><line x1="237.9999999999995" y1="211.13675848345656" x2="238.9999999999995" y2="209.04836026589282" stroke-width="2px" style="stroke: black;"></line><line x1="238.9999999999995" y1="209.04836026589282" x2="239.9999999999995" y2="206.92163699538247" stroke-width="2px" style="stroke: black;"></line><line x1="239.9999999999995" y1="206.92163699538247" x2="240.99999999999946" y2="204.7577040572989" stroke-width="2px" style="stroke: black;"></line><line x1="240.99999999999946" y1="204.7577040572989" x2="241.99999999999946" y2="202.55777977115537" stroke-width="2px" style="stroke: black;"></line><line x1="241.99999999999946" y1="202.55777977115537" x2="242.99999999999946" y2="200.32318611258404" stroke-width="2px" style="stroke: black;"></line><line x1="242.99999999999946" y1="200.32318611258404" x2="243.99999999999946" y2="198.05534916124344" stroke-width="2px" style="stroke: black;"></line><line x1="243.99999999999946" y1="198.05534916124344" x2="244.99999999999946" y2="195.75579926386715" stroke-width="2px" style="stroke: black;"></line><line x1="244.99999999999946" y1="195.75579926386715" x2="245.99999999999946" y2="193.4261709024542" stroke-width="2px" style="stroke: black;"></line><line x1="245.99999999999946" y1="193.4261709024542" x2="246.99999999999943" y2="191.06820225846326" stroke-width="2px" style="stroke: black;"></line><line x1="246.99999999999943" y1="191.06820225846326" x2="247.99999999999943" y2="188.68373446480086" stroke-width="2px" style="stroke: black;"></line><line x1="247.99999999999943" y1="188.68373446480086" x2="248.99999999999943" y2="186.27471053839287" stroke-width="2px" style="stroke: black;"></line><line x1="248.99999999999943" y1="186.27471053839287" x2="249.99999999999943" y2="183.84317398719048" stroke-width="2px" style="stroke: black;"></line><line x1="249.99999999999943" y1="183.84317398719048" x2="250.99999999999943" y2="181.3912670865838" stroke-width="2px" style="stroke: black;"></line><line x1="250.99999999999943" y1="181.3912670865838" x2="251.99999999999943" y2="178.92122882137858" stroke-width="2px" style="stroke: black;"></line><line x1="251.99999999999943" y1="178.92122882137858" x2="252.99999999999943" y2="176.43539249072177" stroke-width="2px" style="stroke: black;"></line><line x1="252.99999999999943" y1="176.43539249072177" x2="253.9999999999994" y2="173.9361829746445" stroke-width="2px" style="stroke: black;"></line><line x1="253.9999999999994" y1="173.9361829746445" x2="254.9999999999994" y2="171.42611366221212" stroke-width="2px" style="stroke: black;"></line><line x1="254.9999999999994" y1="171.42611366221212" x2="255.9999999999994" y2="168.90778304263299" stroke-width="2px" style="stroke: black;"></line><line x1="255.9999999999994" y1="168.90778304263299" x2="256.99999999999943" y2="166.3838709620669" stroke-width="2px" style="stroke: black;"></line><line x1="256.99999999999943" y1="166.3838709620669" x2="257.99999999999943" y2="163.85713455029065" stroke-width="2px" style="stroke: black;"></line><line x1="257.99999999999943" y1="163.85713455029065" x2="258.99999999999943" y2="161.33040382281118" stroke-width="2px" style="stroke: black;"></line><line x1="258.99999999999943" y1="161.33040382281118" x2="259.9999999999994" y2="158.8065769654609" stroke-width="2px" style="stroke: black;"></line><line x1="259.9999999999994" y1="158.8065769654609" x2="260.9999999999994" y2="156.2886153099586" stroke-width="2px" style="stroke: black;"></line><line x1="260.9999999999994" y1="156.2886153099586" x2="261.9999999999994" y2="153.77953801036261" stroke-width="2px" style="stroke: black;"></line><line x1="261.9999999999994" y1="153.77953801036261" x2="262.99999999999943" y2="151.28241643177802" stroke-width="2px" style="stroke: black;"></line><line x1="262.99999999999943" y1="151.28241643177802" x2="263.99999999999943" y2="148.80036826409187" stroke-width="2px" style="stroke: black;"></line><line x1="263.99999999999943" y1="148.80036826409187" x2="264.99999999999943" y2="146.3365513749011" stroke-width="2px" style="stroke: black;"></line><line x1="264.99999999999943" y1="146.3365513749011" x2="265.99999999999943" y2="143.89415741714927" stroke-width="2px" style="stroke: black;"></line><line x1="265.99999999999943" y1="143.89415741714927" x2="266.99999999999943" y2="141.47640520830117" stroke-width="2px" style="stroke: black;"></line><line x1="266.99999999999943" y1="141.47640520830117" x2="267.99999999999943" y2="139.08653389914662" stroke-width="2px" style="stroke: black;"></line><line x1="267.99999999999943" y1="139.08653389914662" x2="268.99999999999943" y2="136.72779595152855" stroke-width="2px" style="stroke: black;"></line><line x1="268.99999999999943" y1="136.72779595152855" x2="269.99999999999943" y2="134.40344994543273" stroke-width="2px" style="stroke: black;"></line><line x1="269.99999999999943" y1="134.40344994543273" x2="270.99999999999943" y2="132.1167532369432" stroke-width="2px" style="stroke: black;"></line><line x1="270.99999999999943" y1="132.1167532369432" x2="271.99999999999943" y2="129.8709544895599" stroke-width="2px" style="stroke: black;"></line><line x1="271.99999999999943" y1="129.8709544895599" x2="272.99999999999943" y2="127.66928610227828" stroke-width="2px" style="stroke: black;"></line><line x1="272.99999999999943" y1="127.66928610227828" x2="273.99999999999943" y2="125.51495655864665" stroke-width="2px" style="stroke: black;"></line><line x1="273.99999999999943" y1="125.51495655864665" x2="274.99999999999943" y2="123.41114272173266" stroke-width="2px" style="stroke: black;"></line><line x1="274.99999999999943" y1="123.41114272173266" x2="275.99999999999943" y2="121.3609821005465" stroke-width="2px" style="stroke: black;"></line><line x1="275.99999999999943" y1="121.3609821005465" x2="276.99999999999943" y2="119.36756511397545" stroke-width="2px" style="stroke: black;"></line><line x1="276.99999999999943" y1="119.36756511397545" x2="277.99999999999943" y2="117.43392737868169" stroke-width="2px" style="stroke: black;"></line><line x1="277.99999999999943" y1="117.43392737868169" x2="278.99999999999943" y2="115.56304204769685" stroke-width="2px" style="stroke: black;"></line><line x1="278.99999999999943" y1="115.56304204769685" x2="279.99999999999943" y2="113.75781222661024" stroke-width="2px" style="stroke: black;"></line><line x1="279.99999999999943" y1="113.75781222661024" x2="280.99999999999943" y2="112.0210634942909" stroke-width="2px" style="stroke: black;"></line><line x1="280.99999999999943" y1="112.0210634942909" x2="281.99999999999943" y2="110.3555365550055" stroke-width="2px" style="stroke: black;"></line><line x1="281.99999999999943" y1="110.3555365550055" x2="282.99999999999943" y2="108.7638800485891" stroke-width="2px" style="stroke: black;"></line><line x1="282.99999999999943" y1="108.7638800485891" x2="283.99999999999943" y2="107.24864354500247" stroke-width="2px" style="stroke: black;"></line><line x1="283.99999999999943" y1="107.24864354500247" x2="284.99999999999943" y2="105.81227074915691" stroke-width="2px" style="stroke: black;"></line><line x1="284.99999999999943" y1="105.81227074915691" x2="285.99999999999943" y2="104.4570929413168" stroke-width="2px" style="stroke: black;"></line><line x1="285.99999999999943" y1="104.4570929413168" x2="286.99999999999943" y2="103.18532267769442" stroke-width="2px" style="stroke: black;"></line><line x1="286.99999999999943" y1="103.18532267769442" x2="287.99999999999943" y2="101.99904777504207" stroke-width="2px" style="stroke: black;"></line><line x1="287.99999999999943" y1="101.99904777504207" x2="288.99999999999943" y2="100.90022560211506" stroke-width="2px" style="stroke: black;"></line><line x1="288.99999999999943" y1="100.90022560211506" x2="289.99999999999943" y2="99.89067769984413" stroke-width="2px" style="stroke: black;"></line><line x1="289.99999999999943" y1="99.89067769984413" x2="290.99999999999943" y2="98.97208475090429" stroke-width="2px" style="stroke: black;"></line><line x1="290.99999999999943" y1="98.97208475090429" x2="291.99999999999943" y2="98.14598191812215" stroke-width="2px" style="stroke: black;"></line><line x1="291.99999999999943" y1="98.14598191812215" x2="292.99999999999943" y2="97.41375456981504" stroke-width="2px" style="stroke: black;"></line><line x1="292.99999999999943" y1="97.41375456981504" x2="293.99999999999943" y2="96.77663440872192" stroke-width="2px" style="stroke: black;"></line><line x1="293.99999999999943" y1="96.77663440872192" x2="294.99999999999943" y2="96.23569601966437" stroke-width="2px" style="stroke: black;"></line><line x1="294.99999999999943" y1="96.23569601966437" x2="295.99999999999943" y2="95.7918538494826" stroke-width="2px" style="stroke: black;"></line><line x1="295.99999999999943" y1="95.7918538494826" x2="296.99999999999943" y2="95.4458596311261" stroke-width="2px" style="stroke: black;"></line><line x1="296.99999999999943" y1="95.4458596311261" x2="297.99999999999943" y2="95.1983002620558" stroke-width="2px" style="stroke: black;"></line><line x1="297.99999999999943" y1="95.1983002620558" x2="298.99999999999943" y2="95.049596145339" stroke-width="2px" style="stroke: black;"></line><line x1="298.99999999999943" y1="95.049596145339" x2="299.99999999999943" y2="95.00000000000003" stroke-width="2px" style="stroke: black;"></line><line x1="299.99999999999943" y1="95.00000000000003" x2="300.99999999999943" y2="95.04959614533891" stroke-width="2px" style="stroke: black;"></line><line x1="300.99999999999943" y1="95.04959614533891" x2="301.99999999999943" y2="95.19830026205557" stroke-width="2px" style="stroke: black;"></line><line x1="301.99999999999943" y1="95.19830026205557" x2="302.99999999999943" y2="95.44585963112576" stroke-width="2px" style="stroke: black;"></line><line x1="302.99999999999943" y1="95.44585963112576" x2="303.99999999999943" y2="95.79185384948215" stroke-width="2px" style="stroke: black;"></line><line x1="303.99999999999943" y1="95.79185384948215" x2="304.99999999999943" y2="96.23569601966383" stroke-width="2px" style="stroke: black;"></line><line x1="304.99999999999943" y1="96.23569601966383" x2="305.99999999999943" y2="96.77663440872126" stroke-width="2px" style="stroke: black;"></line><line x1="305.99999999999943" y1="96.77663440872126" x2="306.99999999999943" y2="97.41375456981427" stroke-width="2px" style="stroke: black;"></line><line x1="306.99999999999943" y1="97.41375456981427" x2="307.99999999999943" y2="98.14598191812127" stroke-width="2px" style="stroke: black;"></line><line x1="307.99999999999943" y1="98.14598191812127" x2="308.99999999999943" y2="98.97208475090332" stroke-width="2px" style="stroke: black;"></line><line x1="308.99999999999943" y1="98.97208475090332" x2="309.99999999999943" y2="99.89067769984305" stroke-width="2px" style="stroke: black;"></line><line x1="309.99999999999943" y1="99.89067769984305" x2="310.99999999999943" y2="100.90022560211386" stroke-width="2px" style="stroke: black;"></line><line x1="310.99999999999943" y1="100.90022560211386" x2="311.99999999999943" y2="101.99904777504076" stroke-width="2px" style="stroke: black;"></line><line x1="311.99999999999943" y1="101.99904777504076" x2="312.99999999999943" y2="103.18532267769305" stroke-width="2px" style="stroke: black;"></line><line x1="312.99999999999943" y1="103.18532267769305" x2="313.99999999999943" y2="104.45709294131532" stroke-width="2px" style="stroke: black;"></line><line x1="313.99999999999943" y1="104.45709294131532" x2="314.99999999999943" y2="105.81227074915535" stroke-width="2px" style="stroke: black;"></line><line x1="314.99999999999943" y1="105.81227074915535" x2="315.99999999999943" y2="107.24864354500082" stroke-width="2px" style="stroke: black;"></line><line x1="315.99999999999943" y1="107.24864354500082" x2="316.99999999999943" y2="108.76388004858734" stroke-width="2px" style="stroke: black;"></line><line x1="316.99999999999943" y1="108.76388004858734" x2="317.99999999999943" y2="110.35553655500371" stroke-width="2px" style="stroke: black;"></line><line x1="317.99999999999943" y1="110.35553655500371" x2="318.99999999999943" y2="112.021063494289" stroke-width="2px" style="stroke: black;"></line><line x1="318.99999999999943" y1="112.021063494289" x2="319.99999999999943" y2="113.75781222660822" stroke-width="2px" style="stroke: black;"></line><line x1="319.99999999999943" y1="113.75781222660822" x2="320.99999999999943" y2="115.56304204769478" stroke-width="2px" style="stroke: black;"></line><line x1="320.99999999999943" y1="115.56304204769478" x2="321.99999999999943" y2="117.43392737867956" stroke-width="2px" style="stroke: black;"></line><line x1="321.99999999999943" y1="117.43392737867956" x2="322.99999999999943" y2="119.36756511397323" stroke-width="2px" style="stroke: black;"></line><line x1="322.99999999999943" y1="119.36756511397323" x2="323.99999999999943" y2="121.36098210054419" stroke-width="2px" style="stroke: black;"></line><line x1="323.99999999999943" y1="121.36098210054419" x2="324.99999999999943" y2="123.41114272173033" stroke-width="2px" style="stroke: black;"></line><line x1="324.99999999999943" y1="123.41114272173033" x2="325.99999999999943" y2="125.51495655864423" stroke-width="2px" style="stroke: black;"></line><line x1="325.99999999999943" y1="125.51495655864423" x2="326.99999999999943" y2="127.6692861022758" stroke-width="2px" style="stroke: black;"></line><line x1="326.99999999999943" y1="127.6692861022758" x2="327.99999999999943" y2="129.8709544895574" stroke-width="2px" style="stroke: black;"></line><line x1="327.99999999999943" y1="129.8709544895574" x2="328.99999999999943" y2="132.11675323694064" stroke-width="2px" style="stroke: black;"></line><line x1="328.99999999999943" y1="132.11675323694064" x2="329.99999999999943" y2="134.4034499454301" stroke-width="2px" style="stroke: black;"></line><line x1="329.99999999999943" y1="134.4034499454301" x2="330.99999999999943" y2="136.72779595152593" stroke-width="2px" style="stroke: black;"></line><line x1="330.99999999999943" y1="136.72779595152593" x2="331.99999999999943" y2="139.08653389914397" stroke-width="2px" style="stroke: black;"></line><line x1="331.99999999999943" y1="139.08653389914397" x2="332.99999999999943" y2="141.47640520829847" stroke-width="2px" style="stroke: black;"></line><line x1="332.99999999999943" y1="141.47640520829847" x2="333.99999999999943" y2="143.89415741714652" stroke-width="2px" style="stroke: black;"></line><line x1="333.99999999999943" y1="143.89415741714652" x2="334.99999999999943" y2="146.33655137489833" stroke-width="2px" style="stroke: black;"></line><line x1="334.99999999999943" y1="146.33655137489833" x2="335.99999999999943" y2="148.80036826408906" stroke-width="2px" style="stroke: black;"></line><line x1="335.99999999999943" y1="148.80036826408906" x2="336.99999999999943" y2="151.28241643177523" stroke-width="2px" style="stroke: black;"></line><line x1="336.99999999999943" y1="151.28241643177523" x2="337.99999999999943" y2="153.7795380103598" stroke-width="2px" style="stroke: black;"></line><line x1="337.99999999999943" y1="153.7795380103598" x2="338.99999999999943" y2="156.28861530995576" stroke-width="2px" style="stroke: black;"></line><line x1="338.99999999999943" y1="156.28861530995576" x2="339.9999999999995" y2="158.80657696545808" stroke-width="2px" style="stroke: black;"></line><line x1="339.9999999999995" y1="158.80657696545808" x2="340.9999999999995" y2="161.3304038228083" stroke-width="2px" style="stroke: black;"></line><line x1="340.9999999999995" y1="161.3304038228083" x2="341.9999999999995" y2="163.8571345502878" stroke-width="2px" style="stroke: black;"></line><line x1="341.9999999999995" y1="163.8571345502878" x2="342.99999999999943" y2="166.38387096206404" stroke-width="2px" style="stroke: black;"></line><line x1="342.99999999999943" y1="166.38387096206404" x2="343.99999999999943" y2="168.90778304263014" stroke-width="2px" style="stroke: black;"></line><line x1="343.99999999999943" y1="168.90778304263014" x2="344.99999999999943" y2="171.42611366220927" stroke-width="2px" style="stroke: black;"></line><line x1="344.99999999999943" y1="171.42611366220927" x2="345.99999999999943" y2="173.93618297464167" stroke-width="2px" style="stroke: black;"></line><line x1="345.99999999999943" y1="173.93618297464167" x2="346.99999999999943" y2="176.43539249071895" stroke-width="2px" style="stroke: black;"></line><line x1="346.99999999999943" y1="176.43539249071895" x2="347.99999999999943" y2="178.92122882137573" stroke-width="2px" style="stroke: black;"></line><line x1="347.99999999999943" y1="178.92122882137573" x2="348.99999999999943" y2="181.39126708658102" stroke-width="2px" style="stroke: black;"></line><line x1="348.99999999999943" y1="181.39126708658102" x2="349.99999999999943" y2="183.84317398718773" stroke-width="2px" style="stroke: black;"></line><line x1="349.99999999999943" y1="183.84317398718773" x2="350.99999999999943" y2="186.27471053839014" stroke-width="2px" style="stroke: black;"></line><line x1="350.99999999999943" y1="186.27471053839014" x2="351.99999999999943" y2="188.68373446479814" stroke-width="2px" style="stroke: black;"></line><line x1="351.99999999999943" y1="188.68373446479814" x2="352.99999999999943" y2="191.06820225846056" stroke-width="2px" style="stroke: black;"></line><line x1="352.99999999999943" y1="191.06820225846056" x2="353.99999999999943" y2="193.42617090245153" stroke-width="2px" style="stroke: black;"></line><line x1="353.99999999999943" y1="193.42617090245153" x2="354.99999999999943" y2="195.75579926386453" stroke-width="2px" style="stroke: black;"></line><line x1="354.99999999999943" y1="195.75579926386453" x2="355.99999999999943" y2="198.05534916124088" stroke-width="2px" style="stroke: black;"></line><line x1="355.99999999999943" y1="198.05534916124088" x2="356.99999999999943" y2="200.32318611258148" stroke-width="2px" style="stroke: black;"></line><line x1="356.99999999999943" y1="200.32318611258148" x2="357.99999999999943" y2="202.55777977115287" stroke-width="2px" style="stroke: black;"></line><line x1="357.99999999999943" y1="202.55777977115287" x2="358.99999999999943" y2="204.75770405729645" stroke-width="2px" style="stroke: black;"></line><line x1="358.99999999999943" y1="204.75770405729645" x2="359.99999999999943" y2="206.92163699538003" stroke-width="2px" style="stroke: black;"></line><line x1="359.99999999999943" y1="206.92163699538003" x2="360.99999999999943" y2="209.04836026589047" stroke-width="2px" style="stroke: black;"></line><line x1="360.99999999999943" y1="209.04836026589047" x2="361.99999999999943" y2="211.13675848345423" stroke-width="2px" style="stroke: black;"></line><line x1="361.99999999999943" y1="211.13675848345423" x2="362.99999999999943" y2="213.18581821228756" stroke-width="2px" style="stroke: black;"></line><line x1="362.99999999999943" y1="213.18581821228756" x2="363.99999999999943" y2="215.19462673121564" stroke-width="2px" style="stroke: black;"></line><line x1="363.99999999999943" y1="215.19462673121564" x2="364.99999999999943" y2="217.16237056096531" stroke-width="2px" style="stroke: black;"></line><line x1="364.99999999999943" y1="217.16237056096531" x2="365.99999999999943" y2="219.0883337669229" stroke-width="2px" style="stroke: black;"></line><line x1="365.99999999999943" y1="219.0883337669229" x2="366.99999999999943" y2="220.97189605096025" stroke-width="2px" style="stroke: black;"></line><line x1="366.99999999999943" y1="220.97189605096025" x2="367.9999999999994" y2="222.81253064626995" stroke-width="2px" style="stroke: black;"></line><line x1="367.9999999999994" y1="222.81253064626995" x2="368.9999999999994" y2="224.60980202941306" stroke-width="2px" style="stroke: black;"></line><line x1="368.9999999999994" y1="224.60980202941306" x2="369.9999999999994" y2="226.36336346397206" stroke-width="2px" style="stroke: black;"></line><line x1="369.9999999999994" y1="226.36336346397206" x2="370.9999999999994" y2="228.07295439032217" stroke-width="2px" style="stroke: black;"></line><line x1="370.9999999999994" y1="228.07295439032217" x2="371.9999999999994" y2="229.73839767608234" stroke-width="2px" style="stroke: black;"></line><line x1="371.9999999999994" y1="229.73839767608234" x2="372.9999999999994" y2="231.35959674179264" stroke-width="2px" style="stroke: black;"></line><line x1="372.9999999999994" y1="231.35959674179264" x2="373.9999999999994" y2="232.9365325762819" stroke-width="2px" style="stroke: black;"></line><line x1="373.9999999999994" y1="232.9365325762819" x2="374.9999999999994" y2="234.46926065604987" stroke-width="2px" style="stroke: black;"></line><line x1="374.9999999999994" y1="234.46926065604987" x2="375.9999999999994" y2="235.95790778278706" stroke-width="2px" style="stroke: black;"></line><line x1="375.9999999999994" y1="235.95790778278706" x2="376.9999999999994" y2="237.4026688529014" stroke-width="2px" style="stroke: black;"></line><line x1="376.9999999999994" y1="237.4026688529014" x2="377.9999999999994" y2="238.80380357261572" stroke-width="2px" style="stroke: black;"></line><line x1="377.9999999999994" y1="238.80380357261572" x2="378.9999999999994" y2="240.16163313184623" stroke-width="2px" style="stroke: black;"></line><line x1="378.9999999999994" y1="240.16163313184623" x2="379.9999999999994" y2="241.4765368496762" stroke-width="2px" style="stroke: black;"></line><line x1="379.9999999999994" y1="241.4765368496762" x2="380.9999999999993" y2="242.74894880380091" stroke-width="2px" style="stroke: black;"></line><line x1="380.9999999999993" y1="242.74894880380091" x2="381.9999999999993" y2="243.9793544558483" stroke-width="2px" style="stroke: black;"></line><line x1="381.9999999999993" y1="243.9793544558483" x2="382.9999999999993" y2="245.1682872839734" stroke-width="2px" style="stroke: black;"></line><line x1="382.9999999999993" y1="245.1682872839734" x2="383.9999999999993" y2="246.316325433592" stroke-width="2px" style="stroke: black;"></line><line x1="383.9999999999993" y1="246.316325433592" x2="384.9999999999993" y2="247.4240883965608" stroke-width="2px" style="stroke: black;"></line><line x1="384.9999999999993" y1="247.4240883965608" x2="385.9999999999993" y2="248.49223372853302" stroke-width="2px" style="stroke: black;"></line><line x1="385.9999999999993" y1="248.49223372853302" x2="386.9999999999993" y2="249.52145381362422" stroke-width="2px" style="stroke: black;"></line><line x1="386.9999999999993" y1="249.52145381362422" x2="387.9999999999993" y2="250.5124726849139" stroke-width="2px" style="stroke: black;"></line><line x1="387.9999999999993" y1="250.5124726849139" x2="388.9999999999993" y2="251.46604290869286" stroke-width="2px" style="stroke: black;"></line><line x1="388.9999999999993" y1="251.46604290869286" x2="389.9999999999993" y2="252.38294253974226" stroke-width="2px" style="stroke: black;"></line><line x1="389.9999999999993" y1="252.38294253974226" x2="390.9999999999993" y2="253.26397215430515" stroke-width="2px" style="stroke: black;"></line><line x1="390.9999999999993" y1="253.26397215430515" x2="391.9999999999993" y2="254.10995196678712" stroke-width="2px" style="stroke: black;"></line><line x1="391.9999999999993" y1="254.10995196678712" x2="392.9999999999993" y2="254.92171903560177" stroke-width="2px" style="stroke: black;"></line><line x1="392.9999999999993" y1="254.92171903560177" x2="393.99999999999926" y2="255.70012456296226" stroke-width="2px" style="stroke: black;"></line><line x1="393.99999999999926" y1="255.70012456296226" x2="394.99999999999926" y2="256.44603129281677" stroke-width="2px" style="stroke: black;"></line><line x1="394.99999999999926" y1="256.44603129281677" x2="395.99999999999926" y2="257.1603110105325" stroke-width="2px" style="stroke: black;"></line><line x1="395.99999999999926" y1="257.1603110105325" x2="396.99999999999926" y2="257.84384214735474" stroke-width="2px" style="stroke: black;"></line><line x1="396.99999999999926" y1="257.84384214735474" x2="397.99999999999926" y2="258.4975074921067" stroke-width="2px" style="stroke: black;"></line><line x1="397.99999999999926" y1="258.4975074921067" x2="398.99999999999926" y2="259.1221920120513" stroke-width="2px" style="stroke: black;"></line><line x1="398.99999999999926" y1="259.1221920120513" x2="399.99999999999926" y2="259.7187807843142" stroke-width="2px" style="stroke: black;"></line><line x1="399.99999999999926" y1="259.7187807843142" x2="400.99999999999926" y2="260.28815703876586" stroke-width="2px" style="stroke: black;"></line><line x1="400.99999999999926" y1="260.28815703876586" x2="401.99999999999926" y2="260.83120031278014" stroke-width="2px" style="stroke: black;"></line><line x1="401.99999999999926" y1="260.83120031278014" x2="402.99999999999926" y2="261.34878471783634" stroke-width="2px" style="stroke: black;"></line><line x1="402.99999999999926" y1="261.34878471783634" x2="403.99999999999926" y2="261.84177731749827" stroke-width="2px" style="stroke: black;"></line><line x1="403.99999999999926" y1="261.84177731749827" x2="404.99999999999926" y2="262.31103661590333" stroke-width="2px" style="stroke: black;"></line><line x1="404.99999999999926" y1="262.31103661590333" x2="405.99999999999926" y2="262.75741115551665" stroke-width="2px" style="stroke: black;"></line><line x1="405.99999999999926" y1="262.75741115551665" x2="406.9999999999992" y2="263.1817382225544" stroke-width="2px" style="stroke: black;"></line><line x1="406.9999999999992" y1="263.1817382225544" x2="407.9999999999992" y2="263.58484265815855" stroke-width="2px" style="stroke: black;"></line><line x1="407.9999999999992" y1="263.58484265815855" x2="408.9999999999992" y2="263.96753577310767" stroke-width="2px" style="stroke: black;"></line><line x1="408.9999999999992" y1="263.96753577310767" x2="409.9999999999992" y2="264.3306143635793" stroke-width="2px" style="stroke: black;"></line><line x1="409.9999999999992" y1="264.3306143635793" x2="410.9999999999992" y2="264.67485982523766" stroke-width="2px" style="stroke: black;"></line><line x1="410.9999999999992" y1="264.67485982523766" x2="411.9999999999992" y2="265.0010373627034" stroke-width="2px" style="stroke: black;"></line><line x1="411.9999999999992" y1="265.0010373627034" x2="412.9999999999992" y2="265.30989529127123" stroke-width="2px" style="stroke: black;"></line><line x1="412.9999999999992" y1="265.30989529127123" x2="413.9999999999992" y2="265.6021644275768" stroke-width="2px" style="stroke: black;"></line><line x1="413.9999999999992" y1="265.6021644275768" x2="414.9999999999992" y2="265.87855756577335" stroke-width="2px" style="stroke: black;"></line><line x1="414.9999999999992" y1="265.87855756577335" x2="415.9999999999992" y2="266.13976903566174" stroke-width="2px" style="stroke: black;"></line><line x1="415.9999999999992" y1="266.13976903566174" x2="416.9999999999992" y2="266.3864743391216" stroke-width="2px" style="stroke: black;"></line><line x1="416.9999999999992" y1="266.3864743391216" x2="417.9999999999992" y2="266.6193298611223" stroke-width="2px" style="stroke: black;"></line><line x1="417.9999999999992" y1="266.6193298611223" x2="418.9999999999992" y2="266.8389726515381" stroke-width="2px" style="stroke: black;"></line><line x1="418.9999999999992" y1="266.8389726515381" x2="419.9999999999992" y2="267.04602027396163" stroke-width="2px" style="stroke: black;"></line><line x1="419.9999999999992" y1="267.04602027396163" x2="420.9999999999992" y2="267.24107071769663" stroke-width="2px" style="stroke: black;"></line><line x1="420.9999999999992" y1="267.24107071769663" x2="421.9999999999992" y2="267.4247023691161" stroke-width="2px" style="stroke: black;"></line><line x1="421.9999999999992" y1="267.4247023691161" x2="422.9999999999992" y2="267.5974740385917" stroke-width="2px" style="stroke: black;"></line><line x1="422.9999999999992" y1="267.5974740385917" x2="423.9999999999992" y2="267.7599250392386" stroke-width="2px" style="stroke: black;"></line><line x1="423.9999999999992" y1="267.7599250392386" x2="424.9999999999992" y2="267.91257531376834" stroke-width="2px" style="stroke: black;"></line><line x1="424.9999999999992" y1="267.91257531376834" x2="425.9999999999992" y2="268.0559256058075" stroke-width="2px" style="stroke: black;"></line><line x1="425.9999999999992" y1="268.0559256058075" x2="426.9999999999992" y2="268.1904576721128" stroke-width="2px" style="stroke: black;"></line><line x1="426.9999999999992" y1="268.1904576721128" x2="427.9999999999992" y2="268.3166345322013" stroke-width="2px" style="stroke: black;"></line><line x1="427.9999999999992" y1="268.3166345322013" x2="428.9999999999992" y2="268.4349007520063" stroke-width="2px" style="stroke: black;"></line><line x1="428.9999999999992" y1="268.4349007520063" x2="429.9999999999992" y2="268.5456827582762" stroke-width="2px" style="stroke: black;"></line><line x1="429.9999999999992" y1="268.5456827582762" x2="430.9999999999992" y2="268.64938918054094" stroke-width="2px" style="stroke: black;"></line><line x1="430.9999999999992" y1="268.64938918054094" x2="431.99999999999915" y2="268.74641121758907" stroke-width="2px" style="stroke: black;"></line><line x1="431.99999999999915" y1="268.74641121758907" x2="432.99999999999915" y2="268.83712302552016" stroke-width="2px" style="stroke: black;"></line><line x1="432.99999999999915" y1="268.83712302552016" x2="433.99999999999915" y2="268.92188212456256" stroke-width="2px" style="stroke: black;"></line><line x1="433.99999999999915" y1="268.92188212456256" x2="434.99999999999915" y2="269.00102982197603" stroke-width="2px" style="stroke: black;"></line><line x1="434.99999999999915" y1="269.00102982197603" x2="435.99999999999915" y2="269.0748916484917" stroke-width="2px" style="stroke: black;"></line><line x1="435.99999999999915" y1="269.0748916484917" x2="436.99999999999915" y2="269.1437778058727" stroke-width="2px" style="stroke: black;"></line><line x1="436.99999999999915" y1="269.1437778058727" x2="437.99999999999915" y2="269.2079836233158" stroke-width="2px" style="stroke: black;"></line><line x1="437.99999999999915" y1="269.2079836233158" x2="438.99999999999915" y2="269.26779002054604" stroke-width="2px" style="stroke: black;"></line><line x1="438.99999999999915" y1="269.26779002054604" x2="439.99999999999915" y2="269.32346397559223" stroke-width="2px" style="stroke: black;"></line><line x1="439.99999999999915" y1="269.32346397559223" x2="440.99999999999915" y2="269.3752589953619" stroke-width="2px" style="stroke: black;"></line><line x1="440.99999999999915" y1="269.3752589953619" x2="441.99999999999915" y2="269.4234155872664" stroke-width="2px" style="stroke: black;"></line><line x1="441.99999999999915" y1="269.4234155872664" x2="442.99999999999915" y2="269.46816173027497" stroke-width="2px" style="stroke: black;"></line><line x1="442.99999999999915" y1="269.46816173027497" x2="443.99999999999915" y2="269.50971334390147" stroke-width="2px" style="stroke: black;"></line><line x1="443.99999999999915" y1="269.50971334390147" x2="444.9999999999991" y2="269.5482747537527" stroke-width="2px" style="stroke: black;"></line><line x1="444.9999999999991" y1="269.5482747537527" x2="445.9999999999991" y2="269.5840391523829" stroke-width="2px" style="stroke: black;"></line><line x1="445.9999999999991" y1="269.5840391523829" x2="446.9999999999991" y2="269.617189054318" stroke-width="2px" style="stroke: black;"></line><line x1="446.9999999999991" y1="269.617189054318" x2="447.9999999999991" y2="269.6478967442221" stroke-width="2px" style="stroke: black;"></line><line x1="447.9999999999991" y1="269.6478967442221" x2="448.9999999999991" y2="269.6763247172872" stroke-width="2px" style="stroke: black;"></line><line x1="448.9999999999991" y1="269.6763247172872" x2="449.9999999999991" y2="269.7026261110283" stroke-width="2px" style="stroke: black;"></line><line x1="449.9999999999991" y1="269.7026261110283" x2="450.9999999999991" y2="269.7269451277665" stroke-width="2px" style="stroke: black;"></line><line x1="450.9999999999991" y1="269.7269451277665" x2="451.9999999999991" y2="269.7494174471729" stroke-width="2px" style="stroke: black;"></line><line x1="451.9999999999991" y1="269.7494174471729" x2="452.9999999999991" y2="269.7701706283368" stroke-width="2px" style="stroke: black;"></line><line x1="452.9999999999991" y1="269.7701706283368" x2="453.9999999999991" y2="269.789324500905" stroke-width="2px" style="stroke: black;"></line><line x1="453.9999999999991" y1="269.789324500905" x2="454.9999999999991" y2="269.8069915449162" stroke-width="2px" style="stroke: black;"></line><line x1="454.9999999999991" y1="269.8069915449162" x2="455.9999999999991" y2="269.82327725903025" stroke-width="2px" style="stroke: black;"></line><line x1="455.9999999999991" y1="269.82327725903025" x2="456.9999999999991" y2="269.8382805169213" stroke-width="2px" style="stroke: black;"></line><line x1="456.9999999999991" y1="269.8382805169213" x2="457.99999999999903" y2="269.85209391166467" stroke-width="2px" style="stroke: black;"></line><line x1="457.99999999999903" y1="269.85209391166467" x2="458.99999999999903" y2="269.8648040880122" stroke-width="2px" style="stroke: black;"></line><line x1="458.99999999999903" y1="269.8648040880122" x2="459.99999999999903" y2="269.87649206250205" stroke-width="2px" style="stroke: black;"></line><line x1="459.99999999999903" y1="269.87649206250205" x2="460.99999999999903" y2="269.8872335314005" stroke-width="2px" style="stroke: black;"></line><line x1="460.99999999999903" y1="269.8872335314005" x2="461.99999999999903" y2="269.8970991665209" stroke-width="2px" style="stroke: black;"></line><line x1="461.99999999999903" y1="269.8970991665209" x2="462.99999999999903" y2="269.9061548990051" stroke-width="2px" style="stroke: black;"></line><line x1="462.99999999999903" y1="269.9061548990051" x2="463.99999999999903" y2="269.9144621911931" stroke-width="2px" style="stroke: black;"></line><line x1="463.99999999999903" y1="269.9144621911931" x2="464.99999999999903" y2="269.92207829673765" stroke-width="2px" style="stroke: black;"></line><line x1="464.99999999999903" y1="269.92207829673765" x2="465.99999999999903" y2="269.92905650915617" stroke-width="2px" style="stroke: black;"></line><line x1="465.99999999999903" y1="269.92905650915617" x2="466.99999999999903" y2="269.93544639903337" stroke-width="2px" style="stroke: black;"></line><line x1="466.99999999999903" y1="269.93544639903337" x2="467.99999999999903" y2="269.94129404011704" stroke-width="2px" style="stroke: black;"></line><line x1="467.99999999999903" y1="269.94129404011704" x2="468.99999999999903" y2="269.9466422245668" stroke-width="2px" style="stroke: black;"></line><line x1="468.99999999999903" y1="269.9466422245668" x2="469.99999999999903" y2="269.95153066763453" stroke-width="2px" style="stroke: black;"></line><line x1="469.99999999999903" y1="269.95153066763453" x2="470.999999999999" y2="269.95599620207" stroke-width="2px" style="stroke: black;"></line><line x1="470.999999999999" y1="269.95599620207" x2="471.999999999999" y2="269.9600729625569" stroke-width="2px" style="stroke: black;"></line><line x1="471.999999999999" y1="269.9600729625569" x2="472.999999999999" y2="269.96379256049465" stroke-width="2px" style="stroke: black;"></line><line x1="472.999999999999" y1="269.96379256049465" x2="473.999999999999" y2="269.9671842494494" stroke-width="2px" style="stroke: black;"></line><line x1="473.999999999999" y1="269.9671842494494" x2="474.999999999999" y2="269.97027508160176" stroke-width="2px" style="stroke: black;"></line><line x1="474.999999999999" y1="269.97027508160176" x2="475.999999999999" y2="269.9730900555235" stroke-width="2px" style="stroke: black;"></line><line x1="475.999999999999" y1="269.9730900555235" x2="476.999999999999" y2="269.97565225561715" stroke-width="2px" style="stroke: black;"></line><line x1="476.999999999999" y1="269.97565225561715" x2="477.999999999999" y2="269.97798298355127" stroke-width="2px" style="stroke: black;"></line><line x1="477.999999999999" y1="269.97798298355127" x2="478.999999999999" y2="269.9801018820251" stroke-width="2px" style="stroke: black;"></line><line x1="478.999999999999" y1="269.9801018820251" x2="479.999999999999" y2="269.98202705119155" stroke-width="2px" style="stroke: black;"></line><line x1="479.999999999999" y1="269.98202705119155" x2="480.999999999999" y2="269.983775158065" stroke-width="2px" style="stroke: black;"></line><line x1="480.999999999999" y1="269.983775158065" x2="481.999999999999" y2="269.9853615392348" stroke-width="2px" style="stroke: black;"></line><line x1="481.999999999999" y1="269.9853615392348" x2="482.999999999999" y2="269.9868002972008" stroke-width="2px" style="stroke: black;"></line><line x1="482.999999999999" y1="269.9868002972008" x2="483.999999999999" y2="269.98810439063845" stroke-width="2px" style="stroke: black;"></line><line x1="483.999999999999" y1="269.98810439063845" x2="484.999999999999" y2="269.9892857188971" stroke-width="2px" style="stroke: black;"></line><line x1="484.999999999999" y1="269.9892857188971" x2="485.999999999999" y2="269.99035520102314" stroke-width="2px" style="stroke: black;"></line><line x1="485.999999999999" y1="269.99035520102314" x2="486.999999999999" y2="269.99132284959563" stroke-width="2px" style="stroke: black;"></line><line x1="486.999999999999" y1="269.99132284959563" x2="487.999999999999" y2="269.9921978396497" stroke-width="2px" style="stroke: black;"></line><line x1="487.999999999999" y1="269.9921978396497" x2="488.999999999999" y2="269.9929885729562" stroke-width="2px" style="stroke: black;"></line><line x1="488.999999999999" y1="269.9929885729562" x2="489.999999999999" y2="269.9937027379163" stroke-width="2px" style="stroke: black;"></line><line x1="489.999999999999" y1="269.9937027379163" x2="490.999999999999" y2="269.9943473653185" stroke-width="2px" style="stroke: black;"></line><line x1="490.999999999999" y1="269.9943473653185" x2="491.999999999999" y2="269.9949288802" stroke-width="2px" style="stroke: black;"></line><line x1="491.999999999999" y1="269.9949288802" x2="492.999999999999" y2="269.995453150039" stroke-width="2px" style="stroke: black;"></line><line x1="492.999999999999" y1="269.995453150039" x2="493.999999999999" y2="269.9959255295008" stroke-width="2px" style="stroke: black;"></line><line x1="493.999999999999" y1="269.9959255295008" x2="494.999999999999" y2="269.9963509019465" stroke-width="2px" style="stroke: black;"></line><line x1="494.999999999999" y1="269.9963509019465" x2="495.9999999999989" y2="269.99673371790516" stroke-width="2px" style="stroke: black;"></line><line x1="495.9999999999989" y1="269.99673371790516" x2="496.9999999999989" y2="269.9970780307017" stroke-width="2px" style="stroke: black;"></line><line x1="496.9999999999989" y1="269.9970780307017" x2="497.9999999999989" y2="269.9973875294227" stroke-width="2px" style="stroke: black;"></line><line x1="497.9999999999989" y1="269.9973875294227" x2="498.9999999999989" y2="269.9976655693923" stroke-width="2px" style="stroke: black;"></line><line x1="498.9999999999989" y1="269.9976655693923" x2="499.9999999999989" y2="269.9979152003236" stroke-width="2px" style="stroke: black;"></line><line x1="499.9999999999989" y1="269.9979152003236" x2="500.9999999999989" y2="269.99813919230024" stroke-width="2px" style="stroke: black;"></line><line x1="500.9999999999989" y1="269.99813919230024" x2="501.9999999999989" y2="269.9983400597368" stroke-width="2px" style="stroke: black;"></line><line x1="501.9999999999989" y1="269.9983400597368" x2="502.9999999999989" y2="269.9985200834555" stroke-width="2px" style="stroke: black;"></line><line x1="502.9999999999989" y1="269.9985200834555" x2="503.9999999999989" y2="269.9986813310119" stroke-width="2px" style="stroke: black;"></line><line x1="503.9999999999989" y1="269.9986813310119" x2="504.9999999999989" y2="269.9988256753923" stroke-width="2px" style="stroke: black;"></line><line x1="504.9999999999989" y1="269.9988256753923" x2="505.9999999999989" y2="269.9989548122005" stroke-width="2px" style="stroke: black;"></line><line x1="505.9999999999989" y1="269.9989548122005" x2="506.9999999999989" y2="269.9990702754415" stroke-width="2px" style="stroke: black;"></line><line x1="506.9999999999989" y1="269.9990702754415" x2="507.9999999999989" y2="269.99917345200714" stroke-width="2px" style="stroke: black;"></line><line x1="507.9999999999989" y1="269.99917345200714" x2="508.9999999999989" y2="269.9992655949584" stroke-width="2px" style="stroke: black;"></line><line x1="508.9999999999989" y1="269.9992655949584" x2="509.9999999999989" y2="269.9993478356949" stroke-width="2px" style="stroke: black;"></line><line x1="217.68151264931774" y1="270" x2="217.68151264931774" y2="245.36248871493524" stroke-width="2px" style="stroke: rgb(0, 85, 255);"></line><line x1="218.68151264931774" y1="270" x2="218.68151264931774" y2="244.1453517266891" stroke-width="2px" style="stroke: rgb(0, 85, 255);"></line><line x1="219.68151264931774" y1="270" x2="219.68151264931774" y2="242.88637329155227" stroke-width="2px" style="stroke: rgb(0, 85, 255);"></line><line x1="220.6815126493177" y1="270" x2="220.6815126493177" y2="241.58505229043968" stroke-width="2px" style="stroke: rgb(0, 85, 255);"></line><line x1="221.6815126493177" y1="270" x2="221.6815126493177" y2="240.2409379144043" stroke-width="2px" style="stroke: rgb(0, 85, 255);"></line><line x1="222.6815126493177" y1="270" x2="222.6815126493177" y2="238.85363303821194" stroke-width="2px" style="stroke: rgb(0, 85, 255);"></line><line x1="223.6815126493177" y1="270" x2="223.6815126493177" y2="237.42279759347832" stroke-width="2px" style="stroke: rgb(0, 85, 255);"></line><line x1="224.6815126493177" y1="270" x2="224.6815126493177" y2="235.94815192962153" stroke-width="2px" style="stroke: rgb(0, 85, 255);"></line><line x1="225.6815126493177" y1="270" x2="225.6815126493177" y2="234.4294801504008" stroke-width="2px" style="stroke: rgb(0, 85, 255);"></line><line x1="226.68151264931768" y1="270" x2="226.68151264931768" y2="232.86663341336225" stroke-width="2px" style="stroke: rgb(0, 85, 255);"></line><line x1="227.68151264931768" y1="270" x2="227.68151264931768" y2="231.25953317910344" stroke-width="2px" style="stroke: rgb(0, 85, 255);"></line><line x1="228.68151264931768" y1="270" x2="228.68151264931768" y2="229.60817439689998" stroke-width="2px" style="stroke: rgb(0, 85, 255);"></line><line x1="229.68151264931768" y1="270" x2="229.68151264931768" y2="227.91262861291733" stroke-width="2px" style="stroke: rgb(0, 85, 255);"></line><line x1="230.68151264931768" y1="270" x2="230.68151264931768" y2="226.1730469869593" stroke-width="2px" style="stroke: rgb(0, 85, 255);"></line><line x1="231.68151264931768" y1="270" x2="231.68151264931768" y2="224.38966320348717" stroke-width="2px" style="stroke: rgb(0, 85, 255);"></line><line x1="232.68151264931768" y1="270" x2="232.68151264931768" y2="222.56279626248363" stroke-width="2px" style="stroke: rgb(0, 85, 255);"></line><line x1="233.68151264931765" y1="270" x2="233.68151264931765" y2="220.69285313563404" stroke-width="2px" style="stroke: rgb(0, 85, 255);"></line><line x1="234.68151264931765" y1="270" x2="234.68151264931765" y2="218.78033127326154" stroke-width="2px" style="stroke: rgb(0, 85, 255);"></line><line x1="235.68151264931765" y1="270" x2="235.68151264931765" y2="216.82582094748017" stroke-width="2px" style="stroke: rgb(0, 85, 255);"></line><line x1="236.68151264931765" y1="270" x2="236.68151264931765" y2="214.83000741712695" stroke-width="2px" style="stroke: rgb(0, 85, 255);"></line><line x1="237.68151264931765" y1="270" x2="237.68151264931765" y2="212.793672900202" stroke-width="2px" style="stroke: rgb(0, 85, 255);"></line><line x1="238.68151264931765" y1="270" x2="238.68151264931765" y2="210.7176983397836" stroke-width="2px" style="stroke: rgb(0, 85, 255);"></line><line x1="239.68151264931765" y1="270" x2="239.68151264931765" y2="208.6030649496999" stroke-width="2px" style="stroke: rgb(0, 85, 255);"></line><line x1="240.68151264931765" y1="270" x2="240.68151264931765" y2="206.4508555266261" stroke-width="2px" style="stroke: rgb(0, 85, 255);"></line><line x1="241.68151264931765" y1="270" x2="241.68151264931765" y2="204.26225551573924" stroke-width="2px" style="stroke: rgb(0, 85, 255);"></line><line x1="242.68151264931765" y1="270" x2="242.68151264931765" y2="202.03855381760332" stroke-width="2px" style="stroke: rgb(0, 85, 255);"></line><line x1="243.68151264931765" y1="270" x2="243.68151264931765" y2="199.78114332457125" stroke-width="2px" style="stroke: rgb(0, 85, 255);"></line><line x1="244.68151264931765" y1="270" x2="244.68151264931765" y2="197.49152117568144" stroke-width="2px" style="stroke: rgb(0, 85, 255);"></line><line x1="245.68151264931763" y1="270" x2="245.68151264931763" y2="195.1712887197915" stroke-width="2px" style="stroke: rgb(0, 85, 255);"></line><line x1="246.68151264931763" y1="270" x2="246.68151264931763" y2="192.8221511775277" stroke-width="2px" style="stroke: rgb(0, 85, 255);"></line><line x1="247.68151264931763" y1="270" x2="247.68151264931763" y2="190.44591699353836" stroke-width="2px" style="stroke: rgb(0, 85, 255);"></line><line x1="248.68151264931763" y1="270" x2="248.68151264931763" y2="188.04449687151492" stroke-width="2px" style="stroke: rgb(0, 85, 255);"></line><line x1="249.68151264931763" y1="270" x2="249.68151264931763" y2="185.61990248548642" stroke-width="2px" style="stroke: rgb(0, 85, 255);"></line><line x1="250.68151264931763" y1="270" x2="250.68151264931763" y2="183.17424486199764" stroke-width="2px" style="stroke: rgb(0, 85, 255);"></line><line x1="251.68151264931763" y1="270" x2="251.68151264931763" y2="180.70973242894283" stroke-width="2px" style="stroke: rgb(0, 85, 255);"></line><line x1="252.6815126493176" y1="270" x2="252.6815126493176" y2="178.22866872804457" stroke-width="2px" style="stroke: rgb(0, 85, 255);"></line><line x1="253.6815126493176" y1="270" x2="253.6815126493176" y2="175.73344978923217" stroke-width="2px" style="stroke: rgb(0, 85, 255);"></line><line x1="254.6815126493176" y1="270" x2="254.6815126493176" y2="173.2265611664845" stroke-width="2px" style="stroke: rgb(0, 85, 255);"></line><line x1="255.6815126493176" y1="270" x2="255.6815126493176" y2="170.71057463605152" stroke-width="2px" style="stroke: rgb(0, 85, 255);"></line><line x1="256.6815126493176" y1="270" x2="256.6815126493176" y2="168.18814455935018" stroke-width="2px" style="stroke: rgb(0, 85, 255);"></line><line x1="257.6815126493176" y1="270" x2="257.6815126493176" y2="165.66200391423786" stroke-width="2px" style="stroke: rgb(0, 85, 255);"></line><line x1="258.6815126493176" y1="270" x2="258.6815126493176" y2="163.13495999979708" stroke-width="2px" style="stroke: rgb(0, 85, 255);"></line><line x1="259.6815126493176" y1="270" x2="259.6815126493176" y2="160.60988982120475" stroke-width="2px" style="stroke: rgb(0, 85, 255);"></line><line x1="260.6815126493176" y1="270" x2="260.6815126493176" y2="158.0897351627079" stroke-width="2px" style="stroke: rgb(0, 85, 255);"></line><line x1="261.6815126493176" y1="270" x2="261.6815126493176" y2="155.57749735817413" stroke-width="2px" style="stroke: rgb(0, 85, 255);"></line><line x1="262.6815126493176" y1="270" x2="262.6815126493176" y2="153.07623177012252" stroke-width="2px" style="stroke: rgb(0, 85, 255);"></line><line x1="263.6815126493176" y1="270" x2="263.6815126493176" y2="150.5890419895627" stroke-width="2px" style="stroke: rgb(0, 85, 255);"></line><line x1="264.6815126493176" y1="270" x2="264.6815126493176" y2="148.11907377036647" stroke-width="2px" style="stroke: rgb(0, 85, 255);"></line><line x1="265.6815126493176" y1="270" x2="265.6815126493176" y2="145.66950871326145" stroke-width="2px" style="stroke: rgb(0, 85, 255);"></line><line x1="266.6815126493176" y1="270" x2="266.6815126493176" y2="143.24355771586454" stroke-width="2px" style="stroke: rgb(0, 85, 255);"></line><line x1="267.6815126493176" y1="270" x2="267.6815126493176" y2="140.84445420644738" stroke-width="2px" style="stroke: rgb(0, 85, 255);"></line><line x1="268.6815126493176" y1="270" x2="268.6815126493176" y2="138.47544718035547" stroke-width="2px" style="stroke: rgb(0, 85, 255);"></line><line x1="269.6815126493176" y1="270" x2="269.6815126493176" y2="136.13979405915947" stroke-width="2px" style="stroke: rgb(0, 85, 255);"></line><line x1="270.6815126493176" y1="270" x2="270.6815126493176" y2="133.8407533937121" stroke-width="2px" style="stroke: rgb(0, 85, 255);"></line><line x1="271.6815126493176" y1="270" x2="271.6815126493176" y2="131.58157743330014" stroke-width="2px" style="stroke: rgb(0, 85, 255);"></line><line x1="272.6815126493176" y1="270" x2="272.6815126493176" y2="129.3655045840132" stroke-width="2px" style="stroke: rgb(0, 85, 255);"></line><line x1="273.6815126493176" y1="270" x2="273.6815126493176" y2="127.19575178029487" stroke-width="2px" style="stroke: rgb(0, 85, 255);"></line><line x1="274.6815126493176" y1="270" x2="274.6815126493176" y2="125.07550679439132" stroke-width="2px" style="stroke: rgb(0, 85, 255);"></line><line x1="275.68151264931765" y1="270" x2="275.68151264931765" y2="123.00792050905935" stroke-width="2px" style="stroke: rgb(0, 85, 255);"></line><line x1="276.68151264931765" y1="270" x2="276.68151264931765" y2="120.99609917943971" stroke-width="2px" style="stroke: rgb(0, 85, 255);"></line><line x1="277.6815126493176" y1="270" x2="277.6815126493176" y2="119.04309671043256" stroke-width="2px" style="stroke: rgb(0, 85, 255);"></line><line x1="278.6815126493176" y1="270" x2="278.6815126493176" y2="117.15190697623211" stroke-width="2px" style="stroke: rgb(0, 85, 255);"></line><line x1="279.6815126493176" y1="270" x2="279.6815126493176" y2="115.32545620887825" stroke-width="2px" style="stroke: rgb(0, 85, 255);"></line><line x1="280.6815126493176" y1="270" x2="280.6815126493176" y2="113.56659548276437" stroke-width="2px" style="stroke: rgb(0, 85, 255);"></line><line x1="281.6815126493176" y1="270" x2="281.6815126493176" y2="111.87809332200214" stroke-width="2px" style="stroke: rgb(0, 85, 255);"></line><line x1="282.6815126493176" y1="270" x2="282.6815126493176" y2="110.26262845737861" stroke-width="2px" style="stroke: rgb(0, 85, 255);"></line><line x1="283.6815126493176" y1="270" x2="283.6815126493176" y2="108.72278275935585" stroke-width="2px" style="stroke: rgb(0, 85, 255);"></line><line x1="284.68151264931765" y1="270" x2="284.68151264931765" y2="107.26103437315186" stroke-width="2px" style="stroke: rgb(0, 85, 255);"></line><line x1="285.68151264931765" y1="270" x2="285.68151264931765" y2="105.87975108140748" stroke-width="2px" style="stroke: rgb(0, 85, 255);"></line><line x1="286.68151264931765" y1="270" x2="286.68151264931765" y2="104.5811839192892" stroke-width="2px" style="stroke: rgb(0, 85, 255);"></line><line x1="287.6815126493176" y1="270" x2="287.6815126493176" y2="103.36746106610204" stroke-width="2px" style="stroke: rgb(0, 85, 255);"></line><line x1="288.6815126493176" y1="270" x2="288.6815126493176" y2="102.24058203659703" stroke-width="2px" style="stroke: rgb(0, 85, 255);"></line><line x1="289.6815126493176" y1="270" x2="289.6815126493176" y2="101.20241219415132" stroke-width="2px" style="stroke: rgb(0, 85, 255);"></line><line x1="290.6815126493176" y1="270" x2="290.6815126493176" y2="100.25467760688755" stroke-width="2px" style="stroke: rgb(0, 85, 255);"></line><line x1="291.6815126493176" y1="270" x2="291.6815126493176" y2="99.39896026658079" stroke-width="2px" style="stroke: rgb(0, 85, 255);"></line><line x1="292.68151264931765" y1="270" x2="292.68151264931765" y2="98.63669368888682" stroke-width="2px" style="stroke: rgb(0, 85, 255);"></line><line x1="293.68151264931765" y1="270" x2="293.68151264931765" y2="97.96915891201692" stroke-width="2px" style="stroke: rgb(0, 85, 255);"></line><line x1="294.68151264931765" y1="270" x2="294.68151264931765" y2="97.39748090949132" stroke-width="2px" style="stroke: rgb(0, 85, 255);"></line><line x1="295.6815126493176" y1="270" x2="295.6815126493176" y2="96.92262543103107" stroke-width="2px" style="stroke: rgb(0, 85, 255);"></line><line x1="296.6815126493176" y1="270" x2="296.6815126493176" y2="96.54539628400528" stroke-width="2px" style="stroke: rgb(0, 85, 255);"></line><line x1="297.6815126493176" y1="270" x2="297.6815126493176" y2="96.26643306614602" stroke-width="2px" style="stroke: rgb(0, 85, 255);"></line><line x1="298.6815126493176" y1="270" x2="298.6815126493176" y2="96.08620935848143" stroke-width="2px" style="stroke: rgb(0, 85, 255);"></line><line x1="299.6815126493176" y1="270" x2="299.6815126493176" y2="96.00503138563403" stroke-width="2px" style="stroke: rgb(0, 85, 255);"></line><line x1="300.6815126493176" y1="270" x2="300.6815126493176" y2="96.02303714878909" stroke-width="2px" style="stroke: rgb(0, 85, 255);"></line><line x1="301.6815126493176" y1="270" x2="301.6815126493176" y2="96.14019603476908" stroke-width="2px" style="stroke: rgb(0, 85, 255);"></line><line x1="302.6815126493176" y1="270" x2="302.6815126493176" y2="96.35630890276408" stroke-width="2px" style="stroke: rgb(0, 85, 255);"></line><line x1="303.68151264931765" y1="270" x2="303.68151264931765" y2="96.67100864837457" stroke-width="2px" style="stroke: rgb(0, 85, 255);"></line><line x1="304.68151264931765" y1="270" x2="304.68151264931765" y2="97.08376124273022" stroke-width="2px" style="stroke: rgb(0, 85, 255);"></line><line x1="305.6815126493176" y1="270" x2="305.6815126493176" y2="97.59386724256754" stroke-width="2px" style="stroke: rgb(0, 85, 255);"></line><line x1="306.6815126493176" y1="270" x2="306.6815126493176" y2="98.20046376528964" stroke-width="2px" style="stroke: rgb(0, 85, 255);"></line><line x1="307.6815126493176" y1="270" x2="307.6815126493176" y2="98.90252692120157" stroke-width="2px" style="stroke: rgb(0, 85, 255);"></line><line x1="308.6815126493176" y1="270" x2="308.6815126493176" y2="99.69887469332494" stroke-width="2px" style="stroke: rgb(0, 85, 255);"></line><line x1="309.6815126493176" y1="270" x2="309.6815126493176" y2="100.58817025345454" stroke-width="2px" style="stroke: rgb(0, 85, 255);"></line><line x1="310.6815126493176" y1="270" x2="310.6815126493176" y2="101.5689257014358" stroke-width="2px" style="stroke: rgb(0, 85, 255);"></line><line x1="311.6815126493176" y1="270" x2="311.6815126493176" y2="102.63950621302368" stroke-width="2px" style="stroke: rgb(0, 85, 255);"></line><line x1="312.6815126493176" y1="270" x2="312.6815126493176" y2="103.79813458013936" stroke-width="2px" style="stroke: rgb(0, 85, 255);"></line><line x1="313.68151264931765" y1="270" x2="313.68151264931765" y2="105.04289612587877" stroke-width="2px" style="stroke: rgb(0, 85, 255);"></line><line x1="314.68151264931765" y1="270" x2="314.68151264931765" y2="106.37174397524947" stroke-width="2px" style="stroke: rgb(0, 85, 255);"></line><line x1="315.68151264931765" y1="270" x2="315.68151264931765" y2="107.782504661335" stroke-width="2px" style="stroke: rgb(0, 85, 255);"></line><line x1="316.6815126493176" y1="270" x2="316.6815126493176" y2="109.27288404540357" stroke-width="2px" style="stroke: rgb(0, 85, 255);"></line><line x1="317.6815126493176" y1="270" x2="317.6815126493176" y2="110.84047352840508" stroke-width="2px" style="stroke: rgb(0, 85, 255);"></line><line x1="318.6815126493176" y1="270" x2="318.6815126493176" y2="112.48275653033562" stroke-width="2px" style="stroke: rgb(0, 85, 255);"></line><line x1="319.6815126493176" y1="270" x2="319.6815126493176" y2="114.19711521310003" stroke-width="2px" style="stroke: rgb(0, 85, 255);"></line><line x1="320.6815126493176" y1="270" x2="320.6815126493176" y2="115.98083742177155" stroke-width="2px" style="stroke: rgb(0, 85, 255);"></line><line x1="321.6815126493176" y1="270" x2="321.6815126493176" y2="117.83112381853442" stroke-width="2px" style="stroke: rgb(0, 85, 255);"></line><line x1="322.68151264931765" y1="270" x2="322.68151264931765" y2="119.74509518310862" stroke-width="2px" style="stroke: rgb(0, 85, 255);"></line><line x1="323.68151264931765" y1="270" x2="323.68151264931765" y2="121.7197998530877" stroke-width="2px" style="stroke: rgb(0, 85, 255);"></line><line x1="324.68151264931765" y1="270" x2="324.68151264931765" y2="123.7522212773803" stroke-width="2px" style="stroke: rgb(0, 85, 255);"></line><line x1="325.68151264931765" y1="270" x2="325.68151264931765" y2="125.83928565582664" stroke-width="2px" style="stroke: rgb(0, 85, 255);"></line><line x1="326.6815126493176" y1="270" x2="326.6815126493176" y2="127.97786963806578" stroke-width="2px" style="stroke: rgb(0, 85, 255);"></line><line x1="327.6815126493176" y1="270" x2="327.6815126493176" y2="130.16480805485565" stroke-width="2px" style="stroke: rgb(0, 85, 255);"></line><line x1="328.6815126493176" y1="270" x2="328.6815126493176" y2="132.39690165529126" stroke-width="2px" style="stroke: rgb(0, 85, 255);"></line><line x1="329.68151264931765" y1="270" x2="329.68151264931765" y2="134.67092482372792" stroke-width="2px" style="stroke: rgb(0, 85, 255);"></line><line x1="330.68151264931765" y1="270" x2="330.68151264931765" y2="136.98363325068826" stroke-width="2px" style="stroke: rgb(0, 85, 255);"></line><line x1="331.68151264931765" y1="270" x2="331.68151264931765" y2="139.33177153261454" stroke-width="2px" style="stroke: rgb(0, 85, 255);"></line><line x1="332.68151264931765" y1="270" x2="332.68151264931765" y2="141.71208067601108" stroke-width="2px" style="stroke: rgb(0, 85, 255);"></line><line x1="333.68151264931765" y1="270" x2="333.68151264931765" y2="144.1213054823079" stroke-width="2px" style="stroke: rgb(0, 85, 255);"></line><line x1="334.68151264931765" y1="270" x2="334.68151264931765" y2="146.55620179065107" stroke-width="2px" style="stroke: rgb(0, 85, 255);"></line><line x1="335.68151264931765" y1="270" x2="335.68151264931765" y2="149.01354355679112" stroke-width="2px" style="stroke: rgb(0, 85, 255);"></line><line x1="336.68151264931765" y1="270" x2="336.68151264931765" y2="151.49012974728433" stroke-width="2px" style="stroke: rgb(0, 85, 255);"></line><line x1="337.6815126493176" y1="270" x2="337.6815126493176" y2="153.98279102934055" stroke-width="2px" style="stroke: rgb(0, 85, 255);"></line><line x1="338.68151264931765" y1="270" x2="338.68151264931765" y2="156.48839623783647" stroke-width="2px" style="stroke: rgb(0, 85, 255);"></line><line x1="339.68151264931765" y1="270" x2="339.68151264931765" y2="159.00385860225734" stroke-width="2px" style="stroke: rgb(0, 85, 255);"></line><line x1="340.68151264931765" y1="270" x2="340.68151264931765" y2="161.52614171762792" stroke-width="2px" style="stroke: rgb(0, 85, 255);"></line><line x1="341.68151264931765" y1="270" x2="341.68151264931765" y2="164.05226524483368" stroke-width="2px" style="stroke: rgb(0, 85, 255);"></line><line x1="342.68151264931765" y1="270" x2="342.68151264931765" y2="166.57931032711207" stroke-width="2px" style="stroke: rgb(0, 85, 255);"></line><line x1="343.68151264931765" y1="270" x2="343.68151264931765" y2="169.10442471089942" stroke-width="2px" style="stroke: rgb(0, 85, 255);"></line><line x1="344.68151264931765" y1="270" x2="344.68151264931765" y2="171.6248275606491" stroke-width="2px" style="stroke: rgb(0, 85, 255);"></line><line x1="345.68151264931765" y1="270" x2="345.68151264931765" y2="174.1378139586762" stroke-width="2px" style="stroke: rgb(0, 85, 255);"></line><line x1="346.68151264931765" y1="270" x2="346.68151264931765" y2="176.64075908253318" stroke-width="2px" style="stroke: rgb(0, 85, 255);"></line><line x1="347.6815126493176" y1="270" x2="347.6815126493176" y2="179.13112205386716" stroke-width="2px" style="stroke: rgb(0, 85, 255);"></line><line x1="348.6815126493176" y1="270" x2="348.6815126493176" y2="181.60644945414612" stroke-width="2px" style="stroke: rgb(0, 85, 255);"></line><line x1="349.6815126493176" y1="270" x2="349.6815126493176" y2="184.0643785040645" stroke-width="2px" style="stroke: rgb(0, 85, 255);"></line><line x1="350.6815126493176" y1="270" x2="350.6815126493176" y2="186.50263990483745" stroke-width="2px" style="stroke: rgb(0, 85, 255);"></line><line x1="351.6815126493176" y1="270" x2="351.6815126493176" y2="188.91906034096337" stroke-width="2px" style="stroke: rgb(0, 85, 255);"></line><line x1="352.6815126493176" y1="270" x2="352.6815126493176" y2="191.31156464537045" stroke-width="2px" style="stroke: rgb(0, 85, 255);"></line><line x1="353.6815126493176" y1="270" x2="353.6815126493176" y2="193.67817762915726" stroke-width="2px" style="stroke: rgb(0, 85, 255);"></line><line x1="354.6815126493176" y1="270" x2="354.6815126493176" y2="196.01702557938617" stroke-width="2px" style="stroke: rgb(0, 85, 255);"></line><line x1="355.6815126493176" y1="270" x2="355.6815126493176" y2="198.32633742958524" stroke-width="2px" style="stroke: rgb(0, 85, 255);"></line><line x1="356.6815126493176" y1="270" x2="356.6815126493176" y2="200.60444560875698" stroke-width="2px" style="stroke: rgb(0, 85, 255);"></line><line x1="357.6815126493176" y1="270" x2="357.6815126493176" y2="202.8497865757734" stroke-width="2px" style="stroke: rgb(0, 85, 255);"></line><line x1="358.6815126493176" y1="270" x2="358.6815126493176" y2="205.0609010470556" stroke-width="2px" style="stroke: rgb(0, 85, 255);"></line><line x1="359.6815126493176" y1="270" x2="359.6815126493176" y2="207.23643392638795" stroke-width="2px" style="stroke: rgb(0, 85, 255);"></line><line x1="360.6815126493176" y1="270" x2="360.6815126493176" y2="209.37513394660039" stroke-width="2px" style="stroke: rgb(0, 85, 255);"></line><line x1="361.6815126493176" y1="270" x2="361.6815126493176" y2="211.47585303366185" stroke-width="2px" style="stroke: rgb(0, 85, 255);"></line><line x1="362.6815126493176" y1="270" x2="362.6815126493176" y2="213.53754540446704" stroke-width="2px" style="stroke: rgb(0, 85, 255);"></line><line x1="363.6815126493176" y1="270" x2="363.6815126493176" y2="215.55926641026142" stroke-width="2px" style="stroke: rgb(0, 85, 255);"></line><line x1="364.6815126493176" y1="270" x2="364.6815126493176" y2="217.5401711382371" stroke-width="2px" style="stroke: rgb(0, 85, 255);"></line><line x1="365.6815126493176" y1="270" x2="365.6815126493176" y2="219.47951278434365" stroke-width="2px" style="stroke: rgb(0, 85, 255);"></line><line x1="366.6815126493176" y1="270" x2="366.6815126493176" y2="221.37664081079515" stroke-width="2px" style="stroke: rgb(0, 85, 255);"></line><line x1="367.6815126493176" y1="270" x2="367.6815126493176" y2="223.230998902114" stroke-width="2px" style="stroke: rgb(0, 85, 255);"></line><line x1="368.6815126493176" y1="270" x2="368.6815126493176" y2="225.04212273383973" stroke-width="2px" style="stroke: rgb(0, 85, 255);"></line><line x1="369.6815126493176" y1="270" x2="369.6815126493176" y2="226.80963756824292" stroke-width="2px" style="stroke: rgb(0, 85, 255);"></line><line x1="370.6815126493176" y1="270" x2="370.6815126493176" y2="228.53325569152642" stroke-width="2px" style="stroke: rgb(0, 85, 255);"></line><line x1="371.6815126493176" y1="270" x2="371.6815126493176" y2="230.2127737070675" stroke-width="2px" style="stroke: rgb(0, 85, 255);"></line><line x1="372.6815126493176" y1="270" x2="372.6815126493176" y2="231.84806969925904" stroke-width="2px" style="stroke: rgb(0, 85, 255);"></line><line x1="373.68151264931754" y1="270" x2="373.68151264931754" y2="233.43910028244704" stroke-width="2px" style="stroke: rgb(0, 85, 255);"></line><line x1="374.68151264931754" y1="270" x2="374.68151264931754" y2="234.98589754933954" stroke-width="2px" style="stroke: rgb(0, 85, 255);"></line><line x1="375.68151264931754" y1="270" x2="375.68151264931754" y2="236.4885659330802" stroke-width="2px" style="stroke: rgb(0, 85, 255);"></line><line x1="376.68151264931754" y1="270" x2="376.68151264931754" y2="237.94727899694223" stroke-width="2px" style="stroke: rgb(0, 85, 255);"></line><line x1="377.68151264931754" y1="270" x2="377.68151264931754" y2="239.36227616530957" stroke-width="2px" style="stroke: rgb(0, 85, 255);"></line><line x1="378.68151264931754" y1="270" x2="378.68151264931754" y2="240.7338594092727" stroke-width="2px" style="stroke: rgb(0, 85, 255);"></line><line x1="379.68151264931754" y1="270" x2="379.68151264931754" y2="242.0623898997839" stroke-width="2px" style="stroke: rgb(0, 85, 255);"></line><line x1="380.68151264931754" y1="270" x2="380.68151264931754" y2="243.34828464089236" stroke-width="2px" style="stroke: rgb(0, 85, 255);"></line><line x1="381.68151264931754" y1="270" x2="381.68151264931754" y2="244.59201309511622" stroke-width="2px" style="stroke: rgb(0, 85, 255);"></line><text x="217.68151264931774" y="310" style="font-family: sans-serif; font-size: 9pt; stroke: rgb(0, 85, 255); text-anchor: middle;">-1.960</text><text x="382.3184873506823" y="310" style="font-family: sans-serif; font-size: 9pt; stroke: rgb(0, 85, 255); text-anchor: middle;">1.960</text><text x="300" y="310" style="font-family: sans-serif; font-size: 9pt; stroke: rgb(0, 85, 255); text-anchor: middle;">&lt;- Accept H₀ -&gt;</text><text x="157.68151264931774" y="310" style="font-family: sans-serif; font-size: 9pt; stroke: red; text-anchor: middle;">Reject H₀ -&gt;</text><text x="442.3184873506823" y="310" style="font-family: sans-serif; font-size: 9pt; stroke: red; text-anchor: middle;">&lt;- Reject H₀</text><text x="177.68151264931774" y="250" style="font-family: sans-serif; font-size: 9pt; stroke: red; text-anchor: middle;">0.025</text><text x="427.3184873506823" y="250" style="font-family: sans-serif; font-size: 9pt; stroke: red; text-anchor: middle;">0.025</text><line x1="257.13392950129446" y1="270" x2="257.13392950129446" y2="330" stroke-width="2px" style="stroke: green;"></line><text x="257.13392950129446" y="345" style="font-family: sans-serif; font-size: 9pt; stroke: green; text-anchor: middle;">[TestStat] = -1.021</text><text x="257.13392950129446" y="360" style="font-family: sans-serif; font-size: 9pt; stroke: green; text-anchor: middle;">p-value = 0.3074</text><text x="300" y="380" style="font-family: sans-serif; font-size: 9pt; stroke: blue; text-anchor: middle;">[Decision] Accept H₀</text></svg>