<svg xmlns="http://www.w3.org/2000/svg" id="chart" width="600" height="600"> <text x="40" y="25" style="font-size: 13pt; stroke: blue; text-anchor: start;">Binomial Distribution n = 4, p = 0.60</text><text x="260" y="580" style="font-family: sans-serif; font-size: 9pt; stroke: rgb(0, 85, 255); text-anchor: middle;">Mean = 2.40,  Std Dev = 0.98</text><g transform="translate(40,50)" fill="none" font-size="10" font-family="sans-serif" text-anchor="end"><path class="domain" stroke="#000" d="M-6,0.5H0.5V490.5H-6"></path><g class="tick" opacity="1" transform="translate(0,31.125)"><line stroke="#000" x2="-6"></line><text fill="#000" x="-9" dy="0.32em">0.9</text></g><g class="tick" opacity="1" transform="translate(0,82.16666666666669)"><line stroke="#000" x2="-6"></line><text fill="#000" x="-9" dy="0.32em">0.8</text></g><g class="tick" opacity="1" transform="translate(0,133.20833333333343)"><line stroke="#000" x2="-6"></line><text fill="#000" x="-9" dy="0.32em">0.7</text></g><g class="tick" opacity="1" transform="translate(0,184.25000000000006)"><line stroke="#000" x2="-6"></line><text fill="#000" x="-9" dy="0.32em">0.6</text></g><g class="tick" opacity="1" transform="translate(0,235.2916666666667)"><line stroke="#000" x2="-6"></line><text fill="#000" x="-9" dy="0.32em">0.5</text></g><g class="tick" opacity="1" transform="translate(0,286.33333333333337)"><line stroke="#000" x2="-6"></line><text fill="#000" x="-9" dy="0.32em">0.4</text></g><g class="tick" opacity="1" transform="translate(0,337.375)"><line stroke="#000" x2="-6"></line><text fill="#000" x="-9" dy="0.32em">0.3</text></g><g class="tick" opacity="1" transform="translate(0,388.4166666666667)"><line stroke="#000" x2="-6"></line><text fill="#000" x="-9" dy="0.32em">0.2</text></g><g class="tick" opacity="1" transform="translate(0,439.4583333333333)"><line stroke="#000" x2="-6"></line><text fill="#000" x="-9" dy="0.32em">0.1</text></g><g class="tick" opacity="1" transform="translate(0,490.5)"><line stroke="#000" x2="-6"></line><text fill="#000" x="-9" dy="0.32em">0.0</text></g></g><line x1="40" y1="540" x2="560" y2="540" style="stroke: black;"></line><text class="barname" x="92" y="560" transform="rotate(0,92,560)  " style="font-family: sans-serif; font-size: 8pt; text-anchor: middle;">0</text><text class="barname" x="196" y="560" transform="rotate(0,196,560)  " style="font-family: sans-serif; font-size: 8pt; text-anchor: middle;">1</text><text class="barname" x="300" y="560" transform="rotate(0,300,560)  " style="font-family: sans-serif; font-size: 8pt; text-anchor: middle;">2</text><text class="barname" x="404" y="560" transform="rotate(0,404,560)  " style="font-family: sans-serif; font-size: 8pt; text-anchor: middle;">3</text><text class="barname" x="508" y="560" transform="rotate(0,508,560)  " style="font-family: sans-serif; font-size: 8pt; text-anchor: middle;">4</text><rect height="13.06666666666667" width="69.33333333333333" x="57.33333333333333" y="526.9333333333333" style="fill: rgb(0, 85, 255);"></rect><rect height="78.40000000000002" width="69.33333333333333" x="161.33333333333331" y="461.59999999999997" style="fill: rgb(0, 85, 255);"></rect><rect height="176.39999999999992" width="69.33333333333333" x="265.3333333333333" y="363.6000000000001" style="fill: rgb(0, 85, 255);"></rect><rect height="176.39999999999995" width="69.33333333333333" x="369.3333333333333" y="363.6" style="fill: rgb(0, 85, 255);"></rect><rect height="66.14999999999999" width="69.33333333333333" x="473.3333333333333" y="473.85" style="fill: rgb(0, 85, 255);"></rect></svg>