<svg xmlns="http://www.w3.org/2000/svg" id="SVG" style="width: 600px; height: 560px;"><text x="290" y="50" style="font-size: 17px; font-family: sans-seirf; stroke: black; text-anchor: middle;">(Group  Gender)  Income Confidence Interval Graph</text><text x="290" y="530" style="font-size: 12px; font-family: sans-seirf; stroke: black; text-anchor: middle;">Income</text><text x="520" y="180" style="font-size: 12px; font-family: sans-seirf; stroke: rgb(0, 85, 255); text-anchor: start;">F</text><line x1="80" x2="500" y1="80" y2="80" style="stroke: black;"></line><g transform="translate(80,480)" fill="none" font-size="10" font-family="sans-serif" text-anchor="middle"><path class="domain" stroke="#000" d="M0.5,6V0.5H420.5V6"></path><g class="tick" opacity="1" transform="translate(6.0882352941176645,0)"><line stroke="#000" y2="6"></line><text fill="#000" y="9" dy="0.71em">240</text></g><g class="tick" opacity="1" transform="translate(64.91176470588238,0)"><line stroke="#000" y2="6"></line><text fill="#000" y="9" dy="0.71em">260</text></g><g class="tick" opacity="1" transform="translate(123.73529411764709,0)"><line stroke="#000" y2="6"></line><text fill="#000" y="9" dy="0.71em">280</text></g><g class="tick" opacity="1" transform="translate(182.5588235294118,0)"><line stroke="#000" y2="6"></line><text fill="#000" y="9" dy="0.71em">300</text></g><g class="tick" opacity="1" transform="translate(241.3823529411765,0)"><line stroke="#000" y2="6"></line><text fill="#000" y="9" dy="0.71em">320</text></g><g class="tick" opacity="1" transform="translate(300.2058823529412,0)"><line stroke="#000" y2="6"></line><text fill="#000" y="9" dy="0.71em">340</text></g><g class="tick" opacity="1" transform="translate(359.02941176470597,0)"><line stroke="#000" y2="6"></line><text fill="#000" y="9" dy="0.71em">360</text></g><g class="tick" opacity="1" transform="translate(417.85294117647067,0)"><line stroke="#000" y2="6"></line><text fill="#000" y="9" dy="0.71em">380</text></g></g><line x1="80" x2="80" y1="80" y2="480" style="stroke: black;"></line><line x1="500" x2="500" y1="80" y2="480" style="stroke: black;"></line><circle class="circle" tooltip="circle" stroke="black" cx="115.00000000000003" cy="272" r="4" style="fill: rgb(0, 85, 255);"></circle><circle class="circle" tooltip="circle" stroke="black" cx="191.47058823529414" cy="272" r="4" style="fill: rgb(0, 85, 255);"></circle><circle class="circle" tooltip="circle" stroke="black" cx="203.2352941176471" cy="272" r="4" style="fill: rgb(0, 85, 255);"></circle><circle class="circle" tooltip="circle" stroke="black" cx="217.9411764705883" cy="272" r="4" style="fill: rgb(0, 85, 255);"></circle><circle class="circle" tooltip="circle" stroke="black" cx="232.64705882352945" cy="272" r="4" style="fill: rgb(0, 85, 255);"></circle><circle class="circle" tooltip="circle" stroke="black" cx="270.8823529411765" cy="272" r="4" style="fill: rgb(0, 85, 255);"></circle><circle class="circle" tooltip="circle" stroke="black" cx="282.64705882352945" cy="272" r="4" style="fill: rgb(0, 85, 255);"></circle><circle class="circle" tooltip="circle" stroke="black" cx="300.2941176470589" cy="272" r="4" style="fill: rgb(0, 85, 255);"></circle><circle class="circle" tooltip="circle" stroke="black" cx="312.0588235294118" cy="272" r="4" style="fill: rgb(0, 85, 255);"></circle><circle class="circle" tooltip="circle" stroke="black" cx="465.00000000000006" cy="272" r="4" style="fill: rgb(0, 85, 255);"></circle><text x="520" y="380" style="font-size: 12px; font-family: sans-seirf; stroke: rgb(255, 69, 0); text-anchor: start;">M</text><line x1="80" x2="500" y1="280" y2="280" style="stroke: black;"></line><g transform="translate(80,480)" fill="none" font-size="10" font-family="sans-serif" text-anchor="middle"><path class="domain" stroke="#000" d="M0.5,6V0.5H420.5V6"></path><g class="tick" opacity="1" transform="translate(6.0882352941176645,0)"><line stroke="#000" y2="6"></line><text fill="#000" y="9" dy="0.71em">240</text></g><g class="tick" opacity="1" transform="translate(64.91176470588238,0)"><line stroke="#000" y2="6"></line><text fill="#000" y="9" dy="0.71em">260</text></g><g class="tick" opacity="1" transform="translate(123.73529411764709,0)"><line stroke="#000" y2="6"></line><text fill="#000" y="9" dy="0.71em">280</text></g><g class="tick" opacity="1" transform="translate(182.5588235294118,0)"><line stroke="#000" y2="6"></line><text fill="#000" y="9" dy="0.71em">300</text></g><g class="tick" opacity="1" transform="translate(241.3823529411765,0)"><line stroke="#000" y2="6"></line><text fill="#000" y="9" dy="0.71em">320</text></g><g class="tick" opacity="1" transform="translate(300.2058823529412,0)"><line stroke="#000" y2="6"></line><text fill="#000" y="9" dy="0.71em">340</text></g><g class="tick" opacity="1" transform="translate(359.02941176470597,0)"><line stroke="#000" y2="6"></line><text fill="#000" y="9" dy="0.71em">360</text></g><g class="tick" opacity="1" transform="translate(417.85294117647067,0)"><line stroke="#000" y2="6"></line><text fill="#000" y="9" dy="0.71em">380</text></g></g><line x1="80" x2="80" y1="80" y2="480" style="stroke: black;"></line><line x1="500" x2="500" y1="80" y2="480" style="stroke: black;"></line><circle class="circle" tooltip="circle" stroke="black" cx="129.70588235294122" cy="472" r="4" style="fill: rgb(255, 69, 0);"></circle><circle class="circle" tooltip="circle" stroke="black" cx="179.70588235294122" cy="472" r="4" style="fill: rgb(255, 69, 0);"></circle><circle class="circle" tooltip="circle" stroke="black" cx="197.3529411764706" cy="472" r="4" style="fill: rgb(255, 69, 0);"></circle><circle class="circle" tooltip="circle" stroke="black" cx="209.11764705882356" cy="472" r="4" style="fill: rgb(255, 69, 0);"></circle><circle class="circle" tooltip="circle" stroke="black" cx="250.29411764705887" cy="472" r="4" style="fill: rgb(255, 69, 0);"></circle><circle class="circle" tooltip="circle" stroke="black" cx="250.29411764705887" cy="464" r="4" style="fill: rgb(255, 69, 0);"></circle><circle class="circle" tooltip="circle" stroke="black" cx="267.9411764705883" cy="472" r="4" style="fill: rgb(255, 69, 0);"></circle><circle class="circle" tooltip="circle" stroke="black" cx="297.3529411764706" cy="472" r="4" style="fill: rgb(255, 69, 0);"></circle><circle class="circle" tooltip="circle" stroke="black" cx="297.3529411764706" cy="464" r="4" style="fill: rgb(255, 69, 0);"></circle><circle class="circle" tooltip="circle" stroke="black" cx="426.764705882353" cy="472" r="4" style="fill: rgb(255, 69, 0);"></circle><line class="mean" x1="259.11764705882354" y1="85" x2="259.11764705882354" y2="280" style="stroke: rgb(255, 69, 0);"></line><text class="mean" x="264.11764705882354" y="180" style="text-anchor: start; font-size: 9px; font-family: sans-serif; stroke: rgb(255, 69, 0);">x̄=299.00</text><text class="mean" x="485" y="95" style="text-anchor: end; font-size: 9px; font-family: sans-serif; stroke: rgb(0, 85, 255);">n=10</text><text class="mean" x="490" y="110" style="text-anchor: end; font-size: 9px; font-family: sans-serif; stroke: rgb(0, 85, 255);">s=31.74</text><line class="mean" x1="250.58823529411774" y1="285" x2="250.58823529411774" y2="480" style="stroke: rgb(255, 69, 0);"></line><text class="mean" x="255.58823529411774" y="380" style="text-anchor: start; font-size: 9px; font-family: sans-serif; stroke: rgb(255, 69, 0);">x̄=296.10</text><text class="mean" x="485" y="295" style="text-anchor: end; font-size: 9px; font-family: sans-serif; stroke: rgb(0, 85, 255);">n=10</text><text class="mean" x="490" y="310" style="text-anchor: end; font-size: 9px; font-family: sans-serif; stroke: rgb(0, 85, 255);">s=27.74</text><circle class="std" cx="259.11764705882354" cy="185" r="1" style="fill: green;"></circle><line class="std" x1="192.3327350735101" y1="185" x2="259.11764705882354" y2="185" style="stroke: yellowgreen;"></line><line class="std" x1="325.90255904413704" y1="185" x2="259.11764705882354" y2="185" style="stroke: yellowgreen;"></line><circle class="std" cx="192.3327350735101" cy="185" r="1" style="fill: yellowgreen;"></circle><circle class="std" cx="325.90255904413704" cy="185" r="1" style="fill: yellowgreen;"></circle><text class="std" x="192.3327350735101" y="195" style="text-anchor: middle; font-size: 9px; font-family: sans-serif; stroke: green;">95% CI</text><circle class="std" cx="250.58823529411774" cy="385" r="1" style="fill: green;"></circle><line class="std" x1="192.2263442630425" y1="385" x2="250.58823529411774" y2="385" style="stroke: yellowgreen;"></line><line class="std" x1="308.95012632519297" y1="385" x2="250.58823529411774" y2="385" style="stroke: yellowgreen;"></line><circle class="std" cx="192.2263442630425" cy="385" r="1" style="fill: yellowgreen;"></circle><circle class="std" cx="308.95012632519297" cy="385" r="1" style="fill: yellowgreen;"></circle><text class="std" x="192.2263442630425" y="395" style="text-anchor: middle; font-size: 9px; font-family: sans-serif; stroke: green;">95% CI</text></svg>