<svg xmlns="http://www.w3.org/2000/svg" id="SVG" width="600" height="560" xlink="http://www.w3.org/1999/xlink"><text x="300" y="45" style="font-size: 17px; font-family: sans-seirf; stroke: black; text-anchor: middle;">Weight(y) : Height(x)  Scatter Plot</text><text x="-140" y="110" transform="rotate(-90 30 100)" style="font-size: 12px; font-family: sans-seirf; stroke: black; text-anchor: end;">Weight</text><text x="300" y="535" style="font-size: 12px; font-family: sans-seirf; stroke: black; text-anchor: middle;">Height</text><g transform="translate(90,490)" fill="none" font-size="10" font-family="sans-serif" text-anchor="middle"><path class="domain" stroke="#000" d="M0.5,6V0.5H420.5V6"></path><g class="tick" opacity="1" transform="translate(21.5,0)"><line stroke="#000" y2="6"></line><text fill="#000" y="9" dy="0.71em">144</text></g><g class="tick" opacity="1" transform="translate(63.5,0)"><line stroke="#000" y2="6"></line><text fill="#000" y="9" dy="0.71em">146</text></g><g class="tick" opacity="1" transform="translate(105.5,0)"><line stroke="#000" y2="6"></line><text fill="#000" y="9" dy="0.71em">148</text></g><g class="tick" opacity="1" transform="translate(147.5,0)"><line stroke="#000" y2="6"></line><text fill="#000" y="9" dy="0.71em">150</text></g><g class="tick" opacity="1" transform="translate(189.5,0)"><line stroke="#000" y2="6"></line><text fill="#000" y="9" dy="0.71em">152</text></g><g class="tick" opacity="1" transform="translate(231.50000000000003,0)"><line stroke="#000" y2="6"></line><text fill="#000" y="9" dy="0.71em">154</text></g><g class="tick" opacity="1" transform="translate(273.5,0)"><line stroke="#000" y2="6"></line><text fill="#000" y="9" dy="0.71em">156</text></g><g class="tick" opacity="1" transform="translate(315.5,0)"><line stroke="#000" y2="6"></line><text fill="#000" y="9" dy="0.71em">158</text></g><g class="tick" opacity="1" transform="translate(357.5,0)"><line stroke="#000" y2="6"></line><text fill="#000" y="9" dy="0.71em">160</text></g><g class="tick" opacity="1" transform="translate(399.5,0)"><line stroke="#000" y2="6"></line><text fill="#000" y="9" dy="0.71em">162</text></g></g><g transform="translate(90,90)" fill="none" font-size="10" font-family="sans-serif" text-anchor="middle"><path class="domain" stroke="#000" d="M0.5,-6V0.5H420.5V-6"></path><g class="tick" opacity="1" transform="translate(21.5,0)"><line stroke="#000" y2="-6"></line><text fill="#000" y="-9" dy="0em">144</text></g><g class="tick" opacity="1" transform="translate(63.5,0)"><line stroke="#000" y2="-6"></line><text fill="#000" y="-9" dy="0em">146</text></g><g class="tick" opacity="1" transform="translate(105.5,0)"><line stroke="#000" y2="-6"></line><text fill="#000" y="-9" dy="0em">148</text></g><g class="tick" opacity="1" transform="translate(147.5,0)"><line stroke="#000" y2="-6"></line><text fill="#000" y="-9" dy="0em">150</text></g><g class="tick" opacity="1" transform="translate(189.5,0)"><line stroke="#000" y2="-6"></line><text fill="#000" y="-9" dy="0em">152</text></g><g class="tick" opacity="1" transform="translate(231.50000000000003,0)"><line stroke="#000" y2="-6"></line><text fill="#000" y="-9" dy="0em">154</text></g><g class="tick" opacity="1" transform="translate(273.5,0)"><line stroke="#000" y2="-6"></line><text fill="#000" y="-9" dy="0em">156</text></g><g class="tick" opacity="1" transform="translate(315.5,0)"><line stroke="#000" y2="-6"></line><text fill="#000" y="-9" dy="0em">158</text></g><g class="tick" opacity="1" transform="translate(357.5,0)"><line stroke="#000" y2="-6"></line><text fill="#000" y="-9" dy="0em">160</text></g><g class="tick" opacity="1" transform="translate(399.5,0)"><line stroke="#000" y2="-6"></line><text fill="#000" y="-9" dy="0em">162</text></g></g><g transform="translate(90,90)" fill="none" font-size="10" font-family="sans-serif" text-anchor="end"><path class="domain" stroke="#000" d="M-6,400.5H0.5V0.5H-6"></path><g class="tick" opacity="1" transform="translate(0,360.5)"><line stroke="#000" x2="-6"></line><text fill="#000" x="-9" dy="0.32em">44</text></g><g class="tick" opacity="1" transform="translate(0,307.1666666666667)"><line stroke="#000" x2="-6"></line><text fill="#000" x="-9" dy="0.32em">46</text></g><g class="tick" opacity="1" transform="translate(0,253.83333333333334)"><line stroke="#000" x2="-6"></line><text fill="#000" x="-9" dy="0.32em">48</text></g><g class="tick" opacity="1" transform="translate(0,200.5)"><line stroke="#000" x2="-6"></line><text fill="#000" x="-9" dy="0.32em">50</text></g><g class="tick" opacity="1" transform="translate(0,147.16666666666669)"><line stroke="#000" x2="-6"></line><text fill="#000" x="-9" dy="0.32em">52</text></g><g class="tick" opacity="1" transform="translate(0,93.83333333333331)"><line stroke="#000" x2="-6"></line><text fill="#000" x="-9" dy="0.32em">54</text></g><g class="tick" opacity="1" transform="translate(0,40.5)"><line stroke="#000" x2="-6"></line><text fill="#000" x="-9" dy="0.32em">56</text></g></g><g transform="translate(510,90)" fill="none" font-size="10" font-family="sans-serif" text-anchor="start"><path class="domain" stroke="#000" d="M6,400.5H0.5V0.5H6"></path><g class="tick" opacity="1" transform="translate(0,360.5)"><line stroke="#000" x2="6"></line><text fill="#000" x="9" dy="0.32em">44</text></g><g class="tick" opacity="1" transform="translate(0,307.1666666666667)"><line stroke="#000" x2="6"></line><text fill="#000" x="9" dy="0.32em">46</text></g><g class="tick" opacity="1" transform="translate(0,253.83333333333334)"><line stroke="#000" x2="6"></line><text fill="#000" x="9" dy="0.32em">48</text></g><g class="tick" opacity="1" transform="translate(0,200.5)"><line stroke="#000" x2="6"></line><text fill="#000" x="9" dy="0.32em">50</text></g><g class="tick" opacity="1" transform="translate(0,147.16666666666669)"><line stroke="#000" x2="6"></line><text fill="#000" x="9" dy="0.32em">52</text></g><g class="tick" opacity="1" transform="translate(0,93.83333333333331)"><line stroke="#000" x2="6"></line><text fill="#000" x="9" dy="0.32em">54</text></g><g class="tick" opacity="1" transform="translate(0,40.5)"><line stroke="#000" x2="6"></line><text fill="#000" x="9" dy="0.32em">56</text></g></g><circle data-sheetrowid="0" class="datapoint" stroke="black" cx="237" cy="423.3333333333333" r="4" style="fill: rgb(0, 85, 255);"><title>(150,45)</title></circle><circle data-sheetrowid="1" class="datapoint" stroke="black" cx="174" cy="370" r="4" style="fill: rgb(0, 85, 255);"><title>(147,47)</title></circle><circle data-sheetrowid="2" class="datapoint" stroke="black" cx="132" cy="450" r="4" style="fill: rgb(0, 85, 255);"><title>(145,44)</title></circle><circle data-sheetrowid="3" class="datapoint" stroke="black" cx="258" cy="290" r="4" style="fill: rgb(0, 85, 255);"><title>(151,50)</title></circle><circle data-sheetrowid="4" class="datapoint" stroke="black" cx="216" cy="343.33333333333337" r="4" style="fill: rgb(0, 85, 255);"><title>(149,48)</title></circle><circle data-sheetrowid="5" class="datapoint" stroke="black" cx="195" cy="370" r="4" style="fill: rgb(0, 85, 255);"><title>(148,47)</title></circle><circle data-sheetrowid="6" class="datapoint" stroke="black" cx="342" cy="263.33333333333337" r="4" style="fill: rgb(0, 85, 255);"><title>(155,51)</title></circle><circle data-sheetrowid="7" class="datapoint" stroke="black" cx="363" cy="290" r="4" style="fill: rgb(0, 85, 255);"><title>(156,50)</title></circle><circle data-sheetrowid="8" class="datapoint" stroke="black" cx="468" cy="156.66666666666669" r="4" style="fill: rgb(0, 85, 255);"><title>(161,55)</title></circle><circle data-sheetrowid="9" class="datapoint" stroke="black" cx="426" cy="130" r="4" style="fill: rgb(0, 85, 255);"><title>(159,56)</title></circle></svg>