<svg xmlns="http://www.w3.org/2000/svg" id="chart" width="600" height="600"> <text x="40" y="25" style="font-size: 13pt; stroke: blue; text-anchor: start;">Binomial Distribution n = 50, p = 0.05</text><text x="260" y="580" style="font-family: sans-serif; font-size: 9pt; stroke: rgb(0, 85, 255); text-anchor: middle;">Mean = 2.50,  Std Dev = 1.54</text><g transform="translate(40,50)" fill="none" font-size="10" font-family="sans-serif" text-anchor="end"><path class="domain" stroke="#000" d="M-6,0.5H0.5V490.5H-6"></path><g class="tick" opacity="1" transform="translate(0,31.125)"><line stroke="#000" x2="-6"></line><text fill="#000" x="-9" dy="0.32em">0.9</text></g><g class="tick" opacity="1" transform="translate(0,82.16666666666669)"><line stroke="#000" x2="-6"></line><text fill="#000" x="-9" dy="0.32em">0.8</text></g><g class="tick" opacity="1" transform="translate(0,133.20833333333343)"><line stroke="#000" x2="-6"></line><text fill="#000" x="-9" dy="0.32em">0.7</text></g><g class="tick" opacity="1" transform="translate(0,184.25000000000006)"><line stroke="#000" x2="-6"></line><text fill="#000" x="-9" dy="0.32em">0.6</text></g><g class="tick" opacity="1" transform="translate(0,235.2916666666667)"><line stroke="#000" x2="-6"></line><text fill="#000" x="-9" dy="0.32em">0.5</text></g><g class="tick" opacity="1" transform="translate(0,286.33333333333337)"><line stroke="#000" x2="-6"></line><text fill="#000" x="-9" dy="0.32em">0.4</text></g><g class="tick" opacity="1" transform="translate(0,337.375)"><line stroke="#000" x2="-6"></line><text fill="#000" x="-9" dy="0.32em">0.3</text></g><g class="tick" opacity="1" transform="translate(0,388.4166666666667)"><line stroke="#000" x2="-6"></line><text fill="#000" x="-9" dy="0.32em">0.2</text></g><g class="tick" opacity="1" transform="translate(0,439.4583333333333)"><line stroke="#000" x2="-6"></line><text fill="#000" x="-9" dy="0.32em">0.1</text></g><g class="tick" opacity="1" transform="translate(0,490.5)"><line stroke="#000" x2="-6"></line><text fill="#000" x="-9" dy="0.32em">0.0</text></g></g><line x1="40" y1="540" x2="560" y2="540" style="stroke: black;"></line><text class="barname" x="52.294117647058826" y="560" transform="rotate(90,52.294117647058826,560)  " style="font-family: sans-serif; font-size: 8pt; text-anchor: middle;">1</text><text class="barname" x="72.68627450980392" y="560" transform="rotate(90,72.68627450980392,560)  " style="font-family: sans-serif; font-size: 8pt; text-anchor: middle;">3</text><text class="barname" x="93.07843137254902" y="560" transform="rotate(90,93.07843137254902,560)  " style="font-family: sans-serif; font-size: 8pt; text-anchor: middle;">5</text><text class="barname" x="113.47058823529412" y="560" transform="rotate(90,113.47058823529412,560)  " style="font-family: sans-serif; font-size: 8pt; text-anchor: middle;">7</text><text class="barname" x="133.8627450980392" y="560" transform="rotate(90,133.8627450980392,560)  " style="font-family: sans-serif; font-size: 8pt; text-anchor: middle;">9</text><text class="barname" x="154.2549019607843" y="560" transform="rotate(90,154.2549019607843,560)  " style="font-family: sans-serif; font-size: 8pt; text-anchor: middle;">11</text><text class="barname" x="174.6470588235294" y="560" transform="rotate(90,174.6470588235294,560)  " style="font-family: sans-serif; font-size: 8pt; text-anchor: middle;">13</text><text class="barname" x="195.0392156862745" y="560" transform="rotate(90,195.0392156862745,560)  " style="font-family: sans-serif; font-size: 8pt; text-anchor: middle;">15</text><text class="barname" x="215.43137254901958" y="560" transform="rotate(90,215.43137254901958,560)  " style="font-family: sans-serif; font-size: 8pt; text-anchor: middle;">17</text><text class="barname" x="235.8235294117647" y="560" transform="rotate(90,235.8235294117647,560)  " style="font-family: sans-serif; font-size: 8pt; text-anchor: middle;">19</text><text class="barname" x="256.2156862745098" y="560" transform="rotate(90,256.2156862745098,560)  " style="font-family: sans-serif; font-size: 8pt; text-anchor: middle;">21</text><text class="barname" x="276.6078431372549" y="560" transform="rotate(90,276.6078431372549,560)  " style="font-family: sans-serif; font-size: 8pt; text-anchor: middle;">23</text><text class="barname" x="297" y="560" transform="rotate(90,297,560)  " style="font-family: sans-serif; font-size: 8pt; text-anchor: middle;">25</text><text class="barname" x="317.3921568627451" y="560" transform="rotate(90,317.3921568627451,560)  " style="font-family: sans-serif; font-size: 8pt; text-anchor: middle;">27</text><text class="barname" x="337.7843137254902" y="560" transform="rotate(90,337.7843137254902,560)  " style="font-family: sans-serif; font-size: 8pt; text-anchor: middle;">29</text><text class="barname" x="358.1764705882353" y="560" transform="rotate(90,358.1764705882353,560)  " style="font-family: sans-serif; font-size: 8pt; text-anchor: middle;">31</text><text class="barname" x="378.5686274509804" y="560" transform="rotate(90,378.5686274509804,560)  " style="font-family: sans-serif; font-size: 8pt; text-anchor: middle;">33</text><text class="barname" x="398.96078431372547" y="560" transform="rotate(90,398.96078431372547,560)  " style="font-family: sans-serif; font-size: 8pt; text-anchor: middle;">35</text><text class="barname" x="419.3529411764706" y="560" transform="rotate(90,419.3529411764706,560)  " style="font-family: sans-serif; font-size: 8pt; text-anchor: middle;">37</text><text class="barname" x="439.7450980392157" y="560" transform="rotate(90,439.7450980392157,560)  " style="font-family: sans-serif; font-size: 8pt; text-anchor: middle;">39</text><text class="barname" x="460.1372549019608" y="560" transform="rotate(90,460.1372549019608,560)  " style="font-family: sans-serif; font-size: 8pt; text-anchor: middle;">41</text><text class="barname" x="480.52941176470586" y="560" transform="rotate(90,480.52941176470586,560)  " style="font-family: sans-serif; font-size: 8pt; text-anchor: middle;">43</text><text class="barname" x="500.921568627451" y="560" transform="rotate(90,500.921568627451,560)  " style="font-family: sans-serif; font-size: 8pt; text-anchor: middle;">45</text><text class="barname" x="521.313725490196" y="560" transform="rotate(90,521.313725490196,560)  " style="font-family: sans-serif; font-size: 8pt; text-anchor: middle;">47</text><text class="barname" x="541.7058823529411" y="560" transform="rotate(90,541.7058823529411,560)  " style="font-family: sans-serif; font-size: 8pt; text-anchor: middle;">49</text><rect height="39.27399779748902" width="6.7973856209150325" x="41.69934640522876" y="500.726002202511" style="fill: rgb(0, 85, 255);"></rect><rect height="103.35262578286583" width="6.7973856209150325" x="51.89542483660131" y="436.64737421713414" style="fill: rgb(0, 85, 255);"></rect><rect height="133.27049114106384" width="6.7973856209150325" x="62.091503267973856" y="406.72950885893613" style="fill: rgb(0, 85, 255);"></rect><rect height="112.2277820135273" width="6.7973856209150325" x="72.2875816993464" y="427.7722179864727" style="fill: rgb(0, 85, 255);"></rect><rect height="69.40402308731302" width="6.7973856209150325" x="82.48366013071896" y="470.595976912687" style="fill: rgb(0, 85, 255);"></rect><rect height="33.60615854754115" width="6.7973856209150325" x="92.6797385620915" y="506.39384145245884" style="fill: rgb(0, 85, 255);"></rect><rect height="13.265588900345156" width="6.7973856209150325" x="102.87581699346404" y="526.7344110996548" style="fill: rgb(0, 85, 255);"></rect><rect height="4.388615876805904" width="6.7973856209150325" x="113.07189542483661" y="535.6113841231941" style="fill: rgb(0, 85, 255);"></rect><rect height="1.241516333570094" width="6.7973856209150325" x="123.26797385620915" y="538.7584836664299" style="fill: rgb(0, 85, 255);"></rect><rect height="0.3049338363154614" width="6.7973856209150325" x="133.4640522875817" y="539.6950661636845" style="fill: rgb(0, 85, 255);"></rect><rect height="0.06580151204702064" width="6.7973856209150325" x="143.66013071895424" y="539.9341984879529" style="fill: rgb(0, 85, 255);"></rect><rect height="0.012593590822396313" width="6.7973856209150325" x="153.8562091503268" y="539.9874064091777" style="fill: rgb(0, 85, 255);"></rect><rect height="0.0021541668511993605" width="6.7973856209150325" x="164.05228758169935" y="539.9978458331487" style="fill: rgb(0, 85, 255);"></rect><rect height="0.0003314102847999029" width="6.7973856209150325" x="174.2483660130719" y="539.9996685897152" style="fill: rgb(0, 85, 255);"></rect><rect height="0.00004609842307367085" width="6.7973856209150325" x="184.44444444444446" y="539.9999539015769" style="fill: rgb(0, 85, 255);"></rect><rect height="0.000005822958704042616" width="6.7973856209150325" x="194.640522875817" y="539.9999941770413" style="fill: rgb(0, 85, 255);"></rect><rect height="6.70406429741748e-7" width="6.7973856209150325" x="204.83660130718954" y="539.9999993295936" style="fill: rgb(0, 85, 255);"></rect><rect height="7.056909786755245e-8" width="6.7973856209150325" x="215.03267973856208" y="539.9999999294309" style="fill: rgb(0, 85, 255);"></rect><rect height="6.80929891704454e-9" width="6.7973856209150325" x="225.22875816993462" y="539.9999999931907" style="fill: rgb(0, 85, 255);"></rect><rect height="6.035943638377404e-10" width="6.7973856209150325" x="235.4248366013072" y="539.9999999993964" style="fill: rgb(0, 85, 255);"></rect><rect height="4.92405928393947e-11" width="6.7973856209150325" x="245.62091503267973" y="539.9999999999508" style="fill: rgb(0, 85, 255);"></rect><rect height="3.7023002134883405e-12" width="6.7973856209150325" x="255.81699346405227" y="539.9999999999962" style="fill: rgb(0, 85, 255);"></rect><rect height="2.5685814878268086e-13" width="6.7973856209150325" x="266.01307189542484" y="539.9999999999998" style="fill: rgb(0, 85, 255);"></rect><rect height="1.6457730356785226e-14" width="6.7973856209150325" x="276.2091503267974" y="540" style="fill: rgb(0, 85, 255);"></rect><rect height="9.744708763885805e-16" width="6.7973856209150325" x="286.4052287581699" y="540" style="fill: rgb(0, 85, 255);"></rect><rect height="5.3339458497059214e-17" width="6.7973856209150325" x="296.60130718954247" y="540" style="fill: rgb(0, 85, 255);"></rect><rect height="2.6993653085556355e-18" width="6.7973856209150325" x="306.797385620915" y="540" style="fill: rgb(0, 85, 255);"></rect><rect height="1.262860963066975e-19" width="6.7973856209150325" x="316.99346405228755" y="540" style="fill: rgb(0, 85, 255);"></rect><rect height="5.459737246342184e-21" width="6.7973856209150325" x="327.18954248366015" y="540" style="fill: rgb(0, 85, 255);"></rect><rect height="2.1799313869242874e-22" width="6.7973856209150325" x="337.3856209150327" y="540" style="fill: rgb(0, 85, 255);"></rect><rect height="8.031326162352662e-24" width="6.7973856209150325" x="347.58169934640523" y="540" style="fill: rgb(0, 85, 255);"></rect><rect height="2.727105657844732e-25" width="6.7973856209150325" x="357.77777777777777" y="540" style="fill: rgb(0, 85, 255);"></rect><rect height="8.522205180764708e-27" width="6.7973856209150325" x="367.9738562091503" y="540" style="fill: rgb(0, 85, 255);"></rect><rect height="2.4465660806022642e-28" width="6.7973856209150325" x="378.16993464052285" y="540" style="fill: rgb(0, 85, 255);"></rect><rect height="6.438331791058704e-30" width="6.7973856209150325" x="388.3660130718954" y="540" style="fill: rgb(0, 85, 255);"></rect><rect height="1.5490723106306457e-31" width="6.7973856209150325" x="398.56209150326794" y="540" style="fill: rgb(0, 85, 255);"></rect><rect height="3.3970884005058255e-33" width="6.7973856209150325" x="408.7581699346405" y="540" style="fill: rgb(0, 85, 255);"></rect><rect height="6.765183158901981e-35" width="6.7973856209150325" x="418.9542483660131" y="540" style="fill: rgb(0, 85, 255);"></rect><rect height="1.2181077709934508e-36" width="6.7973856209150325" x="429.1503267973856" y="540" style="fill: rgb(0, 85, 255);"></rect><rect height="1.9726441635521243e-38" width="6.7973856209150325" x="439.34640522875816" y="540" style="fill: rgb(0, 85, 255);"></rect><rect height="2.8551428682991443e-40" width="6.7973856209150325" x="449.5424836601307" y="540" style="fill: rgb(0, 85, 255);"></rect><rect height="3.665138470217138e-42" width="6.7973856209150325" x="459.73856209150324" y="540" style="fill: rgb(0, 85, 255);"></rect><rect height="4.133614816034393e-44" width="6.7973856209150325" x="469.9346405228758" y="540" style="fill: rgb(0, 85, 255);"></rect><rect height="4.04760324703492e-46" width="6.7973856209150325" x="480.1307189542483" y="540" style="fill: rgb(0, 85, 255);"></rect><rect height="3.389141474789962e-48" width="6.7973856209150325" x="490.3267973856209" y="540" style="fill: rgb(0, 85, 255);"></rect><rect height="2.3783448945894637e-50" width="6.7973856209150325" x="500.52287581699346" y="540" style="fill: rgb(0, 85, 255);"></rect><rect height="1.3606092074310231e-52" width="6.7973856209150325" x="510.718954248366" y="540" style="fill: rgb(0, 85, 255);"></rect><rect height="6.0945541206317134e-55" width="6.7973856209150325" x="520.9150326797385" y="540" style="fill: rgb(0, 85, 255);"></rect><rect height="2.0047875396814522e-57" width="6.7973856209150325" x="531.1111111111111" y="540" style="fill: rgb(0, 85, 255);"></rect><rect height="4.306740149691642e-60" width="6.7973856209150325" x="541.3071895424836" y="540" style="fill: rgb(0, 85, 255);"></rect><rect height="4.533410683886123e-63" width="6.7973856209150325" x="551.5032679738562" y="540" style="fill: rgb(0, 85, 255);"></rect></svg>