<svg xmlns="http://www.w3.org/2000/svg" id="chart" width="600" height="600"> <text x="40" y="25" style="font-size: 13pt; stroke: blue; text-anchor: start;">HyperGeometric Distribution N = 30, D = 5, n = 10</text><text x="260" y="580" style="font-family: sans-serif; font-size: 9pt; stroke: rgb(0, 85, 255); text-anchor: middle;">Mean = 1.67,  Std Dev = 1.18</text><g transform="translate(40,50)" fill="none" font-size="10" font-family="sans-serif" text-anchor="end"><path class="domain" stroke="#000" d="M-6,0.5H0.5V490.5H-6"></path><g class="tick" opacity="1" transform="translate(0,14.111111111111143)"><line stroke="#000" x2="-6"></line><text fill="#000" x="-9" dy="0.32em">0.7</text></g><g class="tick" opacity="1" transform="translate(0,82.16666666666663)"><line stroke="#000" x2="-6"></line><text fill="#000" x="-9" dy="0.32em">0.6</text></g><g class="tick" opacity="1" transform="translate(0,150.22222222222223)"><line stroke="#000" x2="-6"></line><text fill="#000" x="-9" dy="0.32em">0.5</text></g><g class="tick" opacity="1" transform="translate(0,218.27777777777777)"><line stroke="#000" x2="-6"></line><text fill="#000" x="-9" dy="0.32em">0.4</text></g><g class="tick" opacity="1" transform="translate(0,286.3333333333333)"><line stroke="#000" x2="-6"></line><text fill="#000" x="-9" dy="0.32em">0.3</text></g><g class="tick" opacity="1" transform="translate(0,354.3888888888889)"><line stroke="#000" x2="-6"></line><text fill="#000" x="-9" dy="0.32em">0.2</text></g><g class="tick" opacity="1" transform="translate(0,422.44444444444446)"><line stroke="#000" x2="-6"></line><text fill="#000" x="-9" dy="0.32em">0.1</text></g><g class="tick" opacity="1" transform="translate(0,490.5)"><line stroke="#000" x2="-6"></line><text fill="#000" x="-9" dy="0.32em">0.0</text></g></g><line x1="40" y1="540" x2="560" y2="540" style="stroke: black;"></line><text class="barname" x="60.63636363636363" y="560" transform="rotate(30,60.63636363636363,560)  " style="font-family: sans-serif; font-size: 8pt; text-anchor: middle;">0</text><text class="barname" x="107.9090909090909" y="560" transform="rotate(30,107.9090909090909,560)  " style="font-family: sans-serif; font-size: 8pt; text-anchor: middle;">1</text><text class="barname" x="155.1818181818182" y="560" transform="rotate(30,155.1818181818182,560)  " style="font-family: sans-serif; font-size: 8pt; text-anchor: middle;">2</text><text class="barname" x="202.45454545454544" y="560" transform="rotate(30,202.45454545454544,560)  " style="font-family: sans-serif; font-size: 8pt; text-anchor: middle;">3</text><text class="barname" x="249.72727272727272" y="560" transform="rotate(30,249.72727272727272,560)  " style="font-family: sans-serif; font-size: 8pt; text-anchor: middle;">4</text><text class="barname" x="297" y="560" transform="rotate(30,297,560)  " style="font-family: sans-serif; font-size: 8pt; text-anchor: middle;">5</text><text class="barname" x="344.27272727272725" y="560" transform="rotate(30,344.27272727272725,560)  " style="font-family: sans-serif; font-size: 8pt; text-anchor: middle;">6</text><text class="barname" x="391.54545454545456" y="560" transform="rotate(30,391.54545454545456,560)  " style="font-family: sans-serif; font-size: 8pt; text-anchor: middle;">7</text><text class="barname" x="438.8181818181818" y="560" transform="rotate(30,438.8181818181818,560)  " style="font-family: sans-serif; font-size: 8pt; text-anchor: middle;">8</text><text class="barname" x="486.09090909090907" y="560" transform="rotate(30,486.09090909090907,560)  " style="font-family: sans-serif; font-size: 8pt; text-anchor: middle;">9</text><text class="barname" x="533.3636363636364" y="560" transform="rotate(30,533.3636363636364,560)  " style="font-family: sans-serif; font-size: 8pt; text-anchor: middle;">10</text><rect height="74.04132691489013" width="31.515151515151516" x="47.878787878787875" y="465.95867308510987" style="fill: rgb(0, 85, 255);"></rect><rect height="231.37914660903166" width="31.515151515151516" x="95.15151515151516" y="308.62085339096836" style="fill: rgb(0, 85, 255);"></rect><rect height="244.98968464485705" width="31.515151515151516" x="142.42424242424244" y="295.01031535514295" style="fill: rgb(0, 85, 255);"></rect><rect height="108.88430428660314" width="31.515151515151516" x="189.6969696969697" y="431.11569571339686" style="fill: rgb(0, 85, 255);"></rect><rect height="20.057635000163735" width="31.515151515151516" x="236.96969696969697" y="519.9423649998363" style="fill: rgb(0, 85, 255);"></rect><rect height="1.2034581000098243" width="31.515151515151516" x="284.24242424242425" y="538.7965418999902" style="fill: rgb(0, 85, 255);"></rect><rect height="0" width="31.515151515151516" x="331.5151515151515" y="540" style="fill: rgb(0, 85, 255);"></rect><rect height="0" width="31.515151515151516" x="378.7878787878788" y="540" style="fill: rgb(0, 85, 255);"></rect><rect height="0" width="31.515151515151516" x="426.06060606060606" y="540" style="fill: rgb(0, 85, 255);"></rect><rect height="0" width="31.515151515151516" x="473.3333333333333" y="540" style="fill: rgb(0, 85, 255);"></rect><rect height="0" width="31.515151515151516" x="520.6060606060606" y="540" style="fill: rgb(0, 85, 255);"></rect></svg>