<svg xmlns="http://www.w3.org/2000/svg" id="SVG" width="600" height="560"><text x="290" y="50" style="font-size: 17px; font-family: sans-seirf; stroke: black; text-anchor: middle;">(Factor1 : Grade)  Score  Analysis of Variance</text><text x="300" y="80" style="stroke: green; font-size: 9pt; font-family: sans-serif; text-anchor: middle;">H₀: μ₁ = μ₂ = ... = μₖ</text><text x="300" y="100" style="stroke: green; font-size: 9pt; font-family: sans-serif; text-anchor: middle;">[TestStat] = (SSTr/(k-1)) / (SSE/(n-k))  ~  F(3,17) Distribution</text><g transform="translate(100,460)" fill="none" font-size="10" font-family="sans-serif" text-anchor="middle"><path class="domain" stroke="#000" d="M0.5,6V0.5H400.5V6"></path><g class="tick" opacity="1" transform="translate(0.5,0)"><line stroke="#000" y2="6"></line><text fill="#000" y="9" dy="0.71em">0</text></g><g class="tick" opacity="1" transform="translate(40.5,0)"><line stroke="#000" y2="6"></line><text fill="#000" y="9" dy="0.71em">1</text></g><g class="tick" opacity="1" transform="translate(80.5,0)"><line stroke="#000" y2="6"></line><text fill="#000" y="9" dy="0.71em">2</text></g><g class="tick" opacity="1" transform="translate(120.5,0)"><line stroke="#000" y2="6"></line><text fill="#000" y="9" dy="0.71em">3</text></g><g class="tick" opacity="1" transform="translate(160.5,0)"><line stroke="#000" y2="6"></line><text fill="#000" y="9" dy="0.71em">4</text></g><g class="tick" opacity="1" transform="translate(200.5,0)"><line stroke="#000" y2="6"></line><text fill="#000" y="9" dy="0.71em">5</text></g><g class="tick" opacity="1" transform="translate(240.5,0)"><line stroke="#000" y2="6"></line><text fill="#000" y="9" dy="0.71em">6</text></g><g class="tick" opacity="1" transform="translate(280.5,0)"><line stroke="#000" y2="6"></line><text fill="#000" y="9" dy="0.71em">7</text></g><g class="tick" opacity="1" transform="translate(320.5,0)"><line stroke="#000" y2="6"></line><text fill="#000" y="9" dy="0.71em">8</text></g><g class="tick" opacity="1" transform="translate(360.5,0)"><line stroke="#000" y2="6"></line><text fill="#000" y="9" dy="0.71em">9</text></g><g class="tick" opacity="1" transform="translate(400.5,0)"><line stroke="#000" y2="6"></line><text fill="#000" y="9" dy="0.71em">10</text></g></g><g transform="translate(100,100)" fill="none" font-size="10" font-family="sans-serif" text-anchor="end"><path class="domain" stroke="#000" d="M-6,0.5H0.5V360.5H-6"></path><g class="tick" opacity="1" transform="translate(0,0.5)"><line stroke="#000" x2="-6"></line><text fill="#000" x="-9" dy="0.32em">1.8</text></g><g class="tick" opacity="1" transform="translate(0,40.5)"><line stroke="#000" x2="-6"></line><text fill="#000" x="-9" dy="0.32em">1.6</text></g><g class="tick" opacity="1" transform="translate(0,80.50000000000006)"><line stroke="#000" x2="-6"></line><text fill="#000" x="-9" dy="0.32em">1.4</text></g><g class="tick" opacity="1" transform="translate(0,120.5)"><line stroke="#000" x2="-6"></line><text fill="#000" x="-9" dy="0.32em">1.2</text></g><g class="tick" opacity="1" transform="translate(0,160.5)"><line stroke="#000" x2="-6"></line><text fill="#000" x="-9" dy="0.32em">1.0</text></g><g class="tick" opacity="1" transform="translate(0,200.5)"><line stroke="#000" x2="-6"></line><text fill="#000" x="-9" dy="0.32em">0.8</text></g><g class="tick" opacity="1" transform="translate(0,240.5)"><line stroke="#000" x2="-6"></line><text fill="#000" x="-9" dy="0.32em">0.6</text></g><g class="tick" opacity="1" transform="translate(0,280.5)"><line stroke="#000" x2="-6"></line><text fill="#000" x="-9" dy="0.32em">0.4</text></g><g class="tick" opacity="1" transform="translate(0,320.5)"><line stroke="#000" x2="-6"></line><text fill="#000" x="-9" dy="0.32em">0.2</text></g><g class="tick" opacity="1" transform="translate(0,360.5)"><line stroke="#000" x2="-6"></line><text fill="#000" x="-9" dy="0.32em">0.0</text></g></g><line x1="100" y1="460" x2="101" y2="394.54925318097895" style="stroke: black; stroke-width: 2px;"></line><line x1="101" y1="394.54925318097895" x2="102" y2="371.40780053784107" style="stroke: black; stroke-width: 2px;"></line><line x1="102" y1="371.40780053784107" x2="103" y2="356.13001916568544" style="stroke: black; stroke-width: 2px;"></line><line x1="103" y1="356.13001916568544" x2="104" y2="345.16065830043635" style="stroke: black; stroke-width: 2px;"></line><line x1="104" y1="345.16065830043635" x2="105" y2="337.0414878236055" style="stroke: black; stroke-width: 2px;"></line><line x1="105" y1="337.0414878236055" x2="106" y2="330.98415767832523" style="stroke: black; stroke-width: 2px;"></line><line x1="106" y1="330.98415767832523" x2="107" y2="326.4971664501042" style="stroke: black; stroke-width: 2px;"></line><line x1="107" y1="326.4971664501042" x2="108" y2="323.24599774980845" style="stroke: black; stroke-width: 2px;"></line><line x1="108" y1="323.24599774980845" x2="109" y2="320.9891304564332" style="stroke: black; stroke-width: 2px;"></line><line x1="109" y1="320.9891304564332" x2="110" y2="319.54469213699855" style="stroke: black; stroke-width: 2px;"></line><line x1="110" y1="319.54469213699855" x2="111" y2="318.7713891736185" style="stroke: black; stroke-width: 2px;"></line><line x1="111" y1="318.7713891736185" x2="112" y2="318.55680979552096" style="stroke: black; stroke-width: 2px;"></line><line x1="112" y1="318.55680979552096" x2="113" y2="318.8098448285723" style="stroke: black; stroke-width: 2px;"></line><line x1="113" y1="318.8098448285723" x2="114" y2="319.45555484043155" style="stroke: black; stroke-width: 2px;"></line><line x1="114" y1="319.45555484043155" x2="115" y2="320.4315655465201" style="stroke: black; stroke-width: 2px;"></line><line x1="115" y1="320.4315655465201" x2="116" y2="321.68545851070314" style="stroke: black; stroke-width: 2px;"></line><line x1="116" y1="321.68545851070314" x2="117" y2="323.1728332185186" style="stroke: black; stroke-width: 2px;"></line><line x1="117" y1="323.1728332185186" x2="118" y2="324.8558358393143" style="stroke: black; stroke-width: 2px;"></line><line x1="118" y1="324.8558358393143" x2="119" y2="326.7020209418024" style="stroke: black; stroke-width: 2px;"></line><line x1="119" y1="326.7020209418024" x2="120" y2="328.6834562066218" style="stroke: black; stroke-width: 2px;"></line><line x1="120" y1="328.6834562066218" x2="121" y2="330.7760080637307" style="stroke: black; stroke-width: 2px;"></line><line x1="121" y1="330.7760080637307" x2="122" y2="332.9587644450179" style="stroke: black; stroke-width: 2px;"></line><line x1="122" y1="332.9587644450179" x2="123" y2="335.21356310311256" style="stroke: black; stroke-width: 2px;"></line><line x1="123" y1="335.21356310311256" x2="124" y2="337.5246023625783" style="stroke: black; stroke-width: 2px;"></line><line x1="124" y1="337.5246023625783" x2="125" y2="339.8781170616146" style="stroke: black; stroke-width: 2px;"></line><line x1="125" y1="339.8781170616146" x2="126.00000000000001" y2="342.2621066425657" style="stroke: black; stroke-width: 2px;"></line><line x1="126.00000000000001" y1="342.2621066425657" x2="127.00000000000001" y2="344.66610539311506" style="stroke: black; stroke-width: 2px;"></line><line x1="127.00000000000001" y1="344.66610539311506" x2="128" y2="347.0809870787224" style="stroke: black; stroke-width: 2px;"></line><line x1="128" y1="347.0809870787224" x2="129" y2="349.49879787622456" style="stroke: black; stroke-width: 2px;"></line><line x1="129" y1="349.49879787622456" x2="130" y2="351.9126127791536" style="stroke: black; stroke-width: 2px;"></line><line x1="130" y1="351.9126127791536" x2="131" y2="354.3164116084506" style="stroke: black; stroke-width: 2px;"></line><line x1="131" y1="354.3164116084506" x2="132" y2="356.70497150604615" style="stroke: black; stroke-width: 2px;"></line><line x1="132" y1="356.70497150604615" x2="133" y2="359.0737733689786" style="stroke: black; stroke-width: 2px;"></line><line x1="133" y1="359.0737733689786" x2="134" y2="361.4189201385242" style="stroke: black; stroke-width: 2px;"></line><line x1="134" y1="361.4189201385242" x2="135" y2="363.73706522160063" style="stroke: black; stroke-width: 2px;"></line><line x1="135" y1="363.73706522160063" x2="136" y2="366.02534961217657" style="stroke: black; stroke-width: 2px;"></line><line x1="136" y1="366.02534961217657" x2="137" y2="368.28134651474113" style="stroke: black; stroke-width: 2px;"></line><line x1="137" y1="368.28134651474113" x2="138.00000000000003" y2="370.5030124622736" style="stroke: black; stroke-width: 2px;"></line><line x1="138.00000000000003" y1="370.5030124622736" x2="139.00000000000003" y2="372.6886440768615" style="stroke: black; stroke-width: 2px;"></line><line x1="139.00000000000003" y1="372.6886440768615" x2="140" y2="374.83683974926487" style="stroke: black; stroke-width: 2px;"></line><line x1="140" y1="374.83683974926487" x2="141" y2="376.9464656198129" style="stroke: black; stroke-width: 2px;"></line><line x1="141" y1="376.9464656198129" x2="142" y2="379.0166253313253" style="stroke: black; stroke-width: 2px;"></line><line x1="142" y1="379.0166253313253" x2="143" y2="381.04663309864117" style="stroke: black; stroke-width: 2px;"></line><line x1="143" y1="381.04663309864117" x2="144" y2="383.0359897014671" style="stroke: black; stroke-width: 2px;"></line><line x1="144" y1="383.0359897014671" x2="145" y2="384.98436105973894" style="stroke: black; stroke-width: 2px;"></line><line x1="145" y1="384.98436105973894" x2="146" y2="386.8915590952132" style="stroke: black; stroke-width: 2px;"></line><line x1="146" y1="386.8915590952132" x2="147" y2="388.7575246209344" style="stroke: black; stroke-width: 2px;"></line><line x1="147" y1="388.7575246209344" x2="148" y2="390.58231203265825" style="stroke: black; stroke-width: 2px;"></line><line x1="148" y1="390.58231203265825" x2="149" y2="392.3660756041496" style="stroke: black; stroke-width: 2px;"></line><line x1="149" y1="392.3660756041496" x2="150" y2="394.10905721224805" style="stroke: black; stroke-width: 2px;"></line><line x1="150" y1="394.10905721224805" x2="150.99999999999997" y2="395.8115753383117" style="stroke: black; stroke-width: 2px;"></line><line x1="150.99999999999997" y1="395.8115753383117" x2="151.99999999999997" y2="397.4740152106041" style="stroke: black; stroke-width: 2px;"></line><line x1="151.99999999999997" y1="397.4740152106041" x2="152.99999999999997" y2="399.0968199677957" style="stroke: black; stroke-width: 2px;"></line><line x1="152.99999999999997" y1="399.0968199677957" x2="153.99999999999997" y2="400.68048273735667" style="stroke: black; stroke-width: 2px;"></line><line x1="153.99999999999997" y1="400.68048273735667" x2="154.99999999999997" y2="402.22553953450614" style="stroke: black; stroke-width: 2px;"></line><line x1="154.99999999999997" y1="402.22553953450614" x2="155.99999999999997" y2="403.7325628977974" style="stroke: black; stroke-width: 2px;"></line><line x1="155.99999999999997" y1="403.7325628977974" x2="156.99999999999994" y2="405.2021561865664" style="stroke: black; stroke-width: 2px;"></line><line x1="156.99999999999994" y1="405.2021561865664" x2="157.99999999999994" y2="406.6349484735202" style="stroke: black; stroke-width: 2px;"></line><line x1="157.99999999999994" y1="406.6349484735202" x2="158.99999999999994" y2="408.03158997283714" style="stroke: black; stroke-width: 2px;"></line><line x1="158.99999999999994" y1="408.03158997283714" x2="159.99999999999994" y2="409.39274795043025" style="stroke: black; stroke-width: 2px;"></line><line x1="159.99999999999994" y1="409.39274795043025" x2="160.99999999999994" y2="410.7191030685728" style="stroke: black; stroke-width: 2px;"></line><line x1="160.99999999999994" y1="410.7191030685728" x2="161.99999999999994" y2="412.0113461220145" style="stroke: black; stroke-width: 2px;"></line><line x1="161.99999999999994" y1="412.0113461220145" x2="162.99999999999994" y2="413.27017512709165" style="stroke: black; stroke-width: 2px;"></line><line x1="162.99999999999994" y1="413.27017512709165" x2="163.99999999999994" y2="414.4962927292292" style="stroke: black; stroke-width: 2px;"></line><line x1="163.99999999999994" y1="414.4962927292292" x2="164.99999999999994" y2="415.69040389770345" style="stroke: black; stroke-width: 2px;"></line><line x1="164.99999999999994" y1="415.69040389770345" x2="165.99999999999991" y2="416.853213879631" style="stroke: black; stroke-width: 2px;"></line><line x1="165.99999999999991" y1="416.853213879631" x2="166.99999999999991" y2="417.98542638791844" style="stroke: black; stroke-width: 2px;"></line><line x1="166.99999999999991" y1="417.98542638791844" x2="167.99999999999991" y2="419.08774200038454" style="stroke: black; stroke-width: 2px;"></line><line x1="167.99999999999991" y1="419.08774200038454" x2="168.99999999999991" y2="420.1608567494862" style="stroke: black; stroke-width: 2px;"></line><line x1="168.99999999999991" y1="420.1608567494862" x2="169.99999999999991" y2="421.20546088407104" style="stroke: black; stroke-width: 2px;"></line><line x1="169.99999999999991" y1="421.20546088407104" x2="170.99999999999991" y2="422.22223778636754" style="stroke: black; stroke-width: 2px;"></line><line x1="170.99999999999991" y1="422.22223778636754" x2="171.99999999999991" y2="423.2118630290291" style="stroke: black; stroke-width: 2px;"></line><line x1="171.99999999999991" y1="423.2118630290291" x2="172.9999999999999" y2="424.17500355850024" style="stroke: black; stroke-width: 2px;"></line><line x1="172.9999999999999" y1="424.17500355850024" x2="173.9999999999999" y2="425.1123169922698" style="stroke: black; stroke-width: 2px;"></line><line x1="173.9999999999999" y1="425.1123169922698" x2="174.9999999999999" y2="426.0244510187546" style="stroke: black; stroke-width: 2px;"></line><line x1="174.9999999999999" y1="426.0244510187546" x2="175.9999999999999" y2="426.91204288961643" style="stroke: black; stroke-width: 2px;"></line><line x1="175.9999999999999" y1="426.91204288961643" x2="176.9999999999999" y2="427.77571899527135" style="stroke: black; stroke-width: 2px;"></line><line x1="176.9999999999999" y1="427.77571899527135" x2="177.9999999999999" y2="428.61609451521537" style="stroke: black; stroke-width: 2px;"></line><line x1="177.9999999999999" y1="428.61609451521537" x2="178.9999999999999" y2="429.43377313557437" style="stroke: black; stroke-width: 2px;"></line><line x1="178.9999999999999" y1="429.43377313557437" x2="179.9999999999999" y2="430.2293468269911" style="stroke: black; stroke-width: 2px;"></line><line x1="179.9999999999999" y1="430.2293468269911" x2="180.9999999999999" y2="431.0033956766067" style="stroke: black; stroke-width: 2px;"></line><line x1="180.9999999999999" y1="431.0033956766067" x2="181.99999999999986" y2="431.75648776847095" style="stroke: black; stroke-width: 2px;"></line><line x1="181.99999999999986" y1="431.75648776847095" x2="182.99999999999986" y2="432.48917910724555" style="stroke: black; stroke-width: 2px;"></line><line x1="182.99999999999986" y1="432.48917910724555" x2="183.99999999999986" y2="433.20201358054004" style="stroke: black; stroke-width: 2px;"></line><line x1="183.99999999999986" y1="433.20201358054004" x2="184.99999999999986" y2="433.89552295565437" style="stroke: black; stroke-width: 2px;"></line><line x1="184.99999999999986" y1="433.89552295565437" x2="185.99999999999986" y2="434.57022690689445" style="stroke: black; stroke-width: 2px;"></line><line x1="185.99999999999986" y1="434.57022690689445" x2="186.99999999999986" y2="435.2266330699862" style="stroke: black; stroke-width: 2px;"></line><line x1="186.99999999999986" y1="435.2266330699862" x2="187.99999999999986" y2="435.86523712043635" style="stroke: black; stroke-width: 2px;"></line><line x1="187.99999999999986" y1="435.86523712043635" x2="188.99999999999983" y2="436.4865228729847" style="stroke: black; stroke-width: 2px;"></line><line x1="188.99999999999983" y1="436.4865228729847" x2="189.99999999999983" y2="437.09096239956006" style="stroke: black; stroke-width: 2px;"></line><line x1="189.99999999999983" y1="437.09096239956006" x2="190.99999999999983" y2="437.6790161633962" style="stroke: black; stroke-width: 2px;"></line><line x1="190.99999999999983" y1="437.6790161633962" x2="191.99999999999983" y2="438.25113316718733" style="stroke: black; stroke-width: 2px;"></line><line x1="191.99999999999983" y1="438.25113316718733" x2="192.99999999999983" y2="438.80775111336186" style="stroke: black; stroke-width: 2px;"></line><line x1="192.99999999999983" y1="438.80775111336186" x2="193.99999999999983" y2="439.3492965747404" style="stroke: black; stroke-width: 2px;"></line><line x1="193.99999999999983" y1="439.3492965747404" x2="194.99999999999983" y2="439.876185174008" style="stroke: black; stroke-width: 2px;"></line><line x1="194.99999999999983" y1="439.876185174008" x2="195.99999999999983" y2="440.38882177058616" style="stroke: black; stroke-width: 2px;"></line><line x1="195.99999999999983" y1="440.38882177058616" x2="196.99999999999983" y2="440.887600653625" style="stroke: black; stroke-width: 2px;"></line><line x1="196.99999999999983" y1="440.887600653625" x2="197.9999999999998" y2="441.3729057399659" style="stroke: black; stroke-width: 2px;"></line><line x1="197.9999999999998" y1="441.3729057399659" x2="198.9999999999998" y2="441.8451107760378" style="stroke: black; stroke-width: 2px;"></line><line x1="198.9999999999998" y1="441.8451107760378" x2="199.9999999999998" y2="442.30457954275437" style="stroke: black; stroke-width: 2px;"></line><line x1="199.9999999999998" y1="442.30457954275437" x2="200.9999999999998" y2="442.75166606257665" style="stroke: black; stroke-width: 2px;"></line><line x1="200.9999999999998" y1="442.75166606257665" x2="201.9999999999998" y2="443.186714807991" style="stroke: black; stroke-width: 2px;"></line><line x1="201.9999999999998" y1="443.186714807991" x2="202.9999999999998" y2="443.61006091073034" style="stroke: black; stroke-width: 2px;"></line><line x1="202.9999999999998" y1="443.61006091073034" x2="203.9999999999998" y2="444.02203037114106" style="stroke: black; stroke-width: 2px;"></line><line x1="203.9999999999998" y1="444.02203037114106" x2="204.9999999999998" y2="444.42294026716047" style="stroke: black; stroke-width: 2px;"></line><line x1="204.9999999999998" y1="444.42294026716047" x2="205.99999999999977" y2="444.8130989624308" style="stroke: black; stroke-width: 2px;"></line><line x1="205.99999999999977" y1="444.8130989624308" x2="206.99999999999977" y2="445.1928063131293" style="stroke: black; stroke-width: 2px;"></line><line x1="206.99999999999977" y1="445.1928063131293" x2="207.99999999999977" y2="445.5623538731432" style="stroke: black; stroke-width: 2px;"></line><line x1="207.99999999999977" y1="445.5623538731432" x2="208.99999999999977" y2="445.9220250972623" style="stroke: black; stroke-width: 2px;"></line><line x1="208.99999999999977" y1="445.9220250972623" x2="209.99999999999977" y2="446.27209554210367" style="stroke: black; stroke-width: 2px;"></line><line x1="209.99999999999977" y1="446.27209554210367" x2="210.99999999999977" y2="446.6128330645186" style="stroke: black; stroke-width: 2px;"></line><line x1="210.99999999999977" y1="446.6128330645186" x2="211.99999999999977" y2="446.94449801726574" style="stroke: black; stroke-width: 2px;"></line><line x1="211.99999999999977" y1="446.94449801726574" x2="212.99999999999974" y2="447.26734344176504" style="stroke: black; stroke-width: 2px;"></line><line x1="212.99999999999974" y1="447.26734344176504" x2="213.99999999999974" y2="447.5816152577732" style="stroke: black; stroke-width: 2px;"></line><line x1="213.99999999999974" y1="447.5816152577732" x2="214.99999999999974" y2="447.88755244984804" style="stroke: black; stroke-width: 2px;"></line><line x1="214.99999999999974" y1="447.88755244984804" x2="215.99999999999974" y2="448.1853872504897" style="stroke: black; stroke-width: 2px;"></line><line x1="215.99999999999974" y1="448.1853872504897" x2="216.99999999999974" y2="448.47534531986844" style="stroke: black; stroke-width: 2px;"></line><line x1="216.99999999999974" y1="448.47534531986844" x2="217.99999999999974" y2="448.75764592206525" style="stroke: black; stroke-width: 2px;"></line><line x1="217.99999999999974" y1="448.75764592206525" x2="218.99999999999972" y2="449.0325020977709" style="stroke: black; stroke-width: 2px;"></line><line x1="218.99999999999972" y1="449.0325020977709" x2="219.99999999999972" y2="449.3001208333998" style="stroke: black; stroke-width: 2px;"></line><line x1="219.99999999999972" y1="449.3001208333998" x2="220.99999999999972" y2="449.5607032265921" style="stroke: black; stroke-width: 2px;"></line><line x1="220.99999999999972" y1="449.5607032265921" x2="221.99999999999972" y2="449.81444464808794" style="stroke: black; stroke-width: 2px;"></line><line x1="221.99999999999972" y1="449.81444464808794" x2="222.99999999999972" y2="450.0615348999666" style="stroke: black; stroke-width: 2px;"></line><line x1="222.99999999999972" y1="450.0615348999666" x2="223.99999999999972" y2="450.3021583702573" style="stroke: black; stroke-width: 2px;"></line><line x1="223.99999999999972" y1="450.3021583702573" x2="224.99999999999972" y2="450.5364941839317" style="stroke: black; stroke-width: 2px;"></line><line x1="224.99999999999972" y1="450.5364941839317" x2="225.99999999999972" y2="450.76471635030026" style="stroke: black; stroke-width: 2px;"></line><line x1="225.99999999999972" y1="450.76471635030026" x2="226.99999999999972" y2="450.98699390683726" style="stroke: black; stroke-width: 2px;"></line><line x1="226.99999999999972" y1="450.98699390683726" x2="227.99999999999972" y2="451.20349105946946" style="stroke: black; stroke-width: 2px;"></line><line x1="227.99999999999972" y1="451.20349105946946" x2="228.99999999999972" y2="451.41436731936403" style="stroke: black; stroke-width: 2px;"></line><line x1="228.99999999999972" y1="451.41436731936403" x2="229.99999999999972" y2="451.61977763626015" style="stroke: black; stroke-width: 2px;"></line><line x1="229.99999999999972" y1="451.61977763626015" x2="230.99999999999972" y2="451.8198725283891" style="stroke: black; stroke-width: 2px;"></line><line x1="230.99999999999972" y1="451.8198725283891" x2="231.9999999999997" y2="452.01479820903376" style="stroke: black; stroke-width: 2px;"></line><line x1="231.9999999999997" y1="452.01479820903376" x2="232.9999999999997" y2="452.2046967097792" style="stroke: black; stroke-width: 2px;"></line><line x1="232.9999999999997" y1="452.2046967097792" x2="233.9999999999997" y2="452.3897060005109" style="stroke: black; stroke-width: 2px;"></line><line x1="233.9999999999997" y1="452.3897060005109" x2="234.9999999999997" y2="452.569960106216" style="stroke: black; stroke-width: 2px;"></line><line x1="234.9999999999997" y1="452.569960106216" x2="235.9999999999997" y2="452.74558922064836" style="stroke: black; stroke-width: 2px;"></line><line x1="235.9999999999997" y1="452.74558922064836" x2="236.9999999999997" y2="452.91671981691627" style="stroke: black; stroke-width: 2px;"></line><line x1="236.9999999999997" y1="452.91671981691627" x2="237.99999999999966" y2="453.08347475505565" style="stroke: black; stroke-width: 2px;"></line><line x1="237.99999999999966" y1="453.08347475505565" x2="238.99999999999966" y2="453.2459733866492" style="stroke: black; stroke-width: 2px;"></line><line x1="238.99999999999966" y1="453.2459733866492" x2="239.99999999999966" y2="453.4043316565564" style="stroke: black; stroke-width: 2px;"></line><line x1="239.99999999999966" y1="453.4043316565564" x2="240.99999999999966" y2="453.5586622018152" style="stroke: black; stroke-width: 2px;"></line><line x1="240.99999999999966" y1="453.5586622018152" x2="241.99999999999966" y2="453.70907444778135" style="stroke: black; stroke-width: 2px;"></line><line x1="241.99999999999966" y1="453.70907444778135" x2="242.99999999999966" y2="453.8556747015661" style="stroke: black; stroke-width: 2px;"></line><line x1="242.99999999999966" y1="453.8556747015661" x2="243.99999999999966" y2="453.99856624283734" style="stroke: black; stroke-width: 2px;"></line><line x1="243.99999999999966" y1="453.99856624283734" x2="244.99999999999963" y2="454.13784941204625" style="stroke: black; stroke-width: 2px;"></line><line x1="244.99999999999963" y1="454.13784941204625" x2="245.99999999999963" y2="454.27362169614173" style="stroke: black; stroke-width: 2px;"></line><line x1="245.99999999999963" y1="454.27362169614173" x2="246.99999999999963" y2="454.40597781183516" style="stroke: black; stroke-width: 2px;"></line><line x1="246.99999999999963" y1="454.40597781183516" x2="247.99999999999963" y2="454.53500978647634" style="stroke: black; stroke-width: 2px;"></line><line x1="247.99999999999963" y1="454.53500978647634" x2="248.99999999999963" y2="454.660807036601" style="stroke: black; stroke-width: 2px;"></line><line x1="248.99999999999963" y1="454.660807036601" x2="249.99999999999963" y2="454.7834564442104" style="stroke: black; stroke-width: 2px;"></line><line x1="249.99999999999963" y1="454.7834564442104" x2="250.9999999999996" y2="454.9030424308414" style="stroke: black; stroke-width: 2px;"></line><line x1="250.9999999999996" y1="454.9030424308414" x2="251.9999999999996" y2="455.01964702948493" style="stroke: black; stroke-width: 2px;"></line><line x1="251.9999999999996" y1="455.01964702948493" x2="252.9999999999996" y2="455.13334995441033" style="stroke: black; stroke-width: 2px;"></line><line x1="252.9999999999996" y1="455.13334995441033" x2="253.9999999999996" y2="455.24422866895196" style="stroke: black; stroke-width: 2px;"></line><line x1="253.9999999999996" y1="455.24422866895196" x2="254.9999999999996" y2="455.3523584513122" style="stroke: black; stroke-width: 2px;"></line><line x1="254.9999999999996" y1="455.3523584513122" x2="255.9999999999996" y2="455.457812458436" style="stroke: black; stroke-width: 2px;"></line><line x1="255.9999999999996" y1="455.457812458436" x2="256.9999999999996" y2="455.56066178800904" style="stroke: black; stroke-width: 2px;"></line><line x1="256.9999999999996" y1="455.56066178800904" x2="257.9999999999996" y2="455.66097553863204" style="stroke: black; stroke-width: 2px;"></line><line x1="257.9999999999996" y1="455.66097553863204" x2="258.9999999999996" y2="455.7588208682219" style="stroke: black; stroke-width: 2px;"></line><line x1="258.9999999999996" y1="455.7588208682219" x2="259.9999999999996" y2="455.8542630506889" style="stroke: black; stroke-width: 2px;"></line><line x1="259.9999999999996" y1="455.8542630506889" x2="260.9999999999996" y2="455.9473655309397" style="stroke: black; stroke-width: 2px;"></line><line x1="260.9999999999996" y1="455.9473655309397" x2="261.9999999999996" y2="456.0381899782516" style="stroke: black; stroke-width: 2px;"></line><line x1="261.9999999999996" y1="456.0381899782516" x2="262.9999999999996" y2="456.1267963380673" style="stroke: black; stroke-width: 2px;"></line><line x1="262.9999999999996" y1="456.1267963380673" x2="263.99999999999966" y2="456.2132428822526" style="stroke: black; stroke-width: 2px;"></line><line x1="263.99999999999966" y1="456.2132428822526" x2="264.99999999999966" y2="456.2975862578629" style="stroke: black; stroke-width: 2px;"></line><line x1="264.99999999999966" y1="456.2975862578629" x2="265.99999999999966" y2="456.37988153446145" style="stroke: black; stroke-width: 2px;"></line><line x1="265.99999999999966" y1="456.37988153446145" x2="266.99999999999966" y2="456.4601822500305" style="stroke: black; stroke-width: 2px;"></line><line x1="266.99999999999966" y1="456.4601822500305" x2="267.99999999999966" y2="456.53854045551753" style="stroke: black; stroke-width: 2px;"></line><line x1="267.99999999999966" y1="456.53854045551753" x2="268.9999999999997" y2="456.61500675805513" style="stroke: black; stroke-width: 2px;"></line><line x1="268.9999999999997" y1="456.61500675805513" x2="269.9999999999997" y2="456.6896303628946" style="stroke: black; stroke-width: 2px;"></line><line x1="269.9999999999997" y1="456.6896303628946" x2="270.9999999999997" y2="456.7624591140903" style="stroke: black; stroke-width: 2px;"></line><line x1="270.9999999999997" y1="456.7624591140903" x2="271.9999999999998" y2="456.83353953397193" style="stroke: black; stroke-width: 2px;"></line><line x1="271.9999999999998" y1="456.83353953397193" x2="272.9999999999998" y2="456.90291686144025" style="stroke: black; stroke-width: 2px;"></line><line x1="272.9999999999998" y1="456.90291686144025" x2="273.9999999999998" y2="456.9706350891216" style="stroke: black; stroke-width: 2px;"></line><line x1="273.9999999999998" y1="456.9706350891216" x2="274.9999999999998" y2="457.03673699941476" style="stroke: black; stroke-width: 2px;"></line><line x1="274.9999999999998" y1="457.03673699941476" x2="275.9999999999998" y2="457.10126419946306" style="stroke: black; stroke-width: 2px;"></line><line x1="275.9999999999998" y1="457.10126419946306" x2="276.99999999999983" y2="457.1642571550841" style="stroke: black; stroke-width: 2px;"></line><line x1="276.99999999999983" y1="457.1642571550841" x2="277.99999999999983" y2="457.22575522368805" style="stroke: black; stroke-width: 2px;"></line><line x1="277.99999999999983" y1="457.22575522368805" x2="278.99999999999983" y2="457.28579668621455" style="stroke: black; stroke-width: 2px;"></line><line x1="278.99999999999983" y1="457.28579668621455" x2="279.9999999999999" y2="457.3444187781184" style="stroke: black; stroke-width: 2px;"></line><line x1="279.9999999999999" y1="457.3444187781184" x2="280.9999999999999" y2="457.4016577194315" style="stroke: black; stroke-width: 2px;"></line><line x1="280.9999999999999" y1="457.4016577194315" x2="281.9999999999999" y2="457.4575487439298" style="stroke: black; stroke-width: 2px;"></line><line x1="281.9999999999999" y1="457.4575487439298" x2="282.9999999999999" y2="457.5121261274319" style="stroke: black; stroke-width: 2px;"></line><line x1="282.9999999999999" y1="457.5121261274319" x2="283.9999999999999" y2="457.56542321525467" style="stroke: black; stroke-width: 2px;"></line><line x1="283.9999999999999" y1="457.56542321525467" x2="284.99999999999994" y2="457.61747244885294" style="stroke: black; stroke-width: 2px;"></line><line x1="284.99999999999994" y1="457.61747244885294" x2="285.99999999999994" y2="457.66830539166637" style="stroke: black; stroke-width: 2px;"></line><line x1="285.99999999999994" y1="457.66830539166637" x2="286.99999999999994" y2="457.7179527541981" style="stroke: black; stroke-width: 2px;"></line><line x1="286.99999999999994" y1="457.7179527541981" x2="288" y2="457.7664444183486" style="stroke: black; stroke-width: 2px;"></line><line x1="288" y1="457.7664444183486" x2="289" y2="457.8138094610267" style="stroke: black; stroke-width: 2px;"></line><line x1="289" y1="457.8138094610267" x2="290" y2="457.86007617706053" style="stroke: black; stroke-width: 2px;"></line><line x1="290" y1="457.86007617706053" x2="291" y2="457.90527210142824" style="stroke: black; stroke-width: 2px;"></line><line x1="291" y1="457.90527210142824" x2="292" y2="457.94942403083087" style="stroke: black; stroke-width: 2px;"></line><line x1="292" y1="457.94942403083087" x2="293.00000000000006" y2="457.9925580446254" style="stroke: black; stroke-width: 2px;"></line><line x1="293.00000000000006" y1="457.9925580446254" x2="294.00000000000006" y2="458.0346995251394" style="stroke: black; stroke-width: 2px;"></line><line x1="294.00000000000006" y1="458.0346995251394" x2="295.00000000000006" y2="458.0758731773838" style="stroke: black; stroke-width: 2px;"></line><line x1="295.00000000000006" y1="458.0758731773838" x2="296.0000000000001" y2="458.11610304818447" style="stroke: black; stroke-width: 2px;"></line><line x1="296.0000000000001" y1="458.11610304818447" x2="297.0000000000001" y2="458.15541254474783" style="stroke: black; stroke-width: 2px;"></line><line x1="297.0000000000001" y1="458.15541254474783" x2="298.0000000000001" y2="458.19382445267985" style="stroke: black; stroke-width: 2px;"></line><line x1="298.0000000000001" y1="458.19382445267985" x2="299.0000000000001" y2="458.23136095347314" style="stroke: black; stroke-width: 2px;"></line><line x1="299.0000000000001" y1="458.23136095347314" x2="300.0000000000001" y2="458.26804364147984" style="stroke: black; stroke-width: 2px;"></line><line x1="300.0000000000001" y1="458.26804364147984" x2="301.00000000000017" y2="458.30389354038465" style="stroke: black; stroke-width: 2px;"></line><line x1="301.00000000000017" y1="458.30389354038465" x2="302.00000000000017" y2="458.33893111919406" style="stroke: black; stroke-width: 2px;"></line><line x1="302.00000000000017" y1="458.33893111919406" x2="303.00000000000017" y2="458.3731763077561" style="stroke: black; stroke-width: 2px;"></line><line x1="303.00000000000017" y1="458.3731763077561" x2="304.0000000000002" y2="458.4066485118244" style="stroke: black; stroke-width: 2px;"></line><line x1="304.0000000000002" y1="458.4066485118244" x2="305.0000000000002" y2="458.4393666276816" style="stroke: black; stroke-width: 2px;"></line><line x1="305.0000000000002" y1="458.4393666276816" x2="306.0000000000002" y2="458.4713490563336" style="stroke: black; stroke-width: 2px;"></line><line x1="306.0000000000002" y1="458.4713490563336" x2="307.0000000000002" y2="458.50261371729016" style="stroke: black; stroke-width: 2px;"></line><line x1="307.0000000000002" y1="458.50261371729016" x2="308.0000000000003" y2="458.53317806194127" style="stroke: black; stroke-width: 2px;"></line><line x1="308.0000000000003" y1="458.53317806194127" x2="309.0000000000003" y2="458.56305908654474" style="stroke: black; stroke-width: 2px;"></line><line x1="309.0000000000003" y1="458.56305908654474" x2="310.0000000000003" y2="458.5922733448339" style="stroke: black; stroke-width: 2px;"></line><line x1="310.0000000000003" y1="458.5922733448339" x2="311.00000000000034" y2="458.6208369602595" style="stroke: black; stroke-width: 2px;"></line><line x1="311.00000000000034" y1="458.6208369602595" x2="312.00000000000034" y2="458.6487656378741" style="stroke: black; stroke-width: 2px;"></line><line x1="312.00000000000034" y1="458.6487656378741" x2="313.00000000000034" y2="458.6760746758726" style="stroke: black; stroke-width: 2px;"></line><line x1="313.00000000000034" y1="458.6760746758726" x2="314.00000000000034" y2="458.7027789767971" style="stroke: black; stroke-width: 2px;"></line><line x1="314.00000000000034" y1="458.7027789767971" x2="315.00000000000034" y2="458.72889305841716" style="stroke: black; stroke-width: 2px;"></line><line x1="315.00000000000034" y1="458.72889305841716" x2="316.00000000000034" y2="458.7544310642952" style="stroke: black; stroke-width: 2px;"></line><line x1="316.00000000000034" y1="458.7544310642952" x2="317.00000000000034" y2="458.7794067740463" style="stroke: black; stroke-width: 2px;"></line><line x1="317.00000000000034" y1="458.7794067740463" x2="318.0000000000004" y2="458.80383361330195" style="stroke: black; stroke-width: 2px;"></line><line x1="318.0000000000004" y1="458.80383361330195" x2="319.0000000000004" y2="458.82772466338594" style="stroke: black; stroke-width: 2px;"></line><line x1="319.0000000000004" y1="458.82772466338594" x2="320.0000000000004" y2="458.85109267071203" style="stroke: black; stroke-width: 2px;"></line><line x1="320.0000000000004" y1="458.85109267071203" x2="321.00000000000045" y2="458.873950055911" style="stroke: black; stroke-width: 2px;"></line><line x1="321.00000000000045" y1="458.873950055911" x2="322.00000000000045" y2="458.8963089226954" style="stroke: black; stroke-width: 2px;"></line><line x1="322.00000000000045" y1="458.8963089226954" x2="323.00000000000045" y2="458.9181810664699" style="stroke: black; stroke-width: 2px;"></line><line x1="323.00000000000045" y1="458.9181810664699" x2="324.0000000000005" y2="458.9395779826949" style="stroke: black; stroke-width: 2px;"></line><line x1="324.0000000000005" y1="458.9395779826949" x2="325.0000000000005" y2="458.9605108750108" style="stroke: black; stroke-width: 2px;"></line><line x1="325.0000000000005" y1="458.9605108750108" x2="326.0000000000005" y2="458.98099066312994" style="stroke: black; stroke-width: 2px;"></line><line x1="326.0000000000005" y1="458.98099066312994" x2="327.00000000000057" y2="459.0010279905032" style="stroke: black; stroke-width: 2px;"></line><line x1="327.00000000000057" y1="459.0010279905032" x2="328.00000000000057" y2="459.0206332317679" style="stroke: black; stroke-width: 2px;"></line><line x1="328.00000000000057" y1="459.0206332317679" x2="329.00000000000057" y2="459.03981649998394" style="stroke: black; stroke-width: 2px;"></line><line x1="329.00000000000057" y1="459.03981649998394" x2="330.00000000000057" y2="459.05858765366406" style="stroke: black; stroke-width: 2px;"></line><line x1="330.00000000000057" y1="459.05858765366406" x2="331.00000000000057" y2="459.0769563036043" style="stroke: black; stroke-width: 2px;"></line><line x1="331.00000000000057" y1="459.0769563036043" x2="332.00000000000057" y2="459.0949318195206" style="stroke: black; stroke-width: 2px;"></line><line x1="332.00000000000057" y1="459.0949318195206" x2="333.00000000000057" y2="459.1125233364981" style="stroke: black; stroke-width: 2px;"></line><line x1="333.00000000000057" y1="459.1125233364981" x2="334.0000000000006" y2="459.12973976125755" style="stroke: black; stroke-width: 2px;"></line><line x1="334.0000000000006" y1="459.12973976125755" x2="335.0000000000006" y2="459.1465897782447" style="stroke: black; stroke-width: 2px;"></line><line x1="335.0000000000006" y1="459.1465897782447" x2="336.0000000000006" y2="459.1630818555479" style="stroke: black; stroke-width: 2px;"></line><line x1="336.0000000000006" y1="459.1630818555479" x2="337.0000000000007" y2="459.1792242506498" style="stroke: black; stroke-width: 2px;"></line><line x1="337.0000000000007" y1="459.1792242506498" x2="338.0000000000007" y2="459.1950250160161" style="stroke: black; stroke-width: 2px;"></line><line x1="338.0000000000007" y1="459.1950250160161" x2="339.0000000000007" y2="459.21049200452825" style="stroke: black; stroke-width: 2px;"></line><line x1="339.0000000000007" y1="459.21049200452825" x2="340.00000000000074" y2="459.22563287476333" style="stroke: black; stroke-width: 2px;"></line><line x1="340.00000000000074" y1="459.22563287476333" x2="341.00000000000074" y2="459.2404550961264" style="stroke: black; stroke-width: 2px;"></line><line x1="341.00000000000074" y1="459.2404550961264" x2="342.00000000000074" y2="459.25496595383885" style="stroke: black; stroke-width: 2px;"></line><line x1="342.00000000000074" y1="459.25496595383885" x2="343.0000000000008" y2="459.2691725537879" style="stroke: black; stroke-width: 2px;"></line><line x1="343.0000000000008" y1="459.2691725537879" x2="344.0000000000008" y2="459.2830818272406" style="stroke: black; stroke-width: 2px;"></line><line x1="344.0000000000008" y1="459.2830818272406" x2="345.0000000000008" y2="459.2967005354268" style="stroke: black; stroke-width: 2px;"></line><line x1="345.0000000000008" y1="459.2967005354268" x2="346.0000000000008" y2="459.3100352739943" style="stroke: black; stroke-width: 2px;"></line><line x1="346.0000000000008" y1="459.3100352739943" x2="347.0000000000008" y2="459.3230924773406" style="stroke: black; stroke-width: 2px;"></line><line x1="347.0000000000008" y1="459.3230924773406" x2="348.0000000000008" y2="459.33587842282475" style="stroke: black; stroke-width: 2px;"></line><line x1="348.0000000000008" y1="459.33587842282475" x2="349.0000000000008" y2="459.3483992348619" style="stroke: black; stroke-width: 2px;"></line><line x1="349.0000000000008" y1="459.3483992348619" x2="350.00000000000085" y2="459.36066088890556" style="stroke: black; stroke-width: 2px;"></line><line x1="350.00000000000085" y1="459.36066088890556" x2="351.00000000000085" y2="459.3726692153191" style="stroke: black; stroke-width: 2px;"></line><line x1="351.00000000000085" y1="459.3726692153191" x2="352.00000000000085" y2="459.384429903141" style="stroke: black; stroke-width: 2px;"></line><line x1="352.00000000000085" y1="459.384429903141" x2="353.0000000000009" y2="459.3959485037465" style="stroke: black; stroke-width: 2px;"></line><line x1="353.0000000000009" y1="459.3959485037465" x2="354.0000000000009" y2="459.4072304344085" style="stroke: black; stroke-width: 2px;"></line><line x1="354.0000000000009" y1="459.4072304344085" x2="355.0000000000009" y2="459.41828098176063" style="stroke: black; stroke-width: 2px;"></line><line x1="355.0000000000009" y1="459.41828098176063" x2="356.00000000000097" y2="459.42910530516565" style="stroke: black; stroke-width: 2px;"></line><line x1="356.00000000000097" y1="459.42910530516565" x2="357.00000000000097" y2="459.43970843999153" style="stroke: black; stroke-width: 2px;"></line><line x1="357.00000000000097" y1="459.43970843999153" x2="358.00000000000097" y2="459.4500953007981" style="stroke: black; stroke-width: 2px;"></line><line x1="358.00000000000097" y1="459.4500953007981" x2="359.000000000001" y2="459.4602706844369" style="stroke: black; stroke-width: 2px;"></line><line x1="359.000000000001" y1="459.4602706844369" x2="360.000000000001" y2="459.4702392730664" style="stroke: black; stroke-width: 2px;"></line><line x1="360.000000000001" y1="459.4702392730664" x2="361.000000000001" y2="459.4800056370851" style="stroke: black; stroke-width: 2px;"></line><line x1="361.000000000001" y1="459.4800056370851" x2="362.000000000001" y2="459.48957423798566" style="stroke: black; stroke-width: 2px;"></line><line x1="362.000000000001" y1="459.48957423798566" x2="363.000000000001" y2="459.49894943113054" style="stroke: black; stroke-width: 2px;"></line><line x1="363.000000000001" y1="459.49894943113054" x2="364.000000000001" y2="459.50813546845364" style="stroke: black; stroke-width: 2px;"></line><line x1="364.000000000001" y1="459.50813546845364" x2="365.000000000001" y2="459.5171365010881" style="stroke: black; stroke-width: 2px;"></line><line x1="365.000000000001" y1="459.5171365010881" x2="366.0000000000011" y2="459.5259565819235" style="stroke: black; stroke-width: 2px;"></line><line x1="366.0000000000011" y1="459.5259565819235" x2="367.0000000000011" y2="459.5345996680942" style="stroke: black; stroke-width: 2px;"></line><line x1="367.0000000000011" y1="459.5345996680942" x2="368.0000000000011" y2="459.54306962340047" style="stroke: black; stroke-width: 2px;"></line><line x1="368.0000000000011" y1="459.54306962340047" x2="369.00000000000114" y2="459.5513702206648" style="stroke: black; stroke-width: 2px;"></line><line x1="369.00000000000114" y1="459.5513702206648" x2="370.00000000000114" y2="459.5595051440249" style="stroke: black; stroke-width: 2px;"></line><line x1="370.00000000000114" y1="459.5595051440249" x2="371.00000000000114" y2="459.56747799116533" style="stroke: black; stroke-width: 2px;"></line><line x1="371.00000000000114" y1="459.56747799116533" x2="372.0000000000012" y2="459.57529227548923" style="stroke: black; stroke-width: 2px;"></line><line x1="372.0000000000012" y1="459.57529227548923" x2="373.0000000000012" y2="459.5829514282323" style="stroke: black; stroke-width: 2px;"></line><line x1="373.0000000000012" y1="459.5829514282323" x2="374.0000000000012" y2="459.59045880052065" style="stroke: black; stroke-width: 2px;"></line><line x1="374.0000000000012" y1="459.59045880052065" x2="375.00000000000125" y2="459.597817665373" style="stroke: black; stroke-width: 2px;"></line><line x1="375.00000000000125" y1="459.597817665373" x2="376.00000000000125" y2="459.6050312196504" style="stroke: black; stroke-width: 2px;"></line><line x1="376.00000000000125" y1="459.6050312196504" x2="377.00000000000125" y2="459.6121025859544" style="stroke: black; stroke-width: 2px;"></line><line x1="377.00000000000125" y1="459.6121025859544" x2="378.00000000000125" y2="459.61903481447393" style="stroke: black; stroke-width: 2px;"></line><line x1="378.00000000000125" y1="459.61903481447393" x2="379.00000000000125" y2="459.62583088478414" style="stroke: black; stroke-width: 2px;"></line><line x1="379.00000000000125" y1="459.62583088478414" x2="380.00000000000125" y2="459.63249370759763" style="stroke: black; stroke-width: 2px;"></line><line x1="380.00000000000125" y1="459.63249370759763" x2="381.00000000000125" y2="459.639026126469" style="stroke: black; stroke-width: 2px;"></line><line x1="381.00000000000125" y1="459.639026126469" x2="382.0000000000013" y2="459.6454309194552" style="stroke: black; stroke-width: 2px;"></line><line x1="382.0000000000013" y1="459.6454309194552" x2="383.0000000000013" y2="459.6517108007314" style="stroke: black; stroke-width: 2px;"></line><line x1="383.0000000000013" y1="459.6517108007314" x2="384.0000000000013" y2="459.65786842216534" style="stroke: black; stroke-width: 2px;"></line><line x1="384.0000000000013" y1="459.65786842216534" x2="385.00000000000136" y2="459.66390637484955" style="stroke: black; stroke-width: 2px;"></line><line x1="385.00000000000136" y1="459.66390637484955" x2="386.00000000000136" y2="459.6698271905941" style="stroke: black; stroke-width: 2px;"></line><line x1="386.00000000000136" y1="459.6698271905941" x2="387.00000000000136" y2="459.6756333433799" style="stroke: black; stroke-width: 2px;"></line><line x1="387.00000000000136" y1="459.6756333433799" x2="388.0000000000014" y2="459.6813272507745" style="stroke: black; stroke-width: 2px;"></line><line x1="388.0000000000014" y1="459.6813272507745" x2="389.0000000000014" y2="459.68691127531025" style="stroke: black; stroke-width: 2px;"></line><line x1="389.0000000000014" y1="459.68691127531025" x2="390.0000000000014" y2="459.6923877258279" style="stroke: black; stroke-width: 2px;"></line><line x1="390.0000000000014" y1="459.6923877258279" x2="391.0000000000015" y2="459.69775885878374" style="stroke: black; stroke-width: 2px;"></line><line x1="391.0000000000015" y1="459.69775885878374" x2="392.0000000000015" y2="459.70302687952403" style="stroke: black; stroke-width: 2px;"></line><line x1="392.0000000000015" y1="459.70302687952403" x2="393.0000000000015" y2="459.70819394352594" style="stroke: black; stroke-width: 2px;"></line><line x1="393.0000000000015" y1="459.70819394352594" x2="394.0000000000015" y2="459.71326215760627" style="stroke: black; stroke-width: 2px;"></line><line x1="394.0000000000015" y1="459.71326215760627" x2="395.0000000000015" y2="459.7182335810994" style="stroke: black; stroke-width: 2px;"></line><line x1="395.0000000000015" y1="459.7182335810994" x2="396.0000000000015" y2="459.72311022700467" style="stroke: black; stroke-width: 2px;"></line><line x1="396.0000000000015" y1="459.72311022700467" x2="397.0000000000015" y2="459.7278940631039" style="stroke: black; stroke-width: 2px;"></line><line x1="397.0000000000015" y1="459.7278940631039" x2="398.00000000000153" y2="459.73258701305076" style="stroke: black; stroke-width: 2px;"></line><line x1="398.00000000000153" y1="459.73258701305076" x2="399.00000000000153" y2="459.73719095743184" style="stroke: black; stroke-width: 2px;"></line><line x1="399.00000000000153" y1="459.73719095743184" x2="400.00000000000153" y2="459.7417077348005" style="stroke: black; stroke-width: 2px;"></line><line x1="400.00000000000153" y1="459.7417077348005" x2="401.0000000000016" y2="459.74613914268474" style="stroke: black; stroke-width: 2px;"></line><line x1="401.0000000000016" y1="459.74613914268474" x2="402.0000000000016" y2="459.7504869385686" style="stroke: black; stroke-width: 2px;"></line><line x1="402.0000000000016" y1="459.7504869385686" x2="403.0000000000016" y2="459.7547528408491" style="stroke: black; stroke-width: 2px;"></line><line x1="403.0000000000016" y1="459.7547528408491" x2="404.00000000000165" y2="459.75893852976867" style="stroke: black; stroke-width: 2px;"></line><line x1="404.00000000000165" y1="459.75893852976867" x2="405.00000000000165" y2="459.7630456483238" style="stroke: black; stroke-width: 2px;"></line><line x1="405.00000000000165" y1="459.7630456483238" x2="406.00000000000165" y2="459.76707580315065" style="stroke: black; stroke-width: 2px;"></line><line x1="406.00000000000165" y1="459.76707580315065" x2="407.0000000000017" y2="459.77103056538823" style="stroke: black; stroke-width: 2px;"></line><line x1="407.0000000000017" y1="459.77103056538823" x2="408.0000000000017" y2="459.77491147152" style="stroke: black; stroke-width: 2px;"></line><line x1="408.0000000000017" y1="459.77491147152" x2="409.0000000000017" y2="459.77872002419355" style="stroke: black; stroke-width: 2px;"></line><line x1="409.0000000000017" y1="459.77872002419355" x2="410.0000000000017" y2="459.7824576930202" style="stroke: black; stroke-width: 2px;"></line><line x1="410.0000000000017" y1="459.7824576930202" x2="411.0000000000017" y2="459.7861259153545" style="stroke: black; stroke-width: 2px;"></line><line x1="411.0000000000017" y1="459.7861259153545" x2="412.0000000000017" y2="459.7897260970535" style="stroke: black; stroke-width: 2px;"></line><line x1="412.0000000000017" y1="459.7897260970535" x2="413.0000000000017" y2="459.7932596132177" style="stroke: black; stroke-width: 2px;"></line><line x1="413.0000000000017" y1="459.7932596132177" x2="414.00000000000176" y2="459.7967278089128" style="stroke: black; stroke-width: 2px;"></line><line x1="414.00000000000176" y1="459.7967278089128" x2="415.00000000000176" y2="459.800131999874" style="stroke: black; stroke-width: 2px;"></line><line x1="415.00000000000176" y1="459.800131999874" x2="416.00000000000176" y2="459.8034734731919" style="stroke: black; stroke-width: 2px;"></line><line x1="416.00000000000176" y1="459.8034734731919" x2="417.0000000000018" y2="459.80675348798235" style="stroke: black; stroke-width: 2px;"></line><line x1="417.0000000000018" y1="459.80675348798235" x2="418.0000000000018" y2="459.8099732760385" style="stroke: black; stroke-width: 2px;"></line><line x1="418.0000000000018" y1="459.8099732760385" x2="419.0000000000018" y2="459.8131340424673" style="stroke: black; stroke-width: 2px;"></line><line x1="419.0000000000018" y1="459.8131340424673" x2="420.0000000000019" y2="459.81623696631016" style="stroke: black; stroke-width: 2px;"></line><line x1="420.0000000000019" y1="459.81623696631016" x2="421.0000000000019" y2="459.819283201148" style="stroke: black; stroke-width: 2px;"></line><line x1="421.0000000000019" y1="459.819283201148" x2="422.0000000000019" y2="459.8222738756913" style="stroke: black; stroke-width: 2px;"></line><line x1="422.0000000000019" y1="459.8222738756913" x2="423.00000000000193" y2="459.8252100943557" style="stroke: black; stroke-width: 2px;"></line><line x1="423.00000000000193" y1="459.8252100943557" x2="424.00000000000193" y2="459.82809293782367" style="stroke: black; stroke-width: 2px;"></line><line x1="424.00000000000193" y1="459.82809293782367" x2="425.00000000000193" y2="459.8309234635915" style="stroke: black; stroke-width: 2px;"></line><line x1="425.00000000000193" y1="459.8309234635915" x2="426.00000000000193" y2="459.83370270650374" style="stroke: black; stroke-width: 2px;"></line><line x1="426.00000000000193" y1="459.83370270650374" x2="427.00000000000193" y2="459.836431679274" style="stroke: black; stroke-width: 2px;"></line><line x1="427.00000000000193" y1="459.836431679274" x2="428.00000000000193" y2="459.83911137299305" style="stroke: black; stroke-width: 2px;"></line><line x1="428.00000000000193" y1="459.83911137299305" x2="429.00000000000193" y2="459.8417427576245" style="stroke: black; stroke-width: 2px;"></line><line x1="429.00000000000193" y1="459.8417427576245" x2="430.000000000002" y2="459.84432678248845" style="stroke: black; stroke-width: 2px;"></line><line x1="430.000000000002" y1="459.84432678248845" x2="431.000000000002" y2="459.84686437673327" style="stroke: black; stroke-width: 2px;"></line><line x1="431.000000000002" y1="459.84686437673327" x2="432.000000000002" y2="459.84935644979555" style="stroke: black; stroke-width: 2px;"></line><line x1="432.000000000002" y1="459.84935644979555" x2="433.00000000000205" y2="459.85180389184967" style="stroke: black; stroke-width: 2px;"></line><line x1="433.00000000000205" y1="459.85180389184967" x2="434.00000000000205" y2="459.8542075742455" style="stroke: black; stroke-width: 2px;"></line><line x1="434.00000000000205" y1="459.8542075742455" x2="435.00000000000205" y2="459.8565683499359" style="stroke: black; stroke-width: 2px;"></line><line x1="435.00000000000205" y1="459.8565683499359" x2="436.0000000000021" y2="459.85888705389425" style="stroke: black; stroke-width: 2px;"></line><line x1="436.0000000000021" y1="459.85888705389425" x2="437.0000000000021" y2="459.86116450352097" style="stroke: black; stroke-width: 2px;"></line><line x1="437.0000000000021" y1="459.86116450352097" x2="438.0000000000021" y2="459.8634014990411" style="stroke: black; stroke-width: 2px;"></line><line x1="438.0000000000021" y1="459.8634014990411" x2="439.00000000000216" y2="459.86559882389173" style="stroke: black; stroke-width: 2px;"></line><line x1="439.00000000000216" y1="459.86559882389173" x2="440.00000000000216" y2="459.86775724510034" style="stroke: black; stroke-width: 2px;"></line><line x1="440.00000000000216" y1="459.86775724510034" x2="441.00000000000216" y2="459.86987751365393" style="stroke: black; stroke-width: 2px;"></line><line x1="441.00000000000216" y1="459.86987751365393" x2="442.00000000000216" y2="459.8719603648595" style="stroke: black; stroke-width: 2px;"></line><line x1="442.00000000000216" y1="459.8719603648595" x2="443.00000000000216" y2="459.8740065186954" style="stroke: black; stroke-width: 2px;"></line><line x1="443.00000000000216" y1="459.8740065186954" x2="444.00000000000216" y2="459.876016680155" style="stroke: black; stroke-width: 2px;"></line><line x1="444.00000000000216" y1="459.876016680155" x2="445.00000000000216" y2="459.8779915395812" style="stroke: black; stroke-width: 2px;"></line><line x1="445.00000000000216" y1="459.8779915395812" x2="446.0000000000022" y2="459.87993177299427" style="stroke: black; stroke-width: 2px;"></line><line x1="446.0000000000022" y1="459.87993177299427" x2="447.0000000000022" y2="459.88183804241015" style="stroke: black; stroke-width: 2px;"></line><line x1="447.0000000000022" y1="459.88183804241015" x2="448.0000000000022" y2="459.88371099615284" style="stroke: black; stroke-width: 2px;"></line><line x1="448.0000000000022" y1="459.88371099615284" x2="449.0000000000023" y2="459.8855512691583" style="stroke: black; stroke-width: 2px;"></line><line x1="449.0000000000023" y1="459.8855512691583" x2="450.0000000000023" y2="459.8873594832716" style="stroke: black; stroke-width: 2px;"></line><line x1="450.0000000000023" y1="459.8873594832716" x2="451.0000000000023" y2="459.88913624753684" style="stroke: black; stroke-width: 2px;"></line><line x1="451.0000000000023" y1="459.88913624753684" x2="452.00000000000233" y2="459.8908821584804" style="stroke: black; stroke-width: 2px;"></line><line x1="452.00000000000233" y1="459.8908821584804" x2="453.00000000000233" y2="459.8925978003871" style="stroke: black; stroke-width: 2px;"></line><line x1="453.00000000000233" y1="459.8925978003871" x2="454.00000000000233" y2="459.8942837455706" style="stroke: black; stroke-width: 2px;"></line><line x1="454.00000000000233" y1="459.8942837455706" x2="455.0000000000024" y2="459.8959405546364" style="stroke: black; stroke-width: 2px;"></line><line x1="455.0000000000024" y1="459.8959405546364" x2="456.0000000000024" y2="459.8975687767397" style="stroke: black; stroke-width: 2px;"></line><line x1="456.0000000000024" y1="459.8975687767397" x2="457.0000000000024" y2="459.8991689498365" style="stroke: black; stroke-width: 2px;"></line><line x1="457.0000000000024" y1="459.8991689498365" x2="458.0000000000024" y2="459.900741600929" style="stroke: black; stroke-width: 2px;"></line><line x1="458.0000000000024" y1="459.900741600929" x2="459.0000000000024" y2="459.90228724630526" style="stroke: black; stroke-width: 2px;"></line><line x1="459.0000000000024" y1="459.90228724630526" x2="460.0000000000024" y2="459.90380639177357" style="stroke: black; stroke-width: 2px;"></line><line x1="460.0000000000024" y1="459.90380639177357" x2="461.0000000000024" y2="459.90529953289075" style="stroke: black; stroke-width: 2px;"></line><line x1="461.0000000000024" y1="459.90529953289075" x2="462.00000000000244" y2="459.9067671551855" style="stroke: black; stroke-width: 2px;"></line><line x1="462.00000000000244" y1="459.9067671551855" x2="463.00000000000244" y2="459.9082097343766" style="stroke: black; stroke-width: 2px;"></line><line x1="463.00000000000244" y1="459.9082097343766" x2="464.00000000000244" y2="459.9096277365861" style="stroke: black; stroke-width: 2px;"></line><line x1="464.00000000000244" y1="459.9096277365861" x2="465.0000000000025" y2="459.9110216185469" style="stroke: black; stroke-width: 2px;"></line><line x1="465.0000000000025" y1="459.9110216185469" x2="466.0000000000025" y2="459.9123918278066" style="stroke: black; stroke-width: 2px;"></line><line x1="466.0000000000025" y1="459.9123918278066" x2="467.0000000000025" y2="459.91373880292554" style="stroke: black; stroke-width: 2px;"></line><line x1="467.0000000000025" y1="459.91373880292554" x2="468.00000000000256" y2="459.9150629736712" style="stroke: black; stroke-width: 2px;"></line><line x1="468.00000000000256" y1="459.9150629736712" x2="469.00000000000256" y2="459.9163647612075" style="stroke: black; stroke-width: 2px;"></line><line x1="469.00000000000256" y1="459.9163647612075" x2="470.00000000000256" y2="459.91764457828" style="stroke: black; stroke-width: 2px;"></line><line x1="470.00000000000256" y1="459.91764457828" x2="471.0000000000026" y2="459.9189028293967" style="stroke: black; stroke-width: 2px;"></line><line x1="471.0000000000026" y1="459.9189028293967" x2="472.0000000000026" y2="459.9201399110049" style="stroke: black; stroke-width: 2px;"></line><line x1="472.0000000000026" y1="459.9201399110049" x2="473.0000000000026" y2="459.9213562116638" style="stroke: black; stroke-width: 2px;"></line><line x1="473.0000000000026" y1="459.9213562116638" x2="474.0000000000026" y2="459.92255211221317" style="stroke: black; stroke-width: 2px;"></line><line x1="474.0000000000026" y1="459.92255211221317" x2="475.0000000000026" y2="459.9237279859384" style="stroke: black; stroke-width: 2px;"></line><line x1="475.0000000000026" y1="459.9237279859384" x2="476.0000000000026" y2="459.92488419873143" style="stroke: black; stroke-width: 2px;"></line><line x1="476.0000000000026" y1="459.92488419873143" x2="477.0000000000026" y2="459.92602110924827" style="stroke: black; stroke-width: 2px;"></line><line x1="477.0000000000026" y1="459.92602110924827" x2="478.0000000000027" y2="459.9271390690628" style="stroke: black; stroke-width: 2px;"></line><line x1="478.0000000000027" y1="459.9271390690628" x2="479.0000000000027" y2="459.9282384228172" style="stroke: black; stroke-width: 2px;"></line><line x1="479.0000000000027" y1="459.9282384228172" x2="480.0000000000027" y2="459.9293195083688" style="stroke: black; stroke-width: 2px;"></line><line x1="480.0000000000027" y1="459.9293195083688" x2="481.00000000000273" y2="459.93038265693383" style="stroke: black; stroke-width: 2px;"></line><line x1="481.00000000000273" y1="459.93038265693383" x2="482.00000000000273" y2="459.9314281932276" style="stroke: black; stroke-width: 2px;"></line><line x1="482.00000000000273" y1="459.9314281932276" x2="483.00000000000273" y2="459.9324564356018" style="stroke: black; stroke-width: 2px;"></line><line x1="483.00000000000273" y1="459.9324564356018" x2="484.0000000000028" y2="459.93346769617875" style="stroke: black; stroke-width: 2px;"></line><line x1="484.0000000000028" y1="459.93346769617875" x2="485.0000000000028" y2="459.934462280982" style="stroke: black; stroke-width: 2px;"></line><line x1="485.0000000000028" y1="459.934462280982" x2="486.0000000000028" y2="459.93544049006516" style="stroke: black; stroke-width: 2px;"></line><line x1="486.0000000000028" y1="459.93544049006516" x2="487.00000000000284" y2="459.93640261763653" style="stroke: black; stroke-width: 2px;"></line><line x1="487.00000000000284" y1="459.93640261763653" x2="488.00000000000284" y2="459.93734895218176" style="stroke: black; stroke-width: 2px;"></line><line x1="488.00000000000284" y1="459.93734895218176" x2="489.00000000000284" y2="459.93827977658367" style="stroke: black; stroke-width: 2px;"></line><line x1="489.00000000000284" y1="459.93827977658367" x2="490.00000000000284" y2="459.9391953682392" style="stroke: black; stroke-width: 2px;"></line><line x1="490.00000000000284" y1="459.9391953682392" x2="491.00000000000284" y2="459.94009599917376" style="stroke: black; stroke-width: 2px;"></line><line x1="491.00000000000284" y1="459.94009599917376" x2="492.00000000000284" y2="459.94098193615315" style="stroke: black; stroke-width: 2px;"></line><line x1="492.00000000000284" y1="459.94098193615315" x2="493.00000000000284" y2="459.9418534407928" style="stroke: black; stroke-width: 2px;"></line><line x1="493.00000000000284" y1="459.9418534407928" x2="494.0000000000029" y2="459.942710769665" style="stroke: black; stroke-width: 2px;"></line><line x1="494.0000000000029" y1="459.942710769665" x2="495.0000000000029" y2="459.94355417440306" style="stroke: black; stroke-width: 2px;"></line><line x1="495.0000000000029" y1="459.94355417440306" x2="496.0000000000029" y2="459.94438390180403" style="stroke: black; stroke-width: 2px;"></line><line x1="496.0000000000029" y1="459.94438390180403" x2="497.00000000000296" y2="459.94520019392826" style="stroke: black; stroke-width: 2px;"></line><line x1="497.00000000000296" y1="459.94520019392826" x2="498.00000000000296" y2="459.94600328819735" style="stroke: black; stroke-width: 2px;"></line><line x1="498.00000000000296" y1="459.94600328819735" x2="499.00000000000296" y2="459.9467934174898" style="stroke: black; stroke-width: 2px;"></line><line x1="499.00000000000296" y1="459.9467934174898" x2="500.000000000003" y2="459.9475708102345" style="stroke: black; stroke-width: 2px;"></line><line x1="100" y1="460" x2="100" y2="460" style="stroke: rgb(0, 85, 255); stroke-width: 2px;"></line><line x1="101" y1="460" x2="101" y2="394.54925318097895" style="stroke: rgb(0, 85, 255); stroke-width: 2px;"></line><line x1="102" y1="460" x2="102" y2="371.40780053784107" style="stroke: rgb(0, 85, 255); stroke-width: 2px;"></line><line x1="103" y1="460" x2="103" y2="356.13001916568544" style="stroke: rgb(0, 85, 255); stroke-width: 2px;"></line><line x1="104" y1="460" x2="104" y2="345.16065830043635" style="stroke: rgb(0, 85, 255); stroke-width: 2px;"></line><line x1="105" y1="460" x2="105" y2="337.0414878236055" style="stroke: rgb(0, 85, 255); stroke-width: 2px;"></line><line x1="106" y1="460" x2="106" y2="330.98415767832523" style="stroke: rgb(0, 85, 255); stroke-width: 2px;"></line><line x1="107" y1="460" x2="107" y2="326.4971664501042" style="stroke: rgb(0, 85, 255); stroke-width: 2px;"></line><line x1="108" y1="460" x2="108" y2="323.24599774980845" style="stroke: rgb(0, 85, 255); stroke-width: 2px;"></line><line x1="109" y1="460" x2="109" y2="320.9891304564332" style="stroke: rgb(0, 85, 255); stroke-width: 2px;"></line><line x1="110" y1="460" x2="110" y2="319.54469213699855" style="stroke: rgb(0, 85, 255); stroke-width: 2px;"></line><line x1="111" y1="460" x2="111" y2="318.7713891736185" style="stroke: rgb(0, 85, 255); stroke-width: 2px;"></line><line x1="112" y1="460" x2="112" y2="318.55680979552096" style="stroke: rgb(0, 85, 255); stroke-width: 2px;"></line><line x1="113" y1="460" x2="113" y2="318.8098448285723" style="stroke: rgb(0, 85, 255); stroke-width: 2px;"></line><line x1="114" y1="460" x2="114" y2="319.45555484043155" style="stroke: rgb(0, 85, 255); stroke-width: 2px;"></line><line x1="115" y1="460" x2="115" y2="320.4315655465201" style="stroke: rgb(0, 85, 255); stroke-width: 2px;"></line><line x1="116" y1="460" x2="116" y2="321.68545851070314" style="stroke: rgb(0, 85, 255); stroke-width: 2px;"></line><line x1="117" y1="460" x2="117" y2="323.1728332185186" style="stroke: rgb(0, 85, 255); stroke-width: 2px;"></line><line x1="118" y1="460" x2="118" y2="324.8558358393143" style="stroke: rgb(0, 85, 255); stroke-width: 2px;"></line><line x1="119" y1="460" x2="119" y2="326.7020209418024" style="stroke: rgb(0, 85, 255); stroke-width: 2px;"></line><line x1="120" y1="460" x2="120" y2="328.6834562066218" style="stroke: rgb(0, 85, 255); stroke-width: 2px;"></line><line x1="121" y1="460" x2="121" y2="330.7760080637307" style="stroke: rgb(0, 85, 255); stroke-width: 2px;"></line><line x1="122" y1="460" x2="122" y2="332.9587644450179" style="stroke: rgb(0, 85, 255); stroke-width: 2px;"></line><line x1="123" y1="460" x2="123" y2="335.21356310311256" style="stroke: rgb(0, 85, 255); stroke-width: 2px;"></line><line x1="124" y1="460" x2="124" y2="337.5246023625783" style="stroke: rgb(0, 85, 255); stroke-width: 2px;"></line><line x1="125" y1="460" x2="125" y2="339.8781170616146" style="stroke: rgb(0, 85, 255); stroke-width: 2px;"></line><line x1="126.00000000000001" y1="460" x2="126.00000000000001" y2="342.2621066425657" style="stroke: rgb(0, 85, 255); stroke-width: 2px;"></line><line x1="127.00000000000001" y1="460" x2="127.00000000000001" y2="344.66610539311506" style="stroke: rgb(0, 85, 255); stroke-width: 2px;"></line><line x1="128" y1="460" x2="128" y2="347.0809870787224" style="stroke: rgb(0, 85, 255); stroke-width: 2px;"></line><line x1="129" y1="460" x2="129" y2="349.49879787622456" style="stroke: rgb(0, 85, 255); stroke-width: 2px;"></line><line x1="130" y1="460" x2="130" y2="351.9126127791536" style="stroke: rgb(0, 85, 255); stroke-width: 2px;"></line><line x1="131" y1="460" x2="131" y2="354.3164116084506" style="stroke: rgb(0, 85, 255); stroke-width: 2px;"></line><line x1="132" y1="460" x2="132" y2="356.70497150604615" style="stroke: rgb(0, 85, 255); stroke-width: 2px;"></line><line x1="133" y1="460" x2="133" y2="359.0737733689786" style="stroke: rgb(0, 85, 255); stroke-width: 2px;"></line><line x1="134" y1="460" x2="134" y2="361.4189201385242" style="stroke: rgb(0, 85, 255); stroke-width: 2px;"></line><line x1="135" y1="460" x2="135" y2="363.73706522160063" style="stroke: rgb(0, 85, 255); stroke-width: 2px;"></line><line x1="136" y1="460" x2="136" y2="366.02534961217657" style="stroke: rgb(0, 85, 255); stroke-width: 2px;"></line><line x1="137" y1="460" x2="137" y2="368.28134651474113" style="stroke: rgb(0, 85, 255); stroke-width: 2px;"></line><line x1="138.00000000000003" y1="460" x2="138.00000000000003" y2="370.5030124622736" style="stroke: rgb(0, 85, 255); stroke-width: 2px;"></line><line x1="139.00000000000003" y1="460" x2="139.00000000000003" y2="372.6886440768615" style="stroke: rgb(0, 85, 255); stroke-width: 2px;"></line><line x1="140" y1="460" x2="140" y2="374.83683974926487" style="stroke: rgb(0, 85, 255); stroke-width: 2px;"></line><line x1="141" y1="460" x2="141" y2="376.9464656198129" style="stroke: rgb(0, 85, 255); stroke-width: 2px;"></line><line x1="142" y1="460" x2="142" y2="379.0166253313253" style="stroke: rgb(0, 85, 255); stroke-width: 2px;"></line><line x1="143" y1="460" x2="143" y2="381.04663309864117" style="stroke: rgb(0, 85, 255); stroke-width: 2px;"></line><line x1="144" y1="460" x2="144" y2="383.0359897014671" style="stroke: rgb(0, 85, 255); stroke-width: 2px;"></line><line x1="145" y1="460" x2="145" y2="384.98436105973894" style="stroke: rgb(0, 85, 255); stroke-width: 2px;"></line><line x1="146" y1="460" x2="146" y2="386.8915590952132" style="stroke: rgb(0, 85, 255); stroke-width: 2px;"></line><line x1="147" y1="460" x2="147" y2="388.7575246209344" style="stroke: rgb(0, 85, 255); stroke-width: 2px;"></line><line x1="148" y1="460" x2="148" y2="390.58231203265825" style="stroke: rgb(0, 85, 255); stroke-width: 2px;"></line><line x1="149" y1="460" x2="149" y2="392.3660756041496" style="stroke: rgb(0, 85, 255); stroke-width: 2px;"></line><line x1="150" y1="460" x2="150" y2="394.10905721224805" style="stroke: rgb(0, 85, 255); stroke-width: 2px;"></line><line x1="150.99999999999997" y1="460" x2="150.99999999999997" y2="395.8115753383117" style="stroke: rgb(0, 85, 255); stroke-width: 2px;"></line><line x1="151.99999999999997" y1="460" x2="151.99999999999997" y2="397.4740152106041" style="stroke: rgb(0, 85, 255); stroke-width: 2px;"></line><line x1="152.99999999999997" y1="460" x2="152.99999999999997" y2="399.0968199677957" style="stroke: rgb(0, 85, 255); stroke-width: 2px;"></line><line x1="153.99999999999997" y1="460" x2="153.99999999999997" y2="400.68048273735667" style="stroke: rgb(0, 85, 255); stroke-width: 2px;"></line><line x1="154.99999999999997" y1="460" x2="154.99999999999997" y2="402.22553953450614" style="stroke: rgb(0, 85, 255); stroke-width: 2px;"></line><line x1="155.99999999999997" y1="460" x2="155.99999999999997" y2="403.7325628977974" style="stroke: rgb(0, 85, 255); stroke-width: 2px;"></line><line x1="156.99999999999994" y1="460" x2="156.99999999999994" y2="405.2021561865664" style="stroke: rgb(0, 85, 255); stroke-width: 2px;"></line><line x1="157.99999999999994" y1="460" x2="157.99999999999994" y2="406.6349484735202" style="stroke: rgb(0, 85, 255); stroke-width: 2px;"></line><line x1="158.99999999999994" y1="460" x2="158.99999999999994" y2="408.03158997283714" style="stroke: rgb(0, 85, 255); stroke-width: 2px;"></line><line x1="159.99999999999994" y1="460" x2="159.99999999999994" y2="409.39274795043025" style="stroke: rgb(0, 85, 255); stroke-width: 2px;"></line><line x1="160.99999999999994" y1="460" x2="160.99999999999994" y2="410.7191030685728" style="stroke: rgb(0, 85, 255); stroke-width: 2px;"></line><line x1="161.99999999999994" y1="460" x2="161.99999999999994" y2="412.0113461220145" style="stroke: rgb(0, 85, 255); stroke-width: 2px;"></line><line x1="162.99999999999994" y1="460" x2="162.99999999999994" y2="413.27017512709165" style="stroke: rgb(0, 85, 255); stroke-width: 2px;"></line><line x1="163.99999999999994" y1="460" x2="163.99999999999994" y2="414.4962927292292" style="stroke: rgb(0, 85, 255); stroke-width: 2px;"></line><line x1="164.99999999999994" y1="460" x2="164.99999999999994" y2="415.69040389770345" style="stroke: rgb(0, 85, 255); stroke-width: 2px;"></line><line x1="165.99999999999991" y1="460" x2="165.99999999999991" y2="416.853213879631" style="stroke: rgb(0, 85, 255); stroke-width: 2px;"></line><line x1="166.99999999999991" y1="460" x2="166.99999999999991" y2="417.98542638791844" style="stroke: rgb(0, 85, 255); stroke-width: 2px;"></line><line x1="167.99999999999991" y1="460" x2="167.99999999999991" y2="419.08774200038454" style="stroke: rgb(0, 85, 255); stroke-width: 2px;"></line><line x1="168.99999999999991" y1="460" x2="168.99999999999991" y2="420.1608567494862" style="stroke: rgb(0, 85, 255); stroke-width: 2px;"></line><line x1="169.99999999999991" y1="460" x2="169.99999999999991" y2="421.20546088407104" style="stroke: rgb(0, 85, 255); stroke-width: 2px;"></line><line x1="170.99999999999991" y1="460" x2="170.99999999999991" y2="422.22223778636754" style="stroke: rgb(0, 85, 255); stroke-width: 2px;"></line><line x1="171.99999999999991" y1="460" x2="171.99999999999991" y2="423.2118630290291" style="stroke: rgb(0, 85, 255); stroke-width: 2px;"></line><line x1="172.9999999999999" y1="460" x2="172.9999999999999" y2="424.17500355850024" style="stroke: rgb(0, 85, 255); stroke-width: 2px;"></line><line x1="173.9999999999999" y1="460" x2="173.9999999999999" y2="425.1123169922698" style="stroke: rgb(0, 85, 255); stroke-width: 2px;"></line><line x1="174.9999999999999" y1="460" x2="174.9999999999999" y2="426.0244510187546" style="stroke: rgb(0, 85, 255); stroke-width: 2px;"></line><line x1="175.9999999999999" y1="460" x2="175.9999999999999" y2="426.91204288961643" style="stroke: rgb(0, 85, 255); stroke-width: 2px;"></line><line x1="176.9999999999999" y1="460" x2="176.9999999999999" y2="427.77571899527135" style="stroke: rgb(0, 85, 255); stroke-width: 2px;"></line><line x1="177.9999999999999" y1="460" x2="177.9999999999999" y2="428.61609451521537" style="stroke: rgb(0, 85, 255); stroke-width: 2px;"></line><line x1="178.9999999999999" y1="460" x2="178.9999999999999" y2="429.43377313557437" style="stroke: rgb(0, 85, 255); stroke-width: 2px;"></line><line x1="179.9999999999999" y1="460" x2="179.9999999999999" y2="430.2293468269911" style="stroke: rgb(0, 85, 255); stroke-width: 2px;"></line><line x1="180.9999999999999" y1="460" x2="180.9999999999999" y2="431.0033956766067" style="stroke: rgb(0, 85, 255); stroke-width: 2px;"></line><line x1="181.99999999999986" y1="460" x2="181.99999999999986" y2="431.75648776847095" style="stroke: rgb(0, 85, 255); stroke-width: 2px;"></line><line x1="182.99999999999986" y1="460" x2="182.99999999999986" y2="432.48917910724555" style="stroke: rgb(0, 85, 255); stroke-width: 2px;"></line><line x1="183.99999999999986" y1="460" x2="183.99999999999986" y2="433.20201358054004" style="stroke: rgb(0, 85, 255); stroke-width: 2px;"></line><line x1="184.99999999999986" y1="460" x2="184.99999999999986" y2="433.89552295565437" style="stroke: rgb(0, 85, 255); stroke-width: 2px;"></line><line x1="185.99999999999986" y1="460" x2="185.99999999999986" y2="434.57022690689445" style="stroke: rgb(0, 85, 255); stroke-width: 2px;"></line><line x1="186.99999999999986" y1="460" x2="186.99999999999986" y2="435.2266330699862" style="stroke: rgb(0, 85, 255); stroke-width: 2px;"></line><line x1="187.99999999999986" y1="460" x2="187.99999999999986" y2="435.86523712043635" style="stroke: rgb(0, 85, 255); stroke-width: 2px;"></line><line x1="188.99999999999983" y1="460" x2="188.99999999999983" y2="436.4865228729847" style="stroke: rgb(0, 85, 255); stroke-width: 2px;"></line><line x1="189.99999999999983" y1="460" x2="189.99999999999983" y2="437.09096239956006" style="stroke: rgb(0, 85, 255); stroke-width: 2px;"></line><line x1="190.99999999999983" y1="460" x2="190.99999999999983" y2="437.6790161633962" style="stroke: rgb(0, 85, 255); stroke-width: 2px;"></line><line x1="191.99999999999983" y1="460" x2="191.99999999999983" y2="438.25113316718733" style="stroke: rgb(0, 85, 255); stroke-width: 2px;"></line><line x1="192.99999999999983" y1="460" x2="192.99999999999983" y2="438.80775111336186" style="stroke: rgb(0, 85, 255); stroke-width: 2px;"></line><line x1="193.99999999999983" y1="460" x2="193.99999999999983" y2="439.3492965747404" style="stroke: rgb(0, 85, 255); stroke-width: 2px;"></line><line x1="194.99999999999983" y1="460" x2="194.99999999999983" y2="439.876185174008" style="stroke: rgb(0, 85, 255); stroke-width: 2px;"></line><line x1="195.99999999999983" y1="460" x2="195.99999999999983" y2="440.38882177058616" style="stroke: rgb(0, 85, 255); stroke-width: 2px;"></line><line x1="196.99999999999983" y1="460" x2="196.99999999999983" y2="440.887600653625" style="stroke: rgb(0, 85, 255); stroke-width: 2px;"></line><line x1="197.9999999999998" y1="460" x2="197.9999999999998" y2="441.3729057399659" style="stroke: rgb(0, 85, 255); stroke-width: 2px;"></line><line x1="198.9999999999998" y1="460" x2="198.9999999999998" y2="441.8451107760378" style="stroke: rgb(0, 85, 255); stroke-width: 2px;"></line><line x1="199.9999999999998" y1="460" x2="199.9999999999998" y2="442.30457954275437" style="stroke: rgb(0, 85, 255); stroke-width: 2px;"></line><line x1="200.9999999999998" y1="460" x2="200.9999999999998" y2="442.75166606257665" style="stroke: rgb(0, 85, 255); stroke-width: 2px;"></line><line x1="201.9999999999998" y1="460" x2="201.9999999999998" y2="443.186714807991" style="stroke: rgb(0, 85, 255); stroke-width: 2px;"></line><line x1="202.9999999999998" y1="460" x2="202.9999999999998" y2="443.61006091073034" style="stroke: rgb(0, 85, 255); stroke-width: 2px;"></line><line x1="203.9999999999998" y1="460" x2="203.9999999999998" y2="444.02203037114106" style="stroke: rgb(0, 85, 255); stroke-width: 2px;"></line><line x1="204.9999999999998" y1="460" x2="204.9999999999998" y2="444.42294026716047" style="stroke: rgb(0, 85, 255); stroke-width: 2px;"></line><line x1="205.99999999999977" y1="460" x2="205.99999999999977" y2="444.8130989624308" style="stroke: rgb(0, 85, 255); stroke-width: 2px;"></line><line x1="206.99999999999977" y1="460" x2="206.99999999999977" y2="445.1928063131293" style="stroke: rgb(0, 85, 255); stroke-width: 2px;"></line><line x1="207.99999999999977" y1="460" x2="207.99999999999977" y2="445.5623538731432" style="stroke: rgb(0, 85, 255); stroke-width: 2px;"></line><line x1="208.99999999999977" y1="460" x2="208.99999999999977" y2="445.9220250972623" style="stroke: rgb(0, 85, 255); stroke-width: 2px;"></line><line x1="209.99999999999977" y1="460" x2="209.99999999999977" y2="446.27209554210367" style="stroke: rgb(0, 85, 255); stroke-width: 2px;"></line><line x1="210.99999999999977" y1="460" x2="210.99999999999977" y2="446.6128330645186" style="stroke: rgb(0, 85, 255); stroke-width: 2px;"></line><line x1="211.99999999999977" y1="460" x2="211.99999999999977" y2="446.94449801726574" style="stroke: rgb(0, 85, 255); stroke-width: 2px;"></line><line x1="212.99999999999974" y1="460" x2="212.99999999999974" y2="447.26734344176504" style="stroke: rgb(0, 85, 255); stroke-width: 2px;"></line><line x1="213.99999999999974" y1="460" x2="213.99999999999974" y2="447.5816152577732" style="stroke: rgb(0, 85, 255); stroke-width: 2px;"></line><line x1="214.99999999999974" y1="460" x2="214.99999999999974" y2="447.88755244984804" style="stroke: rgb(0, 85, 255); stroke-width: 2px;"></line><line x1="215.99999999999974" y1="460" x2="215.99999999999974" y2="448.1853872504897" style="stroke: rgb(0, 85, 255); stroke-width: 2px;"></line><line x1="216.99999999999974" y1="460" x2="216.99999999999974" y2="448.47534531986844" style="stroke: rgb(0, 85, 255); stroke-width: 2px;"></line><line x1="217.99999999999974" y1="460" x2="217.99999999999974" y2="448.75764592206525" style="stroke: rgb(0, 85, 255); stroke-width: 2px;"></line><line x1="218.99999999999972" y1="460" x2="218.99999999999972" y2="449.0325020977709" style="stroke: rgb(0, 85, 255); stroke-width: 2px;"></line><line x1="219.99999999999972" y1="460" x2="219.99999999999972" y2="449.3001208333998" style="stroke: rgb(0, 85, 255); stroke-width: 2px;"></line><line x1="220.99999999999972" y1="460" x2="220.99999999999972" y2="449.5607032265921" style="stroke: rgb(0, 85, 255); stroke-width: 2px;"></line><line x1="221.99999999999972" y1="460" x2="221.99999999999972" y2="449.81444464808794" style="stroke: rgb(0, 85, 255); stroke-width: 2px;"></line><line x1="222.99999999999972" y1="460" x2="222.99999999999972" y2="450.0615348999666" style="stroke: rgb(0, 85, 255); stroke-width: 2px;"></line><line x1="223.99999999999972" y1="460" x2="223.99999999999972" y2="450.3021583702573" style="stroke: rgb(0, 85, 255); stroke-width: 2px;"></line><line x1="224.99999999999972" y1="460" x2="224.99999999999972" y2="450.5364941839317" style="stroke: rgb(0, 85, 255); stroke-width: 2px;"></line><line x1="225.99999999999972" y1="460" x2="225.99999999999972" y2="450.76471635030026" style="stroke: rgb(0, 85, 255); stroke-width: 2px;"></line><line x1="226.99999999999972" y1="460" x2="226.99999999999972" y2="450.98699390683726" style="stroke: rgb(0, 85, 255); stroke-width: 2px;"></line><line x1="100" y1="460" x2="100" y2="480" style="stroke: rgb(0, 85, 255); stroke-width: 2px;"></line><line x1="227.8710736216225" y1="460" x2="227.8710736216225" y2="480" style="stroke: rgb(0, 85, 255); stroke-width: 2px;"></line><text x="100" y="500" style="stroke: rgb(0, 85, 255); font-size: 9pt; font-family: sans-serif; text-anchor: middle;">0.000</text><text x="227.8710736216225" y="500" style="stroke: rgb(0, 85, 255); font-size: 9pt; font-family: sans-serif; text-anchor: middle;">3.197</text><text x="163.93553681081124" y="490" style="stroke: rgb(0, 85, 255); font-size: 9pt; font-family: sans-serif; text-anchor: middle;">&lt;- Accept H₀ -&gt;</text><text x="277.8710736216225" y="490" style="stroke: red; font-size: 9pt; font-family: sans-serif; text-anchor: middle;">&lt;- Reject H₀</text><text x="277.8710736216225" y="430" style="stroke: red; font-size: 9pt; font-family: sans-serif; text-anchor: middle;">0.050</text><line x1="273.87893475295635" y1="460" x2="273.87893475295635" y2="510" style="stroke-width: 2px; stroke: green;"></line><text x="273.87893475295635" y="520" style="stroke: green; font-size: 9pt; font-family: sans-serif; text-anchor: middle;">Fo = 4.35, p-value = 0.0191</text><text x="300" y="535" style="stroke: red; font-size: 9pt; font-family: sans-serif; text-anchor: middle;">[Decision] Reject H₀</text></svg>