<svg xmlns="http://www.w3.org/2000/svg" id="SVG" width="600" height="560" xlink="http://www.w3.org/1999/xlink"><text x="290" y="50" style="font-size: 17px; font-family: sans-seirf; stroke: black; text-anchor: middle;">(Group  Gender)  Marital  Pie Chart</text><text x="290" y="530" style="font-size: 12px; font-family: sans-seirf; stroke: black; text-anchor: middle;"></text><g class="piechart" id="piechart0"><g transform="translate(290,180)"><path class="pie" d="M5.5109105961630896e-15,-90A90,90,0,1,1,-77.94228634059947,45.00000000000003L0,0Z" style="fill: rgb(0, 85, 255);"></path><text transform="translate(38.97114317029974,22.499999999999993)" style="font-size: 10px; font-family: sans-seirf; stroke: white; text-anchor: middle;">1: 4</text></g><g transform="translate(290,180)"><path class="pie" d="M-77.94228634059947,45.00000000000003A90,90,0,0,1,-77.94228634059951,-44.99999999999994L0,0Z" style="fill: rgb(255, 69, 0);"></path><text transform="translate(-45,5.5109105961630896e-15)" style="font-size: 10px; font-family: sans-seirf; stroke: white; text-anchor: middle;">2: 1</text></g><g transform="translate(290,180)"><path class="pie" d="M-77.94228634059951,-44.99999999999994A90,90,0,0,1,-9.646878956150053e-14,-90L0,0Z" style="fill: rgb(0, 170, 0);"></path><text transform="translate(-22.500000000000053,-38.971143170299705)" style="font-size: 10px; font-family: sans-seirf; stroke: white; text-anchor: middle;">3: 1</text></g></g><text x="520" y="180" style="font-size: 12px; font-family: sans-seirf; stroke: rgb(0, 85, 255); text-anchor: start;">Group 1</text><g class="piechart" id="piechart1"><g transform="translate(290,380)"><path class="pie" d="M5.5109105961630896e-15,-90A90,90,0,1,1,5.5109105961630896e-15,90L0,0Z" style="fill: rgb(0, 85, 255);"></path><text transform="translate(45,0)" style="font-size: 10px; font-family: sans-seirf; stroke: white; text-anchor: middle;">1: 2</text></g><g transform="translate(290,380)"><path class="pie" d="M5.5109105961630896e-15,90A90,90,0,1,1,-1.6532731788489267e-14,-90L0,0Z" style="fill: rgb(255, 69, 0);"></path><text transform="translate(-45,5.5109105961630896e-15)" style="font-size: 10px; font-family: sans-seirf; stroke: white; text-anchor: middle;">2: 2</text></g><g transform="translate(290,380)"><path class="pie" d="M-1.6532731788489267e-14,-90L0,0Z" style="fill: rgb(0, 170, 0);"></path><text transform="translate(-8.266365894244634e-15,-45)" style="font-size: 10px; font-family: sans-seirf; stroke: white; text-anchor: middle;">3: 0</text></g></g><text x="520" y="380" style="font-size: 12px; font-family: sans-seirf; stroke: rgb(255, 69, 0); text-anchor: start;">Group 2</text></svg>