<svg xmlns="http://www.w3.org/2000/svg" id="SVG" width="600" height="560"><text x="290" y="40" style="font-size: 17px; font-family: sans-seirf; stroke: black; text-anchor: middle;">Probability Histogram and Normal Distribution</text><g class="axis" transform="translate(80, 80) " fill="none" font-size="10" font-family="sans-serif" text-anchor="end"><path class="domain" stroke="#000" d="M-6,100.5H0.5V0.5H-6"></path><g class="tick" opacity="1" transform="translate(0,100.5)"><line stroke="#000" x2="-6"></line><text fill="#000" x="-9" dy="0.32em">0.00</text></g><g class="tick" opacity="1" transform="translate(0,92.84660300280275)"><line stroke="#000" x2="-6"></line><text fill="#000" x="-9" dy="0.32em">0.01</text></g><g class="tick" opacity="1" transform="translate(0,85.1932060056055)"><line stroke="#000" x2="-6"></line><text fill="#000" x="-9" dy="0.32em">0.02</text></g><g class="tick" opacity="1" transform="translate(0,77.53980900840827)"><line stroke="#000" x2="-6"></line><text fill="#000" x="-9" dy="0.32em">0.03</text></g><g class="tick" opacity="1" transform="translate(0,69.88641201121101)"><line stroke="#000" x2="-6"></line><text fill="#000" x="-9" dy="0.32em">0.04</text></g><g class="tick" opacity="1" transform="translate(0,62.23301501401377)"><line stroke="#000" x2="-6"></line><text fill="#000" x="-9" dy="0.32em">0.05</text></g><g class="tick" opacity="1" transform="translate(0,54.579618016816525)"><line stroke="#000" x2="-6"></line><text fill="#000" x="-9" dy="0.32em">0.06</text></g><g class="tick" opacity="1" transform="translate(0,46.92622101961928)"><line stroke="#000" x2="-6"></line><text fill="#000" x="-9" dy="0.32em">0.07</text></g><g class="tick" opacity="1" transform="translate(0,39.27282402242203)"><line stroke="#000" x2="-6"></line><text fill="#000" x="-9" dy="0.32em">0.08</text></g><g class="tick" opacity="1" transform="translate(0,31.619427025224795)"><line stroke="#000" x2="-6"></line><text fill="#000" x="-9" dy="0.32em">0.09</text></g><g class="tick" opacity="1" transform="translate(0,23.966030028027546)"><line stroke="#000" x2="-6"></line><text fill="#000" x="-9" dy="0.32em">0.10</text></g><g class="tick" opacity="1" transform="translate(0,16.3126330308303)"><line stroke="#000" x2="-6"></line><text fill="#000" x="-9" dy="0.32em">0.11</text></g><g class="tick" opacity="1" transform="translate(0,8.65923603363305)"><line stroke="#000" x2="-6"></line><text fill="#000" x="-9" dy="0.32em">0.12</text></g><g class="tick" opacity="1" transform="translate(0,1.0058390364358019)"><line stroke="#000" x2="-6"></line><text fill="#000" x="-9" dy="0.32em">0.13</text></g></g><g class="axis" transform="translate(80, 180) " fill="none" font-size="10" font-family="sans-serif" text-anchor="end"><path class="domain" stroke="#000" d="M-6,100.5H0.5V0.5H-6"></path><g class="tick" opacity="1" transform="translate(0,100.5)"><line stroke="#000" x2="-6"></line><text fill="#000" x="-9" dy="0.32em">0.00</text></g><g class="tick" opacity="1" transform="translate(0,92.84660300280275)"><line stroke="#000" x2="-6"></line><text fill="#000" x="-9" dy="0.32em">0.01</text></g><g class="tick" opacity="1" transform="translate(0,85.1932060056055)"><line stroke="#000" x2="-6"></line><text fill="#000" x="-9" dy="0.32em">0.02</text></g><g class="tick" opacity="1" transform="translate(0,77.53980900840827)"><line stroke="#000" x2="-6"></line><text fill="#000" x="-9" dy="0.32em">0.03</text></g><g class="tick" opacity="1" transform="translate(0,69.88641201121101)"><line stroke="#000" x2="-6"></line><text fill="#000" x="-9" dy="0.32em">0.04</text></g><g class="tick" opacity="1" transform="translate(0,62.23301501401377)"><line stroke="#000" x2="-6"></line><text fill="#000" x="-9" dy="0.32em">0.05</text></g><g class="tick" opacity="1" transform="translate(0,54.579618016816525)"><line stroke="#000" x2="-6"></line><text fill="#000" x="-9" dy="0.32em">0.06</text></g><g class="tick" opacity="1" transform="translate(0,46.92622101961928)"><line stroke="#000" x2="-6"></line><text fill="#000" x="-9" dy="0.32em">0.07</text></g><g class="tick" opacity="1" transform="translate(0,39.27282402242203)"><line stroke="#000" x2="-6"></line><text fill="#000" x="-9" dy="0.32em">0.08</text></g><g class="tick" opacity="1" transform="translate(0,31.619427025224795)"><line stroke="#000" x2="-6"></line><text fill="#000" x="-9" dy="0.32em">0.09</text></g><g class="tick" opacity="1" transform="translate(0,23.966030028027546)"><line stroke="#000" x2="-6"></line><text fill="#000" x="-9" dy="0.32em">0.10</text></g><g class="tick" opacity="1" transform="translate(0,16.3126330308303)"><line stroke="#000" x2="-6"></line><text fill="#000" x="-9" dy="0.32em">0.11</text></g><g class="tick" opacity="1" transform="translate(0,8.65923603363305)"><line stroke="#000" x2="-6"></line><text fill="#000" x="-9" dy="0.32em">0.12</text></g><g class="tick" opacity="1" transform="translate(0,1.0058390364358019)"><line stroke="#000" x2="-6"></line><text fill="#000" x="-9" dy="0.32em">0.13</text></g></g><g class="axis" transform="translate(80, 280) " fill="none" font-size="10" font-family="sans-serif" text-anchor="end"><path class="domain" stroke="#000" d="M-6,100.5H0.5V0.5H-6"></path><g class="tick" opacity="1" transform="translate(0,100.5)"><line stroke="#000" x2="-6"></line><text fill="#000" x="-9" dy="0.32em">0.00</text></g><g class="tick" opacity="1" transform="translate(0,92.84660300280275)"><line stroke="#000" x2="-6"></line><text fill="#000" x="-9" dy="0.32em">0.01</text></g><g class="tick" opacity="1" transform="translate(0,85.1932060056055)"><line stroke="#000" x2="-6"></line><text fill="#000" x="-9" dy="0.32em">0.02</text></g><g class="tick" opacity="1" transform="translate(0,77.53980900840827)"><line stroke="#000" x2="-6"></line><text fill="#000" x="-9" dy="0.32em">0.03</text></g><g class="tick" opacity="1" transform="translate(0,69.88641201121101)"><line stroke="#000" x2="-6"></line><text fill="#000" x="-9" dy="0.32em">0.04</text></g><g class="tick" opacity="1" transform="translate(0,62.23301501401377)"><line stroke="#000" x2="-6"></line><text fill="#000" x="-9" dy="0.32em">0.05</text></g><g class="tick" opacity="1" transform="translate(0,54.579618016816525)"><line stroke="#000" x2="-6"></line><text fill="#000" x="-9" dy="0.32em">0.06</text></g><g class="tick" opacity="1" transform="translate(0,46.92622101961928)"><line stroke="#000" x2="-6"></line><text fill="#000" x="-9" dy="0.32em">0.07</text></g><g class="tick" opacity="1" transform="translate(0,39.27282402242203)"><line stroke="#000" x2="-6"></line><text fill="#000" x="-9" dy="0.32em">0.08</text></g><g class="tick" opacity="1" transform="translate(0,31.619427025224795)"><line stroke="#000" x2="-6"></line><text fill="#000" x="-9" dy="0.32em">0.09</text></g><g class="tick" opacity="1" transform="translate(0,23.966030028027546)"><line stroke="#000" x2="-6"></line><text fill="#000" x="-9" dy="0.32em">0.10</text></g><g class="tick" opacity="1" transform="translate(0,16.3126330308303)"><line stroke="#000" x2="-6"></line><text fill="#000" x="-9" dy="0.32em">0.11</text></g><g class="tick" opacity="1" transform="translate(0,8.65923603363305)"><line stroke="#000" x2="-6"></line><text fill="#000" x="-9" dy="0.32em">0.12</text></g><g class="tick" opacity="1" transform="translate(0,1.0058390364358019)"><line stroke="#000" x2="-6"></line><text fill="#000" x="-9" dy="0.32em">0.13</text></g></g><g class="axis" transform="translate(80, 380) " fill="none" font-size="10" font-family="sans-serif" text-anchor="end"><path class="domain" stroke="#000" d="M-6,100.5H0.5V0.5H-6"></path><g class="tick" opacity="1" transform="translate(0,100.5)"><line stroke="#000" x2="-6"></line><text fill="#000" x="-9" dy="0.32em">0.00</text></g><g class="tick" opacity="1" transform="translate(0,92.84660300280275)"><line stroke="#000" x2="-6"></line><text fill="#000" x="-9" dy="0.32em">0.01</text></g><g class="tick" opacity="1" transform="translate(0,85.1932060056055)"><line stroke="#000" x2="-6"></line><text fill="#000" x="-9" dy="0.32em">0.02</text></g><g class="tick" opacity="1" transform="translate(0,77.53980900840827)"><line stroke="#000" x2="-6"></line><text fill="#000" x="-9" dy="0.32em">0.03</text></g><g class="tick" opacity="1" transform="translate(0,69.88641201121101)"><line stroke="#000" x2="-6"></line><text fill="#000" x="-9" dy="0.32em">0.04</text></g><g class="tick" opacity="1" transform="translate(0,62.23301501401377)"><line stroke="#000" x2="-6"></line><text fill="#000" x="-9" dy="0.32em">0.05</text></g><g class="tick" opacity="1" transform="translate(0,54.579618016816525)"><line stroke="#000" x2="-6"></line><text fill="#000" x="-9" dy="0.32em">0.06</text></g><g class="tick" opacity="1" transform="translate(0,46.92622101961928)"><line stroke="#000" x2="-6"></line><text fill="#000" x="-9" dy="0.32em">0.07</text></g><g class="tick" opacity="1" transform="translate(0,39.27282402242203)"><line stroke="#000" x2="-6"></line><text fill="#000" x="-9" dy="0.32em">0.08</text></g><g class="tick" opacity="1" transform="translate(0,31.619427025224795)"><line stroke="#000" x2="-6"></line><text fill="#000" x="-9" dy="0.32em">0.09</text></g><g class="tick" opacity="1" transform="translate(0,23.966030028027546)"><line stroke="#000" x2="-6"></line><text fill="#000" x="-9" dy="0.32em">0.10</text></g><g class="tick" opacity="1" transform="translate(0,16.3126330308303)"><line stroke="#000" x2="-6"></line><text fill="#000" x="-9" dy="0.32em">0.11</text></g><g class="tick" opacity="1" transform="translate(0,8.65923603363305)"><line stroke="#000" x2="-6"></line><text fill="#000" x="-9" dy="0.32em">0.12</text></g><g class="tick" opacity="1" transform="translate(0,1.0058390364358019)"><line stroke="#000" x2="-6"></line><text fill="#000" x="-9" dy="0.32em">0.13</text></g></g><line x1="500" x2="500" y1="80" y2="480" style="stroke: black;"></line><line x1="80" x2="500" y1="80" y2="80" style="stroke: black;"></line><line x1="80" x2="500" y1="180" y2="180" style="stroke: black;"></line><line x1="80" x2="500" y1="280" y2="280" style="stroke: black;"></line><line x1="80" x2="500" y1="380" y2="380" style="stroke: black;"></line><line x1="80" x2="500" y1="480" y2="480" style="stroke: black;"></line><line x1="80" x2="80" y1="480" y2="485" style="stroke: black;"></line><text class="myaxis" x="80" y="500" style="text-anchor: middle; font-family: sans-serif; font-size: 7px; stroke: rgb(0, 85, 255);">42.89</text><line x1="106.24999999999999" x2="106.24999999999999" y1="480" y2="485" style="stroke: black;"></line><text class="myaxis" x="106.24999999999999" y="500" style="text-anchor: middle; font-family: sans-serif; font-size: 7px; stroke: rgb(0, 85, 255);">47.20</text><line x1="132.50000000000003" x2="132.50000000000003" y1="480" y2="485" style="stroke: black;"></line><text class="myaxis" x="132.50000000000003" y="500" style="text-anchor: middle; font-family: sans-serif; font-size: 7px; stroke: rgb(0, 85, 255);">51.50</text><line x1="158.75" x2="158.75" y1="480" y2="485" style="stroke: black;"></line><text class="myaxis" x="158.75" y="500" style="text-anchor: middle; font-family: sans-serif; font-size: 7px; stroke: rgb(0, 85, 255);">55.81</text><line x1="185" x2="185" y1="480" y2="485" style="stroke: black;"></line><text class="myaxis" x="185" y="500" style="text-anchor: middle; font-family: sans-serif; font-size: 7px; stroke: rgb(0, 85, 255);">60.11</text><line x1="211.25000000000003" x2="211.25000000000003" y1="480" y2="485" style="stroke: black;"></line><text class="myaxis" x="211.25000000000003" y="500" style="text-anchor: middle; font-family: sans-serif; font-size: 7px; stroke: rgb(0, 85, 255);">64.42</text><line x1="237.49999999999997" x2="237.49999999999997" y1="480" y2="485" style="stroke: black;"></line><text class="myaxis" x="237.49999999999997" y="500" style="text-anchor: middle; font-family: sans-serif; font-size: 7px; stroke: rgb(0, 85, 255);">68.72</text><line x1="263.75" x2="263.75" y1="480" y2="485" style="stroke: black;"></line><text class="myaxis" x="263.75" y="500" style="text-anchor: middle; font-family: sans-serif; font-size: 7px; stroke: rgb(0, 85, 255);">73.03</text><line x1="290.00000000000006" x2="290.00000000000006" y1="480" y2="485" style="stroke: black;"></line><text class="myaxis" x="290.00000000000006" y="500" style="text-anchor: middle; font-family: sans-serif; font-size: 7px; stroke: rgb(0, 85, 255);">77.33</text><line x1="316.25" x2="316.25" y1="480" y2="485" style="stroke: black;"></line><text class="myaxis" x="316.25" y="500" style="text-anchor: middle; font-family: sans-serif; font-size: 7px; stroke: rgb(0, 85, 255);">81.64</text><line x1="342.49999999999994" x2="342.49999999999994" y1="480" y2="485" style="stroke: black;"></line><text class="myaxis" x="342.49999999999994" y="500" style="text-anchor: middle; font-family: sans-serif; font-size: 7px; stroke: rgb(0, 85, 255);">85.94</text><line x1="368.75000000000006" x2="368.75000000000006" y1="480" y2="485" style="stroke: black;"></line><text class="myaxis" x="368.75000000000006" y="500" style="text-anchor: middle; font-family: sans-serif; font-size: 7px; stroke: rgb(0, 85, 255);">90.25</text><line x1="395" x2="395" y1="480" y2="485" style="stroke: black;"></line><text class="myaxis" x="395" y="500" style="text-anchor: middle; font-family: sans-serif; font-size: 7px; stroke: rgb(0, 85, 255);">94.55</text><line x1="421.24999999999994" x2="421.24999999999994" y1="480" y2="485" style="stroke: black;"></line><text class="myaxis" x="421.24999999999994" y="500" style="text-anchor: middle; font-family: sans-serif; font-size: 7px; stroke: rgb(0, 85, 255);">98.86</text><line x1="447.50000000000006" x2="447.50000000000006" y1="480" y2="485" style="stroke: black;"></line><text class="myaxis" x="447.50000000000006" y="500" style="text-anchor: middle; font-family: sans-serif; font-size: 7px; stroke: rgb(0, 85, 255);">103.16</text><line x1="473.75000000000006" x2="473.75000000000006" y1="480" y2="485" style="stroke: black;"></line><text class="myaxis" x="473.75000000000006" y="500" style="text-anchor: middle; font-family: sans-serif; font-size: 7px; stroke: rgb(0, 85, 255);">107.47</text><line x1="500" x2="500" y1="480" y2="485" style="stroke: black;"></line><text class="myaxis" x="500" y="500" style="text-anchor: middle; font-family: sans-serif; font-size: 7px; stroke: rgb(0, 85, 255);">111.77</text><text x="290" y="530" style="font-size: 12px; font-family: sans-seirf; stroke: black; text-anchor: middle;">Score</text><text x="520" y="130" style="font-size: 12px; font-family: sans-seirf; stroke: rgb(0, 85, 255); text-anchor: start;">Group 1</text><rect class="bar" x="80" width="26.25" height="0" y="180" style="fill: rgb(0, 85, 255); stroke: black; stroke-width: 1px;"></rect><rect class="bar" x="106.24999999999999" width="26.25" height="0" y="180" style="fill: rgb(0, 85, 255); stroke: black; stroke-width: 1px;"></rect><rect class="bar" x="132.50000000000003" width="26.25" height="0" y="180" style="fill: rgb(0, 85, 255); stroke: black; stroke-width: 1px;"></rect><rect class="bar" x="158.75" width="26.25" height="0" y="180" style="fill: rgb(0, 85, 255); stroke: black; stroke-width: 1px;"></rect><rect class="bar" x="185" width="26.25" height="0" y="180" style="fill: rgb(0, 85, 255); stroke: black; stroke-width: 1px;"></rect><rect class="bar" x="211.25000000000003" width="26.25" height="0" y="180" style="fill: rgb(0, 85, 255); stroke: black; stroke-width: 1px;"></rect><rect class="bar" x="237.49999999999997" width="26.25" height="59.25925925925926" y="120.74074074074073" style="fill: rgb(0, 85, 255); stroke: black; stroke-width: 1px;"></rect><rect class="bar" x="263.75" width="26.25" height="29.62962962962963" y="150.37037037037038" style="fill: rgb(0, 85, 255); stroke: black; stroke-width: 1px;"></rect><rect class="bar" x="290.00000000000006" width="26.25" height="29.62962962962963" y="150.37037037037038" style="fill: rgb(0, 85, 255); stroke: black; stroke-width: 1px;"></rect><rect class="bar" x="316.25" width="26.25" height="29.62962962962963" y="150.37037037037038" style="fill: rgb(0, 85, 255); stroke: black; stroke-width: 1px;"></rect><rect class="bar" x="342.49999999999994" width="26.25" height="29.62962962962963" y="150.37037037037038" style="fill: rgb(0, 85, 255); stroke: black; stroke-width: 1px;"></rect><rect class="bar" x="368.75000000000006" width="26.25" height="0" y="180" style="fill: rgb(0, 85, 255); stroke: black; stroke-width: 1px;"></rect><rect class="bar" x="395" width="26.25" height="0" y="180" style="fill: rgb(0, 85, 255); stroke: black; stroke-width: 1px;"></rect><rect class="bar" x="421.24999999999994" width="26.25" height="0" y="180" style="fill: rgb(0, 85, 255); stroke: black; stroke-width: 1px;"></rect><rect class="bar" x="447.50000000000006" width="26.25" height="0" y="180" style="fill: rgb(0, 85, 255); stroke: black; stroke-width: 1px;"></rect><rect class="bar" x="473.75000000000006" width="26.25" height="0" y="180" style="fill: rgb(0, 85, 255); stroke: black; stroke-width: 1px;"></rect><line x1="296.0975102537809" y1="131.108652850451" x2="296.0975102537809" y2="185" style="stroke: red;"></line><text x="296.0975102537809" y="192" style="stroke: red; text-anchor: middle; font-family: sans-serif; font-size: 7pt;">Mean=78.33</text><text x="376.0975102537809" y="192" style="stroke: red; text-anchor: middle; font-family: sans-serif; font-size: 7pt;">Std Dev=7.79</text><line x1="80" x2="84.15841584158414" y1="179.99874808250783" y2="179.99814247312142" style="stroke: red;"></line><line x1="84.15841584158414" x2="88.31683168316829" y1="179.99814247312142" y2="179.9972649519495" style="stroke: red;"></line><line x1="88.31683168316829" x2="92.47524752475243" y1="179.9972649519495" y2="179.99600363387418" style="stroke: red;"></line><line x1="92.47524752475243" x2="96.63366336633658" y1="179.99600363387418" y2="179.9942052322785" style="stroke: red;"></line><line x1="96.63366336633658" x2="100.79207920792074" y1="179.9942052322785" y2="179.99166170511097" style="stroke: red;"></line><line x1="100.79207920792074" x2="104.95049504950488" y1="179.99166170511097" y2="179.9880933682292" style="stroke: red;"></line><line x1="104.95049504950488" x2="109.10891089108902" y1="179.9880933682292" y2="179.9831278258335" style="stroke: red;"></line><line x1="109.10891089108902" x2="113.26732673267317" y1="179.9831278258335" y2="179.97627404886063" style="stroke: red;"></line><line x1="113.26732673267317" x2="117.42574257425733" y1="179.97627404886063" y2="179.9668909539257" style="stroke: red;"></line><line x1="117.42574257425733" x2="121.58415841584147" y1="179.9668909539257" y2="179.95414991349674" style="stroke: red;"></line><line x1="121.58415841584147" x2="125.74257425742562" y1="179.95414991349674" y2="179.93699077974597" style="stroke: red;"></line><line x1="125.74257425742562" x2="129.90099009900976" y1="179.93699077974597" y2="179.91407124772" style="stroke: red;"></line><line x1="129.90099009900976" x2="134.0594059405939" y1="179.91407124772" y2="179.88370973481474" style="stroke: red;"></line><line x1="134.0594059405939" x2="138.21782178217805" y1="179.88370973481474" y2="179.8438224266055" style="stroke: red;"></line><line x1="138.21782178217805" x2="142.3762376237622" y1="179.8438224266055" y2="179.79185574174306" style="stroke: red;"></line><line x1="142.3762376237622" x2="146.53465346534634" y1="179.79185574174306" y2="179.72471620016938" style="stroke: red;"></line><line x1="146.53465346534634" x2="150.6930693069305" y1="179.72471620016938" y2="179.63870052692593" style="stroke: red;"></line><line x1="150.6930693069305" x2="154.85148514851466" y1="179.63870052692593" y2="179.52942976130043" style="stroke: red;"></line><line x1="154.85148514851466" x2="159.0099009900988" y1="179.52942976130043" y2="179.39179212388822" style="stroke: red;"></line><line x1="159.0099009900988" x2="163.16831683168294" y1="179.39179212388822" y2="179.21990035970333" style="stroke: red;"></line><line x1="163.16831683168294" x2="167.3267326732671" y1="179.21990035970333" y2="179.00707014258683" style="stroke: red;"></line><line x1="167.3267326732671" x2="171.48514851485123" y1="179.00707014258683" y2="178.74582679701524" style="stroke: red;"></line><line x1="171.48514851485123" x2="175.64356435643538" y1="178.74582679701524" y2="178.42794795781666" style="stroke: red;"></line><line x1="175.64356435643538" x2="179.80198019801952" y1="178.42794795781666" y2="178.04454973046464" style="stroke: red;"></line><line x1="179.80198019801952" x2="183.96039603960367" y1="178.04454973046464" y2="177.58622332250084" style="stroke: red;"></line><line x1="183.96039603960367" x2="188.1188118811878" y1="177.58622332250084" y2="177.04322789352022" style="stroke: red;"></line><line x1="188.1188118811878" x2="192.27722772277195" y1="177.04322789352022" y2="176.40574344878502" style="stroke: red;"></line><line x1="192.27722772277195" x2="196.4356435643561" y1="176.40574344878502" y2="175.66418495379006" style="stroke: red;"></line><line x1="196.4356435643561" x2="200.59405940594024" y1="175.66418495379006" y2="174.80957550281138" style="stroke: red;"></line><line x1="200.59405940594024" x2="204.7524752475244" y1="174.80957550281138" y2="173.83397242777394" style="stroke: red;"></line><line x1="204.7524752475244" x2="208.91089108910853" y1="173.83397242777394" y2="172.73093585034445" style="stroke: red;"></line><line x1="208.91089108910853" x2="213.06930693069273" y1="172.73093585034445" y2="171.49602459758125" style="stroke: red;"></line><line x1="213.06930693069273" x2="217.22772277227693" y1="171.49602459758125" y2="170.12729992258912" style="stroke: red;"></line><line x1="217.22772277227693" x2="221.38613861386114" y1="170.12729992258912" y2="168.62581344995118" style="stroke: red;"></line><line x1="221.38613861386114" x2="225.5445544554453" y1="168.62581344995118" y2="166.99605258302563" style="stroke: red;"></line><line x1="225.5445544554453" x2="229.7029702970295" y1="166.99605258302563" y2="165.24631464715762" style="stroke: red;"></line><line x1="229.7029702970295" x2="233.86138613861368" y1="165.24631464715762" y2="163.38898064450416" style="stroke: red;"></line><line x1="233.86138613861368" x2="238.01980198019788" y1="163.38898064450416" y2="161.44066093509463" style="stroke: red;"></line><line x1="238.01980198019788" x2="242.17821782178208" y1="161.44066093509463" y2="159.42218859949122" style="stroke: red;"></line><line x1="242.17821782178208" x2="246.33663366336626" y1="159.42218859949122" y2="157.35844170694804" style="stroke: red;"></line><line x1="246.33663366336626" x2="250.49504950495046" y1="157.35844170694804" y2="155.27798307531387" style="stroke: red;"></line><line x1="250.49504950495046" x2="254.65346534653466" y1="155.27798307531387" y2="153.21251506230368" style="stroke: red;"></line><line x1="254.65346534653466" x2="258.81188118811883" y1="153.21251506230368" y2="151.1961570068805" style="stroke: red;"></line><line x1="258.81188118811883" x2="262.97029702970303" y1="151.1961570068805" y2="149.26456353910348" style="stroke: red;"></line><line x1="262.97029702970303" x2="267.12871287128723" y1="149.26456353910348" y2="147.4539123900719" style="stroke: red;"></line><line x1="267.12871287128723" x2="271.28712871287144" y1="147.4539123900719" y2="145.79979980389706" style="stroke: red;"></line><line x1="271.28712871287144" x2="275.44554455445564" y1="145.79979980389706" y2="144.33608943580143" style="stroke: red;"></line><line x1="275.44554455445564" x2="279.6039603960398" y1="144.33608943580143" y2="143.09376604600763" style="stroke: red;"></line><line x1="279.6039603960398" x2="283.7623762376239" y1="143.09376604600763" y2="142.09984783918281" style="stroke: red;"></line><line x1="283.7623762376239" x2="287.9207920792081" y1="142.09984783918281" y2="141.376410618651" style="stroke: red;"></line><line x1="287.9207920792081" x2="292.0792079207923" y1="141.376410618651" y2="140.93977292098248" style="stroke: red;"></line><line x1="292.0792079207923" x2="296.23762376237653" y1="140.93977292098248" y2="140.79988411986594" style="stroke: red;"></line><line x1="296.23762376237653" x2="300.39603960396073" y1="140.79988411986594" y2="140.95994753766206" style="stroke: red;"></line><line x1="300.39603960396073" x2="304.55445544554493" y1="140.95994753766206" y2="141.41629850134706" style="stroke: red;"></line><line x1="304.55445544554493" x2="308.71287128712913" y1="141.41629850134706" y2="142.15854382536628" style="stroke: red;"></line><line x1="308.71287128712913" x2="312.87128712871333" y1="142.15854382536628" y2="143.16995530778664" style="stroke: red;"></line><line x1="312.87128712871333" x2="317.0297029702975" y1="143.16995530778664" y2="144.4280964353388" style="stroke: red;"></line><line x1="317.0297029702975" x2="321.1881188118817" y1="144.4280964353388" y2="145.90564951277028" style="stroke: red;"></line><line x1="321.1881188118817" x2="325.3465346534658" y1="145.90564951277028" y2="147.57140065106478" style="stroke: red;"></line><line x1="325.3465346534658" x2="329.5049504950501" y1="147.57140065106478" y2="149.3913330763592" style="stroke: red;"></line><line x1="329.5049504950501" x2="333.6633663366342" y1="149.3913330763592" y2="151.32977543986476" style="stroke: red;"></line><line x1="333.6633663366342" x2="337.8217821782185" y1="151.32977543986476" y2="153.3505513515526" style="stroke: red;"></line><line x1="337.8217821782185" x2="341.98019801980263" y1="153.3505513515526" y2="155.41807910786213" style="stroke: red;"></line><line x1="341.98019801980263" x2="346.13861386138683" y1="155.41807910786213" y2="157.4983761865572" style="stroke: red;"></line><line x1="346.13861386138683" x2="350.29702970297103" y1="157.4983761865572" y2="159.55993099999887" style="stroke: red;"></line><line x1="350.29702970297103" x2="354.4554455445552" y1="159.55993099999887" y2="161.57441395584385" style="stroke: red;"></line><line x1="354.4554455445552" x2="358.61386138613943" y1="161.57441395584385" y2="163.51721032354374" style="stroke: red;"></line><line x1="358.61386138613943" x2="362.7722772277236" y1="163.51721032354374" y2="165.3677679908863" style="stroke: red;"></line><line x1="362.7722772277236" x2="366.9306930693078" y1="165.3677679908863" y2="167.10976321570604" style="stroke: red;"></line><line x1="366.9306930693078" x2="371.089108910892" y1="167.10976321570604" y2="168.73109633694108" style="stroke: red;"></line><line x1="371.089108910892" x2="375.2475247524762" y1="168.73109633694108" y2="170.22373665156718" style="stroke: red;"></line><line x1="375.2475247524762" x2="379.4059405940603" y1="170.22373665156718" y2="171.5834409981674" style="stroke: red;"></line><line x1="379.4059405940603" x2="383.5643564356445" y1="171.5834409981674" y2="172.80937389123272" style="stroke: red;"></line><line x1="383.5643564356445" x2="387.7227722772287" y1="172.80937389123272" y2="173.90365835884666" style="stroke: red;"></line><line x1="387.7227722772287" x2="391.88118811881293" y1="173.90365835884666" y2="174.8708861230358" style="stroke: red;"></line><line x1="391.88118811881293" x2="396.03960396039713" y1="174.8708861230358" y2="175.71761370540585" style="stroke: red;"></line><line x1="396.03960396039713" x2="400.1980198019813" y1="175.71761370540585" y2="176.45186778930758" style="stroke: red;"></line><line x1="400.1980198019813" x2="404.3564356435655" y1="176.45186778930758" y2="177.08267910546562" style="stroke: red;"></line><line x1="404.3564356435655" x2="408.5148514851497" y1="177.08267910546562" y2="177.61965961148513" style="stroke: red;"></line><line x1="408.5148514851497" x2="412.6732673267339" y1="177.61965961148513" y2="178.07263315765147" style="stroke: red;"></line><line x1="412.6732673267339" x2="416.8316831683181" y1="178.07263315765147" y2="178.45132547075465" style="stroke: red;"></line><line x1="416.8316831683181" x2="420.9900990099022" y1="178.45132547075465" y2="178.76511537718346" style="stroke: red;"></line><line x1="420.9900990099022" x2="425.1485148514865" y1="178.76511537718346" y2="179.02284588699604" style="stroke: red;"></line><line x1="425.1485148514865" x2="429.3069306930706" y1="179.02284588699604" y2="179.23269116158474" style="stroke: red;"></line><line x1="429.3069306930706" x2="433.46534653465477" y1="179.23269116158474" y2="179.40207351367172" style="stroke: red;"></line><line x1="433.46534653465477" x2="437.62376237623903" y1="179.40207351367172" y2="179.53762341031162" style="stroke: red;"></line><line x1="437.62376237623903" x2="441.7821782178232" y1="179.53762341031162" y2="179.6451748967435" style="stroke: red;"></line><line x1="441.7821782178232" x2="445.94059405940743" y1="179.6451748967435" y2="179.72978883316986" style="stroke: red;"></line><line x1="445.94059405940743" x2="450.0990099009916" y1="179.72978883316986" y2="179.79579672521842" style="stroke: red;"></line><line x1="450.0990099009916" x2="454.2574257425758" y1="179.79579672521842" y2="179.8468586162772" style="stroke: red;"></line><line x1="454.2574257425758" x2="458.41584158416" y1="179.8468586162772" y2="179.8860293865458" style="stroke: red;"></line><line x1="458.41584158416" x2="462.5742574257441" y1="179.8860293865458" y2="179.91582877271685" style="stroke: red;"></line><line x1="462.5742574257441" x2="466.7326732673284" y1="179.91582877271685" y2="179.93831140373257" style="stroke: red;"></line><line x1="466.7326732673284" x2="470.89108910891247" y1="179.93831140373257" y2="179.95513408069075" style="stroke: red;"></line><line x1="470.89108910891247" x2="475.0495049504967" y1="179.95513408069075" y2="179.9676183698149" style="stroke: red;"></line><line x1="475.0495049504967" x2="479.20792079208087" y1="179.9676183698149" y2="179.97680730050368" style="stroke: red;"></line><line x1="479.20792079208087" x2="483.3663366336651" y1="179.97680730050368" y2="179.98351555431293" style="stroke: red;"></line><line x1="483.3663366336651" x2="487.5247524752493" y1="179.98351555431293" y2="179.9883729952571" style="stroke: red;"></line><line x1="487.5247524752493" x2="491.68316831683353" y1="179.9883729952571" y2="179.9918617354007" style="stroke: red;"></line><line x1="491.68316831683353" x2="495.8415841584176" y1="179.9918617354007" y2="179.99434716619896" style="stroke: red;"></line><text x="520" y="230" style="font-size: 12px; font-family: sans-seirf; stroke: rgb(255, 69, 0); text-anchor: start;">Group 2</text><rect class="bar" x="80" width="26.25" height="0" y="280" style="fill: rgb(255, 69, 0); stroke: black; stroke-width: 1px;"></rect><rect class="bar" x="106.24999999999999" width="26.25" height="0" y="280" style="fill: rgb(255, 69, 0); stroke: black; stroke-width: 1px;"></rect><rect class="bar" x="132.50000000000003" width="26.25" height="0" y="280" style="fill: rgb(255, 69, 0); stroke: black; stroke-width: 1px;"></rect><rect class="bar" x="158.75" width="26.25" height="0" y="280" style="fill: rgb(255, 69, 0); stroke: black; stroke-width: 1px;"></rect><rect class="bar" x="185" width="26.25" height="0" y="280" style="fill: rgb(255, 69, 0); stroke: black; stroke-width: 1px;"></rect><rect class="bar" x="211.25000000000003" width="26.25" height="29.62962962962963" y="250.37037037037038" style="fill: rgb(255, 69, 0); stroke: black; stroke-width: 1px;"></rect><rect class="bar" x="237.49999999999997" width="26.25" height="59.25925925925926" y="220.74074074074073" style="fill: rgb(255, 69, 0); stroke: black; stroke-width: 1px;"></rect><rect class="bar" x="263.75" width="26.25" height="0" y="280" style="fill: rgb(255, 69, 0); stroke: black; stroke-width: 1px;"></rect><rect class="bar" x="290.00000000000006" width="26.25" height="88.88888888888889" y="191.11111111111111" style="fill: rgb(255, 69, 0); stroke: black; stroke-width: 1px;"></rect><rect class="bar" x="316.25" width="26.25" height="0" y="280" style="fill: rgb(255, 69, 0); stroke: black; stroke-width: 1px;"></rect><rect class="bar" x="342.49999999999994" width="26.25" height="0" y="280" style="fill: rgb(255, 69, 0); stroke: black; stroke-width: 1px;"></rect><rect class="bar" x="368.75000000000006" width="26.25" height="0" y="280" style="fill: rgb(255, 69, 0); stroke: black; stroke-width: 1px;"></rect><rect class="bar" x="395" width="26.25" height="0" y="280" style="fill: rgb(255, 69, 0); stroke: black; stroke-width: 1px;"></rect><rect class="bar" x="421.24999999999994" width="26.25" height="0" y="280" style="fill: rgb(255, 69, 0); stroke: black; stroke-width: 1px;"></rect><rect class="bar" x="447.50000000000006" width="26.25" height="0" y="280" style="fill: rgb(255, 69, 0); stroke: black; stroke-width: 1px;"></rect><rect class="bar" x="473.75000000000006" width="26.25" height="0" y="280" style="fill: rgb(255, 69, 0); stroke: black; stroke-width: 1px;"></rect><line x1="272.72372094762056" y1="231.108652850451" x2="272.72372094762056" y2="285" style="stroke: red;"></line><text x="272.72372094762056" y="292" style="stroke: red; text-anchor: middle; font-family: sans-serif; font-size: 7pt;">Mean=74.50</text><text x="352.72372094762056" y="292" style="stroke: red; text-anchor: middle; font-family: sans-serif; font-size: 7pt;">Std Dev=6.57</text><line x1="80" x2="84.15841584158414" y1="279.9995691288409" y2="279.9992933461307" style="stroke: red;"></line><line x1="84.15841584158414" x2="88.31683168316829" y1="279.9992933461307" y2="279.99885348574566" style="stroke: red;"></line><line x1="88.31683168316829" x2="92.47524752475243" y1="279.99885348574566" y2="279.9981597976674" style="stroke: red;"></line><line x1="92.47524752475243" x2="96.63366336633658" y1="279.9981597976674" y2="279.9970781016973" style="stroke: red;"></line><line x1="96.63366336633658" x2="100.79207920792074" y1="279.9970781016973" y2="279.9954103663985" style="stroke: red;"></line><line x1="100.79207920792074" x2="104.95049504950488" y1="279.9954103663985" y2="279.9928681149007" style="stroke: red;"></line><line x1="104.95049504950488" x2="109.10891089108902" y1="279.9928681149007" y2="279.98903663028443" style="stroke: red;"></line><line x1="109.10891089108902" x2="113.26732673267317" y1="279.98903663028443" y2="279.98332763600837" style="stroke: red;"></line><line x1="113.26732673267317" x2="117.42574257425733" y1="279.98332763600837" y2="279.9749179108277" style="stroke: red;"></line><line x1="117.42574257425733" x2="121.58415841584147" y1="279.9749179108277" y2="279.962671234054" style="stroke: red;"></line><line x1="121.58415841584147" x2="125.74257425742562" y1="279.962671234054" y2="279.9450412357465" style="stroke: red;"></line><line x1="125.74257425742562" x2="129.90099009900976" y1="279.9450412357465" y2="279.91995325320346" style="stroke: red;"></line><line x1="129.90099009900976" x2="134.0594059405939" y1="279.91995325320346" y2="279.88466428438977" style="stroke: red;"></line><line x1="134.0594059405939" x2="138.21782178217805" y1="279.88466428438977" y2="279.8356016918454" style="stroke: red;"></line><line x1="138.21782178217805" x2="142.3762376237622" y1="279.8356016918454" y2="279.76818353757847" style="stroke: red;"></line><line x1="142.3762376237622" x2="146.53465346534634" y1="279.76818353757847" y2="279.6766263673566" style="stroke: red;"></line><line x1="146.53465346534634" x2="150.6930693069305" y1="279.6766263673566" y2="279.55374988852975" style="stroke: red;"></line><line x1="150.6930693069305" x2="154.85148514851466" y1="279.55374988852975" y2="279.39079217803555" style="stroke: red;"></line><line x1="154.85148514851466" x2="159.0099009900988" y1="279.39079217803555" y2="279.1772535726773" style="stroke: red;"></line><line x1="159.0099009900988" x2="163.16831683168294" y1="279.1772535726773" y2="278.900791848557" style="stroke: red;"></line><line x1="163.16831683168294" x2="167.3267326732671" y1="278.900791848557" y2="278.5471951648222" style="stroke: red;"></line><line x1="167.3267326732671" x2="171.48514851485123" y1="278.5471951648222" y2="278.1004618782178" style="stroke: red;"></line><line x1="171.48514851485123" x2="175.64356435643538" y1="278.1004618782178" y2="277.5430169973048" style="stroke: red;"></line><line x1="175.64356435643538" x2="179.80198019801952" y1="277.5430169973048" y2="276.8560929955603" style="stroke: red;"></line><line x1="179.80198019801952" x2="183.96039603960367" y1="276.8560929955603" y2="276.0202972834482" style="stroke: red;"></line><line x1="183.96039603960367" x2="188.1188118811878" y1="276.0202972834482" y2="275.0163793951917" style="stroke: red;"></line><line x1="188.1188118811878" x2="192.27722772277195" y1="275.0163793951917" y2="273.8261977459713" style="stroke: red;"></line><line x1="192.27722772277195" x2="196.4356435643561" y1="273.8261977459713" y2="272.43386896849734" style="stroke: red;"></line><line x1="196.4356435643561" x2="200.59405940594024" y1="272.43386896849734" y2="270.82706317623024" style="stroke: red;"></line><line x1="200.59405940594024" x2="204.7524752475244" y1="270.82706317623024" y2="268.9983874105533" style="stroke: red;"></line><line x1="204.7524752475244" x2="208.91089108910853" y1="268.9983874105533" y2="266.9467789133002" style="stroke: red;"></line><line x1="208.91089108910853" x2="213.06930693069273" y1="266.9467789133002" y2="264.6788120204379" style="stroke: red;"></line><line x1="213.06930693069273" x2="217.22772277227693" y1="264.6788120204379" y2="262.20980988132686" style="stroke: red;"></line><line x1="217.22772277227693" x2="221.38613861386114" y1="262.20980988132686" y2="259.56464726397354" style="stroke: red;"></line><line x1="221.38613861386114" x2="225.5445544554453" y1="259.56464726397354" y2="256.77813538817924" style="stroke: red;"></line><line x1="225.5445544554453" x2="229.7029702970295" y1="256.77813538817924" y2="253.89489526804832" style="stroke: red;"></line><line x1="229.7029702970295" x2="233.86138613861368" y1="253.89489526804832" y2="250.9686526413431" style="stroke: red;"></line><line x1="233.86138613861368" x2="238.01980198019788" y1="250.9686526413431" y2="248.0609241836734" style="stroke: red;"></line><line x1="238.01980198019788" x2="242.17821782178208" y1="248.0609241836734" y2="245.23910902847092" style="stroke: red;"></line><line x1="242.17821782178208" x2="246.33663366336626" y1="245.23910902847092" y2="242.5740481338761" style="stroke: red;"></line><line x1="246.33663366336626" x2="250.49504950495046" y1="242.5740481338761" y2="240.13716234738652" style="stroke: red;"></line><line x1="250.49504950495046" x2="254.65346534653466" y1="240.13716234738652" y2="237.99732324481744" style="stroke: red;"></line><line x1="254.65346534653466" x2="258.81188118811883" y1="237.99732324481744" y2="236.21764416939234" style="stroke: red;"></line><line x1="258.81188118811883" x2="262.97029702970303" y1="236.21764416939234" y2="234.85239824884593" style="stroke: red;"></line><line x1="262.97029702970303" x2="267.12871287128723" y1="234.85239824884593" y2="233.94427262749122" style="stroke: red;"></line><line x1="267.12871287128723" x2="271.28712871287144" y1="233.94427262749122" y2="233.52215247983173" style="stroke: red;"></line><line x1="271.28712871287144" x2="275.44554455445564" y1="233.52215247983173" y2="233.59959524088498" style="stroke: red;"></line><line x1="275.44554455445564" x2="279.6039603960398" y1="233.59959524088498" y2="234.1741074801467" style="stroke: red;"></line><line x1="279.6039603960398" x2="283.7623762376239" y1="234.1741074801467" y2="235.22727822487482" style="stroke: red;"></line><line x1="283.7623762376239" x2="287.9207920792081" y1="235.22727822487482" y2="236.72575878803954" style="stroke: red;"></line><line x1="287.9207920792081" x2="292.0792079207923" y1="236.72575878803954" y2="238.6230163562682" style="stroke: red;"></line><line x1="292.0792079207923" x2="296.23762376237653" y1="238.6230163562682" y2="240.86173271221384" style="stroke: red;"></line><line x1="296.23762376237653" x2="300.39603960396073" y1="240.86173271221384" y2="243.37667567128238" style="stroke: red;"></line><line x1="300.39603960396073" x2="304.55445544554493" y1="243.37667567128238" y2="246.09784288878717" style="stroke: red;"></line><line x1="304.55445544554493" x2="308.71287128712913" y1="246.09784288878717" y2="248.95366764630103" style="stroke: red;"></line><line x1="308.71287128712913" x2="312.87128712871333" y1="248.95366764630103" y2="251.87408412224758" style="stroke: red;"></line><line x1="312.87128712871333" x2="317.0297029702975" y1="251.87408412224758" y2="254.7932737061384" style="stroke: red;"></line><line x1="317.0297029702975" x2="321.1881188118817" y1="254.7932737061384" y2="257.6519508004717" style="stroke: red;"></line><line x1="321.1881188118817" x2="325.3465346534658" y1="257.6519508004717" y2="260.3990918783412" style="stroke: red;"></line><line x1="325.3465346534658" x2="329.5049504950501" y1="260.3990918783412" y2="262.9930604482322" style="stroke: red;"></line><line x1="329.5049504950501" x2="333.6633663366342" y1="262.9930604482322" y2="265.40212823632504" style="stroke: red;"></line><line x1="333.6633663366342" x2="337.8217821782185" y1="265.40212823632504" y2="267.60443516211535" style="stroke: red;"></line><line x1="337.8217821782185" x2="341.98019801980263" y1="267.60443516211535" y2="269.58746439375153" style="stroke: red;"></line><line x1="341.98019801980263" x2="346.13861386138683" y1="269.58746439375153" y2="271.34713199861324" style="stroke: red;"></line><line x1="346.13861386138683" x2="350.29702970297103" y1="271.34713199861324" y2="272.88660281406254" style="stroke: red;"></line><line x1="350.29702970297103" x2="354.4554455445552" y1="272.88660281406254" y2="274.2149456972464" style="stroke: red;"></line><line x1="354.4554455445552" x2="358.61386138613943" y1="274.2149456972464" y2="275.3457337680846" style="stroke: red;"></line><line x1="358.61386138613943" x2="362.7722772277236" y1="275.3457337680846" y2="276.29568077842856" style="stroke: red;"></line><line x1="362.7722772277236" x2="366.9306930693078" y1="276.29568077842856" y2="277.0833857771883" style="stroke: red;"></line><line x1="366.9306930693078" x2="371.089108910892" y1="277.0833857771883" y2="277.72823724866396" style="stroke: red;"></line><line x1="371.089108910892" x2="375.2475247524762" y1="277.72823724866396" y2="278.2495070720825" style="stroke: red;"></line><line x1="375.2475247524762" x2="379.4059405940603" y1="278.2495070720825" y2="278.6656457363951" style="stroke: red;"></line><line x1="379.4059405940603" x2="383.5643564356445" y1="278.6656457363951" y2="278.99377446144115" style="stroke: red;"></line><line x1="383.5643564356445" x2="387.7227722772287" y1="278.99377446144115" y2="279.24935788864275" style="stroke: red;"></line><line x1="387.7227722772287" x2="391.88118811881293" y1="279.24935788864275" y2="279.4460329737837" style="stroke: red;"></line><line x1="391.88118811881293" x2="396.03960396039713" y1="279.4460329737837" y2="279.59556539718426" style="stroke: red;"></line><line x1="396.03960396039713" x2="400.1980198019813" y1="279.59556539718426" y2="279.7079036714701" style="stroke: red;"></line><line x1="400.1980198019813" x2="404.3564356435655" y1="279.7079036714701" y2="279.79130247854846" style="stroke: red;"></line><line x1="404.3564356435655" x2="408.5148514851497" y1="279.79130247854846" y2="279.85248985653453" style="stroke: red;"></line><line x1="408.5148514851497" x2="412.6732673267339" y1="279.85248985653453" y2="279.8968569711627" style="stroke: red;"></line><line x1="412.6732673267339" x2="416.8316831683181" y1="279.8968569711627" y2="279.9286537294147" style="stroke: red;"></line><line x1="416.8316831683181" x2="420.9900990099022" y1="279.9286537294147" y2="279.95117794297084" style="stroke: red;"></line><line x1="420.9900990099022" x2="425.1485148514865" y1="279.95117794297084" y2="279.96694978631325" style="stroke: red;"></line><line x1="425.1485148514865" x2="429.3069306930706" y1="279.96694978631325" y2="279.9778667152755" style="stroke: red;"></line><line x1="429.3069306930706" x2="433.46534653465477" y1="279.9778667152755" y2="279.9853367286671" style="stroke: red;"></line><line x1="433.46534653465477" x2="437.62376237623903" y1="279.9853367286671" y2="279.99038986979104" style="stroke: red;"></line><line x1="437.62376237623903" x2="441.7821782178232" y1="279.99038986979104" y2="279.9937692392693" style="stroke: red;"></line><line x1="441.7821782178232" x2="445.94059405940743" y1="279.9937692392693" y2="279.9960036245981" style="stroke: red;"></line><line x1="445.94059405940743" x2="450.0990099009916" y1="279.9960036245981" y2="279.99746425906704" style="stroke: red;"></line><line x1="450.0990099009916" x2="454.2574257425758" y1="279.99746425906704" y2="279.9984083158693" style="stroke: red;"></line><line x1="454.2574257425758" x2="458.41584158416" y1="279.9984083158693" y2="279.9990116237697" style="stroke: red;"></line><line x1="458.41584158416" x2="462.5742574257441" y1="279.9990116237697" y2="279.99939284286995" style="stroke: red;"></line><line x1="462.5742574257441" x2="466.7326732673284" y1="279.99939284286995" y2="279.9996310280873" style="stroke: red;"></line><line x1="466.7326732673284" x2="470.89108910891247" y1="279.9996310280873" y2="279.9997781809114" style="stroke: red;"></line><line x1="470.89108910891247" x2="475.0495049504967" y1="279.9997781809114" y2="279.9998680777874" style="stroke: red;"></line><line x1="475.0495049504967" x2="479.20792079208087" y1="279.9998680777874" y2="279.99992238416434" style="stroke: red;"></line><line x1="479.20792079208087" x2="483.3663366336651" y1="279.99992238416434" y2="279.9999548252092" style="stroke: red;"></line><line x1="483.3663366336651" x2="487.5247524752493" y1="279.9999548252092" y2="279.999973989101" style="stroke: red;"></line><line x1="487.5247524752493" x2="491.68316831683353" y1="279.999973989101" y2="279.9999851841021" style="stroke: red;"></line><line x1="491.68316831683353" x2="495.8415841584176" y1="279.9999851841021" y2="279.9999916513935" style="stroke: red;"></line><text x="520" y="330" style="font-size: 12px; font-family: sans-seirf; stroke: rgb(0, 170, 0); text-anchor: start;">Group 3</text><rect class="bar" x="80" width="26.25" height="0" y="380" style="fill: rgb(0, 170, 0); stroke: black; stroke-width: 1px;"></rect><rect class="bar" x="106.24999999999999" width="26.25" height="0" y="380" style="fill: rgb(0, 170, 0); stroke: black; stroke-width: 1px;"></rect><rect class="bar" x="132.50000000000003" width="26.25" height="0" y="380" style="fill: rgb(0, 170, 0); stroke: black; stroke-width: 1px;"></rect><rect class="bar" x="158.75" width="26.25" height="0" y="380" style="fill: rgb(0, 170, 0); stroke: black; stroke-width: 1px;"></rect><rect class="bar" x="185" width="26.25" height="35.55555555555556" y="344.44444444444446" style="fill: rgb(0, 170, 0); stroke: black; stroke-width: 1px;"></rect><rect class="bar" x="211.25000000000003" width="26.25" height="35.55555555555556" y="344.44444444444446" style="fill: rgb(0, 170, 0); stroke: black; stroke-width: 1px;"></rect><rect class="bar" x="237.49999999999997" width="26.25" height="35.55555555555556" y="344.44444444444446" style="fill: rgb(0, 170, 0); stroke: black; stroke-width: 1px;"></rect><rect class="bar" x="263.75" width="26.25" height="35.55555555555556" y="344.44444444444446" style="fill: rgb(0, 170, 0); stroke: black; stroke-width: 1px;"></rect><rect class="bar" x="290.00000000000006" width="26.25" height="35.55555555555556" y="344.44444444444446" style="fill: rgb(0, 170, 0); stroke: black; stroke-width: 1px;"></rect><rect class="bar" x="316.25" width="26.25" height="0" y="380" style="fill: rgb(0, 170, 0); stroke: black; stroke-width: 1px;"></rect><rect class="bar" x="342.49999999999994" width="26.25" height="0" y="380" style="fill: rgb(0, 170, 0); stroke: black; stroke-width: 1px;"></rect><rect class="bar" x="368.75000000000006" width="26.25" height="0" y="380" style="fill: rgb(0, 170, 0); stroke: black; stroke-width: 1px;"></rect><rect class="bar" x="395" width="26.25" height="0" y="380" style="fill: rgb(0, 170, 0); stroke: black; stroke-width: 1px;"></rect><rect class="bar" x="421.24999999999994" width="26.25" height="0" y="380" style="fill: rgb(0, 170, 0); stroke: black; stroke-width: 1px;"></rect><rect class="bar" x="447.50000000000006" width="26.25" height="0" y="380" style="fill: rgb(0, 170, 0); stroke: black; stroke-width: 1px;"></rect><rect class="bar" x="473.75000000000006" width="26.25" height="0" y="380" style="fill: rgb(0, 170, 0); stroke: black; stroke-width: 1px;"></rect><line x1="253.82143916089964" y1="331.108652850451" x2="253.82143916089964" y2="385" style="stroke: red;"></line><text x="253.82143916089964" y="392" style="stroke: red; text-anchor: middle; font-family: sans-serif; font-size: 7pt;">Mean=71.40</text><text x="333.8214391608997" y="392" style="stroke: red; text-anchor: middle; font-family: sans-serif; font-size: 7pt;">Std Dev=7.13</text><line x1="80" x2="84.15841584158414" y1="379.98560759866876" y2="379.97899362194295" style="stroke: red;"></line><line x1="84.15841584158414" x2="88.31683168316829" y1="379.97899362194295" y2="379.96961964354335" style="stroke: red;"></line><line x1="88.31683168316829" x2="92.47524752475243" y1="379.96961964354335" y2="379.9564630175909" style="stroke: red;"></line><line x1="92.47524752475243" x2="96.63366336633658" y1="379.9564630175909" y2="379.93817735883863" style="stroke: red;"></line><line x1="96.63366336633658" x2="100.79207920792074" y1="379.93817735883863" y2="379.913011757461" style="stroke: red;"></line><line x1="100.79207920792074" x2="104.95049504950488" y1="379.913011757461" y2="379.87871772639124" style="stroke: red;"></line><line x1="104.95049504950488" x2="109.10891089108902" y1="379.87871772639124" y2="379.8324448139756" style="stroke: red;"></line><line x1="109.10891089108902" x2="113.26732673267317" y1="379.8324448139756" y2="379.7706270553237" style="stroke: red;"></line><line x1="113.26732673267317" x2="117.42574257425733" y1="379.7706270553237" y2="379.68886399062256" style="stroke: red;"></line><line x1="117.42574257425733" x2="121.58415841584147" y1="379.68886399062256" y2="379.58180182275356" style="stroke: red;"></line><line x1="121.58415841584147" x2="125.74257425742562" y1="379.58180182275356" y2="379.4430223540499" style="stroke: red;"></line><line x1="125.74257425742562" x2="129.90099009900976" y1="379.4430223540499" y2="379.26494951858484" style="stroke: red;"></line><line x1="129.90099009900976" x2="134.0594059405939" y1="379.26494951858484" y2="379.0387854442692" style="stroke: red;"></line><line x1="134.0594059405939" x2="138.21782178217805" y1="379.0387854442692" y2="378.7544898174546" style="stroke: red;"></line><line x1="138.21782178217805" x2="142.3762376237622" y1="378.7544898174546" y2="378.4008176148326" style="stroke: red;"></line><line x1="142.3762376237622" x2="146.53465346534634" y1="378.4008176148326" y2="377.96543071549075" style="stroke: red;"></line><line x1="146.53465346534634" x2="150.6930693069305" y1="377.96543071549075" y2="377.43509820555283" style="stroke: red;"></line><line x1="150.6930693069305" x2="154.85148514851466" y1="377.43509820555283" y2="376.7959980600853" style="stroke: red;"></line><line x1="154.85148514851466" x2="159.0099009900988" y1="376.7959980600853" y2="376.0341291180279" style="stroke: red;"></line><line x1="159.0099009900988" x2="163.16831683168294" y1="376.0341291180279" y2="375.1358367495459" style="stroke: red;"></line><line x1="163.16831683168294" x2="167.3267326732671" y1="375.1358367495459" y2="374.08844839433647" style="stroke: red;"></line><line x1="167.3267326732671" x2="171.48514851485123" y1="374.08844839433647" y2="372.881006450769" style="stroke: red;"></line><line x1="171.48514851485123" x2="175.64356435643538" y1="372.881006450769" y2="371.5050762510093" style="stroke: red;"></line><line x1="175.64356435643538" x2="179.80198019801952" y1="371.5050762510093" y2="369.95559670498375" style="stroke: red;"></line><line x1="179.80198019801952" x2="183.96039603960367" y1="369.95559670498375" y2="368.2317314587857" style="stroke: red;"></line><line x1="183.96039603960367" x2="188.1188118811878" y1="368.2317314587857" y2="366.33767004793316" style="stroke: red;"></line><line x1="188.1188118811878" x2="192.27722772277195" y1="366.33767004793316" y2="364.2833225478262" style="stroke: red;"></line><line x1="192.27722772277195" x2="196.4356435643561" y1="364.2833225478262" y2="362.0848486073684" style="stroke: red;"></line><line x1="196.4356435643561" x2="200.59405940594024" y1="362.0848486073684" y2="359.7649633182802" style="stroke: red;"></line><line x1="200.59405940594024" x2="204.7524752475244" y1="359.7649633182802" y2="357.35296867505593" style="stroke: red;"></line><line x1="204.7524752475244" x2="208.91089108910853" y1="357.35296867505593" y2="354.88447060001886" style="stroke: red;"></line><line x1="208.91089108910853" x2="213.06930693069273" y1="354.88447060001886" y2="352.40075737741796" style="stroke: red;"></line><line x1="213.06930693069273" x2="217.22772277227693" y1="352.40075737741796" y2="349.9478351083874" style="stroke: red;"></line><line x1="217.22772277227693" x2="221.38613861386114" y1="349.9478351083874" y2="347.57513824334467" style="stroke: red;"></line><line x1="221.38613861386114" x2="225.5445544554453" y1="347.57513824334467" y2="345.3339567488924" style="stroke: red;"></line><line x1="225.5445544554453" x2="229.7029702970295" y1="345.3339567488924" y2="343.2756441258782" style="stroke: red;"></line><line x1="229.7029702970295" x2="233.86138613861368" y1="343.2756441258782" y2="341.4496903107074" style="stroke: red;"></line><line x1="233.86138613861368" x2="238.01980198019788" y1="341.4496903107074" y2="339.9017585508144" style="stroke: red;"></line><line x1="238.01980198019788" x2="242.17821782178208" y1="339.9017585508144" y2="338.6717940302885" style="stroke: red;"></line><line x1="242.17821782178208" x2="246.33663366336626" y1="338.6717940302885" y2="337.79231319882126" style="stroke: red;"></line><line x1="246.33663366336626" x2="250.49504950495046" y1="337.79231319882126" y2="337.2869759216407" style="stroke: red;"></line><line x1="250.49504950495046" x2="254.65346534653466" y1="337.2869759216407" y2="337.1695279299266" style="stroke: red;"></line><line x1="254.65346534653466" x2="258.81188118811883" y1="337.1695279299266" y2="337.44317954573063" style="stroke: red;"></line><line x1="258.81188118811883" x2="262.97029702970303" y1="337.44317954573063" y2="338.10045987465287" style="stroke: red;"></line><line x1="262.97029702970303" x2="267.12871287128723" y1="338.10045987465287" y2="339.1235557094134" style="stroke: red;"></line><line x1="267.12871287128723" x2="271.28712871287144" y1="339.1235557094134" y2="340.48511368626475" style="stroke: red;"></line><line x1="271.28712871287144" x2="275.44554455445564" y1="340.48511368626475" y2="342.1494552765364" style="stroke: red;"></line><line x1="275.44554455445564" x2="279.6039603960398" y1="342.1494552765364" y2="344.07412929788785" style="stroke: red;"></line><line x1="279.6039603960398" x2="283.7623762376239" y1="344.07412929788785" y2="346.2117077156923" style="stroke: red;"></line><line x1="283.7623762376239" x2="287.9207920792081" y1="346.2117077156923" y2="348.51171891683845" style="stroke: red;"></line><line x1="287.9207920792081" x2="292.0792079207923" y1="348.51171891683845" y2="350.9226090250469" style="stroke: red;"></line><line x1="292.0792079207923" x2="296.23762376237653" y1="350.9226090250469" y2="353.39362610685913" style="stroke: red;"></line><line x1="296.23762376237653" x2="300.39603960396073" y1="353.39362610685913" y2="355.8765335200913" style="stroke: red;"></line><line x1="300.39603960396073" x2="304.55445544554493" y1="355.8765335200913" y2="358.3270758339141" style="stroke: red;"></line><line x1="304.55445544554493" x2="308.71287128712913" y1="358.3270758339141" y2="360.7061419425192" style="stroke: red;"></line><line x1="308.71287128712913" x2="312.87128712871333" y1="360.7061419425192" y2="362.98059322907955" style="stroke: red;"></line><line x1="312.87128712871333" x2="317.0297029702975" y1="362.98059322907955" y2="365.12374793028556" style="stroke: red;"></line><line x1="317.0297029702975" x2="321.1881188118817" y1="365.12374793028556" y2="367.1155343997136" style="stroke: red;"></line><line x1="321.1881188118817" x2="325.3465346534658" y1="367.1155343997136" y2="368.9423442974068" style="stroke: red;"></line><line x1="325.3465346534658" x2="329.5049504950501" y1="368.9423442974068" y2="370.5966308045848" style="stroke: red;"></line><line x1="329.5049504950501" x2="333.6633663366342" y1="370.5966308045848" y2="372.0763062198983" style="stroke: red;"></line><line x1="333.6633663366342" x2="337.8217821782185" y1="372.0763062198983" y2="373.3839976563035" style="stroke: red;"></line><line x1="337.8217821782185" x2="341.98019801980263" y1="373.3839976563035" y2="374.52621936642004" style="stroke: red;"></line><line x1="341.98019801980263" x2="346.13861386138683" y1="374.52621936642004" y2="375.5125161528629" style="stroke: red;"></line><line x1="346.13861386138683" x2="350.29702970297103" y1="375.5125161528629" y2="376.354625265079" style="stroke: red;"></line><line x1="350.29702970297103" x2="354.4554455445552" y1="376.354625265079" y2="377.0656951494013" style="stroke: red;"></line><line x1="354.4554455445552" x2="358.61386138613943" y1="377.0656951494013" y2="377.6595894069308" style="stroke: red;"></line><line x1="358.61386138613943" x2="362.7722772277236" y1="377.6595894069308" y2="378.1502942354274" style="stroke: red;"></line><line x1="362.7722772277236" x2="366.9306930693078" y1="378.1502942354274" y2="378.55143823998463" style="stroke: red;"></line><line x1="366.9306930693078" x2="371.089108910892" y1="378.55143823998463" y2="378.8759253499202" style="stroke: red;"></line><line x1="371.089108910892" x2="375.2475247524762" y1="378.8759253499202" y2="379.135675024263" style="stroke: red;"></line><line x1="375.2475247524762" x2="379.4059405940603" y1="379.135675024263" y2="379.34145911520534" style="stroke: red;"></line><line x1="379.4059405940603" x2="383.5643564356445" y1="379.34145911520534" y2="379.50282166645405" style="stroke: red;"></line><line x1="383.5643564356445" x2="387.7227722772287" y1="379.50282166645405" y2="379.6280663970736" style="stroke: red;"></line><line x1="387.7227722772287" x2="391.88118811881293" y1="379.6280663970736" y2="379.7242964162888" style="stroke: red;"></line><line x1="391.88118811881293" x2="396.03960396039713" y1="379.7242964162888" y2="379.797491537338" style="stroke: red;"></line><line x1="396.03960396039713" x2="400.1980198019813" y1="379.797491537338" y2="379.85261010362655" style="stroke: red;"></line><line x1="400.1980198019813" x2="404.3564356435655" y1="379.85261010362655" y2="379.893704220376" style="stroke: red;"></line><line x1="404.3564356435655" x2="408.5148514851497" y1="379.893704220376" y2="379.9240394499327" style="stroke: red;"></line><line x1="408.5148514851497" x2="412.6732673267339" y1="379.9240394499327" y2="379.94621217889824" style="stroke: red;"></line><line x1="412.6732673267339" x2="416.8316831683181" y1="379.94621217889824" y2="379.96225985418556" style="stroke: red;"></line><line x1="416.8316831683181" x2="420.9900990099022" y1="379.96225985418556" y2="379.97376101887284" style="stroke: red;"></line><line x1="420.9900990099022" x2="425.1485148514865" y1="379.97376101887284" y2="379.98192350889326" style="stroke: red;"></line><line x1="425.1485148514865" x2="429.3069306930706" y1="379.98192350889326" y2="379.98766028674544" style="stroke: red;"></line><line x1="429.3069306930706" x2="433.46534653465477" y1="379.98766028674544" y2="379.99165320446275" style="stroke: red;"></line><line x1="433.46534653465477" x2="437.62376237623903" y1="379.99165320446275" y2="379.99440553895926" style="stroke: red;"></line><line x1="437.62376237623903" x2="441.7821782178232" y1="379.99440553895926" y2="379.99628447229685" style="stroke: red;"></line><line x1="441.7821782178232" x2="445.94059405940743" y1="379.99628447229685" y2="379.9975548442652" style="stroke: red;"></line><line x1="445.94059405940743" x2="450.0990099009916" y1="379.9975548442652" y2="379.99840553012757" style="stroke: red;"></line><line x1="450.0990099009916" x2="454.2574257425758" y1="379.99840553012757" y2="379.9989697327813" style="stroke: red;"></line><line x1="454.2574257425758" x2="458.41584158416" y1="379.9989697327813" y2="379.9993403596449" style="stroke: red;"></line><line x1="458.41584158416" x2="462.5742574257441" y1="379.9993403596449" y2="379.9995815068793" style="stroke: red;"></line><line x1="462.5742574257441" x2="466.7326732673284" y1="379.9995815068793" y2="379.9997369167482" style="stroke: red;"></line><line x1="466.7326732673284" x2="470.89108910891247" y1="379.9997369167482" y2="379.9998361215489" style="stroke: red;"></line><line x1="470.89108910891247" x2="475.0495049504967" y1="379.9998361215489" y2="379.99989884804734" style="stroke: red;"></line><line x1="475.0495049504967" x2="479.20792079208087" y1="379.99989884804734" y2="379.9999381342243" style="stroke: red;"></line><line x1="479.20792079208087" x2="483.3663366336651" y1="379.9999381342243" y2="379.9999625069798" style="stroke: red;"></line><line x1="483.3663366336651" x2="487.5247524752493" y1="379.9999625069798" y2="379.99997748488545" style="stroke: red;"></line><line x1="487.5247524752493" x2="491.68316831683353" y1="379.99997748488545" y2="379.9999866025648" style="stroke: red;"></line><line x1="491.68316831683353" x2="495.8415841584176" y1="379.9999866025648" y2="379.99999210062117" style="stroke: red;"></line><text x="520" y="430" style="font-size: 12px; font-family: sans-seirf; stroke: rgb(255, 228, 0); text-anchor: start;">Group 4</text><rect class="bar" x="80" width="26.25" height="0" y="480" style="fill: rgb(255, 228, 0); stroke: black; stroke-width: 1px;"></rect><rect class="bar" x="106.24999999999999" width="26.25" height="0" y="480" style="fill: rgb(255, 228, 0); stroke: black; stroke-width: 1px;"></rect><rect class="bar" x="132.50000000000003" width="26.25" height="0" y="480" style="fill: rgb(255, 228, 0); stroke: black; stroke-width: 1px;"></rect><rect class="bar" x="158.75" width="26.25" height="0" y="480" style="fill: rgb(255, 228, 0); stroke: black; stroke-width: 1px;"></rect><rect class="bar" x="185" width="26.25" height="0" y="480" style="fill: rgb(255, 228, 0); stroke: black; stroke-width: 1px;"></rect><rect class="bar" x="211.25000000000003" width="26.25" height="0" y="480" style="fill: rgb(255, 228, 0); stroke: black; stroke-width: 1px;"></rect><rect class="bar" x="237.49999999999997" width="26.25" height="0" y="480" style="fill: rgb(255, 228, 0); stroke: black; stroke-width: 1px;"></rect><rect class="bar" x="263.75" width="26.25" height="0" y="480" style="fill: rgb(255, 228, 0); stroke: black; stroke-width: 1px;"></rect><rect class="bar" x="290.00000000000006" width="26.25" height="44.44444444444444" y="435.55555555555554" style="fill: rgb(255, 228, 0); stroke: black; stroke-width: 1px;"></rect><rect class="bar" x="316.25" width="26.25" height="0" y="480" style="fill: rgb(255, 228, 0); stroke: black; stroke-width: 1px;"></rect><rect class="bar" x="342.49999999999994" width="26.25" height="88.88888888888889" y="391.1111111111111" style="fill: rgb(255, 228, 0); stroke: black; stroke-width: 1px;"></rect><rect class="bar" x="368.75000000000006" width="26.25" height="44.44444444444444" y="435.55555555555554" style="fill: rgb(255, 228, 0); stroke: black; stroke-width: 1px;"></rect><rect class="bar" x="395" width="26.25" height="0" y="480" style="fill: rgb(255, 228, 0); stroke: black; stroke-width: 1px;"></rect><rect class="bar" x="421.24999999999994" width="26.25" height="0" y="480" style="fill: rgb(255, 228, 0); stroke: black; stroke-width: 1px;"></rect><rect class="bar" x="447.50000000000006" width="26.25" height="0" y="480" style="fill: rgb(255, 228, 0); stroke: black; stroke-width: 1px;"></rect><rect class="bar" x="473.75000000000006" width="26.25" height="0" y="480" style="fill: rgb(255, 228, 0); stroke: black; stroke-width: 1px;"></rect><line x1="351.99135424677314" y1="431.108652850451" x2="351.99135424677314" y2="485" style="stroke: red;"></line><text x="351.99135424677314" y="492" style="stroke: red; text-anchor: middle; font-family: sans-serif; font-size: 7pt;">Mean=87.50</text><text x="431.99135424677314" y="492" style="stroke: red; text-anchor: middle; font-family: sans-serif; font-size: 7pt;">Std Dev=6.24</text><line x1="80" x2="84.15841584158414" y1="479.99999999959226" y2="479.9999999991158" style="stroke: red;"></line><line x1="84.15841584158414" x2="88.31683168316829" y1="479.9999999991158" y2="479.99999999810524" style="stroke: red;"></line><line x1="88.31683168316829" x2="92.47524752475243" y1="479.99999999810524" y2="479.999999995988" style="stroke: red;"></line><line x1="92.47524752475243" x2="96.63366336633658" y1="479.999999995988" y2="479.99999999160536" style="stroke: red;"></line><line x1="96.63366336633658" x2="100.79207920792074" y1="479.99999999160536" y2="479.99999998264366" style="stroke: red;"></line><line x1="100.79207920792074" x2="104.95049504950488" y1="479.99999998264366" y2="479.99999996454017" style="stroke: red;"></line><line x1="104.95049504950488" x2="109.10891089108902" y1="479.99999996454017" y2="479.99999992841276" style="stroke: red;"></line><line x1="109.10891089108902" x2="113.26732673267317" y1="479.99999992841276" y2="479.9999998571911" style="stroke: red;"></line><line x1="113.26732673267317" x2="117.42574257425733" y1="479.9999998571911" y2="479.9999997184888" style="stroke: red;"></line><line x1="117.42574257425733" x2="121.58415841584147" y1="479.9999997184888" y2="479.9999994516515" style="stroke: red;"></line><line x1="121.58415841584147" x2="125.74257425742562" y1="479.9999994516515" y2="479.9999989445482" style="stroke: red;"></line><line x1="125.74257425742562" x2="129.90099009900976" y1="479.9999989445482" y2="479.999997992568" style="stroke: red;"></line><line x1="129.90099009900976" x2="134.0594059405939" y1="479.999997992568" y2="479.99999622719827" style="stroke: red;"></line><line x1="134.0594059405939" x2="138.21782178217805" y1="479.99999622719827" y2="479.9999929933918" style="stroke: red;"></line><line x1="138.21782178217805" x2="142.3762376237622" y1="479.9999929933918" y2="479.9999871420305" style="stroke: red;"></line><line x1="142.3762376237622" x2="146.53465346534634" y1="479.9999871420305" y2="479.9999766838061" style="stroke: red;"></line><line x1="146.53465346534634" x2="150.6930693069305" y1="479.9999766838061" y2="479.99995822046213" style="stroke: red;"></line><line x1="150.6930693069305" x2="154.85148514851466" y1="479.99995822046213" y2="479.9999260240906" style="stroke: red;"></line><line x1="154.85148514851466" x2="159.0099009900988" y1="479.9999260240906" y2="479.9998705691806" style="stroke: red;"></line><line x1="159.0099009900988" x2="163.16831683168294" y1="479.9998705691806" y2="479.999776227973" style="stroke: red;"></line><line x1="163.16831683168294" x2="167.3267326732671" y1="479.999776227973" y2="479.99961770853827" style="stroke: red;"></line><line x1="167.3267326732671" x2="171.48514851485123" y1="479.99961770853827" y2="479.9993546369325" style="stroke: red;"></line><line x1="171.48514851485123" x2="175.64356435643538" y1="479.9993546369325" y2="479.9989234497026" style="stroke: red;"></line><line x1="175.64356435643538" x2="179.80198019801952" y1="479.9989234497026" y2="479.99822546222146" style="stroke: red;"></line><line x1="179.80198019801952" x2="183.96039603960367" y1="479.99822546222146" y2="479.99710960710416" style="stroke: red;"></line><line x1="183.96039603960367" x2="188.1188118811878" y1="479.99710960710416" y2="479.9953478980896" style="stroke: red;"></line><line x1="188.1188118811878" x2="192.27722772277195" y1="479.9953478980896" y2="479.99260118333615" style="stroke: red;"></line><line x1="192.27722772277195" x2="196.4356435643561" y1="479.99260118333615" y2="479.988372241068" style="stroke: red;"></line><line x1="196.4356435643561" x2="200.59405940594024" y1="479.988372241068" y2="479.98194279702074" style="stroke: red;"></line><line x1="200.59405940594024" x2="204.7524752475244" y1="479.98194279702074" y2="479.97229069405853" style="stroke: red;"></line><line x1="204.7524752475244" x2="208.91089108910853" y1="479.97229069405853" y2="479.95798334033975" style="stroke: red;"></line><line x1="208.91089108910853" x2="213.06930693069273" y1="479.95798334033975" y2="479.9370438581515" style="stroke: red;"></line><line x1="213.06930693069273" x2="217.22772277227693" y1="479.9370438581515" y2="479.9067872341296" style="stroke: red;"></line><line x1="217.22772277227693" x2="221.38613861386114" y1="479.9067872341296" y2="479.86362543079434" style="stroke: red;"></line><line x1="221.38613861386114" x2="225.5445544554453" y1="479.86362543079434" y2="479.8028430478267" style="stroke: red;"></line><line x1="225.5445544554453" x2="229.7029702970295" y1="479.8028430478267" y2="479.71834886402286" style="stroke: red;"></line><line x1="229.7029702970295" x2="233.86138613861368" y1="479.71834886402286" y2="479.602413503406" style="stroke: red;"></line><line x1="233.86138613861368" x2="238.01980198019788" y1="479.602413503406" y2="479.4454094670732" style="stroke: red;"></line><line x1="238.01980198019788" x2="242.17821782178208" y1="479.4454094670732" y2="479.23557657892945" style="stroke: red;"></line><line x1="242.17821782178208" x2="246.33663366336626" y1="479.23557657892945" y2="478.9588429953779" style="stroke: red;"></line><line x1="246.33663366336626" x2="250.49504950495046" y1="478.9588429953779" y2="478.5987385544679" style="stroke: red;"></line><line x1="250.49504950495046" x2="254.65346534653466" y1="478.5987385544679" y2="478.1364423694551" style="stroke: red;"></line><line x1="254.65346534653466" x2="258.81188118811883" y1="478.1364423694551" y2="477.55100899475445" style="stroke: red;"></line><line x1="258.81188118811883" x2="262.97029702970303" y1="477.55100899475445" y2="476.81981591787047" style="stroke: red;"></line><line x1="262.97029702970303" x2="267.12871287128723" y1="476.81981591787047" y2="475.91926835229214" style="stroke: red;"></line><line x1="267.12871287128723" x2="271.28712871287144" y1="475.91926835229214" y2="474.8257844109215" style="stroke: red;"></line><line x1="271.28712871287144" x2="275.44554455445564" y1="474.8257844109215" y2="473.51706434260615" style="stroke: red;"></line><line x1="275.44554455445564" x2="279.6039603960398" y1="473.51706434260615" y2="471.9736219836234" style="stroke: red;"></line><line x1="279.6039603960398" x2="283.7623762376239" y1="471.9736219836234" y2="470.18052620564754" style="stroke: red;"></line><line x1="283.7623762376239" x2="287.9207920792081" y1="470.18052620564754" y2="468.12926722956115" style="stroke: red;"></line><line x1="287.9207920792081" x2="292.0792079207923" y1="468.12926722956115" y2="465.8196304617678" style="stroke: red;"></line><line x1="292.0792079207923" x2="296.23762376237653" y1="465.8196304617678" y2="463.26143295701667" style="stroke: red;"></line><line x1="296.23762376237653" x2="300.39603960396073" y1="463.26143295701667" y2="460.4759590061526" style="stroke: red;"></line><line x1="300.39603960396073" x2="304.55445544554493" y1="460.4759590061526" y2="457.4969257661982" style="stroke: red;"></line><line x1="304.55445544554493" x2="308.71287128712913" y1="457.4969257661982" y2="454.3708205401887" style="stroke: red;"></line><line x1="308.71287128712913" x2="312.87128712871333" y1="454.3708205401887" y2="451.15648006831157" style="stroke: red;"></line><line x1="312.87128712871333" x2="317.0297029702975" y1="451.15648006831157" y2="447.9238288300817" style="stroke: red;"></line><line x1="317.0297029702975" x2="321.1881188118817" y1="447.9238288300817" y2="444.7517554131366" style="stroke: red;"></line><line x1="321.1881188118817" x2="325.3465346534658" y1="444.7517554131366" y2="441.7251787054128" style="stroke: red;"></line><line x1="325.3465346534658" x2="329.5049504950501" y1="441.7251787054128" y2="438.93143225847683" style="stroke: red;"></line><line x1="329.5049504950501" x2="333.6633663366342" y1="438.93143225847683" y2="436.4561675748104" style="stroke: red;"></line><line x1="333.6633663366342" x2="337.8217821782185" y1="436.4561675748104" y2="434.37903683493664" style="stroke: red;"></line><line x1="337.8217821782185" x2="341.98019801980263" y1="434.37903683493664" y2="432.7694549657792" style="stroke: red;"></line><line x1="341.98019801980263" x2="346.13861386138683" y1="432.7694549657792" y2="431.68275404655907" style="stroke: red;"></line><line x1="346.13861386138683" x2="350.29702970297103" y1="431.68275404655907" y2="431.1570266932891" style="stroke: red;"></line><line x1="350.29702970297103" x2="354.4554455445552" y1="431.1570266932891" y2="431.2109094511134" style="stroke: red;"></line><line x1="354.4554455445552" x2="358.61386138613943" y1="431.2109094511134" y2="431.84248605557883" style="stroke: red;"></line><line x1="358.61386138613943" x2="362.7722772277236" y1="431.84248605557883" y2="433.02940056589426" style="stroke: red;"></line><line x1="362.7722772277236" x2="366.9306930693078" y1="433.02940056589426" y2="434.7301710561475" style="stroke: red;"></line><line x1="366.9306930693078" x2="371.089108910892" y1="434.7301710561475" y2="436.8865962153692" style="stroke: red;"></line><line x1="371.089108910892" x2="375.2475247524762" y1="436.8865962153692" y2="439.4270601693048" style="stroke: red;"></line><line x1="375.2475247524762" x2="379.4059405940603" y1="439.4270601693048" y2="442.2704739674702" style="stroke: red;"></line><line x1="379.4059405940603" x2="383.5643564356445" y1="442.2704739674702" y2="445.3305518066815" style="stroke: red;"></line><line x1="383.5643564356445" x2="387.7227722772287" y1="445.3305518066815" y2="448.5201092487878" style="stroke: red;"></line><line x1="387.7227722772287" x2="391.88118811881293" y1="448.5201092487878" y2="451.7550889827075" style="stroke: red;"></line><line x1="391.88118811881293" x2="396.03960396039713" y1="451.7550889827075" y2="454.95806335283265" style="stroke: red;"></line><line x1="396.03960396039713" x2="400.1980198019813" y1="454.95806335283265" y2="458.0610255993837" style="stroke: red;"></line><line x1="400.1980198019813" x2="404.3564356435655" y1="458.0610255993837" y2="461.00735557695805" style="stroke: red;"></line><line x1="404.3564356435655" x2="408.5148514851497" y1="461.00735557695805" y2="463.7529221695785" style="stroke: red;"></line><line x1="408.5148514851497" x2="412.6732673267339" y1="463.7529221695785" y2="466.2663558086294" style="stroke: red;"></line><line x1="412.6732673267339" x2="416.8316831683181" y1="466.2663558086294" y2="468.5285839954681" style="stroke: red;"></line><line x1="416.8316831683181" x2="420.9900990099022" y1="468.5285839954681" y2="470.53176617385066" style="stroke: red;"></line><line x1="420.9900990099022" x2="425.1485148514865" y1="470.53176617385066" y2="472.2777896566501" style="stroke: red;"></line><line x1="425.1485148514865" x2="429.3069306930706" y1="472.2777896566501" y2="473.77649580294735" style="stroke: red;"></line><line x1="429.3069306930706" x2="433.46534653465477" y1="473.77649580294735" y2="475.04379737128454" style="stroke: red;"></line><line x1="433.46534653465477" x2="437.62376237623903" y1="475.04379737128454" y2="476.0998273911981" style="stroke: red;"></line><line x1="437.62376237623903" x2="441.7821782178232" y1="476.0998273911981" y2="476.9672311597495" style="stroke: red;"></line><line x1="441.7821782178232" x2="445.94059405940743" y1="476.9672311597495" y2="477.6696803459567" style="stroke: red;"></line><line x1="445.94059405940743" x2="450.0990099009916" y1="477.6696803459567" y2="478.23065552601173" style="stroke: red;"></line><line x1="450.0990099009916" x2="454.2574257425758" y1="478.23065552601173" y2="478.67251385441386" style="stroke: red;"></line><line x1="454.2574257425758" x2="458.41584158416" y1="478.67251385441386" y2="479.01583411257167" style="stroke: red;"></line><line x1="458.41584158416" x2="462.5742574257441" y1="479.01583411257167" y2="479.2790131803969" style="stroke: red;"></line><line x1="462.5742574257441" x2="466.7326732673284" y1="479.2790131803969" y2="479.47807626122466" style="stroke: red;"></line><line x1="466.7326732673284" x2="470.89108910891247" y1="479.47807626122466" y2="479.62665745584724" style="stroke: red;"></line><line x1="470.89108910891247" x2="475.0495049504967" y1="479.62665745584724" y2="479.7361065431542" style="stroke: red;"></line><line x1="475.0495049504967" x2="479.20792079208087" y1="479.7361065431542" y2="479.81568084577907" style="stroke: red;"></line><line x1="479.20792079208087" x2="483.3663366336651" y1="479.81568084577907" y2="479.87278655229045" style="stroke: red;"></line><line x1="483.3663366336651" x2="487.5247524752493" y1="479.87278655229045" y2="479.91324065108495" style="stroke: red;"></line><line x1="487.5247524752493" x2="491.68316831683353" y1="479.91324065108495" y2="479.9415317288019" style="stroke: red;"></line><line x1="491.68316831683353" x2="495.8415841584176" y1="479.9415317288019" y2="479.96106457420257" style="stroke: red;"></line></svg>