<svg xmlns="http://www.w3.org/2000/svg" id="SVG" width="600" height="560"><text x="310" y="45" style="font-size: 17px; font-family: sans-seirf; stroke: black; text-anchor: middle;">Standardized Residual Q-Q Plot</text><text x="50" y="285" transform="rotate(-90 50 280)" style="font-size: 10px; font-family: sans-seirf; stroke: black; text-anchor: middle;">Standardized Residual</text><text x="290" y="515" style="font-size: 10px; font-family: sans-seirf; stroke: black; text-anchor: middle;">Normal Quantile</text><g transform="translate(100,470)" fill="none" font-size="10" font-family="sans-serif" text-anchor="middle"><path class="domain" stroke="#000" d="M0.5,6V0.5H380.5V6"></path><g class="tick" opacity="1" transform="translate(0.5,0)"><line stroke="#000" y2="6"></line><text fill="#000" y="9" dy="0.71em">-3.0</text></g><g class="tick" opacity="1" transform="translate(32.166666666666664,0)"><line stroke="#000" y2="6"></line><text fill="#000" y="9" dy="0.71em">-2.5</text></g><g class="tick" opacity="1" transform="translate(63.83333333333333,0)"><line stroke="#000" y2="6"></line><text fill="#000" y="9" dy="0.71em">-2.0</text></g><g class="tick" opacity="1" transform="translate(95.5,0)"><line stroke="#000" y2="6"></line><text fill="#000" y="9" dy="0.71em">-1.5</text></g><g class="tick" opacity="1" transform="translate(127.16666666666666,0)"><line stroke="#000" y2="6"></line><text fill="#000" y="9" dy="0.71em">-1.0</text></g><g class="tick" opacity="1" transform="translate(158.83333333333334,0)"><line stroke="#000" y2="6"></line><text fill="#000" y="9" dy="0.71em">-0.5</text></g><g class="tick" opacity="1" transform="translate(190.5,0)"><line stroke="#000" y2="6"></line><text fill="#000" y="9" dy="0.71em">0.0</text></g><g class="tick" opacity="1" transform="translate(222.16666666666669,0)"><line stroke="#000" y2="6"></line><text fill="#000" y="9" dy="0.71em">0.5</text></g><g class="tick" opacity="1" transform="translate(253.83333333333331,0)"><line stroke="#000" y2="6"></line><text fill="#000" y="9" dy="0.71em">1.0</text></g><g class="tick" opacity="1" transform="translate(285.5,0)"><line stroke="#000" y2="6"></line><text fill="#000" y="9" dy="0.71em">1.5</text></g><g class="tick" opacity="1" transform="translate(317.1666666666667,0)"><line stroke="#000" y2="6"></line><text fill="#000" y="9" dy="0.71em">2.0</text></g><g class="tick" opacity="1" transform="translate(348.8333333333333,0)"><line stroke="#000" y2="6"></line><text fill="#000" y="9" dy="0.71em">2.5</text></g><g class="tick" opacity="1" transform="translate(380.5,0)"><line stroke="#000" y2="6"></line><text fill="#000" y="9" dy="0.71em">3.0</text></g></g><g transform="translate(100,90)" fill="none" font-size="10" font-family="sans-serif" text-anchor="middle"><path class="domain" stroke="#000" d="M0.5,-6V0.5H380.5V-6"></path><g class="tick" opacity="1" transform="translate(0.5,0)"><line stroke="#000" y2="-6"></line><text fill="#000" y="-9" dy="0em">-3.0</text></g><g class="tick" opacity="1" transform="translate(32.166666666666664,0)"><line stroke="#000" y2="-6"></line><text fill="#000" y="-9" dy="0em">-2.5</text></g><g class="tick" opacity="1" transform="translate(63.83333333333333,0)"><line stroke="#000" y2="-6"></line><text fill="#000" y="-9" dy="0em">-2.0</text></g><g class="tick" opacity="1" transform="translate(95.5,0)"><line stroke="#000" y2="-6"></line><text fill="#000" y="-9" dy="0em">-1.5</text></g><g class="tick" opacity="1" transform="translate(127.16666666666666,0)"><line stroke="#000" y2="-6"></line><text fill="#000" y="-9" dy="0em">-1.0</text></g><g class="tick" opacity="1" transform="translate(158.83333333333334,0)"><line stroke="#000" y2="-6"></line><text fill="#000" y="-9" dy="0em">-0.5</text></g><g class="tick" opacity="1" transform="translate(190.5,0)"><line stroke="#000" y2="-6"></line><text fill="#000" y="-9" dy="0em">0.0</text></g><g class="tick" opacity="1" transform="translate(222.16666666666669,0)"><line stroke="#000" y2="-6"></line><text fill="#000" y="-9" dy="0em">0.5</text></g><g class="tick" opacity="1" transform="translate(253.83333333333331,0)"><line stroke="#000" y2="-6"></line><text fill="#000" y="-9" dy="0em">1.0</text></g><g class="tick" opacity="1" transform="translate(285.5,0)"><line stroke="#000" y2="-6"></line><text fill="#000" y="-9" dy="0em">1.5</text></g><g class="tick" opacity="1" transform="translate(317.1666666666667,0)"><line stroke="#000" y2="-6"></line><text fill="#000" y="-9" dy="0em">2.0</text></g><g class="tick" opacity="1" transform="translate(348.8333333333333,0)"><line stroke="#000" y2="-6"></line><text fill="#000" y="-9" dy="0em">2.5</text></g><g class="tick" opacity="1" transform="translate(380.5,0)"><line stroke="#000" y2="-6"></line><text fill="#000" y="-9" dy="0em">3.0</text></g></g><g transform="translate(100,90)" fill="none" font-size="10" font-family="sans-serif" text-anchor="end"><path class="domain" stroke="#000" d="M-6,380.5H0.5V0.5H-6"></path><g class="tick" opacity="1" transform="translate(0,380.5)"><line stroke="#000" x2="-6"></line><text fill="#000" x="-9" dy="0.32em">-3.0</text></g><g class="tick" opacity="1" transform="translate(0,348.8333333333333)"><line stroke="#000" x2="-6"></line><text fill="#000" x="-9" dy="0.32em">-2.5</text></g><g class="tick" opacity="1" transform="translate(0,317.1666666666667)"><line stroke="#000" x2="-6"></line><text fill="#000" x="-9" dy="0.32em">-2.0</text></g><g class="tick" opacity="1" transform="translate(0,285.5)"><line stroke="#000" x2="-6"></line><text fill="#000" x="-9" dy="0.32em">-1.5</text></g><g class="tick" opacity="1" transform="translate(0,253.83333333333334)"><line stroke="#000" x2="-6"></line><text fill="#000" x="-9" dy="0.32em">-1.0</text></g><g class="tick" opacity="1" transform="translate(0,222.16666666666666)"><line stroke="#000" x2="-6"></line><text fill="#000" x="-9" dy="0.32em">-0.5</text></g><g class="tick" opacity="1" transform="translate(0,190.5)"><line stroke="#000" x2="-6"></line><text fill="#000" x="-9" dy="0.32em">0.0</text></g><g class="tick" opacity="1" transform="translate(0,158.83333333333331)"><line stroke="#000" x2="-6"></line><text fill="#000" x="-9" dy="0.32em">0.5</text></g><g class="tick" opacity="1" transform="translate(0,127.16666666666669)"><line stroke="#000" x2="-6"></line><text fill="#000" x="-9" dy="0.32em">1.0</text></g><g class="tick" opacity="1" transform="translate(0,95.5)"><line stroke="#000" x2="-6"></line><text fill="#000" x="-9" dy="0.32em">1.5</text></g><g class="tick" opacity="1" transform="translate(0,63.833333333333314)"><line stroke="#000" x2="-6"></line><text fill="#000" x="-9" dy="0.32em">2.0</text></g><g class="tick" opacity="1" transform="translate(0,32.166666666666686)"><line stroke="#000" x2="-6"></line><text fill="#000" x="-9" dy="0.32em">2.5</text></g><g class="tick" opacity="1" transform="translate(0,0.5)"><line stroke="#000" x2="-6"></line><text fill="#000" x="-9" dy="0.32em">3.0</text></g></g><g transform="translate(480,90)" fill="none" font-size="10" font-family="sans-serif" text-anchor="start"><path class="domain" stroke="#000" d="M6,380.5H0.5V0.5H6"></path><g class="tick" opacity="1" transform="translate(0,380.5)"><line stroke="#000" x2="6"></line><text fill="#000" x="9" dy="0.32em">-3.0</text></g><g class="tick" opacity="1" transform="translate(0,348.8333333333333)"><line stroke="#000" x2="6"></line><text fill="#000" x="9" dy="0.32em">-2.5</text></g><g class="tick" opacity="1" transform="translate(0,317.1666666666667)"><line stroke="#000" x2="6"></line><text fill="#000" x="9" dy="0.32em">-2.0</text></g><g class="tick" opacity="1" transform="translate(0,285.5)"><line stroke="#000" x2="6"></line><text fill="#000" x="9" dy="0.32em">-1.5</text></g><g class="tick" opacity="1" transform="translate(0,253.83333333333334)"><line stroke="#000" x2="6"></line><text fill="#000" x="9" dy="0.32em">-1.0</text></g><g class="tick" opacity="1" transform="translate(0,222.16666666666666)"><line stroke="#000" x2="6"></line><text fill="#000" x="9" dy="0.32em">-0.5</text></g><g class="tick" opacity="1" transform="translate(0,190.5)"><line stroke="#000" x2="6"></line><text fill="#000" x="9" dy="0.32em">0.0</text></g><g class="tick" opacity="1" transform="translate(0,158.83333333333331)"><line stroke="#000" x2="6"></line><text fill="#000" x="9" dy="0.32em">0.5</text></g><g class="tick" opacity="1" transform="translate(0,127.16666666666669)"><line stroke="#000" x2="6"></line><text fill="#000" x="9" dy="0.32em">1.0</text></g><g class="tick" opacity="1" transform="translate(0,95.5)"><line stroke="#000" x2="6"></line><text fill="#000" x="9" dy="0.32em">1.5</text></g><g class="tick" opacity="1" transform="translate(0,63.833333333333314)"><line stroke="#000" x2="6"></line><text fill="#000" x="9" dy="0.32em">2.0</text></g><g class="tick" opacity="1" transform="translate(0,32.166666666666686)"><line stroke="#000" x2="6"></line><text fill="#000" x="9" dy="0.32em">2.5</text></g><g class="tick" opacity="1" transform="translate(0,0.5)"><line stroke="#000" x2="6"></line><text fill="#000" x="9" dy="0.32em">3.0</text></g></g><line x1="100" y1="470" x2="480" y2="90" style="stroke: greenyellow;"></line><circle class="circle" r="4" cx="173.8520730649921" cy="366.94303618435725" style="fill: rgb(255, 69, 0);"></circle><circle class="circle" r="4" cx="208.83506751550863" cy="352.5894293103982" style="fill: rgb(255, 69, 0);"></circle><circle class="circle" r="4" cx="228.72996748022558" cy="323.86475103820237" style="fill: rgb(255, 69, 0);"></circle><circle class="circle" r="4" cx="243.8988249108292" cy="321.68938340080695" style="fill: rgb(255, 69, 0);"></circle><circle class="circle" r="4" cx="256.78796752849075" cy="312.0889958614416" style="fill: rgb(255, 69, 0);"></circle><circle class="circle" r="4" cx="268.4226609511063" cy="311.91292781099685" style="fill: rgb(255, 69, 0);"></circle><circle class="circle" r="4" cx="279.36671303008666" cy="310.4769018152341" style="fill: rgb(255, 69, 0);"></circle><circle class="circle" r="4" cx="290" cy="310.3019904424077" style="fill: rgb(255, 69, 0);"></circle><circle class="circle" r="4" cx="300.63328696991334" cy="294.22960505597223" style="fill: rgb(255, 69, 0);"></circle><circle class="circle" r="4" cx="311.5773390488937" cy="250.37332690500992" style="fill: rgb(255, 69, 0);"></circle><circle class="circle" r="4" cx="323.21203247150925" cy="245.17009974353107" style="fill: rgb(255, 69, 0);"></circle><circle class="circle" r="4" cx="336.10117508917085" cy="245.11062300150263" style="fill: rgb(255, 69, 0);"></circle><circle class="circle" r="4" cx="351.2700325197744" cy="238.2569874067534" style="fill: rgb(255, 69, 0);"></circle><circle class="circle" r="4" cx="371.1649324844914" cy="177.33396846923387" style="fill: rgb(255, 69, 0);"></circle><circle class="circle" r="4" cx="406.1479269350079" cy="114.31727970804536" style="fill: rgb(255, 69, 0);"></circle></svg>