<svg xmlns="http://www.w3.org/2000/svg" id="chart" width="600" height="400"> <text x="300" y="30" style="font-family: sans-serif; font-size: 12pt; stroke: black; text-anchor: middle;">H₀: Row &amp; Col Independent</text><text x="300" y="60" style="font-family: sans-serif; font-size: 9pt; stroke: green; text-anchor: middle;">[TestStat] =  ΣΣ (Oij - Eij)² / Eij  ~  χ²(1) Distribution</text><g transform="translate(100,270)" fill="none" font-size="10" font-family="sans-serif" text-anchor="middle"><path class="domain" stroke="#000" d="M0.5,6V0.5H400.5V6"></path><g class="tick" opacity="1" transform="translate(0.5,0)"><line stroke="#000" y2="6"></line><text fill="#000" y="9" dy="0.71em">0</text></g><g class="tick" opacity="1" transform="translate(33.83333333333333,0)"><line stroke="#000" y2="6"></line><text fill="#000" y="9" dy="0.71em">1</text></g><g class="tick" opacity="1" transform="translate(67.16666666666666,0)"><line stroke="#000" y2="6"></line><text fill="#000" y="9" dy="0.71em">2</text></g><g class="tick" opacity="1" transform="translate(100.5,0)"><line stroke="#000" y2="6"></line><text fill="#000" y="9" dy="0.71em">3</text></g><g class="tick" opacity="1" transform="translate(133.83333333333331,0)"><line stroke="#000" y2="6"></line><text fill="#000" y="9" dy="0.71em">4</text></g><g class="tick" opacity="1" transform="translate(167.16666666666669,0)"><line stroke="#000" y2="6"></line><text fill="#000" y="9" dy="0.71em">5</text></g><g class="tick" opacity="1" transform="translate(200.5,0)"><line stroke="#000" y2="6"></line><text fill="#000" y="9" dy="0.71em">6</text></g><g class="tick" opacity="1" transform="translate(233.83333333333334,0)"><line stroke="#000" y2="6"></line><text fill="#000" y="9" dy="0.71em">7</text></g><g class="tick" opacity="1" transform="translate(267.16666666666663,0)"><line stroke="#000" y2="6"></line><text fill="#000" y="9" dy="0.71em">8</text></g><g class="tick" opacity="1" transform="translate(300.5,0)"><line stroke="#000" y2="6"></line><text fill="#000" y="9" dy="0.71em">9</text></g><g class="tick" opacity="1" transform="translate(333.83333333333337,0)"><line stroke="#000" y2="6"></line><text fill="#000" y="9" dy="0.71em">10</text></g><g class="tick" opacity="1" transform="translate(367.16666666666663,0)"><line stroke="#000" y2="6"></line><text fill="#000" y="9" dy="0.71em">11</text></g><g class="tick" opacity="1" transform="translate(400.5,0)"><line stroke="#000" y2="6"></line><text fill="#000" y="9" dy="0.71em">12</text></g></g><g transform="translate(100,60)" fill="none" font-size="10" font-family="sans-serif" text-anchor="end"><path class="domain" stroke="#000" d="M-6,0.5H0.5V210.5H-6"></path><g class="tick" opacity="1" transform="translate(0,0.5)"><line stroke="#000" x2="-6"></line><text fill="#000" x="-9" dy="0.32em">1.8</text></g><g class="tick" opacity="1" transform="translate(0,23.833333333333314)"><line stroke="#000" x2="-6"></line><text fill="#000" x="-9" dy="0.32em">1.6</text></g><g class="tick" opacity="1" transform="translate(0,47.166666666666686)"><line stroke="#000" x2="-6"></line><text fill="#000" x="-9" dy="0.32em">1.4</text></g><g class="tick" opacity="1" transform="translate(0,70.5)"><line stroke="#000" x2="-6"></line><text fill="#000" x="-9" dy="0.32em">1.2</text></g><g class="tick" opacity="1" transform="translate(0,93.83333333333333)"><line stroke="#000" x2="-6"></line><text fill="#000" x="-9" dy="0.32em">1.0</text></g><g class="tick" opacity="1" transform="translate(0,117.16666666666666)"><line stroke="#000" x2="-6"></line><text fill="#000" x="-9" dy="0.32em">0.8</text></g><g class="tick" opacity="1" transform="translate(0,140.5)"><line stroke="#000" x2="-6"></line><text fill="#000" x="-9" dy="0.32em">0.6</text></g><g class="tick" opacity="1" transform="translate(0,163.83333333333331)"><line stroke="#000" x2="-6"></line><text fill="#000" x="-9" dy="0.32em">0.4</text></g><g class="tick" opacity="1" transform="translate(0,187.16666666666666)"><line stroke="#000" x2="-6"></line><text fill="#000" x="-9" dy="0.32em">0.2</text></g><g class="tick" opacity="1" transform="translate(0,210.5)"><line stroke="#000" x2="-6"></line><text fill="#000" x="-9" dy="0.32em">0.0</text></g></g><line x1="100" y1="270" x2="101" y2="5.283013116608458" stroke-width="2px" style="stroke: black;"></line><line x1="101" y1="5.283013116608458" x2="102" y2="85.6036179168116" stroke-width="2px" style="stroke: black;"></line><line x1="102" y1="85.6036179168116" x2="103" y2="121.68251620979623" stroke-width="2px" style="stroke: black;"></line><line x1="103" y1="121.68251620979623" x2="104" y2="143.465613570516" stroke-width="2px" style="stroke: black;"></line><line x1="104" y1="143.465613570516" x2="105" y2="158.5091722646038" stroke-width="2px" style="stroke: black;"></line><line x1="105" y1="158.5091722646038" x2="106" y2="169.73852267593418" stroke-width="2px" style="stroke: black;"></line><line x1="106" y1="169.73852267593418" x2="107" y2="178.5578797326882" stroke-width="2px" style="stroke: black;"></line><line x1="107" y1="178.5578797326882" x2="108" y2="185.73719798149267" stroke-width="2px" style="stroke: black;"></line><line x1="108" y1="185.73719798149267" x2="109" y2="191.7390314623108" stroke-width="2px" style="stroke: black;"></line><line x1="109" y1="191.7390314623108" x2="110" y2="196.86048842345593" stroke-width="2px" style="stroke: black;"></line><line x1="110" y1="196.86048842345593" x2="111" y2="201.3024425408919" stroke-width="2px" style="stroke: black;"></line><line x1="111" y1="201.3024425408919" x2="112" y2="205.20632721548344" stroke-width="2px" style="stroke: black;"></line><line x1="112" y1="205.20632721548344" x2="113" y2="208.67506056482551" stroke-width="2px" style="stroke: black;"></line><line x1="113" y1="208.67506056482551" x2="114" y2="211.78560758829445" stroke-width="2px" style="stroke: black;"></line><line x1="114" y1="211.78560758829445" x2="115" y2="214.59686499336624" stroke-width="2px" style="stroke: black;"></line><line x1="115" y1="214.59686499336624" x2="116" y2="217.15479814812468" stroke-width="2px" style="stroke: black;"></line><line x1="116" y1="217.15479814812468" x2="117" y2="219.49589554866895" stroke-width="2px" style="stroke: black;"></line><line x1="117" y1="219.49589554866895" x2="118.00000000000001" y2="221.64955612449688" stroke-width="2px" style="stroke: black;"></line><line x1="118.00000000000001" y1="221.64955612449688" x2="119.00000000000001" y2="223.63977871318295" stroke-width="2px" style="stroke: black;"></line><line x1="119.00000000000001" y1="223.63977871318295" x2="120.00000000000001" y2="225.48638290518917" stroke-width="2px" style="stroke: black;"></line><line x1="120.00000000000001" y1="225.48638290518917" x2="121.00000000000001" y2="227.20590771189228" stroke-width="2px" style="stroke: black;"></line><line x1="121.00000000000001" y1="227.20590771189228" x2="122.00000000000001" y2="228.81228408101728" stroke-width="2px" style="stroke: black;"></line><line x1="122.00000000000001" y1="228.81228408101728" x2="123.00000000000001" y2="230.31734568073392" stroke-width="2px" style="stroke: black;"></line><line x1="123.00000000000001" y1="230.31734568073392" x2="124.00000000000001" y2="231.7312220694444" stroke-width="2px" style="stroke: black;"></line><line x1="124.00000000000001" y1="231.7312220694444" x2="125.00000000000001" y2="233.06264502852045" stroke-width="2px" style="stroke: black;"></line><line x1="125.00000000000001" y1="233.06264502852045" x2="126.00000000000001" y2="234.31918989252665" stroke-width="2px" style="stroke: black;"></line><line x1="126.00000000000001" y1="234.31918989252665" x2="127.00000000000001" y2="235.507467605717" stroke-width="2px" style="stroke: black;"></line><line x1="127.00000000000001" y1="235.507467605717" x2="128.00000000000003" y2="236.63327899467143" stroke-width="2px" style="stroke: black;"></line><line x1="128.00000000000003" y1="236.63327899467143" x2="129.00000000000003" y2="237.7017397587676" stroke-width="2px" style="stroke: black;"></line><line x1="129.00000000000003" y1="237.7017397587676" x2="130.00000000000003" y2="238.7173825439237" stroke-width="2px" style="stroke: black;"></line><line x1="130.00000000000003" y1="238.7173825439237" x2="131.00000000000003" y2="239.68424091792065" stroke-width="2px" style="stroke: black;"></line><line x1="131.00000000000003" y1="239.68424091792065" x2="132.00000000000003" y2="240.6059189316386" stroke-width="2px" style="stroke: black;"></line><line x1="132.00000000000003" y1="240.6059189316386" x2="133.00000000000003" y2="241.4856491100985" stroke-width="2px" style="stroke: black;"></line><line x1="133.00000000000003" y1="241.4856491100985" x2="134.00000000000003" y2="242.3263410878242" stroke-width="2px" style="stroke: black;"></line><line x1="134.00000000000003" y1="242.3263410878242" x2="135.00000000000003" y2="243.13062262715187" stroke-width="2px" style="stroke: black;"></line><line x1="135.00000000000003" y1="243.13062262715187" x2="136.00000000000003" y2="243.90087439501835" stroke-width="2px" style="stroke: black;"></line><line x1="136.00000000000003" y1="243.90087439501835" x2="137.00000000000003" y2="244.639259594367" stroke-width="2px" style="stroke: black;"></line><line x1="137.00000000000003" y1="244.639259594367" x2="138.00000000000003" y2="245.34774932960963" stroke-width="2px" style="stroke: black;"></line><line x1="138.00000000000003" y1="245.34774932960963" x2="139.00000000000003" y2="246.02814441624434" stroke-width="2px" style="stroke: black;"></line><line x1="139.00000000000003" y1="246.02814441624434" x2="140.00000000000003" y2="246.6820942114645" stroke-width="2px" style="stroke: black;"></line><line x1="140.00000000000003" y1="246.6820942114645" x2="141.00000000000003" y2="247.31111293701827" stroke-width="2px" style="stroke: black;"></line><line x1="141.00000000000003" y1="247.31111293701827" x2="142.00000000000003" y2="247.91659388140909" stroke-width="2px" style="stroke: black;"></line><line x1="142.00000000000003" y1="247.91659388140909" x2="143.00000000000003" y2="248.49982180102074" stroke-width="2px" style="stroke: black;"></line><line x1="143.00000000000003" y1="248.49982180102074" x2="144.00000000000003" y2="249.06198378530559" stroke-width="2px" style="stroke: black;"></line><line x1="144.00000000000003" y1="249.06198378530559" x2="145.00000000000003" y2="249.60417880702" stroke-width="2px" style="stroke: black;"></line><line x1="145.00000000000003" y1="249.60417880702" x2="146.00000000000003" y2="250.1274261425045" stroke-width="2px" style="stroke: black;"></line><line x1="146.00000000000003" y1="250.1274261425045" x2="147.00000000000003" y2="250.63267281752863" stroke-width="2px" style="stroke: black;"></line><line x1="147.00000000000003" y1="250.63267281752863" x2="148.00000000000003" y2="251.12080020996544" stroke-width="2px" style="stroke: black;"></line><line x1="148.00000000000003" y1="251.12080020996544" x2="149.00000000000003" y2="251.59262992051185" stroke-width="2px" style="stroke: black;"></line><line x1="149.00000000000003" y1="251.59262992051185" x2="150.00000000000003" y2="252.04892900603025" stroke-width="2px" style="stroke: black;"></line><line x1="150.00000000000003" y1="252.04892900603025" x2="151.00000000000003" y2="252.49041465621605" stroke-width="2px" style="stroke: black;"></line><line x1="151.00000000000003" y1="252.49041465621605" x2="152.00000000000003" y2="252.91775838269388" stroke-width="2px" style="stroke: black;"></line><line x1="152.00000000000003" y1="252.91775838269388" x2="153.00000000000003" y2="253.3315897798975" stroke-width="2px" style="stroke: black;"></line><line x1="153.00000000000003" y1="253.3315897798975" x2="154.00000000000003" y2="253.73249990887717" stroke-width="2px" style="stroke: black;"></line><line x1="154.00000000000003" y1="253.73249990887717" x2="155.00000000000003" y2="254.1210443482309" stroke-width="2px" style="stroke: black;"></line><line x1="155.00000000000003" y1="254.1210443482309" x2="156.00000000000003" y2="254.49774595046375" stroke-width="2px" style="stroke: black;"></line><line x1="156.00000000000003" y1="254.49774595046375" x2="157.00000000000006" y2="254.8630973370611" stroke-width="2px" style="stroke: black;"></line><line x1="157.00000000000006" y1="254.8630973370611" x2="158.00000000000006" y2="255.21756316128034" stroke-width="2px" style="stroke: black;"></line><line x1="158.00000000000006" y1="255.21756316128034" x2="159.00000000000006" y2="255.56158216399714" stroke-width="2px" style="stroke: black;"></line><line x1="159.00000000000006" y1="255.56158216399714" x2="160.00000000000006" y2="255.89556904479278" stroke-width="2px" style="stroke: black;"></line><line x1="160.00000000000006" y1="255.89556904479278" x2="161.00000000000006" y2="256.2199161677577" stroke-width="2px" style="stroke: black;"></line><line x1="161.00000000000006" y1="256.2199161677577" x2="162.00000000000006" y2="256.5349951191445" stroke-width="2px" style="stroke: black;"></line><line x1="162.00000000000006" y1="256.5349951191445" x2="163.00000000000006" y2="256.841158131978" stroke-width="2px" style="stroke: black;"></line><line x1="163.00000000000006" y1="256.841158131978" x2="164.00000000000006" y2="257.1387393909698" stroke-width="2px" style="stroke: black;"></line><line x1="164.00000000000006" y1="257.1387393909698" x2="165.00000000000006" y2="257.42805622955825" stroke-width="2px" style="stroke: black;"></line><line x1="165.00000000000006" y1="257.42805622955825" x2="166.00000000000006" y2="257.7094102295584" stroke-width="2px" style="stroke: black;"></line><line x1="166.00000000000006" y1="257.7094102295584" x2="167.00000000000006" y2="257.98308823274385" stroke-width="2px" style="stroke: black;"></line><line x1="167.00000000000006" y1="257.98308823274385" x2="168.00000000000006" y2="258.2493632726624" stroke-width="2px" style="stroke: black;"></line><line x1="168.00000000000006" y1="258.2493632726624" x2="169.00000000000006" y2="258.5084954340907" stroke-width="2px" style="stroke: black;"></line><line x1="169.00000000000006" y1="258.5084954340907" x2="170.00000000000003" y2="258.7607326467491" stroke-width="2px" style="stroke: black;"></line><line x1="170.00000000000003" y1="258.7607326467491" x2="171.00000000000003" y2="259.0063114192022" stroke-width="2px" style="stroke: black;"></line><line x1="171.00000000000003" y1="259.0063114192022" x2="172" y2="259.2454575182614" stroke-width="2px" style="stroke: black;"></line><line x1="172" y1="259.2454575182614" x2="173" y2="259.4783865986626" stroke-width="2px" style="stroke: black;"></line><line x1="173" y1="259.4783865986626" x2="174" y2="259.7053047873142" stroke-width="2px" style="stroke: black;"></line><line x1="174" y1="259.7053047873142" x2="175" y2="259.9264092259862" stroke-width="2px" style="stroke: black;"></line><line x1="175" y1="259.9264092259862" x2="176" y2="260.14188857593103" stroke-width="2px" style="stroke: black;"></line><line x1="176" y1="260.14188857593103" x2="177" y2="260.351923487593" stroke-width="2px" style="stroke: black;"></line><line x1="177" y1="260.351923487593" x2="178" y2="260.5566870382608" stroke-width="2px" style="stroke: black;"></line><line x1="178" y1="260.5566870382608" x2="178.99999999999997" y2="260.7563451402509" stroke-width="2px" style="stroke: black;"></line><line x1="178.99999999999997" y1="260.7563451402509" x2="179.99999999999997" y2="260.9510569219697" stroke-width="2px" style="stroke: black;"></line><line x1="179.99999999999997" y1="260.9510569219697" x2="180.99999999999994" y2="261.14097508398714" stroke-width="2px" style="stroke: black;"></line><line x1="180.99999999999994" y1="261.14097508398714" x2="181.99999999999994" y2="261.32624623206215" stroke-width="2px" style="stroke: black;"></line><line x1="181.99999999999994" y1="261.32624623206215" x2="182.99999999999994" y2="261.5070111888874" stroke-width="2px" style="stroke: black;"></line><line x1="182.99999999999994" y1="261.5070111888874" x2="183.99999999999994" y2="261.68340528616415" stroke-width="2px" style="stroke: black;"></line><line x1="183.99999999999994" y1="261.68340528616415" x2="184.99999999999994" y2="261.85555863847867" stroke-width="2px" style="stroke: black;"></line><line x1="184.99999999999994" y1="261.85555863847867" x2="185.99999999999994" y2="262.0235964003255" stroke-width="2px" style="stroke: black;"></line><line x1="185.99999999999994" y1="262.0235964003255" x2="186.99999999999994" y2="262.1876390075066" stroke-width="2px" style="stroke: black;"></line><line x1="186.99999999999994" y1="262.1876390075066" x2="187.99999999999994" y2="262.34780240403416" stroke-width="2px" style="stroke: black;"></line><line x1="187.99999999999994" y1="262.34780240403416" x2="188.9999999999999" y2="262.5041982555705" stroke-width="2px" style="stroke: black;"></line><line x1="188.9999999999999" y1="262.5041982555705" x2="189.9999999999999" y2="262.65693415035315" stroke-width="2px" style="stroke: black;"></line><line x1="189.9999999999999" y1="262.65693415035315" x2="190.9999999999999" y2="262.8061137884771" stroke-width="2px" style="stroke: black;"></line><line x1="190.9999999999999" y1="262.8061137884771" x2="191.9999999999999" y2="262.9518371603356" stroke-width="2px" style="stroke: black;"></line><line x1="191.9999999999999" y1="262.9518371603356" x2="192.9999999999999" y2="263.09420071495776" stroke-width="2px" style="stroke: black;"></line><line x1="192.9999999999999" y1="263.09420071495776" x2="193.9999999999999" y2="263.2332975189227" stroke-width="2px" style="stroke: black;"></line><line x1="193.9999999999999" y1="263.2332975189227" x2="194.9999999999999" y2="263.3692174064781" stroke-width="2px" style="stroke: black;"></line><line x1="194.9999999999999" y1="263.3692174064781" x2="195.9999999999999" y2="263.50204712144176" stroke-width="2px" style="stroke: black;"></line><line x1="195.9999999999999" y1="263.50204712144176" x2="196.99999999999983" y2="263.6318704514214" stroke-width="2px" style="stroke: black;"></line><line x1="196.99999999999983" y1="263.6318704514214" x2="197.99999999999983" y2="263.75876835484826" stroke-width="2px" style="stroke: black;"></line><line x1="197.99999999999983" y1="263.75876835484826" x2="198.99999999999983" y2="263.8828190812816" stroke-width="2px" style="stroke: black;"></line><line x1="198.99999999999983" y1="263.8828190812816" x2="199.99999999999983" y2="264.00409828540893" stroke-width="2px" style="stroke: black;"></line><line x1="199.99999999999983" y1="264.00409828540893" x2="200.99999999999983" y2="264.1226791351361" stroke-width="2px" style="stroke: black;"></line><line x1="200.99999999999983" y1="264.1226791351361" x2="201.99999999999983" y2="264.2386324141306" stroke-width="2px" style="stroke: black;"></line><line x1="201.99999999999983" y1="264.2386324141306" x2="202.99999999999983" y2="264.35202661915946" stroke-width="2px" style="stroke: black;"></line><line x1="202.99999999999983" y1="264.35202661915946" x2="203.99999999999983" y2="264.46292805253444" stroke-width="2px" style="stroke: black;"></line><line x1="203.99999999999983" y1="264.46292805253444" x2="204.99999999999983" y2="264.57140090995927" stroke-width="2px" style="stroke: black;"></line><line x1="204.99999999999983" y1="264.57140090995927" x2="205.99999999999977" y2="264.6775073640508" stroke-width="2px" style="stroke: black;"></line><line x1="205.99999999999977" y1="264.6775073640508" x2="206.99999999999977" y2="264.78130764378824" stroke-width="2px" style="stroke: black;"></line><line x1="206.99999999999977" y1="264.78130764378824" x2="207.99999999999977" y2="264.8828601101272" stroke-width="2px" style="stroke: black;"></line><line x1="207.99999999999977" y1="264.8828601101272" x2="208.99999999999977" y2="264.98222132799964" stroke-width="2px" style="stroke: black;"></line><line x1="208.99999999999977" y1="264.98222132799964" x2="209.99999999999977" y2="265.07944613490525" stroke-width="2px" style="stroke: black;"></line><line x1="209.99999999999977" y1="265.07944613490525" x2="210.99999999999977" y2="265.1745877062872" stroke-width="2px" style="stroke: black;"></line><line x1="210.99999999999977" y1="265.1745877062872" x2="211.99999999999977" y2="265.26769761787205" stroke-width="2px" style="stroke: black;"></line><line x1="211.99999999999977" y1="265.26769761787205" x2="212.99999999999977" y2="265.3588259051417" stroke-width="2px" style="stroke: black;"></line><line x1="212.99999999999977" y1="265.3588259051417" x2="213.99999999999977" y2="265.44802112009575" stroke-width="2px" style="stroke: black;"></line><line x1="213.99999999999977" y1="265.44802112009575" x2="214.99999999999972" y2="265.53533038545004" stroke-width="2px" style="stroke: black;"></line><line x1="214.99999999999972" y1="265.53533038545004" x2="215.99999999999972" y2="265.62079944641124" stroke-width="2px" style="stroke: black;"></line><line x1="215.99999999999972" y1="265.62079944641124" x2="216.99999999999972" y2="265.7044727201558" stroke-width="2px" style="stroke: black;"></line><line x1="216.99999999999972" y1="265.7044727201558" x2="217.99999999999972" y2="265.78639334313544" stroke-width="2px" style="stroke: black;"></line><line x1="217.99999999999972" y1="265.78639334313544" x2="218.99999999999972" y2="265.86660321632195" stroke-width="2px" style="stroke: black;"></line><line x1="218.99999999999972" y1="265.86660321632195" x2="219.99999999999972" y2="265.9451430485005" stroke-width="2px" style="stroke: black;"></line><line x1="219.99999999999972" y1="265.9451430485005" x2="220.99999999999972" y2="266.02205239770973" stroke-width="2px" style="stroke: black;"></line><line x1="220.99999999999972" y1="266.02205239770973" x2="221.99999999999972" y2="266.0973697109247" stroke-width="2px" style="stroke: black;"></line><line x1="221.99999999999972" y1="266.0973697109247" x2="222.99999999999972" y2="266.1711323620712" stroke-width="2px" style="stroke: black;"></line><line x1="222.99999999999972" y1="266.1711323620712" x2="223.99999999999966" y2="266.24337668845544" stroke-width="2px" style="stroke: black;"></line><line x1="223.99999999999966" y1="266.24337668845544" x2="224.99999999999966" y2="266.3141380256869" stroke-width="2px" style="stroke: black;"></line><line x1="224.99999999999966" y1="266.3141380256869" x2="225.99999999999966" y2="266.38345074117063" stroke-width="2px" style="stroke: black;"></line><line x1="225.99999999999966" y1="266.38345074117063" x2="226.99999999999966" y2="266.451348266237" stroke-width="2px" style="stroke: black;"></line><line x1="226.99999999999966" y1="266.451348266237" x2="227.99999999999966" y2="266.51786312697624" stroke-width="2px" style="stroke: black;"></line><line x1="227.99999999999966" y1="266.51786312697624" x2="228.99999999999963" y2="266.58302697383954" stroke-width="2px" style="stroke: black;"></line><line x1="228.99999999999963" y1="266.58302697383954" x2="229.99999999999963" y2="266.6468706100659" stroke-width="2px" style="stroke: black;"></line><line x1="229.99999999999963" y1="266.6468706100659" x2="230.99999999999963" y2="266.70942401899" stroke-width="2px" style="stroke: black;"></line><line x1="230.99999999999963" y1="266.70942401899" x2="231.99999999999963" y2="266.77071639028355" stroke-width="2px" style="stroke: black;"></line><line x1="231.99999999999963" y1="266.77071639028355" x2="232.99999999999963" y2="266.83077614518066" stroke-width="2px" style="stroke: black;"></line><line x1="232.99999999999963" y1="266.83077614518066" x2="233.99999999999963" y2="266.8896309607326" stroke-width="2px" style="stroke: black;"></line><line x1="233.99999999999963" y1="266.8896309607326" x2="234.99999999999963" y2="266.9473077931376" stroke-width="2px" style="stroke: black;"></line><line x1="234.99999999999963" y1="266.9473077931376" x2="235.99999999999963" y2="267.0038329001882" stroke-width="2px" style="stroke: black;"></line><line x1="235.99999999999963" y1="267.0038329001882" x2="236.99999999999966" y2="267.05923186287373" stroke-width="2px" style="stroke: black;"></line><line x1="236.99999999999966" y1="267.05923186287373" x2="237.99999999999966" y2="267.11352960617864" stroke-width="2px" style="stroke: black;"></line><line x1="237.99999999999966" y1="267.11352960617864" x2="238.9999999999997" y2="267.16675041911014" stroke-width="2px" style="stroke: black;"></line><line x1="238.9999999999997" y1="267.16675041911014" x2="239.9999999999997" y2="267.2189179739902" stroke-width="2px" style="stroke: black;"></line><line x1="239.9999999999997" y1="267.2189179739902" x2="240.9999999999997" y2="267.2700553450437" stroke-width="2px" style="stroke: black;"></line><line x1="240.9999999999997" y1="267.2700553450437" x2="241.9999999999997" y2="267.32018502631394" stroke-width="2px" style="stroke: black;"></line><line x1="241.9999999999997" y1="267.32018502631394" x2="242.9999999999997" y2="267.3693289489331" stroke-width="2px" style="stroke: black;"></line><line x1="242.9999999999997" y1="267.3693289489331" x2="243.99999999999972" y2="267.41750849777713" stroke-width="2px" style="stroke: black;"></line><line x1="243.99999999999972" y1="267.41750849777713" x2="244.99999999999972" y2="267.46474452752915" stroke-width="2px" style="stroke: black;"></line><line x1="244.99999999999972" y1="267.46474452752915" x2="245.99999999999974" y2="267.51105737817835" stroke-width="2px" style="stroke: black;"></line><line x1="245.99999999999974" y1="267.51105737817835" x2="246.99999999999974" y2="267.55646688997626" stroke-width="2px" style="stroke: black;"></line><line x1="246.99999999999974" y1="267.55646688997626" x2="247.99999999999974" y2="267.600992417874" stroke-width="2px" style="stroke: black;"></line><line x1="247.99999999999974" y1="267.600992417874" x2="248.99999999999974" y2="267.64465284546156" stroke-width="2px" style="stroke: black;"></line><line x1="248.99999999999974" y1="267.64465284546156" x2="249.99999999999977" y2="267.6874665984294" stroke-width="2px" style="stroke: black;"></line><line x1="249.99999999999977" y1="267.6874665984294" x2="250.99999999999977" y2="267.72945165757204" stroke-width="2px" style="stroke: black;"></line><line x1="250.99999999999977" y1="267.72945165757204" x2="251.99999999999977" y2="267.7706255713519" stroke-width="2px" style="stroke: black;"></line><line x1="251.99999999999977" y1="267.7706255713519" x2="252.9999999999998" y2="267.81100546804134" stroke-width="2px" style="stroke: black;"></line><line x1="252.9999999999998" y1="267.81100546804134" x2="253.9999999999998" y2="267.8506080674591" stroke-width="2px" style="stroke: black;"></line><line x1="253.9999999999998" y1="267.8506080674591" x2="254.9999999999998" y2="267.8894496923181" stroke-width="2px" style="stroke: black;"></line><line x1="254.9999999999998" y1="267.8894496923181" x2="255.9999999999998" y2="267.92754627919874" stroke-width="2px" style="stroke: black;"></line><line x1="255.9999999999998" y1="267.92754627919874" x2="256.99999999999983" y2="267.9649133891635" stroke-width="2px" style="stroke: black;"></line><line x1="256.99999999999983" y1="267.9649133891635" x2="257.99999999999983" y2="268.00156621802546" stroke-width="2px" style="stroke: black;"></line><line x1="257.99999999999983" y1="268.00156621802546" x2="258.99999999999983" y2="268.0375196062855" stroke-width="2px" style="stroke: black;"></line><line x1="258.99999999999983" y1="268.0375196062855" x2="259.9999999999999" y2="268.07278804874966" stroke-width="2px" style="stroke: black;"></line><line x1="259.9999999999999" y1="268.07278804874966" x2="260.9999999999999" y2="268.10738570383904" stroke-width="2px" style="stroke: black;"></line><line x1="260.9999999999999" y1="268.10738570383904" x2="261.9999999999999" y2="268.14132640260453" stroke-width="2px" style="stroke: black;"></line><line x1="261.9999999999999" y1="268.14132640260453" x2="262.9999999999999" y2="268.17462365745666" stroke-width="2px" style="stroke: black;"></line><line x1="262.9999999999999" y1="268.17462365745666" x2="263.9999999999999" y2="268.20729067062166" stroke-width="2px" style="stroke: black;"></line><line x1="263.9999999999999" y1="268.20729067062166" x2="264.9999999999999" y2="268.23934034233343" stroke-width="2px" style="stroke: black;"></line><line x1="264.9999999999999" y1="268.23934034233343" x2="265.9999999999999" y2="268.2707852787717" stroke-width="2px" style="stroke: black;"></line><line x1="265.9999999999999" y1="268.2707852787717" x2="266.9999999999999" y2="268.30163779975504" stroke-width="2px" style="stroke: black;"></line><line x1="266.9999999999999" y1="268.30163779975504" x2="267.9999999999999" y2="268.33190994619815" stroke-width="2px" style="stroke: black;"></line><line x1="267.9999999999999" y1="268.33190994619815" x2="268.9999999999999" y2="268.36161348734163" stroke-width="2px" style="stroke: black;"></line><line x1="268.9999999999999" y1="268.36161348734163" x2="269.9999999999999" y2="268.3907599277626" stroke-width="2px" style="stroke: black;"></line><line x1="269.9999999999999" y1="268.3907599277626" x2="270.9999999999999" y2="268.4193605141737" stroke-width="2px" style="stroke: black;"></line><line x1="270.9999999999999" y1="268.4193605141737" x2="272" y2="268.44742624201825" stroke-width="2px" style="stroke: black;"></line><line x1="272" y1="268.44742624201825" x2="273" y2="268.4749678618687" stroke-width="2px" style="stroke: black;"></line><line x1="273" y1="268.4749678618687" x2="274" y2="268.5019958856349" stroke-width="2px" style="stroke: black;"></line><line x1="274" y1="268.5019958856349" x2="275" y2="268.5285205925897" stroke-width="2px" style="stroke: black;"></line><line x1="275" y1="268.5285205925897" x2="276" y2="268.554552035217" stroke-width="2px" style="stroke: black;"></line><line x1="276" y1="268.554552035217" x2="277" y2="268.5801000448893" stroke-width="2px" style="stroke: black;"></line><line x1="277" y1="268.5801000448893" x2="278" y2="268.6051742373803" stroke-width="2px" style="stroke: black;"></line><line x1="278" y1="268.6051742373803" x2="279" y2="268.6297840182179" stroke-width="2px" style="stroke: black;"></line><line x1="279" y1="268.6297840182179" x2="280" y2="268.6539385878834" stroke-width="2px" style="stroke: black;"></line><line x1="280" y1="268.6539385878834" x2="281" y2="268.6776469468619" stroke-width="2px" style="stroke: black;"></line><line x1="281" y1="268.6776469468619" x2="282" y2="268.7009179005488" stroke-width="2px" style="stroke: black;"></line><line x1="282" y1="268.7009179005488" x2="283" y2="268.72376006401703" stroke-width="2px" style="stroke: black;"></line><line x1="283" y1="268.72376006401703" x2="284" y2="268.74618186665043" stroke-width="2px" style="stroke: black;"></line><line x1="284" y1="268.74618186665043" x2="285" y2="268.7681915566464" stroke-width="2px" style="stroke: black;"></line><line x1="285" y1="268.7681915566464" x2="286.0000000000001" y2="268.78979720539326" stroke-width="2px" style="stroke: black;"></line><line x1="286.0000000000001" y1="268.78979720539326" x2="287.0000000000001" y2="268.81100671172584" stroke-width="2px" style="stroke: black;"></line><line x1="287.0000000000001" y1="268.81100671172584" x2="288.0000000000001" y2="268.8318278060631" stroke-width="2px" style="stroke: black;"></line><line x1="288.0000000000001" y1="268.8318278060631" x2="289.0000000000001" y2="268.8522680544319" stroke-width="2px" style="stroke: black;"></line><line x1="289.0000000000001" y1="268.8522680544319" x2="290.0000000000001" y2="268.8723348623807" stroke-width="2px" style="stroke: black;"></line><line x1="290.0000000000001" y1="268.8723348623807" x2="291.0000000000001" y2="268.8920354787861" stroke-width="2px" style="stroke: black;"></line><line x1="291.0000000000001" y1="268.8920354787861" x2="292.0000000000001" y2="268.91137699955624" stroke-width="2px" style="stroke: black;"></line><line x1="292.0000000000001" y1="268.91137699955624" x2="293.0000000000001" y2="268.93036637123384" stroke-width="2px" style="stroke: black;"></line><line x1="293.0000000000001" y1="268.93036637123384" x2="294.0000000000001" y2="268.94901039450235" stroke-width="2px" style="stroke: black;"></line><line x1="294.0000000000001" y1="268.94901039450235" x2="295.0000000000001" y2="268.9673157275981" stroke-width="2px" style="stroke: black;"></line><line x1="295.0000000000001" y1="268.9673157275981" x2="296.0000000000001" y2="268.9852888896312" stroke-width="2px" style="stroke: black;"></line><line x1="296.0000000000001" y1="268.9852888896312" x2="297.0000000000001" y2="269.00293626381864" stroke-width="2px" style="stroke: black;"></line><line x1="297.0000000000001" y1="269.00293626381864" x2="298.0000000000001" y2="269.0202641006312" stroke-width="2px" style="stroke: black;"></line><line x1="298.0000000000001" y1="269.0202641006312" x2="299.0000000000001" y2="269.037278520858" stroke-width="2px" style="stroke: black;"></line><line x1="299.0000000000001" y1="269.037278520858" x2="300.0000000000002" y2="269.0539855185903" stroke-width="2px" style="stroke: black;"></line><line x1="300.0000000000002" y1="269.0539855185903" x2="301.0000000000002" y2="269.0703909641273" stroke-width="2px" style="stroke: black;"></line><line x1="301.0000000000002" y1="269.0703909641273" x2="302.0000000000002" y2="269.0865006068067" stroke-width="2px" style="stroke: black;"></line><line x1="302.0000000000002" y1="269.0865006068067" x2="303.0000000000002" y2="269.10232007776125" stroke-width="2px" style="stroke: black;"></line><line x1="303.0000000000002" y1="269.10232007776125" x2="304.0000000000002" y2="269.117854892605" stroke-width="2px" style="stroke: black;"></line><line x1="304.0000000000002" y1="269.117854892605" x2="305.0000000000002" y2="269.13311045404964" stroke-width="2px" style="stroke: black;"></line><line x1="305.0000000000002" y1="269.13311045404964" x2="306.0000000000002" y2="269.1480920544542" stroke-width="2px" style="stroke: black;"></line><line x1="306.0000000000002" y1="269.1480920544542" x2="307.0000000000002" y2="269.16280487830977" stroke-width="2px" style="stroke: black;"></line><line x1="307.0000000000002" y1="269.16280487830977" x2="308.0000000000002" y2="269.1772540046611" stroke-width="2px" style="stroke: black;"></line><line x1="308.0000000000002" y1="269.1772540046611" x2="309.0000000000002" y2="269.1914444094667" stroke-width="2px" style="stroke: black;"></line><line x1="309.0000000000002" y1="269.1914444094667" x2="310.0000000000002" y2="269.2053809678994" stroke-width="2px" style="stroke: black;"></line><line x1="310.0000000000002" y1="269.2053809678994" x2="311.0000000000002" y2="269.2190684565894" stroke-width="2px" style="stroke: black;"></line><line x1="311.0000000000002" y1="269.2190684565894" x2="312.0000000000002" y2="269.23251155581096" stroke-width="2px" style="stroke: black;"></line><line x1="312.0000000000002" y1="269.23251155581096" x2="313.00000000000034" y2="269.2457148516146" stroke-width="2px" style="stroke: black;"></line><line x1="313.00000000000034" y1="269.2457148516146" x2="314.00000000000034" y2="269.25868283790635" stroke-width="2px" style="stroke: black;"></line><line x1="314.00000000000034" y1="269.25868283790635" x2="315.00000000000034" y2="269.2714199184754" stroke-width="2px" style="stroke: black;"></line><line x1="315.00000000000034" y1="269.2714199184754" x2="316.00000000000034" y2="269.283930408972" stroke-width="2px" style="stroke: black;"></line><line x1="316.00000000000034" y1="269.283930408972" x2="317.00000000000034" y2="269.2962185388366" stroke-width="2px" style="stroke: black;"></line><line x1="317.00000000000034" y1="269.2962185388366" x2="318.00000000000034" y2="269.30828845318143" stroke-width="2px" style="stroke: black;"></line><line x1="318.00000000000034" y1="269.30828845318143" x2="319.00000000000034" y2="269.3201442146267" stroke-width="2px" style="stroke: black;"></line><line x1="319.00000000000034" y1="269.3201442146267" x2="320.00000000000034" y2="269.33178980509194" stroke-width="2px" style="stroke: black;"></line><line x1="320.00000000000034" y1="269.33178980509194" x2="321.00000000000034" y2="269.3432291275437" stroke-width="2px" style="stroke: black;"></line><line x1="321.00000000000034" y1="269.3432291275437" x2="322.00000000000034" y2="269.35446600770115" stroke-width="2px" style="stroke: black;"></line><line x1="322.00000000000034" y1="269.35446600770115" x2="323.00000000000034" y2="269.36550419570096" stroke-width="2px" style="stroke: black;"></line><line x1="323.00000000000034" y1="269.36550419570096" x2="324.00000000000034" y2="269.3763473677215" stroke-width="2px" style="stroke: black;"></line><line x1="324.00000000000034" y1="269.3763473677215" x2="325.00000000000034" y2="269.38699912756897" stroke-width="2px" style="stroke: black;"></line><line x1="325.00000000000034" y1="269.38699912756897" x2="326.00000000000034" y2="269.3974630082252" stroke-width="2px" style="stroke: black;"></line><line x1="326.00000000000034" y1="269.3974630082252" x2="327.00000000000045" y2="269.4077424733589" stroke-width="2px" style="stroke: black;"></line><line x1="327.00000000000045" y1="269.4077424733589" x2="328.00000000000045" y2="269.417840918801" stroke-width="2px" style="stroke: black;"></line><line x1="328.00000000000045" y1="269.417840918801" x2="329.00000000000045" y2="269.42776167398523" stroke-width="2px" style="stroke: black;"></line><line x1="329.00000000000045" y1="269.42776167398523" x2="330.00000000000045" y2="269.4375080033547" stroke-width="2px" style="stroke: black;"></line><line x1="330.00000000000045" y1="269.4375080033547" x2="331.00000000000045" y2="269.44708310773575" stroke-width="2px" style="stroke: black;"></line><line x1="331.00000000000045" y1="269.44708310773575" x2="332.00000000000045" y2="269.4564901256793" stroke-width="2px" style="stroke: black;"></line><line x1="332.00000000000045" y1="269.4564901256793" x2="333.00000000000045" y2="269.4657321347709" stroke-width="2px" style="stroke: black;"></line><line x1="333.00000000000045" y1="269.4657321347709" x2="334.00000000000045" y2="269.47481215291106" stroke-width="2px" style="stroke: black;"></line><line x1="334.00000000000045" y1="269.47481215291106" x2="335.00000000000045" y2="269.4837331395647" stroke-width="2px" style="stroke: black;"></line><line x1="335.00000000000045" y1="269.4837331395647" x2="336.00000000000045" y2="269.4924979969828" stroke-width="2px" style="stroke: black;"></line><line x1="336.00000000000045" y1="269.4924979969828" x2="337.00000000000045" y2="269.5011095713954" stroke-width="2px" style="stroke: black;"></line><line x1="337.00000000000045" y1="269.5011095713954" x2="338.00000000000045" y2="269.5095706541769" stroke-width="2px" style="stroke: black;"></line><line x1="338.00000000000045" y1="269.5095706541769" x2="339.00000000000045" y2="269.51788398298567" stroke-width="2px" style="stroke: black;"></line><line x1="339.00000000000045" y1="269.51788398298567" x2="340.00000000000045" y2="269.52605224287646" stroke-width="2px" style="stroke: black;"></line><line x1="340.00000000000045" y1="269.52605224287646" x2="341.00000000000057" y2="269.5340780673882" stroke-width="2px" style="stroke: black;"></line><line x1="341.00000000000057" y1="269.5340780673882" x2="342.00000000000057" y2="269.54196403960674" stroke-width="2px" style="stroke: black;"></line><line x1="342.00000000000057" y1="269.54196403960674" x2="343.00000000000057" y2="269.54971269320396" stroke-width="2px" style="stroke: black;"></line><line x1="343.00000000000057" y1="269.54971269320396" x2="344.00000000000057" y2="269.55732651345284" stroke-width="2px" style="stroke: black;"></line><line x1="344.00000000000057" y1="269.55732651345284" x2="345.00000000000057" y2="269.5648079382199" stroke-width="2px" style="stroke: black;"></line><line x1="345.00000000000057" y1="269.5648079382199" x2="346.00000000000057" y2="269.5721593589356" stroke-width="2px" style="stroke: black;"></line><line x1="346.00000000000057" y1="269.5721593589356" x2="347.00000000000057" y2="269.57938312154266" stroke-width="2px" style="stroke: black;"></line><line x1="347.00000000000057" y1="269.57938312154266" x2="348.00000000000057" y2="269.58648152742325" stroke-width="2px" style="stroke: black;"></line><line x1="348.00000000000057" y1="269.58648152742325" x2="349.00000000000057" y2="269.5934568343056" stroke-width="2px" style="stroke: black;"></line><line x1="349.00000000000057" y1="269.5934568343056" x2="350.00000000000057" y2="269.6003112571504" stroke-width="2px" style="stroke: black;"></line><line x1="350.00000000000057" y1="269.6003112571504" x2="351.00000000000057" y2="269.6070469690177" stroke-width="2px" style="stroke: black;"></line><line x1="351.00000000000057" y1="269.6070469690177" x2="352.00000000000057" y2="269.61366610191436" stroke-width="2px" style="stroke: black;"></line><line x1="352.00000000000057" y1="269.61366610191436" x2="353.00000000000057" y2="269.6201707476229" stroke-width="2px" style="stroke: black;"></line><line x1="353.00000000000057" y1="269.6201707476229" x2="354.00000000000057" y2="269.6265629585124" stroke-width="2px" style="stroke: black;"></line><line x1="354.00000000000057" y1="269.6265629585124" x2="355.0000000000007" y2="269.6328447483311" stroke-width="2px" style="stroke: black;"></line><line x1="355.0000000000007" y1="269.6328447483311" x2="356.0000000000006" y2="269.63901809298204" stroke-width="2px" style="stroke: black;"></line><line x1="356.0000000000006" y1="269.63901809298204" x2="357.0000000000006" y2="269.6450849312817" stroke-width="2px" style="stroke: black;"></line><line x1="357.0000000000006" y1="269.6450849312817" x2="358.0000000000006" y2="269.65104716570187" stroke-width="2px" style="stroke: black;"></line><line x1="358.0000000000006" y1="269.65104716570187" x2="359.0000000000007" y2="269.6569066630956" stroke-width="2px" style="stroke: black;"></line><line x1="359.0000000000007" y1="269.6569066630956" x2="360.0000000000007" y2="269.66266525540755" stroke-width="2px" style="stroke: black;"></line><line x1="360.0000000000007" y1="269.66266525540755" x2="361.0000000000007" y2="269.6683247403685" stroke-width="2px" style="stroke: black;"></line><line x1="361.0000000000007" y1="269.6683247403685" x2="362.0000000000007" y2="269.6738868821755" stroke-width="2px" style="stroke: black;"></line><line x1="362.0000000000007" y1="269.6738868821755" x2="363.0000000000007" y2="269.6793534121567" stroke-width="2px" style="stroke: black;"></line><line x1="363.0000000000007" y1="269.6793534121567" x2="364.00000000000074" y2="269.6847260294224" stroke-width="2px" style="stroke: black;"></line><line x1="364.00000000000074" y1="269.6847260294224" x2="365.00000000000074" y2="269.69000640150193" stroke-width="2px" style="stroke: black;"></line><line x1="365.00000000000074" y1="269.69000640150193" x2="366.00000000000074" y2="269.69519616496723" stroke-width="2px" style="stroke: black;"></line><line x1="366.00000000000074" y1="269.69519616496723" x2="367.00000000000074" y2="269.70029692604226" stroke-width="2px" style="stroke: black;"></line><line x1="367.00000000000074" y1="269.70029692604226" x2="368.0000000000007" y2="269.70531026120057" stroke-width="2px" style="stroke: black;"></line><line x1="368.0000000000007" y1="269.70531026120057" x2="369.0000000000006" y2="269.71023771774946" stroke-width="2px" style="stroke: black;"></line><line x1="369.0000000000006" y1="269.71023771774946" x2="370.0000000000006" y2="269.7150808144018" stroke-width="2px" style="stroke: black;"></line><line x1="370.0000000000006" y1="269.7150808144018" x2="371.0000000000006" y2="269.71984104183593" stroke-width="2px" style="stroke: black;"></line><line x1="371.0000000000006" y1="269.71984104183593" x2="372.0000000000006" y2="269.72451986324387" stroke-width="2px" style="stroke: black;"></line><line x1="372.0000000000006" y1="269.72451986324387" x2="373.00000000000057" y2="269.7291187148676" stroke-width="2px" style="stroke: black;"></line><line x1="373.00000000000057" y1="269.7291187148676" x2="374.00000000000057" y2="269.73363900652424" stroke-width="2px" style="stroke: black;"></line><line x1="374.00000000000057" y1="269.73363900652424" x2="375.0000000000005" y2="269.7380821221205" stroke-width="2px" style="stroke: black;"></line><line x1="375.0000000000005" y1="269.7380821221205" x2="376.0000000000005" y2="269.74244942015576" stroke-width="2px" style="stroke: black;"></line><line x1="376.0000000000005" y1="269.74244942015576" x2="377.0000000000005" y2="269.7467422342153" stroke-width="2px" style="stroke: black;"></line><line x1="377.0000000000005" y1="269.7467422342153" x2="378.00000000000045" y2="269.7509618734526" stroke-width="2px" style="stroke: black;"></line><line x1="378.00000000000045" y1="269.7509618734526" x2="379.00000000000045" y2="269.75510962306237" stroke-width="2px" style="stroke: black;"></line><line x1="379.00000000000045" y1="269.75510962306237" x2="380.0000000000004" y2="269.759186744743" stroke-width="2px" style="stroke: black;"></line><line x1="380.0000000000004" y1="269.759186744743" x2="381.0000000000004" y2="269.76319447714957" stroke-width="2px" style="stroke: black;"></line><line x1="381.0000000000004" y1="269.76319447714957" x2="382.0000000000004" y2="269.7671340363383" stroke-width="2px" style="stroke: black;"></line><line x1="382.0000000000004" y1="269.7671340363383" x2="383.0000000000004" y2="269.7710066162006" stroke-width="2px" style="stroke: black;"></line><line x1="383.0000000000004" y1="269.7710066162006" x2="384.00000000000034" y2="269.774813388889" stroke-width="2px" style="stroke: black;"></line><line x1="384.00000000000034" y1="269.774813388889" x2="385.0000000000003" y2="269.77855550523407" stroke-width="2px" style="stroke: black;"></line><line x1="385.0000000000003" y1="269.77855550523407" x2="386.0000000000003" y2="269.7822340951529" stroke-width="2px" style="stroke: black;"></line><line x1="386.0000000000003" y1="269.7822340951529" x2="387.0000000000003" y2="269.7858502680489" stroke-width="2px" style="stroke: black;"></line><line x1="387.0000000000003" y1="269.7858502680489" x2="388.0000000000003" y2="269.78940511320377" stroke-width="2px" style="stroke: black;"></line><line x1="388.0000000000003" y1="269.78940511320377" x2="389.0000000000002" y2="269.79289970016146" stroke-width="2px" style="stroke: black;"></line><line x1="389.0000000000002" y1="269.79289970016146" x2="390.0000000000002" y2="269.79633507910376" stroke-width="2px" style="stroke: black;"></line><line x1="390.0000000000002" y1="269.79633507910376" x2="391.00000000000017" y2="269.79971228121923" stroke-width="2px" style="stroke: black;"></line><line x1="391.00000000000017" y1="269.79971228121923" x2="392.00000000000017" y2="269.8030323190637" stroke-width="2px" style="stroke: black;"></line><line x1="392.00000000000017" y1="269.8030323190637" x2="393.00000000000017" y2="269.8062961869138" stroke-width="2px" style="stroke: black;"></line><line x1="393.00000000000017" y1="269.8062961869138" x2="394.0000000000001" y2="269.8095048611138" stroke-width="2px" style="stroke: black;"></line><line x1="394.0000000000001" y1="269.8095048611138" x2="395.0000000000001" y2="269.81265930041457" stroke-width="2px" style="stroke: black;"></line><line x1="395.0000000000001" y1="269.81265930041457" x2="396.00000000000006" y2="269.8157604463064" stroke-width="2px" style="stroke: black;"></line><line x1="396.00000000000006" y1="269.8157604463064" x2="397.00000000000006" y2="269.8188092233449" stroke-width="2px" style="stroke: black;"></line><line x1="397.00000000000006" y1="269.8188092233449" x2="398.00000000000006" y2="269.8218065394701" stroke-width="2px" style="stroke: black;"></line><line x1="398.00000000000006" y1="269.8218065394701" x2="399.00000000000006" y2="269.8247532863198" stroke-width="2px" style="stroke: black;"></line><line x1="399.00000000000006" y1="269.8247532863198" x2="400" y2="269.82765033953575" stroke-width="2px" style="stroke: black;"></line><line x1="400" y1="269.82765033953575" x2="400.99999999999994" y2="269.83049855906455" stroke-width="2px" style="stroke: black;"></line><line x1="400.99999999999994" y1="269.83049855906455" x2="401.99999999999994" y2="269.8332987894521" stroke-width="2px" style="stroke: black;"></line><line x1="401.99999999999994" y1="269.8332987894521" x2="402.99999999999994" y2="269.83605186013216" stroke-width="2px" style="stroke: black;"></line><line x1="402.99999999999994" y1="269.83605186013216" x2="403.99999999999994" y2="269.8387585857093" stroke-width="2px" style="stroke: black;"></line><line x1="403.99999999999994" y1="269.8387585857093" x2="404.9999999999999" y2="269.8414197662363" stroke-width="2px" style="stroke: black;"></line><line x1="404.9999999999999" y1="269.8414197662363" x2="405.9999999999999" y2="269.8440361874859" stroke-width="2px" style="stroke: black;"></line><line x1="405.9999999999999" y1="269.8440361874859" x2="406.99999999999983" y2="269.84660862121723" stroke-width="2px" style="stroke: black;"></line><line x1="406.99999999999983" y1="269.84660862121723" x2="407.99999999999983" y2="269.8491378254369" stroke-width="2px" style="stroke: black;"></line><line x1="407.99999999999983" y1="269.8491378254369" x2="408.99999999999983" y2="269.8516245446551" stroke-width="2px" style="stroke: black;"></line><line x1="408.99999999999983" y1="269.8516245446551" x2="409.9999999999998" y2="269.85406951013647" stroke-width="2px" style="stroke: black;"></line><line x1="409.9999999999998" y1="269.85406951013647" x2="410.9999999999998" y2="269.8564734401461" stroke-width="2px" style="stroke: black;"></line><line x1="410.9999999999998" y1="269.8564734401461" x2="411.9999999999997" y2="269.8588370401909" stroke-width="2px" style="stroke: black;"></line><line x1="411.9999999999997" y1="269.8588370401909" x2="412.9999999999997" y2="269.86116100325575" stroke-width="2px" style="stroke: black;"></line><line x1="412.9999999999997" y1="269.86116100325575" x2="413.9999999999997" y2="269.8634460100355" stroke-width="2px" style="stroke: black;"></line><line x1="413.9999999999997" y1="269.8634460100355" x2="414.9999999999997" y2="269.86569272916233" stroke-width="2px" style="stroke: black;"></line><line x1="414.9999999999997" y1="269.86569272916233" x2="415.99999999999966" y2="269.8679018174284" stroke-width="2px" style="stroke: black;"></line><line x1="415.99999999999966" y1="269.8679018174284" x2="416.9999999999996" y2="269.87007392000436" stroke-width="2px" style="stroke: black;"></line><line x1="416.9999999999996" y1="269.87007392000436" x2="417.9999999999996" y2="269.87220967065383" stroke-width="2px" style="stroke: black;"></line><line x1="417.9999999999996" y1="269.87220967065383" x2="418.9999999999996" y2="269.87430969194304" stroke-width="2px" style="stroke: black;"></line><line x1="418.9999999999996" y1="269.87430969194304" x2="419.9999999999996" y2="269.87637459544726" stroke-width="2px" style="stroke: black;"></line><line x1="419.9999999999996" y1="269.87637459544726" x2="420.99999999999955" y2="269.8784049819526" stroke-width="2px" style="stroke: black;"></line><line x1="420.99999999999955" y1="269.8784049819526" x2="421.99999999999955" y2="269.880401441654" stroke-width="2px" style="stroke: black;"></line><line x1="421.99999999999955" y1="269.880401441654" x2="422.9999999999995" y2="269.88236455434964" stroke-width="2px" style="stroke: black;"></line><line x1="422.9999999999995" y1="269.88236455434964" x2="423.9999999999995" y2="269.88429488963135" stroke-width="2px" style="stroke: black;"></line><line x1="423.9999999999995" y1="269.88429488963135" x2="424.9999999999995" y2="269.88619300707154" stroke-width="2px" style="stroke: black;"></line><line x1="424.9999999999995" y1="269.88619300707154" x2="425.99999999999943" y2="269.88805945640615" stroke-width="2px" style="stroke: black;"></line><line x1="425.99999999999943" y1="269.88805945640615" x2="426.99999999999943" y2="269.88989477771474" stroke-width="2px" style="stroke: black;"></line><line x1="426.99999999999943" y1="269.88989477771474" x2="427.9999999999994" y2="269.8916995015964" stroke-width="2px" style="stroke: black;"></line><line x1="427.9999999999994" y1="269.8916995015964" x2="428.9999999999994" y2="269.8934741493429" stroke-width="2px" style="stroke: black;"></line><line x1="428.9999999999994" y1="269.8934741493429" x2="429.9999999999994" y2="269.8952192331079" stroke-width="2px" style="stroke: black;"></line><line x1="429.9999999999994" y1="269.8952192331079" x2="430.9999999999994" y2="269.8969352560736" stroke-width="2px" style="stroke: black;"></line><line x1="430.9999999999994" y1="269.8969352560736" x2="431.9999999999993" y2="269.8986227126137" stroke-width="2px" style="stroke: black;"></line><line x1="431.9999999999993" y1="269.8986227126137" x2="432.99999999999926" y2="269.90028208845325" stroke-width="2px" style="stroke: black;"></line><line x1="432.99999999999926" y1="269.90028208845325" x2="433.99999999999926" y2="269.901913860826" stroke-width="2px" style="stroke: black;"></line><line x1="433.99999999999926" y1="269.901913860826" x2="434.99999999999926" y2="269.90351849862816" stroke-width="2px" style="stroke: black;"></line><line x1="434.99999999999926" y1="269.90351849862816" x2="435.99999999999926" y2="269.9050964625693" stroke-width="2px" style="stroke: black;"></line><line x1="435.99999999999926" y1="269.9050964625693" x2="436.9999999999992" y2="269.9066482053207" stroke-width="2px" style="stroke: black;"></line><line x1="436.9999999999992" y1="269.9066482053207" x2="437.9999999999992" y2="269.9081741716608" stroke-width="2px" style="stroke: black;"></line><line x1="437.9999999999992" y1="269.9081741716608" x2="438.99999999999915" y2="269.9096747986176" stroke-width="2px" style="stroke: black;"></line><line x1="438.99999999999915" y1="269.9096747986176" x2="439.99999999999915" y2="269.91115051560865" stroke-width="2px" style="stroke: black;"></line><line x1="439.99999999999915" y1="269.91115051560865" x2="440.99999999999915" y2="269.9126017445784" stroke-width="2px" style="stroke: black;"></line><line x1="440.99999999999915" y1="269.9126017445784" x2="441.9999999999991" y2="269.91402890013273" stroke-width="2px" style="stroke: black;"></line><line x1="441.9999999999991" y1="269.91402890013273" x2="442.9999999999991" y2="269.91543238967125" stroke-width="2px" style="stroke: black;"></line><line x1="442.9999999999991" y1="269.91543238967125" x2="443.9999999999991" y2="269.9168126135167" stroke-width="2px" style="stroke: black;"></line><line x1="443.9999999999991" y1="269.9168126135167" x2="444.99999999999903" y2="269.9181699650424" stroke-width="2px" style="stroke: black;"></line><line x1="444.99999999999903" y1="269.9181699650424" x2="445.99999999999903" y2="269.91950483079694" stroke-width="2px" style="stroke: black;"></line><line x1="445.99999999999903" y1="269.91950483079694" x2="446.99999999999903" y2="269.9208175906267" stroke-width="2px" style="stroke: black;"></line><line x1="446.99999999999903" y1="269.9208175906267" x2="447.9999999999989" y2="269.9221086177959" stroke-width="2px" style="stroke: black;"></line><line x1="447.9999999999989" y1="269.9221086177959" x2="448.9999999999989" y2="269.9233782791047" stroke-width="2px" style="stroke: black;"></line><line x1="448.9999999999989" y1="269.9233782791047" x2="449.9999999999989" y2="269.9246269350049" stroke-width="2px" style="stroke: black;"></line><line x1="449.9999999999989" y1="269.9246269350049" x2="450.9999999999989" y2="269.9258549397132" stroke-width="2px" style="stroke: black;"></line><line x1="450.9999999999989" y1="269.9258549397132" x2="451.99999999999886" y2="269.92706264132306" stroke-width="2px" style="stroke: black;"></line><line x1="451.99999999999886" y1="269.92706264132306" x2="452.99999999999886" y2="269.9282503819137" stroke-width="2px" style="stroke: black;"></line><line x1="452.99999999999886" y1="269.9282503819137" x2="453.99999999999886" y2="269.92941849765776" stroke-width="2px" style="stroke: black;"></line><line x1="453.99999999999886" y1="269.92941849765776" x2="454.99999999999886" y2="269.93056731892614" stroke-width="2px" style="stroke: black;"></line><line x1="454.99999999999886" y1="269.93056731892614" x2="455.9999999999988" y2="269.9316971703919" stroke-width="2px" style="stroke: black;"></line><line x1="455.9999999999988" y1="269.9316971703919" x2="456.9999999999988" y2="269.93280837113133" stroke-width="2px" style="stroke: black;"></line><line x1="456.9999999999988" y1="269.93280837113133" x2="457.9999999999988" y2="269.9339012347236" stroke-width="2px" style="stroke: black;"></line><line x1="457.9999999999988" y1="269.9339012347236" x2="458.9999999999987" y2="269.9349760693485" stroke-width="2px" style="stroke: black;"></line><line x1="458.9999999999987" y1="269.9349760693485" x2="459.9999999999987" y2="269.9360331778825" stroke-width="2px" style="stroke: black;"></line><line x1="459.9999999999987" y1="269.9360331778825" x2="460.9999999999987" y2="269.93707285799246" stroke-width="2px" style="stroke: black;"></line><line x1="460.9999999999987" y1="269.93707285799246" x2="461.9999999999987" y2="269.93809540222844" stroke-width="2px" style="stroke: black;"></line><line x1="461.9999999999987" y1="269.93809540222844" x2="462.99999999999864" y2="269.93910109811424" stroke-width="2px" style="stroke: black;"></line><line x1="462.99999999999864" y1="269.93910109811424" x2="463.99999999999864" y2="269.9400902282364" stroke-width="2px" style="stroke: black;"></line><line x1="463.99999999999864" y1="269.9400902282364" x2="464.99999999999864" y2="269.94106307033144" stroke-width="2px" style="stroke: black;"></line><line x1="464.99999999999864" y1="269.94106307033144" x2="465.9999999999986" y2="269.9420198973719" stroke-width="2px" style="stroke: black;"></line><line x1="465.9999999999986" y1="269.9420198973719" x2="466.9999999999986" y2="269.9429609776504" stroke-width="2px" style="stroke: black;"></line><line x1="466.9999999999986" y1="269.9429609776504" x2="467.9999999999986" y2="269.9438865748622" stroke-width="2px" style="stroke: black;"></line><line x1="467.9999999999986" y1="269.9438865748622" x2="468.9999999999986" y2="269.9447969481864" stroke-width="2px" style="stroke: black;"></line><line x1="468.9999999999986" y1="269.9447969481864" x2="469.99999999999847" y2="269.9456923523657" stroke-width="2px" style="stroke: black;"></line><line x1="469.99999999999847" y1="269.9456923523657" x2="470.99999999999847" y2="269.9465730377843" stroke-width="2px" style="stroke: black;"></line><line x1="470.99999999999847" y1="269.9465730377843" x2="471.99999999999847" y2="269.9474392505448" stroke-width="2px" style="stroke: black;"></line><line x1="471.99999999999847" y1="269.9474392505448" x2="472.9999999999984" y2="269.9482912325437" stroke-width="2px" style="stroke: black;"></line><line x1="472.9999999999984" y1="269.9482912325437" x2="473.9999999999984" y2="269.94912922154515" stroke-width="2px" style="stroke: black;"></line><line x1="473.9999999999984" y1="269.94912922154515" x2="474.9999999999984" y2="269.94995345125363" stroke-width="2px" style="stroke: black;"></line><line x1="474.9999999999984" y1="269.94995345125363" x2="475.9999999999984" y2="269.9507641513852" stroke-width="2px" style="stroke: black;"></line><line x1="475.9999999999984" y1="269.9507641513852" x2="476.99999999999835" y2="269.9515615477377" stroke-width="2px" style="stroke: black;"></line><line x1="476.99999999999835" y1="269.9515615477377" x2="477.99999999999835" y2="269.9523458622592" stroke-width="2px" style="stroke: black;"></line><line x1="477.99999999999835" y1="269.9523458622592" x2="478.99999999999835" y2="269.9531173131157" stroke-width="2px" style="stroke: black;"></line><line x1="478.99999999999835" y1="269.9531173131157" x2="479.99999999999835" y2="269.9538761147571" stroke-width="2px" style="stroke: black;"></line><line x1="479.99999999999835" y1="269.9538761147571" x2="480.99999999999824" y2="269.9546224779827" stroke-width="2px" style="stroke: black;"></line><line x1="480.99999999999824" y1="269.9546224779827" x2="481.99999999999824" y2="269.95535661000446" stroke-width="2px" style="stroke: black;"></line><line x1="481.99999999999824" y1="269.95535661000446" x2="482.99999999999824" y2="269.9560787145104" stroke-width="2px" style="stroke: black;"></line><line x1="482.99999999999824" y1="269.9560787145104" x2="483.9999999999982" y2="269.95678899172543" stroke-width="2px" style="stroke: black;"></line><line x1="483.9999999999982" y1="269.95678899172543" x2="484.9999999999982" y2="269.9574876384725" stroke-width="2px" style="stroke: black;"></line><line x1="484.9999999999982" y1="269.9574876384725" x2="485.9999999999982" y2="269.9581748482315" stroke-width="2px" style="stroke: black;"></line><line x1="485.9999999999982" y1="269.9581748482315" x2="486.9999999999982" y2="269.9588508111978" stroke-width="2px" style="stroke: black;"></line><line x1="486.9999999999982" y1="269.9588508111978" x2="487.9999999999981" y2="269.95951571433926" stroke-width="2px" style="stroke: black;"></line><line x1="487.9999999999981" y1="269.95951571433926" x2="488.9999999999981" y2="269.96016974145266" stroke-width="2px" style="stroke: black;"></line><line x1="488.9999999999981" y1="269.96016974145266" x2="489.9999999999981" y2="269.9608130732189" stroke-width="2px" style="stroke: black;"></line><line x1="489.9999999999981" y1="269.9608130732189" x2="490.999999999998" y2="269.96144588725696" stroke-width="2px" style="stroke: black;"></line><line x1="490.999999999998" y1="269.96144588725696" x2="491.999999999998" y2="269.9620683581774" stroke-width="2px" style="stroke: black;"></line><line x1="491.999999999998" y1="269.9620683581774" x2="492.999999999998" y2="269.96268065763456" stroke-width="2px" style="stroke: black;"></line><line x1="492.999999999998" y1="269.96268065763456" x2="493.999999999998" y2="269.9632829543778" stroke-width="2px" style="stroke: black;"></line><line x1="493.999999999998" y1="269.9632829543778" x2="494.99999999999795" y2="269.96387541430187" stroke-width="2px" style="stroke: black;"></line><line x1="494.99999999999795" y1="269.96387541430187" x2="495.99999999999795" y2="269.9644582004968" stroke-width="2px" style="stroke: black;"></line><line x1="495.99999999999795" y1="269.9644582004968" x2="496.99999999999795" y2="269.9650314732958" stroke-width="2px" style="stroke: black;"></line><line x1="496.99999999999795" y1="269.9650314732958" x2="497.9999999999979" y2="269.96559539032404" stroke-width="2px" style="stroke: black;"></line><line x1="497.9999999999979" y1="269.96559539032404" x2="498.9999999999979" y2="269.96615010654443" stroke-width="2px" style="stroke: black;"></line><line x1="498.9999999999979" y1="269.96615010654443" x2="499.9999999999979" y2="269.96669577430447" stroke-width="2px" style="stroke: black;"></line><line x1="100" y1="270" x2="100" y2="271" stroke-width="2px" style="stroke: rgb(0, 85, 255);"></line><line x1="101" y1="270" x2="101" y2="6.283013116608458" stroke-width="2px" style="stroke: rgb(0, 85, 255);"></line><line x1="102" y1="270" x2="102" y2="86.6036179168116" stroke-width="2px" style="stroke: rgb(0, 85, 255);"></line><line x1="103" y1="270" x2="103" y2="122.68251620979623" stroke-width="2px" style="stroke: rgb(0, 85, 255);"></line><line x1="104" y1="270" x2="104" y2="144.465613570516" stroke-width="2px" style="stroke: rgb(0, 85, 255);"></line><line x1="105" y1="270" x2="105" y2="159.5091722646038" stroke-width="2px" style="stroke: rgb(0, 85, 255);"></line><line x1="106" y1="270" x2="106" y2="170.73852267593418" stroke-width="2px" style="stroke: rgb(0, 85, 255);"></line><line x1="107" y1="270" x2="107" y2="179.5578797326882" stroke-width="2px" style="stroke: rgb(0, 85, 255);"></line><line x1="108" y1="270" x2="108" y2="186.73719798149267" stroke-width="2px" style="stroke: rgb(0, 85, 255);"></line><line x1="109" y1="270" x2="109" y2="192.7390314623108" stroke-width="2px" style="stroke: rgb(0, 85, 255);"></line><line x1="110" y1="270" x2="110" y2="197.86048842345593" stroke-width="2px" style="stroke: rgb(0, 85, 255);"></line><line x1="111" y1="270" x2="111" y2="202.3024425408919" stroke-width="2px" style="stroke: rgb(0, 85, 255);"></line><line x1="112" y1="270" x2="112" y2="206.20632721548344" stroke-width="2px" style="stroke: rgb(0, 85, 255);"></line><line x1="113" y1="270" x2="113" y2="209.67506056482551" stroke-width="2px" style="stroke: rgb(0, 85, 255);"></line><line x1="114" y1="270" x2="114" y2="212.78560758829445" stroke-width="2px" style="stroke: rgb(0, 85, 255);"></line><line x1="115" y1="270" x2="115" y2="215.59686499336624" stroke-width="2px" style="stroke: rgb(0, 85, 255);"></line><line x1="116" y1="270" x2="116" y2="218.15479814812468" stroke-width="2px" style="stroke: rgb(0, 85, 255);"></line><line x1="117" y1="270" x2="117" y2="220.49589554866895" stroke-width="2px" style="stroke: rgb(0, 85, 255);"></line><line x1="118.00000000000001" y1="270" x2="118.00000000000001" y2="222.64955612449688" stroke-width="2px" style="stroke: rgb(0, 85, 255);"></line><line x1="119.00000000000001" y1="270" x2="119.00000000000001" y2="224.63977871318295" stroke-width="2px" style="stroke: rgb(0, 85, 255);"></line><line x1="120.00000000000001" y1="270" x2="120.00000000000001" y2="226.48638290518917" stroke-width="2px" style="stroke: rgb(0, 85, 255);"></line><line x1="121.00000000000001" y1="270" x2="121.00000000000001" y2="228.20590771189228" stroke-width="2px" style="stroke: rgb(0, 85, 255);"></line><line x1="122.00000000000001" y1="270" x2="122.00000000000001" y2="229.81228408101728" stroke-width="2px" style="stroke: rgb(0, 85, 255);"></line><line x1="123.00000000000001" y1="270" x2="123.00000000000001" y2="231.31734568073392" stroke-width="2px" style="stroke: rgb(0, 85, 255);"></line><line x1="124.00000000000001" y1="270" x2="124.00000000000001" y2="232.7312220694444" stroke-width="2px" style="stroke: rgb(0, 85, 255);"></line><line x1="125.00000000000001" y1="270" x2="125.00000000000001" y2="234.06264502852045" stroke-width="2px" style="stroke: rgb(0, 85, 255);"></line><line x1="126.00000000000001" y1="270" x2="126.00000000000001" y2="235.31918989252665" stroke-width="2px" style="stroke: rgb(0, 85, 255);"></line><line x1="127.00000000000001" y1="270" x2="127.00000000000001" y2="236.507467605717" stroke-width="2px" style="stroke: rgb(0, 85, 255);"></line><line x1="128.00000000000003" y1="270" x2="128.00000000000003" y2="237.63327899467143" stroke-width="2px" style="stroke: rgb(0, 85, 255);"></line><line x1="129.00000000000003" y1="270" x2="129.00000000000003" y2="238.7017397587676" stroke-width="2px" style="stroke: rgb(0, 85, 255);"></line><line x1="130.00000000000003" y1="270" x2="130.00000000000003" y2="239.7173825439237" stroke-width="2px" style="stroke: rgb(0, 85, 255);"></line><line x1="131.00000000000003" y1="270" x2="131.00000000000003" y2="240.68424091792065" stroke-width="2px" style="stroke: rgb(0, 85, 255);"></line><line x1="132.00000000000003" y1="270" x2="132.00000000000003" y2="241.6059189316386" stroke-width="2px" style="stroke: rgb(0, 85, 255);"></line><line x1="133.00000000000003" y1="270" x2="133.00000000000003" y2="242.4856491100985" stroke-width="2px" style="stroke: rgb(0, 85, 255);"></line><line x1="134.00000000000003" y1="270" x2="134.00000000000003" y2="243.3263410878242" stroke-width="2px" style="stroke: rgb(0, 85, 255);"></line><line x1="135.00000000000003" y1="270" x2="135.00000000000003" y2="244.13062262715187" stroke-width="2px" style="stroke: rgb(0, 85, 255);"></line><line x1="136.00000000000003" y1="270" x2="136.00000000000003" y2="244.90087439501835" stroke-width="2px" style="stroke: rgb(0, 85, 255);"></line><line x1="137.00000000000003" y1="270" x2="137.00000000000003" y2="245.639259594367" stroke-width="2px" style="stroke: rgb(0, 85, 255);"></line><line x1="138.00000000000003" y1="270" x2="138.00000000000003" y2="246.34774932960963" stroke-width="2px" style="stroke: rgb(0, 85, 255);"></line><line x1="139.00000000000003" y1="270" x2="139.00000000000003" y2="247.02814441624434" stroke-width="2px" style="stroke: rgb(0, 85, 255);"></line><line x1="140.00000000000003" y1="270" x2="140.00000000000003" y2="247.6820942114645" stroke-width="2px" style="stroke: rgb(0, 85, 255);"></line><line x1="141.00000000000003" y1="270" x2="141.00000000000003" y2="248.31111293701827" stroke-width="2px" style="stroke: rgb(0, 85, 255);"></line><line x1="142.00000000000003" y1="270" x2="142.00000000000003" y2="248.91659388140909" stroke-width="2px" style="stroke: rgb(0, 85, 255);"></line><line x1="143.00000000000003" y1="270" x2="143.00000000000003" y2="249.49982180102074" stroke-width="2px" style="stroke: rgb(0, 85, 255);"></line><line x1="144.00000000000003" y1="270" x2="144.00000000000003" y2="250.06198378530559" stroke-width="2px" style="stroke: rgb(0, 85, 255);"></line><line x1="145.00000000000003" y1="270" x2="145.00000000000003" y2="250.60417880702" stroke-width="2px" style="stroke: rgb(0, 85, 255);"></line><line x1="146.00000000000003" y1="270" x2="146.00000000000003" y2="251.1274261425045" stroke-width="2px" style="stroke: rgb(0, 85, 255);"></line><line x1="147.00000000000003" y1="270" x2="147.00000000000003" y2="251.63267281752863" stroke-width="2px" style="stroke: rgb(0, 85, 255);"></line><line x1="148.00000000000003" y1="270" x2="148.00000000000003" y2="252.12080020996544" stroke-width="2px" style="stroke: rgb(0, 85, 255);"></line><line x1="149.00000000000003" y1="270" x2="149.00000000000003" y2="252.59262992051185" stroke-width="2px" style="stroke: rgb(0, 85, 255);"></line><line x1="150.00000000000003" y1="270" x2="150.00000000000003" y2="253.04892900603025" stroke-width="2px" style="stroke: rgb(0, 85, 255);"></line><line x1="151.00000000000003" y1="270" x2="151.00000000000003" y2="253.49041465621605" stroke-width="2px" style="stroke: rgb(0, 85, 255);"></line><line x1="152.00000000000003" y1="270" x2="152.00000000000003" y2="253.91775838269388" stroke-width="2px" style="stroke: rgb(0, 85, 255);"></line><line x1="153.00000000000003" y1="270" x2="153.00000000000003" y2="254.3315897798975" stroke-width="2px" style="stroke: rgb(0, 85, 255);"></line><line x1="154.00000000000003" y1="270" x2="154.00000000000003" y2="254.73249990887717" stroke-width="2px" style="stroke: rgb(0, 85, 255);"></line><line x1="155.00000000000003" y1="270" x2="155.00000000000003" y2="255.1210443482309" stroke-width="2px" style="stroke: rgb(0, 85, 255);"></line><line x1="156.00000000000003" y1="270" x2="156.00000000000003" y2="255.49774595046375" stroke-width="2px" style="stroke: rgb(0, 85, 255);"></line><line x1="157.00000000000006" y1="270" x2="157.00000000000006" y2="255.8630973370611" stroke-width="2px" style="stroke: rgb(0, 85, 255);"></line><line x1="158.00000000000006" y1="270" x2="158.00000000000006" y2="256.21756316128034" stroke-width="2px" style="stroke: rgb(0, 85, 255);"></line><line x1="159.00000000000006" y1="270" x2="159.00000000000006" y2="256.5615821639972" stroke-width="2px" style="stroke: rgb(0, 85, 255);"></line><line x1="160.00000000000006" y1="270" x2="160.00000000000006" y2="256.89556904479275" stroke-width="2px" style="stroke: rgb(0, 85, 255);"></line><line x1="161.00000000000006" y1="270" x2="161.00000000000006" y2="257.2199161677577" stroke-width="2px" style="stroke: rgb(0, 85, 255);"></line><line x1="162.00000000000006" y1="270" x2="162.00000000000006" y2="257.5349951191445" stroke-width="2px" style="stroke: rgb(0, 85, 255);"></line><line x1="163.00000000000006" y1="270" x2="163.00000000000006" y2="257.841158131978" stroke-width="2px" style="stroke: rgb(0, 85, 255);"></line><line x1="164.00000000000006" y1="270" x2="164.00000000000006" y2="258.1387393909698" stroke-width="2px" style="stroke: rgb(0, 85, 255);"></line><line x1="165.00000000000006" y1="270" x2="165.00000000000006" y2="258.42805622955825" stroke-width="2px" style="stroke: rgb(0, 85, 255);"></line><line x1="166.00000000000006" y1="270" x2="166.00000000000006" y2="258.7094102295584" stroke-width="2px" style="stroke: rgb(0, 85, 255);"></line><line x1="167.00000000000006" y1="270" x2="167.00000000000006" y2="258.98308823274385" stroke-width="2px" style="stroke: rgb(0, 85, 255);"></line><line x1="168.00000000000006" y1="270" x2="168.00000000000006" y2="259.2493632726624" stroke-width="2px" style="stroke: rgb(0, 85, 255);"></line><line x1="169.00000000000006" y1="270" x2="169.00000000000006" y2="259.5084954340907" stroke-width="2px" style="stroke: rgb(0, 85, 255);"></line><line x1="170.00000000000003" y1="270" x2="170.00000000000003" y2="259.7607326467491" stroke-width="2px" style="stroke: rgb(0, 85, 255);"></line><line x1="171.00000000000003" y1="270" x2="171.00000000000003" y2="260.0063114192022" stroke-width="2px" style="stroke: rgb(0, 85, 255);"></line><line x1="172" y1="270" x2="172" y2="260.2454575182614" stroke-width="2px" style="stroke: rgb(0, 85, 255);"></line><line x1="173" y1="270" x2="173" y2="260.4783865986626" stroke-width="2px" style="stroke: rgb(0, 85, 255);"></line><line x1="174" y1="270" x2="174" y2="260.7053047873142" stroke-width="2px" style="stroke: rgb(0, 85, 255);"></line><line x1="175" y1="270" x2="175" y2="260.9264092259862" stroke-width="2px" style="stroke: rgb(0, 85, 255);"></line><line x1="176" y1="270" x2="176" y2="261.14188857593103" stroke-width="2px" style="stroke: rgb(0, 85, 255);"></line><line x1="177" y1="270" x2="177" y2="261.351923487593" stroke-width="2px" style="stroke: rgb(0, 85, 255);"></line><line x1="178" y1="270" x2="178" y2="261.5566870382608" stroke-width="2px" style="stroke: rgb(0, 85, 255);"></line><line x1="178.99999999999997" y1="270" x2="178.99999999999997" y2="261.7563451402509" stroke-width="2px" style="stroke: rgb(0, 85, 255);"></line><line x1="179.99999999999997" y1="270" x2="179.99999999999997" y2="261.9510569219697" stroke-width="2px" style="stroke: rgb(0, 85, 255);"></line><line x1="180.99999999999994" y1="270" x2="180.99999999999994" y2="262.14097508398714" stroke-width="2px" style="stroke: rgb(0, 85, 255);"></line><line x1="181.99999999999994" y1="270" x2="181.99999999999994" y2="262.32624623206215" stroke-width="2px" style="stroke: rgb(0, 85, 255);"></line><line x1="182.99999999999994" y1="270" x2="182.99999999999994" y2="262.5070111888874" stroke-width="2px" style="stroke: rgb(0, 85, 255);"></line><line x1="183.99999999999994" y1="270" x2="183.99999999999994" y2="262.68340528616415" stroke-width="2px" style="stroke: rgb(0, 85, 255);"></line><line x1="184.99999999999994" y1="270" x2="184.99999999999994" y2="262.85555863847867" stroke-width="2px" style="stroke: rgb(0, 85, 255);"></line><line x1="185.99999999999994" y1="270" x2="185.99999999999994" y2="263.0235964003255" stroke-width="2px" style="stroke: rgb(0, 85, 255);"></line><line x1="186.99999999999994" y1="270" x2="186.99999999999994" y2="263.1876390075066" stroke-width="2px" style="stroke: rgb(0, 85, 255);"></line><line x1="187.99999999999994" y1="270" x2="187.99999999999994" y2="263.34780240403416" stroke-width="2px" style="stroke: rgb(0, 85, 255);"></line><line x1="188.9999999999999" y1="270" x2="188.9999999999999" y2="263.5041982555705" stroke-width="2px" style="stroke: rgb(0, 85, 255);"></line><line x1="189.9999999999999" y1="270" x2="189.9999999999999" y2="263.65693415035315" stroke-width="2px" style="stroke: rgb(0, 85, 255);"></line><line x1="190.9999999999999" y1="270" x2="190.9999999999999" y2="263.8061137884771" stroke-width="2px" style="stroke: rgb(0, 85, 255);"></line><line x1="191.9999999999999" y1="270" x2="191.9999999999999" y2="263.9518371603356" stroke-width="2px" style="stroke: rgb(0, 85, 255);"></line><line x1="192.9999999999999" y1="270" x2="192.9999999999999" y2="264.09420071495776" stroke-width="2px" style="stroke: rgb(0, 85, 255);"></line><line x1="193.9999999999999" y1="270" x2="193.9999999999999" y2="264.2332975189227" stroke-width="2px" style="stroke: rgb(0, 85, 255);"></line><line x1="194.9999999999999" y1="270" x2="194.9999999999999" y2="264.3692174064781" stroke-width="2px" style="stroke: rgb(0, 85, 255);"></line><line x1="195.9999999999999" y1="270" x2="195.9999999999999" y2="264.50204712144176" stroke-width="2px" style="stroke: rgb(0, 85, 255);"></line><line x1="196.99999999999983" y1="270" x2="196.99999999999983" y2="264.6318704514214" stroke-width="2px" style="stroke: rgb(0, 85, 255);"></line><line x1="197.99999999999983" y1="270" x2="197.99999999999983" y2="264.75876835484826" stroke-width="2px" style="stroke: rgb(0, 85, 255);"></line><line x1="198.99999999999983" y1="270" x2="198.99999999999983" y2="264.8828190812816" stroke-width="2px" style="stroke: rgb(0, 85, 255);"></line><line x1="199.99999999999983" y1="270" x2="199.99999999999983" y2="265.00409828540893" stroke-width="2px" style="stroke: rgb(0, 85, 255);"></line><line x1="200.99999999999983" y1="270" x2="200.99999999999983" y2="265.1226791351361" stroke-width="2px" style="stroke: rgb(0, 85, 255);"></line><line x1="201.99999999999983" y1="270" x2="201.99999999999983" y2="265.2386324141306" stroke-width="2px" style="stroke: rgb(0, 85, 255);"></line><line x1="202.99999999999983" y1="270" x2="202.99999999999983" y2="265.35202661915946" stroke-width="2px" style="stroke: rgb(0, 85, 255);"></line><line x1="203.99999999999983" y1="270" x2="203.99999999999983" y2="265.46292805253444" stroke-width="2px" style="stroke: rgb(0, 85, 255);"></line><line x1="204.99999999999983" y1="270" x2="204.99999999999983" y2="265.57140090995927" stroke-width="2px" style="stroke: rgb(0, 85, 255);"></line><line x1="205.99999999999977" y1="270" x2="205.99999999999977" y2="265.6775073640508" stroke-width="2px" style="stroke: rgb(0, 85, 255);"></line><line x1="206.99999999999977" y1="270" x2="206.99999999999977" y2="265.78130764378824" stroke-width="2px" style="stroke: rgb(0, 85, 255);"></line><line x1="207.99999999999977" y1="270" x2="207.99999999999977" y2="265.8828601101272" stroke-width="2px" style="stroke: rgb(0, 85, 255);"></line><line x1="208.99999999999977" y1="270" x2="208.99999999999977" y2="265.98222132799964" stroke-width="2px" style="stroke: rgb(0, 85, 255);"></line><line x1="209.99999999999977" y1="270" x2="209.99999999999977" y2="266.07944613490525" stroke-width="2px" style="stroke: rgb(0, 85, 255);"></line><line x1="210.99999999999977" y1="270" x2="210.99999999999977" y2="266.1745877062872" stroke-width="2px" style="stroke: rgb(0, 85, 255);"></line><line x1="211.99999999999977" y1="270" x2="211.99999999999977" y2="266.26769761787205" stroke-width="2px" style="stroke: rgb(0, 85, 255);"></line><line x1="212.99999999999977" y1="270" x2="212.99999999999977" y2="266.3588259051417" stroke-width="2px" style="stroke: rgb(0, 85, 255);"></line><line x1="213.99999999999977" y1="270" x2="213.99999999999977" y2="266.44802112009575" stroke-width="2px" style="stroke: rgb(0, 85, 255);"></line><line x1="214.99999999999972" y1="270" x2="214.99999999999972" y2="266.53533038545004" stroke-width="2px" style="stroke: rgb(0, 85, 255);"></line><line x1="215.99999999999972" y1="270" x2="215.99999999999972" y2="266.62079944641124" stroke-width="2px" style="stroke: rgb(0, 85, 255);"></line><line x1="216.99999999999972" y1="270" x2="216.99999999999972" y2="266.7044727201558" stroke-width="2px" style="stroke: rgb(0, 85, 255);"></line><line x1="217.99999999999972" y1="270" x2="217.99999999999972" y2="266.78639334313544" stroke-width="2px" style="stroke: rgb(0, 85, 255);"></line><line x1="218.99999999999972" y1="270" x2="218.99999999999972" y2="266.86660321632195" stroke-width="2px" style="stroke: rgb(0, 85, 255);"></line><line x1="219.99999999999972" y1="270" x2="219.99999999999972" y2="266.9451430485005" stroke-width="2px" style="stroke: rgb(0, 85, 255);"></line><line x1="220.99999999999972" y1="270" x2="220.99999999999972" y2="267.02205239770973" stroke-width="2px" style="stroke: rgb(0, 85, 255);"></line><line x1="221.99999999999972" y1="270" x2="221.99999999999972" y2="267.0973697109247" stroke-width="2px" style="stroke: rgb(0, 85, 255);"></line><line x1="222.99999999999972" y1="270" x2="222.99999999999972" y2="267.1711323620712" stroke-width="2px" style="stroke: rgb(0, 85, 255);"></line><line x1="223.99999999999966" y1="270" x2="223.99999999999966" y2="267.24337668845544" stroke-width="2px" style="stroke: rgb(0, 85, 255);"></line><line x1="224.99999999999966" y1="270" x2="224.99999999999966" y2="267.3141380256869" stroke-width="2px" style="stroke: rgb(0, 85, 255);"></line><line x1="225.99999999999966" y1="270" x2="225.99999999999966" y2="267.38345074117063" stroke-width="2px" style="stroke: rgb(0, 85, 255);"></line><line x1="226.99999999999966" y1="270" x2="226.99999999999966" y2="267.451348266237" stroke-width="2px" style="stroke: rgb(0, 85, 255);"></line><line x1="227.99999999999966" y1="270" x2="227.99999999999966" y2="267.51786312697624" stroke-width="2px" style="stroke: rgb(0, 85, 255);"></line><text x="100" y="310" style="font-family: sans-serif; font-size: 9pt; stroke: rgb(0, 85, 255); text-anchor: middle;">0.000</text><text x="228.04862735647228" y="310" style="font-family: sans-serif; font-size: 9pt; stroke: rgb(0, 85, 255); text-anchor: middle;">3.841</text><text x="164.02431367823613" y="310" style="font-family: sans-serif; font-size: 9pt; stroke: rgb(0, 85, 255); text-anchor: middle;">&lt;- Accept H₀ -&gt;</text><text x="278.04862735647225" y="310" style="font-family: sans-serif; font-size: 9pt; stroke: red; text-anchor: middle;">&lt;- Reject H₀</text><text x="278.04862735647225" y="250" style="font-family: sans-serif; font-size: 9pt; stroke: red; text-anchor: middle;">0.050</text><line x1="530" y1="270" x2="530" y2="330" stroke-width="2px" style="stroke: green;"></line><text x="530" y="345" style="font-family: sans-serif; font-size: 9pt; stroke: green; text-anchor: middle;">[TestStat] = 16.667</text><text x="530" y="360" style="font-family: sans-serif; font-size: 9pt; stroke: green; text-anchor: middle;">p-value = &lt; 0.0001</text><text x="300" y="380" style="font-family: sans-serif; font-size: 9pt; stroke: red; text-anchor: middle;">[Decision] Reject H₀</text></svg>