<svg xmlns="http://www.w3.org/2000/svg" id="chart" width="600" height="400"> <text x="290" y="45" style="font-family: sans-serif; font-size: 12pt; stroke: black; text-anchor: middle;">Friedman Test</text><text x="290" y="60" style="font-family: sans-serif; font-size: 9pt; stroke: black; text-anchor: middle;">H₀: M₁ = M₂ = ... = Mₖ </text><text x="290" y="75" style="font-family: sans-serif; font-size: 9pt; stroke: green; text-anchor: middle;">Friedman S Statistic</text><g transform="translate(100,90)" fill="none" font-size="10" font-family="sans-serif" text-anchor="end"><path class="domain" stroke="#000" d="M-6,0.5H0.5V220.5H-6"></path><g class="tick" opacity="1" transform="translate(0,10.852941176470608)"><line stroke="#000" x2="-6"></line><text fill="#000" x="-9" dy="0.32em">0.30</text></g><g class="tick" opacity="1" transform="translate(0,24.829411764705867)"><line stroke="#000" x2="-6"></line><text fill="#000" x="-9" dy="0.32em">0.28</text></g><g class="tick" opacity="1" transform="translate(0,38.805882352941154)"><line stroke="#000" x2="-6"></line><text fill="#000" x="-9" dy="0.32em">0.26</text></g><g class="tick" opacity="1" transform="translate(0,52.78235294117647)"><line stroke="#000" x2="-6"></line><text fill="#000" x="-9" dy="0.32em">0.24</text></g><g class="tick" opacity="1" transform="translate(0,66.75882352941176)"><line stroke="#000" x2="-6"></line><text fill="#000" x="-9" dy="0.32em">0.22</text></g><g class="tick" opacity="1" transform="translate(0,80.73529411764707)"><line stroke="#000" x2="-6"></line><text fill="#000" x="-9" dy="0.32em">0.20</text></g><g class="tick" opacity="1" transform="translate(0,94.71176470588235)"><line stroke="#000" x2="-6"></line><text fill="#000" x="-9" dy="0.32em">0.18</text></g><g class="tick" opacity="1" transform="translate(0,108.68823529411766)"><line stroke="#000" x2="-6"></line><text fill="#000" x="-9" dy="0.32em">0.16</text></g><g class="tick" opacity="1" transform="translate(0,122.66470588235293)"><line stroke="#000" x2="-6"></line><text fill="#000" x="-9" dy="0.32em">0.14</text></g><g class="tick" opacity="1" transform="translate(0,136.64117647058822)"><line stroke="#000" x2="-6"></line><text fill="#000" x="-9" dy="0.32em">0.12</text></g><g class="tick" opacity="1" transform="translate(0,150.61764705882354)"><line stroke="#000" x2="-6"></line><text fill="#000" x="-9" dy="0.32em">0.10</text></g><g class="tick" opacity="1" transform="translate(0,164.59411764705882)"><line stroke="#000" x2="-6"></line><text fill="#000" x="-9" dy="0.32em">0.08</text></g><g class="tick" opacity="1" transform="translate(0,178.5705882352941)"><line stroke="#000" x2="-6"></line><text fill="#000" x="-9" dy="0.32em">0.06</text></g><g class="tick" opacity="1" transform="translate(0,192.54705882352943)"><line stroke="#000" x2="-6"></line><text fill="#000" x="-9" dy="0.32em">0.04</text></g><g class="tick" opacity="1" transform="translate(0,206.5235294117647)"><line stroke="#000" x2="-6"></line><text fill="#000" x="-9" dy="0.32em">0.02</text></g><g class="tick" opacity="1" transform="translate(0,220.5)"><line stroke="#000" x2="-6"></line><text fill="#000" x="-9" dy="0.32em">0.00</text></g></g><line x1="100" y1="310" x2="480" y2="310" style="stroke: black;"></line><text class="barname" x="112.83333333333333" y="330" transform="rotate(30,112.83333333333333,330)  " style="font-family: sans-serif; font-size: 8pt; text-anchor: middle;">0.000</text><text class="barname" x="144.5" y="330" transform="rotate(30,144.5,330)  " style="font-family: sans-serif; font-size: 8pt; text-anchor: middle;">0.400</text><text class="barname" x="176.16666666666666" y="330" transform="rotate(30,176.16666666666666,330)  " style="font-family: sans-serif; font-size: 8pt; text-anchor: middle;">1.200</text><text class="barname" x="207.83333333333331" y="330" transform="rotate(30,207.83333333333331,330)  " style="font-family: sans-serif; font-size: 8pt; text-anchor: middle;">1.600</text><text class="barname" x="239.5" y="330" transform="rotate(30,239.5,330)  " style="font-family: sans-serif; font-size: 8pt; text-anchor: middle;">2.800</text><text class="barname" x="271.1666666666667" y="330" transform="rotate(30,271.1666666666667,330)  " style="font-family: sans-serif; font-size: 8pt; text-anchor: middle;">3.600</text><text class="barname" x="302.8333333333333" y="330" transform="rotate(30,302.8333333333333,330)  " style="font-family: sans-serif; font-size: 8pt; text-anchor: middle;">4.800</text><text class="barname" x="334.5" y="330" transform="rotate(30,334.5,330)  " style="font-family: sans-serif; font-size: 8pt; text-anchor: middle;">5.200</text><text class="barname" x="366.1666666666667" y="330" transform="rotate(30,366.1666666666667,330)  " style="font-family: sans-serif; font-size: 8pt; text-anchor: middle;">6.400</text><text class="barname" x="397.8333333333333" y="330" transform="rotate(30,397.8333333333333,330)  " style="font-family: sans-serif; font-size: 8pt; text-anchor: middle;">7.600</text><text class="barname" x="429.5" y="330" transform="rotate(30,429.5,330)  " style="font-family: sans-serif; font-size: 8pt; text-anchor: middle;">8.400</text><text class="barname" x="461.1666666666667" y="330" transform="rotate(30,461.1666666666667,330)  " style="font-family: sans-serif; font-size: 8pt; text-anchor: middle;">10.000</text><rect height="32.35294117647058" width="21.11111111111111" x="105.27777777777777" y="277.6470588235294" style="fill: rgb(0, 85, 255);"></rect><rect height="183.33333333333331" width="21.11111111111111" x="136.94444444444443" y="126.66666666666669" style="fill: rgb(0, 85, 255);"></rect><rect height="118.62745098039215" width="21.11111111111111" x="168.61111111111111" y="191.37254901960785" style="fill: rgb(0, 85, 255);"></rect><rect height="107.84313725490195" width="21.11111111111111" x="200.27777777777777" y="202.15686274509807" style="fill: rgb(0, 85, 255);"></rect><rect height="129.41176470588232" width="21.11111111111111" x="231.94444444444446" y="180.58823529411768" style="fill: rgb(0, 85, 255);"></rect><rect height="40.44117647058823" width="21.11111111111111" x="263.6111111111111" y="269.55882352941177" style="fill: rgb(0, 85, 255);"></rect><rect height="21.56862745098039" width="21.11111111111111" x="295.27777777777777" y="288.4313725490196" style="fill: rgb(0, 85, 255);"></rect><rect height="37.745098039215684" width="21.11111111111111" x="326.94444444444446" y="272.2549019607843" style="fill: rgb(0, 85, 255);"></rect><rect height="10.784313725490195" width="21.11111111111111" x="358.6111111111111" y="299.2156862745098" style="fill: rgb(0, 85, 255);"></rect><rect height="10.784313725490195" width="21.11111111111111" x="390.27777777777777" y="299.2156862745098" style="fill: rgb(0, 85, 255);"></rect><rect height="5.3921568627450975" width="21.11111111111111" x="421.94444444444446" y="304.6078431372549" style="fill: rgb(0, 85, 255);"></rect><rect height="0.5392156862745098" width="21.11111111111111" x="453.61111111111114" y="309.46078431372547" style="fill: rgb(0, 85, 255);"></rect><line x1="464.1666666666667" y1="110" x2="464.1666666666667" y2="355" style="stroke: green; stroke-width: 2px;"></line><text x="464.1666666666667" y="370" style="font-size: 9pt; stroke: green; text-anchor: middle;">S = 10.000</text><text x="459.1666666666667" y="385" style="font-size: 9pt; stroke: green; text-anchor: end;">P(X ≤ S) = 1.0000</text><text x="469.1666666666667" y="385" style="font-size: 9pt; stroke: green; text-anchor: start;">P(X ≥ S) = 0.0008</text><line x1="337.5" y1="220" x2="337.5" y2="340" style="stroke: red; stroke-width: 1px;"></line><text x="337.5" y="350" style="font-size: 9pt; stroke: red; text-anchor: middle;">5.200</text><text x="342.5" y="290" style="font-size: 9pt; stroke: red; text-anchor: start;">0.0934</text></svg>