<svg xmlns="http://www.w3.org/2000/svg" id="chart" width="600" height="400"> <text x="300" y="30" style="font-family: sans-serif; font-size: 12pt; stroke: black; text-anchor: middle;">H₀: Observed Dist~Theoretical Dist H₁: Observed Dist≠Theoretical Dist</text><text x="300" y="60" style="font-family: sans-serif; font-size: 9pt; stroke: green; text-anchor: middle;">[TestStat] = Σ (Oi - Ei)² / Ei  ~  χ²(2) Distribution</text><g transform="translate(100,270)" fill="none" font-size="10" font-family="sans-serif" text-anchor="middle"><path class="domain" stroke="#000" d="M0.5,6V0.5H400.5V6"></path><g class="tick" opacity="1" transform="translate(0.5,0)"><line stroke="#000" y2="6"></line><text fill="#000" y="9" dy="0.71em">0</text></g><g class="tick" opacity="1" transform="translate(33.83333333333333,0)"><line stroke="#000" y2="6"></line><text fill="#000" y="9" dy="0.71em">1</text></g><g class="tick" opacity="1" transform="translate(67.16666666666666,0)"><line stroke="#000" y2="6"></line><text fill="#000" y="9" dy="0.71em">2</text></g><g class="tick" opacity="1" transform="translate(100.5,0)"><line stroke="#000" y2="6"></line><text fill="#000" y="9" dy="0.71em">3</text></g><g class="tick" opacity="1" transform="translate(133.83333333333331,0)"><line stroke="#000" y2="6"></line><text fill="#000" y="9" dy="0.71em">4</text></g><g class="tick" opacity="1" transform="translate(167.16666666666669,0)"><line stroke="#000" y2="6"></line><text fill="#000" y="9" dy="0.71em">5</text></g><g class="tick" opacity="1" transform="translate(200.5,0)"><line stroke="#000" y2="6"></line><text fill="#000" y="9" dy="0.71em">6</text></g><g class="tick" opacity="1" transform="translate(233.83333333333334,0)"><line stroke="#000" y2="6"></line><text fill="#000" y="9" dy="0.71em">7</text></g><g class="tick" opacity="1" transform="translate(267.16666666666663,0)"><line stroke="#000" y2="6"></line><text fill="#000" y="9" dy="0.71em">8</text></g><g class="tick" opacity="1" transform="translate(300.5,0)"><line stroke="#000" y2="6"></line><text fill="#000" y="9" dy="0.71em">9</text></g><g class="tick" opacity="1" transform="translate(333.83333333333337,0)"><line stroke="#000" y2="6"></line><text fill="#000" y="9" dy="0.71em">10</text></g><g class="tick" opacity="1" transform="translate(367.16666666666663,0)"><line stroke="#000" y2="6"></line><text fill="#000" y="9" dy="0.71em">11</text></g><g class="tick" opacity="1" transform="translate(400.5,0)"><line stroke="#000" y2="6"></line><text fill="#000" y="9" dy="0.71em">12</text></g></g><g transform="translate(100,60)" fill="none" font-size="10" font-family="sans-serif" text-anchor="end"><path class="domain" stroke="#000" d="M-6,0.5H0.5V210.5H-6"></path><g class="tick" opacity="1" transform="translate(0,6.333333333333343)"><line stroke="#000" x2="-6"></line><text fill="#000" x="-9" dy="0.32em">0.7</text></g><g class="tick" opacity="1" transform="translate(0,35.5)"><line stroke="#000" x2="-6"></line><text fill="#000" x="-9" dy="0.32em">0.6</text></g><g class="tick" opacity="1" transform="translate(0,64.66666666666669)"><line stroke="#000" x2="-6"></line><text fill="#000" x="-9" dy="0.32em">0.5</text></g><g class="tick" opacity="1" transform="translate(0,93.83333333333333)"><line stroke="#000" x2="-6"></line><text fill="#000" x="-9" dy="0.32em">0.4</text></g><g class="tick" opacity="1" transform="translate(0,123)"><line stroke="#000" x2="-6"></line><text fill="#000" x="-9" dy="0.32em">0.3</text></g><g class="tick" opacity="1" transform="translate(0,152.16666666666666)"><line stroke="#000" x2="-6"></line><text fill="#000" x="-9" dy="0.32em">0.2</text></g><g class="tick" opacity="1" transform="translate(0,181.33333333333334)"><line stroke="#000" x2="-6"></line><text fill="#000" x="-9" dy="0.32em">0.1</text></g><g class="tick" opacity="1" transform="translate(0,210.5)"><line stroke="#000" x2="-6"></line><text fill="#000" x="-9" dy="0.32em">0.0</text></g></g><line x1="100" y1="270" x2="101" y2="126.33784214122014" stroke-width="2px" style="stroke: black;"></line><line x1="101" y1="126.33784214122014" x2="102" y2="128.47669302417597" stroke-width="2px" style="stroke: black;"></line><line x1="102" y1="128.47669302417597" x2="103" y2="130.58370056600634" stroke-width="2px" style="stroke: black;"></line><line x1="103" y1="130.58370056600634" x2="104" y2="132.65933885229714" stroke-width="2px" style="stroke: black;"></line><line x1="104" y1="132.65933885229714" x2="105" y2="134.70407491041945" stroke-width="2px" style="stroke: black;"></line><line x1="105" y1="134.70407491041945" x2="106" y2="136.71836881461263" stroke-width="2px" style="stroke: black;"></line><line x1="106" y1="136.71836881461263" x2="107" y2="138.702673789503" stroke-width="2px" style="stroke: black;"></line><line x1="107" y1="138.702673789503" x2="108" y2="140.65743631208127" stroke-width="2px" style="stroke: black;"></line><line x1="108" y1="140.65743631208127" x2="109" y2="142.58309621216173" stroke-width="2px" style="stroke: black;"></line><line x1="109" y1="142.58309621216173" x2="110" y2="144.4800867713458" stroke-width="2px" style="stroke: black;"></line><line x1="110" y1="144.4800867713458" x2="111" y2="146.34883482051234" stroke-width="2px" style="stroke: black;"></line><line x1="111" y1="146.34883482051234" x2="112" y2="148.18976083585625" stroke-width="2px" style="stroke: black;"></line><line x1="112" y1="148.18976083585625" x2="113" y2="150.00327903349742" stroke-width="2px" style="stroke: black;"></line><line x1="113" y1="150.00327903349742" x2="114" y2="151.78979746268112" stroke-width="2px" style="stroke: black;"></line><line x1="114" y1="151.78979746268112" x2="115" y2="153.54971809759093" stroke-width="2px" style="stroke: black;"></line><line x1="115" y1="153.54971809759093" x2="116" y2="155.28343692779436" stroke-width="2px" style="stroke: black;"></line><line x1="116" y1="155.28343692779436" x2="117" y2="156.99134404734247" stroke-width="2px" style="stroke: black;"></line><line x1="117" y1="156.99134404734247" x2="118.00000000000001" y2="158.6738237425423" stroke-width="2px" style="stroke: black;"></line><line x1="118.00000000000001" y1="158.6738237425423" x2="119.00000000000001" y2="160.33125457842345" stroke-width="2px" style="stroke: black;"></line><line x1="119.00000000000001" y1="160.33125457842345" x2="120.00000000000001" y2="161.96400948391621" stroke-width="2px" style="stroke: black;"></line><line x1="120.00000000000001" y1="161.96400948391621" x2="121.00000000000001" y2="163.57245583576258" stroke-width="2px" style="stroke: black;"></line><line x1="121.00000000000001" y1="163.57245583576258" x2="122.00000000000001" y2="165.1569555411775" stroke-width="2px" style="stroke: black;"></line><line x1="122.00000000000001" y1="165.1569555411775" x2="123.00000000000001" y2="166.71786511927928" stroke-width="2px" style="stroke: black;"></line><line x1="123.00000000000001" y1="166.71786511927928" x2="124.00000000000001" y2="168.25553578130805" stroke-width="2px" style="stroke: black;"></line><line x1="124.00000000000001" y1="168.25553578130805" x2="125.00000000000001" y2="169.77031350964995" stroke-width="2px" style="stroke: black;"></line><line x1="125.00000000000001" y1="169.77031350964995" x2="126.00000000000001" y2="171.2625391356844" stroke-width="2px" style="stroke: black;"></line><line x1="126.00000000000001" y1="171.2625391356844" x2="127.00000000000001" y2="172.73254841647258" stroke-width="2px" style="stroke: black;"></line><line x1="127.00000000000001" y1="172.73254841647258" x2="128.00000000000003" y2="174.1806721103043" stroke-width="2px" style="stroke: black;"></line><line x1="128.00000000000003" y1="174.1806721103043" x2="129.00000000000003" y2="175.60723605112003" stroke-width="2px" style="stroke: black;"></line><line x1="129.00000000000003" y1="175.60723605112003" x2="130.00000000000003" y2="177.0125612218248" stroke-width="2px" style="stroke: black;"></line><line x1="130.00000000000003" y1="177.0125612218248" x2="131.00000000000003" y2="178.39696382651078" stroke-width="2px" style="stroke: black;"></line><line x1="131.00000000000003" y1="178.39696382651078" x2="132.00000000000003" y2="179.76075536160454" stroke-width="2px" style="stroke: black;"></line><line x1="132.00000000000003" y1="179.76075536160454" x2="133.00000000000003" y2="181.10424268595494" stroke-width="2px" style="stroke: black;"></line><line x1="133.00000000000003" y1="181.10424268595494" x2="134.00000000000003" y2="182.42772808987797" stroke-width="2px" style="stroke: black;"></line><line x1="134.00000000000003" y1="182.42772808987797" x2="135.00000000000003" y2="183.7315093631729" stroke-width="2px" style="stroke: black;"></line><line x1="135.00000000000003" y1="183.7315093631729" x2="136.00000000000003" y2="185.0158798621266" stroke-width="2px" style="stroke: black;"></line><line x1="136.00000000000003" y1="185.0158798621266" x2="137.00000000000003" y2="186.28112857551983" stroke-width="2px" style="stroke: black;"></line><line x1="137.00000000000003" y1="186.28112857551983" x2="138.00000000000003" y2="187.52754018965092" stroke-width="2px" style="stroke: black;"></line><line x1="138.00000000000003" y1="187.52754018965092" x2="139.00000000000003" y2="188.7553951523914" stroke-width="2px" style="stroke: black;"></line><line x1="139.00000000000003" y1="188.7553951523914" x2="140.00000000000003" y2="189.9649697362879" stroke-width="2px" style="stroke: black;"></line><line x1="140.00000000000003" y1="189.9649697362879" x2="141.00000000000003" y2="191.15653610072474" stroke-width="2px" style="stroke: black;"></line><line x1="141.00000000000003" y1="191.15653610072474" x2="142.00000000000003" y2="192.33036235316092" stroke-width="2px" style="stroke: black;"></line><line x1="142.00000000000003" y1="192.33036235316092" x2="143.00000000000003" y2="193.4867126094553" stroke-width="2px" style="stroke: black;"></line><line x1="143.00000000000003" y1="193.4867126094553" x2="144.00000000000003" y2="194.62584705329397" stroke-width="2px" style="stroke: black;"></line><line x1="144.00000000000003" y1="194.62584705329397" x2="145.00000000000003" y2="195.74802199473248" stroke-width="2px" style="stroke: black;"></line><line x1="145.00000000000003" y1="195.74802199473248" x2="146.00000000000003" y2="196.85348992786697" stroke-width="2px" style="stroke: black;"></line><line x1="146.00000000000003" y1="196.85348992786697" x2="147.00000000000003" y2="197.9424995876461" stroke-width="2px" style="stroke: black;"></line><line x1="147.00000000000003" y1="197.9424995876461" x2="148.00000000000003" y2="199.01529600583754" stroke-width="2px" style="stroke: black;"></line><line x1="148.00000000000003" y1="199.01529600583754" x2="149.00000000000003" y2="200.07212056616135" stroke-width="2px" style="stroke: black;"></line><line x1="149.00000000000003" y1="200.07212056616135" x2="150.00000000000003" y2="201.1132110586021" stroke-width="2px" style="stroke: black;"></line><line x1="150.00000000000003" y1="201.1132110586021" x2="151.00000000000003" y2="202.13880173291273" stroke-width="2px" style="stroke: black;"></line><line x1="151.00000000000003" y1="202.13880173291273" x2="152.00000000000003" y2="203.14912335132163" stroke-width="2px" style="stroke: black;"></line><line x1="152.00000000000003" y1="203.14912335132163" x2="153.00000000000003" y2="204.14440324045535" stroke-width="2px" style="stroke: black;"></line><line x1="153.00000000000003" y1="204.14440324045535" x2="154.00000000000003" y2="205.12486534248785" stroke-width="2px" style="stroke: black;"></line><line x1="154.00000000000003" y1="205.12486534248785" x2="155.00000000000003" y2="206.09073026552832" stroke-width="2px" style="stroke: black;"></line><line x1="155.00000000000003" y1="206.09073026552832" x2="156.00000000000003" y2="207.0422153332593" stroke-width="2px" style="stroke: black;"></line><line x1="156.00000000000003" y1="207.0422153332593" x2="157.00000000000006" y2="207.9795346338351" stroke-width="2px" style="stroke: black;"></line><line x1="157.00000000000006" y1="207.9795346338351" x2="158.00000000000006" y2="208.90289906805273" stroke-width="2px" style="stroke: black;"></line><line x1="158.00000000000006" y1="208.90289906805273" x2="159.00000000000006" y2="209.81251639680534" stroke-width="2px" style="stroke: black;"></line><line x1="159.00000000000006" y1="209.81251639680534" x2="160.00000000000006" y2="210.7085912878294" stroke-width="2px" style="stroke: black;"></line><line x1="160.00000000000006" y1="210.7085912878294" x2="161.00000000000006" y2="211.59132536175565" stroke-width="2px" style="stroke: black;"></line><line x1="161.00000000000006" y1="211.59132536175565" x2="162.00000000000006" y2="212.46091723747492" stroke-width="2px" style="stroke: black;"></line><line x1="162.00000000000006" y1="212.46091723747492" x2="163.00000000000006" y2="213.31756257682775" stroke-width="2px" style="stroke: black;"></line><line x1="163.00000000000006" y1="213.31756257682775" x2="164.00000000000006" y2="214.16145412862957" stroke-width="2px" style="stroke: black;"></line><line x1="164.00000000000006" y1="214.16145412862957" x2="165.00000000000006" y2="214.99278177203968" stroke-width="2px" style="stroke: black;"></line><line x1="165.00000000000006" y1="214.99278177203968" x2="166.00000000000006" y2="215.81173255928508" stroke-width="2px" style="stroke: black;"></line><line x1="166.00000000000006" y1="215.81173255928508" x2="167.00000000000006" y2="216.61849075774785" stroke-width="2px" style="stroke: black;"></line><line x1="167.00000000000006" y1="216.61849075774785" x2="168.00000000000006" y2="217.41323789142615" stroke-width="2px" style="stroke: black;"></line><line x1="168.00000000000006" y1="217.41323789142615" x2="169.00000000000006" y2="218.19615278177798" stroke-width="2px" style="stroke: black;"></line><line x1="169.00000000000006" y1="218.19615278177798" x2="170.00000000000003" y2="218.96741158795658" stroke-width="2px" style="stroke: black;"></line><line x1="170.00000000000003" y1="218.96741158795658" x2="171.00000000000003" y2="219.72718784644712" stroke-width="2px" style="stroke: black;"></line><line x1="171.00000000000003" y1="219.72718784644712" x2="172" y2="220.4756525101131" stroke-width="2px" style="stroke: black;"></line><line x1="172" y1="220.4756525101131" x2="173" y2="221.21297398666144" stroke-width="2px" style="stroke: black;"></line><line x1="173" y1="221.21297398666144" x2="174" y2="221.93931817653495" stroke-width="2px" style="stroke: black;"></line><line x1="174" y1="221.93931817653495" x2="175" y2="222.6548485102407" stroke-width="2px" style="stroke: black;"></line><line x1="175" y1="222.6548485102407" x2="176" y2="223.35972598512237" stroke-width="2px" style="stroke: black;"></line><line x1="176" y1="223.35972598512237" x2="177" y2="224.0541092015856" stroke-width="2px" style="stroke: black;"></line><line x1="177" y1="224.0541092015856" x2="178" y2="224.73815439878345" stroke-width="2px" style="stroke: black;"></line><line x1="178" y1="224.73815439878345" x2="178.99999999999997" y2="225.41201548977122" stroke-width="2px" style="stroke: black;"></line><line x1="178.99999999999997" y1="225.41201548977122" x2="179.99999999999997" y2="226.0758440961372" stroke-width="2px" style="stroke: black;"></line><line x1="179.99999999999997" y1="226.0758440961372" x2="180.99999999999994" y2="226.7297895821184" stroke-width="2px" style="stroke: black;"></line><line x1="180.99999999999994" y1="226.7297895821184" x2="181.99999999999994" y2="227.373999088208" stroke-width="2px" style="stroke: black;"></line><line x1="181.99999999999994" y1="227.373999088208" x2="182.99999999999994" y2="228.00861756426266" stroke-width="2px" style="stroke: black;"></line><line x1="182.99999999999994" y1="228.00861756426266" x2="183.99999999999994" y2="228.6337878021168" stroke-width="2px" style="stroke: black;"></line><line x1="183.99999999999994" y1="228.6337878021168" x2="184.99999999999994" y2="229.24965046771143" stroke-width="2px" style="stroke: black;"></line><line x1="184.99999999999994" y1="229.24965046771143" x2="185.99999999999994" y2="229.85634413274443" stroke-width="2px" style="stroke: black;"></line><line x1="185.99999999999994" y1="229.85634413274443" x2="186.99999999999994" y2="230.45400530585" stroke-width="2px" style="stroke: black;"></line><line x1="186.99999999999994" y1="230.45400530585" x2="187.99999999999994" y2="231.04276846331345" stroke-width="2px" style="stroke: black;"></line><line x1="187.99999999999994" y1="231.04276846331345" x2="188.9999999999999" y2="231.6227660793291" stroke-width="2px" style="stroke: black;"></line><line x1="188.9999999999999" y1="231.6227660793291" x2="189.9999999999999" y2="232.19412865580745" stroke-width="2px" style="stroke: black;"></line><line x1="189.9999999999999" y1="232.19412865580745" x2="190.9999999999999" y2="232.75698475173863" stroke-width="2px" style="stroke: black;"></line><line x1="190.9999999999999" y1="232.75698475173863" x2="191.9999999999999" y2="233.3114610121188" stroke-width="2px" style="stroke: black;"></line><line x1="191.9999999999999" y1="233.3114610121188" x2="192.9999999999999" y2="233.85768219644575" stroke-width="2px" style="stroke: black;"></line><line x1="192.9999999999999" y1="233.85768219644575" x2="193.9999999999999" y2="234.39577120679036" stroke-width="2px" style="stroke: black;"></line><line x1="193.9999999999999" y1="234.39577120679036" x2="194.9999999999999" y2="234.92584911545006" stroke-width="2px" style="stroke: black;"></line><line x1="194.9999999999999" y1="234.92584911545006" x2="195.9999999999999" y2="235.44803519219053" stroke-width="2px" style="stroke: black;"></line><line x1="195.9999999999999" y1="235.44803519219053" x2="196.99999999999983" y2="235.96244693108204" stroke-width="2px" style="stroke: black;"></line><line x1="196.99999999999983" y1="235.96244693108204" x2="197.99999999999983" y2="236.46920007693603" stroke-width="2px" style="stroke: black;"></line><line x1="197.99999999999983" y1="236.46920007693603" x2="198.99999999999983" y2="236.96840865134826" stroke-width="2px" style="stroke: black;"></line><line x1="198.99999999999983" y1="236.96840865134826" x2="199.99999999999983" y2="237.46018497835394" stroke-width="2px" style="stroke: black;"></line><line x1="199.99999999999983" y1="237.46018497835394" x2="200.99999999999983" y2="237.94463970970136" stroke-width="2px" style="stroke: black;"></line><line x1="200.99999999999983" y1="237.94463970970136" x2="201.99999999999983" y2="238.4218818497489" stroke-width="2px" style="stroke: black;"></line><line x1="201.99999999999983" y1="238.4218818497489" x2="202.99999999999983" y2="238.89201877999147" stroke-width="2px" style="stroke: black;"></line><line x1="202.99999999999983" y1="238.89201877999147" x2="203.99999999999983" y2="239.35515628322173" stroke-width="2px" style="stroke: black;"></line><line x1="203.99999999999983" y1="239.35515628322173" x2="204.99999999999983" y2="239.81139856733182" stroke-width="2px" style="stroke: black;"></line><line x1="204.99999999999983" y1="239.81139856733182" x2="205.99999999999977" y2="240.26084828876046" stroke-width="2px" style="stroke: black;"></line><line x1="205.99999999999977" y1="240.26084828876046" x2="206.99999999999977" y2="240.7036065755911" stroke-width="2px" style="stroke: black;"></line><line x1="206.99999999999977" y1="240.7036065755911" x2="207.99999999999977" y2="241.13977305030613" stroke-width="2px" style="stroke: black;"></line><line x1="207.99999999999977" y1="241.13977305030613" x2="208.99999999999977" y2="241.56944585220248" stroke-width="2px" style="stroke: black;"></line><line x1="208.99999999999977" y1="241.56944585220248" x2="209.99999999999977" y2="241.99272165947326" stroke-width="2px" style="stroke: black;"></line><line x1="209.99999999999977" y1="241.99272165947326" x2="210.99999999999977" y2="242.40969571096088" stroke-width="2px" style="stroke: black;"></line><line x1="210.99999999999977" y1="242.40969571096088" x2="211.99999999999977" y2="242.82046182758597" stroke-width="2px" style="stroke: black;"></line><line x1="211.99999999999977" y1="242.82046182758597" x2="212.99999999999977" y2="243.22511243345772" stroke-width="2px" style="stroke: black;"></line><line x1="212.99999999999977" y1="243.22511243345772" x2="213.99999999999977" y2="243.6237385766696" stroke-width="2px" style="stroke: black;"></line><line x1="213.99999999999977" y1="243.6237385766696" x2="214.99999999999972" y2="244.01642994978556" stroke-width="2px" style="stroke: black;"></line><line x1="214.99999999999972" y1="244.01642994978556" x2="215.99999999999972" y2="244.4032749100212" stroke-width="2px" style="stroke: black;"></line><line x1="215.99999999999972" y1="244.4032749100212" x2="216.99999999999972" y2="244.7843604991246" stroke-width="2px" style="stroke: black;"></line><line x1="216.99999999999972" y1="244.7843604991246" x2="217.99999999999972" y2="245.15977246296103" stroke-width="2px" style="stroke: black;"></line><line x1="217.99999999999972" y1="245.15977246296103" x2="218.99999999999972" y2="245.52959527080614" stroke-width="2px" style="stroke: black;"></line><line x1="218.99999999999972" y1="245.52959527080614" x2="219.99999999999972" y2="245.89391213435187" stroke-width="2px" style="stroke: black;"></line><line x1="219.99999999999972" y1="245.89391213435187" x2="220.99999999999972" y2="246.2528050264295" stroke-width="2px" style="stroke: black;"></line><line x1="220.99999999999972" y1="246.2528050264295" x2="221.99999999999972" y2="246.60635469945387" stroke-width="2px" style="stroke: black;"></line><line x1="221.99999999999972" y1="246.60635469945387" x2="222.99999999999972" y2="246.95464070359296" stroke-width="2px" style="stroke: black;"></line><line x1="222.99999999999972" y1="246.95464070359296" x2="223.99999999999966" y2="247.29774140466697" stroke-width="2px" style="stroke: black;"></line><line x1="223.99999999999966" y1="247.29774140466697" x2="224.99999999999966" y2="247.63573400178117" stroke-width="2px" style="stroke: black;"></line><line x1="224.99999999999966" y1="247.63573400178117" x2="225.99999999999966" y2="247.9686945446958" stroke-width="2px" style="stroke: black;"></line><line x1="225.99999999999966" y1="247.9686945446958" x2="226.99999999999966" y2="248.29669795093776" stroke-width="2px" style="stroke: black;"></line><line x1="226.99999999999966" y1="248.29669795093776" x2="227.99999999999966" y2="248.61981802265717" stroke-width="2px" style="stroke: black;"></line><line x1="227.99999999999966" y1="248.61981802265717" x2="228.99999999999963" y2="248.93812746323337" stroke-width="2px" style="stroke: black;"></line><line x1="228.99999999999963" y1="248.93812746323337" x2="229.99999999999963" y2="249.25169789363332" stroke-width="2px" style="stroke: black;"></line><line x1="229.99999999999963" y1="249.25169789363332" x2="230.99999999999963" y2="249.56059986852682" stroke-width="2px" style="stroke: black;"></line><line x1="230.99999999999963" y1="249.56059986852682" x2="231.99999999999963" y2="249.86490289216135" stroke-width="2px" style="stroke: black;"></line><line x1="231.99999999999963" y1="249.86490289216135" x2="232.99999999999963" y2="250.16467543400105" stroke-width="2px" style="stroke: black;"></line><line x1="232.99999999999963" y1="250.16467543400105" x2="233.99999999999963" y2="250.45998494413251" stroke-width="2px" style="stroke: black;"></line><line x1="233.99999999999963" y1="250.45998494413251" x2="234.99999999999963" y2="250.75089786844134" stroke-width="2px" style="stroke: black;"></line><line x1="234.99999999999963" y1="250.75089786844134" x2="235.99999999999963" y2="251.0374796635628" stroke-width="2px" style="stroke: black;"></line><line x1="235.99999999999963" y1="251.0374796635628" x2="236.99999999999966" y2="251.31979481160982" stroke-width="2px" style="stroke: black;"></line><line x1="236.99999999999966" y1="251.31979481160982" x2="237.99999999999966" y2="251.59790683468177" stroke-width="2px" style="stroke: black;"></line><line x1="237.99999999999966" y1="251.59790683468177" x2="238.9999999999997" y2="251.8718783091571" stroke-width="2px" style="stroke: black;"></line><line x1="238.9999999999997" y1="251.8718783091571" x2="239.9999999999997" y2="252.1417708797734" stroke-width="2px" style="stroke: black;"></line><line x1="239.9999999999997" y1="252.1417708797734" x2="240.9999999999997" y2="252.40764527349768" stroke-width="2px" style="stroke: black;"></line><line x1="240.9999999999997" y1="252.40764527349768" x2="241.9999999999997" y2="252.6695613131902" stroke-width="2px" style="stroke: black;"></line><line x1="241.9999999999997" y1="252.6695613131902" x2="242.9999999999997" y2="252.92757793106483" stroke-width="2px" style="stroke: black;"></line><line x1="242.9999999999997" y1="252.92757793106483" x2="243.99999999999972" y2="253.18175318194915" stroke-width="2px" style="stroke: black;"></line><line x1="243.99999999999972" y1="253.18175318194915" x2="244.99999999999972" y2="253.4321442563469" stroke-width="2px" style="stroke: black;"></line><line x1="244.99999999999972" y1="253.4321442563469" x2="245.99999999999974" y2="253.67880749330615" stroke-width="2px" style="stroke: black;"></line><line x1="245.99999999999974" y1="253.67880749330615" x2="246.99999999999974" y2="253.92179839309586" stroke-width="2px" style="stroke: black;"></line><line x1="246.99999999999974" y1="253.92179839309586" x2="247.99999999999974" y2="254.16117162969357" stroke-width="2px" style="stroke: black;"></line><line x1="247.99999999999974" y1="254.16117162969357" x2="248.99999999999974" y2="254.39698106308742" stroke-width="2px" style="stroke: black;"></line><line x1="248.99999999999974" y1="254.39698106308742" x2="249.99999999999977" y2="254.62927975139473" stroke-width="2px" style="stroke: black;"></line><line x1="249.99999999999977" y1="254.62927975139473" x2="250.99999999999977" y2="254.8581199628004" stroke-width="2px" style="stroke: black;"></line><line x1="250.99999999999977" y1="254.8581199628004" x2="251.99999999999977" y2="255.08355318731742" stroke-width="2px" style="stroke: black;"></line><line x1="251.99999999999977" y1="255.08355318731742" x2="252.9999999999998" y2="255.30563014837233" stroke-width="2px" style="stroke: black;"></line><line x1="252.9999999999998" y1="255.30563014837233" x2="253.9999999999998" y2="255.52440081421832" stroke-width="2px" style="stroke: black;"></line><line x1="253.9999999999998" y1="255.52440081421832" x2="254.9999999999998" y2="255.73991440917808" stroke-width="2px" style="stroke: black;"></line><line x1="254.9999999999998" y1="255.73991440917808" x2="255.9999999999998" y2="255.95221942471974" stroke-width="2px" style="stroke: black;"></line><line x1="255.9999999999998" y1="255.95221942471974" x2="256.99999999999983" y2="256.1613636303674" stroke-width="2px" style="stroke: black;"></line><line x1="256.99999999999983" y1="256.1613636303674" x2="257.99999999999983" y2="256.36739408444976" stroke-width="2px" style="stroke: black;"></line><line x1="257.99999999999983" y1="256.36739408444976" x2="258.99999999999983" y2="256.57035714468816" stroke-width="2px" style="stroke: black;"></line><line x1="258.99999999999983" y1="256.57035714468816" x2="259.9999999999999" y2="256.77029847862735" stroke-width="2px" style="stroke: black;"></line><line x1="259.9999999999999" y1="256.77029847862735" x2="260.9999999999999" y2="256.967263073911" stroke-width="2px" style="stroke: black;"></line><line x1="260.9999999999999" y1="256.967263073911" x2="261.9999999999999" y2="257.161295248404" stroke-width="2px" style="stroke: black;"></line><line x1="261.9999999999999" y1="257.161295248404" x2="262.9999999999999" y2="257.3524386601642" stroke-width="2px" style="stroke: black;"></line><line x1="262.9999999999999" y1="257.3524386601642" x2="263.9999999999999" y2="257.54073631726567" stroke-width="2px" style="stroke: black;"></line><line x1="263.9999999999999" y1="257.54073631726567" x2="264.9999999999999" y2="257.7262305874756" stroke-width="2px" style="stroke: black;"></line><line x1="264.9999999999999" y1="257.7262305874756" x2="265.9999999999999" y2="257.90896320778734" stroke-width="2px" style="stroke: black;"></line><line x1="265.9999999999999" y1="257.90896320778734" x2="266.9999999999999" y2="258.08897529381136" stroke-width="2px" style="stroke: black;"></line><line x1="266.9999999999999" y1="258.08897529381136" x2="267.9999999999999" y2="258.26630734902653" stroke-width="2px" style="stroke: black;"></line><line x1="267.9999999999999" y1="258.26630734902653" x2="268.9999999999999" y2="258.4409992738933" stroke-width="2px" style="stroke: black;"></line><line x1="268.9999999999999" y1="258.4409992738933" x2="269.9999999999999" y2="258.6130903748318" stroke-width="2px" style="stroke: black;"></line><line x1="269.9999999999999" y1="258.6130903748318" x2="270.9999999999999" y2="258.7826193730658" stroke-width="2px" style="stroke: black;"></line><line x1="270.9999999999999" y1="258.7826193730658" x2="272" y2="258.949624413335" stroke-width="2px" style="stroke: black;"></line><line x1="272" y1="258.949624413335" x2="273" y2="259.11414307247816" stroke-width="2px" style="stroke: black;"></line><line x1="273" y1="259.11414307247816" x2="274" y2="259.2762123678875" stroke-width="2px" style="stroke: black;"></line><line x1="274" y1="259.2762123678875" x2="275" y2="259.43586876583834" stroke-width="2px" style="stroke: black;"></line><line x1="275" y1="259.43586876583834" x2="276" y2="259.5931481896937" stroke-width="2px" style="stroke: black;"></line><line x1="276" y1="259.5931481896937" x2="277" y2="259.74808602798754" stroke-width="2px" style="stroke: black;"></line><line x1="277" y1="259.74808602798754" x2="278" y2="259.90071714238707" stroke-width="2px" style="stroke: black;"></line><line x1="278" y1="259.90071714238707" x2="279" y2="260.0510758755369" stroke-width="2px" style="stroke: black;"></line><line x1="279" y1="260.0510758755369" x2="280" y2="260.1991960587865" stroke-width="2px" style="stroke: black;"></line><line x1="280" y1="260.1991960587865" x2="281" y2="260.34511101980183" stroke-width="2px" style="stroke: black;"></line><line x1="281" y1="260.34511101980183" x2="282" y2="260.48885359006476" stroke-width="2px" style="stroke: black;"></line><line x1="282" y1="260.48885359006476" x2="283" y2="260.63045611226" stroke-width="2px" style="stroke: black;"></line><line x1="283" y1="260.63045611226" x2="284" y2="260.7699504475524" stroke-width="2px" style="stroke: black;"></line><line x1="284" y1="260.7699504475524" x2="285" y2="260.907367982756" stroke-width="2px" style="stroke: black;"></line><line x1="285" y1="260.907367982756" x2="286.0000000000001" y2="261.0427396373958" stroke-width="2px" style="stroke: black;"></line><line x1="286.0000000000001" y1="261.0427396373958" x2="287.0000000000001" y2="261.1760958706654" stroke-width="2px" style="stroke: black;"></line><line x1="287.0000000000001" y1="261.1760958706654" x2="288.0000000000001" y2="261.3074666882797" stroke-width="2px" style="stroke: black;"></line><line x1="288.0000000000001" y1="261.3074666882797" x2="289.0000000000001" y2="261.43688164922696" stroke-width="2px" style="stroke: black;"></line><line x1="289.0000000000001" y1="261.43688164922696" x2="290.0000000000001" y2="261.56436987241943" stroke-width="2px" style="stroke: black;"></line><line x1="290.0000000000001" y1="261.56436987241943" x2="291.0000000000001" y2="261.68996004324504" stroke-width="2px" style="stroke: black;"></line><line x1="291.0000000000001" y1="261.68996004324504" x2="292.0000000000001" y2="261.8136804200222" stroke-width="2px" style="stroke: black;"></line><line x1="292.0000000000001" y1="261.8136804200222" x2="293.0000000000001" y2="261.93555884035754" stroke-width="2px" style="stroke: black;"></line><line x1="293.0000000000001" y1="261.93555884035754" x2="294.0000000000001" y2="262.05562272740985" stroke-width="2px" style="stroke: black;"></line><line x1="294.0000000000001" y1="262.05562272740985" x2="295.0000000000001" y2="262.1738990960602" stroke-width="2px" style="stroke: black;"></line><line x1="295.0000000000001" y1="262.1738990960602" x2="296.0000000000001" y2="262.2904145589906" stroke-width="2px" style="stroke: black;"></line><line x1="296.0000000000001" y1="262.2904145589906" x2="297.0000000000001" y2="262.40519533267167" stroke-width="2px" style="stroke: black;"></line><line x1="297.0000000000001" y1="262.40519533267167" x2="298.0000000000001" y2="262.51826724326185" stroke-width="2px" style="stroke: black;"></line><line x1="298.0000000000001" y1="262.51826724326185" x2="299.0000000000001" y2="262.62965573241786" stroke-width="2px" style="stroke: black;"></line><line x1="299.0000000000001" y1="262.62965573241786" x2="300.0000000000002" y2="262.7393858630199" stroke-width="2px" style="stroke: black;"></line><line x1="300.0000000000002" y1="262.7393858630199" x2="301.0000000000002" y2="262.8474823248101" stroke-width="2px" style="stroke: black;"></line><line x1="301.0000000000002" y1="262.8474823248101" x2="302.0000000000002" y2="262.9539694399485" stroke-width="2px" style="stroke: black;"></line><line x1="302.0000000000002" y1="262.9539694399485" x2="303.0000000000002" y2="263.0588711684852" stroke-width="2px" style="stroke: black;"></line><line x1="303.0000000000002" y1="263.0588711684852" x2="304.0000000000002" y2="263.1622111137517" stroke-width="2px" style="stroke: black;"></line><line x1="304.0000000000002" y1="263.1622111137517" x2="305.0000000000002" y2="263.2640125276717" stroke-width="2px" style="stroke: black;"></line><line x1="305.0000000000002" y1="263.2640125276717" x2="306.0000000000002" y2="263.3642983159927" stroke-width="2px" style="stroke: black;"></line><line x1="306.0000000000002" y1="263.3642983159927" x2="307.0000000000002" y2="263.4630910434403" stroke-width="2px" style="stroke: black;"></line><line x1="307.0000000000002" y1="263.4630910434403" x2="308.0000000000002" y2="263.5604129387948" stroke-width="2px" style="stroke: black;"></line><line x1="308.0000000000002" y1="263.5604129387948" x2="309.0000000000002" y2="263.65628589989336" stroke-width="2px" style="stroke: black;"></line><line x1="309.0000000000002" y1="263.65628589989336" x2="310.0000000000002" y2="263.75073149855666" stroke-width="2px" style="stroke: black;"></line><line x1="310.0000000000002" y1="263.75073149855666" x2="311.0000000000002" y2="263.84377098544286" stroke-width="2px" style="stroke: black;"></line><line x1="311.0000000000002" y1="263.84377098544286" x2="312.0000000000002" y2="263.9354252948289" stroke-width="2px" style="stroke: black;"></line><line x1="312.0000000000002" y1="263.9354252948289" x2="313.00000000000034" y2="264.02571504932126" stroke-width="2px" style="stroke: black;"></line><line x1="313.00000000000034" y1="264.02571504932126" x2="314.00000000000034" y2="264.11466056449547" stroke-width="2px" style="stroke: black;"></line><line x1="314.00000000000034" y1="264.11466056449547" x2="315.00000000000034" y2="264.20228185346775" stroke-width="2px" style="stroke: black;"></line><line x1="315.00000000000034" y1="264.20228185346775" x2="316.00000000000034" y2="264.28859863139775" stroke-width="2px" style="stroke: black;"></line><line x1="316.00000000000034" y1="264.28859863139775" x2="317.00000000000034" y2="264.37363031992464" stroke-width="2px" style="stroke: black;"></line><line x1="317.00000000000034" y1="264.37363031992464" x2="318.00000000000034" y2="264.4573960515371" stroke-width="2px" style="stroke: black;"></line><line x1="318.00000000000034" y1="264.4573960515371" x2="319.00000000000034" y2="264.5399146738781" stroke-width="2px" style="stroke: black;"></line><line x1="319.00000000000034" y1="264.5399146738781" x2="320.00000000000034" y2="264.62120475398586" stroke-width="2px" style="stroke: black;"></line><line x1="320.00000000000034" y1="264.62120475398586" x2="321.00000000000034" y2="264.70128458247126" stroke-width="2px" style="stroke: black;"></line><line x1="321.00000000000034" y1="264.70128458247126" x2="322.00000000000034" y2="264.78017217763363" stroke-width="2px" style="stroke: black;"></line><line x1="322.00000000000034" y1="264.78017217763363" x2="323.00000000000034" y2="264.8578852895146" stroke-width="2px" style="stroke: black;"></line><line x1="323.00000000000034" y1="264.8578852895146" x2="324.00000000000034" y2="264.9344414038923" stroke-width="2px" style="stroke: black;"></line><line x1="324.00000000000034" y1="264.9344414038923" x2="325.00000000000034" y2="265.0098577462154" stroke-width="2px" style="stroke: black;"></line><line x1="325.00000000000034" y1="265.0098577462154" x2="326.00000000000034" y2="265.08415128547904" stroke-width="2px" style="stroke: black;"></line><line x1="326.00000000000034" y1="265.08415128547904" x2="327.00000000000045" y2="265.15733873804305" stroke-width="2px" style="stroke: black;"></line><line x1="327.00000000000045" y1="265.15733873804305" x2="328.00000000000045" y2="265.22943657139297" stroke-width="2px" style="stroke: black;"></line><line x1="328.00000000000045" y1="265.22943657139297" x2="329.00000000000045" y2="265.3004610078455" stroke-width="2px" style="stroke: black;"></line><line x1="329.00000000000045" y1="265.3004610078455" x2="330.00000000000045" y2="265.37042802819843" stroke-width="2px" style="stroke: black;"></line><line x1="330.00000000000045" y1="265.37042802819843" x2="331.00000000000045" y2="265.4393533753266" stroke-width="2px" style="stroke: black;"></line><line x1="331.00000000000045" y1="265.4393533753266" x2="332.00000000000045" y2="265.50725255772386" stroke-width="2px" style="stroke: black;"></line><line x1="332.00000000000045" y1="265.50725255772386" x2="333.00000000000045" y2="265.5741408529926" stroke-width="2px" style="stroke: black;"></line><line x1="333.00000000000045" y1="265.5741408529926" x2="334.00000000000045" y2="265.6400333112816" stroke-width="2px" style="stroke: black;"></line><line x1="334.00000000000045" y1="265.6400333112816" x2="335.00000000000045" y2="265.7049447586719" stroke-width="2px" style="stroke: black;"></line><line x1="335.00000000000045" y1="265.7049447586719" x2="336.00000000000045" y2="265.76888980051297" stroke-width="2px" style="stroke: black;"></line><line x1="336.00000000000045" y1="265.76888980051297" x2="337.00000000000045" y2="265.831882824709" stroke-width="2px" style="stroke: black;"></line><line x1="337.00000000000045" y1="265.831882824709" x2="338.00000000000045" y2="265.8939380049563" stroke-width="2px" style="stroke: black;"></line><line x1="338.00000000000045" y1="265.8939380049563" x2="339.00000000000045" y2="265.955069303932" stroke-width="2px" style="stroke: black;"></line><line x1="339.00000000000045" y1="265.955069303932" x2="340.00000000000045" y2="266.0152904764365" stroke-width="2px" style="stroke: black;"></line><line x1="340.00000000000045" y1="266.0152904764365" x2="341.00000000000057" y2="266.0746150724876" stroke-width="2px" style="stroke: black;"></line><line x1="341.00000000000057" y1="266.0746150724876" x2="342.00000000000057" y2="266.1330564403696" stroke-width="2px" style="stroke: black;"></line><line x1="342.00000000000057" y1="266.1330564403696" x2="343.00000000000057" y2="266.19062772963696" stroke-width="2px" style="stroke: black;"></line><line x1="343.00000000000057" y1="266.19062772963696" x2="344.00000000000057" y2="266.2473418940725" stroke-width="2px" style="stroke: black;"></line><line x1="344.00000000000057" y1="266.2473418940725" x2="345.00000000000057" y2="266.3032116946026" stroke-width="2px" style="stroke: black;"></line><line x1="345.00000000000057" y1="266.3032116946026" x2="346.00000000000057" y2="266.3582497021681" stroke-width="2px" style="stroke: black;"></line><line x1="346.00000000000057" y1="266.3582497021681" x2="347.00000000000057" y2="266.4124683005528" stroke-width="2px" style="stroke: black;"></line><line x1="347.00000000000057" y1="266.4124683005528" x2="348.00000000000057" y2="266.4658796891701" stroke-width="2px" style="stroke: black;"></line><line x1="348.00000000000057" y1="266.4658796891701" x2="349.00000000000057" y2="266.51849588580774" stroke-width="2px" style="stroke: black;"></line><line x1="349.00000000000057" y1="266.51849588580774" x2="350.00000000000057" y2="266.57032872933206" stroke-width="2px" style="stroke: black;"></line><line x1="350.00000000000057" y1="266.57032872933206" x2="351.00000000000057" y2="266.62138988235137" stroke-width="2px" style="stroke: black;"></line><line x1="351.00000000000057" y1="266.62138988235137" x2="352.00000000000057" y2="266.6716908338406" stroke-width="2px" style="stroke: black;"></line><line x1="352.00000000000057" y1="266.6716908338406" x2="353.00000000000057" y2="266.7212429017261" stroke-width="2px" style="stroke: black;"></line><line x1="353.00000000000057" y1="266.7212429017261" x2="354.00000000000057" y2="266.7700572354321" stroke-width="2px" style="stroke: black;"></line><line x1="354.00000000000057" y1="266.7700572354321" x2="355.0000000000007" y2="266.8181448183896" stroke-width="2px" style="stroke: black;"></line><line x1="355.0000000000007" y1="266.8181448183896" x2="356.0000000000006" y2="266.86551647050777" stroke-width="2px" style="stroke: black;"></line><line x1="356.0000000000006" y1="266.86551647050777" x2="357.0000000000006" y2="266.912182850608" stroke-width="2px" style="stroke: black;"></line><line x1="357.0000000000006" y1="266.912182850608" x2="358.0000000000006" y2="266.9581544588229" stroke-width="2px" style="stroke: black;"></line><line x1="358.0000000000006" y1="266.9581544588229" x2="359.0000000000007" y2="267.00344163895807" stroke-width="2px" style="stroke: black;"></line><line x1="359.0000000000007" y1="267.00344163895807" x2="360.0000000000007" y2="267.04805458082024" stroke-width="2px" style="stroke: black;"></line><line x1="360.0000000000007" y1="267.04805458082024" x2="361.0000000000007" y2="267.0920033225094" stroke-width="2px" style="stroke: black;"></line><line x1="361.0000000000007" y1="267.0920033225094" x2="362.0000000000007" y2="267.135297752678" stroke-width="2px" style="stroke: black;"></line><line x1="362.0000000000007" y1="267.135297752678" x2="363.0000000000007" y2="267.17794761275536" stroke-width="2px" style="stroke: black;"></line><line x1="363.0000000000007" y1="267.17794761275536" x2="364.00000000000074" y2="267.21996249914" stroke-width="2px" style="stroke: black;"></line><line x1="364.00000000000074" y1="267.21996249914" x2="365.00000000000074" y2="267.26135186535856" stroke-width="2px" style="stroke: black;"></line><line x1="365.00000000000074" y1="267.26135186535856" x2="366.00000000000074" y2="267.30212502419306" stroke-width="2px" style="stroke: black;"></line><line x1="366.00000000000074" y1="267.30212502419306" x2="367.00000000000074" y2="267.34229114977626" stroke-width="2px" style="stroke: black;"></line><line x1="367.00000000000074" y1="267.34229114977626" x2="368.0000000000007" y2="267.3818592796559" stroke-width="2px" style="stroke: black;"></line><line x1="368.0000000000007" y1="267.3818592796559" x2="369.0000000000006" y2="267.42083831682805" stroke-width="2px" style="stroke: black;"></line><line x1="369.0000000000006" y1="267.42083831682805" x2="370.0000000000006" y2="267.45923703174054" stroke-width="2px" style="stroke: black;"></line><line x1="370.0000000000006" y1="267.45923703174054" x2="371.0000000000006" y2="267.4970640642663" stroke-width="2px" style="stroke: black;"></line><line x1="371.0000000000006" y1="267.4970640642663" x2="372.0000000000006" y2="267.5343279256472" stroke-width="2px" style="stroke: black;"></line><line x1="372.0000000000006" y1="267.5343279256472" x2="373.00000000000057" y2="267.5710370004092" stroke-width="2px" style="stroke: black;"></line><line x1="373.00000000000057" y1="267.5710370004092" x2="374.00000000000057" y2="267.607199548249" stroke-width="2px" style="stroke: black;"></line><line x1="374.00000000000057" y1="267.607199548249" x2="375.0000000000005" y2="267.6428237058925" stroke-width="2px" style="stroke: black;"></line><line x1="375.0000000000005" y1="267.6428237058925" x2="376.0000000000005" y2="267.6779174889254" stroke-width="2px" style="stroke: black;"></line><line x1="376.0000000000005" y1="267.6779174889254" x2="377.0000000000005" y2="267.71248879359695" stroke-width="2px" style="stroke: black;"></line><line x1="377.0000000000005" y1="267.71248879359695" x2="378.00000000000045" y2="267.74654539859654" stroke-width="2px" style="stroke: black;"></line><line x1="378.00000000000045" y1="267.74654539859654" x2="379.00000000000045" y2="267.780094966804" stroke-width="2px" style="stroke: black;"></line><line x1="379.00000000000045" y1="267.780094966804" x2="380.0000000000004" y2="267.8131450470137" stroke-width="2px" style="stroke: black;"></line><line x1="380.0000000000004" y1="267.8131450470137" x2="381.0000000000004" y2="267.8457030756331" stroke-width="2px" style="stroke: black;"></line><line x1="381.0000000000004" y1="267.8457030756331" x2="382.0000000000004" y2="267.877776378356" stroke-width="2px" style="stroke: black;"></line><line x1="382.0000000000004" y1="267.877776378356" x2="383.0000000000004" y2="267.90937217181084" stroke-width="2px" style="stroke: black;"></line><line x1="383.0000000000004" y1="267.90937217181084" x2="384.00000000000034" y2="267.94049756518444" stroke-width="2px" style="stroke: black;"></line><line x1="384.00000000000034" y1="267.94049756518444" x2="385.0000000000003" y2="267.9711595618216" stroke-width="2px" style="stroke: black;"></line><line x1="385.0000000000003" y1="267.9711595618216" x2="386.0000000000003" y2="268.00136506080094" stroke-width="2px" style="stroke: black;"></line><line x1="386.0000000000003" y1="268.00136506080094" x2="387.0000000000003" y2="268.03112085848716" stroke-width="2px" style="stroke: black;"></line><line x1="387.0000000000003" y1="268.03112085848716" x2="388.0000000000003" y2="268.0604336500603" stroke-width="2px" style="stroke: black;"></line><line x1="388.0000000000003" y1="268.0604336500603" x2="389.0000000000002" y2="268.0893100310221" stroke-width="2px" style="stroke: black;"></line><line x1="389.0000000000002" y1="268.0893100310221" x2="390.0000000000002" y2="268.11775649868" stroke-width="2px" style="stroke: black;"></line><line x1="390.0000000000002" y1="268.11775649868" x2="391.00000000000017" y2="268.1457794536094" stroke-width="2px" style="stroke: black;"></line><line x1="391.00000000000017" y1="268.1457794536094" x2="392.00000000000017" y2="268.1733852010933" stroke-width="2px" style="stroke: black;"></line><line x1="392.00000000000017" y1="268.1733852010933" x2="393.00000000000017" y2="268.2005799525414" stroke-width="2px" style="stroke: black;"></line><line x1="393.00000000000017" y1="268.2005799525414" x2="394.0000000000001" y2="268.2273698268874" stroke-width="2px" style="stroke: black;"></line><line x1="394.0000000000001" y1="268.2273698268874" x2="395.0000000000001" y2="268.25376085196615" stroke-width="2px" style="stroke: black;"></line><line x1="395.0000000000001" y1="268.25376085196615" x2="396.00000000000006" y2="268.2797589658696" stroke-width="2px" style="stroke: black;"></line><line x1="396.00000000000006" y1="268.2797589658696" x2="397.00000000000006" y2="268.305370018283" stroke-width="2px" style="stroke: black;"></line><line x1="397.00000000000006" y1="268.305370018283" x2="398.00000000000006" y2="268.33059977180125" stroke-width="2px" style="stroke: black;"></line><line x1="398.00000000000006" y1="268.33059977180125" x2="399.00000000000006" y2="268.35545390322534" stroke-width="2px" style="stroke: black;"></line><line x1="399.00000000000006" y1="268.35545390322534" x2="400" y2="268.3799380048397" stroke-width="2px" style="stroke: black;"></line><line x1="400" y1="268.3799380048397" x2="400.99999999999994" y2="268.4040575856704" stroke-width="2px" style="stroke: black;"></line><line x1="400.99999999999994" y1="268.4040575856704" x2="401.99999999999994" y2="268.42781807272496" stroke-width="2px" style="stroke: black;"></line><line x1="401.99999999999994" y1="268.42781807272496" x2="402.99999999999994" y2="268.4512248122132" stroke-width="2px" style="stroke: black;"></line><line x1="402.99999999999994" y1="268.4512248122132" x2="403.99999999999994" y2="268.47428307075023" stroke-width="2px" style="stroke: black;"></line><line x1="403.99999999999994" y1="268.47428307075023" x2="404.9999999999999" y2="268.4969980365416" stroke-width="2px" style="stroke: black;"></line><line x1="404.9999999999999" y1="268.4969980365416" x2="405.9999999999999" y2="268.51937482055024" stroke-width="2px" style="stroke: black;"></line><line x1="405.9999999999999" y1="268.51937482055024" x2="406.99999999999983" y2="268.5414184576471" stroke-width="2px" style="stroke: black;"></line><line x1="406.99999999999983" y1="268.5414184576471" x2="407.99999999999983" y2="268.5631339077435" stroke-width="2px" style="stroke: black;"></line><line x1="407.99999999999983" y1="268.5631339077435" x2="408.99999999999983" y2="268.58452605690735" stroke-width="2px" style="stroke: black;"></line><line x1="408.99999999999983" y1="268.58452605690735" x2="409.9999999999998" y2="268.60559971846243" stroke-width="2px" style="stroke: black;"></line><line x1="409.9999999999998" y1="268.60559971846243" x2="410.9999999999998" y2="268.62635963407143" stroke-width="2px" style="stroke: black;"></line><line x1="410.9999999999998" y1="268.62635963407143" x2="411.9999999999997" y2="268.64681047480303" stroke-width="2px" style="stroke: black;"></line><line x1="411.9999999999997" y1="268.64681047480303" x2="412.9999999999997" y2="268.6669568421827" stroke-width="2px" style="stroke: black;"></line><line x1="412.9999999999997" y1="268.6669568421827" x2="413.9999999999997" y2="268.686803269228" stroke-width="2px" style="stroke: black;"></line><line x1="413.9999999999997" y1="268.686803269228" x2="414.9999999999997" y2="268.7063542214688" stroke-width="2px" style="stroke: black;"></line><line x1="414.9999999999997" y1="268.7063542214688" x2="415.99999999999966" y2="268.7256140979518" stroke-width="2px" style="stroke: black;"></line><line x1="415.99999999999966" y1="268.7256140979518" x2="416.9999999999996" y2="268.7445872322305" stroke-width="2px" style="stroke: black;"></line><line x1="416.9999999999996" y1="268.7445872322305" x2="417.9999999999996" y2="268.76327789334016" stroke-width="2px" style="stroke: black;"></line><line x1="417.9999999999996" y1="268.76327789334016" x2="418.9999999999996" y2="268.7816902867583" stroke-width="2px" style="stroke: black;"></line><line x1="418.9999999999996" y1="268.7816902867583" x2="419.9999999999996" y2="268.7998285553512" stroke-width="2px" style="stroke: black;"></line><line x1="419.9999999999996" y1="268.7998285553512" x2="420.99999999999955" y2="268.8176967803058" stroke-width="2px" style="stroke: black;"></line><line x1="420.99999999999955" y1="268.8176967803058" x2="421.99999999999955" y2="268.83529898204813" stroke-width="2px" style="stroke: black;"></line><line x1="421.99999999999955" y1="268.83529898204813" x2="422.9999999999995" y2="268.8526391211478" stroke-width="2px" style="stroke: black;"></line><line x1="422.9999999999995" y1="268.8526391211478" x2="423.9999999999995" y2="268.86972109920924" stroke-width="2px" style="stroke: black;"></line><line x1="423.9999999999995" y1="268.86972109920924" x2="424.9999999999995" y2="268.8865487597496" stroke-width="2px" style="stroke: black;"></line><line x1="424.9999999999995" y1="268.8865487597496" x2="425.99999999999943" y2="268.90312588906346" stroke-width="2px" style="stroke: black;"></line><line x1="425.99999999999943" y1="268.90312588906346" x2="426.99999999999943" y2="268.9194562170749" stroke-width="2px" style="stroke: black;"></line><line x1="426.99999999999943" y1="268.9194562170749" x2="427.9999999999994" y2="268.9355434181767" stroke-width="2px" style="stroke: black;"></line><line x1="427.9999999999994" y1="268.9355434181767" x2="428.9999999999994" y2="268.95139111205674" stroke-width="2px" style="stroke: black;"></line><line x1="428.9999999999994" y1="268.95139111205674" x2="429.9999999999994" y2="268.96700286451323" stroke-width="2px" style="stroke: black;"></line><line x1="429.9999999999994" y1="268.96700286451323" x2="430.9999999999994" y2="268.9823821882562" stroke-width="2px" style="stroke: black;"></line><line x1="430.9999999999994" y1="268.9823821882562" x2="431.9999999999993" y2="268.99753254369847" stroke-width="2px" style="stroke: black;"></line><line x1="431.9999999999993" y1="268.99753254369847" x2="432.99999999999926" y2="269.0124573397338" stroke-width="2px" style="stroke: black;"></line><line x1="432.99999999999926" y1="269.0124573397338" x2="433.99999999999926" y2="269.0271599345044" stroke-width="2px" style="stroke: black;"></line><line x1="433.99999999999926" y1="269.0271599345044" x2="434.99999999999926" y2="269.0416436361561" stroke-width="2px" style="stroke: black;"></line><line x1="434.99999999999926" y1="269.0416436361561" x2="435.99999999999926" y2="269.0559117035828" stroke-width="2px" style="stroke: black;"></line><line x1="435.99999999999926" y1="269.0559117035828" x2="436.9999999999992" y2="269.0699673471599" stroke-width="2px" style="stroke: black;"></line><line x1="436.9999999999992" y1="269.0699673471599" x2="437.9999999999992" y2="269.0838137294665" stroke-width="2px" style="stroke: black;"></line><line x1="437.9999999999992" y1="269.0838137294665" x2="438.99999999999915" y2="269.09745396599703" stroke-width="2px" style="stroke: black;"></line><line x1="438.99999999999915" y1="269.09745396599703" x2="439.99999999999915" y2="269.1108911258623" stroke-width="2px" style="stroke: black;"></line><line x1="439.99999999999915" y1="269.1108911258623" x2="440.99999999999915" y2="269.1241282324799" stroke-width="2px" style="stroke: black;"></line><line x1="440.99999999999915" y1="269.1241282324799" x2="441.9999999999991" y2="269.13716826425474" stroke-width="2px" style="stroke: black;"></line><line x1="441.9999999999991" y1="269.13716826425474" x2="442.9999999999991" y2="269.15001415524887" stroke-width="2px" style="stroke: black;"></line><line x1="442.9999999999991" y1="269.15001415524887" x2="443.9999999999991" y2="269.1626687958421" stroke-width="2px" style="stroke: black;"></line><line x1="443.9999999999991" y1="269.1626687958421" x2="444.99999999999903" y2="269.1751350333818" stroke-width="2px" style="stroke: black;"></line><line x1="444.99999999999903" y1="269.1751350333818" x2="445.99999999999903" y2="269.18741567282416" stroke-width="2px" style="stroke: black;"></line><line x1="445.99999999999903" y1="269.18741567282416" x2="446.99999999999903" y2="269.19951347736475" stroke-width="2px" style="stroke: black;"></line><line x1="446.99999999999903" y1="269.19951347736475" x2="447.9999999999989" y2="269.2114311690607" stroke-width="2px" style="stroke: black;"></line><line x1="447.9999999999989" y1="269.2114311690607" x2="448.9999999999989" y2="269.22317142944286" stroke-width="2px" style="stroke: black;"></line><line x1="448.9999999999989" y1="269.22317142944286" x2="449.9999999999989" y2="269.23473690011934" stroke-width="2px" style="stroke: black;"></line><line x1="449.9999999999989" y1="269.23473690011934" x2="450.9999999999989" y2="269.2461301833699" stroke-width="2px" style="stroke: black;"></line><line x1="450.9999999999989" y1="269.2461301833699" x2="451.99999999999886" y2="269.25735384273133" stroke-width="2px" style="stroke: black;"></line><line x1="451.99999999999886" y1="269.25735384273133" x2="452.99999999999886" y2="269.2684104035743" stroke-width="2px" style="stroke: black;"></line><line x1="452.99999999999886" y1="269.2684104035743" x2="453.99999999999886" y2="269.27930235367165" stroke-width="2px" style="stroke: black;"></line><line x1="453.99999999999886" y1="269.27930235367165" x2="454.99999999999886" y2="269.29003214375814" stroke-width="2px" style="stroke: black;"></line><line x1="454.99999999999886" y1="269.29003214375814" x2="455.9999999999988" y2="269.30060218808177" stroke-width="2px" style="stroke: black;"></line><line x1="455.9999999999988" y1="269.30060218808177" x2="456.9999999999988" y2="269.3110148649471" stroke-width="2px" style="stroke: black;"></line><line x1="456.9999999999988" y1="269.3110148649471" x2="457.9999999999988" y2="269.32127251725035" stroke-width="2px" style="stroke: black;"></line><line x1="457.9999999999988" y1="269.32127251725035" x2="458.9999999999987" y2="269.3313774530066" stroke-width="2px" style="stroke: black;"></line><line x1="458.9999999999987" y1="269.3313774530066" x2="459.9999999999987" y2="269.341331945869" stroke-width="2px" style="stroke: black;"></line><line x1="459.9999999999987" y1="269.341331945869" x2="460.9999999999987" y2="269.3511382356404" stroke-width="2px" style="stroke: black;"></line><line x1="460.9999999999987" y1="269.3511382356404" x2="461.9999999999987" y2="269.3607985287775" stroke-width="2px" style="stroke: black;"></line><line x1="461.9999999999987" y1="269.3607985287775" x2="462.99999999999864" y2="269.37031499888684" stroke-width="2px" style="stroke: black;"></line><line x1="462.99999999999864" y1="269.37031499888684" x2="463.99999999999864" y2="269.37968978721443" stroke-width="2px" style="stroke: black;"></line><line x1="463.99999999999864" y1="269.37968978721443" x2="464.99999999999864" y2="269.3889250031272" stroke-width="2px" style="stroke: black;"></line><line x1="464.99999999999864" y1="269.3889250031272" x2="465.9999999999986" y2="269.39802272458775" stroke-width="2px" style="stroke: black;"></line><line x1="465.9999999999986" y1="269.39802272458775" x2="466.9999999999986" y2="269.4069849986217" stroke-width="2px" style="stroke: black;"></line><line x1="466.9999999999986" y1="269.4069849986217" x2="467.9999999999986" y2="269.41581384177846" stroke-width="2px" style="stroke: black;"></line><line x1="467.9999999999986" y1="269.41581384177846" x2="468.9999999999986" y2="269.4245112405851" stroke-width="2px" style="stroke: black;"></line><line x1="468.9999999999986" y1="269.4245112405851" x2="469.99999999999847" y2="269.43307915199307" stroke-width="2px" style="stroke: black;"></line><line x1="469.99999999999847" y1="269.43307915199307" x2="470.99999999999847" y2="269.4415195038185" stroke-width="2px" style="stroke: black;"></line><line x1="470.99999999999847" y1="269.4415195038185" x2="471.99999999999847" y2="269.44983419517615" stroke-width="2px" style="stroke: black;"></line><line x1="471.99999999999847" y1="269.44983419517615" x2="472.9999999999984" y2="269.4580250969067" stroke-width="2px" style="stroke: black;"></line><line x1="472.9999999999984" y1="269.4580250969067" x2="473.9999999999984" y2="269.4660940519976" stroke-width="2px" style="stroke: black;"></line><line x1="473.9999999999984" y1="269.4660940519976" x2="474.9999999999984" y2="269.47404287599767" stroke-width="2px" style="stroke: black;"></line><line x1="474.9999999999984" y1="269.47404287599767" x2="475.9999999999984" y2="269.481873357426" stroke-width="2px" style="stroke: black;"></line><line x1="475.9999999999984" y1="269.481873357426" x2="476.99999999999835" y2="269.48958725817397" stroke-width="2px" style="stroke: black;"></line><line x1="476.99999999999835" y1="269.48958725817397" x2="477.99999999999835" y2="269.49718631390164" stroke-width="2px" style="stroke: black;"></line><line x1="477.99999999999835" y1="269.49718631390164" x2="478.99999999999835" y2="269.50467223442865" stroke-width="2px" style="stroke: black;"></line><line x1="478.99999999999835" y1="269.50467223442865" x2="479.99999999999835" y2="269.51204670411875" stroke-width="2px" style="stroke: black;"></line><line x1="479.99999999999835" y1="269.51204670411875" x2="480.99999999999824" y2="269.5193113822587" stroke-width="2px" style="stroke: black;"></line><line x1="480.99999999999824" y1="269.5193113822587" x2="481.99999999999824" y2="269.52646790343175" stroke-width="2px" style="stroke: black;"></line><line x1="481.99999999999824" y1="269.52646790343175" x2="482.99999999999824" y2="269.5335178778854" stroke-width="2px" style="stroke: black;"></line><line x1="482.99999999999824" y1="269.5335178778854" x2="483.9999999999982" y2="269.5404628918935" stroke-width="2px" style="stroke: black;"></line><line x1="483.9999999999982" y1="269.5404628918935" x2="484.9999999999982" y2="269.54730450811365" stroke-width="2px" style="stroke: black;"></line><line x1="484.9999999999982" y1="269.54730450811365" x2="485.9999999999982" y2="269.5540442659383" stroke-width="2px" style="stroke: black;"></line><line x1="485.9999999999982" y1="269.5540442659383" x2="486.9999999999982" y2="269.56068368184134" stroke-width="2px" style="stroke: black;"></line><line x1="486.9999999999982" y1="269.56068368184134" x2="487.9999999999981" y2="269.56722424971946" stroke-width="2px" style="stroke: black;"></line><line x1="487.9999999999981" y1="269.56722424971946" x2="488.9999999999981" y2="269.57366744122794" stroke-width="2px" style="stroke: black;"></line><line x1="488.9999999999981" y1="269.57366744122794" x2="489.9999999999981" y2="269.58001470611214" stroke-width="2px" style="stroke: black;"></line><line x1="489.9999999999981" y1="269.58001470611214" x2="490.999999999998" y2="269.58626747253334" stroke-width="2px" style="stroke: black;"></line><line x1="490.999999999998" y1="269.58626747253334" x2="491.999999999998" y2="269.5924271473904" stroke-width="2px" style="stroke: black;"></line><line x1="491.999999999998" y1="269.5924271473904" x2="492.999999999998" y2="269.59849511663623" stroke-width="2px" style="stroke: black;"></line><line x1="492.999999999998" y1="269.59849511663623" x2="493.999999999998" y2="269.6044727455894" stroke-width="2px" style="stroke: black;"></line><line x1="493.999999999998" y1="269.6044727455894" x2="494.99999999999795" y2="269.61036137924174" stroke-width="2px" style="stroke: black;"></line><line x1="494.99999999999795" y1="269.61036137924174" x2="495.99999999999795" y2="269.6161623425606" stroke-width="2px" style="stroke: black;"></line><line x1="495.99999999999795" y1="269.6161623425606" x2="496.99999999999795" y2="269.62187694078716" stroke-width="2px" style="stroke: black;"></line><line x1="496.99999999999795" y1="269.62187694078716" x2="497.9999999999979" y2="269.62750645973017" stroke-width="2px" style="stroke: black;"></line><line x1="497.9999999999979" y1="269.62750645973017" x2="498.9999999999979" y2="269.63305216605517" stroke-width="2px" style="stroke: black;"></line><line x1="498.9999999999979" y1="269.63305216605517" x2="499.9999999999979" y2="269.6385153075695" stroke-width="2px" style="stroke: black;"></line><line x1="100" y1="270" x2="100" y2="271" stroke-width="2px" style="stroke: rgb(0, 85, 255);"></line><line x1="101" y1="270" x2="101" y2="127.33784214122014" stroke-width="2px" style="stroke: rgb(0, 85, 255);"></line><line x1="102" y1="270" x2="102" y2="129.47669302417597" stroke-width="2px" style="stroke: rgb(0, 85, 255);"></line><line x1="103" y1="270" x2="103" y2="131.58370056600634" stroke-width="2px" style="stroke: rgb(0, 85, 255);"></line><line x1="104" y1="270" x2="104" y2="133.65933885229714" stroke-width="2px" style="stroke: rgb(0, 85, 255);"></line><line x1="105" y1="270" x2="105" y2="135.70407491041945" stroke-width="2px" style="stroke: rgb(0, 85, 255);"></line><line x1="106" y1="270" x2="106" y2="137.71836881461263" stroke-width="2px" style="stroke: rgb(0, 85, 255);"></line><line x1="107" y1="270" x2="107" y2="139.702673789503" stroke-width="2px" style="stroke: rgb(0, 85, 255);"></line><line x1="108" y1="270" x2="108" y2="141.65743631208127" stroke-width="2px" style="stroke: rgb(0, 85, 255);"></line><line x1="109" y1="270" x2="109" y2="143.58309621216173" stroke-width="2px" style="stroke: rgb(0, 85, 255);"></line><line x1="110" y1="270" x2="110" y2="145.4800867713458" stroke-width="2px" style="stroke: rgb(0, 85, 255);"></line><line x1="111" y1="270" x2="111" y2="147.34883482051234" stroke-width="2px" style="stroke: rgb(0, 85, 255);"></line><line x1="112" y1="270" x2="112" y2="149.18976083585625" stroke-width="2px" style="stroke: rgb(0, 85, 255);"></line><line x1="113" y1="270" x2="113" y2="151.00327903349742" stroke-width="2px" style="stroke: rgb(0, 85, 255);"></line><line x1="114" y1="270" x2="114" y2="152.78979746268112" stroke-width="2px" style="stroke: rgb(0, 85, 255);"></line><line x1="115" y1="270" x2="115" y2="154.54971809759093" stroke-width="2px" style="stroke: rgb(0, 85, 255);"></line><line x1="116" y1="270" x2="116" y2="156.28343692779436" stroke-width="2px" style="stroke: rgb(0, 85, 255);"></line><line x1="117" y1="270" x2="117" y2="157.99134404734247" stroke-width="2px" style="stroke: rgb(0, 85, 255);"></line><line x1="118.00000000000001" y1="270" x2="118.00000000000001" y2="159.6738237425423" stroke-width="2px" style="stroke: rgb(0, 85, 255);"></line><line x1="119.00000000000001" y1="270" x2="119.00000000000001" y2="161.33125457842345" stroke-width="2px" style="stroke: rgb(0, 85, 255);"></line><line x1="120.00000000000001" y1="270" x2="120.00000000000001" y2="162.96400948391621" stroke-width="2px" style="stroke: rgb(0, 85, 255);"></line><line x1="121.00000000000001" y1="270" x2="121.00000000000001" y2="164.57245583576258" stroke-width="2px" style="stroke: rgb(0, 85, 255);"></line><line x1="122.00000000000001" y1="270" x2="122.00000000000001" y2="166.1569555411775" stroke-width="2px" style="stroke: rgb(0, 85, 255);"></line><line x1="123.00000000000001" y1="270" x2="123.00000000000001" y2="167.71786511927928" stroke-width="2px" style="stroke: rgb(0, 85, 255);"></line><line x1="124.00000000000001" y1="270" x2="124.00000000000001" y2="169.25553578130805" stroke-width="2px" style="stroke: rgb(0, 85, 255);"></line><line x1="125.00000000000001" y1="270" x2="125.00000000000001" y2="170.77031350964995" stroke-width="2px" style="stroke: rgb(0, 85, 255);"></line><line x1="126.00000000000001" y1="270" x2="126.00000000000001" y2="172.2625391356844" stroke-width="2px" style="stroke: rgb(0, 85, 255);"></line><line x1="127.00000000000001" y1="270" x2="127.00000000000001" y2="173.73254841647258" stroke-width="2px" style="stroke: rgb(0, 85, 255);"></line><line x1="128.00000000000003" y1="270" x2="128.00000000000003" y2="175.1806721103043" stroke-width="2px" style="stroke: rgb(0, 85, 255);"></line><line x1="129.00000000000003" y1="270" x2="129.00000000000003" y2="176.60723605112003" stroke-width="2px" style="stroke: rgb(0, 85, 255);"></line><line x1="130.00000000000003" y1="270" x2="130.00000000000003" y2="178.0125612218248" stroke-width="2px" style="stroke: rgb(0, 85, 255);"></line><line x1="131.00000000000003" y1="270" x2="131.00000000000003" y2="179.39696382651078" stroke-width="2px" style="stroke: rgb(0, 85, 255);"></line><line x1="132.00000000000003" y1="270" x2="132.00000000000003" y2="180.76075536160454" stroke-width="2px" style="stroke: rgb(0, 85, 255);"></line><line x1="133.00000000000003" y1="270" x2="133.00000000000003" y2="182.10424268595494" stroke-width="2px" style="stroke: rgb(0, 85, 255);"></line><line x1="134.00000000000003" y1="270" x2="134.00000000000003" y2="183.42772808987797" stroke-width="2px" style="stroke: rgb(0, 85, 255);"></line><line x1="135.00000000000003" y1="270" x2="135.00000000000003" y2="184.7315093631729" stroke-width="2px" style="stroke: rgb(0, 85, 255);"></line><line x1="136.00000000000003" y1="270" x2="136.00000000000003" y2="186.0158798621266" stroke-width="2px" style="stroke: rgb(0, 85, 255);"></line><line x1="137.00000000000003" y1="270" x2="137.00000000000003" y2="187.28112857551983" stroke-width="2px" style="stroke: rgb(0, 85, 255);"></line><line x1="138.00000000000003" y1="270" x2="138.00000000000003" y2="188.52754018965092" stroke-width="2px" style="stroke: rgb(0, 85, 255);"></line><line x1="139.00000000000003" y1="270" x2="139.00000000000003" y2="189.7553951523914" stroke-width="2px" style="stroke: rgb(0, 85, 255);"></line><line x1="140.00000000000003" y1="270" x2="140.00000000000003" y2="190.9649697362879" stroke-width="2px" style="stroke: rgb(0, 85, 255);"></line><line x1="141.00000000000003" y1="270" x2="141.00000000000003" y2="192.15653610072474" stroke-width="2px" style="stroke: rgb(0, 85, 255);"></line><line x1="142.00000000000003" y1="270" x2="142.00000000000003" y2="193.33036235316092" stroke-width="2px" style="stroke: rgb(0, 85, 255);"></line><line x1="143.00000000000003" y1="270" x2="143.00000000000003" y2="194.4867126094553" stroke-width="2px" style="stroke: rgb(0, 85, 255);"></line><line x1="144.00000000000003" y1="270" x2="144.00000000000003" y2="195.62584705329397" stroke-width="2px" style="stroke: rgb(0, 85, 255);"></line><line x1="145.00000000000003" y1="270" x2="145.00000000000003" y2="196.74802199473248" stroke-width="2px" style="stroke: rgb(0, 85, 255);"></line><line x1="146.00000000000003" y1="270" x2="146.00000000000003" y2="197.85348992786697" stroke-width="2px" style="stroke: rgb(0, 85, 255);"></line><line x1="147.00000000000003" y1="270" x2="147.00000000000003" y2="198.9424995876461" stroke-width="2px" style="stroke: rgb(0, 85, 255);"></line><line x1="148.00000000000003" y1="270" x2="148.00000000000003" y2="200.01529600583754" stroke-width="2px" style="stroke: rgb(0, 85, 255);"></line><line x1="149.00000000000003" y1="270" x2="149.00000000000003" y2="201.07212056616135" stroke-width="2px" style="stroke: rgb(0, 85, 255);"></line><line x1="150.00000000000003" y1="270" x2="150.00000000000003" y2="202.1132110586021" stroke-width="2px" style="stroke: rgb(0, 85, 255);"></line><line x1="151.00000000000003" y1="270" x2="151.00000000000003" y2="203.13880173291273" stroke-width="2px" style="stroke: rgb(0, 85, 255);"></line><line x1="152.00000000000003" y1="270" x2="152.00000000000003" y2="204.14912335132163" stroke-width="2px" style="stroke: rgb(0, 85, 255);"></line><line x1="153.00000000000003" y1="270" x2="153.00000000000003" y2="205.14440324045535" stroke-width="2px" style="stroke: rgb(0, 85, 255);"></line><line x1="154.00000000000003" y1="270" x2="154.00000000000003" y2="206.12486534248785" stroke-width="2px" style="stroke: rgb(0, 85, 255);"></line><line x1="155.00000000000003" y1="270" x2="155.00000000000003" y2="207.09073026552832" stroke-width="2px" style="stroke: rgb(0, 85, 255);"></line><line x1="156.00000000000003" y1="270" x2="156.00000000000003" y2="208.0422153332593" stroke-width="2px" style="stroke: rgb(0, 85, 255);"></line><line x1="157.00000000000006" y1="270" x2="157.00000000000006" y2="208.9795346338351" stroke-width="2px" style="stroke: rgb(0, 85, 255);"></line><line x1="158.00000000000006" y1="270" x2="158.00000000000006" y2="209.90289906805273" stroke-width="2px" style="stroke: rgb(0, 85, 255);"></line><line x1="159.00000000000006" y1="270" x2="159.00000000000006" y2="210.81251639680534" stroke-width="2px" style="stroke: rgb(0, 85, 255);"></line><line x1="160.00000000000006" y1="270" x2="160.00000000000006" y2="211.7085912878294" stroke-width="2px" style="stroke: rgb(0, 85, 255);"></line><line x1="161.00000000000006" y1="270" x2="161.00000000000006" y2="212.59132536175565" stroke-width="2px" style="stroke: rgb(0, 85, 255);"></line><line x1="162.00000000000006" y1="270" x2="162.00000000000006" y2="213.46091723747492" stroke-width="2px" style="stroke: rgb(0, 85, 255);"></line><line x1="163.00000000000006" y1="270" x2="163.00000000000006" y2="214.31756257682775" stroke-width="2px" style="stroke: rgb(0, 85, 255);"></line><line x1="164.00000000000006" y1="270" x2="164.00000000000006" y2="215.16145412862957" stroke-width="2px" style="stroke: rgb(0, 85, 255);"></line><line x1="165.00000000000006" y1="270" x2="165.00000000000006" y2="215.99278177203968" stroke-width="2px" style="stroke: rgb(0, 85, 255);"></line><line x1="166.00000000000006" y1="270" x2="166.00000000000006" y2="216.81173255928508" stroke-width="2px" style="stroke: rgb(0, 85, 255);"></line><line x1="167.00000000000006" y1="270" x2="167.00000000000006" y2="217.61849075774785" stroke-width="2px" style="stroke: rgb(0, 85, 255);"></line><line x1="168.00000000000006" y1="270" x2="168.00000000000006" y2="218.41323789142615" stroke-width="2px" style="stroke: rgb(0, 85, 255);"></line><line x1="169.00000000000006" y1="270" x2="169.00000000000006" y2="219.19615278177798" stroke-width="2px" style="stroke: rgb(0, 85, 255);"></line><line x1="170.00000000000003" y1="270" x2="170.00000000000003" y2="219.96741158795658" stroke-width="2px" style="stroke: rgb(0, 85, 255);"></line><line x1="171.00000000000003" y1="270" x2="171.00000000000003" y2="220.72718784644712" stroke-width="2px" style="stroke: rgb(0, 85, 255);"></line><line x1="172" y1="270" x2="172" y2="221.4756525101131" stroke-width="2px" style="stroke: rgb(0, 85, 255);"></line><line x1="173" y1="270" x2="173" y2="222.21297398666144" stroke-width="2px" style="stroke: rgb(0, 85, 255);"></line><line x1="174" y1="270" x2="174" y2="222.93931817653495" stroke-width="2px" style="stroke: rgb(0, 85, 255);"></line><line x1="175" y1="270" x2="175" y2="223.6548485102407" stroke-width="2px" style="stroke: rgb(0, 85, 255);"></line><line x1="176" y1="270" x2="176" y2="224.35972598512237" stroke-width="2px" style="stroke: rgb(0, 85, 255);"></line><line x1="177" y1="270" x2="177" y2="225.0541092015856" stroke-width="2px" style="stroke: rgb(0, 85, 255);"></line><line x1="178" y1="270" x2="178" y2="225.73815439878345" stroke-width="2px" style="stroke: rgb(0, 85, 255);"></line><line x1="178.99999999999997" y1="270" x2="178.99999999999997" y2="226.41201548977122" stroke-width="2px" style="stroke: rgb(0, 85, 255);"></line><line x1="179.99999999999997" y1="270" x2="179.99999999999997" y2="227.0758440961372" stroke-width="2px" style="stroke: rgb(0, 85, 255);"></line><line x1="180.99999999999994" y1="270" x2="180.99999999999994" y2="227.7297895821184" stroke-width="2px" style="stroke: rgb(0, 85, 255);"></line><line x1="181.99999999999994" y1="270" x2="181.99999999999994" y2="228.373999088208" stroke-width="2px" style="stroke: rgb(0, 85, 255);"></line><line x1="182.99999999999994" y1="270" x2="182.99999999999994" y2="229.00861756426266" stroke-width="2px" style="stroke: rgb(0, 85, 255);"></line><line x1="183.99999999999994" y1="270" x2="183.99999999999994" y2="229.6337878021168" stroke-width="2px" style="stroke: rgb(0, 85, 255);"></line><line x1="184.99999999999994" y1="270" x2="184.99999999999994" y2="230.24965046771143" stroke-width="2px" style="stroke: rgb(0, 85, 255);"></line><line x1="185.99999999999994" y1="270" x2="185.99999999999994" y2="230.85634413274443" stroke-width="2px" style="stroke: rgb(0, 85, 255);"></line><line x1="186.99999999999994" y1="270" x2="186.99999999999994" y2="231.45400530585" stroke-width="2px" style="stroke: rgb(0, 85, 255);"></line><line x1="187.99999999999994" y1="270" x2="187.99999999999994" y2="232.04276846331345" stroke-width="2px" style="stroke: rgb(0, 85, 255);"></line><line x1="188.9999999999999" y1="270" x2="188.9999999999999" y2="232.6227660793291" stroke-width="2px" style="stroke: rgb(0, 85, 255);"></line><line x1="189.9999999999999" y1="270" x2="189.9999999999999" y2="233.19412865580745" stroke-width="2px" style="stroke: rgb(0, 85, 255);"></line><line x1="190.9999999999999" y1="270" x2="190.9999999999999" y2="233.75698475173863" stroke-width="2px" style="stroke: rgb(0, 85, 255);"></line><line x1="191.9999999999999" y1="270" x2="191.9999999999999" y2="234.3114610121188" stroke-width="2px" style="stroke: rgb(0, 85, 255);"></line><line x1="192.9999999999999" y1="270" x2="192.9999999999999" y2="234.85768219644575" stroke-width="2px" style="stroke: rgb(0, 85, 255);"></line><line x1="193.9999999999999" y1="270" x2="193.9999999999999" y2="235.39577120679036" stroke-width="2px" style="stroke: rgb(0, 85, 255);"></line><line x1="194.9999999999999" y1="270" x2="194.9999999999999" y2="235.92584911545006" stroke-width="2px" style="stroke: rgb(0, 85, 255);"></line><line x1="195.9999999999999" y1="270" x2="195.9999999999999" y2="236.44803519219053" stroke-width="2px" style="stroke: rgb(0, 85, 255);"></line><line x1="196.99999999999983" y1="270" x2="196.99999999999983" y2="236.96244693108204" stroke-width="2px" style="stroke: rgb(0, 85, 255);"></line><line x1="197.99999999999983" y1="270" x2="197.99999999999983" y2="237.46920007693603" stroke-width="2px" style="stroke: rgb(0, 85, 255);"></line><line x1="198.99999999999983" y1="270" x2="198.99999999999983" y2="237.96840865134826" stroke-width="2px" style="stroke: rgb(0, 85, 255);"></line><line x1="199.99999999999983" y1="270" x2="199.99999999999983" y2="238.46018497835394" stroke-width="2px" style="stroke: rgb(0, 85, 255);"></line><line x1="200.99999999999983" y1="270" x2="200.99999999999983" y2="238.94463970970136" stroke-width="2px" style="stroke: rgb(0, 85, 255);"></line><line x1="201.99999999999983" y1="270" x2="201.99999999999983" y2="239.4218818497489" stroke-width="2px" style="stroke: rgb(0, 85, 255);"></line><line x1="202.99999999999983" y1="270" x2="202.99999999999983" y2="239.89201877999147" stroke-width="2px" style="stroke: rgb(0, 85, 255);"></line><line x1="203.99999999999983" y1="270" x2="203.99999999999983" y2="240.35515628322173" stroke-width="2px" style="stroke: rgb(0, 85, 255);"></line><line x1="204.99999999999983" y1="270" x2="204.99999999999983" y2="240.81139856733182" stroke-width="2px" style="stroke: rgb(0, 85, 255);"></line><line x1="205.99999999999977" y1="270" x2="205.99999999999977" y2="241.26084828876046" stroke-width="2px" style="stroke: rgb(0, 85, 255);"></line><line x1="206.99999999999977" y1="270" x2="206.99999999999977" y2="241.7036065755911" stroke-width="2px" style="stroke: rgb(0, 85, 255);"></line><line x1="207.99999999999977" y1="270" x2="207.99999999999977" y2="242.13977305030613" stroke-width="2px" style="stroke: rgb(0, 85, 255);"></line><line x1="208.99999999999977" y1="270" x2="208.99999999999977" y2="242.56944585220248" stroke-width="2px" style="stroke: rgb(0, 85, 255);"></line><line x1="209.99999999999977" y1="270" x2="209.99999999999977" y2="242.99272165947326" stroke-width="2px" style="stroke: rgb(0, 85, 255);"></line><line x1="210.99999999999977" y1="270" x2="210.99999999999977" y2="243.40969571096088" stroke-width="2px" style="stroke: rgb(0, 85, 255);"></line><line x1="211.99999999999977" y1="270" x2="211.99999999999977" y2="243.82046182758597" stroke-width="2px" style="stroke: rgb(0, 85, 255);"></line><line x1="212.99999999999977" y1="270" x2="212.99999999999977" y2="244.22511243345772" stroke-width="2px" style="stroke: rgb(0, 85, 255);"></line><line x1="213.99999999999977" y1="270" x2="213.99999999999977" y2="244.6237385766696" stroke-width="2px" style="stroke: rgb(0, 85, 255);"></line><line x1="214.99999999999972" y1="270" x2="214.99999999999972" y2="245.01642994978556" stroke-width="2px" style="stroke: rgb(0, 85, 255);"></line><line x1="215.99999999999972" y1="270" x2="215.99999999999972" y2="245.4032749100212" stroke-width="2px" style="stroke: rgb(0, 85, 255);"></line><line x1="216.99999999999972" y1="270" x2="216.99999999999972" y2="245.7843604991246" stroke-width="2px" style="stroke: rgb(0, 85, 255);"></line><line x1="217.99999999999972" y1="270" x2="217.99999999999972" y2="246.15977246296103" stroke-width="2px" style="stroke: rgb(0, 85, 255);"></line><line x1="218.99999999999972" y1="270" x2="218.99999999999972" y2="246.52959527080614" stroke-width="2px" style="stroke: rgb(0, 85, 255);"></line><line x1="219.99999999999972" y1="270" x2="219.99999999999972" y2="246.89391213435187" stroke-width="2px" style="stroke: rgb(0, 85, 255);"></line><line x1="220.99999999999972" y1="270" x2="220.99999999999972" y2="247.2528050264295" stroke-width="2px" style="stroke: rgb(0, 85, 255);"></line><line x1="221.99999999999972" y1="270" x2="221.99999999999972" y2="247.60635469945387" stroke-width="2px" style="stroke: rgb(0, 85, 255);"></line><line x1="222.99999999999972" y1="270" x2="222.99999999999972" y2="247.95464070359296" stroke-width="2px" style="stroke: rgb(0, 85, 255);"></line><line x1="223.99999999999966" y1="270" x2="223.99999999999966" y2="248.29774140466697" stroke-width="2px" style="stroke: rgb(0, 85, 255);"></line><line x1="224.99999999999966" y1="270" x2="224.99999999999966" y2="248.63573400178117" stroke-width="2px" style="stroke: rgb(0, 85, 255);"></line><line x1="225.99999999999966" y1="270" x2="225.99999999999966" y2="248.9686945446958" stroke-width="2px" style="stroke: rgb(0, 85, 255);"></line><line x1="226.99999999999966" y1="270" x2="226.99999999999966" y2="249.29669795093776" stroke-width="2px" style="stroke: rgb(0, 85, 255);"></line><line x1="227.99999999999966" y1="270" x2="227.99999999999966" y2="249.61981802265717" stroke-width="2px" style="stroke: rgb(0, 85, 255);"></line><line x1="228.99999999999963" y1="270" x2="228.99999999999963" y2="249.93812746323337" stroke-width="2px" style="stroke: rgb(0, 85, 255);"></line><line x1="229.99999999999963" y1="270" x2="229.99999999999963" y2="250.25169789363332" stroke-width="2px" style="stroke: rgb(0, 85, 255);"></line><line x1="230.99999999999963" y1="270" x2="230.99999999999963" y2="250.56059986852682" stroke-width="2px" style="stroke: rgb(0, 85, 255);"></line><line x1="231.99999999999963" y1="270" x2="231.99999999999963" y2="250.86490289216135" stroke-width="2px" style="stroke: rgb(0, 85, 255);"></line><line x1="232.99999999999963" y1="270" x2="232.99999999999963" y2="251.16467543400105" stroke-width="2px" style="stroke: rgb(0, 85, 255);"></line><line x1="233.99999999999963" y1="270" x2="233.99999999999963" y2="251.45998494413251" stroke-width="2px" style="stroke: rgb(0, 85, 255);"></line><line x1="234.99999999999963" y1="270" x2="234.99999999999963" y2="251.75089786844134" stroke-width="2px" style="stroke: rgb(0, 85, 255);"></line><line x1="235.99999999999963" y1="270" x2="235.99999999999963" y2="252.0374796635628" stroke-width="2px" style="stroke: rgb(0, 85, 255);"></line><line x1="236.99999999999966" y1="270" x2="236.99999999999966" y2="252.31979481160982" stroke-width="2px" style="stroke: rgb(0, 85, 255);"></line><line x1="237.99999999999966" y1="270" x2="237.99999999999966" y2="252.59790683468177" stroke-width="2px" style="stroke: rgb(0, 85, 255);"></line><line x1="238.9999999999997" y1="270" x2="238.9999999999997" y2="252.8718783091571" stroke-width="2px" style="stroke: rgb(0, 85, 255);"></line><line x1="239.9999999999997" y1="270" x2="239.9999999999997" y2="253.1417708797734" stroke-width="2px" style="stroke: rgb(0, 85, 255);"></line><line x1="240.9999999999997" y1="270" x2="240.9999999999997" y2="253.40764527349768" stroke-width="2px" style="stroke: rgb(0, 85, 255);"></line><line x1="241.9999999999997" y1="270" x2="241.9999999999997" y2="253.6695613131902" stroke-width="2px" style="stroke: rgb(0, 85, 255);"></line><line x1="242.9999999999997" y1="270" x2="242.9999999999997" y2="253.92757793106483" stroke-width="2px" style="stroke: rgb(0, 85, 255);"></line><line x1="243.99999999999972" y1="270" x2="243.99999999999972" y2="254.18175318194915" stroke-width="2px" style="stroke: rgb(0, 85, 255);"></line><line x1="244.99999999999972" y1="270" x2="244.99999999999972" y2="254.4321442563469" stroke-width="2px" style="stroke: rgb(0, 85, 255);"></line><line x1="245.99999999999974" y1="270" x2="245.99999999999974" y2="254.67880749330615" stroke-width="2px" style="stroke: rgb(0, 85, 255);"></line><line x1="246.99999999999974" y1="270" x2="246.99999999999974" y2="254.92179839309586" stroke-width="2px" style="stroke: rgb(0, 85, 255);"></line><line x1="247.99999999999974" y1="270" x2="247.99999999999974" y2="255.16117162969357" stroke-width="2px" style="stroke: rgb(0, 85, 255);"></line><line x1="248.99999999999974" y1="270" x2="248.99999999999974" y2="255.39698106308742" stroke-width="2px" style="stroke: rgb(0, 85, 255);"></line><line x1="249.99999999999977" y1="270" x2="249.99999999999977" y2="255.62927975139473" stroke-width="2px" style="stroke: rgb(0, 85, 255);"></line><line x1="250.99999999999977" y1="270" x2="250.99999999999977" y2="255.8581199628004" stroke-width="2px" style="stroke: rgb(0, 85, 255);"></line><line x1="251.99999999999977" y1="270" x2="251.99999999999977" y2="256.0835531873174" stroke-width="2px" style="stroke: rgb(0, 85, 255);"></line><line x1="252.9999999999998" y1="270" x2="252.9999999999998" y2="256.3056301483723" stroke-width="2px" style="stroke: rgb(0, 85, 255);"></line><line x1="253.9999999999998" y1="270" x2="253.9999999999998" y2="256.5244008142183" stroke-width="2px" style="stroke: rgb(0, 85, 255);"></line><line x1="254.9999999999998" y1="270" x2="254.9999999999998" y2="256.7399144091781" stroke-width="2px" style="stroke: rgb(0, 85, 255);"></line><line x1="255.9999999999998" y1="270" x2="255.9999999999998" y2="256.9522194247197" stroke-width="2px" style="stroke: rgb(0, 85, 255);"></line><line x1="256.99999999999983" y1="270" x2="256.99999999999983" y2="257.1613636303674" stroke-width="2px" style="stroke: rgb(0, 85, 255);"></line><line x1="257.99999999999983" y1="270" x2="257.99999999999983" y2="257.36739408444976" stroke-width="2px" style="stroke: rgb(0, 85, 255);"></line><line x1="258.99999999999983" y1="270" x2="258.99999999999983" y2="257.57035714468816" stroke-width="2px" style="stroke: rgb(0, 85, 255);"></line><line x1="259.9999999999999" y1="270" x2="259.9999999999999" y2="257.77029847862735" stroke-width="2px" style="stroke: rgb(0, 85, 255);"></line><line x1="260.9999999999999" y1="270" x2="260.9999999999999" y2="257.967263073911" stroke-width="2px" style="stroke: rgb(0, 85, 255);"></line><line x1="261.9999999999999" y1="270" x2="261.9999999999999" y2="258.161295248404" stroke-width="2px" style="stroke: rgb(0, 85, 255);"></line><line x1="262.9999999999999" y1="270" x2="262.9999999999999" y2="258.3524386601642" stroke-width="2px" style="stroke: rgb(0, 85, 255);"></line><line x1="263.9999999999999" y1="270" x2="263.9999999999999" y2="258.54073631726567" stroke-width="2px" style="stroke: rgb(0, 85, 255);"></line><line x1="264.9999999999999" y1="270" x2="264.9999999999999" y2="258.7262305874756" stroke-width="2px" style="stroke: rgb(0, 85, 255);"></line><line x1="265.9999999999999" y1="270" x2="265.9999999999999" y2="258.90896320778734" stroke-width="2px" style="stroke: rgb(0, 85, 255);"></line><line x1="266.9999999999999" y1="270" x2="266.9999999999999" y2="259.08897529381136" stroke-width="2px" style="stroke: rgb(0, 85, 255);"></line><line x1="267.9999999999999" y1="270" x2="267.9999999999999" y2="259.26630734902653" stroke-width="2px" style="stroke: rgb(0, 85, 255);"></line><line x1="268.9999999999999" y1="270" x2="268.9999999999999" y2="259.4409992738933" stroke-width="2px" style="stroke: rgb(0, 85, 255);"></line><line x1="269.9999999999999" y1="270" x2="269.9999999999999" y2="259.6130903748318" stroke-width="2px" style="stroke: rgb(0, 85, 255);"></line><line x1="270.9999999999999" y1="270" x2="270.9999999999999" y2="259.7826193730658" stroke-width="2px" style="stroke: rgb(0, 85, 255);"></line><line x1="272" y1="270" x2="272" y2="259.949624413335" stroke-width="2px" style="stroke: rgb(0, 85, 255);"></line><line x1="273" y1="270" x2="273" y2="260.11414307247816" stroke-width="2px" style="stroke: rgb(0, 85, 255);"></line><line x1="274" y1="270" x2="274" y2="260.2762123678875" stroke-width="2px" style="stroke: rgb(0, 85, 255);"></line><line x1="275" y1="270" x2="275" y2="260.43586876583834" stroke-width="2px" style="stroke: rgb(0, 85, 255);"></line><line x1="276" y1="270" x2="276" y2="260.5931481896937" stroke-width="2px" style="stroke: rgb(0, 85, 255);"></line><line x1="277" y1="270" x2="277" y2="260.74808602798754" stroke-width="2px" style="stroke: rgb(0, 85, 255);"></line><line x1="278" y1="270" x2="278" y2="260.90071714238707" stroke-width="2px" style="stroke: rgb(0, 85, 255);"></line><line x1="279" y1="270" x2="279" y2="261.0510758755369" stroke-width="2px" style="stroke: rgb(0, 85, 255);"></line><line x1="280" y1="270" x2="280" y2="261.1991960587865" stroke-width="2px" style="stroke: rgb(0, 85, 255);"></line><line x1="281" y1="270" x2="281" y2="261.34511101980183" stroke-width="2px" style="stroke: rgb(0, 85, 255);"></line><line x1="282" y1="270" x2="282" y2="261.48885359006476" stroke-width="2px" style="stroke: rgb(0, 85, 255);"></line><line x1="283" y1="270" x2="283" y2="261.63045611226" stroke-width="2px" style="stroke: rgb(0, 85, 255);"></line><line x1="284" y1="270" x2="284" y2="261.7699504475524" stroke-width="2px" style="stroke: rgb(0, 85, 255);"></line><line x1="285" y1="270" x2="285" y2="261.907367982756" stroke-width="2px" style="stroke: rgb(0, 85, 255);"></line><line x1="286.0000000000001" y1="270" x2="286.0000000000001" y2="262.0427396373958" stroke-width="2px" style="stroke: rgb(0, 85, 255);"></line><line x1="287.0000000000001" y1="270" x2="287.0000000000001" y2="262.1760958706654" stroke-width="2px" style="stroke: rgb(0, 85, 255);"></line><line x1="288.0000000000001" y1="270" x2="288.0000000000001" y2="262.3074666882797" stroke-width="2px" style="stroke: rgb(0, 85, 255);"></line><line x1="289.0000000000001" y1="270" x2="289.0000000000001" y2="262.43688164922696" stroke-width="2px" style="stroke: rgb(0, 85, 255);"></line><line x1="290.0000000000001" y1="270" x2="290.0000000000001" y2="262.56436987241943" stroke-width="2px" style="stroke: rgb(0, 85, 255);"></line><line x1="291.0000000000001" y1="270" x2="291.0000000000001" y2="262.68996004324504" stroke-width="2px" style="stroke: rgb(0, 85, 255);"></line><line x1="292.0000000000001" y1="270" x2="292.0000000000001" y2="262.8136804200222" stroke-width="2px" style="stroke: rgb(0, 85, 255);"></line><line x1="293.0000000000001" y1="270" x2="293.0000000000001" y2="262.93555884035754" stroke-width="2px" style="stroke: rgb(0, 85, 255);"></line><line x1="294.0000000000001" y1="270" x2="294.0000000000001" y2="263.05562272740985" stroke-width="2px" style="stroke: rgb(0, 85, 255);"></line><line x1="295.0000000000001" y1="270" x2="295.0000000000001" y2="263.1738990960602" stroke-width="2px" style="stroke: rgb(0, 85, 255);"></line><line x1="296.0000000000001" y1="270" x2="296.0000000000001" y2="263.2904145589906" stroke-width="2px" style="stroke: rgb(0, 85, 255);"></line><line x1="297.0000000000001" y1="270" x2="297.0000000000001" y2="263.40519533267167" stroke-width="2px" style="stroke: rgb(0, 85, 255);"></line><line x1="298.0000000000001" y1="270" x2="298.0000000000001" y2="263.51826724326185" stroke-width="2px" style="stroke: rgb(0, 85, 255);"></line><line x1="299.0000000000001" y1="270" x2="299.0000000000001" y2="263.62965573241786" stroke-width="2px" style="stroke: rgb(0, 85, 255);"></line><text x="100" y="310" style="font-family: sans-serif; font-size: 9pt; stroke: rgb(0, 85, 255); text-anchor: middle;">0.000</text><text x="299.7154849035993" y="310" style="font-family: sans-serif; font-size: 9pt; stroke: rgb(0, 85, 255); text-anchor: middle;">5.991</text><text x="199.85774245179965" y="310" style="font-family: sans-serif; font-size: 9pt; stroke: rgb(0, 85, 255); text-anchor: middle;">&lt;- Accept H₀ -&gt;</text><text x="349.7154849035993" y="310" style="font-family: sans-serif; font-size: 9pt; stroke: red; text-anchor: middle;">&lt;- Reject H₀</text><text x="349.7154849035993" y="250" style="font-family: sans-serif; font-size: 9pt; stroke: red; text-anchor: middle;">0.050</text><line x1="233.4718051384718" y1="270" x2="233.4718051384718" y2="330" stroke-width="2px" style="stroke: green;"></line><text x="233.4718051384718" y="345" style="font-family: sans-serif; font-size: 9pt; stroke: green; text-anchor: middle;">[TestStat] = 4.004</text><text x="233.4718051384718" y="360" style="font-family: sans-serif; font-size: 9pt; stroke: green; text-anchor: middle;">p-value = 0.1351</text><text x="300" y="380" style="font-family: sans-serif; font-size: 9pt; stroke: blue; text-anchor: middle;">[Decision] Accept H₀</text></svg>