<svg xmlns="http://www.w3.org/2000/svg" id="SVG" width="600" height="560"><text x="290" y="50" style="font-size: 17px; font-family: sans-seirf; stroke: black; text-anchor: middle;">(Group  V2 V3 V4 )  Region  Line Graph</text><text x="290" y="530" style="font-size: 12px; font-family: sans-seirf; stroke: black; text-anchor: middle;">Region</text><text x="25" y="95" transform="rotate(-90 30 100)" style="font-size: 12px; font-family: sans-seirf; stroke: black; text-anchor: end;"></text><line x1="80" x2="500" y1="480" y2="480" style="stroke: black;"></line><line x1="80" x2="500" y1="80" y2="80" style="stroke: black;"></line><line x1="150" x2="150" y1="480" y2="485" style="stroke: black; stroke-width: 0.5;"></line><text x="150" y="495" transform="rotate(0,150,495)  " style="text-anchor: middle; font-size: 9px; font-family: sans-serif;">NY</text><line x1="290" x2="290" y1="480" y2="485" style="stroke: black; stroke-width: 0.5;"></line><text x="290" y="495" transform="rotate(0,290,495)  " style="text-anchor: middle; font-size: 9px; font-family: sans-serif;">LA</text><line x1="430" x2="430" y1="480" y2="485" style="stroke: black; stroke-width: 0.5;"></line><text x="430" y="495" transform="rotate(0,430,495)  " style="text-anchor: middle; font-size: 9px; font-family: sans-serif;">ATL</text><g transform="translate(80,80)" fill="none" font-size="10" font-family="sans-serif" text-anchor="end"><path class="domain" stroke="#000" d="M-6,0.5H0.5V400.5H-6"></path><g class="tick" opacity="1" transform="translate(0,10.256097560975604)"><line stroke="#000" x2="-6"></line><text fill="#000" x="-9" dy="0.32em">80</text></g><g class="tick" opacity="1" transform="translate(0,59.03658536585368)"><line stroke="#000" x2="-6"></line><text fill="#000" x="-9" dy="0.32em">70</text></g><g class="tick" opacity="1" transform="translate(0,107.8170731707317)"><line stroke="#000" x2="-6"></line><text fill="#000" x="-9" dy="0.32em">60</text></g><g class="tick" opacity="1" transform="translate(0,156.59756097560975)"><line stroke="#000" x2="-6"></line><text fill="#000" x="-9" dy="0.32em">50</text></g><g class="tick" opacity="1" transform="translate(0,205.3780487804878)"><line stroke="#000" x2="-6"></line><text fill="#000" x="-9" dy="0.32em">40</text></g><g class="tick" opacity="1" transform="translate(0,254.15853658536585)"><line stroke="#000" x2="-6"></line><text fill="#000" x="-9" dy="0.32em">30</text></g><g class="tick" opacity="1" transform="translate(0,302.9390243902439)"><line stroke="#000" x2="-6"></line><text fill="#000" x="-9" dy="0.32em">20</text></g><g class="tick" opacity="1" transform="translate(0,351.719512195122)"><line stroke="#000" x2="-6"></line><text fill="#000" x="-9" dy="0.32em">10</text></g><g class="tick" opacity="1" transform="translate(0,400.5)"><line stroke="#000" x2="-6"></line><text fill="#000" x="-9" dy="0.32em">0</text></g></g><line x1="500" x2="500" y1="80" y2="480" style="stroke: black;"></line><circle cx="150" cy="226.34146341463415" r="4" style="fill: rgb(0, 85, 255);"><title>52</title></circle><circle cx="290" cy="187.3170731707317" r="4" style="fill: rgb(0, 85, 255);"><title>60</title></circle><line x1="150" x2="290" y1="226.34146341463415" y2="187.3170731707317" style="stroke: rgb(0, 85, 255);"></line><circle cx="430" cy="236.09756097560975" r="4" style="fill: rgb(0, 85, 255);"><title>50</title></circle><line x1="290" x2="430" y1="187.3170731707317" y2="236.09756097560975" style="stroke: rgb(0, 85, 255);"></line><circle cx="150" cy="167.8048780487805" r="4" style="fill: rgb(255, 69, 0);"><title>64</title></circle><circle cx="290" cy="192.1951219512195" r="4" style="fill: rgb(255, 69, 0);"><title>59</title></circle><line x1="150" x2="290" y1="167.8048780487805" y2="192.1951219512195" style="stroke: rgb(255, 69, 0);"></line><circle cx="430" cy="162.9268292682927" r="4" style="fill: rgb(255, 69, 0);"><title>65</title></circle><line x1="290" x2="430" y1="192.1951219512195" y2="162.9268292682927" style="stroke: rgb(255, 69, 0);"></line><circle cx="150" cy="362.9268292682927" r="4" style="fill: rgb(0, 170, 0);"><title>24</title></circle><circle cx="290" cy="226.34146341463415" r="4" style="fill: rgb(0, 170, 0);"><title>52</title></circle><line x1="150" x2="290" y1="362.9268292682927" y2="226.34146341463415" style="stroke: rgb(0, 170, 0);"></line><circle cx="430" cy="119.02439024390242" r="4" style="fill: rgb(0, 170, 0);"><title>74</title></circle><line x1="290" x2="430" y1="226.34146341463415" y2="119.02439024390242" style="stroke: rgb(0, 170, 0);"></line><circle cx="515" cy="100" r="4" style="fill: rgb(0, 85, 255);"></circle><text x="525" y="105" style="font-size: 12px; font-family: sans-seirf; stroke: rgb(0, 85, 255); text-anchor: start;">A</text><circle cx="515" cy="120" r="4" style="fill: rgb(255, 69, 0);"></circle><text x="525" y="125" style="font-size: 12px; font-family: sans-seirf; stroke: rgb(255, 69, 0); text-anchor: start;">B</text><circle cx="515" cy="140" r="4" style="fill: rgb(0, 170, 0);"></circle><text x="525" y="145" style="font-size: 12px; font-family: sans-seirf; stroke: rgb(0, 170, 0); text-anchor: start;">C</text></svg>