<svg xmlns="http://www.w3.org/2000/svg" id="SVG" width="600" height="560"><text x="300" y="40" style="stroke: black; font-size: 17px; font-family: sans-seirf; text-anchor: middle;">Scatter Plot Matrix</text><text x="75" y="151.66666666666669" style="stroke: rgb(0, 85, 255); font-size: 8px; font-family: sans-seirf; text-anchor: end;">Volume</text><text x="525" y="151.66666666666669" style="stroke: rgb(0, 85, 255); font-size: 8px; font-family: sans-seirf; text-anchor: start;">Volume</text><text x="75" y="295" style="stroke: rgb(0, 85, 255); font-size: 8px; font-family: sans-seirf; text-anchor: end;">Diameter</text><text x="525" y="295" style="stroke: rgb(0, 85, 255); font-size: 8px; font-family: sans-seirf; text-anchor: start;">Diameter</text><text x="75" y="438.33333333333337" style="stroke: rgb(0, 85, 255); font-size: 8px; font-family: sans-seirf; text-anchor: end;">Height</text><text x="525" y="438.33333333333337" style="stroke: rgb(0, 85, 255); font-size: 8px; font-family: sans-seirf; text-anchor: start;">Height</text><text x="153.33333333333331" y="525" style="stroke: rgb(0, 85, 255); font-size: 8px; font-family: sans-seirf; text-anchor: middle;">Volume</text><text x="153.33333333333331" y="70" style="stroke: rgb(0, 85, 255); font-size: 8px; font-family: sans-seirf; text-anchor: middle;">Volume</text><text x="300" y="525" style="stroke: rgb(0, 85, 255); font-size: 8px; font-family: sans-seirf; text-anchor: middle;">Diameter</text><text x="300" y="70" style="stroke: rgb(0, 85, 255); font-size: 8px; font-family: sans-seirf; text-anchor: middle;">Diameter</text><text x="446.66666666666663" y="525" style="stroke: rgb(0, 85, 255); font-size: 8px; font-family: sans-seirf; text-anchor: middle;">Height</text><text x="446.66666666666663" y="70" style="stroke: rgb(0, 85, 255); font-size: 8px; font-family: sans-seirf; text-anchor: middle;">Height</text><rect x="80" y="80" width="146.66666666666666" height="143.33333333333334" fill="white" style="stroke: black; stroke-width: 1px;"></rect><rect class="bar" x="80" y="223.33333333333334" width="9.166666666666668" height="0" style="fill: rgb(0, 85, 255); stroke: black; stroke-width: 1px;"></rect><rect class="bar" x="89.16666666666667" y="223.33333333333334" width="9.166666666666668" height="0" style="fill: rgb(0, 85, 255); stroke: black; stroke-width: 1px;"></rect><rect class="bar" x="98.33333333333334" y="223.33333333333334" width="9.166666666666668" height="0" style="fill: rgb(0, 85, 255); stroke: black; stroke-width: 1px;"></rect><rect class="bar" x="107.5" y="223.33333333333334" width="9.166666666666668" height="0" style="fill: rgb(0, 85, 255); stroke: black; stroke-width: 1px;"></rect><rect class="bar" x="116.66666666666667" y="223.33333333333334" width="9.166666666666668" height="0" style="fill: rgb(0, 85, 255); stroke: black; stroke-width: 1px;"></rect><rect class="bar" x="125.83333333333333" y="95.92592592592592" width="9.166666666666668" height="127.40740740740742" style="fill: rgb(0, 85, 255); stroke: black; stroke-width: 1px;"></rect><rect class="bar" x="135" y="138.39506172839504" width="9.166666666666668" height="84.9382716049383" style="fill: rgb(0, 85, 255); stroke: black; stroke-width: 1px;"></rect><rect class="bar" x="144.16666666666669" y="95.92592592592592" width="9.166666666666668" height="127.40740740740742" style="fill: rgb(0, 85, 255); stroke: black; stroke-width: 1px;"></rect><rect class="bar" x="153.33333333333334" y="95.92592592592592" width="9.166666666666668" height="127.40740740740742" style="fill: rgb(0, 85, 255); stroke: black; stroke-width: 1px;"></rect><rect class="bar" x="162.5" y="138.39506172839504" width="9.166666666666668" height="84.9382716049383" style="fill: rgb(0, 85, 255); stroke: black; stroke-width: 1px;"></rect><rect class="bar" x="171.66666666666666" y="223.33333333333334" width="9.166666666666668" height="0" style="fill: rgb(0, 85, 255); stroke: black; stroke-width: 1px;"></rect><rect class="bar" x="180.83333333333331" y="180.8641975308642" width="9.166666666666668" height="42.46913580246915" style="fill: rgb(0, 85, 255); stroke: black; stroke-width: 1px;"></rect><rect class="bar" x="190" y="180.8641975308642" width="9.166666666666668" height="42.46913580246915" style="fill: rgb(0, 85, 255); stroke: black; stroke-width: 1px;"></rect><rect class="bar" x="199.16666666666666" y="223.33333333333334" width="9.166666666666668" height="0" style="fill: rgb(0, 85, 255); stroke: black; stroke-width: 1px;"></rect><rect class="bar" x="208.33333333333334" y="223.33333333333334" width="9.166666666666668" height="0" style="fill: rgb(0, 85, 255); stroke: black; stroke-width: 1px;"></rect><rect class="bar" x="217.5" y="223.33333333333334" width="9.166666666666668" height="0" style="fill: rgb(0, 85, 255); stroke: black; stroke-width: 1px;"></rect><line x1="80" x2="81.45214521452145" y1="223.29070592808972" y2="223.27499892592357" style="stroke: red;"></line><line x1="81.45214521452145" x2="82.9042904290429" y1="223.27499892592357" y2="223.25400360530745" style="stroke: red;"></line><line x1="82.9042904290429" x2="84.35643564356435" y1="223.25400360530745" y2="223.22612651126633" style="stroke: red;"></line><line x1="84.35643564356435" x2="85.8085808580858" y1="223.22612651126633" y2="223.18935930320822" style="stroke: red;"></line><line x1="85.8085808580858" x2="87.26072607260726" y1="223.18935930320822" y2="223.14119183061547" style="stroke: red;"></line><line x1="87.26072607260726" x2="88.7128712871287" y1="223.14119183061547" y2="223.07851334796518" style="stroke: red;"></line><line x1="88.7128712871287" x2="90.16501650165016" y1="223.07851334796518" y2="222.99750210953275" style="stroke: red;"></line><line x1="90.16501650165016" x2="91.61716171617161" y1="222.99750210953275" y2="222.89350425353396" style="stroke: red;"></line><line x1="91.61716171617161" x2="93.06930693069306" y1="222.89350425353396" y2="222.76090372412375" style="stroke: red;"></line><line x1="93.06930693069306" x2="94.52145214521451" y1="222.76090372412375" y2="222.5929859907905" style="stroke: red;"></line><line x1="94.52145214521451" x2="95.97359735973598" y1="222.5929859907905" y2="222.38179949758236" style="stroke: red;"></line><line x1="95.97359735973598" x2="97.42574257425743" y1="222.38179949758236" y2="222.1180200845575" style="stroke: red;"></line><line x1="97.42574257425743" x2="98.87788778877888" y1="222.1180200845575" y2="221.790825028639" style="stroke: red;"></line><line x1="98.87788778877888" x2="100.33003300330033" y1="221.790825028639" y2="221.38778478908148" style="stroke: red;"></line><line x1="100.33003300330033" x2="101.78217821782178" y1="221.38778478908148" y2="220.89478193209783" style="stroke: red;"></line><line x1="101.78217821782178" x2="103.23432343234323" y1="220.89478193209783" y2="220.29596794814387" style="stroke: red;"></line><line x1="103.23432343234323" x2="104.68646864686468" y1="220.29596794814387" y2="219.57376964473406" style="stroke: red;"></line><line x1="104.68646864686468" x2="106.13861386138613" y1="219.57376964473406" y2="218.70895736526876" style="stroke: red;"></line><line x1="106.13861386138613" x2="107.59075907590758" y1="218.70895736526876" y2="217.680787311702" style="stroke: red;"></line><line x1="107.59075907590758" x2="109.04290429042905" y1="217.680787311702" y2="216.46722960018013" style="stroke: red;"></line><line x1="109.04290429042905" x2="110.49504950495049" y1="216.46722960018013" y2="215.0452922319862" style="stroke: red;"></line><line x1="110.49504950495049" x2="111.94719471947195" y1="215.0452922319862" y2="213.3914488215031" style="stroke: red;"></line><line x1="111.94719471947195" x2="113.39933993399339" y1="213.3914488215031" y2="211.48217463243026" style="stroke: red;"></line><line x1="113.39933993399339" x2="114.85148514851485" y1="211.48217463243026" y2="209.294591229984" style="stroke: red;"></line><line x1="114.85148514851485" x2="116.3036303630363" y1="209.294591229984" y2="206.8072149216785" style="stroke: red;"></line><line x1="116.3036303630363" x2="117.75577557755776" y1="206.8072149216785" y2="204.00079826741893" style="stroke: red;"></line><line x1="117.75577557755776" x2="119.20792079207921" y1="204.00079826741893" y2="200.8592475041774" style="stroke: red;"></line><line x1="119.20792079207921" x2="120.66006600660066" y1="200.8592475041774" y2="197.37059204215922" style="stroke: red;"></line><line x1="120.66006600660066" x2="122.11221122112212" y1="197.37059204215922" y2="193.5279756092521" style="stroke: red;"></line><line x1="122.11221122112212" x2="123.56435643564356" y1="193.5279756092521" y2="189.33063256615588" style="stroke: red;"></line><line x1="123.56435643564356" x2="125.01650165016501" y1="189.33063256615588" y2="184.78480783858873" style="stroke: red;"></line><line x1="125.01650165016501" x2="126.46864686468646" y1="184.78480783858873" y2="179.90457527566753" style="stroke: red;"></line><line x1="126.46864686468646" x2="127.92079207920793" y1="179.90457527566753" y2="174.71250748032924" style="stroke: red;"></line><line x1="127.92079207920793" x2="129.37293729372936" y1="174.71250748032924" y2="169.24015064327827" style="stroke: red;"></line><line x1="129.37293729372936" x2="130.82508250825083" y1="169.24015064327827" y2="163.52826092455746" style="stroke: red;"></line><line x1="130.82508250825083" x2="132.27722772277227" y1="163.52826092455746" y2="157.6267646145639" style="stroke: red;"></line><line x1="132.27722772277227" x2="133.7293729372937" y1="157.6267646145639" y2="151.59441265965899" style="stroke: red;"></line><line x1="133.7293729372937" x2="135.18151815181517" y1="151.59441265965899" y2="145.49811097077122" style="stroke: red;"></line><line x1="135.18151815181517" x2="136.63366336633663" y1="145.49811097077122" y2="139.41192087772788" style="stroke: red;"></line><line x1="136.63366336633663" x2="138.08580858085807" y1="139.41192087772788" y2="133.4157386021351" style="stroke: red;"></line><line x1="138.08580858085807" x2="139.5379537953795" y1="133.4157386021351" y2="127.59367799675931" style="stroke: red;"></line><line x1="139.5379537953795" x2="140.99009900990097" y1="127.59367799675931" y2="122.03219621874166" style="stroke: red;"></line><line x1="140.99009900990097" x2="142.44224422442244" y1="122.03219621874166" y2="116.81801657459461" style="stroke: red;"></line><line x1="142.44224422442244" x2="143.89438943894388" y1="116.81801657459461" y2="112.03591558900388" style="stroke: red;"></line><line x1="143.89438943894388" x2="145.3465346534653" y1="112.03591558900388" y2="107.76645154753673" style="stroke: red;"></line><line x1="145.3465346534653" x2="146.79867986798678" y1="107.76645154753673" y2="104.08371859814854" style="stroke: red;"></line><line x1="146.79867986798678" x2="148.25082508250824" y1="104.08371859814854" y2="101.05321339209813" style="stroke: red;"></line><line x1="148.25082508250824" x2="149.7029702970297" y1="101.05321339209813" y2="98.72989984691567" style="stroke: red;"></line><line x1="149.7029702970297" x2="151.15511551155114" y1="98.72989984691567" y2="97.1565518243195" style="stroke: red;"></line><line x1="151.15511551155114" x2="152.60726072607258" y1="97.1565518243195" y2="96.36244351031446" style="stroke: red;"></line><line x1="152.60726072607258" x2="154.05940594059405" y1="96.36244351031446" y2="96.36244351031445" style="stroke: red;"></line><line x1="154.05940594059405" x2="155.51155115511548" y1="96.36244351031445" y2="97.15655182431948" style="stroke: red;"></line><line x1="155.51155115511548" x2="156.96369636963692" y1="97.15655182431948" y2="98.72989984691563" style="stroke: red;"></line><line x1="156.96369636963692" x2="158.4158415841584" y1="98.72989984691563" y2="101.05321339209803" style="stroke: red;"></line><line x1="158.4158415841584" x2="159.86798679867985" y1="101.05321339209803" y2="104.08371859814847" style="stroke: red;"></line><line x1="159.86798679867985" x2="161.32013201320132" y1="104.08371859814847" y2="107.76645154753663" style="stroke: red;"></line><line x1="161.32013201320132" x2="162.77227722772273" y1="107.76645154753663" y2="112.03591558900372" style="stroke: red;"></line><line x1="162.77227722772273" x2="164.2244224422442" y1="112.03591558900372" y2="116.81801657459447" style="stroke: red;"></line><line x1="164.2244224422442" x2="165.67656765676566" y1="116.81801657459447" y2="122.03219621874152" style="stroke: red;"></line><line x1="165.67656765676566" x2="167.12871287128712" y1="122.03219621874152" y2="127.59367799675918" style="stroke: red;"></line><line x1="167.12871287128712" x2="168.58085808580853" y1="127.59367799675918" y2="133.41573860213498" style="stroke: red;"></line><line x1="168.58085808580853" x2="170.03300330033" y1="133.41573860213498" y2="139.4119208777277" style="stroke: red;"></line><line x1="170.03300330033" x2="171.48514851485143" y1="139.4119208777277" y2="145.49811097077105" style="stroke: red;"></line><line x1="171.48514851485143" x2="172.9372937293729" y1="145.49811097077105" y2="151.59441265965876" style="stroke: red;"></line><line x1="172.9372937293729" x2="174.38943894389433" y1="151.59441265965876" y2="157.62676461456377" style="stroke: red;"></line><line x1="174.38943894389433" x2="175.8415841584158" y1="157.62676461456377" y2="163.52826092455732" style="stroke: red;"></line><line x1="175.8415841584158" x2="177.29372937293724" y1="163.52826092455732" y2="169.24015064327813" style="stroke: red;"></line><line x1="177.29372937293724" x2="178.7458745874587" y1="169.24015064327813" y2="174.7125074803291" style="stroke: red;"></line><line x1="178.7458745874587" x2="180.19801980198014" y1="174.7125074803291" y2="179.90457527566736" style="stroke: red;"></line><line x1="180.19801980198014" x2="181.6501650165016" y1="179.90457527566736" y2="184.7848078385886" style="stroke: red;"></line><line x1="181.6501650165016" x2="183.102310231023" y1="184.7848078385886" y2="189.33063256615574" style="stroke: red;"></line><line x1="183.102310231023" x2="184.5544554455445" y1="189.33063256615574" y2="193.527975609252" style="stroke: red;"></line><line x1="184.5544554455445" x2="186.00660066006594" y1="193.527975609252" y2="197.3705920421591" style="stroke: red;"></line><line x1="186.00660066006594" x2="187.4587458745874" y1="197.3705920421591" y2="200.8592475041773" style="stroke: red;"></line><line x1="187.4587458745874" x2="188.91089108910887" y1="200.8592475041773" y2="204.00079826741884" style="stroke: red;"></line><line x1="188.91089108910887" x2="190.3630363036303" y1="204.00079826741884" y2="206.80721492167842" style="stroke: red;"></line><line x1="190.3630363036303" x2="191.81518151815175" y1="206.80721492167842" y2="209.29459122998395" style="stroke: red;"></line><line x1="191.81518151815175" x2="193.2673267326732" y1="209.29459122998395" y2="211.48217463243017" style="stroke: red;"></line><line x1="193.2673267326732" x2="194.71947194719468" y1="211.48217463243017" y2="213.39144882150305" style="stroke: red;"></line><line x1="194.71947194719468" x2="196.1716171617161" y1="213.39144882150305" y2="215.04529223198617" style="stroke: red;"></line><line x1="196.1716171617161" x2="197.62376237623755" y1="215.04529223198617" y2="216.46722960018008" style="stroke: red;"></line><line x1="197.62376237623755" x2="199.07590759075902" y1="216.46722960018008" y2="217.68078731170198" style="stroke: red;"></line><line x1="199.07590759075902" x2="200.52805280528045" y1="217.68078731170198" y2="218.70895736526873" style="stroke: red;"></line><line x1="200.52805280528045" x2="201.9801980198019" y1="218.70895736526873" y2="219.57376964473403" style="stroke: red;"></line><line x1="201.9801980198019" x2="203.43234323432335" y1="219.57376964473403" y2="220.29596794814384" style="stroke: red;"></line><line x1="203.43234323432335" x2="204.88448844884482" y1="220.29596794814384" y2="220.8947819320978" style="stroke: red;"></line><line x1="204.88448844884482" x2="206.33663366336626" y1="220.8947819320978" y2="221.38778478908145" style="stroke: red;"></line><line x1="206.33663366336626" x2="207.78877887788772" y1="221.38778478908145" y2="221.79082502863898" style="stroke: red;"></line><line x1="207.78877887788772" x2="209.24092409240916" y1="221.79082502863898" y2="222.1180200845575" style="stroke: red;"></line><line x1="209.24092409240916" x2="210.69306930693062" y1="222.1180200845575" y2="222.38179949758236" style="stroke: red;"></line><line x1="210.69306930693062" x2="212.14521452145206" y1="222.38179949758236" y2="222.59298599079048" style="stroke: red;"></line><line x1="212.14521452145206" x2="213.59735973597353" y1="222.59298599079048" y2="222.76090372412375" style="stroke: red;"></line><line x1="213.59735973597353" x2="215.04950495049496" y1="222.76090372412375" y2="222.89350425353393" style="stroke: red;"></line><line x1="215.04950495049496" x2="216.50165016501643" y1="222.89350425353393" y2="222.99750210953275" style="stroke: red;"></line><line x1="216.50165016501643" x2="217.95379537953787" y1="222.99750210953275" y2="223.07851334796518" style="stroke: red;"></line><line x1="217.95379537953787" x2="219.40594059405933" y1="223.07851334796518" y2="223.14119183061547" style="stroke: red;"></line><line x1="219.40594059405933" x2="220.8580858085808" y1="223.14119183061547" y2="223.18935930320822" style="stroke: red;"></line><line x1="220.8580858085808" x2="222.3102310231022" y1="223.18935930320822" y2="223.22612651126633" style="stroke: red;"></line><line x1="222.3102310231022" x2="223.76237623762367" y1="223.22612651126633" y2="223.25400360530745" style="stroke: red;"></line><line x1="223.76237623762367" x2="225.2145214521451" y1="223.25400360530745" y2="223.27499892592357" style="stroke: red;"></line><rect x="80" y="223.33333333333334" width="146.66666666666666" height="143.33333333333334" fill="white" style="stroke: black; stroke-width: 1px;"></rect><circle data-sheetrowid="0" class="datapoint" r="3" cx="101.34721225173486" cy="338" style="fill: rgb(255, 69, 0); stroke: black;"><title>(0.291,21)</title></circle><circle data-sheetrowid="1" class="datapoint" r="3" cx="101.34721225173486" cy="334.48979591836735" style="fill: rgb(255, 69, 0); stroke: black;"><title>(0.291,21.8)</title></circle><circle data-sheetrowid="2" class="datapoint" r="3" cx="100.95238095238095" cy="332.2959183673469" style="fill: rgb(255, 69, 0); stroke: black;"><title>(0.288,22.3)</title></circle><circle data-sheetrowid="3" class="datapoint" r="3" cx="124.11581718114383" cy="313.42857142857144" style="fill: rgb(255, 69, 0); stroke: black;"><title>(0.464,26.6)</title></circle><circle data-sheetrowid="4" class="datapoint" r="3" cx="133.06532663316582" cy="311.234693877551" style="fill: rgb(255, 69, 0); stroke: black;"><title>(0.532,27.1)</title></circle><circle data-sheetrowid="5" class="datapoint" r="3" cx="136.3555874611151" cy="309.9183673469388" style="fill: rgb(255, 69, 0); stroke: black;"><title>(0.557,27.4)</title></circle><circle data-sheetrowid="6" class="datapoint" r="3" cx="121.08877721943048" cy="307.7244897959184" style="fill: rgb(255, 69, 0); stroke: black;"><title>(0.441,27.9)</title></circle><circle data-sheetrowid="7" class="datapoint" r="3" cx="130.82794927016033" cy="307.7244897959184" style="fill: rgb(255, 69, 0); stroke: black;"><title>(0.515,27.9)</title></circle><circle data-sheetrowid="8" class="datapoint" r="3" cx="142.40966738454176" cy="299.82653061224494" style="fill: rgb(255, 69, 0); stroke: black;"><title>(0.603,29.7)</title></circle><circle data-sheetrowid="9" class="datapoint" r="3" cx="145.69992821249102" cy="286.66326530612247" style="fill: rgb(255, 69, 0); stroke: black;"><title>(0.628,32.7)</title></circle><circle data-sheetrowid="10" class="datapoint" r="3" cx="188.86815027518543" cy="286.66326530612247" style="fill: rgb(255, 69, 0); stroke: black;"><title>(0.956,32.7)</title></circle><circle data-sheetrowid="11" class="datapoint" r="3" cx="165.04666188083274" cy="282.2755102040816" style="fill: rgb(255, 69, 0); stroke: black;"><title>(0.775,33.7)</title></circle><circle data-sheetrowid="12" class="datapoint" r="3" cx="158.72936109117012" cy="277.88775510204084" style="fill: rgb(255, 69, 0); stroke: black;"><title>(0.727,34.7)</title></circle><circle data-sheetrowid="13" class="datapoint" r="3" cx="155.70232112945678" cy="276.57142857142856" style="fill: rgb(255, 69, 0); stroke: black;"><title>(0.704,35)</title></circle><circle data-sheetrowid="14" class="datapoint" r="3" cx="205.71428571428572" cy="252" style="fill: rgb(255, 69, 0); stroke: black;"><title>(1.084,40.6)</title></circle><rect x="80" y="366.6666666666667" width="146.66666666666666" height="143.33333333333334" fill="white" style="stroke: black; stroke-width: 1px;"></rect><circle data-sheetrowid="0" class="datapoint" r="3" cx="101.34721225173486" cy="455.2020922491679" style="fill: rgb(0, 170, 0); stroke: black;"><title>(0.291,21.33)</title></circle><circle data-sheetrowid="1" class="datapoint" r="3" cx="101.34721225173486" cy="473.849738468854" style="fill: rgb(0, 170, 0); stroke: black;"><title>(0.291,19.81)</title></circle><circle data-sheetrowid="2" class="datapoint" r="3" cx="100.95238095238095" cy="481.3333333333333" style="fill: rgb(0, 170, 0); stroke: black;"><title>(0.288,19.2)</title></circle><circle data-sheetrowid="3" class="datapoint" r="3" cx="124.11581718114383" cy="447.71849738468853" style="fill: rgb(0, 170, 0); stroke: black;"><title>(0.464,21.94)</title></circle><circle data-sheetrowid="4" class="datapoint" r="3" cx="133.06532663316582" cy="414.10366143604375" style="fill: rgb(0, 170, 0); stroke: black;"><title>(0.532,24.68)</title></circle><circle data-sheetrowid="5" class="datapoint" r="3" cx="136.3555874611151" cy="406.62006657156445" style="fill: rgb(0, 170, 0); stroke: black;"><title>(0.557,25.29)</title></circle><circle data-sheetrowid="6" class="datapoint" r="3" cx="121.08877721943048" cy="470.1692819781265" style="fill: rgb(0, 170, 0); stroke: black;"><title>(0.441,20.11)</title></circle><circle data-sheetrowid="7" class="datapoint" r="3" cx="130.82794927016033" cy="436.43176414645745" style="fill: rgb(0, 170, 0); stroke: black;"><title>(0.515,22.86)</title></circle><circle data-sheetrowid="8" class="datapoint" r="3" cx="142.40966738454176" cy="458.88254873989536" style="fill: rgb(0, 170, 0); stroke: black;"><title>(0.603,21.03)</title></circle><circle data-sheetrowid="9" class="datapoint" r="3" cx="145.69992821249102" cy="440.2349025202092" style="fill: rgb(0, 170, 0); stroke: black;"><title>(0.628,22.55)</title></circle><circle data-sheetrowid="10" class="datapoint" r="3" cx="188.86815027518543" cy="399.1364717070851" style="fill: rgb(0, 170, 0); stroke: black;"><title>(0.956,25.9)</title></circle><circle data-sheetrowid="11" class="datapoint" r="3" cx="165.04666188083274" cy="395.3333333333333" style="fill: rgb(0, 170, 0); stroke: black;"><title>(0.775,26.21)</title></circle><circle data-sheetrowid="12" class="datapoint" r="3" cx="158.72936109117012" cy="451.39895387541605" style="fill: rgb(0, 170, 0); stroke: black;"><title>(0.727,21.64)</title></circle><circle data-sheetrowid="13" class="datapoint" r="3" cx="155.70232112945678" cy="477.6528768426058" style="fill: rgb(0, 170, 0); stroke: black;"><title>(0.704,19.5)</title></circle><circle data-sheetrowid="14" class="datapoint" r="3" cx="205.71428571428572" cy="447.71849738468853" style="fill: rgb(0, 170, 0); stroke: black;"><title>(1.084,21.94)</title></circle><rect x="226.66666666666666" y="80" width="146.66666666666666" height="143.33333333333334" fill="white" style="stroke: black; stroke-width: 1px;"></rect><circle data-sheetrowid="0" class="datapoint" r="3" cx="247.61904761904762" cy="194.3425460636516" style="fill: rgb(255, 228, 0); stroke: black;"><title>(21,0.291)</title></circle><circle data-sheetrowid="1" class="datapoint" r="3" cx="251.89504373177843" cy="194.3425460636516" style="fill: rgb(255, 228, 0); stroke: black;"><title>(21.8,0.291)</title></circle><circle data-sheetrowid="2" class="datapoint" r="3" cx="254.56754130223518" cy="194.66666666666669" style="fill: rgb(255, 228, 0); stroke: black;"><title>(22.3,0.288)</title></circle><circle data-sheetrowid="3" class="datapoint" r="3" cx="277.55102040816325" cy="175.65159128978226" style="fill: rgb(255, 228, 0); stroke: black;"><title>(26.6,0.464)</title></circle><circle data-sheetrowid="4" class="datapoint" r="3" cx="280.22351797862" cy="168.30485762144053" style="fill: rgb(255, 228, 0); stroke: black;"><title>(27.1,0.532)</title></circle><circle data-sheetrowid="5" class="datapoint" r="3" cx="281.82701652089406" cy="165.6038525963149" style="fill: rgb(255, 228, 0); stroke: black;"><title>(27.4,0.557)</title></circle><circle data-sheetrowid="6" class="datapoint" r="3" cx="284.4995140913508" cy="178.13651591289783" style="fill: rgb(255, 228, 0); stroke: black;"><title>(27.9,0.441)</title></circle><circle data-sheetrowid="7" class="datapoint" r="3" cx="284.4995140913508" cy="170.141541038526" style="fill: rgb(255, 228, 0); stroke: black;"><title>(27.9,0.515)</title></circle><circle data-sheetrowid="8" class="datapoint" r="3" cx="294.12050534499514" cy="160.63400335008376" style="fill: rgb(255, 228, 0); stroke: black;"><title>(29.7,0.603)</title></circle><circle data-sheetrowid="9" class="datapoint" r="3" cx="310.15549076773567" cy="157.93299832495813" style="fill: rgb(255, 228, 0); stroke: black;"><title>(32.7,0.628)</title></circle><circle data-sheetrowid="10" class="datapoint" r="3" cx="310.15549076773567" cy="122.4958123953099" style="fill: rgb(255, 228, 0); stroke: black;"><title>(32.7,0.956)</title></circle><circle data-sheetrowid="11" class="datapoint" r="3" cx="315.5004859086492" cy="142.05108877721943" style="fill: rgb(255, 228, 0); stroke: black;"><title>(33.7,0.775)</title></circle><circle data-sheetrowid="12" class="datapoint" r="3" cx="320.8454810495627" cy="147.23701842546063" style="fill: rgb(255, 228, 0); stroke: black;"><title>(34.7,0.727)</title></circle><circle data-sheetrowid="13" class="datapoint" r="3" cx="322.44897959183675" cy="149.72194304857624" style="fill: rgb(255, 228, 0); stroke: black;"><title>(35,0.704)</title></circle><circle data-sheetrowid="14" class="datapoint" r="3" cx="352.38095238095235" cy="108.66666666666669" style="fill: rgb(255, 228, 0); stroke: black;"><title>(40.6,1.084)</title></circle><rect x="226.66666666666666" y="223.33333333333334" width="146.66666666666666" height="143.33333333333334" fill="white" style="stroke: black; stroke-width: 1px;"></rect><rect class="bar" x="226.66666666666666" y="366.6666666666667" width="9.166666666666666" height="0" style="fill: rgb(255, 0, 221); stroke: black; stroke-width: 1px;"></rect><rect class="bar" x="235.83333333333331" y="366.6666666666667" width="9.166666666666666" height="0" style="fill: rgb(255, 0, 221); stroke: black; stroke-width: 1px;"></rect><rect class="bar" x="245" y="366.6666666666667" width="9.166666666666666" height="0" style="fill: rgb(255, 0, 221); stroke: black; stroke-width: 1px;"></rect><rect class="bar" x="254.16666666666666" y="366.6666666666667" width="9.166666666666666" height="0" style="fill: rgb(255, 0, 221); stroke: black; stroke-width: 1px;"></rect><rect class="bar" x="263.3333333333333" y="334.81481481481484" width="9.166666666666666" height="31.851851851851855" style="fill: rgb(255, 0, 221); stroke: black; stroke-width: 1px;"></rect><rect class="bar" x="272.5" y="302.962962962963" width="9.166666666666666" height="63.70370370370371" style="fill: rgb(255, 0, 221); stroke: black; stroke-width: 1px;"></rect><rect class="bar" x="281.66666666666663" y="334.81481481481484" width="9.166666666666666" height="31.851851851851855" style="fill: rgb(255, 0, 221); stroke: black; stroke-width: 1px;"></rect><rect class="bar" x="290.8333333333333" y="239.25925925925927" width="9.166666666666666" height="127.40740740740742" style="fill: rgb(255, 0, 221); stroke: black; stroke-width: 1px;"></rect><rect class="bar" x="300" y="334.81481481481484" width="9.166666666666666" height="31.851851851851855" style="fill: rgb(255, 0, 221); stroke: black; stroke-width: 1px;"></rect><rect class="bar" x="309.1666666666667" y="239.25925925925927" width="9.166666666666666" height="127.40740740740742" style="fill: rgb(255, 0, 221); stroke: black; stroke-width: 1px;"></rect><rect class="bar" x="318.3333333333333" y="334.81481481481484" width="9.166666666666666" height="31.851851851851855" style="fill: rgb(255, 0, 221); stroke: black; stroke-width: 1px;"></rect><rect class="bar" x="327.49999999999994" y="366.6666666666667" width="9.166666666666666" height="0" style="fill: rgb(255, 0, 221); stroke: black; stroke-width: 1px;"></rect><rect class="bar" x="336.66666666666663" y="334.81481481481484" width="9.166666666666666" height="31.851851851851855" style="fill: rgb(255, 0, 221); stroke: black; stroke-width: 1px;"></rect><rect class="bar" x="345.83333333333326" y="366.6666666666667" width="9.166666666666666" height="0" style="fill: rgb(255, 0, 221); stroke: black; stroke-width: 1px;"></rect><rect class="bar" x="355" y="366.6666666666667" width="9.166666666666666" height="0" style="fill: rgb(255, 0, 221); stroke: black; stroke-width: 1px;"></rect><rect class="bar" x="364.16666666666663" y="366.6666666666667" width="9.166666666666666" height="0" style="fill: rgb(255, 0, 221); stroke: black; stroke-width: 1px;"></rect><line x1="226.66666666666666" x2="228.11881188118812" y1="366.634696112734" y2="366.62291586110933" style="stroke: red;"></line><line x1="228.11881188118812" x2="229.57095709570956" y1="366.62291586110933" y2="366.6071693706473" style="stroke: red;"></line><line x1="229.57095709570956" x2="231.02310231023102" y1="366.6071693706473" y2="366.58626155011643" style="stroke: red;"></line><line x1="231.02310231023102" x2="232.47524752475246" y1="366.58626155011643" y2="366.55868614407285" style="stroke: red;"></line><line x1="232.47524752475246" x2="233.92739273927393" y1="366.55868614407285" y2="366.5225605396283" style="stroke: red;"></line><line x1="233.92739273927393" x2="235.37953795379536" y1="366.5225605396283" y2="366.47555167764057" style="stroke: red;"></line><line x1="235.37953795379536" x2="236.83168316831683" y1="366.47555167764057" y2="366.41479324881624" style="stroke: red;"></line><line x1="236.83168316831683" x2="238.28382838283827" y1="366.41479324881624" y2="366.33679485681716" style="stroke: red;"></line><line x1="238.28382838283827" x2="239.73597359735973" y1="366.33679485681716" y2="366.23734445975947" style="stroke: red;"></line><line x1="239.73597359735973" x2="241.1881188118812" y1="366.23734445975947" y2="366.11140615975955" style="stroke: red;"></line><line x1="241.1881188118812" x2="242.64026402640263" y1="366.11140615975955" y2="365.95301628985345" style="stroke: red;"></line><line x1="242.64026402640263" x2="244.0924092409241" y1="365.95301628985345" y2="365.7551817300848" style="stroke: red;"></line><line x1="244.0924092409241" x2="245.54455445544554" y1="365.7551817300848" y2="365.5097854381459" style="stroke: red;"></line><line x1="245.54455445544554" x2="246.996699669967" y1="365.5097854381459" y2="365.2075052584778" style="stroke: red;"></line><line x1="246.996699669967" x2="248.44884488448844" y1="365.2075052584778" y2="364.83775311574004" style="stroke: red;"></line><line x1="248.44884488448844" x2="249.9009900990099" y1="364.83775311574004" y2="364.3886426277746" style="stroke: red;"></line><line x1="249.9009900990099" x2="251.35313531353137" y1="364.3886426277746" y2="363.8469939002172" style="stroke: red;"></line><line x1="251.35313531353137" x2="252.8052805280528" y1="363.8469939002172" y2="363.19838469061824" style="stroke: red;"></line><line x1="252.8052805280528" x2="254.25742574257427" y1="363.19838469061824" y2="362.42725715044315" style="stroke: red;"></line><line x1="254.25742574257427" x2="255.7095709570957" y1="362.42725715044315" y2="361.51708886680177" style="stroke: red;"></line><line x1="255.7095709570957" x2="257.1617161716172" y1="361.51708886680177" y2="360.45063584065633" style="stroke: red;"></line><line x1="257.1617161716172" x2="258.61386138613864" y1="360.45063584065633" y2="359.210253282794" style="stroke: red;"></line><line x1="258.61386138613864" x2="260.06600660066005" y1="359.210253282794" y2="357.77829764098936" style="stroke: red;"></line><line x1="260.06600660066005" x2="261.5181518151815" y1="357.77829764098936" y2="356.1376100891547" style="stroke: red;"></line><line x1="261.5181518151815" x2="262.9702970297029" y1="356.1376100891547" y2="354.2720778579256" style="stroke: red;"></line><line x1="262.9702970297029" x2="264.4224422442244" y1="354.2720778579256" y2="352.1672653672309" style="stroke: red;"></line><line x1="264.4224422442244" x2="265.87458745874585" y1="352.1672653672309" y2="349.81110229479975" style="stroke: red;"></line><line x1="265.87458745874585" x2="267.3267326732673" y1="349.81110229479975" y2="347.19461069828617" style="stroke: red;"></line><line x1="267.3267326732673" x2="268.7788778877887" y1="347.19461069828617" y2="344.31264837360584" style="stroke: red;"></line><line x1="268.7788778877887" x2="270.2310231023102" y1="344.31264837360584" y2="341.16464109128367" style="stroke: red;"></line><line x1="270.2310231023102" x2="271.6831683168316" y1="341.16464109128367" y2="337.75527254560836" style="stroke: red;"></line><line x1="271.6831683168316" x2="273.13531353135306" y1="337.75527254560836" y2="334.0950981234175" style="stroke: red;"></line><line x1="273.13531353135306" x2="274.5874587458745" y1="334.0950981234175" y2="330.20104727691376" style="stroke: red;"></line><line x1="274.5874587458745" x2="276.039603960396" y1="330.20104727691376" y2="326.09677964912555" style="stroke: red;"></line><line x1="276.039603960396" x2="277.4917491749174" y1="326.09677964912555" y2="321.812862360085" style="stroke: red;"></line><line x1="277.4917491749174" x2="278.94389438943887" y1="321.812862360085" y2="317.38674012758986" style="stroke: red;"></line><line x1="278.94389438943887" x2="280.39603960396033" y1="317.38674012758986" y2="312.8624761614111" style="stroke: red;"></line><line x1="280.39603960396033" x2="281.84818481848174" y1="312.8624761614111" y2="308.29024989474533" style="stroke: red;"></line><line x1="281.84818481848174" x2="283.3003300330032" y1="308.29024989474533" y2="303.7256073249629" style="stroke: red;"></line><line x1="283.3003300330032" x2="284.75247524752467" y1="303.7256073249629" y2="299.22847061826826" style="stroke: red;"></line><line x1="284.75247524752467" x2="286.2046204620461" y1="299.22847061826826" y2="294.8619251642364" style="stroke: red;"></line><line x1="286.2046204620461" x2="287.65676567656755" y1="294.8619251642364" y2="290.6908138307232" style="stroke: red;"></line><line x1="287.65676567656755" x2="289.108910891089" y1="290.6908138307232" y2="286.78017909761286" style="stroke: red;"></line><line x1="289.108910891089" x2="290.5610561056104" y1="286.78017909761286" y2="283.19360335841986" style="stroke: red;"></line><line x1="290.5610561056104" x2="292.0132013201319" y1="283.19360335841986" y2="279.9915053273195" style="stroke: red;"></line><line x1="292.0132013201319" x2="293.46534653465335" y1="279.9915053273195" y2="277.2294556152783" style="stroke: red;"></line><line x1="293.46534653465335" x2="294.9174917491748" y1="277.2294556152783" y2="274.9565767107405" style="stroke: red;"></line><line x1="294.9174917491748" x2="296.3696369636962" y1="274.9565767107405" y2="273.2140915518536" style="stroke: red;"></line><line x1="296.3696369636962" x2="297.8217821782177" y1="273.2140915518536" y2="272.0340805349064" style="stroke: red;"></line><line x1="297.8217821782177" x2="299.2739273927391" y1="272.0340805349064" y2="271.43849929940257" style="stroke: red;"></line><line x1="299.2739273927391" x2="300.72607260726056" y1="271.43849929940257" y2="271.4384992994025" style="stroke: red;"></line><line x1="300.72607260726056" x2="302.178217821782" y1="271.4384992994025" y2="272.03408053490625" style="stroke: red;"></line><line x1="302.178217821782" x2="303.6303630363035" y1="272.03408053490625" y2="273.21409155185324" style="stroke: red;"></line><line x1="303.6303630363035" x2="305.0825082508249" y1="273.21409155185324" y2="274.95657671074" style="stroke: red;"></line><line x1="305.0825082508249" x2="306.53465346534637" y1="274.95657671074" y2="277.2294556152778" style="stroke: red;"></line><line x1="306.53465346534637" x2="307.9867986798678" y1="277.2294556152778" y2="279.99150532731886" style="stroke: red;"></line><line x1="307.9867986798678" x2="309.43894389438924" y1="279.99150532731886" y2="283.1936033584192" style="stroke: red;"></line><line x1="309.43894389438924" x2="310.8910891089107" y1="283.1936033584192" y2="286.7801790976122" style="stroke: red;"></line><line x1="310.8910891089107" x2="312.34323432343217" y1="286.7801790976122" y2="290.69081383072245" style="stroke: red;"></line><line x1="312.34323432343217" x2="313.79537953795364" y1="290.69081383072245" y2="294.86192516423563" style="stroke: red;"></line><line x1="313.79537953795364" x2="315.24752475247504" y1="294.86192516423563" y2="299.22847061826747" style="stroke: red;"></line><line x1="315.24752475247504" x2="316.6996699669965" y1="299.22847061826747" y2="303.725607324962" style="stroke: red;"></line><line x1="316.6996699669965" x2="318.1518151815179" y1="303.725607324962" y2="308.29024989474453" style="stroke: red;"></line><line x1="318.1518151815179" x2="319.6039603960394" y1="308.29024989474453" y2="312.86247616141026" style="stroke: red;"></line><line x1="319.6039603960394" x2="321.05610561056085" y1="312.86247616141026" y2="317.386740127589" style="stroke: red;"></line><line x1="321.05610561056085" x2="322.5082508250823" y1="317.386740127589" y2="321.8128623600842" style="stroke: red;"></line><line x1="322.5082508250823" x2="323.9603960396037" y1="321.8128623600842" y2="326.09677964912476" style="stroke: red;"></line><line x1="323.9603960396037" x2="325.4125412541252" y1="326.09677964912476" y2="330.201047276913" style="stroke: red;"></line><line x1="325.4125412541252" x2="326.8646864686466" y1="330.201047276913" y2="334.09509812341673" style="stroke: red;"></line><line x1="326.8646864686466" x2="328.31683168316806" y1="334.09509812341673" y2="337.7552725456077" style="stroke: red;"></line><line x1="328.31683168316806" x2="329.7689768976895" y1="337.7552725456077" y2="341.1646410912831" style="stroke: red;"></line><line x1="329.7689768976895" x2="331.221122112211" y1="341.1646410912831" y2="344.31264837360527" style="stroke: red;"></line><line x1="331.221122112211" x2="332.6732673267324" y1="344.31264837360527" y2="347.19461069828566" style="stroke: red;"></line><line x1="332.6732673267324" x2="334.12541254125387" y1="347.19461069828566" y2="349.8111022947993" style="stroke: red;"></line><line x1="334.12541254125387" x2="335.57755775577533" y1="349.8111022947993" y2="352.16726536723047" style="stroke: red;"></line><line x1="335.57755775577533" x2="337.02970297029674" y1="352.16726536723047" y2="354.2720778579252" style="stroke: red;"></line><line x1="337.02970297029674" x2="338.4818481848182" y1="354.2720778579252" y2="356.13761008915435" style="stroke: red;"></line><line x1="338.4818481848182" x2="339.93399339933967" y1="356.13761008915435" y2="357.7782976409891" style="stroke: red;"></line><line x1="339.93399339933967" x2="341.3861386138611" y1="357.7782976409891" y2="359.21025328279376" style="stroke: red;"></line><line x1="341.3861386138611" x2="342.83828382838254" y1="359.21025328279376" y2="360.4506358406561" style="stroke: red;"></line><line x1="342.83828382838254" x2="344.290429042904" y1="360.4506358406561" y2="361.5170888668016" style="stroke: red;"></line><line x1="344.290429042904" x2="345.7425742574255" y1="361.5170888668016" y2="362.42725715044304" style="stroke: red;"></line><line x1="345.7425742574255" x2="347.1947194719469" y1="362.42725715044304" y2="363.1983846906181" style="stroke: red;"></line><line x1="347.1947194719469" x2="348.64686468646835" y1="363.1983846906181" y2="363.8469939002171" style="stroke: red;"></line><line x1="348.64686468646835" x2="350.0990099009898" y1="363.8469939002171" y2="364.38864262777446" style="stroke: red;"></line><line x1="350.0990099009898" x2="351.5511551155112" y1="364.38864262777446" y2="364.83775311574" style="stroke: red;"></line><line x1="351.5511551155112" x2="353.0033003300327" y1="364.83775311574" y2="365.2075052584777" style="stroke: red;"></line><line x1="353.0033003300327" x2="354.4554455445541" y1="365.2075052584777" y2="365.50978543814585" style="stroke: red;"></line><line x1="354.4554455445541" x2="355.90759075907556" y1="365.50978543814585" y2="365.75518173008476" style="stroke: red;"></line><line x1="355.90759075907556" x2="357.359735973597" y1="365.75518173008476" y2="365.9530162898534" style="stroke: red;"></line><line x1="357.359735973597" x2="358.8118811881185" y1="365.9530162898534" y2="366.1114061597595" style="stroke: red;"></line><line x1="358.8118811881185" x2="360.26402640263996" y1="366.1114061597595" y2="366.23734445975947" style="stroke: red;"></line><line x1="360.26402640263996" x2="361.71617161716136" y1="366.23734445975947" y2="366.3367948568171" style="stroke: red;"></line><line x1="361.71617161716136" x2="363.1683168316828" y1="366.3367948568171" y2="366.41479324881624" style="stroke: red;"></line><line x1="363.1683168316828" x2="364.62046204620424" y1="366.41479324881624" y2="366.47555167764057" style="stroke: red;"></line><line x1="364.62046204620424" x2="366.0726072607257" y1="366.47555167764057" y2="366.5225605396283" style="stroke: red;"></line><line x1="366.0726072607257" x2="367.52475247524717" y1="366.5225605396283" y2="366.55868614407285" style="stroke: red;"></line><line x1="367.52475247524717" x2="368.97689768976863" y1="366.55868614407285" y2="366.58626155011643" style="stroke: red;"></line><line x1="368.97689768976863" x2="370.42904290429004" y1="366.58626155011643" y2="366.6071693706473" style="stroke: red;"></line><line x1="370.42904290429004" x2="371.88118811881145" y1="366.6071693706473" y2="366.62291586110933" style="stroke: red;"></line><rect x="226.66666666666666" y="366.6666666666667" width="146.66666666666666" height="143.33333333333334" fill="white" style="stroke: black; stroke-width: 1px;"></rect><circle data-sheetrowid="0" class="datapoint" r="3" cx="247.61904761904762" cy="455.2020922491679" style="fill: rgb(128, 128, 0); stroke: black;"><title>(21,21.33)</title></circle><circle data-sheetrowid="1" class="datapoint" r="3" cx="251.89504373177843" cy="473.849738468854" style="fill: rgb(128, 128, 0); stroke: black;"><title>(21.8,19.81)</title></circle><circle data-sheetrowid="2" class="datapoint" r="3" cx="254.56754130223518" cy="481.3333333333333" style="fill: rgb(128, 128, 0); stroke: black;"><title>(22.3,19.2)</title></circle><circle data-sheetrowid="3" class="datapoint" r="3" cx="277.55102040816325" cy="447.71849738468853" style="fill: rgb(128, 128, 0); stroke: black;"><title>(26.6,21.94)</title></circle><circle data-sheetrowid="4" class="datapoint" r="3" cx="280.22351797862" cy="414.10366143604375" style="fill: rgb(128, 128, 0); stroke: black;"><title>(27.1,24.68)</title></circle><circle data-sheetrowid="5" class="datapoint" r="3" cx="281.82701652089406" cy="406.62006657156445" style="fill: rgb(128, 128, 0); stroke: black;"><title>(27.4,25.29)</title></circle><circle data-sheetrowid="6" class="datapoint" r="3" cx="284.4995140913508" cy="470.1692819781265" style="fill: rgb(128, 128, 0); stroke: black;"><title>(27.9,20.11)</title></circle><circle data-sheetrowid="7" class="datapoint" r="3" cx="284.4995140913508" cy="436.43176414645745" style="fill: rgb(128, 128, 0); stroke: black;"><title>(27.9,22.86)</title></circle><circle data-sheetrowid="8" class="datapoint" r="3" cx="294.12050534499514" cy="458.88254873989536" style="fill: rgb(128, 128, 0); stroke: black;"><title>(29.7,21.03)</title></circle><circle data-sheetrowid="9" class="datapoint" r="3" cx="310.15549076773567" cy="440.2349025202092" style="fill: rgb(128, 128, 0); stroke: black;"><title>(32.7,22.55)</title></circle><circle data-sheetrowid="10" class="datapoint" r="3" cx="310.15549076773567" cy="399.1364717070851" style="fill: rgb(128, 128, 0); stroke: black;"><title>(32.7,25.9)</title></circle><circle data-sheetrowid="11" class="datapoint" r="3" cx="315.5004859086492" cy="395.3333333333333" style="fill: rgb(128, 128, 0); stroke: black;"><title>(33.7,26.21)</title></circle><circle data-sheetrowid="12" class="datapoint" r="3" cx="320.8454810495627" cy="451.39895387541605" style="fill: rgb(128, 128, 0); stroke: black;"><title>(34.7,21.64)</title></circle><circle data-sheetrowid="13" class="datapoint" r="3" cx="322.44897959183675" cy="477.6528768426058" style="fill: rgb(128, 128, 0); stroke: black;"><title>(35,19.5)</title></circle><circle data-sheetrowid="14" class="datapoint" r="3" cx="352.38095238095235" cy="447.71849738468853" style="fill: rgb(128, 128, 0); stroke: black;"><title>(40.6,21.94)</title></circle><rect x="373.3333333333333" y="80" width="146.66666666666666" height="143.33333333333334" fill="white" style="stroke: black; stroke-width: 1px;"></rect><circle data-sheetrowid="0" class="datapoint" r="3" cx="426.11779091094354" cy="194.3425460636516" style="fill: rgb(0, 0, 205); stroke: black;"><title>(21.33,0.291)</title></circle><circle data-sheetrowid="1" class="datapoint" r="3" cx="403.4019428027987" cy="194.3425460636516" style="fill: rgb(0, 0, 205); stroke: black;"><title>(19.81,0.291)</title></circle><circle data-sheetrowid="2" class="datapoint" r="3" cx="394.2857142857143" cy="194.66666666666669" style="fill: rgb(0, 0, 205); stroke: black;"><title>(19.2,0.288)</title></circle><circle data-sheetrowid="3" class="datapoint" r="3" cx="435.234019428028" cy="175.65159128978226" style="fill: rgb(0, 0, 205); stroke: black;"><title>(21.94,0.464)</title></circle><circle data-sheetrowid="4" class="datapoint" r="3" cx="476.1823245703416" cy="168.30485762144053" style="fill: rgb(0, 0, 205); stroke: black;"><title>(24.68,0.532)</title></circle><circle data-sheetrowid="5" class="datapoint" r="3" cx="485.29855308742606" cy="165.6038525963149" style="fill: rgb(0, 0, 205); stroke: black;"><title>(25.29,0.557)</title></circle><circle data-sheetrowid="6" class="datapoint" r="3" cx="407.88533387677467" cy="178.13651591289783" style="fill: rgb(0, 0, 205); stroke: black;"><title>(20.11,0.441)</title></circle><circle data-sheetrowid="7" class="datapoint" r="3" cx="448.98308538822084" cy="170.141541038526" style="fill: rgb(0, 0, 205); stroke: black;"><title>(22.86,0.515)</title></circle><circle data-sheetrowid="8" class="datapoint" r="3" cx="421.6343998369676" cy="160.63400335008376" style="fill: rgb(0, 0, 205); stroke: black;"><title>(21.03,0.603)</title></circle><circle data-sheetrowid="9" class="datapoint" r="3" cx="444.3502479451124" cy="157.93299832495813" style="fill: rgb(0, 0, 205); stroke: black;"><title>(22.55,0.628)</title></circle><circle data-sheetrowid="10" class="datapoint" r="3" cx="494.4147816045105" cy="122.4958123953099" style="fill: rgb(0, 0, 205); stroke: black;"><title>(25.9,0.956)</title></circle><circle data-sheetrowid="11" class="datapoint" r="3" cx="499.04761904761904" cy="142.05108877721943" style="fill: rgb(0, 0, 205); stroke: black;"><title>(26.21,0.775)</title></circle><circle data-sheetrowid="12" class="datapoint" r="3" cx="430.750628354052" cy="147.23701842546063" style="fill: rgb(0, 0, 205); stroke: black;"><title>(21.64,0.727)</title></circle><circle data-sheetrowid="13" class="datapoint" r="3" cx="398.76910535969023" cy="149.72194304857624" style="fill: rgb(0, 0, 205); stroke: black;"><title>(19.5,0.704)</title></circle><circle data-sheetrowid="14" class="datapoint" r="3" cx="435.234019428028" cy="108.66666666666669" style="fill: rgb(0, 0, 205); stroke: black;"><title>(21.94,1.084)</title></circle><rect x="373.3333333333333" y="223.33333333333334" width="146.66666666666666" height="143.33333333333334" fill="white" style="stroke: black; stroke-width: 1px;"></rect><circle data-sheetrowid="0" class="datapoint" r="3" cx="426.11779091094354" cy="338" style="fill: rgb(255, 165, 0); stroke: black;"><title>(21.33,21)</title></circle><circle data-sheetrowid="1" class="datapoint" r="3" cx="403.4019428027987" cy="334.48979591836735" style="fill: rgb(255, 165, 0); stroke: black;"><title>(19.81,21.8)</title></circle><circle data-sheetrowid="2" class="datapoint" r="3" cx="394.2857142857143" cy="332.2959183673469" style="fill: rgb(255, 165, 0); stroke: black;"><title>(19.2,22.3)</title></circle><circle data-sheetrowid="3" class="datapoint" r="3" cx="435.234019428028" cy="313.42857142857144" style="fill: rgb(255, 165, 0); stroke: black;"><title>(21.94,26.6)</title></circle><circle data-sheetrowid="4" class="datapoint" r="3" cx="476.1823245703416" cy="311.234693877551" style="fill: rgb(255, 165, 0); stroke: black;"><title>(24.68,27.1)</title></circle><circle data-sheetrowid="5" class="datapoint" r="3" cx="485.29855308742606" cy="309.9183673469388" style="fill: rgb(255, 165, 0); stroke: black;"><title>(25.29,27.4)</title></circle><circle data-sheetrowid="6" class="datapoint" r="3" cx="407.88533387677467" cy="307.7244897959184" style="fill: rgb(255, 165, 0); stroke: black;"><title>(20.11,27.9)</title></circle><circle data-sheetrowid="7" class="datapoint" r="3" cx="448.98308538822084" cy="307.7244897959184" style="fill: rgb(255, 165, 0); stroke: black;"><title>(22.86,27.9)</title></circle><circle data-sheetrowid="8" class="datapoint" r="3" cx="421.6343998369676" cy="299.82653061224494" style="fill: rgb(255, 165, 0); stroke: black;"><title>(21.03,29.7)</title></circle><circle data-sheetrowid="9" class="datapoint" r="3" cx="444.3502479451124" cy="286.66326530612247" style="fill: rgb(255, 165, 0); stroke: black;"><title>(22.55,32.7)</title></circle><circle data-sheetrowid="10" class="datapoint" r="3" cx="494.4147816045105" cy="286.66326530612247" style="fill: rgb(255, 165, 0); stroke: black;"><title>(25.9,32.7)</title></circle><circle data-sheetrowid="11" class="datapoint" r="3" cx="499.04761904761904" cy="282.2755102040816" style="fill: rgb(255, 165, 0); stroke: black;"><title>(26.21,33.7)</title></circle><circle data-sheetrowid="12" class="datapoint" r="3" cx="430.750628354052" cy="277.88775510204084" style="fill: rgb(255, 165, 0); stroke: black;"><title>(21.64,34.7)</title></circle><circle data-sheetrowid="13" class="datapoint" r="3" cx="398.76910535969023" cy="276.57142857142856" style="fill: rgb(255, 165, 0); stroke: black;"><title>(19.5,35)</title></circle><circle data-sheetrowid="14" class="datapoint" r="3" cx="435.234019428028" cy="252" style="fill: rgb(255, 165, 0); stroke: black;"><title>(21.94,40.6)</title></circle><rect x="373.3333333333333" y="366.6666666666667" width="146.66666666666666" height="143.33333333333334" fill="white" style="stroke: black; stroke-width: 1px;"></rect><rect class="bar" x="373.3333333333333" y="510" width="9.166666666666666" height="0" style="fill: rgb(124, 252, 0); stroke: black; stroke-width: 1px;"></rect><rect class="bar" x="382.5" y="510" width="9.166666666666666" height="0" style="fill: rgb(124, 252, 0); stroke: black; stroke-width: 1px;"></rect><rect class="bar" x="391.66666666666663" y="510" width="9.166666666666666" height="0" style="fill: rgb(124, 252, 0); stroke: black; stroke-width: 1px;"></rect><rect class="bar" x="400.8333333333333" y="510" width="9.166666666666666" height="0" style="fill: rgb(124, 252, 0); stroke: black; stroke-width: 1px;"></rect><rect class="bar" x="410" y="510" width="9.166666666666666" height="0" style="fill: rgb(124, 252, 0); stroke: black; stroke-width: 1px;"></rect><rect class="bar" x="419.16666666666663" y="414.44444444444446" width="9.166666666666666" height="95.55555555555557" style="fill: rgb(124, 252, 0); stroke: black; stroke-width: 1px;"></rect><rect class="bar" x="428.3333333333333" y="446.2962962962963" width="9.166666666666666" height="63.7037037037037" style="fill: rgb(124, 252, 0); stroke: black; stroke-width: 1px;"></rect><rect class="bar" x="437.5" y="382.5925925925926" width="9.166666666666666" height="127.4074074074074" style="fill: rgb(124, 252, 0); stroke: black; stroke-width: 1px;"></rect><rect class="bar" x="446.66666666666663" y="446.2962962962963" width="9.166666666666666" height="63.7037037037037" style="fill: rgb(124, 252, 0); stroke: black; stroke-width: 1px;"></rect><rect class="bar" x="455.8333333333333" y="510" width="9.166666666666666" height="0" style="fill: rgb(124, 252, 0); stroke: black; stroke-width: 1px;"></rect><rect class="bar" x="465" y="446.2962962962963" width="9.166666666666666" height="63.7037037037037" style="fill: rgb(124, 252, 0); stroke: black; stroke-width: 1px;"></rect><rect class="bar" x="474.16666666666663" y="446.2962962962963" width="9.166666666666666" height="63.7037037037037" style="fill: rgb(124, 252, 0); stroke: black; stroke-width: 1px;"></rect><rect class="bar" x="483.3333333333333" y="510" width="9.166666666666666" height="0" style="fill: rgb(124, 252, 0); stroke: black; stroke-width: 1px;"></rect><rect class="bar" x="492.5" y="510" width="9.166666666666666" height="0" style="fill: rgb(124, 252, 0); stroke: black; stroke-width: 1px;"></rect><rect class="bar" x="501.66666666666663" y="510" width="9.166666666666666" height="0" style="fill: rgb(124, 252, 0); stroke: black; stroke-width: 1px;"></rect><rect class="bar" x="510.8333333333333" y="510" width="9.166666666666666" height="0" style="fill: rgb(124, 252, 0); stroke: black; stroke-width: 1px;"></rect><line x1="373.3333333333333" x2="374.7854785478548" y1="509.9680294460673" y2="509.95624919444265" style="stroke: red;"></line><line x1="374.7854785478548" x2="376.23762376237624" y1="509.95624919444265" y2="509.9405027039806" style="stroke: red;"></line><line x1="376.23762376237624" x2="377.68976897689765" y1="509.9405027039806" y2="509.91959488344975" style="stroke: red;"></line><line x1="377.68976897689765" x2="379.1419141914191" y1="509.91959488344975" y2="509.89201947740617" style="stroke: red;"></line><line x1="379.1419141914191" x2="380.5940594059406" y1="509.89201947740617" y2="509.8558938729616" style="stroke: red;"></line><line x1="380.5940594059406" x2="382.04620462046205" y1="509.8558938729616" y2="509.8088850109739" style="stroke: red;"></line><line x1="382.04620462046205" x2="383.49834983498346" y1="509.8088850109739" y2="509.74812658214955" style="stroke: red;"></line><line x1="383.49834983498346" x2="384.9504950495049" y1="509.74812658214955" y2="509.6701281901505" style="stroke: red;"></line><line x1="384.9504950495049" x2="386.4026402640264" y1="509.6701281901505" y2="509.5706777930928" style="stroke: red;"></line><line x1="386.4026402640264" x2="387.85478547854785" y1="509.5706777930928" y2="509.44473949309287" style="stroke: red;"></line><line x1="387.85478547854785" x2="389.30693069306926" y1="509.44473949309287" y2="509.28634962318677" style="stroke: red;"></line><line x1="389.30693069306926" x2="390.7590759075907" y1="509.28634962318677" y2="509.08851506341813" style="stroke: red;"></line><line x1="390.7590759075907" x2="392.2112211221122" y1="509.08851506341813" y2="508.8431187714792" style="stroke: red;"></line><line x1="392.2112211221122" x2="393.66336633663366" y1="508.8431187714792" y2="508.5408385918111" style="stroke: red;"></line><line x1="393.66336633663366" x2="395.11551155115507" y1="508.5408385918111" y2="508.17108644907336" style="stroke: red;"></line><line x1="395.11551155115507" x2="396.56765676567653" y1="508.17108644907336" y2="507.7219759611079" style="stroke: red;"></line><line x1="396.56765676567653" x2="398.019801980198" y1="507.7219759611079" y2="507.18032723355054" style="stroke: red;"></line><line x1="398.019801980198" x2="399.47194719471946" y1="507.18032723355054" y2="506.53171802395156" style="stroke: red;"></line><line x1="399.47194719471946" x2="400.92409240924087" y1="506.53171802395156" y2="505.7605904837765" style="stroke: red;"></line><line x1="400.92409240924087" x2="402.37623762376234" y1="505.7605904837765" y2="504.8504222001351" style="stroke: red;"></line><line x1="402.37623762376234" x2="403.8283828382838" y1="504.8504222001351" y2="503.78396917398965" style="stroke: red;"></line><line x1="403.8283828382838" x2="405.28052805280527" y1="503.78396917398965" y2="502.5435866161273" style="stroke: red;"></line><line x1="405.28052805280527" x2="406.73267326732673" y1="502.5435866161273" y2="501.1116309743227" style="stroke: red;"></line><line x1="406.73267326732673" x2="408.18481848184814" y1="501.1116309743227" y2="499.470943422488" style="stroke: red;"></line><line x1="408.18481848184814" x2="409.6369636963696" y1="499.470943422488" y2="497.6054111912589" style="stroke: red;"></line><line x1="409.6369636963696" x2="411.08910891089107" y1="497.6054111912589" y2="495.5005987005642" style="stroke: red;"></line><line x1="411.08910891089107" x2="412.54125412541254" y1="495.5005987005642" y2="493.14443562813307" style="stroke: red;"></line><line x1="412.54125412541254" x2="413.99339933993394" y1="493.14443562813307" y2="490.5279440316194" style="stroke: red;"></line><line x1="413.99339933993394" x2="415.4455445544554" y1="490.5279440316194" y2="487.6459817069391" style="stroke: red;"></line><line x1="415.4455445544554" x2="416.8976897689769" y1="487.6459817069391" y2="484.4979744246169" style="stroke: red;"></line><line x1="416.8976897689769" x2="418.34983498349834" y1="484.4979744246169" y2="481.08860587894156" style="stroke: red;"></line><line x1="418.34983498349834" x2="419.80198019801975" y1="481.08860587894156" y2="477.4284314567507" style="stroke: red;"></line><line x1="419.80198019801975" x2="421.2541254125412" y1="477.4284314567507" y2="473.53438061024696" style="stroke: red;"></line><line x1="421.2541254125412" x2="422.7062706270627" y1="473.53438061024696" y2="469.43011298245875" style="stroke: red;"></line><line x1="422.7062706270627" x2="424.15841584158414" y1="469.43011298245875" y2="465.1461956934181" style="stroke: red;"></line><line x1="424.15841584158414" x2="425.61056105610555" y1="465.1461956934181" y2="460.720073460923" style="stroke: red;"></line><line x1="425.61056105610555" x2="427.062706270627" y1="460.720073460923" y2="456.19580949474425" style="stroke: red;"></line><line x1="427.062706270627" x2="428.5148514851485" y1="456.19580949474425" y2="451.6235832280785" style="stroke: red;"></line><line x1="428.5148514851485" x2="429.96699669966995" y1="451.6235832280785" y2="447.0589406582959" style="stroke: red;"></line><line x1="429.96699669966995" x2="431.4191419141914" y1="447.0589406582959" y2="442.56180395160135" style="stroke: red;"></line><line x1="431.4191419141914" x2="432.8712871287128" y1="442.56180395160135" y2="438.1952584975695" style="stroke: red;"></line><line x1="432.8712871287128" x2="434.3234323432343" y1="438.1952584975695" y2="434.0241471640562" style="stroke: red;"></line><line x1="434.3234323432343" x2="435.77557755775575" y1="434.0241471640562" y2="430.11351243094595" style="stroke: red;"></line><line x1="435.77557755775575" x2="437.2277227722772" y1="430.11351243094595" y2="426.5269366917529" style="stroke: red;"></line><line x1="437.2277227722772" x2="438.6798679867986" y1="426.5269366917529" y2="423.3248386606525" style="stroke: red;"></line><line x1="438.6798679867986" x2="440.1320132013201" y1="423.3248386606525" y2="420.5627889486114" style="stroke: red;"></line><line x1="440.1320132013201" x2="441.58415841584156" y1="420.5627889486114" y2="418.2899100440736" style="stroke: red;"></line><line x1="441.58415841584156" x2="443.036303630363" y1="418.2899100440736" y2="416.54742488518673" style="stroke: red;"></line><line x1="443.036303630363" x2="444.48844884488443" y1="416.54742488518673" y2="415.3674138682396" style="stroke: red;"></line><line x1="444.48844884488443" x2="445.9405940594059" y1="415.3674138682396" y2="414.7718326327358" style="stroke: red;"></line><line x1="445.9405940594059" x2="447.39273927392736" y1="414.7718326327358" y2="414.7718326327358" style="stroke: red;"></line><line x1="447.39273927392736" x2="448.84488448844877" y1="414.7718326327358" y2="415.3674138682396" style="stroke: red;"></line><line x1="448.84488448844877" x2="450.29702970297024" y1="415.3674138682396" y2="416.54742488518673" style="stroke: red;"></line><line x1="450.29702970297024" x2="451.7491749174917" y1="416.54742488518673" y2="418.2899100440735" style="stroke: red;"></line><line x1="451.7491749174917" x2="453.20132013201317" y1="418.2899100440735" y2="420.56278894861134" style="stroke: red;"></line><line x1="453.20132013201317" x2="454.65346534653463" y1="420.56278894861134" y2="423.32483866065246" style="stroke: red;"></line><line x1="454.65346534653463" x2="456.1056105610561" y1="423.32483866065246" y2="426.52693669175284" style="stroke: red;"></line><line x1="456.1056105610561" x2="457.5577557755775" y1="426.52693669175284" y2="430.1135124309459" style="stroke: red;"></line><line x1="457.5577557755775" x2="459.00990099009897" y1="430.1135124309459" y2="434.02414716405616" style="stroke: red;"></line><line x1="459.00990099009897" x2="460.46204620462044" y1="434.02414716405616" y2="438.1952584975694" style="stroke: red;"></line><line x1="460.46204620462044" x2="461.91419141914184" y1="438.1952584975694" y2="442.5618039516013" style="stroke: red;"></line><line x1="461.91419141914184" x2="463.3663366336633" y1="442.5618039516013" y2="447.05894065829585" style="stroke: red;"></line><line x1="463.3663366336633" x2="464.8184818481848" y1="447.05894065829585" y2="451.62358322807836" style="stroke: red;"></line><line x1="464.8184818481848" x2="466.27062706270624" y1="451.62358322807836" y2="456.19580949474414" style="stroke: red;"></line><line x1="466.27062706270624" x2="467.7227722772277" y1="456.19580949474414" y2="460.7200734609229" style="stroke: red;"></line><line x1="467.7227722772277" x2="469.1749174917491" y1="460.7200734609229" y2="465.14619569341806" style="stroke: red;"></line><line x1="469.1749174917491" x2="470.6270627062706" y1="465.14619569341806" y2="469.43011298245864" style="stroke: red;"></line><line x1="470.6270627062706" x2="472.07920792079204" y1="469.43011298245864" y2="473.5343806102469" style="stroke: red;"></line><line x1="472.07920792079204" x2="473.53135313531345" y1="473.5343806102469" y2="477.42843145675056" style="stroke: red;"></line><line x1="473.53135313531345" x2="474.9834983498349" y1="477.42843145675056" y2="481.0886058789415" style="stroke: red;"></line><line x1="474.9834983498349" x2="476.4356435643564" y1="481.0886058789415" y2="484.49797442461687" style="stroke: red;"></line><line x1="476.4356435643564" x2="477.88778877887785" y1="484.49797442461687" y2="487.64598170693904" style="stroke: red;"></line><line x1="477.88778877887785" x2="479.3399339933993" y1="487.64598170693904" y2="490.52794403161937" style="stroke: red;"></line><line x1="479.3399339933993" x2="480.7920792079208" y1="490.52794403161937" y2="493.144435628133" style="stroke: red;"></line><line x1="480.7920792079208" x2="482.2442244224422" y1="493.144435628133" y2="495.5005987005642" style="stroke: red;"></line><line x1="482.2442244224422" x2="483.69636963696365" y1="495.5005987005642" y2="497.60541119125884" style="stroke: red;"></line><line x1="483.69636963696365" x2="485.1485148514851" y1="497.60541119125884" y2="499.47094342248795" style="stroke: red;"></line><line x1="485.1485148514851" x2="486.6006600660065" y1="499.47094342248795" y2="501.1116309743227" style="stroke: red;"></line><line x1="486.6006600660065" x2="488.052805280528" y1="501.1116309743227" y2="502.5435866161273" style="stroke: red;"></line><line x1="488.052805280528" x2="489.50495049504946" y1="502.5435866161273" y2="503.78396917398965" style="stroke: red;"></line><line x1="489.50495049504946" x2="490.9570957095709" y1="503.78396917398965" y2="504.8504222001351" style="stroke: red;"></line><line x1="490.9570957095709" x2="492.4092409240924" y1="504.8504222001351" y2="505.76059048377647" style="stroke: red;"></line><line x1="492.4092409240924" x2="493.8613861386138" y1="505.76059048377647" y2="506.53171802395156" style="stroke: red;"></line><line x1="493.8613861386138" x2="495.31353135313526" y1="506.53171802395156" y2="507.18032723355054" style="stroke: red;"></line><line x1="495.31353135313526" x2="496.7656765676567" y1="507.18032723355054" y2="507.7219759611079" style="stroke: red;"></line><line x1="496.7656765676567" x2="498.21782178217813" y1="507.7219759611079" y2="508.17108644907336" style="stroke: red;"></line><line x1="498.21782178217813" x2="499.6699669966996" y1="508.17108644907336" y2="508.5408385918111" style="stroke: red;"></line><line x1="499.6699669966996" x2="501.12211221122107" y1="508.5408385918111" y2="508.8431187714792" style="stroke: red;"></line><line x1="501.12211221122107" x2="502.57425742574253" y1="508.8431187714792" y2="509.08851506341813" style="stroke: red;"></line><line x1="502.57425742574253" x2="504.026402640264" y1="509.08851506341813" y2="509.28634962318677" style="stroke: red;"></line><line x1="504.026402640264" x2="505.47854785478546" y1="509.28634962318677" y2="509.44473949309287" style="stroke: red;"></line><line x1="505.47854785478546" x2="506.93069306930687" y1="509.44473949309287" y2="509.5706777930928" style="stroke: red;"></line><line x1="506.93069306930687" x2="508.38283828382833" y1="509.5706777930928" y2="509.6701281901505" style="stroke: red;"></line><line x1="508.38283828382833" x2="509.83498349834974" y1="509.6701281901505" y2="509.74812658214955" style="stroke: red;"></line><line x1="509.83498349834974" x2="511.2871287128712" y1="509.74812658214955" y2="509.8088850109739" style="stroke: red;"></line><line x1="511.2871287128712" x2="512.7392739273927" y1="509.8088850109739" y2="509.8558938729616" style="stroke: red;"></line><line x1="512.7392739273927" x2="514.1914191419141" y1="509.8558938729616" y2="509.89201947740617" style="stroke: red;"></line><line x1="514.1914191419141" x2="515.6435643564356" y1="509.89201947740617" y2="509.91959488344975" style="stroke: red;"></line><line x1="515.6435643564356" x2="517.0957095709571" y1="509.91959488344975" y2="509.9405027039806" style="stroke: red;"></line><line x1="517.0957095709571" x2="518.5478547854784" y1="509.9405027039806" y2="509.95624919444265" style="stroke: red;"></line></svg>