<svg xmlns="http://www.w3.org/2000/svg" id="chart" width="600" height="400"> <text x="290" y="45" style="font-family: sans-serif; font-size: 12pt; stroke: black; text-anchor: middle;">Sign Test</text><text x="290" y="60" style="font-family: sans-serif; font-size: 9pt; stroke: black; text-anchor: middle;">H₀: M = M₀   , H₁: M ≠ M₀</text><text x="290" y="75" style="font-family: sans-serif; font-size: 9pt; stroke: green; text-anchor: middle;">[TestStat] (n+) ~ B(10, 0.5) Distribution</text><g transform="translate(100,90)" fill="none" font-size="10" font-family="sans-serif" text-anchor="end"><path class="domain" stroke="#000" d="M-6,0.5H0.5V220.5H-6"></path><g class="tick" opacity="1" transform="translate(0,11.90740740740739)"><line stroke="#000" x2="-6"></line><text fill="#000" x="-9" dy="0.32em">0.28</text></g><g class="tick" opacity="1" transform="translate(0,26.806878306878332)"><line stroke="#000" x2="-6"></line><text fill="#000" x="-9" dy="0.32em">0.26</text></g><g class="tick" opacity="1" transform="translate(0,41.706349206349245)"><line stroke="#000" x2="-6"></line><text fill="#000" x="-9" dy="0.32em">0.24</text></g><g class="tick" opacity="1" transform="translate(0,56.60582010582013)"><line stroke="#000" x2="-6"></line><text fill="#000" x="-9" dy="0.32em">0.22</text></g><g class="tick" opacity="1" transform="translate(0,71.50529100529101)"><line stroke="#000" x2="-6"></line><text fill="#000" x="-9" dy="0.32em">0.20</text></g><g class="tick" opacity="1" transform="translate(0,86.40476190476193)"><line stroke="#000" x2="-6"></line><text fill="#000" x="-9" dy="0.32em">0.18</text></g><g class="tick" opacity="1" transform="translate(0,101.30423280423283)"><line stroke="#000" x2="-6"></line><text fill="#000" x="-9" dy="0.32em">0.16</text></g><g class="tick" opacity="1" transform="translate(0,116.2037037037037)"><line stroke="#000" x2="-6"></line><text fill="#000" x="-9" dy="0.32em">0.14</text></g><g class="tick" opacity="1" transform="translate(0,131.10317460317464)"><line stroke="#000" x2="-6"></line><text fill="#000" x="-9" dy="0.32em">0.12</text></g><g class="tick" opacity="1" transform="translate(0,146.00264550264552)"><line stroke="#000" x2="-6"></line><text fill="#000" x="-9" dy="0.32em">0.10</text></g><g class="tick" opacity="1" transform="translate(0,160.9021164021164)"><line stroke="#000" x2="-6"></line><text fill="#000" x="-9" dy="0.32em">0.08</text></g><g class="tick" opacity="1" transform="translate(0,175.80158730158732)"><line stroke="#000" x2="-6"></line><text fill="#000" x="-9" dy="0.32em">0.06</text></g><g class="tick" opacity="1" transform="translate(0,190.7010582010582)"><line stroke="#000" x2="-6"></line><text fill="#000" x="-9" dy="0.32em">0.04</text></g><g class="tick" opacity="1" transform="translate(0,205.60052910052912)"><line stroke="#000" x2="-6"></line><text fill="#000" x="-9" dy="0.32em">0.02</text></g><g class="tick" opacity="1" transform="translate(0,220.5)"><line stroke="#000" x2="-6"></line><text fill="#000" x="-9" dy="0.32em">0.00</text></g></g><line x1="100" y1="310" x2="480" y2="310" style="stroke: black;"></line><text class="barname" x="114.27272727272727" y="330" transform="rotate(30,114.27272727272727,330)  " style="font-family: sans-serif; font-size: 8pt; text-anchor: middle;">0</text><text class="barname" x="148.8181818181818" y="330" transform="rotate(30,148.8181818181818,330)  " style="font-family: sans-serif; font-size: 8pt; text-anchor: middle;">1</text><text class="barname" x="183.36363636363637" y="330" transform="rotate(30,183.36363636363637,330)  " style="font-family: sans-serif; font-size: 8pt; text-anchor: middle;">2</text><text class="barname" x="217.9090909090909" y="330" transform="rotate(30,217.9090909090909,330)  " style="font-family: sans-serif; font-size: 8pt; text-anchor: middle;">3</text><text class="barname" x="252.45454545454544" y="330" transform="rotate(30,252.45454545454544,330)  " style="font-family: sans-serif; font-size: 8pt; text-anchor: middle;">4</text><text class="barname" x="287" y="330" transform="rotate(30,287,330)  " style="font-family: sans-serif; font-size: 8pt; text-anchor: middle;">5</text><text class="barname" x="321.54545454545456" y="330" transform="rotate(30,321.54545454545456,330)  " style="font-family: sans-serif; font-size: 8pt; text-anchor: middle;">6</text><text class="barname" x="356.09090909090907" y="330" transform="rotate(30,356.09090909090907,330)  " style="font-family: sans-serif; font-size: 8pt; text-anchor: middle;">7</text><text class="barname" x="390.6363636363636" y="330" transform="rotate(30,390.6363636363636,330)  " style="font-family: sans-serif; font-size: 8pt; text-anchor: middle;">8</text><text class="barname" x="425.1818181818182" y="330" transform="rotate(30,425.1818181818182,330)  " style="font-family: sans-serif; font-size: 8pt; text-anchor: middle;">9</text><text class="barname" x="459.72727272727275" y="330" transform="rotate(30,459.72727272727275,330)  " style="font-family: sans-serif; font-size: 8pt; text-anchor: middle;">10</text><rect height="0.7275132275132274" width="23.03030303030303" x="105.75757575757575" y="309.2724867724868" style="fill: rgb(0, 85, 255);"></rect><rect height="7.275132275132275" width="23.03030303030303" x="140.3030303030303" y="302.72486772486775" style="fill: rgb(0, 85, 255);"></rect><rect height="32.73809523809523" width="23.03030303030303" x="174.84848484848484" y="277.26190476190476" style="fill: rgb(0, 85, 255);"></rect><rect height="87.3015873015874" width="23.03030303030303" x="209.39393939393938" y="222.6984126984126" style="fill: rgb(0, 85, 255);"></rect><rect height="152.77777777777794" width="23.03030303030303" x="243.93939393939394" y="157.22222222222206" style="fill: rgb(0, 85, 255);"></rect><rect height="183.33333333333334" width="23.03030303030303" x="278.4848484848485" y="126.66666666666666" style="fill: rgb(0, 85, 255);"></rect><rect height="152.77777777777766" width="23.03030303030303" x="313.030303030303" y="157.22222222222234" style="fill: rgb(0, 85, 255);"></rect><rect height="87.30158730158725" width="23.03030303030303" x="347.57575757575756" y="222.69841269841277" style="fill: rgb(0, 85, 255);"></rect><rect height="32.73809523809517" width="23.03030303030303" x="382.1212121212121" y="277.2619047619048" style="fill: rgb(0, 85, 255);"></rect><rect height="7.275132275132257" width="23.03030303030303" x="416.6666666666667" y="302.72486772486775" style="fill: rgb(0, 85, 255);"></rect><rect height="0.7275132275132274" width="23.03030303030303" x="451.21212121212125" y="309.2724867724868" style="fill: rgb(0, 85, 255);"></rect><line x1="290" y1="110" x2="290" y2="340" style="stroke: green; stroke-width: 2px;"></line><text x="290" y="355" style="font-size: 9pt; stroke: green; text-anchor: middle;">(+) = 5</text><text x="285" y="370" style="font-size: 9pt; stroke: green; text-anchor: end;">P(X ≤ (n+)) = 0.6230</text><text x="295" y="370" style="font-size: 9pt; stroke: green; text-anchor: start;">P(X ≥ (n+)) = 0.6230</text><line x1="186.36363636363637" y1="220" x2="186.36363636363637" y2="330" style="stroke: red; stroke-width: 1px;"></line><text x="186.36363636363637" y="340" style="font-size: 9pt; stroke: red; text-anchor: middle;">2</text><text x="181.36363636363637" y="280" style="font-size: 9pt; stroke: red; text-anchor: end;">0.0547</text><line x1="393.6363636363636" y1="220" x2="393.6363636363636" y2="330" style="stroke: red; stroke-width: 1px;"></line><text x="393.6363636363636" y="340" style="font-size: 9pt; stroke: red; text-anchor: middle;">8</text><text x="398.6363636363636" y="280" style="font-size: 9pt; stroke: red; text-anchor: start;">0.0547</text></svg>