<svg xmlns="http://www.w3.org/2000/svg" id="chart" width="600" height="600"> <g transform="translate(40,50)" fill="none" font-size="10" font-family="sans-serif" text-anchor="end"><path class="domain" stroke="#000" d="M-6,0.5H0.5V490.5H-6"></path><g class="tick" opacity="1" transform="translate(0,31.125)"><line stroke="#000" x2="-6"></line><text fill="#000" x="-9" dy="0.32em">0.45</text></g><g class="tick" opacity="1" transform="translate(0,82.16666666666669)"><line stroke="#000" x2="-6"></line><text fill="#000" x="-9" dy="0.32em">0.40</text></g><g class="tick" opacity="1" transform="translate(0,133.20833333333343)"><line stroke="#000" x2="-6"></line><text fill="#000" x="-9" dy="0.32em">0.35</text></g><g class="tick" opacity="1" transform="translate(0,184.25000000000006)"><line stroke="#000" x2="-6"></line><text fill="#000" x="-9" dy="0.32em">0.30</text></g><g class="tick" opacity="1" transform="translate(0,235.2916666666667)"><line stroke="#000" x2="-6"></line><text fill="#000" x="-9" dy="0.32em">0.25</text></g><g class="tick" opacity="1" transform="translate(0,286.33333333333337)"><line stroke="#000" x2="-6"></line><text fill="#000" x="-9" dy="0.32em">0.20</text></g><g class="tick" opacity="1" transform="translate(0,337.375)"><line stroke="#000" x2="-6"></line><text fill="#000" x="-9" dy="0.32em">0.15</text></g><g class="tick" opacity="1" transform="translate(0,388.4166666666667)"><line stroke="#000" x2="-6"></line><text fill="#000" x="-9" dy="0.32em">0.10</text></g><g class="tick" opacity="1" transform="translate(0,439.4583333333333)"><line stroke="#000" x2="-6"></line><text fill="#000" x="-9" dy="0.32em">0.05</text></g><g class="tick" opacity="1" transform="translate(0,490.5)"><line stroke="#000" x2="-6"></line><text fill="#000" x="-9" dy="0.32em">0.00</text></g></g><line x1="40" y1="540" x2="560" y2="540" style="stroke: black;"></line><text class="barname" x="49.38095238095238" y="560" transform="rotate(30,49.38095238095238,560)  " style="font-family: sans-serif; font-size: 8pt; text-anchor: middle;">0</text><text class="barname" x="74.14285714285714" y="560" transform="rotate(30,74.14285714285714,560)  " style="font-family: sans-serif; font-size: 8pt; text-anchor: middle;">1</text><text class="barname" x="98.9047619047619" y="560" transform="rotate(30,98.9047619047619,560)  " style="font-family: sans-serif; font-size: 8pt; text-anchor: middle;">2</text><text class="barname" x="123.66666666666667" y="560" transform="rotate(30,123.66666666666667,560)  " style="font-family: sans-serif; font-size: 8pt; text-anchor: middle;">3</text><text class="barname" x="148.42857142857144" y="560" transform="rotate(30,148.42857142857144,560)  " style="font-family: sans-serif; font-size: 8pt; text-anchor: middle;">4</text><text class="barname" x="173.1904761904762" y="560" transform="rotate(30,173.1904761904762,560)  " style="font-family: sans-serif; font-size: 8pt; text-anchor: middle;">5</text><text class="barname" x="197.95238095238096" y="560" transform="rotate(30,197.95238095238096,560)  " style="font-family: sans-serif; font-size: 8pt; text-anchor: middle;">6</text><text class="barname" x="222.71428571428572" y="560" transform="rotate(30,222.71428571428572,560)  " style="font-family: sans-serif; font-size: 8pt; text-anchor: middle;">7</text><text class="barname" x="247.47619047619048" y="560" transform="rotate(30,247.47619047619048,560)  " style="font-family: sans-serif; font-size: 8pt; text-anchor: middle;">8</text><text class="barname" x="272.23809523809524" y="560" transform="rotate(30,272.23809523809524,560)  " style="font-family: sans-serif; font-size: 8pt; text-anchor: middle;">9</text><text class="barname" x="297" y="560" transform="rotate(30,297,560)  " style="font-family: sans-serif; font-size: 8pt; text-anchor: middle;">10</text><text class="barname" x="321.7619047619048" y="560" transform="rotate(30,321.7619047619048,560)  " style="font-family: sans-serif; font-size: 8pt; text-anchor: middle;">11</text><text class="barname" x="346.5238095238095" y="560" transform="rotate(30,346.5238095238095,560)  " style="font-family: sans-serif; font-size: 8pt; text-anchor: middle;">12</text><text class="barname" x="371.28571428571433" y="560" transform="rotate(30,371.28571428571433,560)  " style="font-family: sans-serif; font-size: 8pt; text-anchor: middle;">13</text><text class="barname" x="396.04761904761904" y="560" transform="rotate(30,396.04761904761904,560)  " style="font-family: sans-serif; font-size: 8pt; text-anchor: middle;">14</text><text class="barname" x="420.80952380952385" y="560" transform="rotate(30,420.80952380952385,560)  " style="font-family: sans-serif; font-size: 8pt; text-anchor: middle;">15</text><text class="barname" x="445.57142857142856" y="560" transform="rotate(30,445.57142857142856,560)  " style="font-family: sans-serif; font-size: 8pt; text-anchor: middle;">16</text><text class="barname" x="470.33333333333337" y="560" transform="rotate(30,470.33333333333337,560)  " style="font-family: sans-serif; font-size: 8pt; text-anchor: middle;">17</text><text class="barname" x="495.0952380952381" y="560" transform="rotate(30,495.0952380952381,560)  " style="font-family: sans-serif; font-size: 8pt; text-anchor: middle;">18</text><text class="barname" x="519.8571428571429" y="560" transform="rotate(30,519.8571428571429,560)  " style="font-family: sans-serif; font-size: 8pt; text-anchor: middle;">19</text><text class="barname" x="544.6190476190476" y="560" transform="rotate(30,544.6190476190476,560)  " style="font-family: sans-serif; font-size: 8pt; text-anchor: middle;">20</text><text x="40" y="25" style="font-size: 13pt; stroke: blue; text-anchor: start;">Poisson Distribution &nbsp; &nbsp; λ = 2.0</text><text x="260" y="580" style="font-family: sans-serif; font-size: 9pt; stroke: rgb(0, 85, 255); text-anchor: middle;">Mean = 2.00,  Std Dev = 1.41</text><rect height="138.15476830404214" width="16.50793650793651" x="44.12698412698413" y="401.84523169595786" style="fill: rgb(0, 85, 255);"></rect><rect height="276.3095366080843" width="16.50793650793651" x="68.88888888888889" y="263.6904633919157" style="fill: rgb(0, 85, 255);"></rect><rect height="276.3095366080843" width="16.50793650793651" x="93.65079365079364" y="263.6904633919157" style="fill: rgb(0, 85, 255);"></rect><rect height="184.20635773872277" width="16.50793650793651" x="118.41269841269842" y="355.7936422612772" style="fill: rgb(0, 85, 255);"></rect><rect height="92.10317886936143" width="16.50793650793651" x="143.1746031746032" y="447.89682113063856" style="fill: rgb(0, 85, 255);"></rect><rect height="36.84127154774457" width="16.50793650793651" x="167.93650793650795" y="503.15872845225545" style="fill: rgb(0, 85, 255);"></rect><rect height="12.28042384924818" width="16.50793650793651" x="192.6984126984127" y="527.7195761507518" style="fill: rgb(0, 85, 255);"></rect><rect height="3.5086925283566224" width="16.50793650793651" x="217.46031746031747" y="536.4913074716434" style="fill: rgb(0, 85, 255);"></rect><rect height="0.8771731320891555" width="16.50793650793651" x="242.22222222222223" y="539.1228268679108" style="fill: rgb(0, 85, 255);"></rect><rect height="0.19492736268647873" width="16.50793650793651" x="266.984126984127" y="539.8050726373135" style="fill: rgb(0, 85, 255);"></rect><rect height="0.03898547253729578" width="16.50793650793651" x="291.74603174603175" y="539.9610145274627" style="fill: rgb(0, 85, 255);"></rect><rect height="0.0070882677340537775" width="16.50793650793651" x="316.5079365079365" y="539.992911732266" style="fill: rgb(0, 85, 255);"></rect><rect height="0.001181377955675628" width="16.50793650793651" x="341.2698412698413" y="539.9988186220443" style="fill: rgb(0, 85, 255);"></rect><rect height="0.00018175045471932749" width="16.50793650793651" x="366.031746031746" y="539.9998182495452" style="fill: rgb(0, 85, 255);"></rect><rect height="0.000025964350674189682" width="16.50793650793651" x="390.79365079365084" y="539.9999740356493" style="fill: rgb(0, 85, 255);"></rect><rect height="0.0000034619134232252836" width="16.50793650793651" x="415.55555555555554" y="539.9999965380865" style="fill: rgb(0, 85, 255);"></rect><rect height="4.3273917790315955e-7" width="16.50793650793651" x="440.31746031746036" y="539.9999995672608" style="fill: rgb(0, 85, 255);"></rect><rect height="5.0910491518018906e-8" width="16.50793650793651" x="465.07936507936506" y="539.9999999490896" style="fill: rgb(0, 85, 255);"></rect><rect height="5.656721279779885e-9" width="16.50793650793651" x="489.8412698412699" y="539.9999999943433" style="fill: rgb(0, 85, 255);"></rect><rect height="5.954443452399881e-10" width="16.50793650793651" x="514.6031746031746" y="539.9999999994045" style="fill: rgb(0, 85, 255);"></rect><rect height="5.954443452399896e-11" width="16.50793650793651" x="539.3650793650794" y="539.9999999999404" style="fill: rgb(0, 85, 255);"></rect></svg>