<svg xmlns="http://www.w3.org/2000/svg" id="SVG" style="width: 600px; height: 560px;"><text x="290" y="40" style="font-size: 17px; font-family: sans-seirf; stroke: black; text-anchor: middle;">Probability Histogram and Normal Distribution</text><g class="axis" transform="translate(80, 80) " fill="none" font-size="10" font-family="sans-serif" text-anchor="end"><path class="domain" stroke="#000" d="M-6,400.5H0.5V0.5H-6"></path><g class="tick" opacity="1" transform="translate(0,400.5)"><line stroke="#000" x2="-6"></line><text fill="#000" x="-9" dy="0.32em">0.00</text></g><g class="tick" opacity="1" transform="translate(0,357.7572694474351)"><line stroke="#000" x2="-6"></line><text fill="#000" x="-9" dy="0.32em">0.01</text></g><g class="tick" opacity="1" transform="translate(0,315.0145388948702)"><line stroke="#000" x2="-6"></line><text fill="#000" x="-9" dy="0.32em">0.02</text></g><g class="tick" opacity="1" transform="translate(0,272.2718083423053)"><line stroke="#000" x2="-6"></line><text fill="#000" x="-9" dy="0.32em">0.03</text></g><g class="tick" opacity="1" transform="translate(0,229.5290777897404)"><line stroke="#000" x2="-6"></line><text fill="#000" x="-9" dy="0.32em">0.04</text></g><g class="tick" opacity="1" transform="translate(0,186.7863472371755)"><line stroke="#000" x2="-6"></line><text fill="#000" x="-9" dy="0.32em">0.05</text></g><g class="tick" opacity="1" transform="translate(0,144.04361668461058)"><line stroke="#000" x2="-6"></line><text fill="#000" x="-9" dy="0.32em">0.06</text></g><g class="tick" opacity="1" transform="translate(0,101.30088613204566)"><line stroke="#000" x2="-6"></line><text fill="#000" x="-9" dy="0.32em">0.07</text></g><g class="tick" opacity="1" transform="translate(0,58.5581555794808)"><line stroke="#000" x2="-6"></line><text fill="#000" x="-9" dy="0.32em">0.08</text></g><g class="tick" opacity="1" transform="translate(0,15.815425026915875)"><line stroke="#000" x2="-6"></line><text fill="#000" x="-9" dy="0.32em">0.09</text></g></g><line x1="500" x2="500" y1="80" y2="480" style="stroke: black;"></line><line x1="80" x2="500" y1="80" y2="80" style="stroke: black;"></line><line x1="80" x2="500" y1="480" y2="480" style="stroke: black;"></line><line x1="80" x2="80" y1="480" y2="485" style="stroke: black;"></line><text class="myaxis" x="80" y="500" style="text-anchor: middle; font-family: sans-serif; font-size: 7px; stroke: rgb(0, 85, 255);">157.47</text><line x1="106.25000000000004" x2="106.25000000000004" y1="480" y2="485" style="stroke: black;"></line><text class="myaxis" x="106.25000000000004" y="500" style="text-anchor: middle; font-family: sans-serif; font-size: 7px; stroke: rgb(0, 85, 255);">159.87</text><line x1="132.50000000000009" x2="132.50000000000009" y1="480" y2="485" style="stroke: black;"></line><text class="myaxis" x="132.50000000000009" y="500" style="text-anchor: middle; font-family: sans-serif; font-size: 7px; stroke: rgb(0, 85, 255);">162.27</text><line x1="158.7500000000001" x2="158.7500000000001" y1="480" y2="485" style="stroke: black;"></line><text class="myaxis" x="158.7500000000001" y="500" style="text-anchor: middle; font-family: sans-serif; font-size: 7px; stroke: rgb(0, 85, 255);">164.68</text><line x1="184.99999999999983" x2="184.99999999999983" y1="480" y2="485" style="stroke: black;"></line><text class="myaxis" x="184.99999999999983" y="500" style="text-anchor: middle; font-family: sans-serif; font-size: 7px; stroke: rgb(0, 85, 255);">167.08</text><line x1="211.2499999999999" x2="211.2499999999999" y1="480" y2="485" style="stroke: black;"></line><text class="myaxis" x="211.2499999999999" y="500" style="text-anchor: middle; font-family: sans-serif; font-size: 7px; stroke: rgb(0, 85, 255);">169.49</text><line x1="237.49999999999991" x2="237.49999999999991" y1="480" y2="485" style="stroke: black;"></line><text class="myaxis" x="237.49999999999991" y="500" style="text-anchor: middle; font-family: sans-serif; font-size: 7px; stroke: rgb(0, 85, 255);">171.89</text><line x1="263.74999999999994" x2="263.74999999999994" y1="480" y2="485" style="stroke: black;"></line><text class="myaxis" x="263.74999999999994" y="500" style="text-anchor: middle; font-family: sans-serif; font-size: 7px; stroke: rgb(0, 85, 255);">174.30</text><line x1="290" x2="290" y1="480" y2="485" style="stroke: black;"></line><text class="myaxis" x="290" y="500" style="text-anchor: middle; font-family: sans-serif; font-size: 7px; stroke: rgb(0, 85, 255);">176.70</text><line x1="316.25000000000006" x2="316.25000000000006" y1="480" y2="485" style="stroke: black;"></line><text class="myaxis" x="316.25000000000006" y="500" style="text-anchor: middle; font-family: sans-serif; font-size: 7px; stroke: rgb(0, 85, 255);">179.10</text><line x1="342.50000000000006" x2="342.50000000000006" y1="480" y2="485" style="stroke: black;"></line><text class="myaxis" x="342.50000000000006" y="500" style="text-anchor: middle; font-family: sans-serif; font-size: 7px; stroke: rgb(0, 85, 255);">181.51</text><line x1="368.7500000000001" x2="368.7500000000001" y1="480" y2="485" style="stroke: black;"></line><text class="myaxis" x="368.7500000000001" y="500" style="text-anchor: middle; font-family: sans-serif; font-size: 7px; stroke: rgb(0, 85, 255);">183.91</text><line x1="395.00000000000017" x2="395.00000000000017" y1="480" y2="485" style="stroke: black;"></line><text class="myaxis" x="395.00000000000017" y="500" style="text-anchor: middle; font-family: sans-serif; font-size: 7px; stroke: rgb(0, 85, 255);">186.32</text><line x1="421.2499999999999" x2="421.2499999999999" y1="480" y2="485" style="stroke: black;"></line><text class="myaxis" x="421.2499999999999" y="500" style="text-anchor: middle; font-family: sans-serif; font-size: 7px; stroke: rgb(0, 85, 255);">188.72</text><line x1="447.4999999999999" x2="447.4999999999999" y1="480" y2="485" style="stroke: black;"></line><text class="myaxis" x="447.4999999999999" y="500" style="text-anchor: middle; font-family: sans-serif; font-size: 7px; stroke: rgb(0, 85, 255);">191.13</text><line x1="473.74999999999994" x2="473.74999999999994" y1="480" y2="485" style="stroke: black;"></line><text class="myaxis" x="473.74999999999994" y="500" style="text-anchor: middle; font-family: sans-serif; font-size: 7px; stroke: rgb(0, 85, 255);">193.53</text><line x1="500" x2="500" y1="480" y2="485" style="stroke: black;"></line><text class="myaxis" x="500" y="500" style="text-anchor: middle; font-family: sans-serif; font-size: 7px; stroke: rgb(0, 85, 255);">195.93</text><text x="290" y="530" style="font-size: 12px; font-family: sans-seirf; stroke: black; text-anchor: middle;">Height</text><rect class="bar" x="80" width="26.25" height="0" y="480" style="fill: rgb(0, 85, 255); stroke: black; stroke-width: 1px;"></rect><rect class="bar" x="106.25000000000004" width="26.25" height="0" y="480" style="fill: rgb(0, 85, 255); stroke: black; stroke-width: 1px;"></rect><rect class="bar" x="132.50000000000009" width="26.25" height="0" y="480" style="fill: rgb(0, 85, 255); stroke: black; stroke-width: 1px;"></rect><rect class="bar" x="158.7500000000001" width="26.25" height="0" y="480" style="fill: rgb(0, 85, 255); stroke: black; stroke-width: 1px;"></rect><rect class="bar" x="184.99999999999983" width="26.25" height="177.7777777777778" y="302.2222222222222" style="fill: rgb(0, 85, 255); stroke: black; stroke-width: 1px;"></rect><rect class="bar" x="211.2499999999999" width="26.25" height="0" y="480" style="fill: rgb(0, 85, 255); stroke: black; stroke-width: 1px;"></rect><rect class="bar" x="237.49999999999991" width="26.25" height="355.5555555555556" y="124.4444444444444" style="fill: rgb(0, 85, 255); stroke: black; stroke-width: 1px;"></rect><rect class="bar" x="263.74999999999994" width="26.25" height="355.5555555555556" y="124.4444444444444" style="fill: rgb(0, 85, 255); stroke: black; stroke-width: 1px;"></rect><rect class="bar" x="290" width="26.25" height="355.5555555555556" y="124.4444444444444" style="fill: rgb(0, 85, 255); stroke: black; stroke-width: 1px;"></rect><rect class="bar" x="316.25000000000006" width="26.25" height="177.7777777777778" y="302.2222222222222" style="fill: rgb(0, 85, 255); stroke: black; stroke-width: 1px;"></rect><rect class="bar" x="342.50000000000006" width="26.25" height="177.7777777777778" y="302.2222222222222" style="fill: rgb(0, 85, 255); stroke: black; stroke-width: 1px;"></rect><rect class="bar" x="368.7500000000001" width="26.25" height="177.7777777777778" y="302.2222222222222" style="fill: rgb(0, 85, 255); stroke: black; stroke-width: 1px;"></rect><rect class="bar" x="395.00000000000017" width="26.25" height="0" y="480" style="fill: rgb(0, 85, 255); stroke: black; stroke-width: 1px;"></rect><rect class="bar" x="421.2499999999999" width="26.25" height="0" y="480" style="fill: rgb(0, 85, 255); stroke: black; stroke-width: 1px;"></rect><rect class="bar" x="447.4999999999999" width="26.25" height="0" y="480" style="fill: rgb(0, 85, 255); stroke: black; stroke-width: 1px;"></rect><rect class="bar" x="473.74999999999994" width="26.25" height="0" y="480" style="fill: rgb(0, 85, 255); stroke: black; stroke-width: 1px;"></rect><line x1="290" y1="125.38463964317077" x2="290" y2="485" style="stroke: red;"></line><text x="290" y="492" style="stroke: red; text-anchor: middle; font-family: sans-serif; font-size: 7pt;">Mean=176.70</text><text x="370" y="492" style="stroke: red; text-anchor: middle; font-family: sans-serif; font-size: 7pt;">Std Dev=4.81</text><line x1="80" x2="84.15841584158412" y1="479.8810397993201" y2="479.83720630490296" style="stroke: red;"></line><line x1="84.15841584158412" x2="88.31683168316825" y1="479.83720630490296" y2="479.7786147124859" style="stroke: red;"></line><line x1="88.31683168316825" x2="92.47524752475236" y1="479.7786147124859" y2="479.70081817097577" style="stroke: red;"></line><line x1="92.47524752475236" x2="96.63366336633649" y1="479.70081817097577" y2="479.5982120089531" style="stroke: red;"></line><line x1="96.63366336633649" x2="100.79207920792061" y1="479.5982120089531" y2="479.46379115520597" style="stroke: red;"></line><line x1="100.79207920792061" x2="104.95049504950472" y1="479.46379115520597" y2="479.2888744594377" style="stroke: red;"></line><line x1="104.95049504950472" x2="109.10891089108885" y1="479.2888744594377" y2="479.06279658474256" style="stroke: red;"></line><line x1="109.10891089108885" x2="113.26732673267297" y1="479.06279658474256" y2="478.7725700098622" style="stroke: red;"></line><line x1="113.26732673267297" x2="117.4257425742571" y1="478.7725700098622" y2="478.40252202081047" style="stroke: red;"></line><line x1="117.4257425742571" x2="121.58415841584122" y1="478.40252202081047" y2="477.9339143929037" style="stroke: red;"></line><line x1="121.58415841584122" x2="125.74257425742533" y1="477.9339143929037" y2="477.34455673743923" style="stroke: red;"></line><line x1="125.74257425742533" x2="129.90099009900945" y1="477.34455673743923" y2="476.6084281429512" style="stroke: red;"></line><line x1="129.90099009900945" x2="134.05940594059356" y1="476.6084281429512" y2="475.69532566131824" style="stroke: red;"></line><line x1="134.05940594059356" x2="138.2178217821777" y1="475.69532566131824" y2="474.57056220208796" style="stroke: red;"></line><line x1="138.2178217821777" x2="142.37623762376182" y1="474.57056220208796" y2="473.194740275622" style="stroke: red;"></line><line x1="142.37623762376182" x2="146.53465346534594" y1="473.194740275622" y2="471.52363148319245" style="stroke: red;"></line><line x1="146.53465346534594" x2="150.69306930693006" y1="471.52363148319245" y2="469.5081943573977" style="stroke: red;"></line><line x1="150.69306930693006" x2="154.8514851485142" y1="469.5081943573977" y2="467.09476474028537" style="stroke: red;"></line><line x1="154.8514851485142" x2="159.00990099009832" y1="467.09476474028537" y2="464.2254529628899" style="stroke: red;"></line><line x1="159.00990099009832" x2="163.16831683168243" y1="464.2254529628899" y2="460.83878027957314" style="stroke: red;"></line><line x1="163.16831683168243" x2="167.32673267326655" y1="460.83878027957314" y2="456.8705829729856" style="stroke: red;"></line><line x1="167.32673267326655" x2="171.48514851485066" y1="456.8705829729856" y2="452.255206013498" style="stroke: red;"></line><line x1="171.48514851485066" x2="175.6435643564348" y1="452.255206013498" y2="446.92699897422517" style="stroke: red;"></line><line x1="175.6435643564348" x2="179.8019801980189" y1="446.92699897422517" y2="440.82211506042194" style="stroke: red;"></line><line x1="179.8019801980189" x2="183.96039603960304" y1="440.82211506042194" y2="433.88059978143" style="stroke: red;"></line><line x1="183.96039603960304" x2="188.11881188118713" y1="433.88059978143" y2="426.04873935093855" style="stroke: red;"></line><line x1="188.11881188118713" x2="192.27722772277127" y1="426.04873935093855" y2="417.28162094189264" style="stroke: red;"></line><line x1="192.27722772277127" x2="196.43564356435542" y1="417.28162094189264" y2="407.5458382571911" style="stroke: red;"></line><line x1="196.43564356435542" x2="200.5940594059395" y1="407.5458382571911" y2="396.8222575141949" style="stroke: red;"></line><line x1="200.5940594059395" x2="204.75247524752365" y1="396.8222575141949" y2="385.10874204508957" style="stroke: red;"></line><line x1="204.75247524752365" x2="208.91089108910776" y1="385.10874204508957" y2="372.4227195495537" style="stroke: red;"></line><line x1="208.91089108910776" x2="213.06930693069188" y1="372.4227195495537" y2="358.8034658855878" style="stroke: red;"></line><line x1="213.06930693069188" x2="217.227722772276" y1="358.8034658855878" y2="344.313974363714" style="stroke: red;"></line><line x1="217.227722772276" x2="221.3861386138601" y1="344.313974363714" y2="329.04228086496744" style="stroke: red;"></line><line x1="221.3861386138601" x2="225.54455445544426" y1="329.04228086496744" y2="313.102123510398" style="stroke: red;"></line><line x1="225.54455445544426" x2="229.70297029702837" y1="313.102123510398" y2="296.63283148250935" style="stroke: red;"></line><line x1="229.70297029702837" x2="233.8613861386125" y1="296.63283148250935" y2="279.7983609106817" style="stroke: red;"></line><line x1="233.8613861386125" x2="238.01980198019663" y1="279.7983609106817" y2="262.7854259649487" style="stroke: red;"></line><line x1="238.01980198019663" x2="242.17821782178075" y1="262.7854259649487" y2="245.80070942622316" style="stroke: red;"></line><line x1="242.17821782178075" x2="246.33663366336486" y1="245.80070942622316" y2="229.06717749433636" style="stroke: red;"></line><line x1="246.33663366336486" x2="250.49504950494898" y1="229.06717749433636" y2="212.8195665025899" style="stroke: red;"></line><line x1="250.49504950494898" x2="254.6534653465331" y1="212.8195665025899" y2="197.29915223835434" style="stroke: red;"></line><line x1="254.6534653465331" x2="258.81188118811724" y1="197.29915223835434" y2="182.74795323143195" style="stroke: red;"></line><line x1="258.81188118811724" x2="262.9702970297013" y1="182.74795323143195" y2="169.40255513210855" style="stroke: red;"></line><line x1="262.9702970297013" x2="267.1287128712855" y1="169.40255513210855" y2="157.4877717605719" style="stroke: red;"></line><line x1="267.1287128712855" x2="271.2871287128696" y1="157.4877717605719" y2="147.21037748320884" style="stroke: red;"></line><line x1="271.2871287128696" x2="275.4455445544537" y1="147.21037748320884" y2="138.75315365236975" style="stroke: red;"></line><line x1="275.4455445544537" x2="279.6039603960378" y1="138.75315365236975" y2="132.26948794488305" style="stroke: red;"></line><line x1="279.6039603960378" x2="283.76237623762194" y1="132.26948794488305" y2="127.87874927717195" style="stroke: red;"></line><line x1="283.76237623762194" x2="287.9207920792061" y1="127.87874927717195" y2="125.66263305204075" style="stroke: red;"></line><line x1="287.9207920792061" x2="292.07920792079017" y1="125.66263305204075" y2="125.66263305203972" style="stroke: red;"></line><line x1="292.07920792079017" x2="296.23762376237426" y1="125.66263305203972" y2="127.87874927716899" style="stroke: red;"></line><line x1="296.23762376237426" x2="300.39603960395846" y1="127.87874927716899" y2="132.26948794487816" style="stroke: red;"></line><line x1="300.39603960395846" x2="304.55445544554254" y1="132.26948794487816" y2="138.7531536523631" style="stroke: red;"></line><line x1="304.55445544554254" x2="308.71287128712663" y1="138.7531536523631" y2="147.21037748320043" style="stroke: red;"></line><line x1="308.71287128712663" x2="312.87128712871083" y1="147.21037748320043" y2="157.48777176056194" style="stroke: red;"></line><line x1="312.87128712871083" x2="317.0297029702949" y1="157.48777176056194" y2="169.40255513209723" style="stroke: red;"></line><line x1="317.0297029702949" x2="321.188118811879" y1="169.40255513209723" y2="182.74795323141944" style="stroke: red;"></line><line x1="321.188118811879" x2="325.3465346534632" y1="182.74795323141944" y2="197.2991522383408" style="stroke: red;"></line><line x1="325.3465346534632" x2="329.5049504950473" y1="197.2991522383408" y2="212.81956650257558" style="stroke: red;"></line><line x1="329.5049504950473" x2="333.6633663366314" y1="212.81956650257558" y2="229.06717749432156" style="stroke: red;"></line><line x1="333.6633663366314" x2="337.8217821782155" y1="229.06717749432156" y2="245.80070942620802" style="stroke: red;"></line><line x1="337.8217821782155" x2="341.9801980197996" y1="245.80070942620802" y2="262.78542596493344" style="stroke: red;"></line><line x1="341.9801980197996" x2="346.13861386138376" y1="262.78542596493344" y2="279.7983609106665" style="stroke: red;"></line><line x1="346.13861386138376" x2="350.2970297029679" y1="279.7983609106665" y2="296.63283148249445" style="stroke: red;"></line><line x1="350.2970297029679" x2="354.455445544552" y1="296.63283148249445" y2="313.1021235103834" style="stroke: red;"></line><line x1="354.455445544552" x2="358.61386138613614" y1="313.1021235103834" y2="329.0422808649534" style="stroke: red;"></line><line x1="358.61386138613614" x2="362.7722772277202" y1="329.0422808649534" y2="344.31397436370065" style="stroke: red;"></line><line x1="362.7722772277202" x2="366.93069306930437" y1="344.31397436370065" y2="358.8034658855752" style="stroke: red;"></line><line x1="366.93069306930437" x2="371.0891089108885" y1="358.8034658855752" y2="372.42271954954185" style="stroke: red;"></line><line x1="371.0891089108885" x2="375.2475247524726" y1="372.42271954954185" y2="385.1087420450786" style="stroke: red;"></line><line x1="375.2475247524726" x2="379.40594059405674" y1="385.1087420450786" y2="396.82225751418486" style="stroke: red;"></line><line x1="379.40594059405674" x2="383.5643564356409" y1="396.82225751418486" y2="407.54583825718197" style="stroke: red;"></line><line x1="383.5643564356409" x2="387.722772277225" y1="407.54583825718197" y2="417.2816209418844" style="stroke: red;"></line><line x1="387.722772277225" x2="391.8811881188091" y1="417.2816209418844" y2="426.0487393509311" style="stroke: red;"></line><line x1="391.8811881188091" x2="396.03960396039326" y1="426.0487393509311" y2="433.8805997814234" style="stroke: red;"></line><line x1="396.03960396039326" x2="400.19801980197735" y1="433.8805997814234" y2="440.8221150604161" style="stroke: red;"></line><line x1="400.19801980197735" x2="404.3564356435615" y1="440.8221150604161" y2="446.92699897422006" style="stroke: red;"></line><line x1="404.3564356435615" x2="408.5148514851456" y1="446.92699897422006" y2="452.2552060134936" style="stroke: red;"></line><line x1="408.5148514851456" x2="412.67326732672973" y1="452.2552060134936" y2="456.87058297298177" style="stroke: red;"></line><line x1="412.67326732672973" x2="416.8316831683139" y1="456.87058297298177" y2="460.83878027956985" style="stroke: red;"></line><line x1="416.8316831683139" x2="420.99009900989796" y1="460.83878027956985" y2="464.22545296288706" style="stroke: red;"></line><line x1="420.99009900989796" x2="425.1485148514821" y1="464.22545296288706" y2="467.094764740283" style="stroke: red;"></line><line x1="425.1485148514821" x2="429.3069306930662" y1="467.094764740283" y2="469.5081943573957" style="stroke: red;"></line><line x1="429.3069306930662" x2="433.46534653465034" y1="469.5081943573957" y2="471.5236314831908" style="stroke: red;"></line><line x1="433.46534653465034" x2="437.6237623762345" y1="471.5236314831908" y2="473.1947402756207" style="stroke: red;"></line><line x1="437.6237623762345" x2="441.78217821781857" y1="473.1947402756207" y2="474.5705622020869" style="stroke: red;"></line><line x1="441.78217821781857" x2="445.9405940594027" y1="474.5705622020869" y2="475.6953256613173" style="stroke: red;"></line><line x1="445.9405940594027" x2="450.09900990098686" y1="475.6953256613173" y2="476.6084281429505" style="stroke: red;"></line><line x1="450.09900990098686" x2="454.25742574257094" y1="476.6084281429505" y2="477.34455673743867" style="stroke: red;"></line><line x1="454.25742574257094" x2="458.4158415841551" y1="477.34455673743867" y2="477.93391439290326" style="stroke: red;"></line><line x1="458.4158415841551" x2="462.57425742573923" y1="477.93391439290326" y2="478.4025220208101" style="stroke: red;"></line><line x1="462.57425742573923" x2="466.7326732673233" y1="478.4025220208101" y2="478.7725700098619" style="stroke: red;"></line><line x1="466.7326732673233" x2="470.89108910890747" y1="478.7725700098619" y2="479.06279658474233" style="stroke: red;"></line><line x1="470.89108910890747" x2="475.04950495049155" y1="479.06279658474233" y2="479.2888744594375" style="stroke: red;"></line><line x1="475.04950495049155" x2="479.20792079207564" y1="479.2888744594375" y2="479.46379115520585" style="stroke: red;"></line><line x1="479.20792079207564" x2="483.3663366336598" y1="479.46379115520585" y2="479.59821200895306" style="stroke: red;"></line><line x1="483.3663366336598" x2="487.5247524752439" y1="479.59821200895306" y2="479.70081817097565" style="stroke: red;"></line><line x1="487.5247524752439" x2="491.683168316828" y1="479.70081817097565" y2="479.7786147124858" style="stroke: red;"></line><line x1="491.683168316828" x2="495.8415841584121" y1="479.7786147124858" y2="479.8372063049029" style="stroke: red;"></line></svg>