<svg xmlns="http://www.w3.org/2000/svg"  id="chart" width="640" height="400"> <g transform="translate(20,70)" fill="none" font-size="10" font-family="sans-serif" text-anchor="middle"><path class="domain" stroke="#000" d="M0.5,6V0.5H600.5V6"></path><g class="tick" opacity="1" transform="translate(33.83333333333333,0)"><line stroke="#000" y2="6"></line><text fill="#000" y="9" dy="0.71em">-2</text></g><g class="tick" opacity="1" transform="translate(100.5,0)"><line stroke="#000" y2="6"></line><text fill="#000" y="9" dy="0.71em">0</text></g><g class="tick" opacity="1" transform="translate(167.16666666666669,0)"><line stroke="#000" y2="6"></line><text fill="#000" y="9" dy="0.71em">2</text></g><g class="tick" opacity="1" transform="translate(233.83333333333334,0)"><line stroke="#000" y2="6"></line><text fill="#000" y="9" dy="0.71em">4</text></g><g class="tick" opacity="1" transform="translate(300.5,0)"><line stroke="#000" y2="6"></line><text fill="#000" y="9" dy="0.71em">6</text></g><g class="tick" opacity="1" transform="translate(367.1666666666667,0)"><line stroke="#000" y2="6"></line><text fill="#000" y="9" dy="0.71em">8</text></g><g class="tick" opacity="1" transform="translate(433.8333333333333,0)"><line stroke="#000" y2="6"></line><text fill="#000" y="9" dy="0.71em">10</text></g><g class="tick" opacity="1" transform="translate(500.5,0)"><line stroke="#000" y2="6"></line><text fill="#000" y="9" dy="0.71em">12</text></g><g class="tick" opacity="1" transform="translate(567.1666666666666,0)"><line stroke="#000" y2="6"></line><text fill="#000" y="9" dy="0.71em">14</text></g></g><circle cx="220" cy="60" r="7" fill="#0055FF"></circle><circle cx="253.33333333333334" cy="60" r="7" fill="#FF4500"></circle><circle cx="286.6666666666667" cy="60" r="7" fill="#00AA00"></circle><circle cx="320" cy="60" r="7" fill="#FFE400"></circle><circle cx="353.3333333333333" cy="60" r="7" fill="#FF00DD"></circle><circle cx="386.6666666666667" cy="60" r="7" fill="#808000"></circle><circle cx="420" cy="60" r="7" fill="#0000CD"></circle><line x1="320" x2="320" y1="105" y2="35" style="stroke: green;"></line><line x1="320" x2="320" y1="125" y2="35" style="stroke: red;"></line><text x="320" y="100" style="font-size: 9pt; stroke: green; text-anchor: middle;">μ=6.00</text><text x="253.33333333333334" y="100" style="font-size: 9pt; stroke: green; text-anchor: middle;">μ-σ</text><text x="386.6666666666667" y="100" style="font-size: 9pt; stroke: green; text-anchor: middle;">μ+σ</text><text x="436.6666666666667" y="100" style="font-size: 9pt; stroke: blue; text-anchor: middle;">σ=2.00</text><line x1="253.33333333333334" x2="386.6666666666667" y1="105" y2="105" style="stroke: green;"></line><circle cx="253.33333333333334" cy="105" r="2" style="fill: green;"></circle><circle cx="320" cy="105" r="2" style="fill: green;"></circle><circle cx="386.6666666666667" cy="105" r="2" style="fill: green;"></circle><line x1="220" x2="220" y1="125" y2="145" style="stroke: green;"></line><line x1="270" x2="270" y1="125" y2="145" style="stroke: green;"></line><line x1="320" x2="320" y1="125" y2="145" style="stroke: red;"></line><line x1="370" x2="370" y1="125" y2="145" style="stroke: green;"></line><line x1="420" x2="420" y1="125" y2="145" style="stroke: green;"></line><line x1="270" x2="370" y1="125" y2="125" style="stroke: green;"></line><line x1="270" x2="370" y1="145" y2="145" style="stroke: green;"></line><line x1="220" x2="270" y1="135" y2="135" style="stroke: green;"></line><line x1="370" x2="420" y1="135" y2="135" style="stroke: green;"></line><text x="220" y="158" style="font-size: 9pt; stroke: blue; text-anchor: middle;">min</text><text x="270" y="158" style="font-size: 9pt; stroke: blue; text-anchor: middle;">Q1</text><text x="320" y="158" style="font-size: 9pt; stroke: red; text-anchor: middle;">m</text><text x="370" y="158" style="font-size: 9pt; stroke: blue; text-anchor: middle;">Q3</text><text x="420" y="158" style="font-size: 9pt; stroke: blue; text-anchor: middle;">max</text><text x="220" y="170" style="font-size: 9pt; stroke: blue; text-anchor: middle;">3.00</text><text x="270" y="170" style="font-size: 9pt; stroke: blue; text-anchor: middle;">4.50</text><text x="320" y="170" style="font-size: 9pt; stroke: red; text-anchor: middle;">6.00</text><text x="370" y="170" style="font-size: 9pt; stroke: blue; text-anchor: middle;">7.50</text><text x="420" y="170" style="font-size: 9pt; stroke: blue; text-anchor: middle;">9.00</text><text x="320" y="215" style="font-size: 10pt; stroke: red; text-anchor: middle;">  ***  Simulation  *** (Move a point using mouse)</text><g transform="translate(20,270)" fill="none" font-size="10" font-family="sans-serif" text-anchor="middle"><path class="domain" stroke="#000" d="M0.5,6V0.5H600.5V6"></path><g class="tick" opacity="1" transform="translate(33.83333333333333,0)"><line stroke="#000" y2="6"></line><text fill="#000" y="9" dy="0.71em">-2</text></g><g class="tick" opacity="1" transform="translate(100.5,0)"><line stroke="#000" y2="6"></line><text fill="#000" y="9" dy="0.71em">0</text></g><g class="tick" opacity="1" transform="translate(167.16666666666669,0)"><line stroke="#000" y2="6"></line><text fill="#000" y="9" dy="0.71em">2</text></g><g class="tick" opacity="1" transform="translate(233.83333333333334,0)"><line stroke="#000" y2="6"></line><text fill="#000" y="9" dy="0.71em">4</text></g><g class="tick" opacity="1" transform="translate(300.5,0)"><line stroke="#000" y2="6"></line><text fill="#000" y="9" dy="0.71em">6</text></g><g class="tick" opacity="1" transform="translate(367.1666666666667,0)"><line stroke="#000" y2="6"></line><text fill="#000" y="9" dy="0.71em">8</text></g><g class="tick" opacity="1" transform="translate(433.8333333333333,0)"><line stroke="#000" y2="6"></line><text fill="#000" y="9" dy="0.71em">10</text></g><g class="tick" opacity="1" transform="translate(500.5,0)"><line stroke="#000" y2="6"></line><text fill="#000" y="9" dy="0.71em">12</text></g><g class="tick" opacity="1" transform="translate(567.1666666666666,0)"><line stroke="#000" y2="6"></line><text fill="#000" y="9" dy="0.71em">14</text></g></g><circle cx="220" cy="260" r="7" fill="#0055FF" style="-webkit-tap-highlight-color: rgba(0, 0, 0, 0);"></circle><circle cx="253.33333333333334" cy="260" r="7" fill="#FF4500" style="-webkit-tap-highlight-color: rgba(0, 0, 0, 0);"></circle><circle cx="286.6666666666667" cy="260" r="7" fill="#00AA00" style="-webkit-tap-highlight-color: rgba(0, 0, 0, 0);"></circle><circle cx="320" cy="260" r="7" fill="#FFE400" style="-webkit-tap-highlight-color: rgba(0, 0, 0, 0);"></circle><circle cx="353.3333333333333" cy="260" r="7" fill="#FF00DD" style="-webkit-tap-highlight-color: rgba(0, 0, 0, 0);"></circle><circle cx="386.6666666666667" cy="260" r="7" fill="#808000" style="-webkit-tap-highlight-color: rgba(0, 0, 0, 0);"></circle><circle cx="571.0161743164062" cy="260" r="7" fill="#0000CD" style="-webkit-tap-highlight-color: rgba(0, 0, 0, 0);"></circle><line x1="253.33333333333334" x2="386.6666666666667" y1="305" y2="305" style="stroke: green;"></line><line x1="341.573739188058" x2="341.573739188058" y1="305" y2="235" class="simul" style="stroke: green;"></line><line x1="320" x2="320" y1="325" y2="235" class="simul" style="stroke: red;"></line><text x="341.573739188058" y="300" class="simul" style="font-size: 9pt; stroke: green; text-anchor: middle;">μ=6.65</text><text x="234.0946732385339" y="300" class="simul" style="font-size: 9pt; stroke: green; text-anchor: middle;">μ-σ</text><text x="449.05280513758214" y="300" class="simul" style="font-size: 9pt; stroke: green; text-anchor: middle;">μ+σ</text><text x="499.05280513758214" y="300" class="simul" style="font-size: 9pt; stroke: blue; text-anchor: middle;">σ=3.22</text><line x1="234.0946732385339" x2="449.05280513758214" y1="305" y2="305" style="stroke: green;"></line><circle cx="234.0946732385339" cy="305" r="2" class="simul" style="fill: green;"></circle><circle cx="341.573739188058" cy="305" r="2" class="simul" style="fill: green;"></circle><circle cx="449.05280513758214" cy="305" r="2" class="simul" style="fill: green;"></circle><line x1="220" x2="220" y1="325" y2="345" class="simul" style="stroke: green;"></line><line x1="270" x2="270" y1="325" y2="345" class="simul" style="stroke: green;"></line><line x1="320" x2="320" y1="325" y2="345" class="simul" style="stroke: red;"></line><line x1="370" x2="370" y1="325" y2="345" class="simul" style="stroke: green;"></line><line x1="571.0161743164061" x2="571.0161743164061" y1="325" y2="345" class="simul" style="stroke: green;"></line><line x1="270" x2="370" y1="325" y2="325" class="simul" style="stroke: green;"></line><line x1="270" x2="370" y1="345" y2="345" class="simul" style="stroke: green;"></line><line x1="220" x2="270" y1="335" y2="335" class="simul" style="stroke: green;"></line><line x1="370" x2="571.0161743164061" y1="335" y2="335" class="simul" style="stroke: green;"></line><text x="220" y="358" class="simul" style="font-size: 9pt; stroke: blue; text-anchor: middle;">min</text><text x="270" y="358" class="simul" style="font-size: 9pt; stroke: blue; text-anchor: middle;">Q1</text><text x="320" y="358" class="simul" style="font-size: 9pt; stroke: red; text-anchor: middle;">m</text><text x="370" y="358" class="simul" style="font-size: 9pt; stroke: blue; text-anchor: middle;">Q3</text><text x="571.0161743164061" y="358" class="simul" style="font-size: 9pt; stroke: blue; text-anchor: middle;">max</text><text x="220" y="370" class="simul" style="font-size: 9pt; stroke: blue; text-anchor: middle;">3.00</text><text x="270" y="370" class="simul" style="font-size: 9pt; stroke: blue; text-anchor: middle;">4.50</text><text x="320" y="370" class="simul" style="font-size: 9pt; stroke: red; text-anchor: middle;">6.00</text><text x="370" y="370" class="simul" style="font-size: 9pt; stroke: blue; text-anchor: middle;">7.50</text><text x="571.0161743164061" y="370" class="simul" style="font-size: 9pt; stroke: blue; text-anchor: middle;">13.53</text></svg>