<svg xmlns="http://www.w3.org/2000/svg" id="chart" width="600" height="600"> <g transform="translate(40,50)" fill="none" font-size="10" font-family="sans-serif" text-anchor="end"><path class="domain" stroke="#000" d="M-6,0.5H0.5V490.5H-6"></path><g class="tick" opacity="1" transform="translate(0,23.833333333333314)"><line stroke="#000" x2="-6"></line><text fill="#000" x="-9" dy="0.32em">0.8</text></g><g class="tick" opacity="1" transform="translate(0,82.16666666666669)"><line stroke="#000" x2="-6"></line><text fill="#000" x="-9" dy="0.32em">0.7</text></g><g class="tick" opacity="1" transform="translate(0,140.5)"><line stroke="#000" x2="-6"></line><text fill="#000" x="-9" dy="0.32em">0.6</text></g><g class="tick" opacity="1" transform="translate(0,198.83333333333331)"><line stroke="#000" x2="-6"></line><text fill="#000" x="-9" dy="0.32em">0.5</text></g><g class="tick" opacity="1" transform="translate(0,257.16666666666663)"><line stroke="#000" x2="-6"></line><text fill="#000" x="-9" dy="0.32em">0.4</text></g><g class="tick" opacity="1" transform="translate(0,315.5)"><line stroke="#000" x2="-6"></line><text fill="#000" x="-9" dy="0.32em">0.3</text></g><g class="tick" opacity="1" transform="translate(0,373.8333333333333)"><line stroke="#000" x2="-6"></line><text fill="#000" x="-9" dy="0.32em">0.2</text></g><g class="tick" opacity="1" transform="translate(0,432.1666666666667)"><line stroke="#000" x2="-6"></line><text fill="#000" x="-9" dy="0.32em">0.1</text></g><g class="tick" opacity="1" transform="translate(0,490.5)"><line stroke="#000" x2="-6"></line><text fill="#000" x="-9" dy="0.32em">0.0</text></g></g><line x1="40" y1="540" x2="560" y2="540" style="stroke: black;"></line><text class="barname" x="52.294117647058826" y="560" transform="rotate(90,52.294117647058826,560)  " style="font-family: sans-serif; font-size: 8pt; text-anchor: middle;">1</text><text class="barname" x="72.68627450980392" y="560" transform="rotate(90,72.68627450980392,560)  " style="font-family: sans-serif; font-size: 8pt; text-anchor: middle;">3</text><text class="barname" x="93.07843137254902" y="560" transform="rotate(90,93.07843137254902,560)  " style="font-family: sans-serif; font-size: 8pt; text-anchor: middle;">5</text><text class="barname" x="113.47058823529412" y="560" transform="rotate(90,113.47058823529412,560)  " style="font-family: sans-serif; font-size: 8pt; text-anchor: middle;">7</text><text class="barname" x="133.8627450980392" y="560" transform="rotate(90,133.8627450980392,560)  " style="font-family: sans-serif; font-size: 8pt; text-anchor: middle;">9</text><text class="barname" x="154.2549019607843" y="560" transform="rotate(90,154.2549019607843,560)  " style="font-family: sans-serif; font-size: 8pt; text-anchor: middle;">11</text><text class="barname" x="174.6470588235294" y="560" transform="rotate(90,174.6470588235294,560)  " style="font-family: sans-serif; font-size: 8pt; text-anchor: middle;">13</text><text class="barname" x="195.0392156862745" y="560" transform="rotate(90,195.0392156862745,560)  " style="font-family: sans-serif; font-size: 8pt; text-anchor: middle;">15</text><text class="barname" x="215.43137254901958" y="560" transform="rotate(90,215.43137254901958,560)  " style="font-family: sans-serif; font-size: 8pt; text-anchor: middle;">17</text><text class="barname" x="235.8235294117647" y="560" transform="rotate(90,235.8235294117647,560)  " style="font-family: sans-serif; font-size: 8pt; text-anchor: middle;">19</text><text class="barname" x="256.2156862745098" y="560" transform="rotate(90,256.2156862745098,560)  " style="font-family: sans-serif; font-size: 8pt; text-anchor: middle;">21</text><text class="barname" x="276.6078431372549" y="560" transform="rotate(90,276.6078431372549,560)  " style="font-family: sans-serif; font-size: 8pt; text-anchor: middle;">23</text><text class="barname" x="297" y="560" transform="rotate(90,297,560)  " style="font-family: sans-serif; font-size: 8pt; text-anchor: middle;">25</text><text class="barname" x="317.3921568627451" y="560" transform="rotate(90,317.3921568627451,560)  " style="font-family: sans-serif; font-size: 8pt; text-anchor: middle;">27</text><text class="barname" x="337.7843137254902" y="560" transform="rotate(90,337.7843137254902,560)  " style="font-family: sans-serif; font-size: 8pt; text-anchor: middle;">29</text><text class="barname" x="358.1764705882353" y="560" transform="rotate(90,358.1764705882353,560)  " style="font-family: sans-serif; font-size: 8pt; text-anchor: middle;">31</text><text class="barname" x="378.5686274509804" y="560" transform="rotate(90,378.5686274509804,560)  " style="font-family: sans-serif; font-size: 8pt; text-anchor: middle;">33</text><text class="barname" x="398.96078431372547" y="560" transform="rotate(90,398.96078431372547,560)  " style="font-family: sans-serif; font-size: 8pt; text-anchor: middle;">35</text><text class="barname" x="419.3529411764706" y="560" transform="rotate(90,419.3529411764706,560)  " style="font-family: sans-serif; font-size: 8pt; text-anchor: middle;">37</text><text class="barname" x="439.7450980392157" y="560" transform="rotate(90,439.7450980392157,560)  " style="font-family: sans-serif; font-size: 8pt; text-anchor: middle;">39</text><text class="barname" x="460.1372549019608" y="560" transform="rotate(90,460.1372549019608,560)  " style="font-family: sans-serif; font-size: 8pt; text-anchor: middle;">41</text><text class="barname" x="480.52941176470586" y="560" transform="rotate(90,480.52941176470586,560)  " style="font-family: sans-serif; font-size: 8pt; text-anchor: middle;">43</text><text class="barname" x="500.921568627451" y="560" transform="rotate(90,500.921568627451,560)  " style="font-family: sans-serif; font-size: 8pt; text-anchor: middle;">45</text><text class="barname" x="521.313725490196" y="560" transform="rotate(90,521.313725490196,560)  " style="font-family: sans-serif; font-size: 8pt; text-anchor: middle;">47</text><text class="barname" x="541.7058823529411" y="560" transform="rotate(90,541.7058823529411,560)  " style="font-family: sans-serif; font-size: 8pt; text-anchor: middle;">49</text><text x="40" y="25" style="font-size: 13pt; stroke: blue; text-anchor: start;">Geometric Distribution p = 0.05</text><text x="260" y="580" style="font-family: sans-serif; font-size: 9pt; stroke: rgb(0, 85, 255); text-anchor: middle;">Mean = 20.00,  Std Dev = 19.49</text><rect height="0" width="6.7973856209150325" x="41.69934640522876" y="540" style="fill: rgb(0, 85, 255);"></rect><rect height="29.16666666666667" width="6.7973856209150325" x="51.89542483660131" y="510.8333333333333" style="fill: rgb(0, 85, 255);"></rect><rect height="27.708333333333336" width="6.7973856209150325" x="62.091503267973856" y="512.2916666666666" style="fill: rgb(0, 85, 255);"></rect><rect height="26.322916666666668" width="6.7973856209150325" x="72.2875816993464" y="513.6770833333334" style="fill: rgb(0, 85, 255);"></rect><rect height="25.006770833333334" width="6.7973856209150325" x="82.48366013071896" y="514.9932291666667" style="fill: rgb(0, 85, 255);"></rect><rect height="23.756432291666666" width="6.7973856209150325" x="92.6797385620915" y="516.2435677083333" style="fill: rgb(0, 85, 255);"></rect><rect height="22.56861067708333" width="6.7973856209150325" x="102.87581699346404" y="517.4313893229166" style="fill: rgb(0, 85, 255);"></rect><rect height="21.440180143229163" width="6.7973856209150325" x="113.07189542483661" y="518.5598198567708" style="fill: rgb(0, 85, 255);"></rect><rect height="20.368171136067705" width="6.7973856209150325" x="123.26797385620915" y="519.6318288639322" style="fill: rgb(0, 85, 255);"></rect><rect height="19.349762579264315" width="6.7973856209150325" x="133.4640522875817" y="520.6502374207357" style="fill: rgb(0, 85, 255);"></rect><rect height="18.382274450301104" width="6.7973856209150325" x="143.66013071895424" y="521.6177255496989" style="fill: rgb(0, 85, 255);"></rect><rect height="17.463160727786047" width="6.7973856209150325" x="153.8562091503268" y="522.5368392722139" style="fill: rgb(0, 85, 255);"></rect><rect height="16.59000269139674" width="6.7973856209150325" x="164.05228758169935" y="523.4099973086032" style="fill: rgb(0, 85, 255);"></rect><rect height="15.76050255682691" width="6.7973856209150325" x="174.2483660130719" y="524.239497443173" style="fill: rgb(0, 85, 255);"></rect><rect height="14.972477428985558" width="6.7973856209150325" x="184.44444444444446" y="525.0275225710144" style="fill: rgb(0, 85, 255);"></rect><rect height="14.223853557536284" width="6.7973856209150325" x="194.640522875817" y="525.7761464424638" style="fill: rgb(0, 85, 255);"></rect><rect height="13.512660879659464" width="6.7973856209150325" x="204.83660130718954" y="526.4873391203405" style="fill: rgb(0, 85, 255);"></rect><rect height="12.837027835676496" width="6.7973856209150325" x="215.03267973856208" y="527.1629721643235" style="fill: rgb(0, 85, 255);"></rect><rect height="12.195176443892663" width="6.7973856209150325" x="225.22875816993462" y="527.8048235561073" style="fill: rgb(0, 85, 255);"></rect><rect height="11.585417621698037" width="6.7973856209150325" x="235.4248366013072" y="528.4145823783019" style="fill: rgb(0, 85, 255);"></rect><rect height="11.00614674061313" width="6.7973856209150325" x="245.62091503267973" y="528.9938532593869" style="fill: rgb(0, 85, 255);"></rect><rect height="10.455839403582477" width="6.7973856209150325" x="255.81699346405227" y="529.5441605964176" style="fill: rgb(0, 85, 255);"></rect><rect height="9.933047433403347" width="6.7973856209150325" x="266.01307189542484" y="530.0669525665967" style="fill: rgb(0, 85, 255);"></rect><rect height="9.436395061733185" width="6.7973856209150325" x="276.2091503267974" y="530.5636049382668" style="fill: rgb(0, 85, 255);"></rect><rect height="8.96457530864652" width="6.7973856209150325" x="286.4052287581699" y="531.0354246913535" style="fill: rgb(0, 85, 255);"></rect><rect height="8.516346543214198" width="6.7973856209150325" x="296.60130718954247" y="531.4836534567858" style="fill: rgb(0, 85, 255);"></rect><rect height="8.090529216053492" width="6.7973856209150325" x="306.797385620915" y="531.9094707839465" style="fill: rgb(0, 85, 255);"></rect><rect height="7.686002755250812" width="6.7973856209150325" x="316.99346405228755" y="532.3139972447492" style="fill: rgb(0, 85, 255);"></rect><rect height="7.301702617488267" width="6.7973856209150325" x="327.18954248366015" y="532.6982973825118" style="fill: rgb(0, 85, 255);"></rect><rect height="6.936617486613858" width="6.7973856209150325" x="337.3856209150327" y="533.0633825133862" style="fill: rgb(0, 85, 255);"></rect><rect height="6.5897866122831665" width="6.7973856209150325" x="347.58169934640523" y="533.4102133877168" style="fill: rgb(0, 85, 255);"></rect><rect height="6.260297281669005" width="6.7973856209150325" x="357.77777777777777" y="533.739702718331" style="fill: rgb(0, 85, 255);"></rect><rect height="5.947282417585552" width="6.7973856209150325" x="367.9738562091503" y="534.0527175824144" style="fill: rgb(0, 85, 255);"></rect><rect height="5.649918296706277" width="6.7973856209150325" x="378.16993464052285" y="534.3500817032938" style="fill: rgb(0, 85, 255);"></rect><rect height="5.3674223818709645" width="6.7973856209150325" x="388.3660130718954" y="534.6325776181291" style="fill: rgb(0, 85, 255);"></rect><rect height="5.099051262777414" width="6.7973856209150325" x="398.56209150326794" y="534.9009487372226" style="fill: rgb(0, 85, 255);"></rect><rect height="4.844098699638542" width="6.7973856209150325" x="408.7581699346405" y="535.1559013003615" style="fill: rgb(0, 85, 255);"></rect><rect height="4.601893764656616" width="6.7973856209150325" x="418.9542483660131" y="535.3981062353433" style="fill: rgb(0, 85, 255);"></rect><rect height="4.371799076423787" width="6.7973856209150325" x="429.1503267973856" y="535.6282009235762" style="fill: rgb(0, 85, 255);"></rect><rect height="4.153209122602595" width="6.7973856209150325" x="439.34640522875816" y="535.8467908773974" style="fill: rgb(0, 85, 255);"></rect><rect height="3.9455486664724635" width="6.7973856209150325" x="449.5424836601307" y="536.0544513335275" style="fill: rgb(0, 85, 255);"></rect><rect height="3.748271233148842" width="6.7973856209150325" x="459.73856209150324" y="536.2517287668511" style="fill: rgb(0, 85, 255);"></rect><rect height="3.560857671491401" width="6.7973856209150325" x="469.9346405228758" y="536.4391423285086" style="fill: rgb(0, 85, 255);"></rect><rect height="3.3828147879168293" width="6.7973856209150325" x="480.1307189542483" y="536.6171852120832" style="fill: rgb(0, 85, 255);"></rect><rect height="3.2136740485209865" width="6.7973856209150325" x="490.3267973856209" y="536.7863259514791" style="fill: rgb(0, 85, 255);"></rect><rect height="3.052990346094938" width="6.7973856209150325" x="500.52287581699346" y="536.9470096539051" style="fill: rgb(0, 85, 255);"></rect><rect height="2.9003408287901924" width="6.7973856209150325" x="510.718954248366" y="537.0996591712099" style="fill: rgb(0, 85, 255);"></rect><rect height="2.755323787350681" width="6.7973856209150325" x="520.9150326797385" y="537.2446762126493" style="fill: rgb(0, 85, 255);"></rect><rect height="2.617557597983146" width="6.7973856209150325" x="531.1111111111111" y="537.3824424020169" style="fill: rgb(0, 85, 255);"></rect><rect height="2.4866797180839897" width="6.7973856209150325" x="541.3071895424836" y="537.513320281916" style="fill: rgb(0, 85, 255);"></rect><rect height="2.362345732179791" width="6.7973856209150325" x="551.5032679738562" y="537.6376542678202" style="fill: rgb(0, 85, 255);"></rect></svg>