<svg xmlns="http://www.w3.org/2000/svg"  id="SVG" width="600" height="560"><text x="290" y="50" style="font-size: 17px; font-family: sans-seirf; stroke: black; text-anchor: middle;">OtterLength  Histogram</text><g class="axis" transform="translate(80, 80) " fill="none" font-size="10" font-family="sans-serif" text-anchor="end"><path class="domain" stroke="#000" d="M-6,400.5H0.5V0.5H-6"></path><g class="tick" opacity="1" transform="translate(0,400.5)"><line stroke="#000" x2="-6"></line><text fill="#000" x="-9" dy="0.32em">0</text></g><g class="tick" opacity="1" transform="translate(0,350.5)"><line stroke="#000" x2="-6"></line><text fill="#000" x="-9" dy="0.32em">2</text></g><g class="tick" opacity="1" transform="translate(0,300.5)"><line stroke="#000" x2="-6"></line><text fill="#000" x="-9" dy="0.32em">4</text></g><g class="tick" opacity="1" transform="translate(0,250.5)"><line stroke="#000" x2="-6"></line><text fill="#000" x="-9" dy="0.32em">6</text></g><g class="tick" opacity="1" transform="translate(0,200.5)"><line stroke="#000" x2="-6"></line><text fill="#000" x="-9" dy="0.32em">8</text></g><g class="tick" opacity="1" transform="translate(0,150.5)"><line stroke="#000" x2="-6"></line><text fill="#000" x="-9" dy="0.32em">10</text></g><g class="tick" opacity="1" transform="translate(0,100.5)"><line stroke="#000" x2="-6"></line><text fill="#000" x="-9" dy="0.32em">12</text></g><g class="tick" opacity="1" transform="translate(0,50.5)"><line stroke="#000" x2="-6"></line><text fill="#000" x="-9" dy="0.32em">14</text></g><g class="tick" opacity="1" transform="translate(0,0.5)"><line stroke="#000" x2="-6"></line><text fill="#000" x="-9" dy="0.32em">16</text></g></g><line x1="500" x2="500" y1="80" y2="480" style="stroke: black;"></line><line x1="80" x2="500" y1="80" y2="80" style="stroke: black;"></line><line x1="80" x2="500" y1="480" y2="480" style="stroke: black;"></line><line x1="80" x2="80" y1="480" y2="485" style="stroke: black;"></line><text class="myaxis" x="80" y="500" style="text-anchor: middle; font-family: sans-serif; font-size: 7px; stroke: rgb(0, 85, 255);">55.00</text><line x1="150" x2="150" y1="480" y2="485" style="stroke: black;"></line><text class="myaxis" x="150" y="500" style="text-anchor: middle; font-family: sans-serif; font-size: 7px; stroke: rgb(0, 85, 255);">60.00</text><line x1="220" x2="220" y1="480" y2="485" style="stroke: black;"></line><text class="myaxis" x="220" y="500" style="text-anchor: middle; font-family: sans-serif; font-size: 7px; stroke: rgb(0, 85, 255);">65.00</text><line x1="290" x2="290" y1="480" y2="485" style="stroke: black;"></line><text class="myaxis" x="290" y="500" style="text-anchor: middle; font-family: sans-serif; font-size: 7px; stroke: rgb(0, 85, 255);">70.00</text><line x1="360" x2="360" y1="480" y2="485" style="stroke: black;"></line><text class="myaxis" x="360" y="500" style="text-anchor: middle; font-family: sans-serif; font-size: 7px; stroke: rgb(0, 85, 255);">75.00</text><line x1="430" x2="430" y1="480" y2="485" style="stroke: black;"></line><text class="myaxis" x="430" y="500" style="text-anchor: middle; font-family: sans-serif; font-size: 7px; stroke: rgb(0, 85, 255);">80.00</text><line x1="500" x2="500" y1="480" y2="485" style="stroke: black;"></line><text class="myaxis" x="500" y="500" style="text-anchor: middle; font-family: sans-serif; font-size: 7px; stroke: rgb(0, 85, 255);">85.00</text><text x="290" y="530" style="font-size: 12px; font-family: sans-seirf; stroke: black; text-anchor: middle;">OtterLength</text><text x="25" y="95" transform="rotate(-90 30 100)" style="font-size: 12px; font-family: sans-seirf; stroke: black; text-anchor: end;">Frequency</text><rect class="bar" x="80" width="70" height="0" y="480" style="fill: rgb(0, 85, 255); stroke: black; stroke-width: 1px;"></rect><rect class="bar" x="150" width="70" height="125" y="355" style="fill: rgb(0, 85, 255); stroke: black; stroke-width: 1px;"></rect><rect class="bar" x="220" width="70" height="350" y="130" style="fill: rgb(0, 85, 255); stroke: black; stroke-width: 1px;"></rect><rect class="bar" x="290" width="70" height="175" y="305" style="fill: rgb(0, 85, 255); stroke: black; stroke-width: 1px;"></rect><rect class="bar" x="360" width="70" height="100" y="380" style="fill: rgb(0, 85, 255); stroke: black; stroke-width: 1px;"></rect><rect class="bar" x="430" width="70" height="0" y="480" style="fill: rgb(0, 85, 255); stroke: black; stroke-width: 1px;"></rect><rect class="bar" x="500" width="70" height="0" y="480" style="fill: rgb(0, 85, 255); stroke: black; stroke-width: 1px;"></rect></svg>