<svg xmlns="http://www.w3.org/2000/svg" id="SVG" width="600" height="560" xlink="http://www.w3.org/1999/xlink"><text x="290" y="50" style="font-size: 17px; font-family: sans-seirf; stroke: black; text-anchor: middle;">(Group  Gender)   Age  Dot Graph</text><text x="290" y="530" style="font-size: 12px; font-family: sans-seirf; stroke: black; text-anchor: middle;"> Age</text><text x="520" y="180" style="font-size: 12px; font-family: sans-seirf; stroke: rgb(0, 85, 255); text-anchor: start;">Group 1</text><line x1="80" x2="500" y1="80" y2="80" style="stroke: black;"></line><g transform="translate(80,480)" fill="none" font-size="10" font-family="sans-serif" text-anchor="middle"><path class="domain" stroke="#000" d="M0.5,6V0.5H420.5V6"></path><g class="tick" opacity="1" transform="translate(35.50000000000001,0)"><line stroke="#000" y2="6"></line><text fill="#000" y="9" dy="0.71em">25</text></g><g class="tick" opacity="1" transform="translate(81.55263157894738,0)"><line stroke="#000" y2="6"></line><text fill="#000" y="9" dy="0.71em">30</text></g><g class="tick" opacity="1" transform="translate(127.60526315789475,0)"><line stroke="#000" y2="6"></line><text fill="#000" y="9" dy="0.71em">35</text></g><g class="tick" opacity="1" transform="translate(173.65789473684214,0)"><line stroke="#000" y2="6"></line><text fill="#000" y="9" dy="0.71em">40</text></g><g class="tick" opacity="1" transform="translate(219.7105263157895,0)"><line stroke="#000" y2="6"></line><text fill="#000" y="9" dy="0.71em">45</text></g><g class="tick" opacity="1" transform="translate(265.7631578947369,0)"><line stroke="#000" y2="6"></line><text fill="#000" y="9" dy="0.71em">50</text></g><g class="tick" opacity="1" transform="translate(311.8157894736842,0)"><line stroke="#000" y2="6"></line><text fill="#000" y="9" dy="0.71em">55</text></g><g class="tick" opacity="1" transform="translate(357.8684210526316,0)"><line stroke="#000" y2="6"></line><text fill="#000" y="9" dy="0.71em">60</text></g><g class="tick" opacity="1" transform="translate(403.921052631579,0)"><line stroke="#000" y2="6"></line><text fill="#000" y="9" dy="0.71em">65</text></g></g><line x1="80" x2="80" y1="80" y2="480" style="stroke: black;"></line><line x1="500" x2="500" y1="80" y2="480" style="stroke: black;"></line><circle class="circle" tooltip="circle" stroke="black" cx="115" cy="272" r="4" style="fill: rgb(0, 85, 255);"></circle><circle class="circle" tooltip="circle" stroke="black" cx="124.21052631578948" cy="272" r="4" style="fill: rgb(0, 85, 255);"></circle><circle class="circle" tooltip="circle" stroke="black" cx="124.21052631578948" cy="264" r="4" style="fill: rgb(0, 85, 255);"></circle><circle class="circle" tooltip="circle" stroke="black" cx="179.47368421052633" cy="272" r="4" style="fill: rgb(0, 85, 255);"></circle><circle class="circle" tooltip="circle" stroke="black" cx="197.89473684210526" cy="272" r="4" style="fill: rgb(0, 85, 255);"></circle><circle class="circle" tooltip="circle" stroke="black" cx="207.10526315789474" cy="272" r="4" style="fill: rgb(0, 85, 255);"></circle><circle class="circle" tooltip="circle" stroke="black" cx="216.31578947368422" cy="272" r="4" style="fill: rgb(0, 85, 255);"></circle><circle class="circle" tooltip="circle" stroke="black" cx="271.57894736842104" cy="272" r="4" style="fill: rgb(0, 85, 255);"></circle><circle class="circle" tooltip="circle" stroke="black" cx="271.57894736842104" cy="264" r="4" style="fill: rgb(0, 85, 255);"></circle><circle class="circle" tooltip="circle" stroke="black" cx="308.42105263157896" cy="272" r="4" style="fill: rgb(0, 85, 255);"></circle><circle class="circle" tooltip="circle" stroke="black" cx="336.0526315789474" cy="272" r="4" style="fill: rgb(0, 85, 255);"></circle><circle class="circle" tooltip="circle" stroke="black" cx="382.10526315789474" cy="272" r="4" style="fill: rgb(0, 85, 255);"></circle><circle class="circle" tooltip="circle" stroke="black" cx="418.94736842105266" cy="272" r="4" style="fill: rgb(0, 85, 255);"></circle><text x="520" y="380" style="font-size: 12px; font-family: sans-seirf; stroke: rgb(255, 69, 0); text-anchor: start;">Group 2</text><line x1="80" x2="500" y1="280" y2="280" style="stroke: black;"></line><g transform="translate(80,480)" fill="none" font-size="10" font-family="sans-serif" text-anchor="middle"><path class="domain" stroke="#000" d="M0.5,6V0.5H420.5V6"></path><g class="tick" opacity="1" transform="translate(35.50000000000001,0)"><line stroke="#000" y2="6"></line><text fill="#000" y="9" dy="0.71em">25</text></g><g class="tick" opacity="1" transform="translate(81.55263157894738,0)"><line stroke="#000" y2="6"></line><text fill="#000" y="9" dy="0.71em">30</text></g><g class="tick" opacity="1" transform="translate(127.60526315789475,0)"><line stroke="#000" y2="6"></line><text fill="#000" y="9" dy="0.71em">35</text></g><g class="tick" opacity="1" transform="translate(173.65789473684214,0)"><line stroke="#000" y2="6"></line><text fill="#000" y="9" dy="0.71em">40</text></g><g class="tick" opacity="1" transform="translate(219.7105263157895,0)"><line stroke="#000" y2="6"></line><text fill="#000" y="9" dy="0.71em">45</text></g><g class="tick" opacity="1" transform="translate(265.7631578947369,0)"><line stroke="#000" y2="6"></line><text fill="#000" y="9" dy="0.71em">50</text></g><g class="tick" opacity="1" transform="translate(311.8157894736842,0)"><line stroke="#000" y2="6"></line><text fill="#000" y="9" dy="0.71em">55</text></g><g class="tick" opacity="1" transform="translate(357.8684210526316,0)"><line stroke="#000" y2="6"></line><text fill="#000" y="9" dy="0.71em">60</text></g><g class="tick" opacity="1" transform="translate(403.921052631579,0)"><line stroke="#000" y2="6"></line><text fill="#000" y="9" dy="0.71em">65</text></g></g><line x1="80" x2="80" y1="80" y2="480" style="stroke: black;"></line><line x1="500" x2="500" y1="80" y2="480" style="stroke: black;"></line><circle class="circle" tooltip="circle" stroke="black" cx="133.42105263157896" cy="472" r="4" style="fill: rgb(255, 69, 0);"></circle><circle class="circle" tooltip="circle" stroke="black" cx="142.63157894736844" cy="472" r="4" style="fill: rgb(255, 69, 0);"></circle><circle class="circle" tooltip="circle" stroke="black" cx="170.26315789473685" cy="472" r="4" style="fill: rgb(255, 69, 0);"></circle><circle class="circle" tooltip="circle" stroke="black" cx="179.47368421052633" cy="472" r="4" style="fill: rgb(255, 69, 0);"></circle><circle class="circle" tooltip="circle" stroke="black" cx="188.6842105263158" cy="472" r="4" style="fill: rgb(255, 69, 0);"></circle><circle class="circle" tooltip="circle" stroke="black" cx="197.89473684210526" cy="472" r="4" style="fill: rgb(255, 69, 0);"></circle><circle class="circle" tooltip="circle" stroke="black" cx="216.31578947368422" cy="472" r="4" style="fill: rgb(255, 69, 0);"></circle><circle class="circle" tooltip="circle" stroke="black" cx="243.94736842105266" cy="472" r="4" style="fill: rgb(255, 69, 0);"></circle><circle class="circle" tooltip="circle" stroke="black" cx="262.36842105263156" cy="472" r="4" style="fill: rgb(255, 69, 0);"></circle><circle class="circle" tooltip="circle" stroke="black" cx="271.57894736842104" cy="472" r="4" style="fill: rgb(255, 69, 0);"></circle><circle class="circle" tooltip="circle" stroke="black" cx="280.7894736842105" cy="472" r="4" style="fill: rgb(255, 69, 0);"></circle><circle class="circle" tooltip="circle" stroke="black" cx="299.2105263157895" cy="472" r="4" style="fill: rgb(255, 69, 0);"></circle><circle class="circle" tooltip="circle" stroke="black" cx="354.47368421052636" cy="472" r="4" style="fill: rgb(255, 69, 0);"></circle><circle class="circle" tooltip="circle" stroke="black" cx="372.8947368421053" cy="472" r="4" style="fill: rgb(255, 69, 0);"></circle><circle class="circle" tooltip="circle" stroke="black" cx="400.5263157894737" cy="472" r="4" style="fill: rgb(255, 69, 0);"></circle><circle class="circle" tooltip="circle" stroke="black" cx="446.5789473684211" cy="472" r="4" style="fill: rgb(255, 69, 0);"></circle><circle class="circle" tooltip="circle" stroke="black" cx="465.00000000000006" cy="472" r="4" style="fill: rgb(255, 69, 0);"></circle></svg>