<svg xmlns="http://www.w3.org/2000/svg" id="chart" width="600" height="400"> <text x="300" y="30" style="font-family: sans-serif; font-size: 12pt; stroke: black; text-anchor: middle;">H₀: σ² = 0.01 , H₁: σ² &gt; 0.01</text><text x="300" y="60" style="font-family: sans-serif; font-size: 9pt; stroke: green; text-anchor: middle;">[TestStat] = (n - 1) S² / σ₀²  ~  χ²(24) Distribution</text><g transform="translate(100,270)" fill="none" font-size="10" font-family="sans-serif" text-anchor="middle"><path class="domain" stroke="#000" d="M0.5,6V0.5H400.5V6"></path><g class="tick" opacity="1" transform="translate(29.337596251819374,0)"><line stroke="#000" y2="6"></line><text fill="#000" y="9" dy="0.71em">10</text></g><g class="tick" opacity="1" transform="translate(67.51284101365131,0)"><line stroke="#000" y2="6"></line><text fill="#000" y="9" dy="0.71em">15</text></g><g class="tick" opacity="1" transform="translate(105.68808577548324,0)"><line stroke="#000" y2="6"></line><text fill="#000" y="9" dy="0.71em">20</text></g><g class="tick" opacity="1" transform="translate(143.86333053731516,0)"><line stroke="#000" y2="6"></line><text fill="#000" y="9" dy="0.71em">25</text></g><g class="tick" opacity="1" transform="translate(182.0385752991471,0)"><line stroke="#000" y2="6"></line><text fill="#000" y="9" dy="0.71em">30</text></g><g class="tick" opacity="1" transform="translate(220.21382006097903,0)"><line stroke="#000" y2="6"></line><text fill="#000" y="9" dy="0.71em">35</text></g><g class="tick" opacity="1" transform="translate(258.38906482281095,0)"><line stroke="#000" y2="6"></line><text fill="#000" y="9" dy="0.71em">40</text></g><g class="tick" opacity="1" transform="translate(296.5643095846429,0)"><line stroke="#000" y2="6"></line><text fill="#000" y="9" dy="0.71em">45</text></g><g class="tick" opacity="1" transform="translate(334.7395543464748,0)"><line stroke="#000" y2="6"></line><text fill="#000" y="9" dy="0.71em">50</text></g><g class="tick" opacity="1" transform="translate(372.91479910830674,0)"><line stroke="#000" y2="6"></line><text fill="#000" y="9" dy="0.71em">55</text></g></g><g transform="translate(100,60)" fill="none" font-size="10" font-family="sans-serif" text-anchor="end"><path class="domain" stroke="#000" d="M-6,0.5H0.5V210.5H-6"></path><g class="tick" opacity="1" transform="translate(0,0.5000000000000284)"><line stroke="#000" x2="-6"></line><text fill="#000" x="-9" dy="0.32em">0.12</text></g><g class="tick" opacity="1" transform="translate(0,18)"><line stroke="#000" x2="-6"></line><text fill="#000" x="-9" dy="0.32em">0.11</text></g><g class="tick" opacity="1" transform="translate(0,35.50000000000003)"><line stroke="#000" x2="-6"></line><text fill="#000" x="-9" dy="0.32em">0.10</text></g><g class="tick" opacity="1" transform="translate(0,53.00000000000003)"><line stroke="#000" x2="-6"></line><text fill="#000" x="-9" dy="0.32em">0.09</text></g><g class="tick" opacity="1" transform="translate(0,70.5)"><line stroke="#000" x2="-6"></line><text fill="#000" x="-9" dy="0.32em">0.08</text></g><g class="tick" opacity="1" transform="translate(0,87.99999999999999)"><line stroke="#000" x2="-6"></line><text fill="#000" x="-9" dy="0.32em">0.07</text></g><g class="tick" opacity="1" transform="translate(0,105.50000000000001)"><line stroke="#000" x2="-6"></line><text fill="#000" x="-9" dy="0.32em">0.06</text></g><g class="tick" opacity="1" transform="translate(0,123.00000000000001)"><line stroke="#000" x2="-6"></line><text fill="#000" x="-9" dy="0.32em">0.05</text></g><g class="tick" opacity="1" transform="translate(0,140.5)"><line stroke="#000" x2="-6"></line><text fill="#000" x="-9" dy="0.32em">0.04</text></g><g class="tick" opacity="1" transform="translate(0,158)"><line stroke="#000" x2="-6"></line><text fill="#000" x="-9" dy="0.32em">0.03</text></g><g class="tick" opacity="1" transform="translate(0,175.5)"><line stroke="#000" x2="-6"></line><text fill="#000" x="-9" dy="0.32em">0.02</text></g><g class="tick" opacity="1" transform="translate(0,193)"><line stroke="#000" x2="-6"></line><text fill="#000" x="-9" dy="0.32em">0.01</text></g><g class="tick" opacity="1" transform="translate(0,210.5)"><line stroke="#000" x2="-6"></line><text fill="#000" x="-9" dy="0.32em">0.00</text></g></g><line x1="100" y1="269.7416480561637" x2="101" y2="269.69571988038143" stroke-width="2px" style="stroke: black;"></line><line x1="101" y1="269.69571988038143" x2="102" y2="269.64329832571605" stroke-width="2px" style="stroke: black;"></line><line x1="102" y1="269.64329832571605" x2="103.00000000000001" y2="269.5837179923318" stroke-width="2px" style="stroke: black;"></line><line x1="103.00000000000001" y1="269.5837179923318" x2="104.00000000000001" y2="269.51627617463726" stroke-width="2px" style="stroke: black;"></line><line x1="104.00000000000001" y1="269.51627617463726" x2="105.00000000000001" y2="269.44023379294225" stroke-width="2px" style="stroke: black;"></line><line x1="105.00000000000001" y1="269.44023379294225" x2="106.00000000000001" y2="269.35481661798883" stroke-width="2px" style="stroke: black;"></line><line x1="106.00000000000001" y1="269.35481661798883" x2="107.00000000000001" y2="269.2592167884883" stroke-width="2px" style="stroke: black;"></line><line x1="107.00000000000001" y1="269.2592167884883" x2="108.00000000000003" y2="269.15259461918095" stroke-width="2px" style="stroke: black;"></line><line x1="108.00000000000003" y1="269.15259461918095" x2="109.00000000000003" y2="269.0340806943604" stroke-width="2px" style="stroke: black;"></line><line x1="109.00000000000003" y1="269.0340806943604" x2="110.00000000000003" y2="268.90277823930387" stroke-width="2px" style="stroke: black;"></line><line x1="110.00000000000003" y1="268.90277823930387" x2="111.00000000000003" y2="268.75776575964585" stroke-width="2px" style="stroke: black;"></line><line x1="111.00000000000003" y1="268.75776575964585" x2="112.00000000000003" y2="268.59809993644825" stroke-width="2px" style="stroke: black;"></line><line x1="112.00000000000003" y1="268.59809993644825" x2="113.00000000000004" y2="268.42281876257823" stroke-width="2px" style="stroke: black;"></line><line x1="113.00000000000004" y1="268.42281876257823" x2="114.00000000000004" y2="268.23094490401763" stroke-width="2px" style="stroke: black;"></line><line x1="114.00000000000004" y1="268.23094490401763" x2="115.00000000000004" y2="268.02148926791875" stroke-width="2px" style="stroke: black;"></line><line x1="115.00000000000004" y1="268.02148926791875" x2="116.00000000000004" y2="267.7934547575947" stroke-width="2px" style="stroke: black;"></line><line x1="116.00000000000004" y1="267.7934547575947" x2="117.00000000000004" y2="267.5458401932036" stroke-width="2px" style="stroke: black;"></line><line x1="117.00000000000004" y1="267.5458401932036" x2="118.00000000000006" y2="267.2776443756612" stroke-width="2px" style="stroke: black;"></line><line x1="118.00000000000006" y1="267.2776443756612" x2="119.00000000000006" y2="266.9878702702994" stroke-width="2px" style="stroke: black;"></line><line x1="119.00000000000006" y1="266.9878702702994" x2="120.00000000000006" y2="266.6755292859824" stroke-width="2px" style="stroke: black;"></line><line x1="120.00000000000006" y1="266.6755292859824" x2="121.00000000000006" y2="266.3396456247985" stroke-width="2px" style="stroke: black;"></line><line x1="121.00000000000006" y1="266.3396456247985" x2="122.00000000000006" y2="265.9792606770617" stroke-width="2px" style="stroke: black;"></line><line x1="122.00000000000006" y1="265.9792606770617" x2="123.00000000000006" y2="265.5934374361773" stroke-width="2px" style="stroke: black;"></line><line x1="123.00000000000006" y1="265.5934374361773" x2="124.00000000000007" y2="265.18126490795055" stroke-width="2px" style="stroke: black;"></line><line x1="124.00000000000007" y1="265.18126490795055" x2="125.00000000000007" y2="264.741862489128" stroke-width="2px" style="stroke: black;"></line><line x1="125.00000000000007" y1="264.741862489128" x2="126.00000000000007" y2="264.27438429036636" stroke-width="2px" style="stroke: black;"></line><line x1="126.00000000000007" y1="264.27438429036636" x2="127.00000000000009" y2="263.7780233793922" stroke-width="2px" style="stroke: black;"></line><line x1="127.00000000000009" y1="263.7780233793922" x2="128.00000000000009" y2="263.2520159208566" stroke-width="2px" style="stroke: black;"></line><line x1="128.00000000000009" y1="263.2520159208566" x2="129.00000000000009" y2="262.6956451902769" stroke-width="2px" style="stroke: black;"></line><line x1="129.00000000000009" y1="262.6956451902769" x2="130.00000000000009" y2="262.1082454404844" stroke-width="2px" style="stroke: black;"></line><line x1="130.00000000000009" y1="262.1082454404844" x2="131.00000000000009" y2="261.4892056001523" stroke-width="2px" style="stroke: black;"></line><line x1="131.00000000000009" y1="261.4892056001523" x2="132.00000000000009" y2="260.8379727852397" stroke-width="2px" style="stroke: black;"></line><line x1="132.00000000000009" y1="260.8379727852397" x2="133.00000000000009" y2="260.1540556055538" stroke-width="2px" style="stroke: black;"></line><line x1="133.00000000000009" y1="260.1540556055538" x2="134.00000000000009" y2="259.43702725007665" stroke-width="2px" style="stroke: black;"></line><line x1="134.00000000000009" y1="259.43702725007665" x2="135.0000000000001" y2="258.6865283362207" stroke-width="2px" style="stroke: black;"></line><line x1="135.0000000000001" y1="258.6865283362207" x2="136.0000000000001" y2="257.9022695097482" stroke-width="2px" style="stroke: black;"></line><line x1="136.0000000000001" y1="257.9022695097482" x2="137.0000000000001" y2="257.0840337837069" stroke-width="2px" style="stroke: black;"></line><line x1="137.0000000000001" y1="257.0840337837069" x2="138.0000000000001" y2="256.23167860637403" stroke-width="2px" style="stroke: black;"></line><line x1="138.0000000000001" y1="256.23167860637403" x2="139.0000000000001" y2="255.3451376498646" stroke-width="2px" style="stroke: black;"></line><line x1="139.0000000000001" y1="255.3451376498646" x2="140.0000000000001" y2="254.42442231272085" stroke-width="2px" style="stroke: black;"></line><line x1="140.0000000000001" y1="254.42442231272085" x2="141.0000000000001" y2="253.46962293145845" stroke-width="2px" style="stroke: black;"></line><line x1="141.0000000000001" y1="253.46962293145845" x2="142.0000000000001" y2="252.48090969767958" stroke-width="2px" style="stroke: black;"></line><line x1="142.0000000000001" y1="252.48090969767958" x2="143.0000000000001" y2="251.45853327897413" stroke-width="2px" style="stroke: black;"></line><line x1="143.0000000000001" y1="251.45853327897413" x2="144.0000000000001" y2="250.40282514339955" stroke-width="2px" style="stroke: black;"></line><line x1="144.0000000000001" y1="250.40282514339955" x2="145.0000000000001" y2="249.3141975888524" stroke-width="2px" style="stroke: black;"></line><line x1="145.0000000000001" y1="249.3141975888524" x2="146.0000000000001" y2="248.19314348011198" stroke-width="2px" style="stroke: black;"></line><line x1="146.0000000000001" y1="248.19314348011198" x2="147.00000000000014" y2="247.040235697744" stroke-width="2px" style="stroke: black;"></line><line x1="147.00000000000014" y1="247.040235697744" x2="148.00000000000014" y2="245.85612630438493" stroke-width="2px" style="stroke: black;"></line><line x1="148.00000000000014" y1="245.85612630438493" x2="149.00000000000014" y2="244.64154543519655" stroke-width="2px" style="stroke: black;"></line><line x1="149.00000000000014" y1="244.64154543519655" x2="150.00000000000014" y2="243.39729992045775" stroke-width="2px" style="stroke: black;"></line><line x1="150.00000000000014" y1="243.39729992045775" x2="151.00000000000014" y2="242.1242716493657" stroke-width="2px" style="stroke: black;"></line><line x1="151.00000000000014" y1="242.1242716493657" x2="152.00000000000014" y2="240.82341568513397" stroke-width="2px" style="stroke: black;"></line><line x1="152.00000000000014" y1="240.82341568513397" x2="153.00000000000017" y2="239.49575814240134" stroke-width="2px" style="stroke: black;"></line><line x1="153.00000000000017" y1="239.49575814240134" x2="154.00000000000017" y2="238.14239383880113" stroke-width="2px" style="stroke: black;"></line><line x1="154.00000000000017" y1="238.14239383880113" x2="155.00000000000017" y2="236.7644837332919" stroke-width="2px" style="stroke: black;"></line><line x1="155.00000000000017" y1="236.7644837332919" x2="156.00000000000017" y2="235.36325216449993" stroke-width="2px" style="stroke: black;"></line><line x1="156.00000000000017" y1="235.36325216449993" x2="157.00000000000017" y2="233.93998390289283" stroke-width="2px" style="stroke: black;"></line><line x1="157.00000000000017" y1="233.93998390289283" x2="158.00000000000017" y2="232.49602103107517" stroke-width="2px" style="stroke: black;"></line><line x1="158.00000000000017" y1="232.49602103107517" x2="159.00000000000017" y2="231.0327596668836" stroke-width="2px" style="stroke: black;"></line><line x1="159.00000000000017" y1="231.0327596668836" x2="160.00000000000017" y2="229.55164654425465" stroke-width="2px" style="stroke: black;"></line><line x1="160.00000000000017" y1="229.55164654425465" x2="161.00000000000017" y2="228.05417546705783" stroke-width="2px" style="stroke: black;"></line><line x1="161.00000000000017" y1="228.05417546705783" x2="162.00000000000017" y2="226.5418836512111" stroke-width="2px" style="stroke: black;"></line><line x1="162.00000000000017" y1="226.5418836512111" x2="163.00000000000017" y2="225.0163479704501" stroke-width="2px" style="stroke: black;"></line><line x1="163.00000000000017" y1="225.0163479704501" x2="164.00000000000017" y2="223.47918112110887" stroke-width="2px" style="stroke: black;"></line><line x1="164.00000000000017" y1="223.47918112110887" x2="165.00000000000017" y2="221.93202772114978" stroke-width="2px" style="stroke: black;"></line><line x1="165.00000000000017" y1="221.93202772114978" x2="166.00000000000017" y2="220.37656035855306" stroke-width="2px" style="stroke: black;"></line><line x1="166.00000000000017" y1="220.37656035855306" x2="167.00000000000017" y2="218.81447560390893" stroke-width="2px" style="stroke: black;"></line><line x1="167.00000000000017" y1="218.81447560390893" x2="168.00000000000017" y2="217.247490001797" stroke-width="2px" style="stroke: black;"></line><line x1="168.00000000000017" y1="217.247490001797" x2="169.0000000000002" y2="215.67733605517913" stroke-width="2px" style="stroke: black;"></line><line x1="169.0000000000002" y1="215.67733605517913" x2="170.0000000000002" y2="214.10575821663704" stroke-width="2px" style="stroke: black;"></line><line x1="170.0000000000002" y1="214.10575821663704" x2="171.0000000000002" y2="212.53450889985004" stroke-width="2px" style="stroke: black;"></line><line x1="171.0000000000002" y1="212.53450889985004" x2="172.0000000000002" y2="210.96534452420926" stroke-width="2px" style="stroke: black;"></line><line x1="172.0000000000002" y1="210.96534452420926" x2="173.00000000000023" y2="209.40002160496118" stroke-width="2px" style="stroke: black;"></line><line x1="173.00000000000023" y1="209.40002160496118" x2="174.00000000000023" y2="207.8402929006944" stroke-width="2px" style="stroke: black;"></line><line x1="174.00000000000023" y1="207.8402929006944" x2="175.00000000000023" y2="206.28790362940674" stroke-width="2px" style="stroke: black;"></line><line x1="175.00000000000023" y1="206.28790362940674" x2="176.0000000000002" y2="204.7445877637821" stroke-width="2px" style="stroke: black;"></line><line x1="176.0000000000002" y1="204.7445877637821" x2="177.0000000000002" y2="203.21206441566437" stroke-width="2px" style="stroke: black;"></line><line x1="177.0000000000002" y1="203.21206441566437" x2="178.00000000000017" y2="201.69203431906175" stroke-width="2px" style="stroke: black;"></line><line x1="178.00000000000017" y1="201.69203431906175" x2="179.00000000000017" y2="200.18617642036568" stroke-width="2px" style="stroke: black;"></line><line x1="179.00000000000017" y1="200.18617642036568" x2="180.00000000000017" y2="198.6961445837801" stroke-width="2px" style="stroke: black;"></line><line x1="180.00000000000017" y1="198.6961445837801" x2="181.00000000000017" y2="197.22356441928653" stroke-width="2px" style="stroke: black;"></line><line x1="181.00000000000017" y1="197.22356441928653" x2="182.0000000000001" y2="195.77003023978364" stroke-width="2px" style="stroke: black;"></line><line x1="182.0000000000001" y1="195.77003023978364" x2="183.0000000000001" y2="194.33710215336208" stroke-width="2px" style="stroke: black;"></line><line x1="183.0000000000001" y1="194.33710215336208" x2="184.0000000000001" y2="192.9263032959933" stroke-width="2px" style="stroke: black;"></line><line x1="184.0000000000001" y1="192.9263032959933" x2="185.0000000000001" y2="191.5391172092547" stroke-width="2px" style="stroke: black;"></line><line x1="185.0000000000001" y1="191.5391172092547" x2="186.0000000000001" y2="190.17698536702773" stroke-width="2px" style="stroke: black;"></line><line x1="186.0000000000001" y1="190.17698536702773" x2="187.00000000000009" y2="188.8413048544793" stroke-width="2px" style="stroke: black;"></line><line x1="187.00000000000009" y1="188.8413048544793" x2="188.00000000000009" y2="187.53342620199447" stroke-width="2px" style="stroke: black;"></line><line x1="188.00000000000009" y1="187.53342620199447" x2="189.00000000000006" y2="186.25465137610155" stroke-width="2px" style="stroke: black;"></line><line x1="189.00000000000006" y1="186.25465137610155" x2="190.00000000000006" y2="185.00623192884103" stroke-width="2px" style="stroke: black;"></line><line x1="190.00000000000006" y1="185.00623192884103" x2="191.00000000000006" y2="183.78936730644338" stroke-width="2px" style="stroke: black;"></line><line x1="191.00000000000006" y1="183.78936730644338" x2="192.00000000000003" y2="182.6052033176205" stroke-width="2px" style="stroke: black;"></line><line x1="192.00000000000003" y1="182.6052033176205" x2="193" y2="181.45483076124333" stroke-width="2px" style="stroke: black;"></line><line x1="193" y1="181.45483076124333" x2="194" y2="180.33928421265477" stroke-width="2px" style="stroke: black;"></line><line x1="194" y1="180.33928421265477" x2="195" y2="179.25954096739315" stroke-width="2px" style="stroke: black;"></line><line x1="195" y1="179.25954096739315" x2="196" y2="178.2165201406257" stroke-width="2px" style="stroke: black;"></line><line x1="196" y1="178.2165201406257" x2="196.99999999999997" y2="177.21108192016078" stroke-width="2px" style="stroke: black;"></line><line x1="196.99999999999997" y1="177.21108192016078" x2="197.99999999999994" y2="176.24402697049157" stroke-width="2px" style="stroke: black;"></line><line x1="197.99999999999994" y1="176.24402697049157" x2="198.99999999999994" y2="175.31609598495288" stroke-width="2px" style="stroke: black;"></line><line x1="198.99999999999994" y1="175.31609598495288" x2="199.99999999999994" y2="174.42796938270226" stroke-width="2px" style="stroke: black;"></line><line x1="199.99999999999994" y1="174.42796938270226" x2="200.99999999999994" y2="173.58026714691556" stroke-width="2px" style="stroke: black;"></line><line x1="200.99999999999994" y1="173.58026714691556" x2="201.99999999999994" y2="172.77354880028392" stroke-width="2px" style="stroke: black;"></line><line x1="201.99999999999994" y1="172.77354880028392" x2="202.99999999999991" y2="172.0083135136249" stroke-width="2px" style="stroke: black;"></line><line x1="202.99999999999991" y1="172.0083135136249" x2="203.99999999999991" y2="171.28500034317034" stroke-width="2px" style="stroke: black;"></line><line x1="203.99999999999991" y1="171.28500034317034" x2="204.9999999999999" y2="170.60398859187418" stroke-width="2px" style="stroke: black;"></line><line x1="204.9999999999999" y1="170.60398859187418" x2="205.9999999999999" y2="169.96559828988188" stroke-width="2px" style="stroke: black;"></line><line x1="205.9999999999999" y1="169.96559828988188" x2="206.9999999999999" y2="169.37009078914969" stroke-width="2px" style="stroke: black;"></line><line x1="206.9999999999999" y1="169.37009078914969" x2="207.99999999999986" y2="168.81766946702453" stroke-width="2px" style="stroke: black;"></line><line x1="207.99999999999986" y1="168.81766946702453" x2="208.99999999999983" y2="168.30848053350462" stroke-width="2px" style="stroke: black;"></line><line x1="208.99999999999983" y1="168.30848053350462" x2="209.99999999999983" y2="167.8426139367886" stroke-width="2px" style="stroke: black;"></line><line x1="209.99999999999983" y1="167.8426139367886" x2="210.99999999999983" y2="167.4201043616403" stroke-width="2px" style="stroke: black;"></line><line x1="210.99999999999983" y1="167.4201043616403" x2="211.99999999999983" y2="167.04093231504874" stroke-width="2px" style="stroke: black;"></line><line x1="211.99999999999983" y1="167.04093231504874" x2="212.9999999999998" y2="166.70502529362102" stroke-width="2px" style="stroke: black;"></line><line x1="212.9999999999998" y1="166.70502529362102" x2="213.99999999999977" y2="166.41225902714638" stroke-width="2px" style="stroke: black;"></line><line x1="213.99999999999977" y1="166.41225902714638" x2="214.99999999999977" y2="166.16245879275283" stroke-width="2px" style="stroke: black;"></line><line x1="214.99999999999977" y1="166.16245879275283" x2="215.99999999999977" y2="165.95540079410728" stroke-width="2px" style="stroke: black;"></line><line x1="215.99999999999977" y1="165.95540079410728" x2="216.99999999999977" y2="165.79081360016903" stroke-width="2px" style="stroke: black;"></line><line x1="216.99999999999977" y1="165.79081360016903" x2="217.99999999999977" y2="165.6683796380165" stroke-width="2px" style="stroke: black;"></line><line x1="217.99999999999977" y1="165.6683796380165" x2="218.99999999999974" y2="165.58773673438205" stroke-width="2px" style="stroke: black;"></line><line x1="218.99999999999974" y1="165.58773673438205" x2="219.99999999999974" y2="165.5484797005857" stroke-width="2px" style="stroke: black;"></line><line x1="219.99999999999974" y1="165.5484797005857" x2="220.99999999999972" y2="165.55016195565665" stroke-width="2px" style="stroke: black;"></line><line x1="220.99999999999972" y1="165.55016195565665" x2="221.99999999999972" y2="165.59229718254872" stroke-width="2px" style="stroke: black;"></line><line x1="221.99999999999972" y1="165.59229718254872" x2="222.99999999999972" y2="165.67436101246" stroke-width="2px" style="stroke: black;"></line><line x1="222.99999999999972" y1="165.67436101246" x2="223.99999999999972" y2="165.79579273241495" stroke-width="2px" style="stroke: black;"></line><line x1="223.99999999999972" y1="165.79579273241495" x2="224.9999999999997" y2="165.95599701137576" stroke-width="2px" style="stroke: black;"></line><line x1="224.9999999999997" y1="165.95599701137576" x2="225.9999999999997" y2="166.154345640315" stroke-width="2px" style="stroke: black;"></line><line x1="225.9999999999997" y1="166.154345640315" x2="226.99999999999966" y2="166.39017928183637" stroke-width="2px" style="stroke: black;"></line><line x1="226.99999999999966" y1="166.39017928183637" x2="227.99999999999966" y2="166.66280922506232" stroke-width="2px" style="stroke: black;"></line><line x1="227.99999999999966" y1="166.66280922506232" x2="228.99999999999966" y2="166.97151914169882" stroke-width="2px" style="stroke: black;"></line><line x1="228.99999999999966" y1="166.97151914169882" x2="229.99999999999963" y2="167.31556683934093" stroke-width="2px" style="stroke: black;"></line><line x1="229.99999999999963" y1="167.31556683934093" x2="230.99999999999963" y2="167.6941860082498" stroke-width="2px" style="stroke: black;"></line><line x1="230.99999999999963" y1="167.6941860082498" x2="231.99999999999963" y2="168.1065879580226" stroke-width="2px" style="stroke: black;"></line><line x1="231.99999999999963" y1="168.1065879580226" x2="232.9999999999996" y2="168.55196334072338" stroke-width="2px" style="stroke: black;"></line><line x1="232.9999999999996" y1="168.55196334072338" x2="233.9999999999996" y2="169.02948385726336" stroke-width="2px" style="stroke: black;"></line><line x1="233.9999999999996" y1="169.02948385726336" x2="234.99999999999957" y2="169.5383039439543" stroke-width="2px" style="stroke: black;"></line><line x1="234.99999999999957" y1="169.5383039439543" x2="235.99999999999957" y2="170.0775624363629" stroke-width="2px" style="stroke: black;"></line><line x1="235.99999999999957" y1="170.0775624363629" x2="236.99999999999957" y2="170.64638420776612" stroke-width="2px" style="stroke: black;"></line><line x1="236.99999999999957" y1="170.64638420776612" x2="237.99999999999955" y2="171.24388177968854" stroke-width="2px" style="stroke: black;"></line><line x1="237.99999999999955" y1="171.24388177968854" x2="238.99999999999955" y2="171.86915690217074" stroke-width="2px" style="stroke: black;"></line><line x1="238.99999999999955" y1="171.86915690217074" x2="239.99999999999955" y2="172.52130210158947" stroke-width="2px" style="stroke: black;"></line><line x1="239.99999999999955" y1="172.52130210158947" x2="240.99999999999952" y2="173.19940219405294" stroke-width="2px" style="stroke: black;"></line><line x1="240.99999999999952" y1="173.19940219405294" x2="241.99999999999952" y2="173.90253576250996" stroke-width="2px" style="stroke: black;"></line><line x1="241.99999999999952" y1="173.90253576250996" x2="242.9999999999995" y2="174.62977659593045" stroke-width="2px" style="stroke: black;"></line><line x1="242.9999999999995" y1="174.62977659593045" x2="243.9999999999995" y2="175.3801950890433" stroke-width="2px" style="stroke: black;"></line><line x1="243.9999999999995" y1="175.3801950890433" x2="244.9999999999995" y2="176.15285960129899" stroke-width="2px" style="stroke: black;"></line><line x1="244.9999999999995" y1="176.15285960129899" x2="245.99999999999946" y2="176.9468377738487" stroke-width="2px" style="stroke: black;"></line><line x1="245.99999999999946" y1="176.9468377738487" x2="246.99999999999946" y2="177.76119780352442" stroke-width="2px" style="stroke: black;"></line><line x1="246.99999999999946" y1="177.76119780352442" x2="247.99999999999946" y2="178.59500967291234" stroke-width="2px" style="stroke: black;"></line><line x1="247.99999999999946" y1="178.59500967291234" x2="248.99999999999943" y2="179.44734633577406" stroke-width="2px" style="stroke: black;"></line><line x1="248.99999999999943" y1="179.44734633577406" x2="249.99999999999943" y2="180.31728485719896" stroke-width="2px" style="stroke: black;"></line><line x1="249.99999999999943" y1="180.31728485719896" x2="250.9999999999994" y2="181.2039075080044" stroke-width="2px" style="stroke: black;"></line><line x1="250.9999999999994" y1="181.2039075080044" x2="251.9999999999994" y2="182.10630281303088" stroke-width="2px" style="stroke: black;"></line><line x1="251.9999999999994" y1="182.10630281303088" x2="252.9999999999994" y2="183.02356655308466" stroke-width="2px" style="stroke: black;"></line><line x1="252.9999999999994" y1="183.02356655308466" x2="253.99999999999937" y2="183.95480272042073" stroke-width="2px" style="stroke: black;"></line><line x1="253.99999999999937" y1="183.95480272042073" x2="254.99999999999937" y2="184.8991244277446" stroke-width="2px" style="stroke: black;"></line><line x1="254.99999999999937" y1="184.8991244277446" x2="255.99999999999937" y2="185.85565477083293" stroke-width="2px" style="stroke: black;"></line><line x1="255.99999999999937" y1="185.85565477083293" x2="256.9999999999993" y2="186.82352764496386" stroke-width="2px" style="stroke: black;"></line><line x1="256.9999999999993" y1="186.82352764496386" x2="257.9999999999993" y2="187.80188851544727" stroke-width="2px" style="stroke: black;"></line><line x1="257.9999999999993" y1="187.80188851544727" x2="258.9999999999993" y2="188.78989514262668" stroke-width="2px" style="stroke: black;"></line><line x1="258.9999999999993" y1="188.78989514262668" x2="259.9999999999993" y2="189.78671826182014" stroke-width="2px" style="stroke: black;"></line><line x1="259.9999999999993" y1="189.78671826182014" x2="260.9999999999993" y2="190.79154221873" stroke-width="2px" style="stroke: black;"></line><line x1="260.9999999999993" y1="190.79154221873" x2="261.9999999999993" y2="191.80356556093483" stroke-width="2px" style="stroke: black;"></line><line x1="261.9999999999993" y1="191.80356556093483" x2="262.9999999999993" y2="192.82200158614773" stroke-width="2px" style="stroke: black;"></line><line x1="262.9999999999993" y1="192.82200158614773" x2="263.99999999999926" y2="193.8460788479701" stroke-width="2px" style="stroke: black;"></line><line x1="263.99999999999926" y1="193.8460788479701" x2="264.9999999999993" y2="194.8750416199528" stroke-width="2px" style="stroke: black;"></line><line x1="264.9999999999993" y1="194.8750416199528" x2="265.99999999999926" y2="195.90815031880527" stroke-width="2px" style="stroke: black;"></line><line x1="265.99999999999926" y1="195.90815031880527" x2="266.9999999999992" y2="196.94468188766336" stroke-width="2px" style="stroke: black;"></line><line x1="266.9999999999992" y1="196.94468188766336" x2="267.9999999999992" y2="197.98393014034372" stroke-width="2px" style="stroke: black;"></line><line x1="267.9999999999992" y1="197.98393014034372" x2="268.9999999999992" y2="199.02520606759066" stroke-width="2px" style="stroke: black;"></line><line x1="268.9999999999992" y1="199.02520606759066" x2="269.9999999999992" y2="200.06783810630816" stroke-width="2px" style="stroke: black;"></line><line x1="269.9999999999992" y1="200.06783810630816" x2="270.9999999999992" y2="201.1111723728431" stroke-width="2px" style="stroke: black;"></line><line x1="270.9999999999992" y1="201.1111723728431" x2="271.9999999999992" y2="202.15457286138815" stroke-width="2px" style="stroke: black;"></line><line x1="271.9999999999992" y1="202.15457286138815" x2="272.9999999999992" y2="203.19742160859974" stroke-width="2px" style="stroke: black;"></line><line x1="272.9999999999992" y1="203.19742160859974" x2="273.99999999999915" y2="204.23911882555348" stroke-width="2px" style="stroke: black;"></line><line x1="273.99999999999915" y1="204.23911882555348" x2="274.99999999999915" y2="205.27908299816374" stroke-width="2px" style="stroke: black;"></line><line x1="274.99999999999915" y1="205.27908299816374" x2="275.99999999999915" y2="206.3167509572157" stroke-width="2px" style="stroke: black;"></line><line x1="275.99999999999915" y1="206.3167509572157" x2="276.99999999999915" y2="207.3515779191608" stroke-width="2px" style="stroke: black;"></line><line x1="276.99999999999915" y1="207.3515779191608" x2="277.9999999999991" y2="208.38303749883565" stroke-width="2px" style="stroke: black;"></line><line x1="277.9999999999991" y1="208.38303749883565" x2="278.9999999999991" y2="209.41062169526296" stroke-width="2px" style="stroke: black;"></line><line x1="278.9999999999991" y1="209.41062169526296" x2="279.9999999999991" y2="210.4338408517009" stroke-width="2px" style="stroke: black;"></line><line x1="279.9999999999991" y1="210.4338408517009" x2="280.9999999999991" y2="211.4522235910942" stroke-width="2px" style="stroke: black;"></line><line x1="280.9999999999991" y1="211.4522235910942" x2="281.9999999999991" y2="212.46531672808135" stroke-width="2px" style="stroke: black;"></line><line x1="281.9999999999991" y1="212.46531672808135" x2="282.9999999999991" y2="213.47268515871124" stroke-width="2px" style="stroke: black;"></line><line x1="282.9999999999991" y1="213.47268515871124" x2="283.9999999999991" y2="214.47391172899222" stroke-width="2px" style="stroke: black;"></line><line x1="283.9999999999991" y1="214.47391172899222" x2="284.99999999999903" y2="215.4685970834102" stroke-width="2px" style="stroke: black;"></line><line x1="284.99999999999903" y1="215.4685970834102" x2="285.9999999999991" y2="216.4563594945178" stroke-width="2px" style="stroke: black;"></line><line x1="285.9999999999991" y1="216.4563594945178" x2="286.99999999999903" y2="217.43683467469603" stroke-width="2px" style="stroke: black;"></line><line x1="286.99999999999903" y1="217.43683467469603" x2="287.999999999999" y2="218.40967557116335" stroke-width="2px" style="stroke: black;"></line><line x1="287.999999999999" y1="218.40967557116335" x2="288.999999999999" y2="219.37455214529032" stroke-width="2px" style="stroke: black;"></line><line x1="288.999999999999" y1="219.37455214529032" x2="289.999999999999" y2="220.331151137265" stroke-width="2px" style="stroke: black;"></line><line x1="289.999999999999" y1="220.331151137265" x2="290.999999999999" y2="221.27917581712168" stroke-width="2px" style="stroke: black;"></line><line x1="290.999999999999" y1="221.27917581712168" x2="291.999999999999" y2="222.2183457231302" stroke-width="2px" style="stroke: black;"></line><line x1="291.999999999999" y1="222.2183457231302" x2="292.999999999999" y2="223.14839638852465" stroke-width="2px" style="stroke: black;"></line><line x1="292.999999999999" y1="223.14839638852465" x2="293.999999999999" y2="224.0690790575099" stroke-width="2px" style="stroke: black;"></line><line x1="293.999999999999" y1="224.0690790575099" x2="294.9999999999989" y2="224.98016039147757" stroke-width="2px" style="stroke: black;"></line><line x1="294.9999999999989" y1="224.98016039147757" x2="295.9999999999989" y2="225.8814221663276" stroke-width="2px" style="stroke: black;"></line><line x1="295.9999999999989" y1="225.8814221663276" x2="296.9999999999989" y2="226.77266096176555" stroke-width="2px" style="stroke: black;"></line><line x1="296.9999999999989" y1="226.77266096176555" x2="297.9999999999989" y2="227.65368784341763" stroke-width="2px" style="stroke: black;"></line><line x1="297.9999999999989" y1="227.65368784341763" x2="298.99999999999886" y2="228.52432803859273" stroke-width="2px" style="stroke: black;"></line><line x1="298.99999999999886" y1="228.52432803859273" x2="299.99999999999886" y2="229.38442060646577" stroke-width="2px" style="stroke: black;"></line><line x1="299.99999999999886" y1="229.38442060646577" x2="300.99999999999886" y2="230.2338181034572" stroke-width="2px" style="stroke: black;"></line><line x1="300.99999999999886" y1="230.2338181034572" x2="301.99999999999886" y2="231.07238624453925" stroke-width="2px" style="stroke: black;"></line><line x1="301.99999999999886" y1="231.07238624453925" x2="302.99999999999886" y2="231.90000356117326" stroke-width="2px" style="stroke: black;"></line><line x1="302.99999999999886" y1="231.90000356117326" x2="303.99999999999886" y2="232.71656105656294" stroke-width="2px" style="stroke: black;"></line><line x1="303.99999999999886" y1="232.71656105656294" x2="304.99999999999886" y2="233.52196185886808" stroke-width="2px" style="stroke: black;"></line><line x1="304.99999999999886" y1="233.52196185886808" x2="305.9999999999988" y2="234.31612087300553" stroke-width="2px" style="stroke: black;"></line><line x1="305.9999999999988" y1="234.31612087300553" x2="306.9999999999988" y2="235.09896443163524" stroke-width="2px" style="stroke: black;"></line><line x1="306.9999999999988" y1="235.09896443163524" x2="307.9999999999988" y2="235.87042994589223" stroke-width="2px" style="stroke: black;"></line><line x1="307.9999999999988" y1="235.87042994589223" x2="308.9999999999988" y2="236.63046555641546" stroke-width="2px" style="stroke: black;"></line><line x1="308.9999999999988" y1="236.63046555641546" x2="309.99999999999875" y2="237.37902978517988" stroke-width="2px" style="stroke: black;"></line><line x1="309.99999999999875" y1="237.37902978517988" x2="310.99999999999875" y2="238.11609118862359" stroke-width="2px" style="stroke: black;"></line><line x1="310.99999999999875" y1="238.11609118862359" x2="311.99999999999875" y2="238.84162801253333" stroke-width="2px" style="stroke: black;"></line><line x1="311.99999999999875" y1="238.84162801253333" x2="312.99999999999875" y2="239.55562784911996" stroke-width="2px" style="stroke: black;"></line><line x1="312.99999999999875" y1="239.55562784911996" x2="313.99999999999875" y2="240.2580872967021" stroke-width="2px" style="stroke: black;"></line><line x1="313.99999999999875" y1="240.2580872967021" x2="314.99999999999875" y2="240.94901162237892" stroke-width="2px" style="stroke: black;"></line><line x1="314.99999999999875" y1="240.94901162237892" x2="315.99999999999875" y2="241.62841442805754" stroke-width="2px" style="stroke: black;"></line><line x1="315.99999999999875" y1="241.62841442805754" x2="316.9999999999987" y2="242.29631732017486" stroke-width="2px" style="stroke: black;"></line><line x1="316.9999999999987" y1="242.29631732017486" x2="317.99999999999875" y2="242.95274958342995" stroke-width="2px" style="stroke: black;"></line><line x1="317.99999999999875" y1="242.95274958342995" x2="318.9999999999987" y2="243.5977478588188" stroke-width="2px" style="stroke: black;"></line><line x1="318.9999999999987" y1="243.5977478588188" x2="319.99999999999864" y2="244.2313558262478" stroke-width="2px" style="stroke: black;"></line><line x1="319.99999999999864" y1="244.2313558262478" x2="320.99999999999864" y2="244.8536238919738" stroke-width="2px" style="stroke: black;"></line><line x1="320.99999999999864" y1="244.8536238919738" x2="321.99999999999864" y2="245.46460888110317" stroke-width="2px" style="stroke: black;"></line><line x1="321.99999999999864" y1="245.46460888110317" x2="322.99999999999864" y2="246.06437373536062" stroke-width="2px" style="stroke: black;"></line><line x1="322.99999999999864" y1="246.06437373536062" x2="323.99999999999864" y2="246.6529872163189" stroke-width="2px" style="stroke: black;"></line><line x1="323.99999999999864" y1="246.6529872163189" x2="324.99999999999864" y2="247.23052361426338" stroke-width="2px" style="stroke: black;"></line><line x1="324.99999999999864" y1="247.23052361426338" x2="325.99999999999864" y2="247.79706246284638" stroke-width="2px" style="stroke: black;"></line><line x1="325.99999999999864" y1="247.79706246284638" x2="326.9999999999986" y2="248.35268825966935" stroke-width="2px" style="stroke: black;"></line><line x1="326.9999999999986" y1="248.35268825966935" x2="327.9999999999986" y2="248.89749019291375" stroke-width="2px" style="stroke: black;"></line><line x1="327.9999999999986" y1="248.89749019291375" x2="328.9999999999986" y2="249.43156187412774" stroke-width="2px" style="stroke: black;"></line><line x1="328.9999999999986" y1="249.43156187412774" x2="329.9999999999986" y2="249.9550010772575" stroke-width="2px" style="stroke: black;"></line><line x1="329.9999999999986" y1="249.9550010772575" x2="330.9999999999985" y2="250.46790948399916" stroke-width="2px" style="stroke: black;"></line><line x1="330.9999999999985" y1="250.46790948399916" x2="331.9999999999985" y2="250.9703924355325" stroke-width="2px" style="stroke: black;"></line><line x1="331.9999999999985" y1="250.9703924355325" x2="332.9999999999985" y2="251.4625586906861" stroke-width="2px" style="stroke: black;"></line><line x1="332.9999999999985" y1="251.4625586906861" x2="333.9999999999985" y2="251.94452019056837" stroke-width="2px" style="stroke: black;"></line><line x1="333.9999999999985" y1="251.94452019056837" x2="334.9999999999985" y2="252.41639182968598" stroke-width="2px" style="stroke: black;"></line><line x1="334.9999999999985" y1="252.41639182968598" x2="335.9999999999985" y2="252.87829123356642" stroke-width="2px" style="stroke: black;"></line><line x1="335.9999999999985" y1="252.87829123356642" x2="336.9999999999985" y2="253.33033854287902" stroke-width="2px" style="stroke: black;"></line><line x1="336.9999999999985" y1="253.33033854287902" x2="337.99999999999847" y2="253.77265620405106" stroke-width="2px" style="stroke: black;"></line><line x1="337.99999999999847" y1="253.77265620405106" x2="338.99999999999847" y2="254.20536876635543" stroke-width="2px" style="stroke: black;"></line><line x1="338.99999999999847" y1="254.20536876635543" x2="339.99999999999847" y2="254.62860268544293" stroke-width="2px" style="stroke: black;"></line><line x1="339.99999999999847" y1="254.62860268544293" x2="340.99999999999847" y2="255.04248613328195" stroke-width="2px" style="stroke: black;"></line><line x1="340.99999999999847" y1="255.04248613328195" x2="341.9999999999984" y2="255.44714881446046" stroke-width="2px" style="stroke: black;"></line><line x1="341.9999999999984" y1="255.44714881446046" x2="342.9999999999984" y2="255.84272178879553" stroke-width="2px" style="stroke: black;"></line><line x1="342.9999999999984" y1="255.84272178879553" x2="343.9999999999984" y2="256.2293373001927" stroke-width="2px" style="stroke: black;"></line><line x1="343.9999999999984" y1="256.2293373001927" x2="344.9999999999984" y2="256.6071286116871" stroke-width="2px" style="stroke: black;"></line><line x1="344.9999999999984" y1="256.6071286116871" x2="345.9999999999984" y2="256.9762298465921" stroke-width="2px" style="stroke: black;"></line><line x1="345.9999999999984" y1="256.9762298465921" x2="346.9999999999984" y2="257.3367758356798" stroke-width="2px" style="stroke: black;"></line><line x1="346.9999999999984" y1="257.3367758356798" x2="347.9999999999984" y2="257.6889019703063" stroke-width="2px" style="stroke: black;"></line><line x1="347.9999999999984" y1="257.6889019703063" x2="348.99999999999835" y2="258.0327440613953" stroke-width="2px" style="stroke: black;"></line><line x1="348.99999999999835" y1="258.0327440613953" x2="349.9999999999984" y2="258.3684382041848" stroke-width="2px" style="stroke: black;"></line><line x1="349.9999999999984" y1="258.3684382041848" x2="350.99999999999835" y2="258.69612064864174" stroke-width="2px" style="stroke: black;"></line><line x1="350.99999999999835" y1="258.69612064864174" x2="351.9999999999983" y2="259.0159276754416" stroke-width="2px" style="stroke: black;"></line><line x1="351.9999999999983" y1="259.0159276754416" x2="352.9999999999983" y2="259.32799547740996" stroke-width="2px" style="stroke: black;"></line><line x1="352.9999999999983" y1="259.32799547740996" x2="353.9999999999983" y2="259.6324600463193" stroke-width="2px" style="stroke: black;"></line><line x1="353.9999999999983" y1="259.6324600463193" x2="354.9999999999983" y2="259.9294570649301" stroke-width="2px" style="stroke: black;"></line><line x1="354.9999999999983" y1="259.9294570649301" x2="355.9999999999983" y2="260.21912180416496" stroke-width="2px" style="stroke: black;"></line><line x1="355.9999999999983" y1="260.21912180416496" x2="356.9999999999983" y2="260.5015890253025" stroke-width="2px" style="stroke: black;"></line><line x1="356.9999999999983" y1="260.5015890253025" x2="357.99999999999824" y2="260.7769928870746" stroke-width="2px" style="stroke: black;"></line><line x1="357.99999999999824" y1="260.7769928870746" x2="358.99999999999824" y2="261.0454668575503" stroke-width="2px" style="stroke: black;"></line><line x1="358.99999999999824" y1="261.0454668575503" x2="359.99999999999824" y2="261.30714363068876" stroke-width="2px" style="stroke: black;"></line><line x1="359.99999999999824" y1="261.30714363068876" x2="360.99999999999824" y2="261.56215504744273" stroke-width="2px" style="stroke: black;"></line><line x1="360.99999999999824" y1="261.56215504744273" x2="361.99999999999824" y2="261.81063202129167" stroke-width="2px" style="stroke: black;"></line><line x1="361.99999999999824" y1="261.81063202129167" x2="362.99999999999824" y2="262.0527044680873" stroke-width="2px" style="stroke: black;"></line><line x1="362.99999999999824" y1="262.0527044680873" x2="363.9999999999982" y2="262.2885012400894" stroke-width="2px" style="stroke: black;"></line><line x1="363.9999999999982" y1="262.2885012400894" x2="364.9999999999982" y2="262.5181500640729" stroke-width="2px" style="stroke: black;"></line><line x1="364.9999999999982" y1="262.5181500640729" x2="365.9999999999982" y2="262.7417774833873" stroke-width="2px" style="stroke: black;"></line><line x1="365.9999999999982" y1="262.7417774833873" x2="366.9999999999982" y2="262.95950880384873" stroke-width="2px" style="stroke: black;"></line><line x1="366.9999999999982" y1="262.95950880384873" x2="367.9999999999982" y2="263.1714680433458" stroke-width="2px" style="stroke: black;"></line><line x1="367.9999999999982" y1="263.1714680433458" x2="368.9999999999981" y2="263.37777788504286" stroke-width="2px" style="stroke: black;"></line><line x1="368.9999999999981" y1="263.37777788504286" x2="369.9999999999981" y2="263.57855963406195" stroke-width="2px" style="stroke: black;"></line><line x1="369.9999999999981" y1="263.57855963406195" x2="370.9999999999981" y2="263.77393317752967" stroke-width="2px" style="stroke: black;"></line><line x1="370.9999999999981" y1="263.77393317752967" x2="371.9999999999981" y2="263.96401694787335" stroke-width="2px" style="stroke: black;"></line><line x1="371.9999999999981" y1="263.96401694787335" x2="372.9999999999981" y2="264.14892788925334" stroke-width="2px" style="stroke: black;"></line><line x1="372.9999999999981" y1="264.14892788925334" x2="373.99999999999807" y2="264.3287814270198" stroke-width="2px" style="stroke: black;"></line><line x1="373.99999999999807" y1="264.3287814270198" x2="374.99999999999807" y2="264.50369144008437" stroke-width="2px" style="stroke: black;"></line><line x1="374.99999999999807" y1="264.50369144008437" x2="375.99999999999807" y2="264.6737702360962" stroke-width="2px" style="stroke: black;"></line><line x1="375.99999999999807" y1="264.6737702360962" x2="376.99999999999807" y2="264.83912852931803" stroke-width="2px" style="stroke: black;"></line><line x1="376.99999999999807" y1="264.83912852931803" x2="377.99999999999807" y2="264.99987542109477" stroke-width="2px" style="stroke: black;"></line><line x1="377.99999999999807" y1="264.99987542109477" x2="378.99999999999807" y2="265.15611838281256" stroke-width="2px" style="stroke: black;"></line><line x1="378.99999999999807" y1="265.15611838281256" x2="379.999999999998" y2="265.3079632412466" stroke-width="2px" style="stroke: black;"></line><line x1="379.999999999998" y1="265.3079632412466" x2="380.999999999998" y2="265.45551416619827" stroke-width="2px" style="stroke: black;"></line><line x1="380.999999999998" y1="265.45551416619827" x2="381.999999999998" y2="265.5988736603235" stroke-width="2px" style="stroke: black;"></line><line x1="381.999999999998" y1="265.5988736603235" x2="382.999999999998" y2="265.73814255105884" stroke-width="2px" style="stroke: black;"></line><line x1="382.999999999998" y1="265.73814255105884" x2="383.999999999998" y2="265.87341998454957" stroke-width="2px" style="stroke: black;"></line><line x1="383.999999999998" y1="265.87341998454957" x2="384.99999999999795" y2="266.0048034214902" stroke-width="2px" style="stroke: black;"></line><line x1="384.99999999999795" y1="266.0048034214902" x2="385.99999999999795" y2="266.13238863478773" stroke-width="2px" style="stroke: black;"></line><line x1="385.99999999999795" y1="266.13238863478773" x2="386.99999999999795" y2="266.25626970896167" stroke-width="2px" style="stroke: black;"></line><line x1="386.99999999999795" y1="266.25626970896167" x2="387.99999999999795" y2="266.3765390411947" stroke-width="2px" style="stroke: black;"></line><line x1="387.99999999999795" y1="266.3765390411947" x2="388.99999999999795" y2="266.49328734395255" stroke-width="2px" style="stroke: black;"></line><line x1="388.99999999999795" y1="266.49328734395255" x2="389.9999999999979" y2="266.6066036490927" stroke-width="2px" style="stroke: black;"></line><line x1="389.9999999999979" y1="266.6066036490927" x2="390.9999999999979" y2="266.7165753133835" stroke-width="2px" style="stroke: black;"></line><line x1="390.9999999999979" y1="266.7165753133835" x2="391.9999999999979" y2="266.8232880253577" stroke-width="2px" style="stroke: black;"></line><line x1="391.9999999999979" y1="266.8232880253577" x2="392.9999999999979" y2="266.9268258134277" stroke-width="2px" style="stroke: black;"></line><line x1="392.9999999999979" y1="266.9268258134277" x2="393.9999999999979" y2="267.02727105518903" stroke-width="2px" style="stroke: black;"></line><line x1="393.9999999999979" y1="267.02727105518903" x2="394.9999999999979" y2="267.1247044878452" stroke-width="2px" style="stroke: black;"></line><line x1="394.9999999999979" y1="267.1247044878452" x2="395.99999999999784" y2="267.2192052196843" stroke-width="2px" style="stroke: black;"></line><line x1="395.99999999999784" y1="267.2192052196843" x2="396.99999999999784" y2="267.3108507425443" stroke-width="2px" style="stroke: black;"></line><line x1="396.99999999999784" y1="267.3108507425443" x2="397.99999999999784" y2="267.39971694520267" stroke-width="2px" style="stroke: black;"></line><line x1="397.99999999999784" y1="267.39971694520267" x2="398.99999999999784" y2="267.48587812763003" stroke-width="2px" style="stroke: black;"></line><line x1="398.99999999999784" y1="267.48587812763003" x2="399.99999999999784" y2="267.56940701604935" stroke-width="2px" style="stroke: black;"></line><line x1="399.99999999999784" y1="267.56940701604935" x2="400.9999999999978" y2="267.6503747787434" stroke-width="2px" style="stroke: black;"></line><line x1="400.9999999999978" y1="267.6503747787434" x2="401.9999999999978" y2="267.7288510425558" stroke-width="2px" style="stroke: black;"></line><line x1="401.9999999999978" y1="267.7288510425558" x2="402.9999999999978" y2="267.80490391003326" stroke-width="2px" style="stroke: black;"></line><line x1="402.9999999999978" y1="267.80490391003326" x2="403.9999999999978" y2="267.8785999771579" stroke-width="2px" style="stroke: black;"></line><line x1="403.9999999999978" y1="267.8785999771579" x2="404.9999999999978" y2="267.9500043516208" stroke-width="2px" style="stroke: black;"></line><line x1="404.9999999999978" y1="267.9500043516208" x2="405.9999999999977" y2="268.01918067159016" stroke-width="2px" style="stroke: black;"></line><line x1="405.9999999999977" y1="268.01918067159016" x2="406.9999999999977" y2="268.0861911249277" stroke-width="2px" style="stroke: black;"></line><line x1="406.9999999999977" y1="268.0861911249277" x2="407.9999999999977" y2="268.1510964688121" stroke-width="2px" style="stroke: black;"></line><line x1="407.9999999999977" y1="268.1510964688121" x2="408.9999999999977" y2="268.2139560497251" stroke-width="2px" style="stroke: black;"></line><line x1="408.9999999999977" y1="268.2139560497251" x2="409.9999999999977" y2="268.27482782376325" stroke-width="2px" style="stroke: black;"></line><line x1="409.9999999999977" y1="268.27482782376325" x2="410.9999999999977" y2="268.333768377235" stroke-width="2px" style="stroke: black;"></line><line x1="410.9999999999977" y1="268.333768377235" x2="411.99999999999767" y2="268.3908329475077" stroke-width="2px" style="stroke: black;"></line><line x1="411.99999999999767" y1="268.3908329475077" x2="412.99999999999767" y2="268.4460754440693" stroke-width="2px" style="stroke: black;"></line><line x1="412.99999999999767" y1="268.4460754440693" x2="413.99999999999767" y2="268.4995484697715" stroke-width="2px" style="stroke: black;"></line><line x1="413.99999999999767" y1="268.4995484697715" x2="414.9999999999976" y2="268.5513033422227" stroke-width="2px" style="stroke: black;"></line><line x1="414.9999999999976" y1="268.5513033422227" x2="415.9999999999976" y2="268.6013901153" stroke-width="2px" style="stroke: black;"></line><line x1="415.9999999999976" y1="268.6013901153" x2="416.99999999999767" y2="268.6498576007522" stroke-width="2px" style="stroke: black;"></line><line x1="416.99999999999767" y1="268.6498576007522" x2="417.99999999999767" y2="268.69675338986576" stroke-width="2px" style="stroke: black;"></line><line x1="417.99999999999767" y1="268.69675338986576" x2="418.9999999999976" y2="268.74212387516775" stroke-width="2px" style="stroke: black;"></line><line x1="418.9999999999976" y1="268.74212387516775" x2="419.9999999999976" y2="268.78601427214124" stroke-width="2px" style="stroke: black;"></line><line x1="419.9999999999976" y1="268.78601427214124" x2="420.9999999999976" y2="268.82846864093017" stroke-width="2px" style="stroke: black;"></line><line x1="420.9999999999976" y1="268.82846864093017" x2="421.99999999999756" y2="268.8695299080103" stroke-width="2px" style="stroke: black;"></line><line x1="421.99999999999756" y1="268.8695299080103" x2="422.99999999999756" y2="268.9092398878067" stroke-width="2px" style="stroke: black;"></line><line x1="422.99999999999756" y1="268.9092398878067" x2="423.99999999999756" y2="268.94763930423727" stroke-width="2px" style="stroke: black;"></line><line x1="423.99999999999756" y1="268.94763930423727" x2="424.9999999999975" y2="268.9847678121638" stroke-width="2px" style="stroke: black;"></line><line x1="424.9999999999975" y1="268.9847678121638" x2="425.9999999999975" y2="269.0206640187327" stroke-width="2px" style="stroke: black;"></line><line x1="425.9999999999975" y1="269.0206640187327" x2="426.9999999999975" y2="269.0553655045902" stroke-width="2px" style="stroke: black;"></line><line x1="426.9999999999975" y1="269.0553655045902" x2="427.99999999999756" y2="269.088908844955" stroke-width="2px" style="stroke: black;"></line><line x1="427.99999999999756" y1="269.088908844955" x2="428.99999999999756" y2="269.12132963053455" stroke-width="2px" style="stroke: black;"></line><line x1="428.99999999999756" y1="269.12132963053455" x2="429.9999999999975" y2="269.1526624882725" stroke-width="2px" style="stroke: black;"></line><line x1="429.9999999999975" y1="269.1526624882725" x2="430.9999999999975" y2="269.182941101913" stroke-width="2px" style="stroke: black;"></line><line x1="430.9999999999975" y1="269.182941101913" x2="431.9999999999975" y2="269.21219823237135" stroke-width="2px" style="stroke: black;"></line><line x1="431.9999999999975" y1="269.21219823237135" x2="432.99999999999744" y2="269.2404657378999" stroke-width="2px" style="stroke: black;"></line><line x1="432.99999999999744" y1="269.2404657378999" x2="433.99999999999744" y2="269.26777459403934" stroke-width="2px" style="stroke: black;"></line><line x1="433.99999999999744" y1="269.26777459403934" x2="434.99999999999744" y2="269.29415491334566" stroke-width="2px" style="stroke: black;"></line><line x1="434.99999999999744" y1="269.29415491334566" x2="435.9999999999974" y2="269.3196359648851" stroke-width="2px" style="stroke: black;"></line><line x1="435.9999999999974" y1="269.3196359648851" x2="436.9999999999974" y2="269.3442461934886" stroke-width="2px" style="stroke: black;"></line><line x1="436.9999999999974" y1="269.3442461934886" x2="437.99999999999744" y2="269.3680132387593" stroke-width="2px" style="stroke: black;"></line><line x1="437.99999999999744" y1="269.3680132387593" x2="438.99999999999744" y2="269.39096395382654" stroke-width="2px" style="stroke: black;"></line><line x1="438.99999999999744" y1="269.39096395382654" x2="439.9999999999974" y2="269.41312442384026" stroke-width="2px" style="stroke: black;"></line><line x1="439.9999999999974" y1="269.41312442384026" x2="440.9999999999974" y2="269.4345199842013" stroke-width="2px" style="stroke: black;"></line><line x1="440.9999999999974" y1="269.4345199842013" x2="441.9999999999974" y2="269.4551752385227" stroke-width="2px" style="stroke: black;"></line><line x1="441.9999999999974" y1="269.4551752385227" x2="442.9999999999973" y2="269.4751140763179" stroke-width="2px" style="stroke: black;"></line><line x1="442.9999999999973" y1="269.4751140763179" x2="443.9999999999973" y2="269.4943596904126" stroke-width="2px" style="stroke: black;"></line><line x1="443.9999999999973" y1="269.4943596904126" x2="444.9999999999973" y2="269.5129345940776" stroke-width="2px" style="stroke: black;"></line><line x1="444.9999999999973" y1="269.5129345940776" x2="445.9999999999973" y2="269.53086063787913" stroke-width="2px" style="stroke: black;"></line><line x1="445.9999999999973" y1="269.53086063787913" x2="446.99999999999727" y2="269.54815902624586" stroke-width="2px" style="stroke: black;"></line><line x1="446.99999999999727" y1="269.54815902624586" x2="447.99999999999727" y2="269.5648503337503" stroke-width="2px" style="stroke: black;"></line><line x1="447.99999999999727" y1="269.5648503337503" x2="448.9999999999973" y2="269.58095452110354" stroke-width="2px" style="stroke: black;"></line><line x1="448.9999999999973" y1="269.58095452110354" x2="449.9999999999973" y2="269.5964909508624" stroke-width="2px" style="stroke: black;"></line><line x1="449.9999999999973" y1="269.5964909508624" x2="450.99999999999727" y2="269.61147840284895" stroke-width="2px" style="stroke: black;"></line><line x1="450.99999999999727" y1="269.61147840284895" x2="451.99999999999727" y2="269.62593508928217" stroke-width="2px" style="stroke: black;"></line><line x1="451.99999999999727" y1="269.62593508928217" x2="452.99999999999727" y2="269.63987866962134" stroke-width="2px" style="stroke: black;"></line><line x1="452.99999999999727" y1="269.63987866962134" x2="453.9999999999972" y2="269.6533262651232" stroke-width="2px" style="stroke: black;"></line><line x1="453.9999999999972" y1="269.6533262651232" x2="454.9999999999972" y2="269.6662944731119" stroke-width="2px" style="stroke: black;"></line><line x1="454.9999999999972" y1="269.6662944731119" x2="455.9999999999972" y2="269.67879938096445" stroke-width="2px" style="stroke: black;"></line><line x1="455.9999999999972" y1="269.67879938096445" x2="456.99999999999716" y2="269.690856579812" stroke-width="2px" style="stroke: black;"></line><line x1="456.99999999999716" y1="269.690856579812" x2="457.99999999999716" y2="269.7024811779594" stroke-width="2px" style="stroke: black;"></line><line x1="457.99999999999716" y1="269.7024811779594" x2="458.9999999999972" y2="269.7136878140237" stroke-width="2px" style="stroke: black;"></line><line x1="458.9999999999972" y1="269.7136878140237" x2="459.9999999999972" y2="269.7244906697951" stroke-width="2px" style="stroke: black;"></line><line x1="459.9999999999972" y1="269.7244906697951" x2="460.99999999999716" y2="269.73490348282184" stroke-width="2px" style="stroke: black;"></line><line x1="460.99999999999716" y1="269.73490348282184" x2="461.99999999999716" y2="269.7449395587207" stroke-width="2px" style="stroke: black;"></line><line x1="461.99999999999716" y1="269.7449395587207" x2="462.99999999999716" y2="269.75461178321774" stroke-width="2px" style="stroke: black;"></line><line x1="462.99999999999716" y1="269.75461178321774" x2="463.99999999999716" y2="269.76393263391986" stroke-width="2px" style="stroke: black;"></line><line x1="463.99999999999716" y1="269.76393263391986" x2="464.9999999999971" y2="269.7729141918214" stroke-width="2px" style="stroke: black;"></line><line x1="464.9999999999971" y1="269.7729141918214" x2="465.9999999999971" y2="269.7815681525486" stroke-width="2px" style="stroke: black;"></line><line x1="465.9999999999971" y1="269.7815681525486" x2="466.9999999999971" y2="269.78990583734446" stroke-width="2px" style="stroke: black;"></line><line x1="466.9999999999971" y1="269.78990583734446" x2="467.99999999999704" y2="269.79793820379837" stroke-width="2px" style="stroke: black;"></line><line x1="467.99999999999704" y1="269.79793820379837" x2="468.99999999999704" y2="269.80567585632264" stroke-width="2px" style="stroke: black;"></line><line x1="468.99999999999704" y1="269.80567585632264" x2="469.9999999999971" y2="269.8131290563802" stroke-width="2px" style="stroke: black;"></line><line x1="469.9999999999971" y1="269.8131290563802" x2="470.9999999999971" y2="269.8203077324669" stroke-width="2px" style="stroke: black;"></line><line x1="470.9999999999971" y1="269.8203077324669" x2="471.99999999999704" y2="269.82722148985175" stroke-width="2px" style="stroke: black;"></line><line x1="471.99999999999704" y1="269.82722148985175" x2="472.99999999999704" y2="269.8338796200787" stroke-width="2px" style="stroke: black;"></line><line x1="472.99999999999704" y1="269.8338796200787" x2="473.99999999999704" y2="269.8402911102343" stroke-width="2px" style="stroke: black;"></line><line x1="473.99999999999704" y1="269.8402911102343" x2="474.999999999997" y2="269.84646465198443" stroke-width="2px" style="stroke: black;"></line><line x1="474.999999999997" y1="269.84646465198443" x2="475.999999999997" y2="269.8524086503837" stroke-width="2px" style="stroke: black;"></line><line x1="475.999999999997" y1="269.8524086503837" x2="476.999999999997" y2="269.8581312324623" stroke-width="2px" style="stroke: black;"></line><line x1="476.999999999997" y1="269.8581312324623" x2="477.999999999997" y2="269.8636402555934" stroke-width="2px" style="stroke: black;"></line><line x1="477.999999999997" y1="269.8636402555934" x2="478.99999999999693" y2="269.8689433156448" stroke-width="2px" style="stroke: black;"></line><line x1="478.99999999999693" y1="269.8689433156448" x2="479.99999999999693" y2="269.8740477549198" stroke-width="2px" style="stroke: black;"></line><line x1="479.99999999999693" y1="269.8740477549198" x2="480.999999999997" y2="269.87896066989003" stroke-width="2px" style="stroke: black;"></line><line x1="480.999999999997" y1="269.87896066989003" x2="481.999999999997" y2="269.88368891872483" stroke-width="2px" style="stroke: black;"></line><line x1="481.999999999997" y1="269.88368891872483" x2="482.99999999999693" y2="269.8882391286209" stroke-width="2px" style="stroke: black;"></line><line x1="482.99999999999693" y1="269.8882391286209" x2="483.99999999999693" y2="269.89261770293615" stroke-width="2px" style="stroke: black;"></line><line x1="483.99999999999693" y1="269.89261770293615" x2="484.99999999999693" y2="269.89683082813156" stroke-width="2px" style="stroke: black;"></line><line x1="484.99999999999693" y1="269.89683082813156" x2="485.9999999999969" y2="269.9008844805253" stroke-width="2px" style="stroke: black;"></line><line x1="485.9999999999969" y1="269.9008844805253" x2="486.9999999999969" y2="269.90478443286236" stroke-width="2px" style="stroke: black;"></line><line x1="486.9999999999969" y1="269.90478443286236" x2="487.9999999999969" y2="269.9085362607041" stroke-width="2px" style="stroke: black;"></line><line x1="487.9999999999969" y1="269.9085362607041" x2="488.9999999999968" y2="269.91214534864145" stroke-width="2px" style="stroke: black;"></line><line x1="488.9999999999968" y1="269.91214534864145" x2="489.9999999999968" y2="269.9156168963349" stroke-width="2px" style="stroke: black;"></line><line x1="489.9999999999968" y1="269.9156168963349" x2="490.9999999999968" y2="269.9189559243863" stroke-width="2px" style="stroke: black;"></line><line x1="490.9999999999968" y1="269.9189559243863" x2="491.9999999999969" y2="269.922167280045" stroke-width="2px" style="stroke: black;"></line><line x1="491.9999999999969" y1="269.922167280045" x2="492.9999999999968" y2="269.9252556427527" stroke-width="2px" style="stroke: black;"></line><line x1="492.9999999999968" y1="269.9252556427527" x2="493.9999999999968" y2="269.9282255295301" stroke-width="2px" style="stroke: black;"></line><line x1="493.9999999999968" y1="269.9282255295301" x2="494.9999999999968" y2="269.9310813002102" stroke-width="2px" style="stroke: black;"></line><line x1="494.9999999999968" y1="269.9310813002102" x2="495.9999999999968" y2="269.93382716252" stroke-width="2px" style="stroke: black;"></line><line x1="495.9999999999968" y1="269.93382716252" x2="496.99999999999676" y2="269.93646717701563" stroke-width="2px" style="stroke: black;"></line><line x1="496.99999999999676" y1="269.93646717701563" x2="497.99999999999676" y2="269.9390052618739" stroke-width="2px" style="stroke: black;"></line><line x1="497.99999999999676" y1="269.9390052618739" x2="498.99999999999676" y2="269.94144519754343" stroke-width="2px" style="stroke: black;"></line><line x1="498.99999999999676" y1="269.94144519754343" x2="499.9999999999967" y2="269.9437906312592" stroke-width="2px" style="stroke: black;"></line><line x1="100" y1="270" x2="100" y2="270.7416480561637" stroke-width="2px" style="stroke: rgb(0, 85, 255);"></line><line x1="101" y1="270" x2="101" y2="270.69571988038143" stroke-width="2px" style="stroke: rgb(0, 85, 255);"></line><line x1="102" y1="270" x2="102" y2="270.64329832571605" stroke-width="2px" style="stroke: rgb(0, 85, 255);"></line><line x1="103.00000000000001" y1="270" x2="103.00000000000001" y2="270.5837179923318" stroke-width="2px" style="stroke: rgb(0, 85, 255);"></line><line x1="104.00000000000001" y1="270" x2="104.00000000000001" y2="270.51627617463726" stroke-width="2px" style="stroke: rgb(0, 85, 255);"></line><line x1="105.00000000000001" y1="270" x2="105.00000000000001" y2="270.44023379294225" stroke-width="2px" style="stroke: rgb(0, 85, 255);"></line><line x1="106.00000000000001" y1="270" x2="106.00000000000001" y2="270.35481661798883" stroke-width="2px" style="stroke: rgb(0, 85, 255);"></line><line x1="107.00000000000001" y1="270" x2="107.00000000000001" y2="270.2592167884883" stroke-width="2px" style="stroke: rgb(0, 85, 255);"></line><line x1="108.00000000000003" y1="270" x2="108.00000000000003" y2="270.15259461918095" stroke-width="2px" style="stroke: rgb(0, 85, 255);"></line><line x1="109.00000000000003" y1="270" x2="109.00000000000003" y2="270.0340806943604" stroke-width="2px" style="stroke: rgb(0, 85, 255);"></line><line x1="110.00000000000003" y1="270" x2="110.00000000000003" y2="269.90277823930387" stroke-width="2px" style="stroke: rgb(0, 85, 255);"></line><line x1="111.00000000000003" y1="270" x2="111.00000000000003" y2="269.75776575964585" stroke-width="2px" style="stroke: rgb(0, 85, 255);"></line><line x1="112.00000000000003" y1="270" x2="112.00000000000003" y2="269.59809993644825" stroke-width="2px" style="stroke: rgb(0, 85, 255);"></line><line x1="113.00000000000004" y1="270" x2="113.00000000000004" y2="269.42281876257823" stroke-width="2px" style="stroke: rgb(0, 85, 255);"></line><line x1="114.00000000000004" y1="270" x2="114.00000000000004" y2="269.23094490401763" stroke-width="2px" style="stroke: rgb(0, 85, 255);"></line><line x1="115.00000000000004" y1="270" x2="115.00000000000004" y2="269.02148926791875" stroke-width="2px" style="stroke: rgb(0, 85, 255);"></line><line x1="116.00000000000004" y1="270" x2="116.00000000000004" y2="268.7934547575947" stroke-width="2px" style="stroke: rgb(0, 85, 255);"></line><line x1="117.00000000000004" y1="270" x2="117.00000000000004" y2="268.5458401932036" stroke-width="2px" style="stroke: rgb(0, 85, 255);"></line><line x1="118.00000000000006" y1="270" x2="118.00000000000006" y2="268.2776443756612" stroke-width="2px" style="stroke: rgb(0, 85, 255);"></line><line x1="119.00000000000006" y1="270" x2="119.00000000000006" y2="267.9878702702994" stroke-width="2px" style="stroke: rgb(0, 85, 255);"></line><line x1="120.00000000000006" y1="270" x2="120.00000000000006" y2="267.6755292859824" stroke-width="2px" style="stroke: rgb(0, 85, 255);"></line><line x1="121.00000000000006" y1="270" x2="121.00000000000006" y2="267.3396456247985" stroke-width="2px" style="stroke: rgb(0, 85, 255);"></line><line x1="122.00000000000006" y1="270" x2="122.00000000000006" y2="266.9792606770617" stroke-width="2px" style="stroke: rgb(0, 85, 255);"></line><line x1="123.00000000000006" y1="270" x2="123.00000000000006" y2="266.5934374361773" stroke-width="2px" style="stroke: rgb(0, 85, 255);"></line><line x1="124.00000000000007" y1="270" x2="124.00000000000007" y2="266.18126490795055" stroke-width="2px" style="stroke: rgb(0, 85, 255);"></line><line x1="125.00000000000007" y1="270" x2="125.00000000000007" y2="265.741862489128" stroke-width="2px" style="stroke: rgb(0, 85, 255);"></line><line x1="126.00000000000007" y1="270" x2="126.00000000000007" y2="265.27438429036636" stroke-width="2px" style="stroke: rgb(0, 85, 255);"></line><line x1="127.00000000000009" y1="270" x2="127.00000000000009" y2="264.7780233793922" stroke-width="2px" style="stroke: rgb(0, 85, 255);"></line><line x1="128.00000000000009" y1="270" x2="128.00000000000009" y2="264.2520159208566" stroke-width="2px" style="stroke: rgb(0, 85, 255);"></line><line x1="129.00000000000009" y1="270" x2="129.00000000000009" y2="263.6956451902769" stroke-width="2px" style="stroke: rgb(0, 85, 255);"></line><line x1="130.00000000000009" y1="270" x2="130.00000000000009" y2="263.1082454404844" stroke-width="2px" style="stroke: rgb(0, 85, 255);"></line><line x1="131.00000000000009" y1="270" x2="131.00000000000009" y2="262.4892056001523" stroke-width="2px" style="stroke: rgb(0, 85, 255);"></line><line x1="132.00000000000009" y1="270" x2="132.00000000000009" y2="261.8379727852397" stroke-width="2px" style="stroke: rgb(0, 85, 255);"></line><line x1="133.00000000000009" y1="270" x2="133.00000000000009" y2="261.1540556055538" stroke-width="2px" style="stroke: rgb(0, 85, 255);"></line><line x1="134.00000000000009" y1="270" x2="134.00000000000009" y2="260.43702725007665" stroke-width="2px" style="stroke: rgb(0, 85, 255);"></line><line x1="135.0000000000001" y1="270" x2="135.0000000000001" y2="259.6865283362207" stroke-width="2px" style="stroke: rgb(0, 85, 255);"></line><line x1="136.0000000000001" y1="270" x2="136.0000000000001" y2="258.9022695097482" stroke-width="2px" style="stroke: rgb(0, 85, 255);"></line><line x1="137.0000000000001" y1="270" x2="137.0000000000001" y2="258.0840337837069" stroke-width="2px" style="stroke: rgb(0, 85, 255);"></line><line x1="138.0000000000001" y1="270" x2="138.0000000000001" y2="257.23167860637403" stroke-width="2px" style="stroke: rgb(0, 85, 255);"></line><line x1="139.0000000000001" y1="270" x2="139.0000000000001" y2="256.34513764986457" stroke-width="2px" style="stroke: rgb(0, 85, 255);"></line><line x1="140.0000000000001" y1="270" x2="140.0000000000001" y2="255.42442231272085" stroke-width="2px" style="stroke: rgb(0, 85, 255);"></line><line x1="141.0000000000001" y1="270" x2="141.0000000000001" y2="254.46962293145845" stroke-width="2px" style="stroke: rgb(0, 85, 255);"></line><line x1="142.0000000000001" y1="270" x2="142.0000000000001" y2="253.48090969767958" stroke-width="2px" style="stroke: rgb(0, 85, 255);"></line><line x1="143.0000000000001" y1="270" x2="143.0000000000001" y2="252.45853327897413" stroke-width="2px" style="stroke: rgb(0, 85, 255);"></line><line x1="144.0000000000001" y1="270" x2="144.0000000000001" y2="251.40282514339955" stroke-width="2px" style="stroke: rgb(0, 85, 255);"></line><line x1="145.0000000000001" y1="270" x2="145.0000000000001" y2="250.3141975888524" stroke-width="2px" style="stroke: rgb(0, 85, 255);"></line><line x1="146.0000000000001" y1="270" x2="146.0000000000001" y2="249.19314348011198" stroke-width="2px" style="stroke: rgb(0, 85, 255);"></line><line x1="147.00000000000014" y1="270" x2="147.00000000000014" y2="248.040235697744" stroke-width="2px" style="stroke: rgb(0, 85, 255);"></line><line x1="148.00000000000014" y1="270" x2="148.00000000000014" y2="246.85612630438493" stroke-width="2px" style="stroke: rgb(0, 85, 255);"></line><line x1="149.00000000000014" y1="270" x2="149.00000000000014" y2="245.64154543519655" stroke-width="2px" style="stroke: rgb(0, 85, 255);"></line><line x1="150.00000000000014" y1="270" x2="150.00000000000014" y2="244.39729992045775" stroke-width="2px" style="stroke: rgb(0, 85, 255);"></line><line x1="151.00000000000014" y1="270" x2="151.00000000000014" y2="243.1242716493657" stroke-width="2px" style="stroke: rgb(0, 85, 255);"></line><line x1="152.00000000000014" y1="270" x2="152.00000000000014" y2="241.82341568513397" stroke-width="2px" style="stroke: rgb(0, 85, 255);"></line><line x1="153.00000000000017" y1="270" x2="153.00000000000017" y2="240.49575814240134" stroke-width="2px" style="stroke: rgb(0, 85, 255);"></line><line x1="154.00000000000017" y1="270" x2="154.00000000000017" y2="239.14239383880113" stroke-width="2px" style="stroke: rgb(0, 85, 255);"></line><line x1="155.00000000000017" y1="270" x2="155.00000000000017" y2="237.7644837332919" stroke-width="2px" style="stroke: rgb(0, 85, 255);"></line><line x1="156.00000000000017" y1="270" x2="156.00000000000017" y2="236.36325216449993" stroke-width="2px" style="stroke: rgb(0, 85, 255);"></line><line x1="157.00000000000017" y1="270" x2="157.00000000000017" y2="234.93998390289283" stroke-width="2px" style="stroke: rgb(0, 85, 255);"></line><line x1="158.00000000000017" y1="270" x2="158.00000000000017" y2="233.49602103107517" stroke-width="2px" style="stroke: rgb(0, 85, 255);"></line><line x1="159.00000000000017" y1="270" x2="159.00000000000017" y2="232.0327596668836" stroke-width="2px" style="stroke: rgb(0, 85, 255);"></line><line x1="160.00000000000017" y1="270" x2="160.00000000000017" y2="230.55164654425465" stroke-width="2px" style="stroke: rgb(0, 85, 255);"></line><line x1="161.00000000000017" y1="270" x2="161.00000000000017" y2="229.05417546705783" stroke-width="2px" style="stroke: rgb(0, 85, 255);"></line><line x1="162.00000000000017" y1="270" x2="162.00000000000017" y2="227.5418836512111" stroke-width="2px" style="stroke: rgb(0, 85, 255);"></line><line x1="163.00000000000017" y1="270" x2="163.00000000000017" y2="226.0163479704501" stroke-width="2px" style="stroke: rgb(0, 85, 255);"></line><line x1="164.00000000000017" y1="270" x2="164.00000000000017" y2="224.47918112110887" stroke-width="2px" style="stroke: rgb(0, 85, 255);"></line><line x1="165.00000000000017" y1="270" x2="165.00000000000017" y2="222.93202772114978" stroke-width="2px" style="stroke: rgb(0, 85, 255);"></line><line x1="166.00000000000017" y1="270" x2="166.00000000000017" y2="221.37656035855306" stroke-width="2px" style="stroke: rgb(0, 85, 255);"></line><line x1="167.00000000000017" y1="270" x2="167.00000000000017" y2="219.81447560390893" stroke-width="2px" style="stroke: rgb(0, 85, 255);"></line><line x1="168.00000000000017" y1="270" x2="168.00000000000017" y2="218.247490001797" stroke-width="2px" style="stroke: rgb(0, 85, 255);"></line><line x1="169.0000000000002" y1="270" x2="169.0000000000002" y2="216.67733605517913" stroke-width="2px" style="stroke: rgb(0, 85, 255);"></line><line x1="170.0000000000002" y1="270" x2="170.0000000000002" y2="215.10575821663704" stroke-width="2px" style="stroke: rgb(0, 85, 255);"></line><line x1="171.0000000000002" y1="270" x2="171.0000000000002" y2="213.53450889985004" stroke-width="2px" style="stroke: rgb(0, 85, 255);"></line><line x1="172.0000000000002" y1="270" x2="172.0000000000002" y2="211.96534452420926" stroke-width="2px" style="stroke: rgb(0, 85, 255);"></line><line x1="173.00000000000023" y1="270" x2="173.00000000000023" y2="210.40002160496118" stroke-width="2px" style="stroke: rgb(0, 85, 255);"></line><line x1="174.00000000000023" y1="270" x2="174.00000000000023" y2="208.8402929006944" stroke-width="2px" style="stroke: rgb(0, 85, 255);"></line><line x1="175.00000000000023" y1="270" x2="175.00000000000023" y2="207.28790362940674" stroke-width="2px" style="stroke: rgb(0, 85, 255);"></line><line x1="176.0000000000002" y1="270" x2="176.0000000000002" y2="205.7445877637821" stroke-width="2px" style="stroke: rgb(0, 85, 255);"></line><line x1="177.0000000000002" y1="270" x2="177.0000000000002" y2="204.21206441566437" stroke-width="2px" style="stroke: rgb(0, 85, 255);"></line><line x1="178.00000000000017" y1="270" x2="178.00000000000017" y2="202.69203431906175" stroke-width="2px" style="stroke: rgb(0, 85, 255);"></line><line x1="179.00000000000017" y1="270" x2="179.00000000000017" y2="201.18617642036568" stroke-width="2px" style="stroke: rgb(0, 85, 255);"></line><line x1="180.00000000000017" y1="270" x2="180.00000000000017" y2="199.6961445837801" stroke-width="2px" style="stroke: rgb(0, 85, 255);"></line><line x1="181.00000000000017" y1="270" x2="181.00000000000017" y2="198.22356441928653" stroke-width="2px" style="stroke: rgb(0, 85, 255);"></line><line x1="182.0000000000001" y1="270" x2="182.0000000000001" y2="196.77003023978364" stroke-width="2px" style="stroke: rgb(0, 85, 255);"></line><line x1="183.0000000000001" y1="270" x2="183.0000000000001" y2="195.33710215336208" stroke-width="2px" style="stroke: rgb(0, 85, 255);"></line><line x1="184.0000000000001" y1="270" x2="184.0000000000001" y2="193.9263032959933" stroke-width="2px" style="stroke: rgb(0, 85, 255);"></line><line x1="185.0000000000001" y1="270" x2="185.0000000000001" y2="192.5391172092547" stroke-width="2px" style="stroke: rgb(0, 85, 255);"></line><line x1="186.0000000000001" y1="270" x2="186.0000000000001" y2="191.17698536702773" stroke-width="2px" style="stroke: rgb(0, 85, 255);"></line><line x1="187.00000000000009" y1="270" x2="187.00000000000009" y2="189.8413048544793" stroke-width="2px" style="stroke: rgb(0, 85, 255);"></line><line x1="188.00000000000009" y1="270" x2="188.00000000000009" y2="188.53342620199447" stroke-width="2px" style="stroke: rgb(0, 85, 255);"></line><line x1="189.00000000000006" y1="270" x2="189.00000000000006" y2="187.25465137610155" stroke-width="2px" style="stroke: rgb(0, 85, 255);"></line><line x1="190.00000000000006" y1="270" x2="190.00000000000006" y2="186.00623192884103" stroke-width="2px" style="stroke: rgb(0, 85, 255);"></line><line x1="191.00000000000006" y1="270" x2="191.00000000000006" y2="184.78936730644338" stroke-width="2px" style="stroke: rgb(0, 85, 255);"></line><line x1="192.00000000000003" y1="270" x2="192.00000000000003" y2="183.6052033176205" stroke-width="2px" style="stroke: rgb(0, 85, 255);"></line><line x1="193" y1="270" x2="193" y2="182.45483076124333" stroke-width="2px" style="stroke: rgb(0, 85, 255);"></line><line x1="194" y1="270" x2="194" y2="181.33928421265477" stroke-width="2px" style="stroke: rgb(0, 85, 255);"></line><line x1="195" y1="270" x2="195" y2="180.25954096739315" stroke-width="2px" style="stroke: rgb(0, 85, 255);"></line><line x1="196" y1="270" x2="196" y2="179.2165201406257" stroke-width="2px" style="stroke: rgb(0, 85, 255);"></line><line x1="196.99999999999997" y1="270" x2="196.99999999999997" y2="178.21108192016078" stroke-width="2px" style="stroke: rgb(0, 85, 255);"></line><line x1="197.99999999999994" y1="270" x2="197.99999999999994" y2="177.24402697049157" stroke-width="2px" style="stroke: rgb(0, 85, 255);"></line><line x1="198.99999999999994" y1="270" x2="198.99999999999994" y2="176.31609598495288" stroke-width="2px" style="stroke: rgb(0, 85, 255);"></line><line x1="199.99999999999994" y1="270" x2="199.99999999999994" y2="175.42796938270226" stroke-width="2px" style="stroke: rgb(0, 85, 255);"></line><line x1="200.99999999999994" y1="270" x2="200.99999999999994" y2="174.58026714691556" stroke-width="2px" style="stroke: rgb(0, 85, 255);"></line><line x1="201.99999999999994" y1="270" x2="201.99999999999994" y2="173.77354880028392" stroke-width="2px" style="stroke: rgb(0, 85, 255);"></line><line x1="202.99999999999991" y1="270" x2="202.99999999999991" y2="173.0083135136249" stroke-width="2px" style="stroke: rgb(0, 85, 255);"></line><line x1="203.99999999999991" y1="270" x2="203.99999999999991" y2="172.28500034317034" stroke-width="2px" style="stroke: rgb(0, 85, 255);"></line><line x1="204.9999999999999" y1="270" x2="204.9999999999999" y2="171.60398859187418" stroke-width="2px" style="stroke: rgb(0, 85, 255);"></line><line x1="205.9999999999999" y1="270" x2="205.9999999999999" y2="170.96559828988188" stroke-width="2px" style="stroke: rgb(0, 85, 255);"></line><line x1="206.9999999999999" y1="270" x2="206.9999999999999" y2="170.37009078914969" stroke-width="2px" style="stroke: rgb(0, 85, 255);"></line><line x1="207.99999999999986" y1="270" x2="207.99999999999986" y2="169.81766946702453" stroke-width="2px" style="stroke: rgb(0, 85, 255);"></line><line x1="208.99999999999983" y1="270" x2="208.99999999999983" y2="169.30848053350462" stroke-width="2px" style="stroke: rgb(0, 85, 255);"></line><line x1="209.99999999999983" y1="270" x2="209.99999999999983" y2="168.8426139367886" stroke-width="2px" style="stroke: rgb(0, 85, 255);"></line><line x1="210.99999999999983" y1="270" x2="210.99999999999983" y2="168.4201043616403" stroke-width="2px" style="stroke: rgb(0, 85, 255);"></line><line x1="211.99999999999983" y1="270" x2="211.99999999999983" y2="168.04093231504874" stroke-width="2px" style="stroke: rgb(0, 85, 255);"></line><line x1="212.9999999999998" y1="270" x2="212.9999999999998" y2="167.70502529362102" stroke-width="2px" style="stroke: rgb(0, 85, 255);"></line><line x1="213.99999999999977" y1="270" x2="213.99999999999977" y2="167.41225902714638" stroke-width="2px" style="stroke: rgb(0, 85, 255);"></line><line x1="214.99999999999977" y1="270" x2="214.99999999999977" y2="167.16245879275283" stroke-width="2px" style="stroke: rgb(0, 85, 255);"></line><line x1="215.99999999999977" y1="270" x2="215.99999999999977" y2="166.95540079410728" stroke-width="2px" style="stroke: rgb(0, 85, 255);"></line><line x1="216.99999999999977" y1="270" x2="216.99999999999977" y2="166.79081360016903" stroke-width="2px" style="stroke: rgb(0, 85, 255);"></line><line x1="217.99999999999977" y1="270" x2="217.99999999999977" y2="166.6683796380165" stroke-width="2px" style="stroke: rgb(0, 85, 255);"></line><line x1="218.99999999999974" y1="270" x2="218.99999999999974" y2="166.58773673438205" stroke-width="2px" style="stroke: rgb(0, 85, 255);"></line><line x1="219.99999999999974" y1="270" x2="219.99999999999974" y2="166.5484797005857" stroke-width="2px" style="stroke: rgb(0, 85, 255);"></line><line x1="220.99999999999972" y1="270" x2="220.99999999999972" y2="166.55016195565665" stroke-width="2px" style="stroke: rgb(0, 85, 255);"></line><line x1="221.99999999999972" y1="270" x2="221.99999999999972" y2="166.59229718254872" stroke-width="2px" style="stroke: rgb(0, 85, 255);"></line><line x1="222.99999999999972" y1="270" x2="222.99999999999972" y2="166.67436101246" stroke-width="2px" style="stroke: rgb(0, 85, 255);"></line><line x1="223.99999999999972" y1="270" x2="223.99999999999972" y2="166.79579273241495" stroke-width="2px" style="stroke: rgb(0, 85, 255);"></line><line x1="224.9999999999997" y1="270" x2="224.9999999999997" y2="166.95599701137576" stroke-width="2px" style="stroke: rgb(0, 85, 255);"></line><line x1="225.9999999999997" y1="270" x2="225.9999999999997" y2="167.154345640315" stroke-width="2px" style="stroke: rgb(0, 85, 255);"></line><line x1="226.99999999999966" y1="270" x2="226.99999999999966" y2="167.39017928183637" stroke-width="2px" style="stroke: rgb(0, 85, 255);"></line><line x1="227.99999999999966" y1="270" x2="227.99999999999966" y2="167.66280922506232" stroke-width="2px" style="stroke: rgb(0, 85, 255);"></line><line x1="228.99999999999966" y1="270" x2="228.99999999999966" y2="167.97151914169882" stroke-width="2px" style="stroke: rgb(0, 85, 255);"></line><line x1="229.99999999999963" y1="270" x2="229.99999999999963" y2="168.31556683934093" stroke-width="2px" style="stroke: rgb(0, 85, 255);"></line><line x1="230.99999999999963" y1="270" x2="230.99999999999963" y2="168.6941860082498" stroke-width="2px" style="stroke: rgb(0, 85, 255);"></line><line x1="231.99999999999963" y1="270" x2="231.99999999999963" y2="169.1065879580226" stroke-width="2px" style="stroke: rgb(0, 85, 255);"></line><line x1="232.9999999999996" y1="270" x2="232.9999999999996" y2="169.55196334072338" stroke-width="2px" style="stroke: rgb(0, 85, 255);"></line><line x1="233.9999999999996" y1="270" x2="233.9999999999996" y2="170.02948385726336" stroke-width="2px" style="stroke: rgb(0, 85, 255);"></line><line x1="234.99999999999957" y1="270" x2="234.99999999999957" y2="170.5383039439543" stroke-width="2px" style="stroke: rgb(0, 85, 255);"></line><line x1="235.99999999999957" y1="270" x2="235.99999999999957" y2="171.0775624363629" stroke-width="2px" style="stroke: rgb(0, 85, 255);"></line><line x1="236.99999999999957" y1="270" x2="236.99999999999957" y2="171.64638420776612" stroke-width="2px" style="stroke: rgb(0, 85, 255);"></line><line x1="237.99999999999955" y1="270" x2="237.99999999999955" y2="172.24388177968854" stroke-width="2px" style="stroke: rgb(0, 85, 255);"></line><line x1="238.99999999999955" y1="270" x2="238.99999999999955" y2="172.86915690217074" stroke-width="2px" style="stroke: rgb(0, 85, 255);"></line><line x1="239.99999999999955" y1="270" x2="239.99999999999955" y2="173.52130210158947" stroke-width="2px" style="stroke: rgb(0, 85, 255);"></line><line x1="240.99999999999952" y1="270" x2="240.99999999999952" y2="174.19940219405294" stroke-width="2px" style="stroke: rgb(0, 85, 255);"></line><line x1="241.99999999999952" y1="270" x2="241.99999999999952" y2="174.90253576250996" stroke-width="2px" style="stroke: rgb(0, 85, 255);"></line><line x1="242.9999999999995" y1="270" x2="242.9999999999995" y2="175.62977659593045" stroke-width="2px" style="stroke: rgb(0, 85, 255);"></line><line x1="243.9999999999995" y1="270" x2="243.9999999999995" y2="176.3801950890433" stroke-width="2px" style="stroke: rgb(0, 85, 255);"></line><line x1="244.9999999999995" y1="270" x2="244.9999999999995" y2="177.15285960129899" stroke-width="2px" style="stroke: rgb(0, 85, 255);"></line><line x1="245.99999999999946" y1="270" x2="245.99999999999946" y2="177.9468377738487" stroke-width="2px" style="stroke: rgb(0, 85, 255);"></line><line x1="246.99999999999946" y1="270" x2="246.99999999999946" y2="178.76119780352442" stroke-width="2px" style="stroke: rgb(0, 85, 255);"></line><line x1="247.99999999999946" y1="270" x2="247.99999999999946" y2="179.59500967291234" stroke-width="2px" style="stroke: rgb(0, 85, 255);"></line><line x1="248.99999999999943" y1="270" x2="248.99999999999943" y2="180.44734633577406" stroke-width="2px" style="stroke: rgb(0, 85, 255);"></line><line x1="249.99999999999943" y1="270" x2="249.99999999999943" y2="181.31728485719896" stroke-width="2px" style="stroke: rgb(0, 85, 255);"></line><line x1="250.9999999999994" y1="270" x2="250.9999999999994" y2="182.2039075080044" stroke-width="2px" style="stroke: rgb(0, 85, 255);"></line><line x1="251.9999999999994" y1="270" x2="251.9999999999994" y2="183.10630281303088" stroke-width="2px" style="stroke: rgb(0, 85, 255);"></line><line x1="252.9999999999994" y1="270" x2="252.9999999999994" y2="184.02356655308466" stroke-width="2px" style="stroke: rgb(0, 85, 255);"></line><line x1="253.99999999999937" y1="270" x2="253.99999999999937" y2="184.95480272042073" stroke-width="2px" style="stroke: rgb(0, 85, 255);"></line><line x1="254.99999999999937" y1="270" x2="254.99999999999937" y2="185.8991244277446" stroke-width="2px" style="stroke: rgb(0, 85, 255);"></line><line x1="255.99999999999937" y1="270" x2="255.99999999999937" y2="186.85565477083293" stroke-width="2px" style="stroke: rgb(0, 85, 255);"></line><line x1="256.9999999999993" y1="270" x2="256.9999999999993" y2="187.82352764496386" stroke-width="2px" style="stroke: rgb(0, 85, 255);"></line><line x1="257.9999999999993" y1="270" x2="257.9999999999993" y2="188.80188851544727" stroke-width="2px" style="stroke: rgb(0, 85, 255);"></line><line x1="258.9999999999993" y1="270" x2="258.9999999999993" y2="189.78989514262668" stroke-width="2px" style="stroke: rgb(0, 85, 255);"></line><line x1="259.9999999999993" y1="270" x2="259.9999999999993" y2="190.78671826182014" stroke-width="2px" style="stroke: rgb(0, 85, 255);"></line><line x1="260.9999999999993" y1="270" x2="260.9999999999993" y2="191.79154221873" stroke-width="2px" style="stroke: rgb(0, 85, 255);"></line><line x1="261.9999999999993" y1="270" x2="261.9999999999993" y2="192.80356556093483" stroke-width="2px" style="stroke: rgb(0, 85, 255);"></line><line x1="262.9999999999993" y1="270" x2="262.9999999999993" y2="193.82200158614773" stroke-width="2px" style="stroke: rgb(0, 85, 255);"></line><line x1="263.99999999999926" y1="270" x2="263.99999999999926" y2="194.8460788479701" stroke-width="2px" style="stroke: rgb(0, 85, 255);"></line><line x1="264.9999999999993" y1="270" x2="264.9999999999993" y2="195.8750416199528" stroke-width="2px" style="stroke: rgb(0, 85, 255);"></line><line x1="265.99999999999926" y1="270" x2="265.99999999999926" y2="196.90815031880527" stroke-width="2px" style="stroke: rgb(0, 85, 255);"></line><line x1="266.9999999999992" y1="270" x2="266.9999999999992" y2="197.94468188766336" stroke-width="2px" style="stroke: rgb(0, 85, 255);"></line><line x1="267.9999999999992" y1="270" x2="267.9999999999992" y2="198.98393014034372" stroke-width="2px" style="stroke: rgb(0, 85, 255);"></line><line x1="268.9999999999992" y1="270" x2="268.9999999999992" y2="200.02520606759066" stroke-width="2px" style="stroke: rgb(0, 85, 255);"></line><line x1="269.9999999999992" y1="270" x2="269.9999999999992" y2="201.06783810630816" stroke-width="2px" style="stroke: rgb(0, 85, 255);"></line><line x1="270.9999999999992" y1="270" x2="270.9999999999992" y2="202.1111723728431" stroke-width="2px" style="stroke: rgb(0, 85, 255);"></line><line x1="271.9999999999992" y1="270" x2="271.9999999999992" y2="203.15457286138815" stroke-width="2px" style="stroke: rgb(0, 85, 255);"></line><line x1="272.9999999999992" y1="270" x2="272.9999999999992" y2="204.19742160859974" stroke-width="2px" style="stroke: rgb(0, 85, 255);"></line><line x1="273.99999999999915" y1="270" x2="273.99999999999915" y2="205.23911882555348" stroke-width="2px" style="stroke: rgb(0, 85, 255);"></line><line x1="274.99999999999915" y1="270" x2="274.99999999999915" y2="206.27908299816374" stroke-width="2px" style="stroke: rgb(0, 85, 255);"></line><line x1="275.99999999999915" y1="270" x2="275.99999999999915" y2="207.3167509572157" stroke-width="2px" style="stroke: rgb(0, 85, 255);"></line><line x1="276.99999999999915" y1="270" x2="276.99999999999915" y2="208.3515779191608" stroke-width="2px" style="stroke: rgb(0, 85, 255);"></line><line x1="277.9999999999991" y1="270" x2="277.9999999999991" y2="209.38303749883565" stroke-width="2px" style="stroke: rgb(0, 85, 255);"></line><line x1="278.9999999999991" y1="270" x2="278.9999999999991" y2="210.41062169526296" stroke-width="2px" style="stroke: rgb(0, 85, 255);"></line><line x1="279.9999999999991" y1="270" x2="279.9999999999991" y2="211.4338408517009" stroke-width="2px" style="stroke: rgb(0, 85, 255);"></line><line x1="280.9999999999991" y1="270" x2="280.9999999999991" y2="212.4522235910942" stroke-width="2px" style="stroke: rgb(0, 85, 255);"></line><line x1="281.9999999999991" y1="270" x2="281.9999999999991" y2="213.46531672808135" stroke-width="2px" style="stroke: rgb(0, 85, 255);"></line><line x1="282.9999999999991" y1="270" x2="282.9999999999991" y2="214.47268515871124" stroke-width="2px" style="stroke: rgb(0, 85, 255);"></line><line x1="283.9999999999991" y1="270" x2="283.9999999999991" y2="215.47391172899222" stroke-width="2px" style="stroke: rgb(0, 85, 255);"></line><line x1="284.99999999999903" y1="270" x2="284.99999999999903" y2="216.4685970834102" stroke-width="2px" style="stroke: rgb(0, 85, 255);"></line><line x1="285.9999999999991" y1="270" x2="285.9999999999991" y2="217.4563594945178" stroke-width="2px" style="stroke: rgb(0, 85, 255);"></line><line x1="286.99999999999903" y1="270" x2="286.99999999999903" y2="218.43683467469603" stroke-width="2px" style="stroke: rgb(0, 85, 255);"></line><line x1="287.999999999999" y1="270" x2="287.999999999999" y2="219.40967557116335" stroke-width="2px" style="stroke: rgb(0, 85, 255);"></line><line x1="288.999999999999" y1="270" x2="288.999999999999" y2="220.37455214529032" stroke-width="2px" style="stroke: rgb(0, 85, 255);"></line><line x1="289.999999999999" y1="270" x2="289.999999999999" y2="221.331151137265" stroke-width="2px" style="stroke: rgb(0, 85, 255);"></line><line x1="290.999999999999" y1="270" x2="290.999999999999" y2="222.27917581712168" stroke-width="2px" style="stroke: rgb(0, 85, 255);"></line><line x1="291.999999999999" y1="270" x2="291.999999999999" y2="223.2183457231302" stroke-width="2px" style="stroke: rgb(0, 85, 255);"></line><line x1="292.999999999999" y1="270" x2="292.999999999999" y2="224.14839638852465" stroke-width="2px" style="stroke: rgb(0, 85, 255);"></line><line x1="293.999999999999" y1="270" x2="293.999999999999" y2="225.0690790575099" stroke-width="2px" style="stroke: rgb(0, 85, 255);"></line><line x1="294.9999999999989" y1="270" x2="294.9999999999989" y2="225.98016039147757" stroke-width="2px" style="stroke: rgb(0, 85, 255);"></line><line x1="295.9999999999989" y1="270" x2="295.9999999999989" y2="226.8814221663276" stroke-width="2px" style="stroke: rgb(0, 85, 255);"></line><line x1="296.9999999999989" y1="270" x2="296.9999999999989" y2="227.77266096176555" stroke-width="2px" style="stroke: rgb(0, 85, 255);"></line><line x1="297.9999999999989" y1="270" x2="297.9999999999989" y2="228.65368784341763" stroke-width="2px" style="stroke: rgb(0, 85, 255);"></line><line x1="298.99999999999886" y1="270" x2="298.99999999999886" y2="229.52432803859273" stroke-width="2px" style="stroke: rgb(0, 85, 255);"></line><line x1="299.99999999999886" y1="270" x2="299.99999999999886" y2="230.38442060646577" stroke-width="2px" style="stroke: rgb(0, 85, 255);"></line><line x1="300.99999999999886" y1="270" x2="300.99999999999886" y2="231.2338181034572" stroke-width="2px" style="stroke: rgb(0, 85, 255);"></line><line x1="301.99999999999886" y1="270" x2="301.99999999999886" y2="232.07238624453925" stroke-width="2px" style="stroke: rgb(0, 85, 255);"></line><line x1="302.99999999999886" y1="270" x2="302.99999999999886" y2="232.90000356117326" stroke-width="2px" style="stroke: rgb(0, 85, 255);"></line><line x1="303.99999999999886" y1="270" x2="303.99999999999886" y2="233.71656105656294" stroke-width="2px" style="stroke: rgb(0, 85, 255);"></line><line x1="304.99999999999886" y1="270" x2="304.99999999999886" y2="234.52196185886808" stroke-width="2px" style="stroke: rgb(0, 85, 255);"></line><line x1="305.9999999999988" y1="270" x2="305.9999999999988" y2="235.31612087300553" stroke-width="2px" style="stroke: rgb(0, 85, 255);"></line><line x1="306.9999999999988" y1="270" x2="306.9999999999988" y2="236.09896443163524" stroke-width="2px" style="stroke: rgb(0, 85, 255);"></line><line x1="307.9999999999988" y1="270" x2="307.9999999999988" y2="236.87042994589223" stroke-width="2px" style="stroke: rgb(0, 85, 255);"></line><line x1="308.9999999999988" y1="270" x2="308.9999999999988" y2="237.63046555641546" stroke-width="2px" style="stroke: rgb(0, 85, 255);"></line><line x1="309.99999999999875" y1="270" x2="309.99999999999875" y2="238.37902978517988" stroke-width="2px" style="stroke: rgb(0, 85, 255);"></line><line x1="310.99999999999875" y1="270" x2="310.99999999999875" y2="239.11609118862359" stroke-width="2px" style="stroke: rgb(0, 85, 255);"></line><line x1="311.99999999999875" y1="270" x2="311.99999999999875" y2="239.84162801253333" stroke-width="2px" style="stroke: rgb(0, 85, 255);"></line><line x1="312.99999999999875" y1="270" x2="312.99999999999875" y2="240.55562784911996" stroke-width="2px" style="stroke: rgb(0, 85, 255);"></line><line x1="313.99999999999875" y1="270" x2="313.99999999999875" y2="241.2580872967021" stroke-width="2px" style="stroke: rgb(0, 85, 255);"></line><line x1="314.99999999999875" y1="270" x2="314.99999999999875" y2="241.94901162237892" stroke-width="2px" style="stroke: rgb(0, 85, 255);"></line><line x1="315.99999999999875" y1="270" x2="315.99999999999875" y2="242.62841442805754" stroke-width="2px" style="stroke: rgb(0, 85, 255);"></line><line x1="316.9999999999987" y1="270" x2="316.9999999999987" y2="243.29631732017486" stroke-width="2px" style="stroke: rgb(0, 85, 255);"></line><line x1="317.99999999999875" y1="270" x2="317.99999999999875" y2="243.95274958342995" stroke-width="2px" style="stroke: rgb(0, 85, 255);"></line><line x1="318.9999999999987" y1="270" x2="318.9999999999987" y2="244.5977478588188" stroke-width="2px" style="stroke: rgb(0, 85, 255);"></line><line x1="319.99999999999864" y1="270" x2="319.99999999999864" y2="245.2313558262478" stroke-width="2px" style="stroke: rgb(0, 85, 255);"></line><line x1="320.99999999999864" y1="270" x2="320.99999999999864" y2="245.8536238919738" stroke-width="2px" style="stroke: rgb(0, 85, 255);"></line><line x1="321.99999999999864" y1="270" x2="321.99999999999864" y2="246.46460888110317" stroke-width="2px" style="stroke: rgb(0, 85, 255);"></line><line x1="322.99999999999864" y1="270" x2="322.99999999999864" y2="247.06437373536062" stroke-width="2px" style="stroke: rgb(0, 85, 255);"></line><line x1="323.99999999999864" y1="270" x2="323.99999999999864" y2="247.6529872163189" stroke-width="2px" style="stroke: rgb(0, 85, 255);"></line><line x1="324.99999999999864" y1="270" x2="324.99999999999864" y2="248.23052361426338" stroke-width="2px" style="stroke: rgb(0, 85, 255);"></line><line x1="325.99999999999864" y1="270" x2="325.99999999999864" y2="248.79706246284638" stroke-width="2px" style="stroke: rgb(0, 85, 255);"></line><line x1="326.9999999999986" y1="270" x2="326.9999999999986" y2="249.35268825966935" stroke-width="2px" style="stroke: rgb(0, 85, 255);"></line><line x1="327.9999999999986" y1="270" x2="327.9999999999986" y2="249.89749019291375" stroke-width="2px" style="stroke: rgb(0, 85, 255);"></line><line x1="328.9999999999986" y1="270" x2="328.9999999999986" y2="250.43156187412774" stroke-width="2px" style="stroke: rgb(0, 85, 255);"></line><line x1="329.9999999999986" y1="270" x2="329.9999999999986" y2="250.9550010772575" stroke-width="2px" style="stroke: rgb(0, 85, 255);"></line><text x="100" y="310" style="font-family: sans-serif; font-size: 9pt; stroke: rgb(0, 85, 255); text-anchor: middle;">6.223</text><text x="330.5176319412715" y="310" style="font-family: sans-serif; font-size: 9pt; stroke: rgb(0, 85, 255); text-anchor: middle;">36.415</text><text x="215.25881597063574" y="310" style="font-family: sans-serif; font-size: 9pt; stroke: rgb(0, 85, 255); text-anchor: middle;">&lt;- Accept H₀ -&gt;</text><text x="380.5176319412715" y="310" style="font-family: sans-serif; font-size: 9pt; stroke: red; text-anchor: middle;">&lt;- Reject H₀</text><text x="380.5176319412715" y="250" style="font-family: sans-serif; font-size: 9pt; stroke: red; text-anchor: middle;">0.050</text><line x1="464.7797501559404" y1="270" x2="464.7797501559404" y2="330" stroke-width="2px" style="stroke: green;"></line><text x="464.7797501559404" y="345" style="font-family: sans-serif; font-size: 9pt; stroke: green; text-anchor: middle;">[TestStat] = 54.000</text><text x="464.7797501559404" y="360" style="font-family: sans-serif; font-size: 9pt; stroke: green; text-anchor: middle;">p-value = 0.0004</text><text x="300" y="380" style="font-family: sans-serif; font-size: 9pt; stroke: red; text-anchor: middle;">[Decision] Reject H₀</text></svg>