<svg xmlns="http://www.w3.org/2000/svg" id="SVG" style="width: 600px; height: 560px;"><text x="290" y="50" style="font-size: 17px; font-family: sans-seirf; stroke: black; text-anchor: middle;">(Group  Gender)  Income  Testing Hypothesis: Two Population Variances</text><text x="300" y="80" style="stroke: green; font-size: 9pt; font-family: sans-serif; text-anchor: middle;">H₀: σ₁² = σ₂²  ,  H₁: σ₁² ≠ σ₂² </text><text x="300" y="100" style="stroke: green; font-size: 9pt; font-family: sans-serif; text-anchor: middle;">[TestStat] = ( S₁² / S₂² )  ~  F(9,9) Distribution</text><g transform="translate(100,460)" fill="none" font-size="10" font-family="sans-serif" text-anchor="middle"><path class="domain" stroke="#000" d="M0.5,6V0.5H400.5V6"></path><g class="tick" opacity="1" transform="translate(0.5,0)"><line stroke="#000" y2="6"></line><text fill="#000" y="9" dy="0.71em">0</text></g><g class="tick" opacity="1" transform="translate(40.5,0)"><line stroke="#000" y2="6"></line><text fill="#000" y="9" dy="0.71em">1</text></g><g class="tick" opacity="1" transform="translate(80.5,0)"><line stroke="#000" y2="6"></line><text fill="#000" y="9" dy="0.71em">2</text></g><g class="tick" opacity="1" transform="translate(120.5,0)"><line stroke="#000" y2="6"></line><text fill="#000" y="9" dy="0.71em">3</text></g><g class="tick" opacity="1" transform="translate(160.5,0)"><line stroke="#000" y2="6"></line><text fill="#000" y="9" dy="0.71em">4</text></g><g class="tick" opacity="1" transform="translate(200.5,0)"><line stroke="#000" y2="6"></line><text fill="#000" y="9" dy="0.71em">5</text></g><g class="tick" opacity="1" transform="translate(240.5,0)"><line stroke="#000" y2="6"></line><text fill="#000" y="9" dy="0.71em">6</text></g><g class="tick" opacity="1" transform="translate(280.5,0)"><line stroke="#000" y2="6"></line><text fill="#000" y="9" dy="0.71em">7</text></g><g class="tick" opacity="1" transform="translate(320.5,0)"><line stroke="#000" y2="6"></line><text fill="#000" y="9" dy="0.71em">8</text></g><g class="tick" opacity="1" transform="translate(360.5,0)"><line stroke="#000" y2="6"></line><text fill="#000" y="9" dy="0.71em">9</text></g><g class="tick" opacity="1" transform="translate(400.5,0)"><line stroke="#000" y2="6"></line><text fill="#000" y="9" dy="0.71em">10</text></g></g><g transform="translate(100,100)" fill="none" font-size="10" font-family="sans-serif" text-anchor="end"><path class="domain" stroke="#000" d="M-6,0.5H0.5V360.5H-6"></path><g class="tick" opacity="1" transform="translate(0,0.5)"><line stroke="#000" x2="-6"></line><text fill="#000" x="-9" dy="0.32em">1.8</text></g><g class="tick" opacity="1" transform="translate(0,40.5)"><line stroke="#000" x2="-6"></line><text fill="#000" x="-9" dy="0.32em">1.6</text></g><g class="tick" opacity="1" transform="translate(0,80.50000000000006)"><line stroke="#000" x2="-6"></line><text fill="#000" x="-9" dy="0.32em">1.4</text></g><g class="tick" opacity="1" transform="translate(0,120.5)"><line stroke="#000" x2="-6"></line><text fill="#000" x="-9" dy="0.32em">1.2</text></g><g class="tick" opacity="1" transform="translate(0,160.5)"><line stroke="#000" x2="-6"></line><text fill="#000" x="-9" dy="0.32em">1.0</text></g><g class="tick" opacity="1" transform="translate(0,200.5)"><line stroke="#000" x2="-6"></line><text fill="#000" x="-9" dy="0.32em">0.8</text></g><g class="tick" opacity="1" transform="translate(0,240.5)"><line stroke="#000" x2="-6"></line><text fill="#000" x="-9" dy="0.32em">0.6</text></g><g class="tick" opacity="1" transform="translate(0,280.5)"><line stroke="#000" x2="-6"></line><text fill="#000" x="-9" dy="0.32em">0.4</text></g><g class="tick" opacity="1" transform="translate(0,320.5)"><line stroke="#000" x2="-6"></line><text fill="#000" x="-9" dy="0.32em">0.2</text></g><g class="tick" opacity="1" transform="translate(0,360.5)"><line stroke="#000" x2="-6"></line><text fill="#000" x="-9" dy="0.32em">0.0</text></g></g><line x1="100" y1="460" x2="101" y2="459.8820936336602" style="stroke: black; stroke-width: 2px;"></line><line x1="101" y1="459.8820936336602" x2="102" y2="458.92612597650793" style="stroke: black; stroke-width: 2px;"></line><line x1="102" y1="458.92612597650793" x2="103" y2="456.408298325153" style="stroke: black; stroke-width: 2px;"></line><line x1="103" y1="456.408298325153" x2="104" y2="452.00666808181376" style="stroke: black; stroke-width: 2px;"></line><line x1="104" y1="452.00666808181376" x2="105" y2="445.741483022266" style="stroke: black; stroke-width: 2px;"></line><line x1="105" y1="445.741483022266" x2="106" y2="437.8537163997088" style="stroke: black; stroke-width: 2px;"></line><line x1="106" y1="437.8537163997088" x2="107" y2="428.69927589767434" style="stroke: black; stroke-width: 2px;"></line><line x1="107" y1="428.69927589767434" x2="108" y2="418.67281884049754" style="stroke: black; stroke-width: 2px;"></line><line x1="108" y1="418.67281884049754" x2="109" y2="408.1586826836503" style="stroke: black; stroke-width: 2px;"></line><line x1="109" y1="408.1586826836503" x2="110" y2="397.5026033758692" style="stroke: black; stroke-width: 2px;"></line><line x1="110" y1="397.5026033758692" x2="111" y2="386.99799653408036" style="stroke: black; stroke-width: 2px;"></line><line x1="111" y1="386.99799653408036" x2="112" y2="376.8817799567388" style="stroke: black; stroke-width: 2px;"></line><line x1="112" y1="376.8817799567388" x2="113" y2="367.3360364399914" style="stroke: black; stroke-width: 2px;"></line><line x1="113" y1="367.3360364399914" x2="114" y2="358.4929392796196" style="stroke: black; stroke-width: 2px;"></line><line x1="114" y1="358.4929392796196" x2="115" y2="350.4412251362726" style="stroke: black; stroke-width: 2px;"></line><line x1="115" y1="350.4412251362726" x2="116" y2="343.23312374601494" style="stroke: black; stroke-width: 2px;"></line><line x1="116" y1="343.23312374601494" x2="117" y2="336.89108899407074" style="stroke: black; stroke-width: 2px;"></line><line x1="117" y1="336.89108899407074" x2="118" y2="331.4139689113398" style="stroke: black; stroke-width: 2px;"></line><line x1="118" y1="331.4139689113398" x2="119" y2="326.78244320827173" style="stroke: black; stroke-width: 2px;"></line><line x1="119" y1="326.78244320827173" x2="120" y2="322.96367691760776" style="stroke: black; stroke-width: 2px;"></line><line x1="120" y1="322.96367691760776" x2="121" y2="319.91521034062987" style="stroke: black; stroke-width: 2px;"></line><line x1="121" y1="319.91521034062987" x2="122" y2="317.5881450475416" style="stroke: black; stroke-width: 2px;"></line><line x1="122" y1="317.5881450475416" x2="123" y2="315.92970452798914" style="stroke: black; stroke-width: 2px;"></line><line x1="123" y1="315.92970452798914" x2="124" y2="314.8852539964032" style="stroke: black; stroke-width: 2px;"></line><line x1="124" y1="314.8852539964032" x2="125" y2="314.39986205115133" style="stroke: black; stroke-width: 2px;"></line><line x1="125" y1="314.39986205115133" x2="126.00000000000001" y2="314.4194808051395" style="stroke: black; stroke-width: 2px;"></line><line x1="126.00000000000001" y1="314.4194808051395" x2="127.00000000000001" y2="314.891812959856" style="stroke: black; stroke-width: 2px;"></line><line x1="127.00000000000001" y1="314.891812959856" x2="128" y2="315.76692546422134" style="stroke: black; stroke-width: 2px;"></line><line x1="128" y1="315.76692546422134" x2="129" y2="316.99766070786325" style="stroke: black; stroke-width: 2px;"></line><line x1="129" y1="316.99766070786325" x2="130" y2="318.53988810502204" style="stroke: black; stroke-width: 2px;"></line><line x1="130" y1="318.53988810502204" x2="131" y2="320.35263165570757" style="stroke: black; stroke-width: 2px;"></line><line x1="131" y1="320.35263165570757" x2="132" y2="322.3981027044071" style="stroke: black; stroke-width: 2px;"></line><line x1="132" y1="322.3981027044071" x2="133" y2="324.6416616455678" style="stroke: black; stroke-width: 2px;"></line><line x1="133" y1="324.6416616455678" x2="134" y2="327.0517276919645" style="stroke: black; stroke-width: 2px;"></line><line x1="134" y1="327.0517276919645" x2="135" y2="329.59965194515917" style="stroke: black; stroke-width: 2px;"></line><line x1="135" y1="329.59965194515917" x2="136" y2="332.2595657955437" style="stroke: black; stroke-width: 2px;"></line><line x1="136" y1="332.2595657955437" x2="137" y2="335.00821404205857" style="stroke: black; stroke-width: 2px;"></line><line x1="137" y1="335.00821404205857" x2="138.00000000000003" y2="337.82477997302925" style="stroke: black; stroke-width: 2px;"></line><line x1="138.00000000000003" y1="337.82477997302925" x2="139.00000000000003" y2="340.6907079121031" style="stroke: black; stroke-width: 2px;"></line><line x1="139.00000000000003" y1="340.6907079121031" x2="140" y2="343.58952733849947" style="stroke: black; stroke-width: 2px;"></line><line x1="140" y1="343.58952733849947" x2="141" y2="346.50668157934194" style="stroke: black; stroke-width: 2px;"></line><line x1="141" y1="346.50668157934194" x2="142" y2="349.4293631930008" style="stroke: black; stroke-width: 2px;"></line><line x1="142" y1="349.4293631930008" x2="143" y2="352.3463574733008" style="stroke: black; stroke-width: 2px;"></line><line x1="143" y1="352.3463574733008" x2="144" y2="355.2478949692644" style="stroke: black; stroke-width: 2px;"></line><line x1="144" y1="355.2478949692644" x2="145" y2="358.12551350399383" style="stroke: black; stroke-width: 2px;"></line><line x1="145" y1="358.12551350399383" x2="146" y2="360.97192986475335" style="stroke: black; stroke-width: 2px;"></line><line x1="146" y1="360.97192986475335" x2="147" y2="363.7809211040996" style="stroke: black; stroke-width: 2px;"></line><line x1="147" y1="363.7809211040996" x2="148" y2="366.54721522259155" style="stroke: black; stroke-width: 2px;"></line><line x1="148" y1="366.54721522259155" x2="149" y2="369.2663908837571" style="stroke: black; stroke-width: 2px;"></line><line x1="149" y1="369.2663908837571" x2="150" y2="371.93478573082047" style="stroke: black; stroke-width: 2px;"></line><line x1="150" y1="371.93478573082047" x2="150.99999999999997" y2="374.5494128234419" style="stroke: black; stroke-width: 2px;"></line><line x1="150.99999999999997" y1="374.5494128234419" x2="151.99999999999997" y2="377.10788468442854" style="stroke: black; stroke-width: 2px;"></line><line x1="151.99999999999997" y1="377.10788468442854" x2="152.99999999999997" y2="379.60834443544843" style="stroke: black; stroke-width: 2px;"></line><line x1="152.99999999999997" y1="379.60834443544843" x2="153.99999999999997" y2="382.04940350278855" style="stroke: black; stroke-width: 2px;"></line><line x1="153.99999999999997" y1="382.04940350278855" x2="154.99999999999997" y2="384.430085385648" style="stroke: black; stroke-width: 2px;"></line><line x1="154.99999999999997" y1="384.430085385648" x2="155.99999999999997" y2="386.7497749976021" style="stroke: black; stroke-width: 2px;"></line><line x1="155.99999999999997" y1="386.7497749976021" x2="156.99999999999994" y2="389.0081731145633" style="stroke: black; stroke-width: 2px;"></line><line x1="156.99999999999994" y1="389.0081731145633" x2="157.99999999999994" y2="391.2052554881543" style="stroke: black; stroke-width: 2px;"></line><line x1="157.99999999999994" y1="391.2052554881543" x2="158.99999999999994" y2="393.34123621062463" style="stroke: black; stroke-width: 2px;"></line><line x1="158.99999999999994" y1="393.34123621062463" x2="159.99999999999994" y2="395.41653494532125" style="stroke: black; stroke-width: 2px;"></line><line x1="159.99999999999994" y1="395.41653494532125" x2="160.99999999999994" y2="397.43174766456184" style="stroke: black; stroke-width: 2px;"></line><line x1="160.99999999999994" y1="397.43174766456184" x2="161.99999999999994" y2="399.3876205640242" style="stroke: black; stroke-width: 2px;"></line><line x1="161.99999999999994" y1="399.3876205640242" x2="162.99999999999994" y2="401.2850268490921" style="stroke: black; stroke-width: 2px;"></line><line x1="162.99999999999994" y1="401.2850268490921" x2="163.99999999999994" y2="403.12494611373086" style="stroke: black; stroke-width: 2px;"></line><line x1="163.99999999999994" y1="403.12494611373086" x2="164.99999999999994" y2="404.9084460562473" style="stroke: black; stroke-width: 2px;"></line><line x1="164.99999999999994" y1="404.9084460562473" x2="165.99999999999991" y2="406.6366662986173" style="stroke: black; stroke-width: 2px;"></line><line x1="165.99999999999991" y1="406.6366662986173" x2="166.99999999999991" y2="408.3108040969112" style="stroke: black; stroke-width: 2px;"></line><line x1="166.99999999999991" y1="408.3108040969112" x2="167.99999999999991" y2="409.9321017497047" style="stroke: black; stroke-width: 2px;"></line><line x1="167.99999999999991" y1="409.9321017497047" x2="168.99999999999991" y2="411.50183552925836" style="stroke: black; stroke-width: 2px;"></line><line x1="168.99999999999991" y1="411.50183552925836" x2="169.99999999999991" y2="413.0213059767393" style="stroke: black; stroke-width: 2px;"></line><line x1="169.99999999999991" y1="413.0213059767393" x2="170.99999999999991" y2="414.4918294178944" style="stroke: black; stroke-width: 2px;"></line><line x1="170.99999999999991" y1="414.4918294178944" x2="171.99999999999991" y2="415.9147305694491" style="stroke: black; stroke-width: 2px;"></line><line x1="171.99999999999991" y1="415.9147305694491" x2="172.9999999999999" y2="417.29133611916814" style="stroke: black; stroke-width: 2px;"></line><line x1="172.9999999999999" y1="417.29133611916814" x2="173.9999999999999" y2="418.6229691740555" style="stroke: black; stroke-width: 2px;"></line><line x1="173.9999999999999" y1="418.6229691740555" x2="174.9999999999999" y2="419.9109444816733" style="stroke: black; stroke-width: 2px;"></line><line x1="174.9999999999999" y1="419.9109444816733" x2="175.9999999999999" y2="421.1565643390968" style="stroke: black; stroke-width: 2px;"></line><line x1="175.9999999999999" y1="421.1565643390968" x2="176.9999999999999" y2="422.36111511267234" style="stroke: black; stroke-width: 2px;"></line><line x1="176.9999999999999" y1="422.36111511267234" x2="177.9999999999999" y2="423.52586429958006" style="stroke: black; stroke-width: 2px;"></line><line x1="177.9999999999999" y1="423.52586429958006" x2="178.9999999999999" y2="424.6520580692894" style="stroke: black; stroke-width: 2px;"></line><line x1="178.9999999999999" y1="424.6520580692894" x2="179.9999999999999" y2="425.74091922940187" style="stroke: black; stroke-width: 2px;"></line><line x1="179.9999999999999" y1="425.74091922940187" x2="180.9999999999999" y2="426.7936455661528" style="stroke: black; stroke-width: 2px;"></line><line x1="180.9999999999999" y1="426.7936455661528" x2="181.99999999999986" y2="427.8114085150636" style="stroke: black; stroke-width: 2px;"></line><line x1="181.99999999999986" y1="427.8114085150636" x2="182.99999999999986" y2="428.79535212193036" style="stroke: black; stroke-width: 2px;"></line><line x1="182.99999999999986" y1="428.79535212193036" x2="183.99999999999986" y2="429.7465922585686" style="stroke: black; stroke-width: 2px;"></line><line x1="183.99999999999986" y1="429.7465922585686" x2="184.99999999999986" y2="430.6662160615419" style="stroke: black; stroke-width: 2px;"></line><line x1="184.99999999999986" y1="430.6662160615419" x2="185.99999999999986" y2="431.5552815655231" style="stroke: black; stroke-width: 2px;"></line><line x1="185.99999999999986" y1="431.5552815655231" x2="186.99999999999986" y2="432.4148175060185" style="stroke: black; stroke-width: 2px;"></line><line x1="186.99999999999986" y1="432.4148175060185" x2="187.99999999999986" y2="433.2458232689446" style="stroke: black; stroke-width: 2px;"></line><line x1="187.99999999999986" y1="433.2458232689446" x2="188.99999999999983" y2="434.04926896702926" style="stroke: black; stroke-width: 2px;"></line><line x1="188.99999999999983" y1="434.04926896702926" x2="189.99999999999983" y2="434.8260956252353" style="stroke: black; stroke-width: 2px;"></line><line x1="189.99999999999983" y1="434.8260956252353" x2="190.99999999999983" y2="435.5772154593975" style="stroke: black; stroke-width: 2px;"></line><line x1="190.99999999999983" y1="435.5772154593975" x2="191.99999999999983" y2="436.30351223405347" style="stroke: black; stroke-width: 2px;"></line><line x1="191.99999999999983" y1="436.30351223405347" x2="192.99999999999983" y2="437.0058416870499" style="stroke: black; stroke-width: 2px;"></line><line x1="192.99999999999983" y1="437.0058416870499" x2="193.99999999999983" y2="437.6850320099378" style="stroke: black; stroke-width: 2px;"></line><line x1="193.99999999999983" y1="437.6850320099378" x2="194.99999999999983" y2="438.34188437445385" style="stroke: black; stroke-width: 2px;"></line><line x1="194.99999999999983" y1="438.34188437445385" x2="195.99999999999983" y2="438.9771734965314" style="stroke: black; stroke-width: 2px;"></line><line x1="195.99999999999983" y1="438.9771734965314" x2="196.99999999999983" y2="439.5916482303077" style="stroke: black; stroke-width: 2px;"></line><line x1="196.99999999999983" y1="439.5916482303077" x2="197.9999999999998" y2="440.1860321855109" style="stroke: black; stroke-width: 2px;"></line><line x1="197.9999999999998" y1="440.1860321855109" x2="198.9999999999998" y2="440.7610243624253" style="stroke: black; stroke-width: 2px;"></line><line x1="198.9999999999998" y1="440.7610243624253" x2="199.9999999999998" y2="441.31729979936233" style="stroke: black; stroke-width: 2px;"></line><line x1="199.9999999999998" y1="441.31729979936233" x2="200.9999999999998" y2="441.8555102282136" style="stroke: black; stroke-width: 2px;"></line><line x1="200.9999999999998" y1="441.8555102282136" x2="201.9999999999998" y2="442.3762847342406" style="stroke: black; stroke-width: 2px;"></line><line x1="201.9999999999998" y1="442.3762847342406" x2="202.9999999999998" y2="442.88023041676877" style="stroke: black; stroke-width: 2px;"></line><line x1="202.9999999999998" y1="442.88023041676877" x2="203.9999999999998" y2="443.36793304791314" style="stroke: black; stroke-width: 2px;"></line><line x1="203.9999999999998" y1="443.36793304791314" x2="204.9999999999998" y2="443.83995772686706" style="stroke: black; stroke-width: 2px;"></line><line x1="204.9999999999998" y1="443.83995772686706" x2="205.99999999999977" y2="444.2968495276457" style="stroke: black; stroke-width: 2px;"></line><line x1="205.99999999999977" y1="444.2968495276457" x2="206.99999999999977" y2="444.7391341384977" style="stroke: black; stroke-width: 2px;"></line><line x1="206.99999999999977" y1="444.7391341384977" x2="207.99999999999977" y2="445.1673184914788" style="stroke: black; stroke-width: 2px;"></line><line x1="207.99999999999977" y1="445.1673184914788" x2="208.99999999999977" y2="445.58189138093127" style="stroke: black; stroke-width: 2px;"></line><line x1="208.99999999999977" y1="445.58189138093127" x2="209.99999999999977" y2="445.9833240698363" style="stroke: black; stroke-width: 2px;"></line><line x1="209.99999999999977" y1="445.9833240698363" x2="210.99999999999977" y2="446.37207088319764" style="stroke: black; stroke-width: 2px;"></line><line x1="210.99999999999977" y1="446.37207088319764" x2="211.99999999999977" y2="446.7485697877876" style="stroke: black; stroke-width: 2px;"></line><line x1="211.99999999999977" y1="446.7485697877876" x2="212.99999999999974" y2="447.1132429577373" style="stroke: black; stroke-width: 2px;"></line><line x1="212.99999999999974" y1="447.1132429577373" x2="213.99999999999974" y2="447.46649732558313" style="stroke: black; stroke-width: 2px;"></line><line x1="213.99999999999974" y1="447.46649732558313" x2="214.99999999999974" y2="447.8087251184974" style="stroke: black; stroke-width: 2px;"></line><line x1="214.99999999999974" y1="447.8087251184974" x2="215.99999999999974" y2="448.14030437953187" style="stroke: black; stroke-width: 2px;"></line><line x1="215.99999999999974" y1="448.14030437953187" x2="216.99999999999974" y2="448.46159947378817" style="stroke: black; stroke-width: 2px;"></line><line x1="216.99999999999974" y1="448.46159947378817" x2="217.99999999999974" y2="448.7729615795063" style="stroke: black; stroke-width: 2px;"></line><line x1="217.99999999999974" y1="448.7729615795063" x2="218.99999999999972" y2="449.07472916412667" style="stroke: black; stroke-width: 2px;"></line><line x1="218.99999999999972" y1="449.07472916412667" x2="219.99999999999972" y2="449.3672284454368" style="stroke: black; stroke-width: 2px;"></line><line x1="219.99999999999972" y1="449.3672284454368" x2="220.99999999999972" y2="449.6507738379605" style="stroke: black; stroke-width: 2px;"></line><line x1="220.99999999999972" y1="449.6507738379605" x2="221.99999999999972" y2="449.9256683847901" style="stroke: black; stroke-width: 2px;"></line><line x1="221.99999999999972" y1="449.9256683847901" x2="222.99999999999972" y2="450.19220417509285" style="stroke: black; stroke-width: 2px;"></line><line x1="222.99999999999972" y1="450.19220417509285" x2="223.99999999999972" y2="450.45066274755374" style="stroke: black; stroke-width: 2px;"></line><line x1="223.99999999999972" y1="450.45066274755374" x2="224.99999999999972" y2="450.7013154800375" style="stroke: black; stroke-width: 2px;"></line><line x1="224.99999999999972" y1="450.7013154800375" x2="225.99999999999972" y2="450.94442396577375" style="stroke: black; stroke-width: 2px;"></line><line x1="225.99999999999972" y1="450.94442396577375" x2="226.99999999999972" y2="451.1802403763814" style="stroke: black; stroke-width: 2px;"></line><line x1="226.99999999999972" y1="451.1802403763814" x2="227.99999999999972" y2="451.40900781206363" style="stroke: black; stroke-width: 2px;"></line><line x1="227.99999999999972" y1="451.40900781206363" x2="228.99999999999972" y2="451.6309606393077" style="stroke: black; stroke-width: 2px;"></line><line x1="228.99999999999972" y1="451.6309606393077" x2="229.99999999999972" y2="451.84632481643587" style="stroke: black; stroke-width: 2px;"></line><line x1="229.99999999999972" y1="451.84632481643587" x2="230.99999999999972" y2="452.0553182073517" style="stroke: black; stroke-width: 2px;"></line><line x1="230.99999999999972" y1="452.0553182073517" x2="231.9999999999997" y2="452.2581508838323" style="stroke: black; stroke-width: 2px;"></line><line x1="231.9999999999997" y1="452.2581508838323" x2="232.9999999999997" y2="452.4550254167129" style="stroke: black; stroke-width: 2px;"></line><line x1="232.9999999999997" y1="452.4550254167129" x2="233.9999999999997" y2="452.6461371563114" style="stroke: black; stroke-width: 2px;"></line><line x1="233.9999999999997" y1="452.6461371563114" x2="234.9999999999997" y2="452.8316745024368" style="stroke: black; stroke-width: 2px;"></line><line x1="234.9999999999997" y1="452.8316745024368" x2="235.9999999999997" y2="453.0118191643201" style="stroke: black; stroke-width: 2px;"></line><line x1="235.9999999999997" y1="453.0118191643201" x2="236.9999999999997" y2="453.1867464108048" style="stroke: black; stroke-width: 2px;"></line><line x1="236.9999999999997" y1="453.1867464108048" x2="237.99999999999966" y2="453.35662531112416" style="stroke: black; stroke-width: 2px;"></line><line x1="237.99999999999966" y1="453.35662531112416" x2="238.99999999999966" y2="453.52161896659004" style="stroke: black; stroke-width: 2px;"></line><line x1="238.99999999999966" y1="453.52161896659004" x2="239.99999999999966" y2="453.6818847335092" style="stroke: black; stroke-width: 2px;"></line><line x1="239.99999999999966" y1="453.6818847335092" x2="240.99999999999966" y2="453.8375744376364" style="stroke: black; stroke-width: 2px;"></line><line x1="240.99999999999966" y1="453.8375744376364" x2="241.99999999999966" y2="453.9888345804662" style="stroke: black; stroke-width: 2px;"></line><line x1="241.99999999999966" y1="453.9888345804662" x2="242.99999999999966" y2="454.13580653765746" style="stroke: black; stroke-width: 2px;"></line><line x1="242.99999999999966" y1="454.13580653765746" x2="243.99999999999966" y2="454.2786267498774" style="stroke: black; stroke-width: 2px;"></line><line x1="243.99999999999966" y1="454.2786267498774" x2="244.99999999999963" y2="454.41742690634186" style="stroke: black; stroke-width: 2px;"></line><line x1="244.99999999999963" y1="454.41742690634186" x2="245.99999999999963" y2="454.552334121324" style="stroke: black; stroke-width: 2px;"></line><line x1="245.99999999999963" y1="454.552334121324" x2="246.99999999999963" y2="454.68347110389146" style="stroke: black; stroke-width: 2px;"></line><line x1="246.99999999999963" y1="454.68347110389146" x2="247.99999999999963" y2="454.8109563211268" style="stroke: black; stroke-width: 2px;"></line><line x1="247.99999999999963" y1="454.8109563211268" x2="248.99999999999963" y2="454.93490415507705" style="stroke: black; stroke-width: 2px;"></line><line x1="248.99999999999963" y1="454.93490415507705" x2="249.99999999999963" y2="455.0554250536693" style="stroke: black; stroke-width: 2px;"></line><line x1="249.99999999999963" y1="455.0554250536693" x2="250.9999999999996" y2="455.1726256758235" style="stroke: black; stroke-width: 2px;"></line><line x1="250.9999999999996" y1="455.1726256758235" x2="251.9999999999996" y2="455.28660903098296" style="stroke: black; stroke-width: 2px;"></line><line x1="251.9999999999996" y1="455.28660903098296" x2="252.9999999999996" y2="455.3974746132786" style="stroke: black; stroke-width: 2px;"></line><line x1="252.9999999999996" y1="455.3974746132786" x2="253.9999999999996" y2="455.50531853053286" style="stroke: black; stroke-width: 2px;"></line><line x1="253.9999999999996" y1="455.50531853053286" x2="254.9999999999996" y2="455.6102336283029" style="stroke: black; stroke-width: 2px;"></line><line x1="254.9999999999996" y1="455.6102336283029" x2="255.9999999999996" y2="455.7123096091565" style="stroke: black; stroke-width: 2px;"></line><line x1="255.9999999999996" y1="455.7123096091565" x2="256.9999999999996" y2="455.81163314736455" style="stroke: black; stroke-width: 2px;"></line><line x1="256.9999999999996" y1="455.81163314736455" x2="257.9999999999996" y2="455.9082879991907" style="stroke: black; stroke-width: 2px;"></line><line x1="257.9999999999996" y1="455.9082879991907" x2="258.9999999999996" y2="456.0023551089483" style="stroke: black; stroke-width: 2px;"></line><line x1="258.9999999999996" y1="456.0023551089483" x2="259.9999999999996" y2="456.0939127109918" style="stroke: black; stroke-width: 2px;"></line><line x1="259.9999999999996" y1="456.0939127109918" x2="260.9999999999996" y2="456.18303642780114" style="stroke: black; stroke-width: 2px;"></line><line x1="260.9999999999996" y1="456.18303642780114" x2="261.9999999999996" y2="456.26979936431286" style="stroke: black; stroke-width: 2px;"></line><line x1="261.9999999999996" y1="456.26979936431286" x2="262.9999999999996" y2="456.35427219864494" style="stroke: black; stroke-width: 2px;"></line><line x1="262.9999999999996" y1="456.35427219864494" x2="263.99999999999966" y2="456.436523269358" style="stroke: black; stroke-width: 2px;"></line><line x1="263.99999999999966" y1="456.436523269358" x2="264.99999999999966" y2="456.5166186593887" style="stroke: black; stroke-width: 2px;"></line><line x1="264.99999999999966" y1="456.5166186593887" x2="265.99999999999966" y2="456.594622276786" style="stroke: black; stroke-width: 2px;"></line><line x1="265.99999999999966" y1="456.594622276786" x2="266.99999999999966" y2="456.67059593237764" style="stroke: black; stroke-width: 2px;"></line><line x1="266.99999999999966" y1="456.67059593237764" x2="267.99999999999966" y2="456.74459941448583" style="stroke: black; stroke-width: 2px;"></line><line x1="267.99999999999966" y1="456.74459941448583" x2="268.9999999999997" y2="456.81669056081074" style="stroke: black; stroke-width: 2px;"></line><line x1="268.9999999999997" y1="456.81669056081074" x2="269.9999999999997" y2="456.8869253275912" style="stroke: black; stroke-width: 2px;"></line><line x1="269.9999999999997" y1="456.8869253275912" x2="270.9999999999997" y2="456.95535785615186" style="stroke: black; stroke-width: 2px;"></line><line x1="270.9999999999997" y1="456.95535785615186" x2="271.9999999999998" y2="457.02204053693845" style="stroke: black; stroke-width: 2px;"></line><line x1="271.9999999999998" y1="457.02204053693845" x2="272.9999999999998" y2="457.0870240711406" style="stroke: black; stroke-width: 2px;"></line><line x1="272.9999999999998" y1="457.0870240711406" x2="273.9999999999998" y2="457.15035752999745" style="stroke: black; stroke-width: 2px;"></line><line x1="273.9999999999998" y1="457.15035752999745" x2="274.9999999999998" y2="457.21208841187683" style="stroke: black; stroke-width: 2px;"></line><line x1="274.9999999999998" y1="457.21208841187683" x2="275.9999999999998" y2="457.27226269721564" style="stroke: black; stroke-width: 2px;"></line><line x1="275.9999999999998" y1="457.27226269721564" x2="276.99999999999983" y2="457.3309249014054" style="stroke: black; stroke-width: 2px;"></line><line x1="276.99999999999983" y1="457.3309249014054" x2="277.99999999999983" y2="457.3881181257044" style="stroke: black; stroke-width: 2px;"></line><line x1="277.99999999999983" y1="457.3881181257044" x2="278.99999999999983" y2="457.4438841062523" style="stroke: black; stroke-width: 2px;"></line><line x1="278.99999999999983" y1="457.4438841062523" x2="279.9999999999999" y2="457.4982632612635" style="stroke: black; stroke-width: 2px;"></line><line x1="279.9999999999999" y1="457.4982632612635" x2="280.9999999999999" y2="457.55129473646855" style="stroke: black; stroke-width: 2px;"></line><line x1="280.9999999999999" y1="457.55129473646855" x2="281.9999999999999" y2="457.6030164488741" style="stroke: black; stroke-width: 2px;"></line><line x1="281.9999999999999" y1="457.6030164488741" x2="282.9999999999999" y2="457.65346512890505" style="stroke: black; stroke-width: 2px;"></line><line x1="282.9999999999999" y1="457.65346512890505" x2="283.9999999999999" y2="457.70267636099413" style="stroke: black; stroke-width: 2px;"></line><line x1="283.9999999999999" y1="457.70267636099413" x2="284.99999999999994" y2="457.75068462267706" style="stroke: black; stroke-width: 2px;"></line><line x1="284.99999999999994" y1="457.75068462267706" x2="285.99999999999994" y2="457.79752332225365" style="stroke: black; stroke-width: 2px;"></line><line x1="285.99999999999994" y1="457.79752332225365" x2="286.99999999999994" y2="457.843224835069" style="stroke: black; stroke-width: 2px;"></line><line x1="286.99999999999994" y1="457.843224835069" x2="288" y2="457.88782053846893" style="stroke: black; stroke-width: 2px;"></line><line x1="288" y1="457.88782053846893" x2="289" y2="457.93134084548086" style="stroke: black; stroke-width: 2px;"></line><line x1="289" y1="457.93134084548086" x2="290" y2="457.9738152372695" style="stroke: black; stroke-width: 2px;"></line><line x1="290" y1="457.9738152372695" x2="291" y2="458.0152722944147" style="stroke: black; stroke-width: 2px;"></line><line x1="291" y1="458.0152722944147" x2="292" y2="458.05573972705633" style="stroke: black; stroke-width: 2px;"></line><line x1="292" y1="458.05573972705633" x2="293.00000000000006" y2="458.0952444039508" style="stroke: black; stroke-width: 2px;"></line><line x1="293.00000000000006" y1="458.0952444039508" x2="294.00000000000006" y2="458.13381238047975" style="stroke: black; stroke-width: 2px;"></line><line x1="294.00000000000006" y1="458.13381238047975" x2="295.00000000000006" y2="458.1714689256521" style="stroke: black; stroke-width: 2px;"></line><line x1="295.00000000000006" y1="458.1714689256521" x2="296.0000000000001" y2="458.20823854813756" style="stroke: black; stroke-width: 2px;"></line><line x1="296.0000000000001" y1="458.20823854813756" x2="297.0000000000001" y2="458.24414502136835" style="stroke: black; stroke-width: 2px;"></line><line x1="297.0000000000001" y1="458.24414502136835" x2="298.0000000000001" y2="458.2792114077455" style="stroke: black; stroke-width: 2px;"></line><line x1="298.0000000000001" y1="458.2792114077455" x2="299.0000000000001" y2="458.3134600819824" style="stroke: black; stroke-width: 2px;"></line><line x1="299.0000000000001" y1="458.3134600819824" x2="300.0000000000001" y2="458.3469127536199" style="stroke: black; stroke-width: 2px;"></line><line x1="300.0000000000001" y1="458.3469127536199" x2="301.00000000000017" y2="458.3795904887434" style="stroke: black; stroke-width: 2px;"></line><line x1="301.00000000000017" y1="458.3795904887434" x2="302.00000000000017" y2="458.41151373093203" style="stroke: black; stroke-width: 2px;"></line><line x1="302.00000000000017" y1="458.41151373093203" x2="303.00000000000017" y2="458.4427023214697" style="stroke: black; stroke-width: 2px;"></line><line x1="303.00000000000017" y1="458.4427023214697" x2="304.0000000000002" y2="458.4731755188451" style="stroke: black; stroke-width: 2px;"></line><line x1="304.0000000000002" y1="458.4731755188451" x2="305.0000000000002" y2="458.5029520175675" style="stroke: black; stroke-width: 2px;"></line><line x1="305.0000000000002" y1="458.5029520175675" x2="306.0000000000002" y2="458.5320499663244" style="stroke: black; stroke-width: 2px;"></line><line x1="306.0000000000002" y1="458.5320499663244" x2="307.0000000000002" y2="458.56048698550524" style="stroke: black; stroke-width: 2px;"></line><line x1="307.0000000000002" y1="458.56048698550524" x2="308.0000000000003" y2="458.58828018411486" style="stroke: black; stroke-width: 2px;"></line><line x1="308.0000000000003" y1="458.58828018411486" x2="309.0000000000003" y2="458.6154461761001" style="stroke: black; stroke-width: 2px;"></line><line x1="309.0000000000003" y1="458.6154461761001" x2="310.0000000000003" y2="458.64200109611" style="stroke: black; stroke-width: 2px;"></line><line x1="310.0000000000003" y1="458.64200109611" x2="311.00000000000034" y2="458.6679606147125" style="stroke: black; stroke-width: 2px;"></line><line x1="311.00000000000034" y1="458.6679606147125" x2="312.00000000000034" y2="458.69333995308585" style="stroke: black; stroke-width: 2px;"></line><line x1="312.00000000000034" y1="458.69333995308585" x2="313.00000000000034" y2="458.71815389720564" style="stroke: black; stroke-width: 2px;"></line><line x1="313.00000000000034" y1="458.71815389720564" x2="314.00000000000034" y2="458.74241681154496" style="stroke: black; stroke-width: 2px;"></line><line x1="314.00000000000034" y1="458.74241681154496" x2="315.00000000000034" y2="458.76614265230626" style="stroke: black; stroke-width: 2px;"></line><line x1="315.00000000000034" y1="458.76614265230626" x2="316.00000000000034" y2="458.78934498020226" style="stroke: black; stroke-width: 2px;"></line><line x1="316.00000000000034" y1="458.78934498020226" x2="317.00000000000034" y2="458.81203697280114" style="stroke: black; stroke-width: 2px;"></line><line x1="317.00000000000034" y1="458.81203697280114" x2="318.0000000000004" y2="458.8342314364539" style="stroke: black; stroke-width: 2px;"></line><line x1="318.0000000000004" y1="458.8342314364539" x2="319.0000000000004" y2="458.855940817817" style="stroke: black; stroke-width: 2px;"></line><line x1="319.0000000000004" y1="458.855940817817" x2="320.0000000000004" y2="458.87717721498717" style="stroke: black; stroke-width: 2px;"></line><line x1="320.0000000000004" y1="458.87717721498717" x2="321.00000000000045" y2="458.89795238826025" style="stroke: black; stroke-width: 2px;"></line><line x1="321.00000000000045" y1="458.89795238826025" x2="322.00000000000045" y2="458.91827777052936" style="stroke: black; stroke-width: 2px;"></line><line x1="322.00000000000045" y1="458.91827777052936" x2="323.00000000000045" y2="458.93816447733474" style="stroke: black; stroke-width: 2px;"></line><line x1="323.00000000000045" y1="458.93816447733474" x2="324.0000000000005" y2="458.9576233165778" style="stroke: black; stroke-width: 2px;"></line><line x1="324.0000000000005" y1="458.9576233165778" x2="325.0000000000005" y2="458.97666479791144" style="stroke: black; stroke-width: 2px;"></line><line x1="325.0000000000005" y1="458.97666479791144" x2="326.0000000000005" y2="458.9952991418184" style="stroke: black; stroke-width: 2px;"></line><line x1="326.0000000000005" y1="458.9952991418184" x2="327.00000000000057" y2="459.01353628838893" style="stroke: black; stroke-width: 2px;"></line><line x1="327.00000000000057" y1="459.01353628838893" x2="328.00000000000057" y2="459.03138590580767" style="stroke: black; stroke-width: 2px;"></line><line x1="328.00000000000057" y1="459.03138590580767" x2="329.00000000000057" y2="459.0488573985616" style="stroke: black; stroke-width: 2px;"></line><line x1="329.00000000000057" y1="459.0488573985616" x2="330.00000000000057" y2="459.06595991537716" style="stroke: black; stroke-width: 2px;"></line><line x1="330.00000000000057" y1="459.06595991537716" x2="331.00000000000057" y2="459.0827023568979" style="stroke: black; stroke-width: 2px;"></line><line x1="331.00000000000057" y1="459.0827023568979" x2="332.00000000000057" y2="459.09909338311036" style="stroke: black; stroke-width: 2px;"></line><line x1="332.00000000000057" y1="459.09909338311036" x2="333.00000000000057" y2="459.1151414205278" style="stroke: black; stroke-width: 2px;"></line><line x1="333.00000000000057" y1="459.1151414205278" x2="334.0000000000006" y2="459.1308546691404" style="stroke: black; stroke-width: 2px;"></line><line x1="334.0000000000006" y1="459.1308546691404" x2="335.0000000000006" y2="459.14624110913985" style="stroke: black; stroke-width: 2px;"></line><line x1="335.0000000000006" y1="459.14624110913985" x2="336.0000000000006" y2="459.161308507426" style="stroke: black; stroke-width: 2px;"></line><line x1="336.0000000000006" y1="459.161308507426" x2="337.0000000000007" y2="459.1760644239034" style="stroke: black; stroke-width: 2px;"></line><line x1="337.0000000000007" y1="459.1760644239034" x2="338.0000000000007" y2="459.1905162175759" style="stroke: black; stroke-width: 2px;"></line><line x1="338.0000000000007" y1="459.1905162175759" x2="339.0000000000007" y2="459.2046710524443" style="stroke: black; stroke-width: 2px;"></line><line x1="339.0000000000007" y1="459.2046710524443" x2="340.00000000000074" y2="459.21853590321604" style="stroke: black; stroke-width: 2px;"></line><line x1="340.00000000000074" y1="459.21853590321604" x2="341.00000000000074" y2="459.2321175608319" style="stroke: black; stroke-width: 2px;"></line><line x1="341.00000000000074" y1="459.2321175608319" x2="342.00000000000074" y2="459.2454226378171" style="stroke: black; stroke-width: 2px;"></line><line x1="342.00000000000074" y1="459.2454226378171" x2="343.0000000000008" y2="459.2584575734619" style="stroke: black; stroke-width: 2px;"></line><line x1="343.0000000000008" y1="459.2584575734619" x2="344.0000000000008" y2="459.2712286388382" style="stroke: black; stroke-width: 2px;"></line><line x1="344.0000000000008" y1="459.2712286388382" x2="345.0000000000008" y2="459.28374194165735" style="stroke: black; stroke-width: 2px;"></line><line x1="345.0000000000008" y1="459.28374194165735" x2="346.0000000000008" y2="459.29600343097525" style="stroke: black; stroke-width: 2px;"></line><line x1="346.0000000000008" y1="459.29600343097525" x2="347.0000000000008" y2="459.30801890174894" style="stroke: black; stroke-width: 2px;"></line><line x1="347.0000000000008" y1="459.30801890174894" x2="348.0000000000008" y2="459.31979399925046" style="stroke: black; stroke-width: 2px;"></line><line x1="348.0000000000008" y1="459.31979399925046" x2="349.0000000000008" y2="459.33133422334276" style="stroke: black; stroke-width: 2px;"></line><line x1="349.0000000000008" y1="459.33133422334276" x2="350.00000000000085" y2="459.34264493262197" style="stroke: black; stroke-width: 2px;"></line><line x1="350.00000000000085" y1="459.34264493262197" x2="351.00000000000085" y2="459.35373134843087" style="stroke: black; stroke-width: 2px;"></line><line x1="351.00000000000085" y1="459.35373134843087" x2="352.00000000000085" y2="459.36459855874773" style="stroke: black; stroke-width: 2px;"></line><line x1="352.00000000000085" y1="459.36459855874773" x2="353.0000000000009" y2="459.37525152195485" style="stroke: black; stroke-width: 2px;"></line><line x1="353.0000000000009" y1="459.37525152195485" x2="354.0000000000009" y2="459.38569507049056" style="stroke: black; stroke-width: 2px;"></line><line x1="354.0000000000009" y1="459.38569507049056" x2="355.0000000000009" y2="459.39593391438876" style="stroke: black; stroke-width: 2px;"></line><line x1="355.0000000000009" y1="459.39593391438876" x2="356.00000000000097" y2="459.40597264470995" style="stroke: black; stroke-width: 2px;"></line><line x1="356.00000000000097" y1="459.40597264470995" x2="357.00000000000097" y2="459.4158157368669" style="stroke: black; stroke-width: 2px;"></line><line x1="357.00000000000097" y1="459.4158157368669" x2="358.00000000000097" y2="459.42546755384853" style="stroke: black; stroke-width: 2px;"></line><line x1="358.00000000000097" y1="459.42546755384853" x2="359.000000000001" y2="459.43493234934607" style="stroke: black; stroke-width: 2px;"></line><line x1="359.000000000001" y1="459.43493234934607" x2="360.000000000001" y2="459.4442142707836" style="stroke: black; stroke-width: 2px;"></line><line x1="360.000000000001" y1="459.4442142707836" x2="361.000000000001" y2="459.4533173622571" style="stroke: black; stroke-width: 2px;"></line><line x1="361.000000000001" y1="459.4533173622571" x2="362.000000000001" y2="459.4622455673841" style="stroke: black; stroke-width: 2px;"></line><line x1="362.000000000001" y1="459.4622455673841" x2="363.000000000001" y2="459.4710027320681" style="stroke: black; stroke-width: 2px;"></line><line x1="363.000000000001" y1="459.4710027320681" x2="364.000000000001" y2="459.479592607179" style="stroke: black; stroke-width: 2px;"></line><line x1="364.000000000001" y1="459.479592607179" x2="365.000000000001" y2="459.48801885115364" style="stroke: black; stroke-width: 2px;"></line><line x1="365.000000000001" y1="459.48801885115364" x2="366.0000000000011" y2="459.4962850325185" style="stroke: black; stroke-width: 2px;"></line><line x1="366.0000000000011" y1="459.4962850325185" x2="367.0000000000011" y2="459.50439463233636" style="stroke: black; stroke-width: 2px;"></line><line x1="367.0000000000011" y1="459.50439463233636" x2="368.0000000000011" y2="459.5123510465811" style="stroke: black; stroke-width: 2px;"></line><line x1="368.0000000000011" y1="459.5123510465811" x2="369.00000000000114" y2="459.52015758844135" style="stroke: black; stroke-width: 2px;"></line><line x1="369.00000000000114" y1="459.52015758844135" x2="370.00000000000114" y2="459.52781749055555" style="stroke: black; stroke-width: 2px;"></line><line x1="370.00000000000114" y1="459.52781749055555" x2="371.00000000000114" y2="459.53533390718206" style="stroke: black; stroke-width: 2px;"></line><line x1="371.00000000000114" y1="459.53533390718206" x2="372.0000000000012" y2="459.54270991630403" style="stroke: black; stroke-width: 2px;"></line><line x1="372.0000000000012" y1="459.54270991630403" x2="373.0000000000012" y2="459.5499485216733" style="stroke: black; stroke-width: 2px;"></line><line x1="373.0000000000012" y1="459.5499485216733" x2="374.0000000000012" y2="459.5570526547938" style="stroke: black; stroke-width: 2px;"></line><line x1="374.0000000000012" y1="459.5570526547938" x2="375.00000000000125" y2="459.56402517684717" style="stroke: black; stroke-width: 2px;"></line><line x1="375.00000000000125" y1="459.56402517684717" x2="376.00000000000125" y2="459.57086888056216" style="stroke: black; stroke-width: 2px;"></line><line x1="376.00000000000125" y1="459.57086888056216" x2="377.00000000000125" y2="459.5775864920296" style="stroke: black; stroke-width: 2px;"></line><line x1="377.00000000000125" y1="459.5775864920296" x2="378.00000000000125" y2="459.5841806724646" style="stroke: black; stroke-width: 2px;"></line><line x1="378.00000000000125" y1="459.5841806724646" x2="379.00000000000125" y2="459.5906540199177" style="stroke: black; stroke-width: 2px;"></line><line x1="379.00000000000125" y1="459.5906540199177" x2="380.00000000000125" y2="459.5970090709367" style="stroke: black; stroke-width: 2px;"></line><line x1="380.00000000000125" y1="459.5970090709367" x2="381.00000000000125" y2="459.60324830218065" style="stroke: black; stroke-width: 2px;"></line><line x1="381.00000000000125" y1="459.60324830218065" x2="382.0000000000013" y2="459.60937413198724" style="stroke: black; stroke-width: 2px;"></line><line x1="382.0000000000013" y1="459.60937413198724" x2="383.0000000000013" y2="459.61538892189515" style="stroke: black; stroke-width: 2px;"></line><line x1="383.0000000000013" y1="459.61538892189515" x2="384.0000000000013" y2="459.62129497812344" style="stroke: black; stroke-width: 2px;"></line><line x1="384.0000000000013" y1="459.62129497812344" x2="385.00000000000136" y2="459.627094553008" style="stroke: black; stroke-width: 2px;"></line><line x1="385.00000000000136" y1="459.627094553008" x2="386.00000000000136" y2="459.63278984639777" style="stroke: black; stroke-width: 2px;"></line><line x1="386.00000000000136" y1="459.63278984639777" x2="387.00000000000136" y2="459.6383830070106" style="stroke: black; stroke-width: 2px;"></line><line x1="387.00000000000136" y1="459.6383830070106" x2="388.0000000000014" y2="459.64387613375146" style="stroke: black; stroke-width: 2px;"></line><line x1="388.0000000000014" y1="459.64387613375146" x2="389.0000000000014" y2="459.64927127699315" style="stroke: black; stroke-width: 2px;"></line><line x1="389.0000000000014" y1="459.64927127699315" x2="390.0000000000014" y2="459.65457043982053" style="stroke: black; stroke-width: 2px;"></line><line x1="390.0000000000014" y1="459.65457043982053" x2="391.0000000000015" y2="459.65977557924026" style="stroke: black; stroke-width: 2px;"></line><line x1="391.0000000000015" y1="459.65977557924026" x2="392.0000000000015" y2="459.66488860735654" style="stroke: black; stroke-width: 2px;"></line><line x1="392.0000000000015" y1="459.66488860735654" x2="393.0000000000015" y2="459.66991139251377" style="stroke: black; stroke-width: 2px;"></line><line x1="393.0000000000015" y1="459.66991139251377" x2="394.0000000000015" y2="459.6748457604075" style="stroke: black; stroke-width: 2px;"></line><line x1="394.0000000000015" y1="459.6748457604075" x2="395.0000000000015" y2="459.6796934951644" style="stroke: black; stroke-width: 2px;"></line><line x1="395.0000000000015" y1="459.6796934951644" x2="396.0000000000015" y2="459.68445634039216" style="stroke: black; stroke-width: 2px;"></line><line x1="396.0000000000015" y1="459.68445634039216" x2="397.0000000000015" y2="459.6891360002006" style="stroke: black; stroke-width: 2px;"></line><line x1="397.0000000000015" y1="459.6891360002006" x2="398.00000000000153" y2="459.69373414019424" style="stroke: black; stroke-width: 2px;"></line><line x1="398.00000000000153" y1="459.69373414019424" x2="399.00000000000153" y2="459.6982523884375" style="stroke: black; stroke-width: 2px;"></line><line x1="399.00000000000153" y1="459.6982523884375" x2="400.00000000000153" y2="459.7026923363938" style="stroke: black; stroke-width: 2px;"></line><line x1="400.00000000000153" y1="459.7026923363938" x2="401.0000000000016" y2="459.7070555398384" style="stroke: black; stroke-width: 2px;"></line><line x1="401.0000000000016" y1="459.7070555398384" x2="402.0000000000016" y2="459.71134351974666" style="stroke: black; stroke-width: 2px;"></line><line x1="402.0000000000016" y1="459.71134351974666" x2="403.0000000000016" y2="459.71555776315756" style="stroke: black; stroke-width: 2px;"></line><line x1="403.0000000000016" y1="459.71555776315756" x2="404.00000000000165" y2="459.71969972401433" style="stroke: black; stroke-width: 2px;"></line><line x1="404.00000000000165" y1="459.71969972401433" x2="405.00000000000165" y2="459.72377082398185" style="stroke: black; stroke-width: 2px;"></line><line x1="405.00000000000165" y1="459.72377082398185" x2="406.00000000000165" y2="459.72777245324187" style="stroke: black; stroke-width: 2px;"></line><line x1="406.00000000000165" y1="459.72777245324187" x2="407.0000000000017" y2="459.7317059712669" style="stroke: black; stroke-width: 2px;"></line><line x1="407.0000000000017" y1="459.7317059712669" x2="408.0000000000017" y2="459.73557270757334" style="stroke: black; stroke-width: 2px;"></line><line x1="408.0000000000017" y1="459.73557270757334" x2="409.0000000000017" y2="459.7393739624539" style="stroke: black; stroke-width: 2px;"></line><line x1="409.0000000000017" y1="459.7393739624539" x2="410.0000000000017" y2="459.7431110076909" style="stroke: black; stroke-width: 2px;"></line><line x1="410.0000000000017" y1="459.7431110076909" x2="411.0000000000017" y2="459.7467850872502" style="stroke: black; stroke-width: 2px;"></line><line x1="411.0000000000017" y1="459.7467850872502" x2="412.0000000000017" y2="459.75039741795644" style="stroke: black; stroke-width: 2px;"></line><line x1="412.0000000000017" y1="459.75039741795644" x2="413.0000000000017" y2="459.75394919015065" style="stroke: black; stroke-width: 2px;"></line><line x1="413.0000000000017" y1="459.75394919015065" x2="414.00000000000176" y2="459.75744156833014" style="stroke: black; stroke-width: 2px;"></line><line x1="414.00000000000176" y1="459.75744156833014" x2="415.00000000000176" y2="459.76087569177145" style="stroke: black; stroke-width: 2px;"></line><line x1="415.00000000000176" y1="459.76087569177145" x2="416.00000000000176" y2="459.76425267513685" style="stroke: black; stroke-width: 2px;"></line><line x1="416.00000000000176" y1="459.76425267513685" x2="417.0000000000018" y2="459.7675736090649" style="stroke: black; stroke-width: 2px;"></line><line x1="417.0000000000018" y1="459.7675736090649" x2="418.0000000000018" y2="459.77083956074546" style="stroke: black; stroke-width: 2px;"></line><line x1="418.0000000000018" y1="459.77083956074546" x2="419.0000000000018" y2="459.77405157447913" style="stroke: black; stroke-width: 2px;"></line><line x1="419.0000000000018" y1="459.77405157447913" x2="420.0000000000019" y2="459.7772106722229" style="stroke: black; stroke-width: 2px;"></line><line x1="420.0000000000019" y1="459.7772106722229" x2="421.0000000000019" y2="459.7803178541209" style="stroke: black; stroke-width: 2px;"></line><line x1="421.0000000000019" y1="459.7803178541209" x2="422.0000000000019" y2="459.7833740990212" style="stroke: black; stroke-width: 2px;"></line><line x1="422.0000000000019" y1="459.7833740990212" x2="423.00000000000193" y2="459.7863803649799" style="stroke: black; stroke-width: 2px;"></line><line x1="423.00000000000193" y1="459.7863803649799" x2="424.00000000000193" y2="459.78933758975114" style="stroke: black; stroke-width: 2px;"></line><line x1="424.00000000000193" y1="459.78933758975114" x2="425.00000000000193" y2="459.79224669126546" style="stroke: black; stroke-width: 2px;"></line><line x1="425.00000000000193" y1="459.79224669126546" x2="426.00000000000193" y2="459.79510856809475" style="stroke: black; stroke-width: 2px;"></line><line x1="426.00000000000193" y1="459.79510856809475" x2="427.00000000000193" y2="459.79792409990614" style="stroke: black; stroke-width: 2px;"></line><line x1="427.00000000000193" y1="459.79792409990614" x2="428.00000000000193" y2="459.8006941479035" style="stroke: black; stroke-width: 2px;"></line><line x1="428.00000000000193" y1="459.8006941479035" x2="429.00000000000193" y2="459.80341955525836" style="stroke: black; stroke-width: 2px;"></line><line x1="429.00000000000193" y1="459.80341955525836" x2="430.000000000002" y2="459.80610114752864" style="stroke: black; stroke-width: 2px;"></line><line x1="430.000000000002" y1="459.80610114752864" x2="431.000000000002" y2="459.8087397330681" style="stroke: black; stroke-width: 2px;"></line><line x1="431.000000000002" y1="459.8087397330681" x2="432.000000000002" y2="459.81133610342425" style="stroke: black; stroke-width: 2px;"></line><line x1="432.000000000002" y1="459.81133610342425" x2="433.00000000000205" y2="459.8138910337268" style="stroke: black; stroke-width: 2px;"></line><line x1="433.00000000000205" y1="459.8138910337268" x2="434.00000000000205" y2="459.8164052830657" style="stroke: black; stroke-width: 2px;"></line><line x1="434.00000000000205" y1="459.8164052830657" x2="435.00000000000205" y2="459.8188795948601" style="stroke: black; stroke-width: 2px;"></line><line x1="435.00000000000205" y1="459.8188795948601" x2="436.0000000000021" y2="459.82131469721793" style="stroke: black; stroke-width: 2px;"></line><line x1="436.0000000000021" y1="459.82131469721793" x2="437.0000000000021" y2="459.8237113032859" style="stroke: black; stroke-width: 2px;"></line><line x1="437.0000000000021" y1="459.8237113032859" x2="438.0000000000021" y2="459.8260701115915" style="stroke: black; stroke-width: 2px;"></line><line x1="438.0000000000021" y1="459.8260701115915" x2="439.00000000000216" y2="459.82839180637575" style="stroke: black; stroke-width: 2px;"></line><line x1="439.00000000000216" y1="459.82839180637575" x2="440.00000000000216" y2="459.83067705791814" style="stroke: black; stroke-width: 2px;"></line><line x1="440.00000000000216" y1="459.83067705791814" x2="441.00000000000216" y2="459.8329265228529" style="stroke: black; stroke-width: 2px;"></line><line x1="441.00000000000216" y1="459.8329265228529" x2="442.00000000000216" y2="459.835140844478" style="stroke: black; stroke-width: 2px;"></line><line x1="442.00000000000216" y1="459.835140844478" x2="443.00000000000216" y2="459.8373206530559" style="stroke: black; stroke-width: 2px;"></line><line x1="443.00000000000216" y1="459.8373206530559" x2="444.00000000000216" y2="459.83946656610726" style="stroke: black; stroke-width: 2px;"></line><line x1="444.00000000000216" y1="459.83946656610726" x2="445.00000000000216" y2="459.8415791886973" style="stroke: black; stroke-width: 2px;"></line><line x1="445.00000000000216" y1="459.8415791886973" x2="446.0000000000022" y2="459.84365911371486" style="stroke: black; stroke-width: 2px;"></line><line x1="446.0000000000022" y1="459.84365911371486" x2="447.0000000000022" y2="459.8457069221448" style="stroke: black; stroke-width: 2px;"></line><line x1="447.0000000000022" y1="459.8457069221448" x2="448.0000000000022" y2="459.8477231833338" style="stroke: black; stroke-width: 2px;"></line><line x1="448.0000000000022" y1="459.8477231833338" x2="449.0000000000023" y2="459.8497084552493" style="stroke: black; stroke-width: 2px;"></line><line x1="449.0000000000023" y1="459.8497084552493" x2="450.0000000000023" y2="459.85166328473224" style="stroke: black; stroke-width: 2px;"></line><line x1="450.0000000000023" y1="459.85166328473224" x2="451.0000000000023" y2="459.8535882077441" style="stroke: black; stroke-width: 2px;"></line><line x1="451.0000000000023" y1="459.8535882077441" x2="452.00000000000233" y2="459.855483749607" style="stroke: black; stroke-width: 2px;"></line><line x1="452.00000000000233" y1="459.855483749607" x2="453.00000000000233" y2="459.8573504252389" style="stroke: black; stroke-width: 2px;"></line><line x1="453.00000000000233" y1="459.8573504252389" x2="454.00000000000233" y2="459.8591887393823" style="stroke: black; stroke-width: 2px;"></line><line x1="454.00000000000233" y1="459.8591887393823" x2="455.0000000000024" y2="459.8609991868281" style="stroke: black; stroke-width: 2px;"></line><line x1="455.0000000000024" y1="459.8609991868281" x2="456.0000000000024" y2="459.86278225263356" style="stroke: black; stroke-width: 2px;"></line><line x1="456.0000000000024" y1="459.86278225263356" x2="457.0000000000024" y2="459.8645384123352" style="stroke: black; stroke-width: 2px;"></line><line x1="457.0000000000024" y1="459.8645384123352" x2="458.0000000000024" y2="459.8662681321566" style="stroke: black; stroke-width: 2px;"></line><line x1="458.0000000000024" y1="459.8662681321566" x2="459.0000000000024" y2="459.8679718692112" style="stroke: black; stroke-width: 2px;"></line><line x1="459.0000000000024" y1="459.8679718692112" x2="460.0000000000024" y2="459.8696500717001" style="stroke: black; stroke-width: 2px;"></line><line x1="460.0000000000024" y1="459.8696500717001" x2="461.0000000000024" y2="459.87130317910544" style="stroke: black; stroke-width: 2px;"></line><line x1="461.0000000000024" y1="459.87130317910544" x2="462.00000000000244" y2="459.87293162237876" style="stroke: black; stroke-width: 2px;"></line><line x1="462.00000000000244" y1="459.87293162237876" x2="463.00000000000244" y2="459.8745358241255" style="stroke: black; stroke-width: 2px;"></line><line x1="463.00000000000244" y1="459.8745358241255" x2="464.00000000000244" y2="459.8761161987842" style="stroke: black; stroke-width: 2px;"></line><line x1="464.00000000000244" y1="459.8761161987842" x2="465.0000000000025" y2="459.8776731528025" style="stroke: black; stroke-width: 2px;"></line><line x1="465.0000000000025" y1="459.8776731528025" x2="466.0000000000025" y2="459.8792070848082" style="stroke: black; stroke-width: 2px;"></line><line x1="466.0000000000025" y1="459.8792070848082" x2="467.0000000000025" y2="459.8807183857766" style="stroke: black; stroke-width: 2px;"></line><line x1="467.0000000000025" y1="459.8807183857766" x2="468.00000000000256" y2="459.88220743919396" style="stroke: black; stroke-width: 2px;"></line><line x1="468.00000000000256" y1="459.88220743919396" x2="469.00000000000256" y2="459.8836746212169" style="stroke: black; stroke-width: 2px;"></line><line x1="469.00000000000256" y1="459.8836746212169" x2="470.00000000000256" y2="459.8851203008283" style="stroke: black; stroke-width: 2px;"></line><line x1="470.00000000000256" y1="459.8851203008283" x2="471.0000000000026" y2="459.8865448399893" style="stroke: black; stroke-width: 2px;"></line><line x1="471.0000000000026" y1="459.8865448399893" x2="472.0000000000026" y2="459.8879485937883" style="stroke: black; stroke-width: 2px;"></line><line x1="472.0000000000026" y1="459.8879485937883" x2="473.0000000000026" y2="459.88933191058544" style="stroke: black; stroke-width: 2px;"></line><line x1="473.0000000000026" y1="459.88933191058544" x2="474.0000000000026" y2="459.89069513215514" style="stroke: black; stroke-width: 2px;"></line><line x1="474.0000000000026" y1="459.89069513215514" x2="475.0000000000026" y2="459.892038593824" style="stroke: black; stroke-width: 2px;"></line><line x1="475.0000000000026" y1="459.892038593824" x2="476.0000000000026" y2="459.8933626246063" style="stroke: black; stroke-width: 2px;"></line><line x1="476.0000000000026" y1="459.8933626246063" x2="477.0000000000026" y2="459.8946675473363" style="stroke: black; stroke-width: 2px;"></line><line x1="477.0000000000026" y1="459.8946675473363" x2="478.0000000000027" y2="459.8959536787972" style="stroke: black; stroke-width: 2px;"></line><line x1="478.0000000000027" y1="459.8959536787972" x2="479.0000000000027" y2="459.8972213298472" style="stroke: black; stroke-width: 2px;"></line><line x1="479.0000000000027" y1="459.8972213298472" x2="480.0000000000027" y2="459.89847080554307" style="stroke: black; stroke-width: 2px;"></line><line x1="480.0000000000027" y1="459.89847080554307" x2="481.00000000000273" y2="459.8997024052603" style="stroke: black; stroke-width: 2px;"></line><line x1="481.00000000000273" y1="459.8997024052603" x2="482.00000000000273" y2="459.90091642281106" style="stroke: black; stroke-width: 2px;"></line><line x1="482.00000000000273" y1="459.90091642281106" x2="483.00000000000273" y2="459.9021131465589" style="stroke: black; stroke-width: 2px;"></line><line x1="483.00000000000273" y1="459.9021131465589" x2="484.0000000000028" y2="459.90329285953146" style="stroke: black; stroke-width: 2px;"></line><line x1="484.0000000000028" y1="459.90329285953146" x2="485.0000000000028" y2="459.90445583953004" style="stroke: black; stroke-width: 2px;"></line><line x1="485.0000000000028" y1="459.90445583953004" x2="486.0000000000028" y2="459.9056023592372" style="stroke: black; stroke-width: 2px;"></line><line x1="486.0000000000028" y1="459.9056023592372" x2="487.00000000000284" y2="459.9067326863215" style="stroke: black; stroke-width: 2px;"></line><line x1="487.00000000000284" y1="459.9067326863215" x2="488.00000000000284" y2="459.9078470835403" style="stroke: black; stroke-width: 2px;"></line><line x1="488.00000000000284" y1="459.9078470835403" x2="489.00000000000284" y2="459.90894580883963" style="stroke: black; stroke-width: 2px;"></line><line x1="489.00000000000284" y1="459.90894580883963" x2="490.00000000000284" y2="459.9100291154527" style="stroke: black; stroke-width: 2px;"></line><line x1="490.00000000000284" y1="459.9100291154527" x2="491.00000000000284" y2="459.9110972519952" style="stroke: black; stroke-width: 2px;"></line><line x1="491.00000000000284" y1="459.9110972519952" x2="492.00000000000284" y2="459.91215046255945" style="stroke: black; stroke-width: 2px;"></line><line x1="492.00000000000284" y1="459.91215046255945" x2="493.00000000000284" y2="459.9131889868056" style="stroke: black; stroke-width: 2px;"></line><line x1="493.00000000000284" y1="459.9131889868056" x2="494.0000000000029" y2="459.91421306005145" style="stroke: black; stroke-width: 2px;"></line><line x1="494.0000000000029" y1="459.91421306005145" x2="495.0000000000029" y2="459.9152229133597" style="stroke: black; stroke-width: 2px;"></line><line x1="495.0000000000029" y1="459.9152229133597" x2="496.0000000000029" y2="459.91621877362377" style="stroke: black; stroke-width: 2px;"></line><line x1="496.0000000000029" y1="459.91621877362377" x2="497.00000000000296" y2="459.9172008636516" style="stroke: black; stroke-width: 2px;"></line><line x1="497.00000000000296" y1="459.9172008636516" x2="498.00000000000296" y2="459.9181694022472" style="stroke: black; stroke-width: 2px;"></line><line x1="498.00000000000296" y1="459.9181694022472" x2="499.00000000000296" y2="459.9191246042911" style="stroke: black; stroke-width: 2px;"></line><line x1="499.00000000000296" y1="459.9191246042911" x2="500.000000000003" y2="459.92006668081814" style="stroke: black; stroke-width: 2px;"></line><line x1="109.93543419931214" y1="460" x2="109.93543419931214" y2="398.1889001595586" style="stroke: rgb(0, 85, 255); stroke-width: 2px;"></line><line x1="110.93543419931214" y1="460" x2="110.93543419931214" y2="387.6667526450035" style="stroke: rgb(0, 85, 255); stroke-width: 2px;"></line><line x1="111.93543419931214" y1="460" x2="111.93543419931214" y2="377.51939377675984" style="stroke: rgb(0, 85, 255); stroke-width: 2px;"></line><line x1="112.93543419931214" y1="460" x2="112.93543419931214" y2="367.93232256567785" style="stroke: rgb(0, 85, 255); stroke-width: 2px;"></line><line x1="113.93543419931216" y1="460" x2="113.93543419931216" y2="359.04074909495193" style="stroke: rgb(0, 85, 255); stroke-width: 2px;"></line><line x1="114.93543419931216" y1="460" x2="114.93543419931216" y2="350.9360060139862" style="stroke: rgb(0, 85, 255); stroke-width: 2px;"></line><line x1="115.93543419931216" y1="460" x2="115.93543419931216" y2="343.6724723769186" style="stroke: rgb(0, 85, 255); stroke-width: 2px;"></line><line x1="116.93543419931216" y1="460" x2="116.93543419931216" y2="337.27433102219516" style="stroke: rgb(0, 85, 255); stroke-width: 2px;"></line><line x1="117.93543419931216" y1="460" x2="117.93543419931216" y2="331.74178159287" style="stroke: rgb(0, 85, 255); stroke-width: 2px;"></line><line x1="118.93543419931216" y1="460" x2="118.93543419931216" y2="327.0565279092798" style="stroke: rgb(0, 85, 255); stroke-width: 2px;"></line><line x1="119.93543419931216" y1="460" x2="119.93543419931216" y2="323.18648218674025" style="stroke: rgb(0, 85, 255); stroke-width: 2px;"></line><line x1="120.93543419931216" y1="460" x2="120.93543419931216" y2="320.0897027825701" style="stroke: rgb(0, 85, 255); stroke-width: 2px;"></line><line x1="121.93543419931216" y1="460" x2="121.93543419931216" y2="317.7176233951252" style="stroke: rgb(0, 85, 255); stroke-width: 2px;"></line><line x1="122.93543419931216" y1="460" x2="122.93543419931216" y2="316.01765155292117" style="stroke: rgb(0, 85, 255); stroke-width: 2px;"></line><line x1="123.93543419931216" y1="460" x2="123.93543419931216" y2="314.935220795307" style="stroke: rgb(0, 85, 255); stroke-width: 2px;"></line><line x1="124.93543419931216" y1="460" x2="124.93543419931216" y2="314.41537951886767" style="stroke: rgb(0, 85, 255); stroke-width: 2px;"></line><line x1="125.93543419931216" y1="460" x2="125.93543419931216" y2="314.4039935808636" style="stroke: rgb(0, 85, 255); stroke-width: 2px;"></line><line x1="126.93543419931216" y1="460" x2="126.93543419931216" y2="314.8486316897185" style="stroke: rgb(0, 85, 255); stroke-width: 2px;"></line><line x1="127.93543419931217" y1="460" x2="127.93543419931217" y2="315.69919379649014" style="stroke: rgb(0, 85, 255); stroke-width: 2px;"></line><line x1="128.93543419931217" y1="460" x2="128.93543419931217" y2="316.90833398354846" style="stroke: rgb(0, 85, 255); stroke-width: 2px;"></line><line x1="129.93543419931217" y1="460" x2="129.93543419931217" y2="318.43172120585064" style="stroke: rgb(0, 85, 255); stroke-width: 2px;"></line><line x1="130.93543419931217" y1="460" x2="130.93543419931217" y2="320.22817391381574" style="stroke: rgb(0, 85, 255); stroke-width: 2px;"></line><line x1="131.93543419931217" y1="460" x2="131.93543419931217" y2="322.2596981617125" style="stroke: rgb(0, 85, 255); stroke-width: 2px;"></line><line x1="132.93543419931217" y1="460" x2="132.93543419931217" y2="324.4914532779321" style="stroke: rgb(0, 85, 255); stroke-width: 2px;"></line><line x1="133.93543419931217" y1="460" x2="133.93543419931217" y2="326.8916644886191" style="stroke: rgb(0, 85, 255); stroke-width: 2px;"></line><line x1="134.93543419931217" y1="460" x2="134.93543419931217" y2="329.4314979630989" style="stroke: rgb(0, 85, 255); stroke-width: 2px;"></line><line x1="135.93543419931217" y1="460" x2="135.93543419931217" y2="332.0849104976656" style="stroke: rgb(0, 85, 255); stroke-width: 2px;"></line><line x1="136.93543419931217" y1="460" x2="136.93543419931217" y2="334.8284833824704" style="stroke: rgb(0, 85, 255); stroke-width: 2px;"></line><line x1="137.93543419931217" y1="460" x2="137.93543419931217" y2="337.64124781847715" style="stroke: rgb(0, 85, 255); stroke-width: 2px;"></line><line x1="138.93543419931217" y1="460" x2="138.93543419931217" y2="340.50450748961634" style="stroke: rgb(0, 85, 255); stroke-width: 2px;"></line><line x1="139.93543419931217" y1="460" x2="139.93543419931217" y2="343.40166248025406" style="stroke: rgb(0, 85, 255); stroke-width: 2px;"></line><line x1="140.93543419931217" y1="460" x2="140.93543419931217" y2="346.3180375999868" style="stroke: rgb(0, 85, 255); stroke-width: 2px;"></line><line x1="141.93543419931217" y1="460" x2="141.93543419931217" y2="349.24071728527844" style="stroke: rgb(0, 85, 255); stroke-width: 2px;"></line><line x1="142.93543419931217" y1="460" x2="142.93543419931217" y2="352.1583885472851" style="stroke: rgb(0, 85, 255); stroke-width: 2px;"></line><line x1="143.93543419931217" y1="460" x2="143.93543419931217" y2="355.0611928910581" style="stroke: rgb(0, 85, 255); stroke-width: 2px;"></line><line x1="144.93543419931217" y1="460" x2="144.93543419931217" y2="357.94058771302366" style="stroke: rgb(0, 85, 255); stroke-width: 2px;"></line><line x1="145.93543419931217" y1="460" x2="145.93543419931217" y2="360.78921736632003" style="stroke: rgb(0, 85, 255); stroke-width: 2px;"></line><line x1="146.93543419931217" y1="460" x2="146.93543419931217" y2="363.60079384678244" style="stroke: rgb(0, 85, 255); stroke-width: 2px;"></line><line x1="147.93543419931214" y1="460" x2="147.93543419931214" y2="366.36998687940815" style="stroke: rgb(0, 85, 255); stroke-width: 2px;"></line><line x1="148.93543419931214" y1="460" x2="148.93543419931214" y2="369.0923230624519" style="stroke: rgb(0, 85, 255); stroke-width: 2px;"></line><line x1="149.93543419931214" y1="460" x2="149.93543419931214" y2="371.7640936429041" style="stroke: rgb(0, 85, 255); stroke-width: 2px;"></line><line x1="150.93543419931214" y1="460" x2="150.93543419931214" y2="374.3822704441554" style="stroke: rgb(0, 85, 255); stroke-width: 2px;"></line><line x1="151.93543419931214" y1="460" x2="151.93543419931214" y2="376.9444294370555" style="stroke: rgb(0, 85, 255); stroke-width: 2px;"></line><line x1="152.93543419931214" y1="460" x2="152.93543419931214" y2="379.4486814336675" style="stroke: rgb(0, 85, 255); stroke-width: 2px;"></line><line x1="153.9354341993121" y1="460" x2="153.9354341993121" y2="381.8936093843153" style="stroke: rgb(0, 85, 255); stroke-width: 2px;"></line><line x1="154.9354341993121" y1="460" x2="154.9354341993121" y2="384.2782117694448" style="stroke: rgb(0, 85, 255); stroke-width: 2px;"></line><line x1="155.9354341993121" y1="460" x2="155.9354341993121" y2="386.60185159560484" style="stroke: rgb(0, 85, 255); stroke-width: 2px;"></line><line x1="156.9354341993121" y1="460" x2="156.9354341993121" y2="388.86421052730884" style="stroke: rgb(0, 85, 255); stroke-width: 2px;"></line><line x1="157.9354341993121" y1="460" x2="157.9354341993121" y2="391.06524771197707" style="stroke: rgb(0, 85, 255); stroke-width: 2px;"></line><line x1="158.9354341993121" y1="460" x2="158.9354341993121" y2="393.2051628823046" style="stroke: rgb(0, 85, 255); stroke-width: 2px;"></line><line x1="159.9354341993121" y1="460" x2="159.9354341993121" y2="395.28436334826165" style="stroke: rgb(0, 85, 255); stroke-width: 2px;"></line><line x1="160.9354341993121" y1="460" x2="160.9354341993121" y2="397.3034345187885" style="stroke: rgb(0, 85, 255); stroke-width: 2px;"></line><line x1="161.9354341993121" y1="460" x2="161.9354341993121" y2="399.2631136205646" style="stroke: rgb(0, 85, 255); stroke-width: 2px;"></line><line x1="162.93543419931208" y1="460" x2="162.93543419931208" y2="401.1642663076248" style="stroke: rgb(0, 85, 255); stroke-width: 2px;"></line><line x1="163.93543419931208" y1="460" x2="163.93543419931208" y2="403.007865880814" style="stroke: rgb(0, 85, 255); stroke-width: 2px;"></line><line x1="164.93543419931208" y1="460" x2="164.93543419931208" y2="404.79497485994136" style="stroke: rgb(0, 85, 255); stroke-width: 2px;"></line><line x1="165.93543419931208" y1="460" x2="165.93543419931208" y2="406.52672867392164" style="stroke: rgb(0, 85, 255); stroke-width: 2px;"></line><line x1="166.93543419931208" y1="460" x2="166.93543419931208" y2="408.20432125513173" style="stroke: rgb(0, 85, 255); stroke-width: 2px;"></line><line x1="167.93543419931208" y1="460" x2="167.93543419931208" y2="409.8289923436653" style="stroke: rgb(0, 85, 255); stroke-width: 2px;"></line><line x1="168.93543419931208" y1="460" x2="168.93543419931208" y2="411.40201632515635" style="stroke: rgb(0, 85, 255); stroke-width: 2px;"></line><line x1="169.93543419931206" y1="460" x2="169.93543419931206" y2="412.9246924424224" style="stroke: rgb(0, 85, 255); stroke-width: 2px;"></line><line x1="170.93543419931206" y1="460" x2="170.93543419931206" y2="414.3983362363972" style="stroke: rgb(0, 85, 255); stroke-width: 2px;"></line><line x1="171.93543419931206" y1="460" x2="171.93543419931206" y2="415.82427208577235" style="stroke: rgb(0, 85, 255); stroke-width: 2px;"></line><line x1="172.93543419931206" y1="460" x2="172.93543419931206" y2="417.2038267274957" style="stroke: rgb(0, 85, 255); stroke-width: 2px;"></line><line x1="173.93543419931206" y1="460" x2="173.93543419931206" y2="418.53832365189743" style="stroke: rgb(0, 85, 255); stroke-width: 2px;"></line><line x1="174.93543419931206" y1="460" x2="174.93543419931206" y2="419.8290782767698" style="stroke: rgb(0, 85, 255); stroke-width: 2px;"></line><line x1="175.93543419931206" y1="460" x2="175.93543419931206" y2="421.0773938143335" style="stroke: rgb(0, 85, 255); stroke-width: 2px;"></line><line x1="176.93543419931206" y1="460" x2="176.93543419931206" y2="422.2845577537226" style="stroke: rgb(0, 85, 255); stroke-width: 2px;"></line><line x1="177.93543419931206" y1="460" x2="177.93543419931206" y2="423.45183888950584" style="stroke: rgb(0, 85, 255); stroke-width: 2px;"></line><line x1="178.93543419931203" y1="460" x2="178.93543419931203" y2="424.5804848339006" style="stroke: rgb(0, 85, 255); stroke-width: 2px;"></line><line x1="179.93543419931203" y1="460" x2="179.93543419931203" y2="425.6717199567735" style="stroke: rgb(0, 85, 255); stroke-width: 2px;"></line><line x1="180.93543419931203" y1="460" x2="180.93543419931203" y2="426.72674370335096" style="stroke: rgb(0, 85, 255); stroke-width: 2px;"></line><line x1="181.93543419931203" y1="460" x2="181.93543419931203" y2="427.7467292448041" style="stroke: rgb(0, 85, 255); stroke-width: 2px;"></line><line x1="182.93543419931203" y1="460" x2="182.93543419931203" y2="428.7328224216094" style="stroke: rgb(0, 85, 255); stroke-width: 2px;"></line><line x1="183.93543419931203" y1="460" x2="183.93543419931203" y2="429.6861409438432" style="stroke: rgb(0, 85, 255); stroke-width: 2px;"></line><line x1="184.93543419931203" y1="460" x2="184.93543419931203" y2="430.60777381640384" style="stroke: rgb(0, 85, 255); stroke-width: 2px;"></line><line x1="185.935434199312" y1="460" x2="185.935434199312" y2="431.4987809606012" style="stroke: rgb(0, 85, 255); stroke-width: 2px;"></line><line x1="186.935434199312" y1="460" x2="186.935434199312" y2="432.3601930066533" style="stroke: rgb(0, 85, 255); stroke-width: 2px;"></line><line x1="187.935434199312" y1="460" x2="187.935434199312" y2="433.19301123441136" style="stroke: rgb(0, 85, 255); stroke-width: 2px;"></line><line x1="188.935434199312" y1="460" x2="188.935434199312" y2="433.99820764213297" style="stroke: rgb(0, 85, 255); stroke-width: 2px;"></line><line x1="189.935434199312" y1="460" x2="189.935434199312" y2="434.7767251253638" style="stroke: rgb(0, 85, 255); stroke-width: 2px;"></line><line x1="190.935434199312" y1="460" x2="190.935434199312" y2="435.5294777499981" style="stroke: rgb(0, 85, 255); stroke-width: 2px;"></line><line x1="191.935434199312" y1="460" x2="191.935434199312" y2="436.25735110538756" style="stroke: rgb(0, 85, 255); stroke-width: 2px;"></line><line x1="192.935434199312" y1="460" x2="192.935434199312" y2="436.96120272498223" style="stroke: rgb(0, 85, 255); stroke-width: 2px;"></line><line x1="193.935434199312" y1="460" x2="193.935434199312" y2="437.64186256343" style="stroke: rgb(0, 85, 255); stroke-width: 2px;"></line><line x1="194.93543419931197" y1="460" x2="194.93543419931197" y2="438.3001335203524" style="stroke: rgb(0, 85, 255); stroke-width: 2px;"></line><line x1="195.93543419931197" y1="460" x2="195.93543419931197" y2="438.9367920021698" style="stroke: rgb(0, 85, 255); stroke-width: 2px;"></line><line x1="196.93543419931197" y1="460" x2="196.93543419931197" y2="439.55258851438174" style="stroke: rgb(0, 85, 255); stroke-width: 2px;"></line><line x1="197.93543419931197" y1="460" x2="197.93543419931197" y2="440.1482482776275" style="stroke: rgb(0, 85, 255); stroke-width: 2px;"></line><line x1="198.93543419931197" y1="460" x2="198.93543419931197" y2="440.72447186167676" style="stroke: rgb(0, 85, 255); stroke-width: 2px;"></line><line x1="199.93543419931197" y1="460" x2="199.93543419931197" y2="441.28193583223384" style="stroke: rgb(0, 85, 255); stroke-width: 2px;"></line><line x1="200.93543419931197" y1="460" x2="200.93543419931197" y2="441.82129340609043" style="stroke: rgb(0, 85, 255); stroke-width: 2px;"></line><line x1="201.93543419931194" y1="460" x2="201.93543419931194" y2="442.3431751107475" style="stroke: rgb(0, 85, 255); stroke-width: 2px;"></line><line x1="202.93543419931194" y1="460" x2="202.93543419931194" y2="442.848189445143" style="stroke: rgb(0, 85, 255); stroke-width: 2px;"></line><line x1="203.93543419931194" y1="460" x2="203.93543419931194" y2="443.33692353858265" style="stroke: rgb(0, 85, 255); stroke-width: 2px;"></line><line x1="204.93543419931194" y1="460" x2="204.93543419931194" y2="443.80994380538243" style="stroke: rgb(0, 85, 255); stroke-width: 2px;"></line><line x1="205.93543419931194" y1="460" x2="205.93543419931194" y2="444.2677965930922" style="stroke: rgb(0, 85, 255); stroke-width: 2px;"></line><line x1="206.93543419931194" y1="460" x2="206.93543419931194" y2="444.7110088224937" style="stroke: rgb(0, 85, 255); stroke-width: 2px;"></line><line x1="207.93543419931194" y1="460" x2="207.93543419931194" y2="445.1400886178492" style="stroke: rgb(0, 85, 255); stroke-width: 2px;"></line><line x1="208.93543419931194" y1="460" x2="208.93543419931194" y2="445.5555259261314" style="stroke: rgb(0, 85, 255); stroke-width: 2px;"></line><line x1="209.93543419931194" y1="460" x2="209.93543419931194" y2="445.95779312418586" style="stroke: rgb(0, 85, 255); stroke-width: 2px;"></line><line x1="210.93543419931194" y1="460" x2="210.93543419931194" y2="446.34734561297364" style="stroke: rgb(0, 85, 255); stroke-width: 2px;"></line><line x1="211.93543419931194" y1="460" x2="211.93543419931194" y2="446.7246223982155" style="stroke: rgb(0, 85, 255); stroke-width: 2px;"></line><line x1="212.9354341993119" y1="460" x2="212.9354341993119" y2="447.0900466569087" style="stroke: rgb(0, 85, 255); stroke-width: 2px;"></line><line x1="213.9354341993119" y1="460" x2="213.9354341993119" y2="447.44402628932227" style="stroke: rgb(0, 85, 255); stroke-width: 2px;"></line><line x1="214.9354341993119" y1="460" x2="214.9354341993119" y2="447.7869544561901" style="stroke: rgb(0, 85, 255); stroke-width: 2px;"></line><line x1="215.9354341993119" y1="460" x2="215.9354341993119" y2="448.11921010092567" style="stroke: rgb(0, 85, 255); stroke-width: 2px;"></line><line x1="216.9354341993119" y1="460" x2="216.9354341993119" y2="448.44115845676674" style="stroke: rgb(0, 85, 255); stroke-width: 2px;"></line><line x1="217.9354341993119" y1="460" x2="217.9354341993119" y2="448.7531515388368" style="stroke: rgb(0, 85, 255); stroke-width: 2px;"></line><line x1="218.93543419931189" y1="460" x2="218.93543419931189" y2="449.0555286211742" style="stroke: rgb(0, 85, 255); stroke-width: 2px;"></line><line x1="219.93543419931189" y1="460" x2="219.93543419931189" y2="449.34861669883736" style="stroke: rgb(0, 85, 255); stroke-width: 2px;"></line><line x1="220.93543419931189" y1="460" x2="220.93543419931189" y2="449.63273093524197" style="stroke: rgb(0, 85, 255); stroke-width: 2px;"></line><line x1="221.93543419931189" y1="460" x2="221.93543419931189" y2="449.90817509492547" style="stroke: rgb(0, 85, 255); stroke-width: 2px;"></line><line x1="222.93543419931189" y1="460" x2="222.93543419931189" y2="450.17524196197155" style="stroke: rgb(0, 85, 255); stroke-width: 2px;"></line><line x1="223.93543419931189" y1="460" x2="223.93543419931189" y2="450.43421374435206" style="stroke: rgb(0, 85, 255); stroke-width: 2px;"></line><line x1="224.93543419931189" y1="460" x2="224.93543419931189" y2="450.6853624644702" style="stroke: rgb(0, 85, 255); stroke-width: 2px;"></line><line x1="225.93543419931186" y1="460" x2="225.93543419931186" y2="450.9289503362061" style="stroke: rgb(0, 85, 255); stroke-width: 2px;"></line><line x1="226.93543419931186" y1="460" x2="226.93543419931186" y2="451.1652301287818" style="stroke: rgb(0, 85, 255); stroke-width: 2px;"></line><line x1="227.93543419931186" y1="460" x2="227.93543419931186" y2="451.39444551777314" style="stroke: rgb(0, 85, 255); stroke-width: 2px;"></line><line x1="228.93543419931186" y1="460" x2="228.93543419931186" y2="451.61683142360744" style="stroke: rgb(0, 85, 255); stroke-width: 2px;"></line><line x1="229.93543419931186" y1="460" x2="229.93543419931186" y2="451.8326143378872" style="stroke: rgb(0, 85, 255); stroke-width: 2px;"></line><line x1="230.93543419931186" y1="460" x2="230.93543419931186" y2="452.0420126378892" style="stroke: rgb(0, 85, 255); stroke-width: 2px;"></line><line x1="231.93543419931183" y1="460" x2="231.93543419931183" y2="452.24523688958465" style="stroke: rgb(0, 85, 255); stroke-width: 2px;"></line><line x1="232.93543419931183" y1="460" x2="232.93543419931183" y2="452.44249013953123" style="stroke: rgb(0, 85, 255); stroke-width: 2px;"></line><line x1="233.93543419931183" y1="460" x2="233.93543419931183" y2="452.6339681959817" style="stroke: rgb(0, 85, 255); stroke-width: 2px;"></line><line x1="234.93543419931183" y1="460" x2="234.93543419931183" y2="452.81985989955433" style="stroke: rgb(0, 85, 255); stroke-width: 2px;"></line><line x1="235.93543419931183" y1="460" x2="235.93543419931183" y2="453.00034738380475" style="stroke: rgb(0, 85, 255); stroke-width: 2px;"></line><line x1="236.93543419931183" y1="460" x2="236.93543419931183" y2="453.1756063260348" style="stroke: rgb(0, 85, 255); stroke-width: 2px;"></line><line x1="237.93543419931183" y1="460" x2="237.93543419931183" y2="453.3458061886682" style="stroke: rgb(0, 85, 255); stroke-width: 2px;"></line><line x1="238.93543419931183" y1="460" x2="238.93543419931183" y2="453.51111045151623" style="stroke: rgb(0, 85, 255); stroke-width: 2px;"></line><line x1="239.93543419931183" y1="460" x2="239.93543419931183" y2="453.67167683525133" style="stroke: rgb(0, 85, 255); stroke-width: 2px;"></line><line x1="240.93543419931183" y1="460" x2="240.93543419931183" y2="453.8276575163971" style="stroke: rgb(0, 85, 255); stroke-width: 2px;"></line><line x1="241.93543419931183" y1="460" x2="241.93543419931183" y2="453.9791993341383" style="stroke: rgb(0, 85, 255); stroke-width: 2px;"></line><line x1="242.93543419931183" y1="460" x2="242.93543419931183" y2="454.12644398924454" style="stroke: rgb(0, 85, 255); stroke-width: 2px;"></line><line x1="243.93543419931183" y1="460" x2="243.93543419931183" y2="454.26952823539506" style="stroke: rgb(0, 85, 255); stroke-width: 2px;"></line><line x1="244.9354341993118" y1="460" x2="244.9354341993118" y2="454.4085840631829" style="stroke: rgb(0, 85, 255); stroke-width: 2px;"></line><line x1="245.9354341993118" y1="460" x2="245.9354341993118" y2="454.54373887706885" style="stroke: rgb(0, 85, 255); stroke-width: 2px;"></line><line x1="246.9354341993118" y1="460" x2="246.9354341993118" y2="454.67511566554873" style="stroke: rgb(0, 85, 255); stroke-width: 2px;"></line><line x1="247.9354341993118" y1="460" x2="247.9354341993118" y2="454.8028331647866" style="stroke: rgb(0, 85, 255); stroke-width: 2px;"></line><line x1="248.9354341993118" y1="460" x2="248.9354341993118" y2="454.9270060159622" style="stroke: rgb(0, 85, 255); stroke-width: 2px;"></line><line x1="249.9354341993118" y1="460" x2="249.9354341993118" y2="455.04774491656906" style="stroke: rgb(0, 85, 255); stroke-width: 2px;"></line><line x1="250.93543419931177" y1="460" x2="250.93543419931177" y2="455.16515676589506" style="stroke: rgb(0, 85, 255); stroke-width: 2px;"></line><line x1="251.93543419931177" y1="460" x2="251.93543419931177" y2="455.2793448049069" style="stroke: rgb(0, 85, 255); stroke-width: 2px;"></line><line x1="252.93543419931177" y1="460" x2="252.93543419931177" y2="455.39040875075455" style="stroke: rgb(0, 85, 255); stroke-width: 2px;"></line><line x1="253.93543419931177" y1="460" x2="253.93543419931177" y2="455.498444926102" style="stroke: rgb(0, 85, 255); stroke-width: 2px;"></line><line x1="254.93543419931177" y1="460" x2="254.93543419931177" y2="455.60354638348525" style="stroke: rgb(0, 85, 255); stroke-width: 2px;"></line><line x1="255.93543419931177" y1="460" x2="255.93543419931177" y2="455.70580302488986" style="stroke: rgb(0, 85, 255); stroke-width: 2px;"></line><line x1="256.93543419931177" y1="460" x2="256.93543419931177" y2="455.80530171673433" style="stroke: rgb(0, 85, 255); stroke-width: 2px;"></line><line x1="257.93543419931177" y1="460" x2="257.93543419931177" y2="455.90212640043853" style="stroke: rgb(0, 85, 255); stroke-width: 2px;"></line><line x1="258.93543419931177" y1="460" x2="258.93543419931177" y2="455.9963581987489" style="stroke: rgb(0, 85, 255); stroke-width: 2px;"></line><line x1="259.93543419931177" y1="460" x2="259.93543419931177" y2="456.08807551798753" style="stroke: rgb(0, 85, 255); stroke-width: 2px;"></line><line x1="260.93543419931177" y1="460" x2="260.93543419931177" y2="456.177354146384" style="stroke: rgb(0, 85, 255); stroke-width: 2px;"></line><line x1="109.93543419931214" y1="460" x2="109.93543419931214" y2="480" style="stroke: rgb(0, 85, 255); stroke-width: 2px;"></line><line x1="261.0397661443696" y1="460" x2="261.0397661443696" y2="480" style="stroke: rgb(0, 85, 255); stroke-width: 2px;"></line><text x="109.93543419931214" y="500" style="stroke: rgb(0, 85, 255); font-size: 9pt; font-family: sans-serif; text-anchor: middle;">0.248</text><text x="261.0397661443696" y="500" style="stroke: rgb(0, 85, 255); font-size: 9pt; font-family: sans-serif; text-anchor: middle;">4.026</text><text x="185.48760017184088" y="490" style="stroke: rgb(0, 85, 255); font-size: 9pt; font-family: sans-serif; text-anchor: middle;">&lt;- Accept H₀ -&gt;</text><text x="49.93543419931214" y="490" style="stroke: red; font-size: 9pt; font-family: sans-serif; text-anchor: middle;">Reject H₀ -&gt;</text><text x="321.0397661443696" y="490" style="stroke: red; font-size: 9pt; font-family: sans-serif; text-anchor: middle;">&lt;- Reject H₀</text><text x="69.93543419931214" y="430" style="stroke: red; font-size: 9pt; font-family: sans-serif; text-anchor: middle;">0.025</text><text x="306.0397661443696" y="430" style="stroke: red; font-size: 9pt; font-family: sans-serif; text-anchor: middle;">0.025</text><line x1="152.37909572701412" y1="460" x2="152.37909572701412" y2="510" style="stroke-width: 2px; stroke: green;"></line><text x="152.37909572701412" y="520" style="stroke: green; font-size: 9pt; font-family: sans-serif; text-anchor: middle;">Fo = 1.31, p-value = 0.6945</text><text x="300" y="535" style="stroke: rgb(0, 85, 255); font-size: 9pt; font-family: sans-serif; text-anchor: middle;">[Decision] Accept H₀</text></svg>