<svg xmlns="http://www.w3.org/2000/svg" id="SVG" width="600" height="560" xlink="http://www.w3.org/1999/xlink"><text x="290" y="50" style="font-size: 17px; font-family: sans-seirf; stroke: black; text-anchor: middle;">(Group  Gender)  Marital  Bar Graph</text><text x="290" y="530" style="font-size: 12px; font-family: sans-seirf; stroke: black; text-anchor: middle;">Marital</text><text x="10" y="95" transform="rotate(-90 30 100)" style="font-size: 12px; font-family: sans-seirf; stroke: black; text-anchor: end;">Frequency</text><g transform="translate(80,80)" fill="none" font-size="10" font-family="sans-serif" text-anchor="end"><path class="domain" stroke="#000" d="M-6,200.5H0.5V0.5H-6"></path><g class="tick" opacity="1" transform="translate(0,200.5)"><line stroke="#000" x2="-6"></line><text fill="#000" x="-9" dy="0.32em">0.0</text></g><g class="tick" opacity="1" transform="translate(0,180.5)"><line stroke="#000" x2="-6"></line><text fill="#000" x="-9" dy="0.32em">0.5</text></g><g class="tick" opacity="1" transform="translate(0,160.5)"><line stroke="#000" x2="-6"></line><text fill="#000" x="-9" dy="0.32em">1.0</text></g><g class="tick" opacity="1" transform="translate(0,140.5)"><line stroke="#000" x2="-6"></line><text fill="#000" x="-9" dy="0.32em">1.5</text></g><g class="tick" opacity="1" transform="translate(0,120.5)"><line stroke="#000" x2="-6"></line><text fill="#000" x="-9" dy="0.32em">2.0</text></g><g class="tick" opacity="1" transform="translate(0,100.5)"><line stroke="#000" x2="-6"></line><text fill="#000" x="-9" dy="0.32em">2.5</text></g><g class="tick" opacity="1" transform="translate(0,80.5)"><line stroke="#000" x2="-6"></line><text fill="#000" x="-9" dy="0.32em">3.0</text></g><g class="tick" opacity="1" transform="translate(0,60.5)"><line stroke="#000" x2="-6"></line><text fill="#000" x="-9" dy="0.32em">3.5</text></g><g class="tick" opacity="1" transform="translate(0,40.5)"><line stroke="#000" x2="-6"></line><text fill="#000" x="-9" dy="0.32em">4.0</text></g><g class="tick" opacity="1" transform="translate(0,20.5)"><line stroke="#000" x2="-6"></line><text fill="#000" x="-9" dy="0.32em">4.5</text></g><g class="tick" opacity="1" transform="translate(0,0.5)"><line stroke="#000" x2="-6"></line><text fill="#000" x="-9" dy="0.32em">5.0</text></g></g><g transform="translate(80,295)" fill="none" font-size="10" font-family="sans-serif" text-anchor="end"><path class="domain" stroke="#000" d="M-6,200.5H0.5V0.5H-6"></path><g class="tick" opacity="1" transform="translate(0,200.5)"><line stroke="#000" x2="-6"></line><text fill="#000" x="-9" dy="0.32em">5.0</text></g><g class="tick" opacity="1" transform="translate(0,180.5)"><line stroke="#000" x2="-6"></line><text fill="#000" x="-9" dy="0.32em">4.5</text></g><g class="tick" opacity="1" transform="translate(0,160.5)"><line stroke="#000" x2="-6"></line><text fill="#000" x="-9" dy="0.32em">4.0</text></g><g class="tick" opacity="1" transform="translate(0,140.5)"><line stroke="#000" x2="-6"></line><text fill="#000" x="-9" dy="0.32em">3.5</text></g><g class="tick" opacity="1" transform="translate(0,120.5)"><line stroke="#000" x2="-6"></line><text fill="#000" x="-9" dy="0.32em">3.0</text></g><g class="tick" opacity="1" transform="translate(0,100.5)"><line stroke="#000" x2="-6"></line><text fill="#000" x="-9" dy="0.32em">2.5</text></g><g class="tick" opacity="1" transform="translate(0,80.5)"><line stroke="#000" x2="-6"></line><text fill="#000" x="-9" dy="0.32em">2.0</text></g><g class="tick" opacity="1" transform="translate(0,60.5)"><line stroke="#000" x2="-6"></line><text fill="#000" x="-9" dy="0.32em">1.5</text></g><g class="tick" opacity="1" transform="translate(0,40.5)"><line stroke="#000" x2="-6"></line><text fill="#000" x="-9" dy="0.32em">1.0</text></g><g class="tick" opacity="1" transform="translate(0,20.5)"><line stroke="#000" x2="-6"></line><text fill="#000" x="-9" dy="0.32em">0.5</text></g><g class="tick" opacity="1" transform="translate(0,0.5)"><line stroke="#000" x2="-6"></line><text fill="#000" x="-9" dy="0.32em">0.0</text></g></g><text x="150" y="295" transform="rotate(0,150,295)  " style="text-anchor: middle; font-family: sans-serif; font-size: 8pt;">1</text><text x="290" y="295" transform="rotate(0,290,295)  " style="text-anchor: middle; font-family: sans-serif; font-size: 8pt;">2</text><text x="430" y="295" transform="rotate(0,430,295)  " style="text-anchor: middle; font-family: sans-serif; font-size: 8pt;">3</text><line x1="80" x2="80" y1="80" y2="280" style="stroke: black;"></line><line x1="80" x2="80" y1="305" y2="505" style="stroke: black;"></line><line x1="80" x2="500" y1="80" y2="80" style="stroke: black;"></line><line x1="80" x2="500" y1="280" y2="280" style="stroke: black;"></line><line x1="80" x2="500" y1="305" y2="305" style="stroke: black;"></line><line x1="80" x2="500" y1="505" y2="505" style="stroke: black;"></line><line x1="500" x2="500" y1="80" y2="280" style="stroke: black;"></line><line x1="500" x2="500" y1="305" y2="505" style="stroke: black;"></line><rect x="515" y="175" width="8" height="8" style="fill: rgb(0, 85, 255);"></rect><text x="530" y="185" style="font-size: 12px; font-family: sans-seirf; stroke: rgb(0, 85, 255); text-anchor: start;">Group 1</text><rect class="bar" height="160" width="84" x="108" y="120" style="fill: rgb(0, 85, 255);"></rect><rect class="bar" height="40" width="84" x="248" y="240" style="fill: rgb(0, 85, 255);"></rect><rect class="bar" height="40" width="84" x="388" y="240" style="fill: rgb(0, 85, 255);"></rect><rect x="515" y="400" width="8" height="8" style="fill: rgb(255, 69, 0);"></rect><text x="530" y="410" style="font-size: 12px; font-family: sans-seirf; stroke: rgb(255, 69, 0); text-anchor: start;">Group 2</text><rect class="bar" height="80" width="84" x="108" y="305" style="fill: rgb(255, 69, 0);"></rect><rect class="bar" height="80" width="84" x="248" y="305" style="fill: rgb(255, 69, 0);"></rect><rect class="bar" height="0" width="84" x="388" y="305" style="fill: rgb(255, 69, 0);"></rect></svg>