<svg xmlns="http://www.w3.org/2000/svg" id="SVG" width="600" height="560"><text x="290" y="50" style="font-size: 17px; font-family: sans-seirf; stroke: black; text-anchor: middle;">Quiz  Dot Graph</text><text x="290" y="530" style="font-size: 12px; font-family: sans-seirf; stroke: black; text-anchor: middle;">Quiz</text><text x="520" y="280" style="font-size: 12px; font-family: sans-seirf; stroke: rgb(0, 85, 255); text-anchor: start;"></text><line x1="80" x2="500" y1="80" y2="80" style="stroke: black;"></line><g transform="translate(80,480)" fill="none" font-size="10" font-family="sans-serif" text-anchor="middle"><path class="domain" stroke="#000" d="M0.5,6V0.5H420.5V6"></path><g class="tick" opacity="1" transform="translate(35.50000000000001,0)"><line stroke="#000" y2="6"></line><text fill="#000" y="9" dy="0.71em">3</text></g><g class="tick" opacity="1" transform="translate(93.83333333333336,0)"><line stroke="#000" y2="6"></line><text fill="#000" y="9" dy="0.71em">4</text></g><g class="tick" opacity="1" transform="translate(152.16666666666669,0)"><line stroke="#000" y2="6"></line><text fill="#000" y="9" dy="0.71em">5</text></g><g class="tick" opacity="1" transform="translate(210.50000000000006,0)"><line stroke="#000" y2="6"></line><text fill="#000" y="9" dy="0.71em">6</text></g><g class="tick" opacity="1" transform="translate(268.83333333333337,0)"><line stroke="#000" y2="6"></line><text fill="#000" y="9" dy="0.71em">7</text></g><g class="tick" opacity="1" transform="translate(327.1666666666667,0)"><line stroke="#000" y2="6"></line><text fill="#000" y="9" dy="0.71em">8</text></g><g class="tick" opacity="1" transform="translate(385.50000000000006,0)"><line stroke="#000" y2="6"></line><text fill="#000" y="9" dy="0.71em">9</text></g></g><line x1="80" x2="80" y1="80" y2="480" style="stroke: black;"></line><line x1="500" x2="500" y1="80" y2="480" style="stroke: black;"></line><circle class="circle" tooltip="circle" stroke="black" cx="115" cy="472" r="4" style="fill: rgb(0, 85, 255);"></circle><circle class="circle" tooltip="circle" stroke="black" cx="173.33333333333334" cy="472" r="4" style="fill: rgb(0, 85, 255);"></circle><circle class="circle" tooltip="circle" stroke="black" cx="231.66666666666669" cy="472" r="4" style="fill: rgb(0, 85, 255);"></circle><circle class="circle" tooltip="circle" stroke="black" cx="290" cy="472" r="4" style="fill: rgb(0, 85, 255);"></circle><circle class="circle" tooltip="circle" stroke="black" cx="348.3333333333333" cy="472" r="4" style="fill: rgb(0, 85, 255);"></circle><circle class="circle" tooltip="circle" stroke="black" cx="406.6666666666667" cy="472" r="4" style="fill: rgb(0, 85, 255);"></circle><circle class="circle" tooltip="circle" stroke="black" cx="465.00000000000006" cy="472" r="4" style="fill: rgb(0, 85, 255);"></circle><line class="mean" x1="290" y1="85" x2="290" y2="480" style="stroke: rgb(255, 69, 0);"></line><text class="mean" x="295" y="280" style="text-anchor: start; font-size: 9px; font-family: sans-serif; stroke: rgb(255, 69, 0);">x̄=6.00</text><text class="mean" x="485" y="95" style="text-anchor: end; font-size: 9px; font-family: sans-serif; stroke: rgb(0, 85, 255);">n=7</text><text class="mean" x="490" y="110" style="text-anchor: end; font-size: 9px; font-family: sans-serif; stroke: rgb(0, 85, 255);">s=2.16</text><circle class="std" cx="290" cy="285" r="1" style="fill: green;"></circle><line class="std" x1="163.98559753095827" y1="285" x2="290" y2="285" style="stroke: yellowgreen;"></line><line class="std" x1="416.0144024690418" y1="285" x2="290" y2="285" style="stroke: yellowgreen;"></line><circle class="std" cx="163.98559753095827" cy="285" r="1" style="fill: yellowgreen;"></circle><text class="std" x="163.98559753095827" y="295" style="text-anchor: middle; font-size: 9px; font-family: sans-serif; stroke: green;">x̄ - s</text><circle class="std" cx="416.0144024690418" cy="285" r="1" style="fill: yellowgreen;"></circle><text class="std" x="416.0144024690418" y="295" style="text-anchor: middle; font-size: 9px; font-family: sans-serif; stroke: green;">x̄ + s</text></svg>