<svg xmlns="http://www.w3.org/2000/svg" id="chart" width="600" height="400"> <text x="310" y="45" style="font-family: sans-serif; font-size: 12pt; stroke: black; text-anchor: middle;">Wilcoxon Signed Rank Sum Distribution</text><text x="310" y="60" style="font-family: sans-serif; font-size: 9pt; stroke: black; text-anchor: middle;"></text><text x="310" y="75" style="font-family: sans-serif; font-size: 9pt; stroke: green; text-anchor: middle;">n = 10</text><g transform="translate(60,90)" fill="none" font-size="10" font-family="sans-serif" text-anchor="end"><path class="domain" stroke="#000" d="M-6,0.5H0.5V260.5H-6"></path><g class="tick" opacity="1" transform="translate(0,10.900000000000006)"><line stroke="#000" x2="-6"></line><text fill="#000" x="-9" dy="0.32em">0.045</text></g><g class="tick" opacity="1" transform="translate(0,38.633333333333326)"><line stroke="#000" x2="-6"></line><text fill="#000" x="-9" dy="0.32em">0.040</text></g><g class="tick" opacity="1" transform="translate(0,66.36666666666665)"><line stroke="#000" x2="-6"></line><text fill="#000" x="-9" dy="0.32em">0.035</text></g><g class="tick" opacity="1" transform="translate(0,94.1)"><line stroke="#000" x2="-6"></line><text fill="#000" x="-9" dy="0.32em">0.030</text></g><g class="tick" opacity="1" transform="translate(0,121.83333333333334)"><line stroke="#000" x2="-6"></line><text fill="#000" x="-9" dy="0.32em">0.025</text></g><g class="tick" opacity="1" transform="translate(0,149.56666666666666)"><line stroke="#000" x2="-6"></line><text fill="#000" x="-9" dy="0.32em">0.020</text></g><g class="tick" opacity="1" transform="translate(0,177.3)"><line stroke="#000" x2="-6"></line><text fill="#000" x="-9" dy="0.32em">0.015</text></g><g class="tick" opacity="1" transform="translate(0,205.03333333333333)"><line stroke="#000" x2="-6"></line><text fill="#000" x="-9" dy="0.32em">0.010</text></g><g class="tick" opacity="1" transform="translate(0,232.76666666666665)"><line stroke="#000" x2="-6"></line><text fill="#000" x="-9" dy="0.32em">0.005</text></g><g class="tick" opacity="1" transform="translate(0,260.5)"><line stroke="#000" x2="-6"></line><text fill="#000" x="-9" dy="0.32em">0.000</text></g></g><line x1="60" y1="350" x2="560" y2="350" style="stroke: black;"></line><text class="barname" x="70.39285714285715" y="370" transform="rotate(90,70.39285714285715,370)  " style="font-family: sans-serif; font-size: 8pt; text-anchor: middle;">1</text><text class="barname" x="88.25" y="370" transform="rotate(90,88.25,370)  " style="font-family: sans-serif; font-size: 8pt; text-anchor: middle;">3</text><text class="barname" x="106.10714285714286" y="370" transform="rotate(90,106.10714285714286,370)  " style="font-family: sans-serif; font-size: 8pt; text-anchor: middle;">5</text><text class="barname" x="123.96428571428572" y="370" transform="rotate(90,123.96428571428572,370)  " style="font-family: sans-serif; font-size: 8pt; text-anchor: middle;">7</text><text class="barname" x="141.82142857142858" y="370" transform="rotate(90,141.82142857142858,370)  " style="font-family: sans-serif; font-size: 8pt; text-anchor: middle;">9</text><text class="barname" x="159.67857142857144" y="370" transform="rotate(90,159.67857142857144,370)  " style="font-family: sans-serif; font-size: 8pt; text-anchor: middle;">11</text><text class="barname" x="177.53571428571428" y="370" transform="rotate(90,177.53571428571428,370)  " style="font-family: sans-serif; font-size: 8pt; text-anchor: middle;">13</text><text class="barname" x="195.39285714285717" y="370" transform="rotate(90,195.39285714285717,370)  " style="font-family: sans-serif; font-size: 8pt; text-anchor: middle;">15</text><text class="barname" x="213.25" y="370" transform="rotate(90,213.25,370)  " style="font-family: sans-serif; font-size: 8pt; text-anchor: middle;">17</text><text class="barname" x="231.10714285714286" y="370" transform="rotate(90,231.10714285714286,370)  " style="font-family: sans-serif; font-size: 8pt; text-anchor: middle;">19</text><text class="barname" x="248.96428571428572" y="370" transform="rotate(90,248.96428571428572,370)  " style="font-family: sans-serif; font-size: 8pt; text-anchor: middle;">21</text><text class="barname" x="266.82142857142856" y="370" transform="rotate(90,266.82142857142856,370)  " style="font-family: sans-serif; font-size: 8pt; text-anchor: middle;">23</text><text class="barname" x="284.67857142857144" y="370" transform="rotate(90,284.67857142857144,370)  " style="font-family: sans-serif; font-size: 8pt; text-anchor: middle;">25</text><text class="barname" x="302.53571428571433" y="370" transform="rotate(90,302.53571428571433,370)  " style="font-family: sans-serif; font-size: 8pt; text-anchor: middle;">27</text><text class="barname" x="320.39285714285717" y="370" transform="rotate(90,320.39285714285717,370)  " style="font-family: sans-serif; font-size: 8pt; text-anchor: middle;">29</text><text class="barname" x="338.25" y="370" transform="rotate(90,338.25,370)  " style="font-family: sans-serif; font-size: 8pt; text-anchor: middle;">31</text><text class="barname" x="356.1071428571429" y="370" transform="rotate(90,356.1071428571429,370)  " style="font-family: sans-serif; font-size: 8pt; text-anchor: middle;">33</text><text class="barname" x="373.9642857142857" y="370" transform="rotate(90,373.9642857142857,370)  " style="font-family: sans-serif; font-size: 8pt; text-anchor: middle;">35</text><text class="barname" x="391.8214285714286" y="370" transform="rotate(90,391.8214285714286,370)  " style="font-family: sans-serif; font-size: 8pt; text-anchor: middle;">37</text><text class="barname" x="409.67857142857144" y="370" transform="rotate(90,409.67857142857144,370)  " style="font-family: sans-serif; font-size: 8pt; text-anchor: middle;">39</text><text class="barname" x="427.5357142857143" y="370" transform="rotate(90,427.5357142857143,370)  " style="font-family: sans-serif; font-size: 8pt; text-anchor: middle;">41</text><text class="barname" x="445.39285714285717" y="370" transform="rotate(90,445.39285714285717,370)  " style="font-family: sans-serif; font-size: 8pt; text-anchor: middle;">43</text><text class="barname" x="463.25" y="370" transform="rotate(90,463.25,370)  " style="font-family: sans-serif; font-size: 8pt; text-anchor: middle;">45</text><text class="barname" x="481.1071428571429" y="370" transform="rotate(90,481.1071428571429,370)  " style="font-family: sans-serif; font-size: 8pt; text-anchor: middle;">47</text><text class="barname" x="498.9642857142857" y="370" transform="rotate(90,498.9642857142857,370)  " style="font-family: sans-serif; font-size: 8pt; text-anchor: middle;">49</text><text class="barname" x="516.8214285714287" y="370" transform="rotate(90,516.8214285714287,370)  " style="font-family: sans-serif; font-size: 8pt; text-anchor: middle;">51</text><text class="barname" x="534.6785714285714" y="370" transform="rotate(90,534.6785714285714,370)  " style="font-family: sans-serif; font-size: 8pt; text-anchor: middle;">53</text><text class="barname" x="552.5357142857143" y="370" transform="rotate(90,552.5357142857143,370)  " style="font-family: sans-serif; font-size: 8pt; text-anchor: middle;">55</text><rect height="5.416666666666667" width="5.9523809523809526" x="61.48809523809524" y="344.5833333333333" style="fill: rgb(0, 85, 255);"></rect><rect height="5.416666666666667" width="5.9523809523809526" x="70.41666666666667" y="344.5833333333333" style="fill: rgb(0, 85, 255);"></rect><rect height="5.416666666666667" width="5.9523809523809526" x="79.3452380952381" y="344.5833333333333" style="fill: rgb(0, 85, 255);"></rect><rect height="10.833333333333334" width="5.9523809523809526" x="88.27380952380952" y="339.1666666666667" style="fill: rgb(0, 85, 255);"></rect><rect height="10.833333333333334" width="5.9523809523809526" x="97.20238095238096" y="339.1666666666667" style="fill: rgb(0, 85, 255);"></rect><rect height="16.25" width="5.9523809523809526" x="106.13095238095238" y="333.75" style="fill: rgb(0, 85, 255);"></rect><rect height="21.666666666666668" width="5.9523809523809526" x="115.05952380952381" y="328.3333333333333" style="fill: rgb(0, 85, 255);"></rect><rect height="27.083333333333336" width="5.9523809523809526" x="123.98809523809524" y="322.9166666666667" style="fill: rgb(0, 85, 255);"></rect><rect height="32.5" width="5.9523809523809526" x="132.91666666666669" y="317.5" style="fill: rgb(0, 85, 255);"></rect><rect height="43.333333333333336" width="5.9523809523809526" x="141.8452380952381" y="306.6666666666667" style="fill: rgb(0, 85, 255);"></rect><rect height="54.16666666666667" width="5.9523809523809526" x="150.77380952380952" y="295.8333333333333" style="fill: rgb(0, 85, 255);"></rect><rect height="59.583333333333336" width="5.9523809523809526" x="159.70238095238096" y="290.4166666666667" style="fill: rgb(0, 85, 255);"></rect><rect height="70.41666666666667" width="5.9523809523809526" x="168.63095238095238" y="279.5833333333333" style="fill: rgb(0, 85, 255);"></rect><rect height="81.25" width="5.9523809523809526" x="177.5595238095238" y="268.75" style="fill: rgb(0, 85, 255);"></rect><rect height="92.08333333333334" width="5.9523809523809526" x="186.48809523809524" y="257.91666666666663" style="fill: rgb(0, 85, 255);"></rect><rect height="108.33333333333334" width="5.9523809523809526" x="195.41666666666669" y="241.66666666666666" style="fill: rgb(0, 85, 255);"></rect><rect height="119.16666666666667" width="5.9523809523809526" x="204.3452380952381" y="230.83333333333331" style="fill: rgb(0, 85, 255);"></rect><rect height="130" width="5.9523809523809526" x="213.27380952380952" y="220" style="fill: rgb(0, 85, 255);"></rect><rect height="146.25" width="5.9523809523809526" x="222.20238095238096" y="203.75" style="fill: rgb(0, 85, 255);"></rect><rect height="157.08333333333334" width="5.9523809523809526" x="231.13095238095238" y="192.91666666666666" style="fill: rgb(0, 85, 255);"></rect><rect height="167.91666666666669" width="5.9523809523809526" x="240.05952380952382" y="182.08333333333331" style="fill: rgb(0, 85, 255);"></rect><rect height="178.75" width="5.9523809523809526" x="248.98809523809524" y="171.25" style="fill: rgb(0, 85, 255);"></rect><rect height="189.58333333333334" width="5.9523809523809526" x="257.9166666666667" y="160.41666666666666" style="fill: rgb(0, 85, 255);"></rect><rect height="195" width="5.9523809523809526" x="266.8452380952381" y="155" style="fill: rgb(0, 85, 255);"></rect><rect height="205.83333333333334" width="5.9523809523809526" x="275.7738095238095" y="144.16666666666666" style="fill: rgb(0, 85, 255);"></rect><rect height="211.25" width="5.9523809523809526" x="284.70238095238096" y="138.75" style="fill: rgb(0, 85, 255);"></rect><rect height="211.25" width="5.9523809523809526" x="293.6309523809524" y="138.75" style="fill: rgb(0, 85, 255);"></rect><rect height="216.66666666666669" width="5.9523809523809526" x="302.55952380952385" y="133.33333333333331" style="fill: rgb(0, 85, 255);"></rect><rect height="216.66666666666669" width="5.9523809523809526" x="311.48809523809524" y="133.33333333333331" style="fill: rgb(0, 85, 255);"></rect><rect height="211.25" width="5.9523809523809526" x="320.4166666666667" y="138.75" style="fill: rgb(0, 85, 255);"></rect><rect height="211.25" width="5.9523809523809526" x="329.34523809523813" y="138.75" style="fill: rgb(0, 85, 255);"></rect><rect height="205.83333333333334" width="5.9523809523809526" x="338.2738095238095" y="144.16666666666666" style="fill: rgb(0, 85, 255);"></rect><rect height="195" width="5.9523809523809526" x="347.20238095238096" y="155" style="fill: rgb(0, 85, 255);"></rect><rect height="189.58333333333334" width="5.9523809523809526" x="356.1309523809524" y="160.41666666666666" style="fill: rgb(0, 85, 255);"></rect><rect height="178.75" width="5.9523809523809526" x="365.0595238095238" y="171.25" style="fill: rgb(0, 85, 255);"></rect><rect height="167.91666666666669" width="5.9523809523809526" x="373.98809523809524" y="182.08333333333331" style="fill: rgb(0, 85, 255);"></rect><rect height="157.08333333333334" width="5.9523809523809526" x="382.9166666666667" y="192.91666666666666" style="fill: rgb(0, 85, 255);"></rect><rect height="146.25" width="5.9523809523809526" x="391.84523809523813" y="203.75" style="fill: rgb(0, 85, 255);"></rect><rect height="130" width="5.9523809523809526" x="400.7738095238095" y="220" style="fill: rgb(0, 85, 255);"></rect><rect height="119.16666666666667" width="5.9523809523809526" x="409.70238095238096" y="230.83333333333331" style="fill: rgb(0, 85, 255);"></rect><rect height="108.33333333333334" width="5.9523809523809526" x="418.6309523809524" y="241.66666666666666" style="fill: rgb(0, 85, 255);"></rect><rect height="92.08333333333334" width="5.9523809523809526" x="427.5595238095238" y="257.91666666666663" style="fill: rgb(0, 85, 255);"></rect><rect height="81.25" width="5.9523809523809526" x="436.48809523809524" y="268.75" style="fill: rgb(0, 85, 255);"></rect><rect height="70.41666666666667" width="5.9523809523809526" x="445.4166666666667" y="279.5833333333333" style="fill: rgb(0, 85, 255);"></rect><rect height="59.583333333333336" width="5.9523809523809526" x="454.34523809523813" y="290.4166666666667" style="fill: rgb(0, 85, 255);"></rect><rect height="54.16666666666667" width="5.9523809523809526" x="463.2738095238095" y="295.8333333333333" style="fill: rgb(0, 85, 255);"></rect><rect height="43.333333333333336" width="5.9523809523809526" x="472.20238095238096" y="306.6666666666667" style="fill: rgb(0, 85, 255);"></rect><rect height="32.5" width="5.9523809523809526" x="481.1309523809524" y="317.5" style="fill: rgb(0, 85, 255);"></rect><rect height="27.083333333333336" width="5.9523809523809526" x="490.0595238095238" y="322.9166666666667" style="fill: rgb(0, 85, 255);"></rect><rect height="21.666666666666668" width="5.9523809523809526" x="498.98809523809524" y="328.3333333333333" style="fill: rgb(0, 85, 255);"></rect><rect height="16.25" width="5.9523809523809526" x="507.9166666666667" y="333.75" style="fill: rgb(0, 85, 255);"></rect><rect height="10.833333333333334" width="5.9523809523809526" x="516.8452380952381" y="339.1666666666667" style="fill: rgb(0, 85, 255);"></rect><rect height="10.833333333333334" width="5.9523809523809526" x="525.7738095238095" y="339.1666666666667" style="fill: rgb(0, 85, 255);"></rect><rect height="5.416666666666667" width="5.9523809523809526" x="534.702380952381" y="344.5833333333333" style="fill: rgb(0, 85, 255);"></rect><rect height="5.416666666666667" width="5.9523809523809526" x="543.6309523809524" y="344.5833333333333" style="fill: rgb(0, 85, 255);"></rect><rect height="5.416666666666667" width="5.9523809523809526" x="552.5595238095239" y="344.5833333333333" style="fill: rgb(0, 85, 255);"></rect></svg>