<svg xmlns="http://www.w3.org/2000/svg" id="chart" width="600" height="400"> <text x="310" y="45" style="font-family: sans-serif; font-size: 12pt; stroke: black; text-anchor: middle;">Kruskal-Wallis H Distribution</text><text x="310" y="60" style="font-family: sans-serif; font-size: 9pt; stroke: black; text-anchor: middle;"></text><text x="310" y="75" style="font-family: sans-serif; font-size: 9pt; stroke: green; text-anchor: middle;">n₁ = 4, n₂ = 3, n₃ = 3</text><g transform="translate(60,90)" fill="none" font-size="10" font-family="sans-serif" text-anchor="end"><path class="domain" stroke="#000" d="M-6,0.5H0.5V260.5H-6"></path><g class="tick" opacity="1" transform="translate(0,22.418604651162838)"><line stroke="#000" x2="-6"></line><text fill="#000" x="-9" dy="0.32em">0.045</text></g><g class="tick" opacity="1" transform="translate(0,48.87209302325584)"><line stroke="#000" x2="-6"></line><text fill="#000" x="-9" dy="0.32em">0.040</text></g><g class="tick" opacity="1" transform="translate(0,75.32558139534882)"><line stroke="#000" x2="-6"></line><text fill="#000" x="-9" dy="0.32em">0.035</text></g><g class="tick" opacity="1" transform="translate(0,101.77906976744188)"><line stroke="#000" x2="-6"></line><text fill="#000" x="-9" dy="0.32em">0.030</text></g><g class="tick" opacity="1" transform="translate(0,128.2325581395349)"><line stroke="#000" x2="-6"></line><text fill="#000" x="-9" dy="0.32em">0.025</text></g><g class="tick" opacity="1" transform="translate(0,154.68604651162792)"><line stroke="#000" x2="-6"></line><text fill="#000" x="-9" dy="0.32em">0.020</text></g><g class="tick" opacity="1" transform="translate(0,181.13953488372096)"><line stroke="#000" x2="-6"></line><text fill="#000" x="-9" dy="0.32em">0.015</text></g><g class="tick" opacity="1" transform="translate(0,207.59302325581396)"><line stroke="#000" x2="-6"></line><text fill="#000" x="-9" dy="0.32em">0.010</text></g><g class="tick" opacity="1" transform="translate(0,234.04651162790697)"><line stroke="#000" x2="-6"></line><text fill="#000" x="-9" dy="0.32em">0.005</text></g><g class="tick" opacity="1" transform="translate(0,260.5)"><line stroke="#000" x2="-6"></line><text fill="#000" x="-9" dy="0.32em">0.000</text></g></g><line x1="60" y1="350" x2="560" y2="350" style="stroke: black;"></line><text class="barname" x="64.73195876288659" y="370" transform="rotate(90,64.73195876288659,370)  " style="font-family: sans-serif; font-size: 8pt; text-anchor: middle;">0.045</text><text class="barname" x="85.35051546391753" y="370" transform="rotate(90,85.35051546391753,370)  " style="font-family: sans-serif; font-size: 8pt; text-anchor: middle;">0.336</text><text class="barname" x="105.96907216494846" y="370" transform="rotate(90,105.96907216494846,370)  " style="font-family: sans-serif; font-size: 8pt; text-anchor: middle;">0.482</text><text class="barname" x="126.58762886597938" y="370" transform="rotate(90,126.58762886597938,370)  " style="font-family: sans-serif; font-size: 8pt; text-anchor: middle;">0.700</text><text class="barname" x="147.20618556701032" y="370" transform="rotate(90,147.20618556701032,370)  " style="font-family: sans-serif; font-size: 8pt; text-anchor: middle;">1.064</text><text class="barname" x="167.82474226804123" y="370" transform="rotate(90,167.82474226804123,370)  " style="font-family: sans-serif; font-size: 8pt; text-anchor: middle;">1.209</text><text class="barname" x="188.44329896907217" y="370" transform="rotate(90,188.44329896907217,370)  " style="font-family: sans-serif; font-size: 8pt; text-anchor: middle;">1.618</text><text class="barname" x="209.0618556701031" y="370" transform="rotate(90,209.0618556701031,370)  " style="font-family: sans-serif; font-size: 8pt; text-anchor: middle;">1.791</text><text class="barname" x="229.68041237113403" y="370" transform="rotate(90,229.68041237113403,370)  " style="font-family: sans-serif; font-size: 8pt; text-anchor: middle;">2.091</text><text class="barname" x="250.29896907216497" y="370" transform="rotate(90,250.29896907216497,370)  " style="font-family: sans-serif; font-size: 8pt; text-anchor: middle;">2.300</text><text class="barname" x="270.91752577319585" y="370" transform="rotate(90,270.91752577319585,370)  " style="font-family: sans-serif; font-size: 8pt; text-anchor: middle;">2.518</text><text class="barname" x="291.5360824742268" y="370" transform="rotate(90,291.5360824742268,370)  " style="font-family: sans-serif; font-size: 8pt; text-anchor: middle;">2.882</text><text class="barname" x="312.1546391752578" y="370" transform="rotate(90,312.1546391752578,370)  " style="font-family: sans-serif; font-size: 8pt; text-anchor: middle;">3.073</text><text class="barname" x="332.7731958762887" y="370" transform="rotate(90,332.7731958762887,370)  " style="font-family: sans-serif; font-size: 8pt; text-anchor: middle;">3.391</text><text class="barname" x="353.3917525773196" y="370" transform="rotate(90,353.3917525773196,370)  " style="font-family: sans-serif; font-size: 8pt; text-anchor: middle;">3.755</text><text class="barname" x="374.0103092783505" y="370" transform="rotate(90,374.0103092783505,370)  " style="font-family: sans-serif; font-size: 8pt; text-anchor: middle;">3.836</text><text class="barname" x="394.62886597938143" y="370" transform="rotate(90,394.62886597938143,370)  " style="font-family: sans-serif; font-size: 8pt; text-anchor: middle;">4.045</text><text class="barname" x="415.24742268041234" y="370" transform="rotate(90,415.24742268041234,370)  " style="font-family: sans-serif; font-size: 8pt; text-anchor: middle;">4.382</text><text class="barname" x="435.86597938144337" y="370" transform="rotate(90,435.86597938144337,370)  " style="font-family: sans-serif; font-size: 8pt; text-anchor: middle;">4.818</text><text class="barname" x="456.4845360824743" y="370" transform="rotate(90,456.4845360824743,370)  " style="font-family: sans-serif; font-size: 8pt; text-anchor: middle;">5.109</text><text class="barname" x="477.1030927835052" y="370" transform="rotate(90,477.1030927835052,370)  " style="font-family: sans-serif; font-size: 8pt; text-anchor: middle;">5.573</text><text class="barname" x="497.7216494845361" y="370" transform="rotate(90,497.7216494845361,370)  " style="font-family: sans-serif; font-size: 8pt; text-anchor: middle;">5.982</text><text class="barname" x="518.340206185567" y="370" transform="rotate(90,518.340206185567,370)  " style="font-family: sans-serif; font-size: 8pt; text-anchor: middle;">6.564</text><text class="barname" x="538.9587628865979" y="370" transform="rotate(90,538.9587628865979,370)  " style="font-family: sans-serif; font-size: 8pt; text-anchor: middle;">7.000</text><rect height="85.65891472868215" width="3.436426116838488" x="60.85910652920962" y="264.34108527131787" style="fill: rgb(0, 85, 255);"></rect><rect height="70.54263565891472" width="3.436426116838488" x="66.01374570446735" y="279.4573643410853" style="fill: rgb(0, 85, 255);"></rect><rect height="156.20155038759688" width="3.436426116838488" x="71.16838487972508" y="193.79844961240312" style="fill: rgb(0, 85, 255);"></rect><rect height="85.65891472868215" width="3.436426116838488" x="76.32302405498282" y="264.34108527131787" style="fill: rgb(0, 85, 255);"></rect><rect height="156.20155038759688" width="3.436426116838488" x="81.47766323024055" y="193.79844961240312" style="fill: rgb(0, 85, 255);"></rect><rect height="141.08527131782944" width="3.436426116838488" x="86.63230240549828" y="208.91472868217056" style="fill: rgb(0, 85, 255);"></rect><rect height="141.08527131782944" width="3.436426116838488" x="91.78694158075601" y="208.91472868217056" style="fill: rgb(0, 85, 255);"></rect><rect height="60.46511627906976" width="3.436426116838488" x="96.94158075601374" y="289.5348837209302" style="fill: rgb(0, 85, 255);"></rect><rect height="73.06201550387595" width="3.436426116838488" x="102.09621993127148" y="276.93798449612405" style="fill: rgb(0, 85, 255);"></rect><rect height="136.04651162790697" width="3.436426116838488" x="107.25085910652922" y="213.95348837209303" style="fill: rgb(0, 85, 255);"></rect><rect height="35.27131782945736" width="3.436426116838488" x="112.40549828178695" y="314.72868217054264" style="fill: rgb(0, 85, 255);"></rect><rect height="105.81395348837208" width="3.436426116838488" x="117.56013745704468" y="244.18604651162792" style="fill: rgb(0, 85, 255);"></rect><rect height="125.968992248062" width="3.436426116838488" x="122.7147766323024" y="224.031007751938" style="fill: rgb(0, 85, 255);"></rect><rect height="125.968992248062" width="3.436426116838488" x="127.86941580756013" y="224.031007751938" style="fill: rgb(0, 85, 255);"></rect><rect height="141.08527131782944" width="3.436426116838488" x="133.02405498281786" y="208.91472868217056" style="fill: rgb(0, 85, 255);"></rect><rect height="57.945736434108525" width="3.436426116838488" x="138.17869415807561" y="292.05426356589146" style="fill: rgb(0, 85, 255);"></rect><rect height="123.44961240310077" width="3.436426116838488" x="143.33333333333334" y="226.5503875968992" style="fill: rgb(0, 85, 255);"></rect><rect height="120.93023255813952" width="3.436426116838488" x="148.48797250859107" y="229.06976744186048" style="fill: rgb(0, 85, 255);"></rect><rect height="115.89147286821705" width="3.436426116838488" x="153.6426116838488" y="234.10852713178295" style="fill: rgb(0, 85, 255);"></rect><rect height="45.348837209302324" width="3.436426116838488" x="158.79725085910653" y="304.6511627906977" style="fill: rgb(0, 85, 255);"></rect><rect height="105.81395348837208" width="3.436426116838488" x="163.95189003436425" y="244.18604651162792" style="fill: rgb(0, 85, 255);"></rect><rect height="216.66666666666666" width="3.436426116838488" x="169.106529209622" y="133.33333333333334" style="fill: rgb(0, 85, 255);"></rect><rect height="95.73643410852712" width="3.436426116838488" x="174.26116838487974" y="254.26356589147287" style="fill: rgb(0, 85, 255);"></rect><rect height="52.90697674418604" width="3.436426116838488" x="179.41580756013747" y="297.09302325581393" style="fill: rgb(0, 85, 255);"></rect><rect height="85.65891472868215" width="3.436426116838488" x="184.5704467353952" y="264.34108527131787" style="fill: rgb(0, 85, 255);"></rect><rect height="21.414728682170537" width="3.436426116838488" x="189.72508591065292" y="328.58527131782944" style="fill: rgb(0, 85, 255);"></rect><rect height="64.24418604651162" width="3.436426116838488" x="194.87972508591065" y="285.75581395348837" style="fill: rgb(0, 85, 255);"></rect><rect height="47.86821705426356" width="3.436426116838488" x="200.03436426116838" y="302.13178294573646" style="fill: rgb(0, 85, 255);"></rect><rect height="133.5271317829457" width="3.436426116838488" x="205.1890034364261" y="216.4728682170543" style="fill: rgb(0, 85, 255);"></rect><rect height="70.54263565891472" width="3.436426116838488" x="210.34364261168386" y="279.4573643410853" style="fill: rgb(0, 85, 255);"></rect><rect height="95.73643410852712" width="3.436426116838488" x="215.4982817869416" y="254.26356589147287" style="fill: rgb(0, 85, 255);"></rect><rect height="70.54263565891472" width="3.436426116838488" x="220.65292096219932" y="279.4573643410853" style="fill: rgb(0, 85, 255);"></rect><rect height="35.27131782945736" width="3.436426116838488" x="225.80756013745705" y="314.72868217054264" style="fill: rgb(0, 85, 255);"></rect><rect height="35.27131782945736" width="3.436426116838488" x="230.96219931271477" y="314.72868217054264" style="fill: rgb(0, 85, 255);"></rect><rect height="37.7906976744186" width="3.436426116838488" x="236.1168384879725" y="312.2093023255814" style="fill: rgb(0, 85, 255);"></rect><rect height="70.54263565891472" width="3.436426116838488" x="241.27147766323023" y="279.4573643410853" style="fill: rgb(0, 85, 255);"></rect><rect height="90.69767962565625" width="3.436426116838488" x="246.42611683848799" y="259.30232037434376" style="fill: rgb(0, 85, 255);"></rect><rect height="81.8798657894467" width="3.436426116838488" x="251.5807560137457" y="268.1201342105533" style="fill: rgb(0, 85, 255);"></rect><rect height="49.127906976744185" width="3.436426116838488" x="256.73539518900344" y="300.87209302325584" style="fill: rgb(0, 85, 255);"></rect><rect height="65.50387596899225" width="3.436426116838488" x="261.89003436426117" y="284.49612403100775" style="fill: rgb(0, 85, 255);"></rect><rect height="13.856589147286819" width="3.436426116838488" x="267.0446735395189" y="336.1434108527132" style="fill: rgb(0, 85, 255);"></rect><rect height="41.56977264891205" width="3.436426116838488" x="272.1993127147766" y="308.430227351088" style="fill: rgb(0, 85, 255);"></rect><rect height="65.50387596899225" width="3.436426116838488" x="277.3539518900344" y="284.49612403100775" style="fill: rgb(0, 85, 255);"></rect><rect height="50.3875968992248" width="3.436426116838488" x="282.50859106529214" y="299.61240310077517" style="fill: rgb(0, 85, 255);"></rect><rect height="22.674418604651162" width="3.436426116838488" x="287.66323024054986" y="327.3255813953488" style="fill: rgb(0, 85, 255);"></rect><rect height="22.674418604651162" width="3.436426116838488" x="292.8178694158076" y="327.3255813953488" style="fill: rgb(0, 85, 255);"></rect><rect height="105.81397431657847" width="3.436426116838488" x="297.9725085910653" y="244.18602568342152" style="fill: rgb(0, 85, 255);"></rect><rect height="45.348837209302324" width="3.436426116838488" x="303.12714776632305" y="304.6511627906977" style="fill: rgb(0, 85, 255);"></rect><rect height="55.426356589147275" width="3.436426116838488" x="308.2817869415808" y="294.5736434108527" style="fill: rgb(0, 85, 255);"></rect><rect height="70.54266169417271" width="3.436426116838488" x="313.4364261168385" y="279.4573383058273" style="fill: rgb(0, 85, 255);"></rect><rect height="45.348837209302324" width="3.436426116838488" x="318.59106529209623" y="304.6511627906977" style="fill: rgb(0, 85, 255);"></rect><rect height="45.348837209302324" width="3.436426116838488" x="323.74570446735396" y="304.6511627906977" style="fill: rgb(0, 85, 255);"></rect><rect height="40.310124382844215" width="3.436426116838488" x="328.9003436426117" y="309.6898756171558" style="fill: rgb(0, 85, 255);"></rect><rect height="40.31007751937984" width="3.436426116838488" x="334.0549828178694" y="309.68992248062017" style="fill: rgb(0, 85, 255);"></rect><rect height="10.07751937984496" width="3.436426116838488" x="339.20962199312714" y="339.92248062015506" style="fill: rgb(0, 85, 255);"></rect><rect height="30.23255813953488" width="3.436426116838488" x="344.36426116838487" y="319.7674418604651" style="fill: rgb(0, 85, 255);"></rect><rect height="15.116331140283416" width="3.436426116838488" x="349.5189003436426" y="334.8836688597166" style="fill: rgb(0, 85, 255);"></rect><rect height="15.11627906976744" width="3.436426116838488" x="354.6735395189003" y="334.8837209302326" style="fill: rgb(0, 85, 255);"></rect><rect height="50.38762814153439" width="3.436426116838488" x="359.8281786941581" y="299.6123718584656" style="fill: rgb(0, 85, 255);"></rect><rect height="50.38762814153439" width="3.436426116838488" x="364.98281786941584" y="299.6123718584656" style="fill: rgb(0, 85, 255);"></rect><rect height="30.23255813953488" width="3.436426116838488" x="370.13745704467357" y="319.7674418604651" style="fill: rgb(0, 85, 255);"></rect><rect height="17.63565891472868" width="3.436426116838488" x="375.2920962199313" y="332.36434108527135" style="fill: rgb(0, 85, 255);"></rect><rect height="17.63565891472868" width="3.436426116838488" x="380.446735395189" y="332.36434108527135" style="fill: rgb(0, 85, 255);"></rect><rect height="22.674481089270333" width="3.436426116838488" x="385.60137457044675" y="327.32551891072967" style="fill: rgb(0, 85, 255);"></rect><rect height="37.7907080885218" width="3.436426116838488" x="390.7560137457045" y="312.2092919114782" style="fill: rgb(0, 85, 255);"></rect><rect height="30.232568553638075" width="3.436426116838488" x="395.9106529209622" y="319.7674314463619" style="fill: rgb(0, 85, 255);"></rect><rect height="17.63565891472868" width="3.436426116838488" x="401.06529209621993" y="332.36434108527135" style="fill: rgb(0, 85, 255);"></rect><rect height="30.23255813953488" width="3.436426116838488" x="406.21993127147766" y="319.7674418604651" style="fill: rgb(0, 85, 255);"></rect><rect height="30.23259979594766" width="3.436426116838488" x="411.3745704467354" y="319.76740020405236" style="fill: rgb(0, 85, 255);"></rect><rect height="30.232563346586474" width="3.436426116838488" x="416.5292096219931" y="319.76743665341354" style="fill: rgb(0, 85, 255);"></rect><rect height="25.193829691921984" width="3.436426116838488" x="421.68384879725085" y="324.80617030807804" style="fill: rgb(0, 85, 255);"></rect><rect height="45.348837209302324" width="3.436426116838488" x="426.83848797250863" y="304.6511627906977" style="fill: rgb(0, 85, 255);"></rect><rect height="40.31010876168943" width="3.436426116838488" x="431.99312714776636" y="309.68989123831057" style="fill: rgb(0, 85, 255);"></rect><rect height="20.15503875968992" width="3.436426116838488" x="437.1477663230241" y="329.84496124031006" style="fill: rgb(0, 85, 255);"></rect><rect height="35.27135948587014" width="3.436426116838488" x="442.3024054982818" y="314.72864051412984" style="fill: rgb(0, 85, 255);"></rect><rect height="20.155052645160847" width="3.436426116838488" x="447.45704467353954" y="329.8449473548392" style="fill: rgb(0, 85, 255);"></rect><rect height="15.11627906976744" width="3.436426116838488" x="452.61168384879727" y="334.8837209302326" style="fill: rgb(0, 85, 255);"></rect><rect height="20.15505958789631" width="3.436426116838488" x="457.766323024055" y="329.8449404121037" style="fill: rgb(0, 85, 255);"></rect><rect height="10.07751937984496" width="3.436426116838488" x="462.9209621993127" y="339.92248062015506" style="fill: rgb(0, 85, 255);"></rect><rect height="30.232627566889516" width="3.436426116838488" x="468.07560137457045" y="319.7673724331105" style="fill: rgb(0, 85, 255);"></rect><rect height="15.11638321079939" width="3.436426116838488" x="473.2302405498282" y="334.88361678920063" style="fill: rgb(0, 85, 255);"></rect><rect height="15.11629989797383" width="3.436426116838488" x="478.3848797250859" y="334.8837001020262" style="fill: rgb(0, 85, 255);"></rect><rect height="25.1937984496124" width="3.436426116838488" x="483.53951890034364" y="324.8062015503876" style="fill: rgb(0, 85, 255);"></rect><rect height="50.387648969740766" width="3.436426116838488" x="488.69415807560136" y="299.6123510302592" style="fill: rgb(0, 85, 255);"></rect><rect height="10.07751937984496" width="3.436426116838488" x="493.84879725085915" y="339.92248062015506" style="fill: rgb(0, 85, 255);"></rect><rect height="40.31007751937984" width="3.436426116838488" x="499.0034364261169" y="309.68992248062017" style="fill: rgb(0, 85, 255);"></rect><rect height="10.07762352087691" width="3.436426116838488" x="504.1580756013746" y="339.9223764791231" style="fill: rgb(0, 85, 255);"></rect><rect height="10.07760269267052" width="3.436426116838488" x="509.31271477663233" y="339.9223973073295" style="fill: rgb(0, 85, 255);"></rect><rect height="30.232620624154052" width="3.436426116838488" x="514.4673539518901" y="319.76737937584596" style="fill: rgb(0, 85, 255);"></rect><rect height="17.635731813451045" width="3.436426116838488" x="519.6219931271478" y="332.36426818654894" style="fill: rgb(0, 85, 255);"></rect><rect height="5.038863830954431" width="3.436426116838488" x="524.7766323024056" y="344.9611361690456" style="fill: rgb(0, 85, 255);"></rect><rect height="15.116351968489804" width="3.436426116838488" x="529.9312714776632" y="334.8836480315102" style="fill: rgb(0, 85, 255);"></rect><rect height="20.1550856231543" width="3.436426116838488" x="535.085910652921" y="329.8449143768457" style="fill: rgb(0, 85, 255);"></rect><rect height="10.077550622154545" width="3.436426116838488" x="540.2405498281787" y="339.92244937784545" style="fill: rgb(0, 85, 255);"></rect><rect height="10.077571450360935" width="3.436426116838488" x="545.3951890034365" y="339.92242854963905" style="fill: rgb(0, 85, 255);"></rect><rect height="5.038822174541651" width="3.436426116838488" x="550.5498281786942" y="344.9611778254583" style="fill: rgb(0, 85, 255);"></rect><rect height="7.558149948986915" width="3.436426116838488" x="555.7044673539519" y="342.4418500510131" style="fill: rgb(0, 85, 255);"></rect></svg>