<svg xmlns="http://www.w3.org/2000/svg" id="SVG" width="600px" height="560px"><text x="290" y="40" style="font-size: 17px; font-family: sans-seirf; stroke: black; text-anchor: middle;">Probability Histogram and Normal Distribution</text><g class="axis" transform="translate(80, 80) " fill="none" font-size="10" font-family="sans-serif" text-anchor="end"><path class="domain" stroke="#000" d="M-6,400.5H0.5V0.5H-6"></path><g class="tick" opacity="1" transform="translate(0,400.5)"><line stroke="#000" x2="-6"></line><text fill="#000" x="-9" dy="0.32em">0.00</text></g><g class="tick" opacity="1" transform="translate(0,359.2538040875443)"><line stroke="#000" x2="-6"></line><text fill="#000" x="-9" dy="0.32em">0.02</text></g><g class="tick" opacity="1" transform="translate(0,318.0076081750886)"><line stroke="#000" x2="-6"></line><text fill="#000" x="-9" dy="0.32em">0.04</text></g><g class="tick" opacity="1" transform="translate(0,276.7614122626329)"><line stroke="#000" x2="-6"></line><text fill="#000" x="-9" dy="0.32em">0.06</text></g><g class="tick" opacity="1" transform="translate(0,235.5152163501772)"><line stroke="#000" x2="-6"></line><text fill="#000" x="-9" dy="0.32em">0.08</text></g><g class="tick" opacity="1" transform="translate(0,194.2690204377215)"><line stroke="#000" x2="-6"></line><text fill="#000" x="-9" dy="0.32em">0.10</text></g><g class="tick" opacity="1" transform="translate(0,153.02282452526583)"><line stroke="#000" x2="-6"></line><text fill="#000" x="-9" dy="0.32em">0.12</text></g><g class="tick" opacity="1" transform="translate(0,111.7766286128101)"><line stroke="#000" x2="-6"></line><text fill="#000" x="-9" dy="0.32em">0.14</text></g><g class="tick" opacity="1" transform="translate(0,70.53043270035442)"><line stroke="#000" x2="-6"></line><text fill="#000" x="-9" dy="0.32em">0.16</text></g><g class="tick" opacity="1" transform="translate(0,29.28423678789875)"><line stroke="#000" x2="-6"></line><text fill="#000" x="-9" dy="0.32em">0.18</text></g></g><line x1="500" x2="500" y1="80" y2="480" style="stroke: black;"></line><line x1="80" x2="500" y1="80" y2="80" style="stroke: black;"></line><line x1="80" x2="500" y1="480" y2="480" style="stroke: black;"></line><line x1="80" x2="80" y1="480" y2="485" style="stroke: black;"></line><text class="myaxis" x="80" y="500" style="text-anchor: middle; font-family: sans-serif; font-size: 7px; stroke: rgb(0, 85, 255);">-10.73</text><line x1="106.24999999999999" x2="106.24999999999999" y1="480" y2="485" style="stroke: black;"></line><text class="myaxis" x="106.24999999999999" y="500" style="text-anchor: middle; font-family: sans-serif; font-size: 7px; stroke: rgb(0, 85, 255);">-9.28</text><line x1="132.5" x2="132.5" y1="480" y2="485" style="stroke: black;"></line><text class="myaxis" x="132.5" y="500" style="text-anchor: middle; font-family: sans-serif; font-size: 7px; stroke: rgb(0, 85, 255);">-7.83</text><line x1="158.75" x2="158.75" y1="480" y2="485" style="stroke: black;"></line><text class="myaxis" x="158.75" y="500" style="text-anchor: middle; font-family: sans-serif; font-size: 7px; stroke: rgb(0, 85, 255);">-6.38</text><line x1="185" x2="185" y1="480" y2="485" style="stroke: black;"></line><text class="myaxis" x="185" y="500" style="text-anchor: middle; font-family: sans-serif; font-size: 7px; stroke: rgb(0, 85, 255);">-4.93</text><line x1="211.25" x2="211.25" y1="480" y2="485" style="stroke: black;"></line><text class="myaxis" x="211.25" y="500" style="text-anchor: middle; font-family: sans-serif; font-size: 7px; stroke: rgb(0, 85, 255);">-3.48</text><line x1="237.5" x2="237.5" y1="480" y2="485" style="stroke: black;"></line><text class="myaxis" x="237.5" y="500" style="text-anchor: middle; font-family: sans-serif; font-size: 7px; stroke: rgb(0, 85, 255);">-2.03</text><line x1="263.75" x2="263.75" y1="480" y2="485" style="stroke: black;"></line><text class="myaxis" x="263.75" y="500" style="text-anchor: middle; font-family: sans-serif; font-size: 7px; stroke: rgb(0, 85, 255);">-0.58</text><line x1="290" x2="290" y1="480" y2="485" style="stroke: black;"></line><text class="myaxis" x="290" y="500" style="text-anchor: middle; font-family: sans-serif; font-size: 7px; stroke: rgb(0, 85, 255);">0.88</text><line x1="316.25" x2="316.25" y1="480" y2="485" style="stroke: black;"></line><text class="myaxis" x="316.25" y="500" style="text-anchor: middle; font-family: sans-serif; font-size: 7px; stroke: rgb(0, 85, 255);">2.33</text><line x1="342.5" x2="342.5" y1="480" y2="485" style="stroke: black;"></line><text class="myaxis" x="342.5" y="500" style="text-anchor: middle; font-family: sans-serif; font-size: 7px; stroke: rgb(0, 85, 255);">3.78</text><line x1="368.75" x2="368.75" y1="480" y2="485" style="stroke: black;"></line><text class="myaxis" x="368.75" y="500" style="text-anchor: middle; font-family: sans-serif; font-size: 7px; stroke: rgb(0, 85, 255);">5.23</text><line x1="395" x2="395" y1="480" y2="485" style="stroke: black;"></line><text class="myaxis" x="395" y="500" style="text-anchor: middle; font-family: sans-serif; font-size: 7px; stroke: rgb(0, 85, 255);">6.68</text><line x1="421.25" x2="421.25" y1="480" y2="485" style="stroke: black;"></line><text class="myaxis" x="421.25" y="500" style="text-anchor: middle; font-family: sans-serif; font-size: 7px; stroke: rgb(0, 85, 255);">8.13</text><line x1="447.5" x2="447.5" y1="480" y2="485" style="stroke: black;"></line><text class="myaxis" x="447.5" y="500" style="text-anchor: middle; font-family: sans-serif; font-size: 7px; stroke: rgb(0, 85, 255);">9.58</text><line x1="473.75" x2="473.75" y1="480" y2="485" style="stroke: black;"></line><text class="myaxis" x="473.75" y="500" style="text-anchor: middle; font-family: sans-serif; font-size: 7px; stroke: rgb(0, 85, 255);">11.03</text><line x1="500" x2="500" y1="480" y2="485" style="stroke: black;"></line><text class="myaxis" x="500" y="500" style="text-anchor: middle; font-family: sans-serif; font-size: 7px; stroke: rgb(0, 85, 255);">12.48</text><text x="290" y="530" style="font-size: 12px; font-family: sans-seirf; stroke: black; text-anchor: middle;">Difference</text><rect class="bar" x="80" width="26.25" height="0" y="480" style="fill: rgb(0, 85, 255); stroke: black; stroke-width: 1px;"></rect><rect class="bar" x="106.24999999999999" width="26.25" height="0" y="480" style="fill: rgb(0, 85, 255); stroke: black; stroke-width: 1px;"></rect><rect class="bar" x="132.5" width="26.25" height="0" y="480" style="fill: rgb(0, 85, 255); stroke: black; stroke-width: 1px;"></rect><rect class="bar" x="158.75" width="26.25" height="0" y="480" style="fill: rgb(0, 85, 255); stroke: black; stroke-width: 1px;"></rect><rect class="bar" x="185" width="26.25" height="0" y="480" style="fill: rgb(0, 85, 255); stroke: black; stroke-width: 1px;"></rect><rect class="bar" x="211.25" width="26.25" height="177.77777777777777" y="302.22222222222223" style="fill: rgb(0, 85, 255); stroke: black; stroke-width: 1px;"></rect><rect class="bar" x="237.5" width="26.25" height="355.55555555555554" y="124.44444444444446" style="fill: rgb(0, 85, 255); stroke: black; stroke-width: 1px;"></rect><rect class="bar" x="263.75" width="26.25" height="177.77777777777777" y="302.22222222222223" style="fill: rgb(0, 85, 255); stroke: black; stroke-width: 1px;"></rect><rect class="bar" x="290" width="26.25" height="177.77777777777777" y="302.22222222222223" style="fill: rgb(0, 85, 255); stroke: black; stroke-width: 1px;"></rect><rect class="bar" x="316.25" width="26.25" height="177.77777777777777" y="302.22222222222223" style="fill: rgb(0, 85, 255); stroke: black; stroke-width: 1px;"></rect><rect class="bar" x="342.5" width="26.25" height="355.55555555555554" y="124.44444444444446" style="fill: rgb(0, 85, 255); stroke: black; stroke-width: 1px;"></rect><rect class="bar" x="368.75" width="26.25" height="0" y="480" style="fill: rgb(0, 85, 255); stroke: black; stroke-width: 1px;"></rect><rect class="bar" x="395" width="26.25" height="0" y="480" style="fill: rgb(0, 85, 255); stroke: black; stroke-width: 1px;"></rect><rect class="bar" x="421.25" width="26.25" height="0" y="480" style="fill: rgb(0, 85, 255); stroke: black; stroke-width: 1px;"></rect><rect class="bar" x="447.5" width="26.25" height="0" y="480" style="fill: rgb(0, 85, 255); stroke: black; stroke-width: 1px;"></rect><rect class="bar" x="473.75" width="26.25" height="0" y="480" style="fill: rgb(0, 85, 255); stroke: black; stroke-width: 1px;"></rect><line x1="290" y1="196.30771171453677" x2="290" y2="485" style="stroke: red;"></line><text x="290" y="492" style="stroke: red; text-anchor: middle; font-family: sans-serif; font-size: 7pt;">Mean=0.88</text><text x="370" y="492" style="stroke: red; text-anchor: middle; font-family: sans-serif; font-size: 7pt;">Std Dev=2.90</text><line x1="80" x2="84.15841584158414" y1="479.9048318394561" y2="479.86976504392237" style="stroke: red;"></line><line x1="84.15841584158414" x2="88.3168316831683" y1="479.86976504392237" y2="479.8228917699887" style="stroke: red;"></line><line x1="88.3168316831683" x2="92.47524752475246" y1="479.8228917699887" y2="479.7606545367806" style="stroke: red;"></line><line x1="92.47524752475246" x2="96.6336633663366" y1="479.7606545367806" y2="479.6785696071625" style="stroke: red;"></line><line x1="96.6336633663366" x2="100.79207920792075" y1="479.6785696071625" y2="479.5710329241648" style="stroke: red;"></line><line x1="100.79207920792075" x2="104.95049504950491" y1="479.5710329241648" y2="479.4310995675501" style="stroke: red;"></line><line x1="104.95049504950491" x2="109.10891089108907" y1="479.4310995675501" y2="479.25023726779403" style="stroke: red;"></line><line x1="109.10891089108907" x2="113.26732673267321" y1="479.25023726779403" y2="479.01805600788975" style="stroke: red;"></line><line x1="113.26732673267321" x2="117.42574257425736" y1="479.01805600788975" y2="478.7220176166484" style="stroke: red;"></line><line x1="117.42574257425736" x2="121.58415841584151" y1="478.7220176166484" y2="478.34713151432294" style="stroke: red;"></line><line x1="121.58415841584151" x2="125.74257425742567" y1="478.34713151432294" y2="477.87564538995133" style="stroke: red;"></line><line x1="125.74257425742567" x2="129.90099009900982" y1="477.87564538995133" y2="477.2867425143609" style="stroke: red;"></line><line x1="129.90099009900982" x2="134.05940594059396" y1="477.2867425143609" y2="476.5562605290545" style="stroke: red;"></line><line x1="134.05940594059396" x2="138.21782178217813" y1="476.5562605290545" y2="475.6564497616703" style="stroke: red;"></line><line x1="138.21782178217813" x2="142.37623762376228" y1="475.6564497616703" y2="474.5557922204975" style="stroke: red;"></line><line x1="142.37623762376228" x2="146.53465346534642" y1="474.5557922204975" y2="473.21890518655374" style="stroke: red;"></line><line x1="146.53465346534642" x2="150.69306930693057" y1="473.21890518655374" y2="471.6065554859179" style="stroke: red;"></line><line x1="150.69306930693057" x2="154.8514851485147" y1="471.6065554859179" y2="469.675811792228" style="stroke: red;"></line><line x1="154.8514851485147" x2="159.00990099009886" y1="469.675811792228" y2="467.38036237031156" style="stroke: red;"></line><line x1="159.00990099009886" x2="163.16831683168303" y1="467.38036237031156" y2="464.67102422365804" style="stroke: red;"></line><line x1="163.16831683168303" x2="167.32673267326717" y1="464.67102422365804" y2="461.49646637838794" style="stroke: red;"></line><line x1="167.32673267326717" x2="171.48514851485135" y1="461.49646637838794" y2="457.8041648107978" style="stroke: red;"></line><line x1="171.48514851485135" x2="175.6435643564355" y1="457.8041648107978" y2="453.5415991793794" style="stroke: red;"></line><line x1="175.6435643564355" x2="179.80198019801963" y1="453.5415991793794" y2="448.65769204833657" style="stroke: red;"></line><line x1="179.80198019801963" x2="183.96039603960378" y1="448.65769204833657" y2="443.1044798251429" style="stroke: red;"></line><line x1="183.96039603960378" x2="188.11881188118792" y1="443.1044798251429" y2="436.83899148074954" style="stroke: red;"></line><line x1="188.11881188118792" x2="192.27722772277207" y1="436.83899148074954" y2="429.82529675351265" style="stroke: red;"></line><line x1="192.27722772277207" x2="196.43564356435624" y1="429.82529675351265" y2="422.0366706057512" style="stroke: red;"></line><line x1="196.43564356435624" x2="200.5940594059404" y1="422.0366706057512" y2="413.457806011354" style="stroke: red;"></line><line x1="200.5940594059404" x2="204.75247524752456" y1="413.457806011354" y2="404.0869936360695" style="stroke: red;"></line><line x1="204.75247524752456" x2="208.9108910891087" y1="404.0869936360695" y2="393.93817563964046" style="stroke: red;"></line><line x1="208.9108910891087" x2="213.06930693069287" y1="393.93817563964046" y2="383.04277270846757" style="stroke: red;"></line><line x1="213.06930693069287" x2="217.22772277227702" y1="383.04277270846757" y2="371.4511794909683" style="stroke: red;"></line><line x1="217.22772277227702" x2="221.3861386138612" y1="371.4511794909683" y2="359.23382469197077" style="stroke: red;"></line><line x1="221.3861386138612" x2="225.54455445544536" y1="359.23382469197077" y2="346.481698808315" style="stroke: red;"></line><line x1="225.54455445544536" x2="229.7029702970295" y1="346.481698808315" y2="333.3062651860038" style="stroke: red;"></line><line x1="229.7029702970295" x2="233.86138613861368" y1="333.3062651860038" y2="319.83868872854157" style="stroke: red;"></line><line x1="233.86138613861368" x2="238.01980198019783" y1="319.83868872854157" y2="306.228340771955" style="stroke: red;"></line><line x1="238.01980198019783" x2="242.17821782178197" y1="306.228340771955" y2="292.64056754097453" style="stroke: red;"></line><line x1="242.17821782178197" x2="246.33663366336614" y1="292.64056754097453" y2="279.253741995465" style="stroke: red;"></line><line x1="246.33663366336614" x2="250.4950495049503" y1="279.253741995465" y2="266.25565320206795" style="stroke: red;"></line><line x1="250.4950495049503" x2="254.65346534653446" y1="266.25565320206795" y2="253.83932179067958" style="stroke: red;"></line><line x1="254.65346534653446" x2="258.81188118811866" y1="253.83932179067958" y2="242.19836258514192" style="stroke: red;"></line><line x1="258.81188118811866" x2="262.9702970297028" y1="242.19836258514192" y2="231.52204410568348" style="stroke: red;"></line><line x1="262.9702970297028" x2="267.12871287128695" y1="231.52204410568348" y2="221.99021740845444" style="stroke: red;"></line><line x1="267.12871287128695" x2="271.2871287128711" y1="221.99021740845444" y2="213.7683019865645" style="stroke: red;"></line><line x1="271.2871287128711" x2="275.4455445544553" y1="213.7683019865645" y2="207.00252292189373" style="stroke: red;"></line><line x1="275.4455445544553" x2="279.6039603960394" y1="207.00252292189373" y2="201.81559035590493" style="stroke: red;"></line><line x1="279.6039603960394" x2="283.7623762376236" y1="201.81559035590493" y2="198.30299942173673" style="stroke: red;"></line><line x1="283.7623762376236" x2="287.9207920792078" y1="198.30299942173673" y2="196.53010644163237" style="stroke: red;"></line><line x1="287.9207920792078" x2="292.0792079207919" y1="196.53010644163237" y2="196.53010644163226" style="stroke: red;"></line><line x1="292.0792079207919" x2="296.2376237623761" y1="196.53010644163226" y2="198.3029994217365" style="stroke: red;"></line><line x1="296.2376237623761" x2="300.3960396039602" y1="198.3029994217365" y2="201.8155903559046" style="stroke: red;"></line><line x1="300.3960396039602" x2="304.55445544554436" y1="201.8155903559046" y2="207.00252292189322" style="stroke: red;"></line><line x1="304.55445544554436" x2="308.7128712871285" y1="207.00252292189322" y2="213.7683019865638" style="stroke: red;"></line><line x1="308.7128712871285" x2="312.87128712871265" y1="213.7683019865638" y2="221.9902174084537" style="stroke: red;"></line><line x1="312.87128712871265" x2="317.02970297029685" y1="221.9902174084537" y2="231.5220441056826" style="stroke: red;"></line><line x1="317.02970297029685" x2="321.188118811881" y1="231.5220441056826" y2="242.19836258514093" style="stroke: red;"></line><line x1="321.188118811881" x2="325.34653465346514" y1="242.19836258514093" y2="253.8393217906785" style="stroke: red;"></line><line x1="325.34653465346514" x2="329.50495049504934" y1="253.8393217906785" y2="266.2556532020668" style="stroke: red;"></line><line x1="329.50495049504934" x2="333.6633663366335" y1="266.2556532020668" y2="279.2537419954639" style="stroke: red;"></line><line x1="333.6633663366335" x2="337.82178217821763" y1="279.2537419954639" y2="292.6405675409733" style="stroke: red;"></line><line x1="337.82178217821763" x2="341.9801980198018" y1="292.6405675409733" y2="306.2283407719538" style="stroke: red;"></line><line x1="341.9801980198018" x2="346.138613861386" y1="306.2283407719538" y2="319.83868872854043" style="stroke: red;"></line><line x1="346.138613861386" x2="350.29702970297006" y1="319.83868872854043" y2="333.30626518600263" style="stroke: red;"></line><line x1="350.29702970297006" x2="354.45544554455427" y1="333.30626518600263" y2="346.4816988083138" style="stroke: red;"></line><line x1="354.45544554455427" x2="358.6138613861384" y1="346.4816988083138" y2="359.2338246919696" style="stroke: red;"></line><line x1="358.6138613861384" x2="362.77227722772255" y1="359.2338246919696" y2="371.4511794909671" style="stroke: red;"></line><line x1="362.77227722772255" x2="366.9306930693067" y1="371.4511794909671" y2="383.04277270846643" style="stroke: red;"></line><line x1="366.9306930693067" x2="371.08910891089084" y1="383.04277270846643" y2="393.93817563963944" style="stroke: red;"></line><line x1="371.08910891089084" x2="375.247524752475" y1="393.93817563963944" y2="404.0869936360684" style="stroke: red;"></line><line x1="375.247524752475" x2="379.4059405940592" y1="404.0869936360684" y2="413.45780601135306" style="stroke: red;"></line><line x1="379.4059405940592" x2="383.5643564356433" y1="413.45780601135306" y2="422.0366706057504" style="stroke: red;"></line><line x1="383.5643564356433" x2="387.7227722772275" y1="422.0366706057504" y2="429.82529675351185" style="stroke: red;"></line><line x1="387.7227722772275" x2="391.8811881188116" y1="429.82529675351185" y2="436.83899148074886" style="stroke: red;"></line><line x1="391.8811881188116" x2="396.03960396039577" y1="436.83899148074886" y2="443.10447982514233" style="stroke: red;"></line><line x1="396.03960396039577" x2="400.1980198019799" y1="443.10447982514233" y2="448.65769204833606" style="stroke: red;"></line><line x1="400.1980198019799" x2="404.35643564356405" y1="448.65769204833606" y2="453.54159917937886" style="stroke: red;"></line><line x1="404.35643564356405" x2="408.5148514851482" y1="453.54159917937886" y2="457.8041648107974" style="stroke: red;"></line><line x1="408.5148514851482" x2="412.6732673267324" y1="457.8041648107974" y2="461.4964663783876" style="stroke: red;"></line><line x1="412.6732673267324" x2="416.8316831683165" y1="461.4964663783876" y2="464.67102422365775" style="stroke: red;"></line><line x1="416.8316831683165" x2="420.9900990099007" y1="464.67102422365775" y2="467.3803623703113" style="stroke: red;"></line><line x1="420.9900990099007" x2="425.14851485148483" y1="467.3803623703113" y2="469.67581179222776" style="stroke: red;"></line><line x1="425.14851485148483" x2="429.306930693069" y1="469.67581179222776" y2="471.60655548591774" style="stroke: red;"></line><line x1="429.306930693069" x2="433.4653465346531" y1="471.60655548591774" y2="473.2189051865536" style="stroke: red;"></line><line x1="433.4653465346531" x2="437.6237623762373" y1="473.2189051865536" y2="474.5557922204974" style="stroke: red;"></line><line x1="437.6237623762373" x2="441.7821782178214" y1="474.5557922204974" y2="475.65644976167016" style="stroke: red;"></line><line x1="441.7821782178214" x2="445.94059405940556" y1="475.65644976167016" y2="476.55626052905444" style="stroke: red;"></line><line x1="445.94059405940556" x2="450.09900990098976" y1="476.55626052905444" y2="477.28674251436087" style="stroke: red;"></line><line x1="450.09900990098976" x2="454.2574257425739" y1="477.28674251436087" y2="477.8756453899513" style="stroke: red;"></line><line x1="454.2574257425739" x2="458.415841584158" y1="477.8756453899513" y2="478.34713151432294" style="stroke: red;"></line><line x1="458.415841584158" x2="462.5742574257422" y1="478.34713151432294" y2="478.7220176166483" style="stroke: red;"></line><line x1="462.5742574257422" x2="466.73267326732633" y1="478.7220176166483" y2="479.0180560078897" style="stroke: red;"></line><line x1="466.73267326732633" x2="470.89108910891053" y1="479.0180560078897" y2="479.250237267794" style="stroke: red;"></line><line x1="470.89108910891053" x2="475.0495049504946" y1="479.250237267794" y2="479.4310995675501" style="stroke: red;"></line><line x1="475.0495049504946" x2="479.20792079207877" y1="479.4310995675501" y2="479.57103292416474" style="stroke: red;"></line><line x1="479.20792079207877" x2="483.36633663366297" y1="479.57103292416474" y2="479.6785696071625" style="stroke: red;"></line><line x1="483.36633663366297" x2="487.5247524752471" y1="479.6785696071625" y2="479.7606545367806" style="stroke: red;"></line><line x1="487.5247524752471" x2="491.6831683168312" y1="479.7606545367806" y2="479.8228917699887" style="stroke: red;"></line><line x1="491.6831683168312" x2="495.8415841584154" y1="479.8228917699887" y2="479.86976504392237" style="stroke: red;"></line></svg>