<svg xmlns="http://www.w3.org/2000/svg" id="SVG" width="600" height="560"><text x="290" y="50" style="font-size: 17px; font-family: sans-seirf; stroke: black; text-anchor: middle;">(Group  Dept)  Score Confidence Interval Graph</text><text x="290" y="530" style="font-size: 12px; font-family: sans-seirf; stroke: black; text-anchor: middle;">Score</text><text x="520" y="180" style="font-size: 12px; font-family: sans-seirf; stroke: rgb(0, 85, 255); text-anchor: start;">Group 1</text><line x1="80" x2="500" y1="80" y2="80" style="stroke: black;"></line><g transform="translate(80,480)" fill="none" font-size="10" font-family="sans-serif" text-anchor="middle"><path class="domain" stroke="#000" d="M0.5,6V0.5H420.5V6"></path><g class="tick" opacity="1" transform="translate(17.07894736842103,0)"><line stroke="#000" y2="6"></line><text fill="#000" y="9" dy="0.71em">55</text></g><g class="tick" opacity="1" transform="translate(63.1315789473684,0)"><line stroke="#000" y2="6"></line><text fill="#000" y="9" dy="0.71em">60</text></g><g class="tick" opacity="1" transform="translate(109.18421052631578,0)"><line stroke="#000" y2="6"></line><text fill="#000" y="9" dy="0.71em">65</text></g><g class="tick" opacity="1" transform="translate(155.23684210526315,0)"><line stroke="#000" y2="6"></line><text fill="#000" y="9" dy="0.71em">70</text></g><g class="tick" opacity="1" transform="translate(201.28947368421052,0)"><line stroke="#000" y2="6"></line><text fill="#000" y="9" dy="0.71em">75</text></g><g class="tick" opacity="1" transform="translate(247.34210526315792,0)"><line stroke="#000" y2="6"></line><text fill="#000" y="9" dy="0.71em">80</text></g><g class="tick" opacity="1" transform="translate(293.39473684210526,0)"><line stroke="#000" y2="6"></line><text fill="#000" y="9" dy="0.71em">85</text></g><g class="tick" opacity="1" transform="translate(339.44736842105266,0)"><line stroke="#000" y2="6"></line><text fill="#000" y="9" dy="0.71em">90</text></g><g class="tick" opacity="1" transform="translate(385.50000000000006,0)"><line stroke="#000" y2="6"></line><text fill="#000" y="9" dy="0.71em">95</text></g></g><line x1="80" x2="80" y1="80" y2="480" style="stroke: black;"></line><line x1="500" x2="500" y1="80" y2="480" style="stroke: black;"></line><circle class="circle" tooltip="circle" stroke="black" cx="188.68421052631578" cy="272" r="4" style="fill: rgb(0, 85, 255);"></circle><circle class="circle" tooltip="circle" stroke="black" cx="280.7894736842105" cy="272" r="4" style="fill: rgb(0, 85, 255);"></circle><circle class="circle" tooltip="circle" stroke="black" cx="336.05263157894734" cy="272" r="4" style="fill: rgb(0, 85, 255);"></circle><circle class="circle" tooltip="circle" stroke="black" cx="391.3157894736842" cy="272" r="4" style="fill: rgb(0, 85, 255);"></circle><circle class="circle" tooltip="circle" stroke="black" cx="418.94736842105266" cy="272" r="4" style="fill: rgb(0, 85, 255);"></circle><circle class="circle" tooltip="circle" stroke="black" cx="446.5789473684211" cy="272" r="4" style="fill: rgb(0, 85, 255);"></circle><circle class="circle" tooltip="circle" stroke="black" cx="465.00000000000006" cy="272" r="4" style="fill: rgb(0, 85, 255);"></circle><text x="520" y="380" style="font-size: 12px; font-family: sans-seirf; stroke: rgb(255, 69, 0); text-anchor: start;">Group 2</text><line x1="80" x2="500" y1="280" y2="280" style="stroke: black;"></line><g transform="translate(80,480)" fill="none" font-size="10" font-family="sans-serif" text-anchor="middle"><path class="domain" stroke="#000" d="M0.5,6V0.5H420.5V6"></path><g class="tick" opacity="1" transform="translate(17.07894736842103,0)"><line stroke="#000" y2="6"></line><text fill="#000" y="9" dy="0.71em">55</text></g><g class="tick" opacity="1" transform="translate(63.1315789473684,0)"><line stroke="#000" y2="6"></line><text fill="#000" y="9" dy="0.71em">60</text></g><g class="tick" opacity="1" transform="translate(109.18421052631578,0)"><line stroke="#000" y2="6"></line><text fill="#000" y="9" dy="0.71em">65</text></g><g class="tick" opacity="1" transform="translate(155.23684210526315,0)"><line stroke="#000" y2="6"></line><text fill="#000" y="9" dy="0.71em">70</text></g><g class="tick" opacity="1" transform="translate(201.28947368421052,0)"><line stroke="#000" y2="6"></line><text fill="#000" y="9" dy="0.71em">75</text></g><g class="tick" opacity="1" transform="translate(247.34210526315792,0)"><line stroke="#000" y2="6"></line><text fill="#000" y="9" dy="0.71em">80</text></g><g class="tick" opacity="1" transform="translate(293.39473684210526,0)"><line stroke="#000" y2="6"></line><text fill="#000" y="9" dy="0.71em">85</text></g><g class="tick" opacity="1" transform="translate(339.44736842105266,0)"><line stroke="#000" y2="6"></line><text fill="#000" y="9" dy="0.71em">90</text></g><g class="tick" opacity="1" transform="translate(385.50000000000006,0)"><line stroke="#000" y2="6"></line><text fill="#000" y="9" dy="0.71em">95</text></g></g><line x1="80" x2="80" y1="80" y2="480" style="stroke: black;"></line><line x1="500" x2="500" y1="80" y2="480" style="stroke: black;"></line><circle class="circle" tooltip="circle" stroke="black" cx="114.99999999999997" cy="472" r="4" style="fill: rgb(255, 69, 0);"></circle><circle class="circle" tooltip="circle" stroke="black" cx="243.94736842105263" cy="472" r="4" style="fill: rgb(255, 69, 0);"></circle><circle class="circle" tooltip="circle" stroke="black" cx="354.4736842105263" cy="472" r="4" style="fill: rgb(255, 69, 0);"></circle><circle class="circle" tooltip="circle" stroke="black" cx="372.89473684210526" cy="472" r="4" style="fill: rgb(255, 69, 0);"></circle><circle class="circle" tooltip="circle" stroke="black" cx="391.3157894736842" cy="472" r="4" style="fill: rgb(255, 69, 0);"></circle><circle class="circle" tooltip="circle" stroke="black" cx="418.94736842105266" cy="472" r="4" style="fill: rgb(255, 69, 0);"></circle><line class="mean" x1="361.05263157894734" y1="85" x2="361.05263157894734" y2="280" style="stroke: rgb(255, 69, 0);"></line><text class="mean" x="366.05263157894734" y="180" style="text-anchor: start; font-size: 9px; font-family: sans-serif; stroke: rgb(255, 69, 0);">x̄=83.71</text><text class="mean" x="485" y="95" style="text-anchor: end; font-size: 9px; font-family: sans-serif; stroke: rgb(0, 85, 255);">n=7</text><text class="mean" x="490" y="110" style="text-anchor: end; font-size: 9px; font-family: sans-serif; stroke: rgb(0, 85, 255);">s=10.78</text><line class="mean" x1="316.09649122807014" y1="285" x2="316.09649122807014" y2="480" style="stroke: rgb(255, 69, 0);"></line><text class="mean" x="321.09649122807014" y="380" style="text-anchor: start; font-size: 9px; font-family: sans-serif; stroke: rgb(255, 69, 0);">x̄=78.83</text><text class="mean" x="485" y="295" style="text-anchor: end; font-size: 9px; font-family: sans-serif; stroke: rgb(0, 85, 255);">n=6</text><text class="mean" x="490" y="310" style="text-anchor: end; font-size: 9px; font-family: sans-serif; stroke: rgb(0, 85, 255);">s=12.53</text><circle class="std" cx="361.05263157894734" cy="185" r="1" style="fill: green;"></circle><line class="std" x1="269.2134522051732" y1="185" x2="361.05263157894734" y2="185" style="stroke: yellowgreen;"></line><line class="std" x1="452.8918109527214" y1="185" x2="361.05263157894734" y2="185" style="stroke: yellowgreen;"></line><circle class="std" cx="269.2134522051732" cy="185" r="1" style="fill: yellowgreen;"></circle><circle class="std" cx="452.8918109527214" cy="185" r="1" style="fill: yellowgreen;"></circle><text class="std" x="269.2134522051732" y="195" style="text-anchor: middle; font-size: 9px; font-family: sans-serif; stroke: green;">95% CI</text><circle class="std" cx="316.09649122807014" cy="385" r="1" style="fill: green;"></circle><line class="std" x1="194.99653817372044" y1="385" x2="316.09649122807014" y2="385" style="stroke: yellowgreen;"></line><line class="std" x1="437.19644428241986" y1="385" x2="316.09649122807014" y2="385" style="stroke: yellowgreen;"></line><circle class="std" cx="194.99653817372044" cy="385" r="1" style="fill: yellowgreen;"></circle><circle class="std" cx="437.19644428241986" cy="385" r="1" style="fill: yellowgreen;"></circle><text class="std" x="194.99653817372044" y="395" style="text-anchor: middle; font-size: 9px; font-family: sans-serif; stroke: green;">95% CI</text></svg>