<svg xmlns="http://www.w3.org/2000/svg" id="SVG" width="600" height="560"><text x="300" y="45" style="font-size: 17px; font-family: sans-seirf; stroke: black; text-anchor: middle;">Sales(y) : Advertise(x)  Scatter Plot</text><text x="-140" y="110" transform="rotate(-90 30 100)" style="font-size: 12px; font-family: sans-seirf; stroke: black; text-anchor: end;">Sales</text><text x="300" y="535" style="font-size: 12px; font-family: sans-seirf; stroke: black; text-anchor: middle;">Advertise</text><g transform="translate(90,490)" fill="none" font-size="10" font-family="sans-serif" text-anchor="middle"><path class="domain" stroke="#000" d="M0.5,6V0.5H420.5V6"></path><g class="tick" opacity="1" transform="translate(0.5,0)"><line stroke="#000" y2="6"></line><text fill="#000" y="9" dy="0.71em">3</text></g><g class="tick" opacity="1" transform="translate(42.5,0)"><line stroke="#000" y2="6"></line><text fill="#000" y="9" dy="0.71em">4</text></g><g class="tick" opacity="1" transform="translate(84.5,0)"><line stroke="#000" y2="6"></line><text fill="#000" y="9" dy="0.71em">5</text></g><g class="tick" opacity="1" transform="translate(126.5,0)"><line stroke="#000" y2="6"></line><text fill="#000" y="9" dy="0.71em">6</text></g><g class="tick" opacity="1" transform="translate(168.5,0)"><line stroke="#000" y2="6"></line><text fill="#000" y="9" dy="0.71em">7</text></g><g class="tick" opacity="1" transform="translate(210.5,0)"><line stroke="#000" y2="6"></line><text fill="#000" y="9" dy="0.71em">8</text></g><g class="tick" opacity="1" transform="translate(252.5,0)"><line stroke="#000" y2="6"></line><text fill="#000" y="9" dy="0.71em">9</text></g><g class="tick" opacity="1" transform="translate(294.5,0)"><line stroke="#000" y2="6"></line><text fill="#000" y="9" dy="0.71em">10</text></g><g class="tick" opacity="1" transform="translate(336.5,0)"><line stroke="#000" y2="6"></line><text fill="#000" y="9" dy="0.71em">11</text></g><g class="tick" opacity="1" transform="translate(378.5,0)"><line stroke="#000" y2="6"></line><text fill="#000" y="9" dy="0.71em">12</text></g><g class="tick" opacity="1" transform="translate(420.5,0)"><line stroke="#000" y2="6"></line><text fill="#000" y="9" dy="0.71em">13</text></g></g><g transform="translate(90,90)" fill="none" font-size="10" font-family="sans-serif" text-anchor="middle"><path class="domain" stroke="#000" d="M0.5,-6V0.5H420.5V-6"></path><g class="tick" opacity="1" transform="translate(0.5,0)"><line stroke="#000" y2="-6"></line><text fill="#000" y="-9" dy="0em">3</text></g><g class="tick" opacity="1" transform="translate(42.5,0)"><line stroke="#000" y2="-6"></line><text fill="#000" y="-9" dy="0em">4</text></g><g class="tick" opacity="1" transform="translate(84.5,0)"><line stroke="#000" y2="-6"></line><text fill="#000" y="-9" dy="0em">5</text></g><g class="tick" opacity="1" transform="translate(126.5,0)"><line stroke="#000" y2="-6"></line><text fill="#000" y="-9" dy="0em">6</text></g><g class="tick" opacity="1" transform="translate(168.5,0)"><line stroke="#000" y2="-6"></line><text fill="#000" y="-9" dy="0em">7</text></g><g class="tick" opacity="1" transform="translate(210.5,0)"><line stroke="#000" y2="-6"></line><text fill="#000" y="-9" dy="0em">8</text></g><g class="tick" opacity="1" transform="translate(252.5,0)"><line stroke="#000" y2="-6"></line><text fill="#000" y="-9" dy="0em">9</text></g><g class="tick" opacity="1" transform="translate(294.5,0)"><line stroke="#000" y2="-6"></line><text fill="#000" y="-9" dy="0em">10</text></g><g class="tick" opacity="1" transform="translate(336.5,0)"><line stroke="#000" y2="-6"></line><text fill="#000" y="-9" dy="0em">11</text></g><g class="tick" opacity="1" transform="translate(378.5,0)"><line stroke="#000" y2="-6"></line><text fill="#000" y="-9" dy="0em">12</text></g><g class="tick" opacity="1" transform="translate(420.5,0)"><line stroke="#000" y2="-6"></line><text fill="#000" y="-9" dy="0em">13</text></g></g><g transform="translate(90,90)" fill="none" font-size="10" font-family="sans-serif" text-anchor="end"><path class="domain" stroke="#000" d="M-6,400.5H0.5V0.5H-6"></path><g class="tick" opacity="1" transform="translate(0,375.73809523809524)"><line stroke="#000" x2="-6"></line><text fill="#000" x="-9" dy="0.32em">38</text></g><g class="tick" opacity="1" transform="translate(0,345.26190476190476)"><line stroke="#000" x2="-6"></line><text fill="#000" x="-9" dy="0.32em">40</text></g><g class="tick" opacity="1" transform="translate(0,314.7857142857143)"><line stroke="#000" x2="-6"></line><text fill="#000" x="-9" dy="0.32em">42</text></g><g class="tick" opacity="1" transform="translate(0,284.3095238095238)"><line stroke="#000" x2="-6"></line><text fill="#000" x="-9" dy="0.32em">44</text></g><g class="tick" opacity="1" transform="translate(0,253.83333333333334)"><line stroke="#000" x2="-6"></line><text fill="#000" x="-9" dy="0.32em">46</text></g><g class="tick" opacity="1" transform="translate(0,223.35714285714286)"><line stroke="#000" x2="-6"></line><text fill="#000" x="-9" dy="0.32em">48</text></g><g class="tick" opacity="1" transform="translate(0,192.88095238095235)"><line stroke="#000" x2="-6"></line><text fill="#000" x="-9" dy="0.32em">50</text></g><g class="tick" opacity="1" transform="translate(0,162.4047619047619)"><line stroke="#000" x2="-6"></line><text fill="#000" x="-9" dy="0.32em">52</text></g><g class="tick" opacity="1" transform="translate(0,131.92857142857144)"><line stroke="#000" x2="-6"></line><text fill="#000" x="-9" dy="0.32em">54</text></g><g class="tick" opacity="1" transform="translate(0,101.45238095238096)"><line stroke="#000" x2="-6"></line><text fill="#000" x="-9" dy="0.32em">56</text></g><g class="tick" opacity="1" transform="translate(0,70.97619047619048)"><line stroke="#000" x2="-6"></line><text fill="#000" x="-9" dy="0.32em">58</text></g><g class="tick" opacity="1" transform="translate(0,40.5)"><line stroke="#000" x2="-6"></line><text fill="#000" x="-9" dy="0.32em">60</text></g><g class="tick" opacity="1" transform="translate(0,10.023809523809518)"><line stroke="#000" x2="-6"></line><text fill="#000" x="-9" dy="0.32em">62</text></g></g><g transform="translate(510,90)" fill="none" font-size="10" font-family="sans-serif" text-anchor="start"><path class="domain" stroke="#000" d="M6,400.5H0.5V0.5H6"></path><g class="tick" opacity="1" transform="translate(0,375.73809523809524)"><line stroke="#000" x2="6"></line><text fill="#000" x="9" dy="0.32em">38</text></g><g class="tick" opacity="1" transform="translate(0,345.26190476190476)"><line stroke="#000" x2="6"></line><text fill="#000" x="9" dy="0.32em">40</text></g><g class="tick" opacity="1" transform="translate(0,314.7857142857143)"><line stroke="#000" x2="6"></line><text fill="#000" x="9" dy="0.32em">42</text></g><g class="tick" opacity="1" transform="translate(0,284.3095238095238)"><line stroke="#000" x2="6"></line><text fill="#000" x="9" dy="0.32em">44</text></g><g class="tick" opacity="1" transform="translate(0,253.83333333333334)"><line stroke="#000" x2="6"></line><text fill="#000" x="9" dy="0.32em">46</text></g><g class="tick" opacity="1" transform="translate(0,223.35714285714286)"><line stroke="#000" x2="6"></line><text fill="#000" x="9" dy="0.32em">48</text></g><g class="tick" opacity="1" transform="translate(0,192.88095238095235)"><line stroke="#000" x2="6"></line><text fill="#000" x="9" dy="0.32em">50</text></g><g class="tick" opacity="1" transform="translate(0,162.4047619047619)"><line stroke="#000" x2="6"></line><text fill="#000" x="9" dy="0.32em">52</text></g><g class="tick" opacity="1" transform="translate(0,131.92857142857144)"><line stroke="#000" x2="6"></line><text fill="#000" x="9" dy="0.32em">54</text></g><g class="tick" opacity="1" transform="translate(0,101.45238095238096)"><line stroke="#000" x2="6"></line><text fill="#000" x="9" dy="0.32em">56</text></g><g class="tick" opacity="1" transform="translate(0,70.97619047619048)"><line stroke="#000" x2="6"></line><text fill="#000" x="9" dy="0.32em">58</text></g><g class="tick" opacity="1" transform="translate(0,40.5)"><line stroke="#000" x2="6"></line><text fill="#000" x="9" dy="0.32em">60</text></g><g class="tick" opacity="1" transform="translate(0,10.023809523809518)"><line stroke="#000" x2="6"></line><text fill="#000" x="9" dy="0.32em">62</text></g></g><circle data-sheetrowid="0" class="datapoint" stroke="black" cx="132" cy="450" r="4" style="fill: rgb(0, 85, 255);"><title>(4,39)</title></circle><circle data-sheetrowid="1" class="datapoint" stroke="black" cx="216" cy="404.2857142857143" r="4" style="fill: rgb(0, 85, 255);"><title>(6,42)</title></circle><circle data-sheetrowid="2" class="datapoint" stroke="black" cx="216" cy="358.57142857142856" r="4" style="fill: rgb(0, 85, 255);"><title>(6,45)</title></circle><circle data-sheetrowid="3" class="datapoint" stroke="black" cx="300" cy="328.0952380952381" r="4" style="fill: rgb(0, 85, 255);"><title>(8,47)</title></circle><circle data-sheetrowid="4" class="datapoint" stroke="black" cx="300" cy="282.3809523809524" r="4" style="fill: rgb(0, 85, 255);"><title>(8,50)</title></circle><circle data-sheetrowid="5" class="datapoint" stroke="black" cx="342" cy="282.3809523809524" r="4" style="fill: rgb(0, 85, 255);"><title>(9,50)</title></circle><circle data-sheetrowid="6" class="datapoint" stroke="black" cx="342" cy="251.9047619047619" r="4" style="fill: rgb(0, 85, 255);"><title>(9,52)</title></circle><circle data-sheetrowid="7" class="datapoint" stroke="black" cx="384" cy="206.1904761904762" r="4" style="fill: rgb(0, 85, 255);"><title>(10,55)</title></circle><circle data-sheetrowid="8" class="datapoint" stroke="black" cx="468" cy="175.71428571428572" r="4" style="fill: rgb(0, 85, 255);"><title>(12,57)</title></circle><circle data-sheetrowid="9" class="datapoint" stroke="black" cx="468" cy="130" r="4" style="fill: rgb(0, 85, 255);"><title>(12,60)</title></circle><line class="reglabel" x1="132" y1="454.7934405550299" x2="468" y2="149.62787764112255" style="stroke: rgb(0, 85, 255);"></line><text class="reglabel" x="45" y="525" style="stroke: rgb(0, 85, 255);">y = (28.67)+(2.50)x</text><text class="reglabel" x="45" y="540" style="stroke: rgb(0, 85, 255);">r = 0.98  r² = 0.96</text><line class="regband" x1="132" y1="420.99533765978094" x2="135.36" y2="418.41103843634886" style="stroke: rgb(255, 69, 0);"></line><line class="regband" x1="132" y1="488.5915434502789" x2="135.36" y2="485.072531415433" style="stroke: rgb(255, 69, 0);"></line><line class="regband" x1="135.36" y1="418.41103843634886" x2="138.72" y2="415.8246273691615" style="stroke: rgb(255, 69, 0);"></line><line class="regband" x1="135.36" y1="485.072531415433" x2="138.72" y2="481.55563122434216" style="stroke: rgb(255, 69, 0);"></line><line class="regband" x1="138.72" y1="415.8246273691615" x2="142.08" y2="413.23601349057026" style="stroke: rgb(255, 69, 0);"></line><line class="regband" x1="138.72" y1="481.55563122434216" x2="142.08" y2="478.0409338446553" style="stroke: rgb(255, 69, 0);"></line><line class="regband" x1="142.08" y1="413.23601349057026" x2="145.44" y2="410.6451010015445" style="stroke: rgb(255, 69, 0);"></line><line class="regband" x1="142.08" y1="478.0409338446553" x2="145.44" y2="474.52853507540283" style="stroke: rgb(255, 69, 0);"></line><line class="regband" x1="145.44" y1="410.6451010015445" x2="148.8" y2="408.0517889849423" style="stroke: rgb(255, 69, 0);"></line><line class="regband" x1="145.44" y1="474.52853507540283" x2="148.8" y2="471.01853583372684" style="stroke: rgb(255, 69, 0);"></line><line class="regband" x1="148.8" y1="408.0517889849423" x2="152.16000000000003" y2="405.455971101991" style="stroke: rgb(255, 69, 0);"></line><line class="regband" x1="148.8" y1="471.01853583372684" x2="152.16000000000003" y2="467.5110424584001" style="stroke: rgb(255, 69, 0);"></line><line class="regband" x1="152.16000000000003" y1="405.455971101991" x2="155.52" y2="402.85753527130464" style="stroke: rgb(255, 69, 0);"></line><line class="regband" x1="152.16000000000003" y1="467.5110424584001" x2="155.52" y2="464.0061670308082" style="stroke: rgb(255, 69, 0);"></line><line class="regband" x1="155.52" y1="402.85753527130464" x2="158.88000000000002" y2="400.2563633298229" style="stroke: rgb(255, 69, 0);"></line><line class="regband" x1="155.52" y1="464.0061670308082" x2="158.88000000000002" y2="460.5040277140117" style="stroke: rgb(255, 69, 0);"></line><line class="regband" x1="158.88000000000002" y1="400.2563633298229" x2="162.24000000000004" y2="397.65233067512145" style="stroke: rgb(255, 69, 0);"></line><line class="regband" x1="158.88000000000002" y1="460.5040277140117" x2="162.24000000000004" y2="457.0047491104351" style="stroke: rgb(255, 69, 0);"></line><line class="regband" x1="162.24000000000004" y1="397.65233067512145" x2="165.60000000000002" y2="395.0453058886545" style="stroke: rgb(255, 69, 0);"></line><line class="regband" x1="162.24000000000004" y1="457.0047491104351" x2="165.60000000000002" y2="453.50846263862377" style="stroke: rgb(255, 69, 0);"></line><line class="regband" x1="165.60000000000002" y1="395.0453058886545" x2="168.96000000000004" y2="392.4351503396145" style="stroke: rgb(255, 69, 0);"></line><line class="regband" x1="165.60000000000002" y1="453.50846263862377" x2="168.96000000000004" y2="450.0153069293858" style="stroke: rgb(255, 69, 0);"></line><line class="regband" x1="168.96000000000004" y1="392.4351503396145" x2="172.32000000000005" y2="389.82171776926623" style="stroke: rgb(255, 69, 0);"></line><line class="regband" x1="168.96000000000004" y1="450.0153069293858" x2="172.32000000000005" y2="446.5254282414558" style="stroke: rgb(255, 69, 0);"></line><line class="regband" x1="172.32000000000005" y1="389.82171776926623" x2="175.68000000000004" y2="387.2048538558344" style="stroke: rgb(255, 69, 0);"></line><line class="regband" x1="172.32000000000005" y1="446.5254282414558" x2="175.68000000000004" y2="443.03898089660964" style="stroke: rgb(255, 69, 0);"></line><line class="regband" x1="175.68000000000004" y1="387.2048538558344" x2="179.04000000000005" y2="384.5843957602837" style="stroke: rgb(255, 69, 0);"></line><line class="regband" x1="175.68000000000004" y1="443.03898089660964" x2="179.04000000000005" y2="439.5561277338821" style="stroke: rgb(255, 69, 0);"></line><line class="regband" x1="179.04000000000005" y1="384.5843957602837" x2="182.40000000000003" y2="381.96017165367255" style="stroke: rgb(255, 69, 0);"></line><line class="regband" x1="179.04000000000005" y1="439.5561277338821" x2="182.40000000000003" y2="436.077040582215" style="stroke: rgb(255, 69, 0);"></line><line class="regband" x1="182.40000000000003" y1="381.96017165367255" x2="185.76000000000005" y2="379.33200022716" style="stroke: rgb(255, 69, 0);"></line><line class="regband" x1="182.40000000000003" y1="436.077040582215" x2="185.76000000000005" y2="432.6019007504495" style="stroke: rgb(255, 69, 0);"></line><line class="regband" x1="185.76000000000005" y1="379.33200022716" x2="189.12000000000006" y2="376.6996901862394" style="stroke: rgb(255, 69, 0);"></line><line class="regband" x1="185.76000000000005" y1="432.6019007504495" x2="189.12000000000006" y2="429.13089953309185" style="stroke: rgb(255, 69, 0);"></line><line class="regband" x1="189.12000000000006" y1="376.6996901862394" x2="192.48000000000008" y2="374.0630397313582" style="stroke: rgb(255, 69, 0);"></line><line class="regband" x1="189.12000000000006" y1="429.13089953309185" x2="192.48000000000008" y2="425.6642387296951" style="stroke: rgb(255, 69, 0);"></line><line class="regband" x1="192.48000000000008" y1="374.0630397313582" x2="195.84000000000006" y2="371.421836027778" style="stroke: rgb(255, 69, 0);"></line><line class="regband" x1="192.48000000000008" y1="425.6642387296951" x2="195.84000000000006" y2="422.202131174997" style="stroke: rgb(255, 69, 0);"></line><line class="regband" x1="195.84000000000006" y1="371.421836027778" x2="199.20000000000007" y2="368.7758546683564" style="stroke: rgb(255, 69, 0);"></line><line class="regband" x1="195.84000000000006" y1="422.202131174997" x2="199.20000000000007" y2="418.7448012761406" style="stroke: rgb(255, 69, 0);"></line><line class="regband" x1="199.20000000000007" y1="368.7758546683564" x2="202.56000000000006" y2="366.1248591338821" style="stroke: rgb(255, 69, 0);"></line><line class="regband" x1="199.20000000000007" y1="418.7448012761406" x2="202.56000000000006" y2="415.29248555233664" style="stroke: rgb(255, 69, 0);"></line><line class="regband" x1="202.56000000000006" y1="366.1248591338821" x2="205.92000000000007" y2="363.4686002567174" style="stroke: rgb(255, 69, 0);"></line><line class="regband" x1="202.56000000000006" y1="415.29248555233664" x2="205.92000000000007" y2="411.8454331712231" style="stroke: rgb(255, 69, 0);"></line><line class="regband" x1="205.92000000000007" y1="363.4686002567174" x2="209.28000000000006" y2="360.8068156947685" style="stroke: rgb(255, 69, 0);"></line><line class="regband" x1="205.92000000000007" y1="411.8454331712231" x2="209.28000000000006" y2="408.40390647489403" style="stroke: rgb(255, 69, 0);"></line><line class="regband" x1="209.28000000000006" y1="360.8068156947685" x2="212.64000000000007" y2="358.1392294242644" style="stroke: rgb(255, 69, 0);"></line><line class="regband" x1="209.28000000000006" y1="408.40390647489403" x2="212.64000000000007" y2="404.96818148711986" style="stroke: rgb(255, 69, 0);"></line><line class="regband" x1="212.64000000000007" y1="358.1392294242644" x2="216.00000000000006" y2="355.4655512614546" style="stroke: rgb(255, 69, 0);"></line><line class="regband" x1="212.64000000000007" y1="404.96818148711986" x2="216.00000000000006" y2="401.5385483916514" style="stroke: rgb(255, 69, 0);"></line><line class="regband" x1="216.00000000000006" y1="355.4655512614546" x2="219.36000000000007" y2="352.7854764251539" style="stroke: rgb(255, 69, 0);"></line><line class="regband" x1="216.00000000000006" y1="401.5385483916514" x2="219.36000000000007" y2="398.1153119696741" style="stroke: rgb(255, 69, 0);"></line><line class="regband" x1="219.36000000000007" y1="352.7854764251539" x2="222.72000000000008" y2="350.09868515405884" style="stroke: rgb(255, 69, 0);"></line><line class="regband" x1="219.36000000000007" y1="398.1153119696741" x2="222.72000000000008" y2="394.6987919824909" style="stroke: rgb(255, 69, 0);"></line><line class="regband" x1="222.72000000000008" y1="350.09868515405884" x2="226.0800000000001" y2="347.4048423949136" style="stroke: rgb(255, 69, 0);"></line><line class="regband" x1="222.72000000000008" y1="394.6987919824909" x2="226.0800000000001" y2="391.28932348335815" style="stroke: rgb(255, 69, 0);"></line><line class="regband" x1="226.0800000000001" y1="347.4048423949136" x2="229.44000000000008" y2="344.7035975798838" style="stroke: rgb(255, 69, 0);"></line><line class="regband" x1="226.0800000000001" y1="391.28932348335815" x2="229.44000000000008" y2="387.88725704010966" style="stroke: rgb(255, 69, 0);"></line><line class="regband" x1="229.44000000000008" y1="344.7035975798838" x2="232.8000000000001" y2="341.9945845138643" style="stroke: rgb(255, 69, 0);"></line><line class="regband" x1="229.44000000000008" y1="387.88725704010966" x2="232.8000000000001" y2="384.4929588478512" style="stroke: rgb(255, 69, 0);"></line><line class="regband" x1="232.8000000000001" y1="341.9945845138643" x2="236.16000000000008" y2="339.27742139481063" style="stroke: rgb(255, 69, 0);"></line><line class="regband" x1="232.8000000000001" y1="384.4929588478512" x2="236.16000000000008" y2="381.10681070862654" style="stroke: rgb(255, 69, 0);"></line><line class="regband" x1="236.16000000000008" y1="339.27742139481063" x2="239.5200000000001" y2="336.55171099247764" style="stroke: rgb(255, 69, 0);"></line><line class="regband" x1="236.16000000000008" y1="381.10681070862654" x2="239.5200000000001" y2="377.7292098526813" style="stroke: rgb(255, 69, 0);"></line><line class="regband" x1="239.5200000000001" y1="336.55171099247764" x2="242.8800000000001" y2="333.8170410130143" style="stroke: rgb(255, 69, 0);"></line><line class="regband" x1="239.5200000000001" y1="377.7292098526813" x2="242.8800000000001" y2="374.3605685738666" style="stroke: rgb(255, 69, 0);"></line><line class="regband" x1="242.8800000000001" y1="333.8170410130143" x2="246.2400000000001" y2="331.0729846785703" style="stroke: rgb(255, 69, 0);"></line><line class="regband" x1="242.8800000000001" y1="374.3605685738666" x2="246.2400000000001" y2="371.0013136500324" style="stroke: rgb(255, 69, 0);"></line><line class="regband" x1="246.2400000000001" y1="331.0729846785703" x2="249.6000000000001" y2="328.31910155220567" style="stroke: rgb(255, 69, 0);"></line><line class="regband" x1="246.2400000000001" y1="371.0013136500324" x2="249.6000000000001" y2="367.6518855181188" style="stroke: rgb(255, 69, 0);"></line><line class="regband" x1="249.6000000000001" y1="328.31910155220567" x2="252.9600000000001" y2="325.5549386387447" style="stroke: rgb(255, 69, 0);"></line><line class="regband" x1="249.6000000000001" y1="367.6518855181188" x2="252.9600000000001" y2="364.3127371733017" style="stroke: rgb(255, 69, 0);"></line><line class="regband" x1="252.9600000000001" y1="325.5549386387447" x2="256.3200000000001" y2="322.7800317915226" style="stroke: rgb(255, 69, 0);"></line><line class="regband" x1="252.9600000000001" y1="364.3127371733017" x2="256.3200000000001" y2="360.9843327622458" style="stroke: rgb(255, 69, 0);"></line><line class="regband" x1="256.3200000000001" y1="322.7800317915226" x2="259.6800000000001" y2="319.99390745295517" style="stroke: rgb(255, 69, 0);"></line><line class="regband" x1="256.3200000000001" y1="360.9843327622458" x2="259.6800000000001" y2="357.66714584253504" style="stroke: rgb(255, 69, 0);"></line><line class="regband" x1="259.6800000000001" y1="319.99390745295517" x2="263.04000000000013" y2="317.1960847532554" style="stroke: rgb(255, 69, 0);"></line><line class="regband" x1="259.6800000000001" y1="357.66714584253504" x2="263.04000000000013" y2="354.36165728395656" style="stroke: rgb(255, 69, 0);"></line><line class="regband" x1="263.04000000000013" y1="317.1960847532554" x2="266.4000000000001" y2="314.3860779861342" style="stroke: rgb(255, 69, 0);"></line><line class="regband" x1="263.04000000000013" y1="354.36165728395656" x2="266.4000000000001" y2="351.0683527927997" style="stroke: rgb(255, 69, 0);"></line><line class="regband" x1="266.4000000000001" y1="314.3860779861342" x2="269.7600000000001" y2="311.56339947276945" style="stroke: rgb(255, 69, 0);"></line><line class="regband" x1="266.4000000000001" y1="351.0683527927997" x2="269.7600000000001" y2="347.7877200478862" style="stroke: rgb(255, 69, 0);"></line><line class="regband" x1="269.7600000000001" y1="311.56339947276945" x2="273.1200000000001" y2="308.7275628155305" style="stroke: rgb(255, 69, 0);"></line><line class="regband" x1="269.7600000000001" y1="347.7877200478862" x2="273.1200000000001" y2="344.52024544684684" style="stroke: rgb(255, 69, 0);"></line><line class="regband" x1="273.1200000000001" y1="308.7275628155305" x2="276.48000000000013" y2="305.87808653091054" style="stroke: rgb(255, 69, 0);"></line><line class="regband" x1="273.1200000000001" y1="344.52024544684684" x2="276.48000000000013" y2="341.2664104731889" style="stroke: rgb(255, 69, 0);"></line><line class="regband" x1="276.48000000000013" y1="305.87808653091054" x2="279.84000000000015" y2="303.014498036959" style="stroke: rgb(255, 69, 0);"></line><line class="regband" x1="276.48000000000013" y1="341.2664104731889" x2="279.84000000000015" y2="338.02668770886237" style="stroke: rgb(255, 69, 0);"></line><line class="regband" x1="279.84000000000015" y1="303.014498036959" x2="283.20000000000016" y2="300.1363379545763" style="stroke: rgb(255, 69, 0);"></line><line class="regband" x1="279.84000000000015" y1="338.02668770886237" x2="283.20000000000016" y2="334.8015365329667" style="stroke: rgb(255, 69, 0);"></line><line class="regband" x1="283.20000000000016" y1="300.1363379545763" x2="286.5600000000001" y2="297.24316466486374" style="stroke: rgb(255, 69, 0);"></line><line class="regband" x1="283.20000000000016" y1="334.8015365329667" x2="286.5600000000001" y2="331.5913985644012" style="stroke: rgb(255, 69, 0);"></line><line class="regband" x1="286.5600000000001" y1="297.24316466486374" x2="289.92000000000013" y2="294.3345590471331" style="stroke: rgb(255, 69, 0);"></line><line class="regband" x1="286.5600000000001" y1="331.5913985644012" x2="289.92000000000013" y2="328.3966929238538" style="stroke: rgb(255, 69, 0);"></line><line class="regband" x1="289.92000000000013" y1="294.3345590471331" x2="293.28000000000014" y2="291.410129305175" style="stroke: rgb(255, 69, 0);"></line><line class="regband" x1="289.92000000000013" y1="328.3966929238538" x2="293.28000000000014" y2="325.21781140753365" style="stroke: rgb(255, 69, 0);"></line><line class="regband" x1="293.28000000000014" y1="291.410129305175" x2="296.64000000000016" y2="288.46951577414575" style="stroke: rgb(255, 69, 0);"></line><line class="regband" x1="293.28000000000014" y1="325.21781140753365" x2="296.64000000000016" y2="322.05511368028465" style="stroke: rgb(255, 69, 0);"></line><line class="regband" x1="296.64000000000016" y1="288.46951577414575" x2="300.0000000000001" y2="285.51239558826967" style="stroke: rgb(255, 69, 0);"></line><line class="regband" x1="296.64000000000016" y1="322.05511368028465" x2="300.0000000000001" y2="318.9089226078828" style="stroke: rgb(255, 69, 0);"></line><line class="regband" x1="300.0000000000001" y1="285.51239558826967" x2="303.3600000000002" y2="282.5384870817211" style="stroke: rgb(255, 69, 0);"></line><line class="regband" x1="300.0000000000001" y1="318.9089226078828" x2="303.3600000000002" y2="315.779519856153" style="stroke: rgb(255, 69, 0);"></line><line class="regband" x1="303.3600000000002" y1="282.5384870817211" x2="306.72000000000014" y2="279.54755379269284" style="stroke: rgb(255, 69, 0);"></line><line class="regband" x1="303.3600000000002" y1="315.779519856153" x2="306.72000000000014" y2="312.66714188690304" style="stroke: rgb(255, 69, 0);"></line><line class="regband" x1="306.72000000000014" y1="279.54755379269284" x2="310.08000000000015" y2="276.53940794459555" style="stroke: rgb(255, 69, 0);"></line><line class="regband" x1="306.72000000000014" y1="312.66714188690304" x2="310.08000000000015" y2="309.5719764767223" style="stroke: rgb(255, 69, 0);"></line><line class="regband" x1="310.08000000000015" y1="276.53940794459555" x2="313.44000000000017" y2="273.51391328900513" style="stroke: rgb(255, 69, 0);"></line><line class="regband" x1="310.08000000000015" y1="309.5719764767223" x2="313.44000000000017" y2="306.4941598740347" style="stroke: rgb(255, 69, 0);"></line><line class="regband" x1="313.44000000000017" y1="273.51391328900513" x2="316.8000000000002" y2="270.4709872122472" style="stroke: rgb(255, 69, 0);"></line><line class="regband" x1="313.44000000000017" y1="306.4941598740347" x2="316.8000000000002" y2="303.43377469251436" style="stroke: rgb(255, 69, 0);"></line><line class="regband" x1="316.8000000000002" y1="270.4709872122472" x2="320.1600000000002" y2="267.41060203072686" style="stroke: rgb(255, 69, 0);"></line><line class="regband" x1="316.8000000000002" y1="303.43377469251436" x2="320.1600000000002" y2="300.39084861575645" style="stroke: rgb(255, 69, 0);"></line><line class="regband" x1="320.1600000000002" y1="267.41060203072686" x2="323.52000000000015" y2="264.3327854280393" style="stroke: rgb(255, 69, 0);"></line><line class="regband" x1="320.1600000000002" y1="300.39084861575645" x2="323.52000000000015" y2="297.36535396016603" style="stroke: rgb(255, 69, 0);"></line><line class="regband" x1="323.52000000000015" y1="264.3327854280393" x2="326.88000000000017" y2="261.23762001785843" style="stroke: rgb(255, 69, 0);"></line><line class="regband" x1="323.52000000000015" y1="297.36535396016603" x2="326.88000000000017" y2="294.35720811206863" style="stroke: rgb(255, 69, 0);"></line><line class="regband" x1="326.88000000000017" y1="261.23762001785843" x2="330.2400000000002" y2="258.12524204860847" style="stroke: rgb(255, 69, 0);"></line><line class="regband" x1="326.88000000000017" y1="294.35720811206863" x2="330.2400000000002" y2="291.3662748230404" style="stroke: rgb(255, 69, 0);"></line><line class="regband" x1="330.2400000000002" y1="258.12524204860847" x2="333.6000000000002" y2="254.99583929687887" style="stroke: rgb(255, 69, 0);"></line><line class="regband" x1="330.2400000000002" y1="291.3662748230404" x2="333.6000000000002" y2="288.39236631649203" style="stroke: rgb(255, 69, 0);"></line><line class="regband" x1="333.6000000000002" y1="254.99583929687887" x2="336.96000000000015" y2="251.84964822447694" style="stroke: rgb(255, 69, 0);"></line><line class="regband" x1="333.6000000000002" y1="288.39236631649203" x2="336.96000000000015" y2="285.43524613061584" style="stroke: rgb(255, 69, 0);"></line><line class="regband" x1="336.96000000000015" y1="251.84964822447694" x2="340.32000000000016" y2="248.68695049722785" style="stroke: rgb(255, 69, 0);"></line><line class="regband" x1="336.96000000000015" y1="285.43524613061584" x2="340.32000000000016" y2="282.49463259958645" style="stroke: rgb(255, 69, 0);"></line><line class="regband" x1="340.32000000000016" y1="248.68695049722785" x2="343.6800000000002" y2="245.50806898090786" style="stroke: rgb(255, 69, 0);"></line><line class="regband" x1="340.32000000000016" y1="282.49463259958645" x2="343.6800000000002" y2="279.5702028576285" style="stroke: rgb(255, 69, 0);"></line><line class="regband" x1="343.6800000000002" y1="245.50806898090786" x2="347.0400000000002" y2="242.31336334036033" style="stroke: rgb(255, 69, 0);"></line><line class="regband" x1="343.6800000000002" y1="279.5702028576285" x2="347.0400000000002" y2="276.661597239898" style="stroke: rgb(255, 69, 0);"></line><line class="regband" x1="347.0400000000002" y1="242.31336334036033" x2="350.4000000000002" y2="239.10322537179485" style="stroke: rgb(255, 69, 0);"></line><line class="regband" x1="347.0400000000002" y1="276.661597239898" x2="350.4000000000002" y2="273.76842395018525" style="stroke: rgb(255, 69, 0);"></line><line class="regband" x1="350.4000000000002" y1="239.10322537179485" x2="353.7600000000002" y2="235.87807419589925" style="stroke: rgb(255, 69, 0);"></line><line class="regband" x1="350.4000000000002" y1="273.76842395018525" x2="353.7600000000002" y2="270.89026386780256" style="stroke: rgb(255, 69, 0);"></line><line class="regband" x1="353.7600000000002" y1="235.87807419589925" x2="357.12000000000023" y2="232.63835143157274" style="stroke: rgb(255, 69, 0);"></line><line class="regband" x1="353.7600000000002" y1="270.89026386780256" x2="357.12000000000023" y2="268.02667537385105" style="stroke: rgb(255, 69, 0);"></line><line class="regband" x1="357.12000000000023" y1="232.63835143157274" x2="360.4800000000002" y2="229.38451645791463" style="stroke: rgb(255, 69, 0);"></line><line class="regband" x1="357.12000000000023" y1="268.02667537385105" x2="360.4800000000002" y2="265.17719908923095" style="stroke: rgb(255, 69, 0);"></line><line class="regband" x1="360.4800000000002" y1="229.38451645791463" x2="363.8400000000002" y2="226.1170418568753" style="stroke: rgb(255, 69, 0);"></line><line class="regband" x1="360.4800000000002" y1="265.17719908923095" x2="363.8400000000002" y2="262.341362431992" style="stroke: rgb(255, 69, 0);"></line><line class="regband" x1="363.8400000000002" y1="226.1170418568753" x2="367.2000000000002" y2="222.83640911196187" style="stroke: rgb(255, 69, 0);"></line><line class="regband" x1="363.8400000000002" y1="262.341362431992" x2="367.2000000000002" y2="259.5186839186274" style="stroke: rgb(255, 69, 0);"></line><line class="regband" x1="367.2000000000002" y1="222.83640911196187" x2="370.56000000000023" y2="219.54310462080502" style="stroke: rgb(255, 69, 0);"></line><line class="regband" x1="367.2000000000002" y1="259.5186839186274" x2="370.56000000000023" y2="256.70867715150627" style="stroke: rgb(255, 69, 0);"></line><line class="regband" x1="370.56000000000023" y1="219.54310462080502" x2="373.9200000000002" y2="216.2376160622266" style="stroke: rgb(255, 69, 0);"></line><line class="regband" x1="370.56000000000023" y1="256.70867715150627" x2="373.9200000000002" y2="253.91085445180644" style="stroke: rgb(255, 69, 0);"></line><line class="regband" x1="373.9200000000002" y1="216.2376160622266" x2="377.2800000000002" y2="212.92042914251567" style="stroke: rgb(255, 69, 0);"></line><line class="regband" x1="373.9200000000002" y1="253.91085445180644" x2="377.2800000000002" y2="251.12473011323908" style="stroke: rgb(255, 69, 0);"></line><line class="regband" x1="377.2800000000002" y1="212.92042914251567" x2="380.6400000000002" y2="209.5920247314599" style="stroke: rgb(255, 69, 0);"></line><line class="regband" x1="377.2800000000002" y1="251.12473011323908" x2="380.6400000000002" y2="248.34982326601687" style="stroke: rgb(255, 69, 0);"></line><line class="regband" x1="380.6400000000002" y1="209.5920247314599" x2="384.0000000000002" y2="206.25287638664264" style="stroke: rgb(255, 69, 0);"></line><line class="regband" x1="380.6400000000002" y1="248.34982326601687" x2="384.0000000000002" y2="245.58566035255592" style="stroke: rgb(255, 69, 0);"></line><line class="regband" x1="384.0000000000002" y1="206.25287638664264" x2="387.36000000000024" y2="202.90344825472914" style="stroke: rgb(255, 69, 0);"></line><line class="regband" x1="384.0000000000002" y1="245.58566035255592" x2="387.36000000000024" y2="242.83177722619118" style="stroke: rgb(255, 69, 0);"></line><line class="regband" x1="387.36000000000024" y1="202.90344825472914" x2="390.7200000000002" y2="199.54419333089498" style="stroke: rgb(255, 69, 0);"></line><line class="regband" x1="387.36000000000024" y1="242.83177722619118" x2="390.7200000000002" y2="240.08772089174727" style="stroke: rgb(255, 69, 0);"></line><line class="regband" x1="390.7200000000002" y1="199.54419333089498" x2="394.08000000000027" y2="196.1755520520801" style="stroke: rgb(255, 69, 0);"></line><line class="regband" x1="390.7200000000002" y1="240.08772089174727" x2="394.08000000000027" y2="237.35305091228392" style="stroke: rgb(255, 69, 0);"></line><line class="regband" x1="394.08000000000027" y1="196.1755520520801" x2="397.4400000000002" y2="192.79795119613493" style="stroke: rgb(255, 69, 0);"></line><line class="regband" x1="394.08000000000027" y1="237.35305091228392" x2="397.4400000000002" y2="234.62734050995084" style="stroke: rgb(255, 69, 0);"></line><line class="regband" x1="397.4400000000002" y1="192.79795119613493" x2="400.80000000000024" y2="189.4118030569104" style="stroke: rgb(255, 69, 0);"></line><line class="regband" x1="397.4400000000002" y1="234.62734050995084" x2="400.80000000000024" y2="231.91017739089733" style="stroke: rgb(255, 69, 0);"></line><line class="regband" x1="400.80000000000024" y1="189.4118030569104" x2="404.16000000000025" y2="186.01750486465187" style="stroke: rgb(255, 69, 0);"></line><line class="regband" x1="400.80000000000024" y1="231.91017739089733" x2="404.16000000000025" y2="229.20116432487788" style="stroke: rgb(255, 69, 0);"></line><line class="regband" x1="404.16000000000025" y1="186.01750486465187" x2="407.52000000000027" y2="182.61543842140338" style="stroke: rgb(255, 69, 0);"></line><line class="regband" x1="404.16000000000025" y1="229.20116432487788" x2="407.52000000000027" y2="226.4999195098481" style="stroke: rgb(255, 69, 0);"></line><line class="regband" x1="407.52000000000027" y1="182.61543842140338" x2="410.8800000000002" y2="179.20596992227058" style="stroke: rgb(255, 69, 0);"></line><line class="regband" x1="407.52000000000027" y1="226.4999195098481" x2="410.8800000000002" y2="223.8060767507027" style="stroke: rgb(255, 69, 0);"></line><line class="regband" x1="410.8800000000002" y1="179.20596992227058" x2="414.24000000000024" y2="175.78944993508748" style="stroke: rgb(255, 69, 0);"></line><line class="regband" x1="410.8800000000002" y1="223.8060767507027" x2="414.24000000000024" y2="221.1192854796077" style="stroke: rgb(255, 69, 0);"></line><line class="regband" x1="414.24000000000024" y1="175.78944993508748" x2="417.60000000000025" y2="172.36621351310998" style="stroke: rgb(255, 69, 0);"></line><line class="regband" x1="414.24000000000024" y1="221.1192854796077" x2="417.60000000000025" y2="218.43921064330698" style="stroke: rgb(255, 69, 0);"></line><line class="regband" x1="417.60000000000025" y1="172.36621351310998" x2="420.96000000000026" y2="168.9365804176415" style="stroke: rgb(255, 69, 0);"></line><line class="regband" x1="417.60000000000025" y1="218.43921064330698" x2="420.96000000000026" y2="215.7655324804972" style="stroke: rgb(255, 69, 0);"></line><line class="regband" x1="420.96000000000026" y1="168.9365804176415" x2="424.3200000000003" y2="165.50085542986744" style="stroke: rgb(255, 69, 0);"></line><line class="regband" x1="420.96000000000026" y1="215.7655324804972" x2="424.3200000000003" y2="213.0979462099932" style="stroke: rgb(255, 69, 0);"></line><line class="regband" x1="424.3200000000003" y1="165.50085542986744" x2="427.68000000000023" y2="162.0593287335384" style="stroke: rgb(255, 69, 0);"></line><line class="regband" x1="424.3200000000003" y1="213.0979462099932" x2="427.68000000000023" y2="210.43616164804428" style="stroke: rgb(255, 69, 0);"></line><line class="regband" x1="427.68000000000023" y1="162.0593287335384" x2="431.0400000000003" y2="158.61227635242489" style="stroke: rgb(255, 69, 0);"></line><line class="regband" x1="427.68000000000023" y1="210.43616164804428" x2="431.0400000000003" y2="207.77990277087935" style="stroke: rgb(255, 69, 0);"></line><line class="regband" x1="431.0400000000003" y1="158.61227635242489" x2="434.40000000000026" y2="155.15996062862098" style="stroke: rgb(255, 69, 0);"></line><line class="regband" x1="431.0400000000003" y1="207.77990277087935" x2="434.40000000000026" y2="205.12890723640527" style="stroke: rgb(255, 69, 0);"></line><line class="regband" x1="434.40000000000026" y1="155.15996062862098" x2="437.7600000000003" y2="151.70263072976462" style="stroke: rgb(255, 69, 0);"></line><line class="regband" x1="434.40000000000026" y1="205.12890723640527" x2="437.7600000000003" y2="202.48292587698364" style="stroke: rgb(255, 69, 0);"></line><line class="regband" x1="437.7600000000003" y1="151.70263072976462" x2="441.12000000000023" y2="148.24052317506653" style="stroke: rgb(255, 69, 0);"></line><line class="regband" x1="437.7600000000003" y1="202.48292587698364" x2="441.12000000000023" y2="199.84172217340347" style="stroke: rgb(255, 69, 0);"></line><line class="regband" x1="441.12000000000023" y1="148.24052317506653" x2="444.4800000000003" y2="144.77386237166968" style="stroke: rgb(255, 69, 0);"></line><line class="regband" x1="441.12000000000023" y1="199.84172217340347" x2="444.4800000000003" y2="197.20507171852205" style="stroke: rgb(255, 69, 0);"></line><line class="regband" x1="444.4800000000003" y1="144.77386237166968" x2="447.84000000000026" y2="141.30286115431215" style="stroke: rgb(255, 69, 0);"></line><line class="regband" x1="444.4800000000003" y1="197.20507171852205" x2="447.84000000000026" y2="194.5727616776016" style="stroke: rgb(255, 69, 0);"></line><line class="regband" x1="447.84000000000026" y1="141.30286115431215" x2="451.2000000000003" y2="137.8277213225465" style="stroke: rgb(255, 69, 0);"></line><line class="regband" x1="447.84000000000026" y1="194.5727616776016" x2="451.2000000000003" y2="191.94459025108893" style="stroke: rgb(255, 69, 0);"></line><line class="regband" x1="451.2000000000003" y1="137.8277213225465" x2="454.5600000000003" y2="134.34863417087945" style="stroke: rgb(255, 69, 0);"></line><line class="regband" x1="451.2000000000003" y1="191.94459025108893" x2="454.5600000000003" y2="189.32036614447776" style="stroke: rgb(255, 69, 0);"></line><line class="regband" x1="454.5600000000003" y1="134.34863417087945" x2="457.9200000000003" y2="130.865781008152" style="stroke: rgb(255, 69, 0);"></line><line class="regband" x1="454.5600000000003" y1="189.32036614447776" x2="457.9200000000003" y2="186.69990804892723" style="stroke: rgb(255, 69, 0);"></line><line class="regband" x1="457.9200000000003" y1="130.865781008152" x2="461.2800000000003" y2="127.37933366330577" style="stroke: rgb(255, 69, 0);"></line><line class="regband" x1="457.9200000000003" y1="186.69990804892723" x2="461.2800000000003" y2="184.08304413549536" style="stroke: rgb(255, 69, 0);"></line><line class="regband" x1="461.2800000000003" y1="127.37933366330577" x2="464.64000000000027" y2="123.88945497537566" style="stroke: rgb(255, 69, 0);"></line><line class="regband" x1="461.2800000000003" y1="184.08304413549536" x2="464.64000000000027" y2="181.4696115651472" style="stroke: rgb(255, 69, 0);"></line><line class="regband" x1="464.64000000000027" y1="123.88945497537566" x2="468.00000000000034" y2="120.39629926613765" style="stroke: rgb(255, 69, 0);"></line><line class="regband" x1="464.64000000000027" y1="181.4696115651472" x2="468.00000000000034" y2="178.85945601610706" style="stroke: rgb(255, 69, 0);"></line></svg>