<svg xmlns="http://www.w3.org/2000/svg" id="chart" width="600" height="400"> <text x="310" y="45" style="font-family: sans-serif; font-size: 12pt; stroke: black; text-anchor: middle;">Friedman S Distribution</text><text x="310" y="60" style="font-family: sans-serif; font-size: 9pt; stroke: black; text-anchor: middle;"></text><text x="310" y="75" style="font-family: sans-serif; font-size: 9pt; stroke: green; text-anchor: middle;">k = 3, n = 5</text><g transform="translate(60,90)" fill="none" font-size="10" font-family="sans-serif" text-anchor="end"><path class="domain" stroke="#000" d="M-6,0.5H0.5V260.5H-6"></path><g class="tick" opacity="1" transform="translate(0,12.735294117647072)"><line stroke="#000" x2="-6"></line><text fill="#000" x="-9" dy="0.32em">0.30</text></g><g class="tick" opacity="1" transform="translate(0,29.252941176470557)"><line stroke="#000" x2="-6"></line><text fill="#000" x="-9" dy="0.32em">0.28</text></g><g class="tick" opacity="1" transform="translate(0,45.7705882352941)"><line stroke="#000" x2="-6"></line><text fill="#000" x="-9" dy="0.32em">0.26</text></g><g class="tick" opacity="1" transform="translate(0,62.28823529411764)"><line stroke="#000" x2="-6"></line><text fill="#000" x="-9" dy="0.32em">0.24</text></g><g class="tick" opacity="1" transform="translate(0,78.80588235294118)"><line stroke="#000" x2="-6"></line><text fill="#000" x="-9" dy="0.32em">0.22</text></g><g class="tick" opacity="1" transform="translate(0,95.32352941176472)"><line stroke="#000" x2="-6"></line><text fill="#000" x="-9" dy="0.32em">0.20</text></g><g class="tick" opacity="1" transform="translate(0,111.84117647058824)"><line stroke="#000" x2="-6"></line><text fill="#000" x="-9" dy="0.32em">0.18</text></g><g class="tick" opacity="1" transform="translate(0,128.35882352941178)"><line stroke="#000" x2="-6"></line><text fill="#000" x="-9" dy="0.32em">0.16</text></g><g class="tick" opacity="1" transform="translate(0,144.8764705882353)"><line stroke="#000" x2="-6"></line><text fill="#000" x="-9" dy="0.32em">0.14</text></g><g class="tick" opacity="1" transform="translate(0,161.3941176470588)"><line stroke="#000" x2="-6"></line><text fill="#000" x="-9" dy="0.32em">0.12</text></g><g class="tick" opacity="1" transform="translate(0,177.91176470588238)"><line stroke="#000" x2="-6"></line><text fill="#000" x="-9" dy="0.32em">0.10</text></g><g class="tick" opacity="1" transform="translate(0,194.4294117647059)"><line stroke="#000" x2="-6"></line><text fill="#000" x="-9" dy="0.32em">0.08</text></g><g class="tick" opacity="1" transform="translate(0,210.9470588235294)"><line stroke="#000" x2="-6"></line><text fill="#000" x="-9" dy="0.32em">0.06</text></g><g class="tick" opacity="1" transform="translate(0,227.46470588235294)"><line stroke="#000" x2="-6"></line><text fill="#000" x="-9" dy="0.32em">0.04</text></g><g class="tick" opacity="1" transform="translate(0,243.9823529411765)"><line stroke="#000" x2="-6"></line><text fill="#000" x="-9" dy="0.32em">0.02</text></g><g class="tick" opacity="1" transform="translate(0,260.5)"><line stroke="#000" x2="-6"></line><text fill="#000" x="-9" dy="0.32em">0.00</text></g></g><line x1="60" y1="350" x2="560" y2="350" style="stroke: black;"></line><text class="barname" x="77.83333333333333" y="370" transform="rotate(30,77.83333333333333,370)  " style="font-family: sans-serif; font-size: 8pt; text-anchor: middle;">0.000</text><text class="barname" x="119.5" y="370" transform="rotate(30,119.5,370)  " style="font-family: sans-serif; font-size: 8pt; text-anchor: middle;">0.400</text><text class="barname" x="161.16666666666666" y="370" transform="rotate(30,161.16666666666666,370)  " style="font-family: sans-serif; font-size: 8pt; text-anchor: middle;">1.200</text><text class="barname" x="202.83333333333331" y="370" transform="rotate(30,202.83333333333331,370)  " style="font-family: sans-serif; font-size: 8pt; text-anchor: middle;">1.600</text><text class="barname" x="244.5" y="370" transform="rotate(30,244.5,370)  " style="font-family: sans-serif; font-size: 8pt; text-anchor: middle;">2.800</text><text class="barname" x="286.16666666666663" y="370" transform="rotate(30,286.16666666666663,370)  " style="font-family: sans-serif; font-size: 8pt; text-anchor: middle;">3.600</text><text class="barname" x="327.8333333333333" y="370" transform="rotate(30,327.8333333333333,370)  " style="font-family: sans-serif; font-size: 8pt; text-anchor: middle;">4.800</text><text class="barname" x="369.49999999999994" y="370" transform="rotate(30,369.49999999999994,370)  " style="font-family: sans-serif; font-size: 8pt; text-anchor: middle;">5.200</text><text class="barname" x="411.16666666666663" y="370" transform="rotate(30,411.16666666666663,370)  " style="font-family: sans-serif; font-size: 8pt; text-anchor: middle;">6.400</text><text class="barname" x="452.8333333333333" y="370" transform="rotate(30,452.8333333333333,370)  " style="font-family: sans-serif; font-size: 8pt; text-anchor: middle;">7.600</text><text class="barname" x="494.49999999999994" y="370" transform="rotate(30,494.49999999999994,370)  " style="font-family: sans-serif; font-size: 8pt; text-anchor: middle;">8.400</text><text class="barname" x="536.1666666666666" y="370" transform="rotate(30,536.1666666666666,370)  " style="font-family: sans-serif; font-size: 8pt; text-anchor: middle;">10.000</text><rect height="38.23529411764706" width="27.777777777777775" x="66.94444444444444" y="311.7647058823529" style="fill: rgb(0, 85, 255);"></rect><rect height="216.66666666666666" width="27.777777777777775" x="108.61111111111111" y="133.33333333333334" style="fill: rgb(0, 85, 255);"></rect><rect height="140.19607843137254" width="27.777777777777775" x="150.27777777777777" y="209.80392156862746" style="fill: rgb(0, 85, 255);"></rect><rect height="127.45098039215685" width="27.777777777777775" x="191.94444444444446" y="222.54901960784315" style="fill: rgb(0, 85, 255);"></rect><rect height="152.94117647058823" width="27.777777777777775" x="233.6111111111111" y="197.05882352941177" style="fill: rgb(0, 85, 255);"></rect><rect height="47.794117647058826" width="27.777777777777775" x="275.27777777777777" y="302.20588235294116" style="fill: rgb(0, 85, 255);"></rect><rect height="25.49019607843137" width="27.777777777777775" x="316.94444444444446" y="324.5098039215686" style="fill: rgb(0, 85, 255);"></rect><rect height="44.607843137254896" width="27.777777777777775" x="358.6111111111111" y="305.3921568627451" style="fill: rgb(0, 85, 255);"></rect><rect height="12.745098039215685" width="27.777777777777775" x="400.27777777777777" y="337.2549019607843" style="fill: rgb(0, 85, 255);"></rect><rect height="12.745098039215685" width="27.777777777777775" x="441.94444444444446" y="337.2549019607843" style="fill: rgb(0, 85, 255);"></rect><rect height="6.372549019607843" width="27.777777777777775" x="483.6111111111111" y="343.62745098039215" style="fill: rgb(0, 85, 255);"></rect><rect height="0.6372549019607843" width="27.777777777777775" x="525.2777777777777" y="349.3627450980392" style="fill: rgb(0, 85, 255);"></rect></svg>