<svg xmlns="http://www.w3.org/2000/svg" id="SVG" width="600" height="560"><text x="290" y="40" style="font-size: 17px; font-family: sans-seirf; stroke: black; text-anchor: middle;">Factor A - Factor B Mean Graph</text><text x="55" y="280" style="font-size: 12px; font-family: sans-seirf; stroke: black; text-anchor: end;">Yield</text><rect x="80" y="80" width="420" height="400" style="fill: white; stroke: black;"></rect><g class="axis" transform="translate(80, 80) " fill="none" font-size="10" font-family="sans-serif" text-anchor="end"><path class="domain" stroke="#000" d="M-6,400.5H0.5V0.5H-6"></path><g class="tick" opacity="1" transform="translate(0,390.42248062015506)"><line stroke="#000" x2="-6"></line><text fill="#000" x="-9" dy="0.32em">35</text></g><g class="tick" opacity="1" transform="translate(0,351.66279069767444)"><line stroke="#000" x2="-6"></line><text fill="#000" x="-9" dy="0.32em">40</text></g><g class="tick" opacity="1" transform="translate(0,312.9031007751938)"><line stroke="#000" x2="-6"></line><text fill="#000" x="-9" dy="0.32em">45</text></g><g class="tick" opacity="1" transform="translate(0,274.14341085271315)"><line stroke="#000" x2="-6"></line><text fill="#000" x="-9" dy="0.32em">50</text></g><g class="tick" opacity="1" transform="translate(0,235.38372093023256)"><line stroke="#000" x2="-6"></line><text fill="#000" x="-9" dy="0.32em">55</text></g><g class="tick" opacity="1" transform="translate(0,196.62403100775194)"><line stroke="#000" x2="-6"></line><text fill="#000" x="-9" dy="0.32em">60</text></g><g class="tick" opacity="1" transform="translate(0,157.86434108527132)"><line stroke="#000" x2="-6"></line><text fill="#000" x="-9" dy="0.32em">65</text></g><g class="tick" opacity="1" transform="translate(0,119.10465116279067)"><line stroke="#000" x2="-6"></line><text fill="#000" x="-9" dy="0.32em">70</text></g><g class="tick" opacity="1" transform="translate(0,80.34496124031011)"><line stroke="#000" x2="-6"></line><text fill="#000" x="-9" dy="0.32em">75</text></g><g class="tick" opacity="1" transform="translate(0,41.58527131782944)"><line stroke="#000" x2="-6"></line><text fill="#000" x="-9" dy="0.32em">80</text></g><g class="tick" opacity="1" transform="translate(0,2.82558139534882)"><line stroke="#000" x2="-6"></line><text fill="#000" x="-9" dy="0.32em">85</text></g></g><text x="510" y="80" style="font-size: 12px; font-family: sans-seirf; stroke: black; text-anchor: start;">FactorB : Fertilizer</text><text x="510" y="100" style="font-size: 12px; font-family: sans-seirf; stroke: rgb(255, 69, 0); text-anchor: start;">Level1 (1)</text><text x="510" y="120" style="font-size: 12px; font-family: sans-seirf; stroke: rgb(0, 170, 0); text-anchor: start;">Level2 (2)</text><text x="510" y="140" style="font-size: 12px; font-family: sans-seirf; stroke: rgb(255, 228, 0); text-anchor: start;">Level3 (3)</text><text x="510" y="160" style="font-size: 12px; font-family: sans-seirf; stroke: rgb(255, 0, 221); text-anchor: start;">Level4 (4)</text><text x="70" y="500" style="font-size: 12px; font-family: sans-seirf; stroke: black; text-anchor: middle;">FactorA : Rice</text><text x="150" y="500" style="font-size: 12px; font-family: sans-seirf; stroke: black; text-anchor: middle;">Level1 (1)</text><circle class="circle" tooltip="circle" cx="150" cy="245.11627906976744" r="3" style="fill: rgb(255, 69, 0);"></circle><circle class="circle" tooltip="circle" cx="150" cy="229.6124031007752" r="3" style="fill: rgb(255, 69, 0);"></circle><circle class="circle" tooltip="circle" cx="150" cy="198.60465116279067" r="3" style="fill: rgb(255, 69, 0);"></circle><circle class="circle" tooltip="circle" cx="150" cy="237.36434108527132" r="3" style="fill: rgb(0, 170, 0);"></circle><circle class="circle" tooltip="circle" cx="150" cy="252.86821705426357" r="3" style="fill: rgb(0, 170, 0);"></circle><circle class="circle" tooltip="circle" cx="150" cy="291.6279069767442" r="3" style="fill: rgb(0, 170, 0);"></circle><circle class="circle" tooltip="circle" cx="150" cy="283.8759689922481" r="3" style="fill: rgb(255, 228, 0);"></circle><circle class="circle" tooltip="circle" cx="150" cy="214.10852713178298" r="3" style="fill: rgb(255, 228, 0);"></circle><circle class="circle" tooltip="circle" cx="150" cy="237.36434108527132" r="3" style="fill: rgb(255, 228, 0);"></circle><circle class="circle" tooltip="circle" cx="150" cy="291.6279069767442" r="3" style="fill: rgb(255, 228, 0);"></circle><circle class="circle" tooltip="circle" cx="150" cy="353.6434108527132" r="3" style="fill: rgb(255, 228, 0);"></circle><circle class="circle" tooltip="circle" cx="150" cy="361.3953488372093" r="3" style="fill: rgb(255, 228, 0);"></circle><text x="290" y="500" style="font-size: 12px; font-family: sans-seirf; stroke: black; text-anchor: middle;">Level2 (2)</text><circle class="circle" tooltip="circle" cx="290" cy="183.10077519379843" r="3" style="fill: rgb(255, 69, 0);"></circle><circle class="circle" tooltip="circle" cx="290" cy="113.33333333333331" r="3" style="fill: rgb(255, 69, 0);"></circle><circle class="circle" tooltip="circle" cx="290" cy="245.11627906976744" r="3" style="fill: rgb(255, 69, 0);"></circle><circle class="circle" tooltip="circle" cx="290" cy="299.37984496124034" r="3" style="fill: rgb(0, 170, 0);"></circle><circle class="circle" tooltip="circle" cx="290" cy="407.90697674418607" r="3" style="fill: rgb(0, 170, 0);"></circle><circle class="circle" tooltip="circle" cx="290" cy="338.1395348837209" r="3" style="fill: rgb(0, 170, 0);"></circle><circle class="circle" tooltip="circle" cx="290" cy="229.6124031007752" r="3" style="fill: rgb(255, 228, 0);"></circle><circle class="circle" tooltip="circle" cx="290" cy="190.85271317829455" r="3" style="fill: rgb(255, 228, 0);"></circle><circle class="circle" tooltip="circle" cx="290" cy="283.8759689922481" r="3" style="fill: rgb(255, 228, 0);"></circle><circle class="circle" tooltip="circle" cx="290" cy="299.37984496124034" r="3" style="fill: rgb(255, 228, 0);"></circle><circle class="circle" tooltip="circle" cx="290" cy="268.37209302325584" r="3" style="fill: rgb(255, 228, 0);"></circle><circle class="circle" tooltip="circle" cx="290" cy="330.38759689922483" r="3" style="fill: rgb(255, 228, 0);"></circle><text x="430" y="500" style="font-size: 12px; font-family: sans-seirf; stroke: black; text-anchor: middle;">Level3 (3)</text><circle class="circle" tooltip="circle" cx="430" cy="167.59689922480618" r="3" style="fill: rgb(255, 69, 0);"></circle><circle class="circle" tooltip="circle" cx="430" cy="345.8914728682171" r="3" style="fill: rgb(255, 69, 0);"></circle><circle class="circle" tooltip="circle" cx="430" cy="237.36434108527132" r="3" style="fill: rgb(255, 69, 0);"></circle><circle class="circle" tooltip="circle" cx="430" cy="376.8992248062016" r="3" style="fill: rgb(0, 170, 0);"></circle><circle class="circle" tooltip="circle" cx="430" cy="291.6279069767442" r="3" style="fill: rgb(0, 170, 0);"></circle><circle class="circle" tooltip="circle" cx="430" cy="221.8604651162791" r="3" style="fill: rgb(0, 170, 0);"></circle><circle class="circle" tooltip="circle" cx="430" cy="291.6279069767442" r="3" style="fill: rgb(255, 228, 0);"></circle><circle class="circle" tooltip="circle" cx="430" cy="392.4031007751938" r="3" style="fill: rgb(255, 228, 0);"></circle><circle class="circle" tooltip="circle" cx="430" cy="415.6589147286822" r="3" style="fill: rgb(255, 228, 0);"></circle><circle class="circle" tooltip="circle" cx="430" cy="330.38759689922483" r="3" style="fill: rgb(255, 228, 0);"></circle><circle class="circle" tooltip="circle" cx="430" cy="283.8759689922481" r="3" style="fill: rgb(255, 228, 0);"></circle><circle class="circle" tooltip="circle" cx="430" cy="446.6666666666667" r="3" style="fill: rgb(255, 228, 0);"></circle><circle class="std" cx="150" cy="224.4444444444444" r="5" style="fill: rgb(255, 69, 0);"></circle><line class="std" x1="150" y1="224.4444444444444" x2="290" y2="180.51679586563313" style="stroke-width: 3px; stroke: rgb(255, 69, 0);"></line><circle class="std" cx="290" cy="180.51679586563313" r="5" style="fill: rgb(255, 69, 0);"></circle><circle class="std" cx="290" cy="180.51679586563313" r="5" style="fill: rgb(255, 69, 0);"></circle><line class="std" x1="290" y1="180.51679586563313" x2="430" y2="250.28423772609816" style="stroke-width: 3px; stroke: rgb(255, 69, 0);"></line><circle class="std" cx="430" cy="250.28423772609816" r="5" style="fill: rgb(255, 69, 0);"></circle><circle class="std" cx="150" cy="260.62015503875966" r="5" style="fill: rgb(0, 170, 0);"></circle><line class="std" x1="150" y1="260.62015503875966" x2="290" y2="348.47545219638243" style="stroke-width: 3px; stroke: rgb(0, 170, 0);"></line><circle class="std" cx="290" cy="348.47545219638243" r="5" style="fill: rgb(0, 170, 0);"></circle><circle class="std" cx="290" cy="348.47545219638243" r="5" style="fill: rgb(0, 170, 0);"></circle><line class="std" x1="290" y1="348.47545219638243" x2="430" y2="296.79586563307487" style="stroke-width: 3px; stroke: rgb(0, 170, 0);"></line><circle class="std" cx="430" cy="296.79586563307487" r="5" style="fill: rgb(0, 170, 0);"></circle><circle class="std" cx="150" cy="245.11627906976744" r="5" style="fill: rgb(255, 228, 0);"></circle><line class="std" x1="150" y1="245.11627906976744" x2="290" y2="234.78036175710596" style="stroke-width: 3px; stroke: rgb(255, 228, 0);"></line><circle class="std" cx="290" cy="234.78036175710596" r="5" style="fill: rgb(255, 228, 0);"></circle><circle class="std" cx="290" cy="234.78036175710596" r="5" style="fill: rgb(255, 228, 0);"></circle><line class="std" x1="290" y1="234.78036175710596" x2="430" y2="366.56330749354004" style="stroke-width: 3px; stroke: rgb(255, 228, 0);"></line><circle class="std" cx="430" cy="366.56330749354004" r="5" style="fill: rgb(255, 228, 0);"></circle><circle class="std" cx="150" cy="335.55555555555554" r="5" style="fill: rgb(255, 0, 221);"></circle><line class="std" x1="150" y1="335.55555555555554" x2="290" y2="299.37984496124034" style="stroke-width: 3px; stroke: rgb(255, 0, 221);"></line><circle class="std" cx="290" cy="299.37984496124034" r="5" style="fill: rgb(255, 0, 221);"></circle><circle class="std" cx="290" cy="299.37984496124034" r="5" style="fill: rgb(255, 0, 221);"></circle><line class="std" x1="290" y1="299.37984496124034" x2="430" y2="353.6434108527132" style="stroke-width: 3px; stroke: rgb(255, 0, 221);"></line><circle class="std" cx="430" cy="353.6434108527132" r="5" style="fill: rgb(255, 0, 221);"></circle></svg>