<svg xmlns="http://www.w3.org/2000/svg" id="SVG" width="600" height="560"><text x="290" y="50" style="font-size: 17px; font-family: sans-seirf; stroke: black; text-anchor: middle;"> Bar Graph</text><text x="290" y="530" style="font-size: 12px; font-family: sans-seirf; stroke: black; text-anchor: middle;">Country</text><text x="10" y="95" transform="rotate(-90 30 100)" style="font-size: 12px; font-family: sans-seirf; stroke: black; text-anchor: end;">Frequency</text><line x1="85.83333333333333" x2="85.83333333333333" y1="480" y2="485" style="stroke: black; stroke-width: 0.5;"></line><text x="82.33333333333333" y="485" transform="rotate(90,82.33333333333333,485)  " style="text-anchor: start; font-family: sans-serif; font-size: 9px;">Australia</text><line x1="97.5" x2="97.5" y1="480" y2="485" style="stroke: black; stroke-width: 0.5;"></line><text x="94" y="485" transform="rotate(90,94,485)  " style="text-anchor: start; font-family: sans-serif; font-size: 9px;">Austria</text><line x1="109.16666666666666" x2="109.16666666666666" y1="480" y2="485" style="stroke: black; stroke-width: 0.5;"></line><text x="105.66666666666666" y="485" transform="rotate(90,105.66666666666666,485)  " style="text-anchor: start; font-family: sans-serif; font-size: 9px;">Belgium</text><line x1="120.83333333333333" x2="120.83333333333333" y1="480" y2="485" style="stroke: black; stroke-width: 0.5;"></line><text x="117.33333333333333" y="485" transform="rotate(90,117.33333333333333,485)  " style="text-anchor: start; font-family: sans-serif; font-size: 9px;">Canada</text><line x1="132.5" x2="132.5" y1="480" y2="485" style="stroke: black; stroke-width: 0.5;"></line><text x="129" y="485" transform="rotate(90,129,485)  " style="text-anchor: start; font-family: sans-serif; font-size: 9px;">Chile</text><line x1="144.16666666666666" x2="144.16666666666666" y1="480" y2="485" style="stroke: black; stroke-width: 0.5;"></line><text x="140.66666666666666" y="485" transform="rotate(90,140.66666666666666,485)  " style="text-anchor: start; font-family: sans-serif; font-size: 9px;">Czech Republic</text><line x1="155.83333333333331" x2="155.83333333333331" y1="480" y2="485" style="stroke: black; stroke-width: 0.5;"></line><text x="152.33333333333331" y="485" transform="rotate(90,152.33333333333331,485)  " style="text-anchor: start; font-family: sans-serif; font-size: 9px;">Denmark</text><line x1="167.5" x2="167.5" y1="480" y2="485" style="stroke: black; stroke-width: 0.5;"></line><text x="164" y="485" transform="rotate(90,164,485)  " style="text-anchor: start; font-family: sans-serif; font-size: 9px;">Estonia</text><line x1="179.16666666666666" x2="179.16666666666666" y1="480" y2="485" style="stroke: black; stroke-width: 0.5;"></line><text x="175.66666666666666" y="485" transform="rotate(90,175.66666666666666,485)  " style="text-anchor: start; font-family: sans-serif; font-size: 9px;">Finland</text><line x1="190.83333333333331" x2="190.83333333333331" y1="480" y2="485" style="stroke: black; stroke-width: 0.5;"></line><text x="187.33333333333331" y="485" transform="rotate(90,187.33333333333331,485)  " style="text-anchor: start; font-family: sans-serif; font-size: 9px;">France</text><line x1="202.5" x2="202.5" y1="480" y2="485" style="stroke: black; stroke-width: 0.5;"></line><text x="199" y="485" transform="rotate(90,199,485)  " style="text-anchor: start; font-family: sans-serif; font-size: 9px;">Germany</text><line x1="214.16666666666663" x2="214.16666666666663" y1="480" y2="485" style="stroke: black; stroke-width: 0.5;"></line><text x="210.66666666666663" y="485" transform="rotate(90,210.66666666666663,485)  " style="text-anchor: start; font-family: sans-serif; font-size: 9px;">Greece</text><line x1="225.83333333333331" x2="225.83333333333331" y1="480" y2="485" style="stroke: black; stroke-width: 0.5;"></line><text x="222.33333333333331" y="485" transform="rotate(90,222.33333333333331,485)  " style="text-anchor: start; font-family: sans-serif; font-size: 9px;">Hungary</text><line x1="237.5" x2="237.5" y1="480" y2="485" style="stroke: black; stroke-width: 0.5;"></line><text x="234" y="485" transform="rotate(90,234,485)  " style="text-anchor: start; font-family: sans-serif; font-size: 9px;">Iceland</text><line x1="249.16666666666663" x2="249.16666666666663" y1="480" y2="485" style="stroke: black; stroke-width: 0.5;"></line><text x="245.66666666666663" y="485" transform="rotate(90,245.66666666666663,485)  " style="text-anchor: start; font-family: sans-serif; font-size: 9px;">Ireland</text><line x1="260.8333333333333" x2="260.8333333333333" y1="480" y2="485" style="stroke: black; stroke-width: 0.5;"></line><text x="257.3333333333333" y="485" transform="rotate(90,257.3333333333333,485)  " style="text-anchor: start; font-family: sans-serif; font-size: 9px;">Israel</text><line x1="272.5" x2="272.5" y1="480" y2="485" style="stroke: black; stroke-width: 0.5;"></line><text x="269" y="485" transform="rotate(90,269,485)  " style="text-anchor: start; font-family: sans-serif; font-size: 9px;">Italy</text><line x1="284.16666666666663" x2="284.16666666666663" y1="480" y2="485" style="stroke: black; stroke-width: 0.5;"></line><text x="280.66666666666663" y="485" transform="rotate(90,280.66666666666663,485)  " style="text-anchor: start; font-family: sans-serif; font-size: 9px;">Japan</text><line x1="295.8333333333333" x2="295.8333333333333" y1="480" y2="485" style="stroke: black; stroke-width: 0.5;"></line><text x="292.3333333333333" y="485" transform="rotate(90,292.3333333333333,485)  " style="text-anchor: start; font-family: sans-serif; font-size: 9px;">Korea</text><line x1="307.5" x2="307.5" y1="480" y2="485" style="stroke: black; stroke-width: 0.5;"></line><text x="304" y="485" transform="rotate(90,304,485)  " style="text-anchor: start; font-family: sans-serif; font-size: 9px;">Latvia</text><line x1="319.16666666666663" x2="319.16666666666663" y1="480" y2="485" style="stroke: black; stroke-width: 0.5;"></line><text x="315.66666666666663" y="485" transform="rotate(90,315.66666666666663,485)  " style="text-anchor: start; font-family: sans-serif; font-size: 9px;">Lithuania</text><line x1="330.8333333333333" x2="330.8333333333333" y1="480" y2="485" style="stroke: black; stroke-width: 0.5;"></line><text x="327.3333333333333" y="485" transform="rotate(90,327.3333333333333,485)  " style="text-anchor: start; font-family: sans-serif; font-size: 9px;">Luxembourg</text><line x1="342.49999999999994" x2="342.49999999999994" y1="480" y2="485" style="stroke: black; stroke-width: 0.5;"></line><text x="338.99999999999994" y="485" transform="rotate(90,338.99999999999994,485)  " style="text-anchor: start; font-family: sans-serif; font-size: 9px;">Mexico</text><line x1="354.16666666666663" x2="354.16666666666663" y1="480" y2="485" style="stroke: black; stroke-width: 0.5;"></line><text x="350.66666666666663" y="485" transform="rotate(90,350.66666666666663,485)  " style="text-anchor: start; font-family: sans-serif; font-size: 9px;">Netherlands</text><line x1="365.8333333333333" x2="365.8333333333333" y1="480" y2="485" style="stroke: black; stroke-width: 0.5;"></line><text x="362.3333333333333" y="485" transform="rotate(90,362.3333333333333,485)  " style="text-anchor: start; font-family: sans-serif; font-size: 9px;">New Zealand</text><line x1="377.49999999999994" x2="377.49999999999994" y1="480" y2="485" style="stroke: black; stroke-width: 0.5;"></line><text x="373.99999999999994" y="485" transform="rotate(90,373.99999999999994,485)  " style="text-anchor: start; font-family: sans-serif; font-size: 9px;">Norway</text><line x1="389.16666666666663" x2="389.16666666666663" y1="480" y2="485" style="stroke: black; stroke-width: 0.5;"></line><text x="385.66666666666663" y="485" transform="rotate(90,385.66666666666663,485)  " style="text-anchor: start; font-family: sans-serif; font-size: 9px;">Poland</text><line x1="400.8333333333333" x2="400.8333333333333" y1="480" y2="485" style="stroke: black; stroke-width: 0.5;"></line><text x="397.3333333333333" y="485" transform="rotate(90,397.3333333333333,485)  " style="text-anchor: start; font-family: sans-serif; font-size: 9px;">Portugal</text><line x1="412.49999999999994" x2="412.49999999999994" y1="480" y2="485" style="stroke: black; stroke-width: 0.5;"></line><text x="408.99999999999994" y="485" transform="rotate(90,408.99999999999994,485)  " style="text-anchor: start; font-family: sans-serif; font-size: 9px;">Slovak Republic</text><line x1="424.16666666666663" x2="424.16666666666663" y1="480" y2="485" style="stroke: black; stroke-width: 0.5;"></line><text x="420.66666666666663" y="485" transform="rotate(90,420.66666666666663,485)  " style="text-anchor: start; font-family: sans-serif; font-size: 9px;">Slovenia</text><line x1="435.8333333333333" x2="435.8333333333333" y1="480" y2="485" style="stroke: black; stroke-width: 0.5;"></line><text x="432.3333333333333" y="485" transform="rotate(90,432.3333333333333,485)  " style="text-anchor: start; font-family: sans-serif; font-size: 9px;">Spain</text><line x1="447.49999999999994" x2="447.49999999999994" y1="480" y2="485" style="stroke: black; stroke-width: 0.5;"></line><text x="443.99999999999994" y="485" transform="rotate(90,443.99999999999994,485)  " style="text-anchor: start; font-family: sans-serif; font-size: 9px;">Sweden</text><line x1="459.16666666666663" x2="459.16666666666663" y1="480" y2="485" style="stroke: black; stroke-width: 0.5;"></line><text x="455.66666666666663" y="485" transform="rotate(90,455.66666666666663,485)  " style="text-anchor: start; font-family: sans-serif; font-size: 9px;">Switzerland</text><line x1="470.8333333333333" x2="470.8333333333333" y1="480" y2="485" style="stroke: black; stroke-width: 0.5;"></line><text x="467.3333333333333" y="485" transform="rotate(90,467.3333333333333,485)  " style="text-anchor: start; font-family: sans-serif; font-size: 9px;">Turkey</text><line x1="482.49999999999994" x2="482.49999999999994" y1="480" y2="485" style="stroke: black; stroke-width: 0.5;"></line><text x="478.99999999999994" y="485" transform="rotate(90,478.99999999999994,485)  " style="text-anchor: start; font-family: sans-serif; font-size: 9px;">United Kingdom</text><line x1="494.16666666666663" x2="494.16666666666663" y1="480" y2="485" style="stroke: black; stroke-width: 0.5;"></line><text x="490.66666666666663" y="485" transform="rotate(90,490.66666666666663,485)  " style="text-anchor: start; font-family: sans-serif; font-size: 9px;">United States</text><g transform="translate(80,80)" fill="none" font-size="10" font-family="sans-serif" text-anchor="end"><path class="domain" stroke="#000" d="M-6,400.5H0.5V0.5H-6"></path><g class="tick" opacity="1" transform="translate(0,400.5)"><line stroke="#000" x2="-6"></line><text fill="#000" x="-9" dy="0.32em">0</text></g><g class="tick" opacity="1" transform="translate(0,358.48319327731093)"><line stroke="#000" x2="-6"></line><text fill="#000" x="-9" dy="0.32em">10</text></g><g class="tick" opacity="1" transform="translate(0,316.46638655462186)"><line stroke="#000" x2="-6"></line><text fill="#000" x="-9" dy="0.32em">20</text></g><g class="tick" opacity="1" transform="translate(0,274.4495798319328)"><line stroke="#000" x2="-6"></line><text fill="#000" x="-9" dy="0.32em">30</text></g><g class="tick" opacity="1" transform="translate(0,232.4327731092437)"><line stroke="#000" x2="-6"></line><text fill="#000" x="-9" dy="0.32em">40</text></g><g class="tick" opacity="1" transform="translate(0,190.4159663865546)"><line stroke="#000" x2="-6"></line><text fill="#000" x="-9" dy="0.32em">50</text></g><g class="tick" opacity="1" transform="translate(0,148.39915966386556)"><line stroke="#000" x2="-6"></line><text fill="#000" x="-9" dy="0.32em">60</text></g><g class="tick" opacity="1" transform="translate(0,106.38235294117652)"><line stroke="#000" x2="-6"></line><text fill="#000" x="-9" dy="0.32em">70</text></g><g class="tick" opacity="1" transform="translate(0,64.3655462184874)"><line stroke="#000" x2="-6"></line><text fill="#000" x="-9" dy="0.32em">80</text></g><g class="tick" opacity="1" transform="translate(0,22.348739495798327)"><line stroke="#000" x2="-6"></line><text fill="#000" x="-9" dy="0.32em">90</text></g></g><line class="line" x1="80" x2="80" y1="80" y2="480" style="stroke: black;"></line><line class="line" x1="500" x2="500" y1="80" y2="480" style="stroke: black;"></line><line class="line" x1="80" x2="500" y1="80" y2="80" style="stroke: black;"></line><line class="line" x1="80" x2="500" y1="480" y2="480" style="stroke: black;"></line><rect class="bar" height="347.05882352941177" width="6.999999999999999" x="82.33333333333333" y="132.94117647058823" style="fill: rgb(0, 85, 255);"></rect><rect class="bar" height="343.2773109243698" width="6.999999999999999" x="94" y="136.72268907563023" style="fill: rgb(0, 85, 255);"></rect><rect class="bar" height="342.85714285714283" width="6.999999999999999" x="105.66666666666666" y="137.14285714285717" style="fill: rgb(0, 85, 255);"></rect><rect class="bar" height="344.5378151260504" width="6.999999999999999" x="117.33333333333333" y="135.46218487394958" style="fill: rgb(0, 85, 255);"></rect><rect class="bar" height="336.9747899159664" width="6.999999999999999" x="129" y="143.02521008403357" style="fill: rgb(0, 85, 255);"></rect><rect class="bar" height="332.35294117647055" width="6.999999999999999" x="140.66666666666666" y="147.64705882352945" style="fill: rgb(0, 85, 255);"></rect><rect class="bar" height="341.1764705882353" width="6.999999999999999" x="152.33333333333331" y="138.8235294117647" style="fill: rgb(0, 85, 255);"></rect><rect class="bar" height="328.5714285714286" width="6.999999999999999" x="164" y="151.4285714285714" style="fill: rgb(0, 85, 255);"></rect><rect class="bar" height="343.2773109243698" width="6.999999999999999" x="175.66666666666666" y="136.72268907563023" style="fill: rgb(0, 85, 255);"></rect><rect class="bar" height="347.05882352941177" width="6.999999999999999" x="187.33333333333331" y="132.94117647058823" style="fill: rgb(0, 85, 255);"></rect><rect class="bar" height="340.75630252100837" width="6.999999999999999" x="199" y="139.24369747899163" style="fill: rgb(0, 85, 255);"></rect><rect class="bar" height="342.0168067226891" width="6.999999999999999" x="210.66666666666663" y="137.98319327731087" style="fill: rgb(0, 85, 255);"></rect><rect class="bar" height="318.9075630252101" width="6.999999999999999" x="222.33333333333331" y="161.0924369747899" style="fill: rgb(0, 85, 255);"></rect><rect class="bar" height="347.4789915966387" width="6.999999999999999" x="234" y="132.5210084033613" style="fill: rgb(0, 85, 255);"></rect><rect class="bar" height="345.37815126050424" width="6.999999999999999" x="245.66666666666663" y="134.62184873949576" style="fill: rgb(0, 85, 255);"></rect><rect class="bar" height="347.05882352941177" width="6.999999999999999" x="257.3333333333333" y="132.94117647058823" style="fill: rgb(0, 85, 255);"></rect><rect class="bar" height="348.73949579831935" width="6.999999999999999" x="269" y="131.26050420168065" style="fill: rgb(0, 85, 255);"></rect><rect class="bar" height="353.78151260504205" width="6.999999999999999" x="280.66666666666663" y="126.21848739495795" style="fill: rgb(0, 85, 255);"></rect><rect class="bar" height="347.4789915966387" width="6.999999999999999" x="292.3333333333333" y="132.5210084033613" style="fill: rgb(0, 85, 255);"></rect><rect class="bar" height="314.2857142857143" width="6.999999999999999" x="304" y="165.71428571428572" style="fill: rgb(0, 85, 255);"></rect><rect class="bar" height="317.6470588235294" width="6.999999999999999" x="315.66666666666663" y="162.3529411764706" style="fill: rgb(0, 85, 255);"></rect><rect class="bar" height="345.37815126050424" width="6.999999999999999" x="327.3333333333333" y="134.62184873949576" style="fill: rgb(0, 85, 255);"></rect><rect class="bar" height="316.8067226890757" width="6.999999999999999" x="338.99999999999994" y="163.19327731092432" style="fill: rgb(0, 85, 255);"></rect><rect class="bar" height="343.69747899159665" width="6.999999999999999" x="350.66666666666663" y="136.30252100840335" style="fill: rgb(0, 85, 255);"></rect><rect class="bar" height="344.1176470588236" width="6.999999999999999" x="362.3333333333333" y="135.8823529411764" style="fill: rgb(0, 85, 255);"></rect><rect class="bar" height="347.4789915966387" width="6.999999999999999" x="373.99999999999994" y="132.5210084033613" style="fill: rgb(0, 85, 255);"></rect><rect class="bar" height="327.3109243697479" width="6.999999999999999" x="385.66666666666663" y="152.6890756302521" style="fill: rgb(0, 85, 255);"></rect><rect class="bar" height="342.436974789916" width="6.999999999999999" x="397.3333333333333" y="137.563025210084" style="fill: rgb(0, 85, 255);"></rect><rect class="bar" height="324.78991596638656" width="6.999999999999999" x="408.99999999999994" y="155.21008403361344" style="fill: rgb(0, 85, 255);"></rect><rect class="bar" height="340.75630252100837" width="6.999999999999999" x="420.66666666666663" y="139.24369747899163" style="fill: rgb(0, 85, 255);"></rect><rect class="bar" height="350.42016806722694" width="6.999999999999999" x="432.3333333333333" y="129.57983193277306" style="fill: rgb(0, 85, 255);"></rect><rect class="bar" height="346.6386554621849" width="6.999999999999999" x="443.99999999999994" y="133.3613445378151" style="fill: rgb(0, 85, 255);"></rect><rect class="bar" height="351.26050420168065" width="6.999999999999999" x="455.66666666666663" y="128.73949579831935" style="fill: rgb(0, 85, 255);"></rect><rect class="bar" height="328.1512605042017" width="6.999999999999999" x="467.3333333333333" y="151.84873949579833" style="fill: rgb(0, 85, 255);"></rect><rect class="bar" height="341.5966386554622" width="6.999999999999999" x="478.99999999999994" y="138.4033613445378" style="fill: rgb(0, 85, 255);"></rect><rect class="bar" height="330.25210084033614" width="6.999999999999999" x="490.66666666666663" y="149.74789915966386" style="fill: rgb(0, 85, 255);"></rect></svg>