<svg xmlns="http://www.w3.org/2000/svg" id="SVG" width="600" height="560" xlink="http://www.w3.org/1999/xlink"><text x="290" y="50" style="font-size: 17px; font-family: sans-seirf; stroke: black; text-anchor: middle;">OtterLength  Histogram</text><g class="axis" transform="translate(80, 80) " fill="none" font-size="10" font-family="sans-serif" text-anchor="end"><path class="domain" stroke="#000" d="M-6,400.5H0.5V0.5H-6"></path><g class="tick" opacity="1" transform="translate(0,400.5)"><line stroke="#000" x2="-6"></line><text fill="#000" x="-9" dy="0.32em">0</text></g><g class="tick" opacity="1" transform="translate(0,369.7307692307692)"><line stroke="#000" x2="-6"></line><text fill="#000" x="-9" dy="0.32em">1</text></g><g class="tick" opacity="1" transform="translate(0,338.96153846153845)"><line stroke="#000" x2="-6"></line><text fill="#000" x="-9" dy="0.32em">2</text></g><g class="tick" opacity="1" transform="translate(0,308.1923076923077)"><line stroke="#000" x2="-6"></line><text fill="#000" x="-9" dy="0.32em">3</text></g><g class="tick" opacity="1" transform="translate(0,277.4230769230769)"><line stroke="#000" x2="-6"></line><text fill="#000" x="-9" dy="0.32em">4</text></g><g class="tick" opacity="1" transform="translate(0,246.65384615384613)"><line stroke="#000" x2="-6"></line><text fill="#000" x="-9" dy="0.32em">5</text></g><g class="tick" opacity="1" transform="translate(0,215.8846153846154)"><line stroke="#000" x2="-6"></line><text fill="#000" x="-9" dy="0.32em">6</text></g><g class="tick" opacity="1" transform="translate(0,185.1153846153846)"><line stroke="#000" x2="-6"></line><text fill="#000" x="-9" dy="0.32em">7</text></g><g class="tick" opacity="1" transform="translate(0,154.34615384615384)"><line stroke="#000" x2="-6"></line><text fill="#000" x="-9" dy="0.32em">8</text></g><g class="tick" opacity="1" transform="translate(0,123.5769230769231)"><line stroke="#000" x2="-6"></line><text fill="#000" x="-9" dy="0.32em">9</text></g><g class="tick" opacity="1" transform="translate(0,92.80769230769226)"><line stroke="#000" x2="-6"></line><text fill="#000" x="-9" dy="0.32em">10</text></g><g class="tick" opacity="1" transform="translate(0,62.03846153846155)"><line stroke="#000" x2="-6"></line><text fill="#000" x="-9" dy="0.32em">11</text></g><g class="tick" opacity="1" transform="translate(0,31.269230769230774)"><line stroke="#000" x2="-6"></line><text fill="#000" x="-9" dy="0.32em">12</text></g><g class="tick" opacity="1" transform="translate(0,0.5)"><line stroke="#000" x2="-6"></line><text fill="#000" x="-9" dy="0.32em">13</text></g></g><line x1="500" x2="500" y1="80" y2="480" style="stroke: black;"></line><line x1="80" x2="500" y1="80" y2="80" style="stroke: black;"></line><line x1="80" x2="500" y1="480" y2="480" style="stroke: black;"></line><line x1="80" x2="80" y1="480" y2="485" style="stroke: black;"></line><text class="myaxis" x="80" y="500" style="text-anchor: middle; font-family: sans-serif; font-size: 7px; stroke: rgb(0, 85, 255);">58.21</text><line x1="122.00000000000009" x2="122.00000000000009" y1="480" y2="485" style="stroke: black;"></line><text class="myaxis" x="122.00000000000009" y="500" style="text-anchor: middle; font-family: sans-serif; font-size: 7px; stroke: rgb(0, 85, 255);">60.70</text><line x1="164.00000000000017" x2="164.00000000000017" y1="480" y2="485" style="stroke: black;"></line><text class="myaxis" x="164.00000000000017" y="500" style="text-anchor: middle; font-family: sans-serif; font-size: 7px; stroke: rgb(0, 85, 255);">63.19</text><line x1="206.00000000000026" x2="206.00000000000026" y1="480" y2="485" style="stroke: black;"></line><text class="myaxis" x="206.00000000000026" y="500" style="text-anchor: middle; font-family: sans-serif; font-size: 7px; stroke: rgb(0, 85, 255);">65.67</text><line x1="248.0000000000002" x2="248.0000000000002" y1="480" y2="485" style="stroke: black;"></line><text class="myaxis" x="248.0000000000002" y="500" style="text-anchor: middle; font-family: sans-serif; font-size: 7px; stroke: rgb(0, 85, 255);">68.16</text><line x1="290.0000000000002" x2="290.0000000000002" y1="480" y2="485" style="stroke: black;"></line><text class="myaxis" x="290.0000000000002" y="500" style="text-anchor: middle; font-family: sans-serif; font-size: 7px; stroke: rgb(0, 85, 255);">70.64</text><line x1="332.0000000000001" x2="332.0000000000001" y1="480" y2="485" style="stroke: black;"></line><text class="myaxis" x="332.0000000000001" y="500" style="text-anchor: middle; font-family: sans-serif; font-size: 7px; stroke: rgb(0, 85, 255);">73.13</text><line x1="374.0000000000001" x2="374.0000000000001" y1="480" y2="485" style="stroke: black;"></line><text class="myaxis" x="374.0000000000001" y="500" style="text-anchor: middle; font-family: sans-serif; font-size: 7px; stroke: rgb(0, 85, 255);">75.61</text><line x1="416.00000000000006" x2="416.00000000000006" y1="480" y2="485" style="stroke: black;"></line><text class="myaxis" x="416.00000000000006" y="500" style="text-anchor: middle; font-family: sans-serif; font-size: 7px; stroke: rgb(0, 85, 255);">78.10</text><line x1="458.00000000000006" x2="458.00000000000006" y1="480" y2="485" style="stroke: black;"></line><text class="myaxis" x="458.00000000000006" y="500" style="text-anchor: middle; font-family: sans-serif; font-size: 7px; stroke: rgb(0, 85, 255);">80.59</text><line x1="500" x2="500" y1="480" y2="485" style="stroke: black;"></line><text class="myaxis" x="500" y="500" style="text-anchor: middle; font-family: sans-serif; font-size: 7px; stroke: rgb(0, 85, 255);">83.07</text><text x="290" y="530" style="font-size: 12px; font-family: sans-seirf; stroke: black; text-anchor: middle;">OtterLength</text><text x="25" y="95" transform="rotate(-90 30 100)" style="font-size: 12px; font-family: sans-seirf; stroke: black; text-anchor: end;">Frequency</text><rect class="bar" x="80" width="42.000000000000036" height="0" y="480" style="fill: rgb(0, 85, 255); stroke: black; stroke-width: 1px;"></rect><rect class="bar" x="122.00000000000009" width="42.000000000000036" height="61.53846153846154" y="418.46153846153845" style="fill: rgb(0, 85, 255); stroke: black; stroke-width: 1px;"></rect><rect class="bar" x="164.00000000000017" width="42.000000000000036" height="123.07692307692308" y="356.9230769230769" style="fill: rgb(0, 85, 255); stroke: black; stroke-width: 1px;"></rect><rect class="bar" x="206.00000000000026" width="42.000000000000036" height="123.07692307692308" y="356.9230769230769" style="fill: rgb(0, 85, 255); stroke: black; stroke-width: 1px;"></rect><rect class="bar" x="248.0000000000002" width="42.000000000000036" height="338.46153846153845" y="141.53846153846155" style="fill: rgb(0, 85, 255); stroke: black; stroke-width: 1px;"></rect><rect class="bar" x="290.0000000000002" width="42.000000000000036" height="123.07692307692308" y="356.9230769230769" style="fill: rgb(0, 85, 255); stroke: black; stroke-width: 1px;"></rect><rect class="bar" x="332.0000000000001" width="42.000000000000036" height="61.53846153846154" y="418.46153846153845" style="fill: rgb(0, 85, 255); stroke: black; stroke-width: 1px;"></rect><rect class="bar" x="374.0000000000001" width="42.000000000000036" height="61.53846153846154" y="418.46153846153845" style="fill: rgb(0, 85, 255); stroke: black; stroke-width: 1px;"></rect><rect class="bar" x="416.00000000000006" width="42.000000000000036" height="30.76923076923077" y="449.2307692307692" style="fill: rgb(0, 85, 255); stroke: black; stroke-width: 1px;"></rect><rect class="bar" x="458.00000000000006" width="42.000000000000036" height="0" y="480" style="fill: rgb(0, 85, 255); stroke: black; stroke-width: 1px;"></rect><rect class="bar" x="500" width="42.000000000000036" height="0" y="480" style="fill: rgb(0, 85, 255); stroke: black; stroke-width: 1px;"></rect></svg>