<svg xmlns="http://www.w3.org/2000/svg" id="chart" width="600" height="600"> <g transform="translate(40,50)" fill="none" font-size="10" font-family="sans-serif" text-anchor="end"><path class="domain" stroke="#000" d="M-6,0.5H0.5V490.5H-6"></path><g class="tick" opacity="1" transform="translate(0,31.125)"><line stroke="#000" x2="-6"></line><text fill="#000" x="-9" dy="0.32em">0.45</text></g><g class="tick" opacity="1" transform="translate(0,82.16666666666669)"><line stroke="#000" x2="-6"></line><text fill="#000" x="-9" dy="0.32em">0.40</text></g><g class="tick" opacity="1" transform="translate(0,133.20833333333343)"><line stroke="#000" x2="-6"></line><text fill="#000" x="-9" dy="0.32em">0.35</text></g><g class="tick" opacity="1" transform="translate(0,184.25000000000006)"><line stroke="#000" x2="-6"></line><text fill="#000" x="-9" dy="0.32em">0.30</text></g><g class="tick" opacity="1" transform="translate(0,235.2916666666667)"><line stroke="#000" x2="-6"></line><text fill="#000" x="-9" dy="0.32em">0.25</text></g><g class="tick" opacity="1" transform="translate(0,286.33333333333337)"><line stroke="#000" x2="-6"></line><text fill="#000" x="-9" dy="0.32em">0.20</text></g><g class="tick" opacity="1" transform="translate(0,337.375)"><line stroke="#000" x2="-6"></line><text fill="#000" x="-9" dy="0.32em">0.15</text></g><g class="tick" opacity="1" transform="translate(0,388.4166666666667)"><line stroke="#000" x2="-6"></line><text fill="#000" x="-9" dy="0.32em">0.10</text></g><g class="tick" opacity="1" transform="translate(0,439.4583333333333)"><line stroke="#000" x2="-6"></line><text fill="#000" x="-9" dy="0.32em">0.05</text></g><g class="tick" opacity="1" transform="translate(0,490.5)"><line stroke="#000" x2="-6"></line><text fill="#000" x="-9" dy="0.32em">0.00</text></g></g><line x1="40" y1="540" x2="560" y2="540" style="stroke: black;"></line><text class="barname" x="49.38095238095238" y="560" transform="rotate(30,49.38095238095238,560)  " style="font-family: sans-serif; font-size: 8pt; text-anchor: middle;">0</text><text class="barname" x="74.14285714285714" y="560" transform="rotate(30,74.14285714285714,560)  " style="font-family: sans-serif; font-size: 8pt; text-anchor: middle;">1</text><text class="barname" x="98.9047619047619" y="560" transform="rotate(30,98.9047619047619,560)  " style="font-family: sans-serif; font-size: 8pt; text-anchor: middle;">2</text><text class="barname" x="123.66666666666667" y="560" transform="rotate(30,123.66666666666667,560)  " style="font-family: sans-serif; font-size: 8pt; text-anchor: middle;">3</text><text class="barname" x="148.42857142857144" y="560" transform="rotate(30,148.42857142857144,560)  " style="font-family: sans-serif; font-size: 8pt; text-anchor: middle;">4</text><text class="barname" x="173.1904761904762" y="560" transform="rotate(30,173.1904761904762,560)  " style="font-family: sans-serif; font-size: 8pt; text-anchor: middle;">5</text><text class="barname" x="197.95238095238096" y="560" transform="rotate(30,197.95238095238096,560)  " style="font-family: sans-serif; font-size: 8pt; text-anchor: middle;">6</text><text class="barname" x="222.71428571428572" y="560" transform="rotate(30,222.71428571428572,560)  " style="font-family: sans-serif; font-size: 8pt; text-anchor: middle;">7</text><text class="barname" x="247.47619047619048" y="560" transform="rotate(30,247.47619047619048,560)  " style="font-family: sans-serif; font-size: 8pt; text-anchor: middle;">8</text><text class="barname" x="272.23809523809524" y="560" transform="rotate(30,272.23809523809524,560)  " style="font-family: sans-serif; font-size: 8pt; text-anchor: middle;">9</text><text class="barname" x="297" y="560" transform="rotate(30,297,560)  " style="font-family: sans-serif; font-size: 8pt; text-anchor: middle;">10</text><text class="barname" x="321.7619047619048" y="560" transform="rotate(30,321.7619047619048,560)  " style="font-family: sans-serif; font-size: 8pt; text-anchor: middle;">11</text><text class="barname" x="346.5238095238095" y="560" transform="rotate(30,346.5238095238095,560)  " style="font-family: sans-serif; font-size: 8pt; text-anchor: middle;">12</text><text class="barname" x="371.28571428571433" y="560" transform="rotate(30,371.28571428571433,560)  " style="font-family: sans-serif; font-size: 8pt; text-anchor: middle;">13</text><text class="barname" x="396.04761904761904" y="560" transform="rotate(30,396.04761904761904,560)  " style="font-family: sans-serif; font-size: 8pt; text-anchor: middle;">14</text><text class="barname" x="420.80952380952385" y="560" transform="rotate(30,420.80952380952385,560)  " style="font-family: sans-serif; font-size: 8pt; text-anchor: middle;">15</text><text class="barname" x="445.57142857142856" y="560" transform="rotate(30,445.57142857142856,560)  " style="font-family: sans-serif; font-size: 8pt; text-anchor: middle;">16</text><text class="barname" x="470.33333333333337" y="560" transform="rotate(30,470.33333333333337,560)  " style="font-family: sans-serif; font-size: 8pt; text-anchor: middle;">17</text><text class="barname" x="495.0952380952381" y="560" transform="rotate(30,495.0952380952381,560)  " style="font-family: sans-serif; font-size: 8pt; text-anchor: middle;">18</text><text class="barname" x="519.8571428571429" y="560" transform="rotate(30,519.8571428571429,560)  " style="font-family: sans-serif; font-size: 8pt; text-anchor: middle;">19</text><text class="barname" x="544.6190476190476" y="560" transform="rotate(30,544.6190476190476,560)  " style="font-family: sans-serif; font-size: 8pt; text-anchor: middle;">20</text><text x="40" y="25" style="font-size: 13pt; stroke: blue; text-anchor: start;">Poisson Distribution &nbsp; &nbsp; λ = 1.5</text><text x="260" y="580" style="font-family: sans-serif; font-size: 9pt; stroke: rgb(0, 85, 255); text-anchor: middle;">Mean = 1.50,  Std Dev = 1.22</text><rect height="227.77870515152208" width="16.50793650793651" x="44.12698412698413" y="312.2212948484779" style="fill: rgb(0, 85, 255);"></rect><rect height="341.66805772728316" width="16.50793650793651" x="68.88888888888889" y="198.33194227271684" style="fill: rgb(0, 85, 255);"></rect><rect height="256.25104329546235" width="16.50793650793651" x="93.65079365079364" y="283.74895670453765" style="fill: rgb(0, 85, 255);"></rect><rect height="128.12552164773123" width="16.50793650793651" x="118.41269841269842" y="411.87447835226874" style="fill: rgb(0, 85, 255);"></rect><rect height="48.04707061789921" width="16.50793650793651" x="143.1746031746032" y="491.9529293821008" style="fill: rgb(0, 85, 255);"></rect><rect height="14.414121185369765" width="16.50793650793651" x="167.93650793650795" y="525.5858788146302" style="fill: rgb(0, 85, 255);"></rect><rect height="3.6035302963424374" width="16.50793650793651" x="192.6984126984127" y="536.3964697036575" style="fill: rgb(0, 85, 255);"></rect><rect height="0.7721850635019508" width="16.50793650793651" x="217.46031746031747" y="539.227814936498" style="fill: rgb(0, 85, 255);"></rect><rect height="0.14478469940661579" width="16.50793650793651" x="242.22222222222223" y="539.8552153005934" style="fill: rgb(0, 85, 255);"></rect><rect height="0.024130783234435974" width="16.50793650793651" x="266.984126984127" y="539.9758692167655" style="fill: rgb(0, 85, 255);"></rect><rect height="0.00361961748516539" width="16.50793650793651" x="291.74603174603175" y="539.9963803825149" style="fill: rgb(0, 85, 255);"></rect><rect height="0.0004935842025225537" width="16.50793650793651" x="316.5079365079365" y="539.9995064157974" style="fill: rgb(0, 85, 255);"></rect><rect height="0.00006169802531531909" width="16.50793650793651" x="341.2698412698413" y="539.9999383019747" style="fill: rgb(0, 85, 255);"></rect><rect height="0.0000071190029209983795" width="16.50793650793651" x="366.031746031746" y="539.9999928809971" style="fill: rgb(0, 85, 255);"></rect><rect height="7.627503129641114e-7" width="16.50793650793651" x="390.79365079365084" y="539.9999992372497" style="fill: rgb(0, 85, 255);"></rect><rect height="7.627503129641106e-8" width="16.50793650793651" x="415.55555555555554" y="539.999999923725" style="fill: rgb(0, 85, 255);"></rect><rect height="7.150784184038529e-9" width="16.50793650793651" x="440.31746031746036" y="539.9999999928492" style="fill: rgb(0, 85, 255);"></rect><rect height="6.309515456504585e-10" width="16.50793650793651" x="465.07936507936506" y="539.999999999369" style="fill: rgb(0, 85, 255);"></rect><rect height="5.257929547087185e-11" width="16.50793650793651" x="489.8412698412699" y="539.9999999999475" style="fill: rgb(0, 85, 255);"></rect><rect height="4.15099701085828e-12" width="16.50793650793651" x="514.6031746031746" y="539.9999999999958" style="fill: rgb(0, 85, 255);"></rect><rect height="3.1132477581437205e-13" width="16.50793650793651" x="539.3650793650794" y="539.9999999999997" style="fill: rgb(0, 85, 255);"></rect></svg>