<svg xmlns="http://www.w3.org/2000/svg" id="SVG" width="600" height="560"><text x="290" y="50" style="font-size: 17px; font-family: sans-seirf; stroke: black; text-anchor: middle;"> Bar Graph</text><text x="290" y="530" style="font-size: 12px; font-family: sans-seirf; stroke: black; text-anchor: middle;">Frequency</text><text x="10" y="95" transform="rotate(-90 30 100)" style="font-size: 12px; font-family: sans-seirf; stroke: black; text-anchor: end;">Gender</text><text class="barnameh" x="75" y="135" style="text-anchor: end; font-family: sans-serif; font-size: 8pt;">Male</text><text class="barnameh" x="75" y="235" style="text-anchor: end; font-family: sans-serif; font-size: 8pt;">Female</text><text class="barnameh" x="75" y="335" style="text-anchor: end; font-family: sans-serif; font-size: 8pt;">Male</text><text class="barnameh" x="75" y="435" style="text-anchor: end; font-family: sans-serif; font-size: 8pt;">Female</text><g transform="translate(80,480)" fill="none" font-size="10" font-family="sans-serif" text-anchor="middle"><path class="domain" stroke="#000" d="M0.5,6V0.5H420.5V6"></path><g class="tick" opacity="1" transform="translate(0.5,0)"><line stroke="#000" y2="6"></line><text fill="#000" y="9" dy="0.71em">0</text></g><g class="tick" opacity="1" transform="translate(40.5,0)"><line stroke="#000" y2="6"></line><text fill="#000" y="9" dy="0.71em">2</text></g><g class="tick" opacity="1" transform="translate(80.5,0)"><line stroke="#000" y2="6"></line><text fill="#000" y="9" dy="0.71em">4</text></g><g class="tick" opacity="1" transform="translate(120.5,0)"><line stroke="#000" y2="6"></line><text fill="#000" y="9" dy="0.71em">6</text></g><g class="tick" opacity="1" transform="translate(160.5,0)"><line stroke="#000" y2="6"></line><text fill="#000" y="9" dy="0.71em">8</text></g><g class="tick" opacity="1" transform="translate(200.5,0)"><line stroke="#000" y2="6"></line><text fill="#000" y="9" dy="0.71em">10</text></g><g class="tick" opacity="1" transform="translate(240.5,0)"><line stroke="#000" y2="6"></line><text fill="#000" y="9" dy="0.71em">12</text></g><g class="tick" opacity="1" transform="translate(280.5,0)"><line stroke="#000" y2="6"></line><text fill="#000" y="9" dy="0.71em">14</text></g><g class="tick" opacity="1" transform="translate(320.5,0)"><line stroke="#000" y2="6"></line><text fill="#000" y="9" dy="0.71em">16</text></g><g class="tick" opacity="1" transform="translate(360.5,0)"><line stroke="#000" y2="6"></line><text fill="#000" y="9" dy="0.71em">18</text></g><g class="tick" opacity="1" transform="translate(400.5,0)"><line stroke="#000" y2="6"></line><text fill="#000" y="9" dy="0.71em">20</text></g></g><rect x="515" y="180" width="8" height="8" style="fill: rgb(0, 85, 255);"></rect><text class="legend" x="530" y="190" style="stroke: rgb(0, 85, 255);">5-1</text><rect class="bar" x="80" y="100" width="320" style="fill: rgb(0, 85, 255);" height="60"></rect><rect class="bar" x="80" y="200" width="280" style="fill: rgb(0, 85, 255);" height="60"></rect><rect x="515" y="380" width="8" height="8" style="fill: rgb(255, 69, 0);"></rect><text class="legend" x="530" y="390" style="stroke: rgb(255, 69, 0);">5-2</text><rect class="bar" x="80" y="300" width="240" style="fill: rgb(255, 69, 0);" height="60"></rect><rect class="bar" x="80" y="400" width="360" style="fill: rgb(255, 69, 0);" height="60"></rect></svg>