<svg xmlns="http://www.w3.org/2000/svg" id="SVG" style="width: 600px; height: 560px;"><text x="290" y="50" style="font-size: 17px; font-family: sans-seirf; stroke: black; text-anchor: middle;">(Group  Gender)  Income  Testing Hypothesis: Two Population Means</text><text x="300" y="80" style="stroke: green; font-size: 9pt; font-family: sans-serif; text-anchor: middle;">H₀: μ₁ - μ₂ = D,  H₁: μ₁ - μ₂ ≠ D , D = 0.00</text><text x="300" y="100" style="stroke: green; font-size: 9pt; font-family: sans-serif; text-anchor: middle;">[TestStat] = (X̄₁ - X̄₂ - D) / ( √(s₁²/n₁ + s₂²/n₂) )  ~  t(18.0) Distribution</text><g transform="translate(80,460)" fill="none" font-size="10" font-family="sans-serif" text-anchor="middle"><path class="domain" stroke="#000" d="M0.5,6V0.5H440.5V6"></path><g class="tick" opacity="1" transform="translate(0.5,0)"><line stroke="#000" y2="6"></line><text fill="#000" y="9" dy="0.71em">-5</text></g><g class="tick" opacity="1" transform="translate(44.5,0)"><line stroke="#000" y2="6"></line><text fill="#000" y="9" dy="0.71em">-4</text></g><g class="tick" opacity="1" transform="translate(88.5,0)"><line stroke="#000" y2="6"></line><text fill="#000" y="9" dy="0.71em">-3</text></g><g class="tick" opacity="1" transform="translate(132.5,0)"><line stroke="#000" y2="6"></line><text fill="#000" y="9" dy="0.71em">-2</text></g><g class="tick" opacity="1" transform="translate(176.5,0)"><line stroke="#000" y2="6"></line><text fill="#000" y="9" dy="0.71em">-1</text></g><g class="tick" opacity="1" transform="translate(220.5,0)"><line stroke="#000" y2="6"></line><text fill="#000" y="9" dy="0.71em">0</text></g><g class="tick" opacity="1" transform="translate(264.5,0)"><line stroke="#000" y2="6"></line><text fill="#000" y="9" dy="0.71em">1</text></g><g class="tick" opacity="1" transform="translate(308.5,0)"><line stroke="#000" y2="6"></line><text fill="#000" y="9" dy="0.71em">2</text></g><g class="tick" opacity="1" transform="translate(352.5,0)"><line stroke="#000" y2="6"></line><text fill="#000" y="9" dy="0.71em">3</text></g><g class="tick" opacity="1" transform="translate(396.5,0)"><line stroke="#000" y2="6"></line><text fill="#000" y="9" dy="0.71em">4</text></g><g class="tick" opacity="1" transform="translate(440.5,0)"><line stroke="#000" y2="6"></line><text fill="#000" y="9" dy="0.71em">5</text></g></g><g transform="translate(80,100)" fill="none" font-size="10" font-family="sans-serif" text-anchor="end"><path class="domain" stroke="#000" d="M-6,0.5H0.5V360.5H-6"></path><g class="tick" opacity="1" transform="translate(0,22.105182924814926)"><line stroke="#000" x2="-6"></line><text fill="#000" x="-9" dy="0.32em">0.45</text></g><g class="tick" opacity="1" transform="translate(0,59.70460704427995)"><line stroke="#000" x2="-6"></line><text fill="#000" x="-9" dy="0.32em">0.40</text></g><g class="tick" opacity="1" transform="translate(0,97.30403116374498)"><line stroke="#000" x2="-6"></line><text fill="#000" x="-9" dy="0.32em">0.35</text></g><g class="tick" opacity="1" transform="translate(0,134.90345528320998)"><line stroke="#000" x2="-6"></line><text fill="#000" x="-9" dy="0.32em">0.30</text></g><g class="tick" opacity="1" transform="translate(0,172.502879402675)"><line stroke="#000" x2="-6"></line><text fill="#000" x="-9" dy="0.32em">0.25</text></g><g class="tick" opacity="1" transform="translate(0,210.10230352213998)"><line stroke="#000" x2="-6"></line><text fill="#000" x="-9" dy="0.32em">0.20</text></g><g class="tick" opacity="1" transform="translate(0,247.70172764160498)"><line stroke="#000" x2="-6"></line><text fill="#000" x="-9" dy="0.32em">0.15</text></g><g class="tick" opacity="1" transform="translate(0,285.30115176107)"><line stroke="#000" x2="-6"></line><text fill="#000" x="-9" dy="0.32em">0.10</text></g><g class="tick" opacity="1" transform="translate(0,322.900575880535)"><line stroke="#000" x2="-6"></line><text fill="#000" x="-9" dy="0.32em">0.05</text></g><g class="tick" opacity="1" transform="translate(0,360.5)"><line stroke="#000" x2="-6"></line><text fill="#000" x="-9" dy="0.32em">0.00</text></g></g><line x1="80" y1="459.924450612313" x2="80.99999999999999" y2="459.9205588543383" style="stroke: black; stroke-width: 2px;"></line><line x1="80.99999999999999" y1="459.9205588543383" x2="81.99999999999997" y2="459.91646358618465" style="stroke: black; stroke-width: 2px;"></line><line x1="81.99999999999997" y1="459.91646358618465" x2="82.99999999999997" y2="459.9121540849974" style="stroke: black; stroke-width: 2px;"></line><line x1="82.99999999999997" y1="459.9121540849974" x2="83.99999999999996" y2="459.9076190638553" style="stroke: black; stroke-width: 2px;"></line><line x1="83.99999999999996" y1="459.9076190638553" x2="84.99999999999994" y2="459.90284664250674" style="stroke: black; stroke-width: 2px;"></line><line x1="84.99999999999994" y1="459.90284664250674" x2="85.99999999999994" y2="459.89782431663485" style="stroke: black; stroke-width: 2px;"></line><line x1="85.99999999999994" y1="459.89782431663485" x2="86.99999999999993" y2="459.8925389255831" style="stroke: black; stroke-width: 2px;"></line><line x1="86.99999999999993" y1="459.8925389255831" x2="87.99999999999991" y2="459.88697661846845" style="stroke: black; stroke-width: 2px;"></line><line x1="87.99999999999991" y1="459.88697661846845" x2="88.9999999999999" y2="459.8811228186067" style="stroke: black; stroke-width: 2px;"></line><line x1="88.9999999999999" y1="459.8811228186067" x2="89.99999999999989" y2="459.8749621861719" style="stroke: black; stroke-width: 2px;"></line><line x1="89.99999999999989" y1="459.8749621861719" x2="90.99999999999989" y2="459.8684785790085" style="stroke: black; stroke-width: 2px;"></line><line x1="90.99999999999989" y1="459.8684785790085" x2="91.99999999999987" y2="459.8616550115108" style="stroke: black; stroke-width: 2px;"></line><line x1="91.99999999999987" y1="459.8616550115108" x2="92.99999999999986" y2="459.8544736114821" style="stroke: black; stroke-width: 2px;"></line><line x1="92.99999999999986" y1="459.8544736114821" x2="93.99999999999986" y2="459.8469155748826" style="stroke: black; stroke-width: 2px;"></line><line x1="93.99999999999986" y1="459.8469155748826" x2="94.99999999999984" y2="459.8389611183699" style="stroke: black; stroke-width: 2px;"></line><line x1="94.99999999999984" y1="459.8389611183699" x2="95.99999999999983" y2="459.83058942953465" style="stroke: black; stroke-width: 2px;"></line><line x1="95.99999999999983" y1="459.83058942953465" x2="96.99999999999982" y2="459.82177861472843" style="stroke: black; stroke-width: 2px;"></line><line x1="96.99999999999982" y1="459.82177861472843" x2="97.9999999999998" y2="459.81250564437886" style="stroke: black; stroke-width: 2px;"></line><line x1="97.9999999999998" y1="459.81250564437886" x2="98.9999999999998" y2="459.8027462956818" style="stroke: black; stroke-width: 2px;"></line><line x1="98.9999999999998" y1="459.8027462956818" x2="99.99999999999979" y2="459.79247509255725" style="stroke: black; stroke-width: 2px;"></line><line x1="99.99999999999979" y1="459.79247509255725" x2="100.99999999999977" y2="459.7816652427521" style="stroke: black; stroke-width: 2px;"></line><line x1="100.99999999999977" y1="459.7816652427521" x2="101.99999999999977" y2="459.7702885719681" style="stroke: black; stroke-width: 2px;"></line><line x1="101.99999999999977" y1="459.7702885719681" x2="102.99999999999976" y2="459.75831545489046" style="stroke: black; stroke-width: 2px;"></line><line x1="102.99999999999976" y1="459.75831545489046" x2="103.99999999999974" y2="459.74571474298784" style="stroke: black; stroke-width: 2px;"></line><line x1="103.99999999999974" y1="459.74571474298784" x2="104.99999999999973" y2="459.73245368895044" style="stroke: black; stroke-width: 2px;"></line><line x1="104.99999999999973" y1="459.73245368895044" x2="105.99999999999972" y2="459.7184978676298" style="stroke: black; stroke-width: 2px;"></line><line x1="105.99999999999972" y1="459.7184978676298" x2="106.99999999999972" y2="459.70381109333937" style="stroke: black; stroke-width: 2px;"></line><line x1="106.99999999999972" y1="459.70381109333937" x2="107.9999999999997" y2="459.6883553333699" style="stroke: black; stroke-width: 2px;"></line><line x1="107.9999999999997" y1="459.6883553333699" x2="108.99999999999969" y2="459.672090617573" style="stroke: black; stroke-width: 2px;"></line><line x1="108.99999999999969" y1="459.672090617573" x2="109.99999999999969" y2="459.6549749438587" style="stroke: black; stroke-width: 2px;"></line><line x1="109.99999999999969" y1="459.6549749438587" x2="110.99999999999967" y2="459.63696417945096" style="stroke: black; stroke-width: 2px;"></line><line x1="110.99999999999967" y1="459.63696417945096" x2="111.99999999999966" y2="459.6180119577425" style="stroke: black; stroke-width: 2px;"></line><line x1="111.99999999999966" y1="459.6180119577425" x2="112.99999999999964" y2="459.59806957058447" style="stroke: black; stroke-width: 2px;"></line><line x1="112.99999999999964" y1="459.59806957058447" x2="113.99999999999963" y2="459.5770858558447" style="stroke: black; stroke-width: 2px;"></line><line x1="113.99999999999963" y1="459.5770858558447" x2="114.99999999999963" y2="459.55500708006485" style="stroke: black; stroke-width: 2px;"></line><line x1="114.99999999999963" y1="459.55500708006485" x2="115.99999999999962" y2="459.5317768160441" style="stroke: black; stroke-width: 2px;"></line><line x1="115.99999999999962" y1="459.5317768160441" x2="116.9999999999996" y2="459.5073358151734" style="stroke: black; stroke-width: 2px;"></line><line x1="116.9999999999996" y1="459.5073358151734" x2="117.9999999999996" y2="459.48162187434315" style="stroke: black; stroke-width: 2px;"></line><line x1="117.9999999999996" y1="459.48162187434315" x2="118.99999999999959" y2="459.4545696972446" style="stroke: black; stroke-width: 2px;"></line><line x1="118.99999999999959" y1="459.4545696972446" x2="119.99999999999957" y2="459.4261107498831" style="stroke: black; stroke-width: 2px;"></line><line x1="119.99999999999957" y1="459.4261107498831" x2="120.99999999999956" y2="459.3961731101209" style="stroke: black; stroke-width: 2px;"></line><line x1="120.99999999999956" y1="459.3961731101209" x2="121.99999999999955" y2="459.36468131106614" style="stroke: black; stroke-width: 2px;"></line><line x1="121.99999999999955" y1="459.36468131106614" x2="122.99999999999955" y2="459.33155617812366" style="stroke: black; stroke-width: 2px;"></line><line x1="122.99999999999955" y1="459.33155617812366" x2="123.99999999999953" y2="459.29671465952504" style="stroke: black; stroke-width: 2px;"></line><line x1="123.99999999999953" y1="459.29671465952504" x2="124.99999999999955" y2="459.26006965015455" style="stroke: black; stroke-width: 2px;"></line><line x1="124.99999999999955" y1="459.26006965015455" x2="125.99999999999955" y2="459.2215298084899" style="stroke: black; stroke-width: 2px;"></line><line x1="125.99999999999955" y1="459.2215298084899" x2="126.99999999999956" y2="459.1809993664798" style="stroke: black; stroke-width: 2px;"></line><line x1="126.99999999999956" y1="459.1809993664798" x2="127.99999999999957" y2="459.13837793218227" style="stroke: black; stroke-width: 2px;"></line><line x1="127.99999999999957" y1="459.13837793218227" x2="128.99999999999957" y2="459.0935602849922" style="stroke: black; stroke-width: 2px;"></line><line x1="128.99999999999957" y1="459.0935602849922" x2="129.9999999999996" y2="459.0464361632915" style="stroke: black; stroke-width: 2px;"></line><line x1="129.9999999999996" y1="459.0464361632915" x2="130.9999999999996" y2="458.9968900443621" style="stroke: black; stroke-width: 2px;"></line><line x1="130.9999999999996" y1="458.9968900443621" x2="131.9999999999996" y2="458.94480091640764" style="stroke: black; stroke-width: 2px;"></line><line x1="131.9999999999996" y1="458.94480091640764" x2="132.9999999999996" y2="458.8900420425394" style="stroke: black; stroke-width: 2px;"></line><line x1="132.9999999999996" y1="458.8900420425394" x2="133.99999999999963" y2="458.8324807165913" style="stroke: black; stroke-width: 2px;"></line><line x1="133.99999999999963" y1="458.8324807165913" x2="134.99999999999963" y2="458.7719780106404" style="stroke: black; stroke-width: 2px;"></line><line x1="134.99999999999963" y1="458.7719780106404" x2="135.99999999999963" y2="458.7083885141204" style="stroke: black; stroke-width: 2px;"></line><line x1="135.99999999999963" y1="458.7083885141204" x2="136.99999999999966" y2="458.6415600644326" style="stroke: black; stroke-width: 2px;"></line><line x1="136.99999999999966" y1="458.6415600644326" x2="137.99999999999966" y2="458.57133346897217" style="stroke: black; stroke-width: 2px;"></line><line x1="137.99999999999966" y1="458.57133346897217" x2="138.99999999999966" y2="458.4975422185068" style="stroke: black; stroke-width: 2px;"></line><line x1="138.99999999999966" y1="458.4975422185068" x2="139.99999999999966" y2="458.42001219186494" style="stroke: black; stroke-width: 2px;"></line><line x1="139.99999999999966" y1="458.42001219186494" x2="140.9999999999997" y2="458.3385613519114" style="stroke: black; stroke-width: 2px;"></line><line x1="140.9999999999997" y1="458.3385613519114" x2="141.9999999999997" y2="458.2529994328132" style="stroke: black; stroke-width: 2px;"></line><line x1="141.9999999999997" y1="458.2529994328132" x2="142.99999999999972" y2="458.16312761862565" style="stroke: black; stroke-width: 2px;"></line><line x1="142.99999999999972" y1="458.16312761862565" x2="143.99999999999972" y2="458.0687382132547" style="stroke: black; stroke-width: 2px;"></line><line x1="143.99999999999972" y1="458.0687382132547" x2="144.99999999999972" y2="457.9696143018874" style="stroke: black; stroke-width: 2px;"></line><line x1="144.99999999999972" y1="457.9696143018874" x2="145.99999999999972" y2="457.8655294040127" style="stroke: black; stroke-width: 2px;"></line><line x1="145.99999999999972" y1="457.8655294040127" x2="146.99999999999974" y2="457.7562471181935" style="stroke: black; stroke-width: 2px;"></line><line x1="146.99999999999974" y1="457.7562471181935" x2="147.99999999999974" y2="457.6415207587921" style="stroke: black; stroke-width: 2px;"></line><line x1="147.99999999999974" y1="457.6415207587921" x2="148.99999999999974" y2="457.52109298489114" style="stroke: black; stroke-width: 2px;"></line><line x1="148.99999999999974" y1="457.52109298489114" x2="149.99999999999977" y2="457.3946954217029" style="stroke: black; stroke-width: 2px;"></line><line x1="149.99999999999977" y1="457.3946954217029" x2="150.99999999999977" y2="457.26204827480575" style="stroke: black; stroke-width: 2px;"></line><line x1="150.99999999999977" y1="457.26204827480575" x2="151.99999999999977" y2="457.12285993760247" style="stroke: black; stroke-width: 2px;"></line><line x1="151.99999999999977" y1="457.12285993760247" x2="152.99999999999977" y2="456.97682659245106" style="stroke: black; stroke-width: 2px;"></line><line x1="152.99999999999977" y1="456.97682659245106" x2="153.9999999999998" y2="456.82363180598" style="stroke: black; stroke-width: 2px;"></line><line x1="153.9999999999998" y1="456.82363180598" x2="154.9999999999998" y2="456.66294611916396" style="stroke: black; stroke-width: 2px;"></line><line x1="154.9999999999998" y1="456.66294611916396" x2="155.99999999999983" y2="456.4944266328056" style="stroke: black; stroke-width: 2px;"></line><line x1="155.99999999999983" y1="456.4944266328056" x2="156.99999999999983" y2="456.3177165891404" style="stroke: black; stroke-width: 2px;"></line><line x1="156.99999999999983" y1="456.3177165891404" x2="157.99999999999983" y2="456.1324449503602" style="stroke: black; stroke-width: 2px;"></line><line x1="157.99999999999983" y1="456.1324449503602" x2="158.99999999999983" y2="455.93822597493045" style="stroke: black; stroke-width: 2px;"></line><line x1="158.99999999999983" y1="455.93822597493045" x2="159.99999999999986" y2="455.7346587926624" style="stroke: black; stroke-width: 2px;"></line><line x1="159.99999999999986" y1="455.7346587926624" x2="160.99999999999986" y2="455.52132697959166" style="stroke: black; stroke-width: 2px;"></line><line x1="160.99999999999986" y1="455.52132697959166" x2="161.99999999999986" y2="455.29779813380753" style="stroke: black; stroke-width: 2px;"></line><line x1="161.99999999999986" y1="455.29779813380753" x2="162.9999999999999" y2="455.06362345347645" style="stroke: black; stroke-width: 2px;"></line><line x1="162.9999999999999" y1="455.06362345347645" x2="163.9999999999999" y2="454.8183373184062" style="stroke: black; stroke-width: 2px;"></line><line x1="163.9999999999999" y1="454.8183373184062" x2="164.9999999999999" y2="454.56145687660296" style="stroke: black; stroke-width: 2px;"></line><line x1="164.9999999999999" y1="454.56145687660296" x2="165.99999999999991" y2="454.29248163738686" style="stroke: black; stroke-width: 2px;"></line><line x1="165.99999999999991" y1="454.29248163738686" x2="166.99999999999991" y2="454.01089307274356" style="stroke: black; stroke-width: 2px;"></line><line x1="166.99999999999991" y1="454.01089307274356" x2="167.99999999999991" y2="453.71615422871247" style="stroke: black; stroke-width: 2px;"></line><line x1="167.99999999999991" y1="453.71615422871247" x2="168.99999999999994" y2="453.4077093487321" style="stroke: black; stroke-width: 2px;"></line><line x1="168.99999999999994" y1="453.4077093487321" x2="169.99999999999994" y2="453.0849835109908" style="stroke: black; stroke-width: 2px;"></line><line x1="169.99999999999994" y1="453.0849835109908" x2="170.99999999999994" y2="452.7473822819613" style="stroke: black; stroke-width: 2px;"></line><line x1="170.99999999999994" y1="452.7473822819613" x2="171.99999999999994" y2="452.39429138842905" style="stroke: black; stroke-width: 2px;"></line><line x1="171.99999999999994" y1="452.39429138842905" x2="172.99999999999997" y2="452.02507641046066" style="stroke: black; stroke-width: 2px;"></line><line x1="172.99999999999997" y1="452.02507641046066" x2="173.99999999999997" y2="451.63908249789597" style="stroke: black; stroke-width: 2px;"></line><line x1="173.99999999999997" y1="451.63908249789597" x2="175" y2="451.23563411308646" style="stroke: black; stroke-width: 2px;"></line><line x1="175" y1="451.23563411308646" x2="176" y2="450.8140348027435" style="stroke: black; stroke-width: 2px;"></line><line x1="176" y1="450.8140348027435" x2="177" y2="450.3735670019008" style="stroke: black; stroke-width: 2px;"></line><line x1="177" y1="450.3735670019008" x2="178" y2="449.9134918731373" style="stroke: black; stroke-width: 2px;"></line><line x1="178" y1="449.9134918731373" x2="179.00000000000003" y2="449.4330491843454" style="stroke: black; stroke-width: 2px;"></line><line x1="179.00000000000003" y1="449.4330491843454" x2="180.00000000000003" y2="448.9314572284719" style="stroke: black; stroke-width: 2px;"></line><line x1="180.00000000000003" y1="448.9314572284719" x2="181.00000000000003" y2="448.4079127887909" style="stroke: black; stroke-width: 2px;"></line><line x1="181.00000000000003" y1="448.4079127887909" x2="182.00000000000006" y2="447.8615911534062" style="stroke: black; stroke-width: 2px;"></line><line x1="182.00000000000006" y1="447.8615911534062" x2="183.00000000000006" y2="447.2916461828066" style="stroke: black; stroke-width: 2px;"></line><line x1="183.00000000000006" y1="447.2916461828066" x2="184.00000000000006" y2="446.6972104344222" style="stroke: black; stroke-width: 2px;"></line><line x1="184.00000000000006" y1="446.6972104344222" x2="185.00000000000006" y2="446.07739534824907" style="stroke: black; stroke-width: 2px;"></line><line x1="185.00000000000006" y1="446.07739534824907" x2="186.00000000000009" y2="445.43129149771653" style="stroke: black; stroke-width: 2px;"></line><line x1="186.00000000000009" y1="445.43129149771653" x2="187.00000000000009" y2="444.75796891007394" style="stroke: black; stroke-width: 2px;"></line><line x1="187.00000000000009" y1="444.75796891007394" x2="188.00000000000009" y2="444.05647746066546" style="stroke: black; stroke-width: 2px;"></line><line x1="188.00000000000009" y1="444.05647746066546" x2="189.0000000000001" y2="443.32584734553717" style="stroke: black; stroke-width: 2px;"></line><line x1="189.0000000000001" y1="443.32584734553717" x2="190.0000000000001" y2="442.5650896368899" style="stroke: black; stroke-width: 2px;"></line><line x1="190.0000000000001" y1="442.5650896368899" x2="191.00000000000014" y2="441.7731969259394" style="stroke: black; stroke-width: 2px;"></line><line x1="191.00000000000014" y1="441.7731969259394" x2="192.00000000000014" y2="440.94914405778115" style="stroke: black; stroke-width: 2px;"></line><line x1="192.00000000000014" y1="440.94914405778115" x2="193.00000000000014" y2="440.09188896287424" style="stroke: black; stroke-width: 2px;"></line><line x1="193.00000000000014" y1="440.09188896287424" x2="194.00000000000017" y2="439.2003735897526" style="stroke: black; stroke-width: 2px;"></line><line x1="194.00000000000017" y1="439.2003735897526" x2="195.00000000000017" y2="438.2735249435498" style="stroke: black; stroke-width: 2px;"></line><line x1="195.00000000000017" y1="438.2735249435498" x2="196.00000000000017" y2="437.31025623487295" style="stroke: black; stroke-width: 2px;"></line><line x1="196.00000000000017" y1="437.31025623487295" x2="197.00000000000017" y2="436.3094681434889" style="stroke: black; stroke-width: 2px;"></line><line x1="197.00000000000017" y1="436.3094681434889" x2="198.00000000000017" y2="435.27005020118327" style="stroke: black; stroke-width: 2px;"></line><line x1="198.00000000000017" y1="435.27005020118327" x2="199.0000000000002" y2="434.1908822980249" style="stroke: black; stroke-width: 2px;"></line><line x1="199.0000000000002" y1="434.1908822980249" x2="200.0000000000002" y2="433.0708363161065" style="stroke: black; stroke-width: 2px;"></line><line x1="200.0000000000002" y1="433.0708363161065" x2="201.0000000000002" y2="431.90877789463866" style="stroke: black; stroke-width: 2px;"></line><line x1="201.0000000000002" y1="431.90877789463866" x2="202.00000000000023" y2="430.7035683300479" style="stroke: black; stroke-width: 2px;"></line><line x1="202.00000000000023" y1="430.7035683300479" x2="203.00000000000023" y2="429.4540666144644" style="stroke: black; stroke-width: 2px;"></line><line x1="203.00000000000023" y1="429.4540666144644" x2="204.00000000000026" y2="428.15913161568426" style="stroke: black; stroke-width: 2px;"></line><line x1="204.00000000000026" y1="428.15913161568426" x2="205.00000000000026" y2="426.81762440134963" style="stroke: black; stroke-width: 2px;"></line><line x1="205.00000000000026" y1="426.81762440134963" x2="206.00000000000026" y2="425.42841070970957" style="stroke: black; stroke-width: 2px;"></line><line x1="206.00000000000026" y1="425.42841070970957" x2="207.00000000000028" y2="423.99036356889917" style="stroke: black; stroke-width: 2px;"></line><line x1="207.00000000000028" y1="423.99036356889917" x2="208.00000000000028" y2="422.50236606620956" style="stroke: black; stroke-width: 2px;"></line><line x1="208.00000000000028" y1="422.50236606620956" x2="209.00000000000028" y2="420.96331426830943" style="stroke: black; stroke-width: 2px;"></line><line x1="209.00000000000028" y1="420.96331426830943" x2="210.00000000000028" y2="419.3721202928236" style="stroke: black; stroke-width: 2px;"></line><line x1="210.00000000000028" y1="419.3721202928236" x2="211.00000000000028" y2="417.72771553107333" style="stroke: black; stroke-width: 2px;"></line><line x1="211.00000000000028" y1="417.72771553107333" x2="212.0000000000003" y2="416.0290540211364" style="stroke: black; stroke-width: 2px;"></line><line x1="212.0000000000003" y1="416.0290540211364" x2="213.00000000000028" y2="414.27511596969254" style="stroke: black; stroke-width: 2px;"></line><line x1="213.00000000000028" y1="414.27511596969254" x2="214.00000000000028" y2="412.4649114203851" style="stroke: black; stroke-width: 2px;"></line><line x1="214.00000000000028" y1="412.4649114203851" x2="215.00000000000028" y2="410.59748406564427" style="stroke: black; stroke-width: 2px;"></line><line x1="215.00000000000028" y1="410.59748406564427" x2="216.0000000000003" y2="408.67191519809694" style="stroke: black; stroke-width: 2px;"></line><line x1="216.0000000000003" y1="408.67191519809694" x2="217.00000000000028" y2="406.6873277968181" style="stroke: black; stroke-width: 2px;"></line><line x1="217.00000000000028" y1="406.6873277968181" x2="218.00000000000028" y2="404.6428907427731" style="stroke: black; stroke-width: 2px;"></line><line x1="218.00000000000028" y1="404.6428907427731" x2="219.00000000000028" y2="402.537823156856" style="stroke: black; stroke-width: 2px;"></line><line x1="219.00000000000028" y1="402.537823156856" x2="220.00000000000028" y2="400.371398852948" style="stroke: black; stroke-width: 2px;"></line><line x1="220.00000000000028" y1="400.371398852948" x2="221.00000000000028" y2="398.1429508974104" style="stroke: black; stroke-width: 2px;"></line><line x1="221.00000000000028" y1="398.1429508974104" x2="222.00000000000028" y2="395.85187626538425" style="stroke: black; stroke-width: 2px;"></line><line x1="222.00000000000028" y1="395.85187626538425" x2="223.00000000000028" y2="393.49764058320795" style="stroke: black; stroke-width: 2px;"></line><line x1="223.00000000000028" y1="393.49764058320795" x2="224.00000000000028" y2="391.0797829451777" style="stroke: black; stroke-width: 2px;"></line><line x1="224.00000000000028" y1="391.0797829451777" x2="225.00000000000028" y2="388.5979207917805" style="stroke: black; stroke-width: 2px;"></line><line x1="225.00000000000028" y1="388.5979207917805" x2="226.00000000000028" y2="386.0517548354232" style="stroke: black; stroke-width: 2px;"></line><line x1="226.00000000000028" y1="386.0517548354232" x2="227.00000000000028" y2="383.4410740185716" style="stroke: black; stroke-width: 2px;"></line><line x1="227.00000000000028" y1="383.4410740185716" x2="228.00000000000028" y2="380.7657604881109" style="stroke: black; stroke-width: 2px;"></line><line x1="228.00000000000028" y1="380.7657604881109" x2="229.00000000000028" y2="378.0257945686446" style="stroke: black; stroke-width: 2px;"></line><line x1="229.00000000000028" y1="378.0257945686446" x2="230.00000000000028" y2="375.22125971637814" style="stroke: black; stroke-width: 2px;"></line><line x1="230.00000000000028" y1="375.22125971637814" x2="231.00000000000028" y2="372.3523474341844" style="stroke: black; stroke-width: 2px;"></line><line x1="231.00000000000028" y1="372.3523474341844" x2="232.00000000000028" y2="369.41936212743684" style="stroke: black; stroke-width: 2px;"></line><line x1="232.00000000000028" y1="369.41936212743684" x2="233.00000000000028" y2="366.42272587923367" style="stroke: black; stroke-width: 2px;"></line><line x1="233.00000000000028" y1="366.42272587923367" x2="234.00000000000028" y2="363.3629831227163" style="stroke: black; stroke-width: 2px;"></line><line x1="234.00000000000028" y1="363.3629831227163" x2="235.00000000000028" y2="360.24080518734223" style="stroke: black; stroke-width: 2px;"></line><line x1="235.00000000000028" y1="360.24080518734223" x2="236.00000000000028" y2="357.0569946951854" style="stroke: black; stroke-width: 2px;"></line><line x1="236.00000000000028" y1="357.0569946951854" x2="237.00000000000028" y2="353.81248978264904" style="stroke: black; stroke-width: 2px;"></line><line x1="237.00000000000028" y1="353.81248978264904" x2="238.00000000000028" y2="350.5083681223658" style="stroke: black; stroke-width: 2px;"></line><line x1="238.00000000000028" y1="350.5083681223658" x2="239.00000000000028" y2="347.145850719557" style="stroke: black; stroke-width: 2px;"></line><line x1="239.00000000000028" y1="347.145850719557" x2="240.00000000000028" y2="343.7263054567338" style="stroke: black; stroke-width: 2px;"></line><line x1="240.00000000000028" y1="343.7263054567338" x2="241.00000000000028" y2="340.2512503603465" style="stroke: black; stroke-width: 2px;"></line><line x1="241.00000000000028" y1="340.2512503603465" x2="242.00000000000028" y2="336.7223565628531" style="stroke: black; stroke-width: 2px;"></line><line x1="242.00000000000028" y1="336.7223565628531" x2="243.00000000000028" y2="333.1414509336656" style="stroke: black; stroke-width: 2px;"></line><line x1="243.00000000000028" y1="333.1414509336656" x2="244.00000000000028" y2="329.51051835258727" style="stroke: black; stroke-width: 2px;"></line><line x1="244.00000000000028" y1="329.51051835258727" x2="245.00000000000028" y2="325.83170359964197" style="stroke: black; stroke-width: 2px;"></line><line x1="245.00000000000028" y1="325.83170359964197" x2="246.00000000000028" y2="322.10731283566827" style="stroke: black; stroke-width: 2px;"></line><line x1="246.00000000000028" y1="322.10731283566827" x2="247.00000000000028" y2="318.3398146486661" style="stroke: black; stroke-width: 2px;"></line><line x1="247.00000000000028" y1="318.3398146486661" x2="248.00000000000028" y2="314.5318406417033" style="stroke: black; stroke-width: 2px;"></line><line x1="248.00000000000028" y1="314.5318406417033" x2="249.00000000000028" y2="310.68618553915144" style="stroke: black; stroke-width: 2px;"></line><line x1="249.00000000000028" y1="310.68618553915144" x2="250.00000000000026" y2="306.80580678919966" style="stroke: black; stroke-width: 2px;"></line><line x1="250.00000000000026" y1="306.80580678919966" x2="251.00000000000028" y2="302.8938236419275" style="stroke: black; stroke-width: 2px;"></line><line x1="251.00000000000028" y1="302.8938236419275" x2="252.00000000000028" y2="298.95351568376043" style="stroke: black; stroke-width: 2px;"></line><line x1="252.00000000000028" y1="298.95351568376043" x2="253.00000000000028" y2="294.98832081083117" style="stroke: black; stroke-width: 2px;"></line><line x1="253.00000000000028" y1="294.98832081083117" x2="254.00000000000026" y2="291.0018326256876" style="stroke: black; stroke-width: 2px;"></line><line x1="254.00000000000026" y1="291.0018326256876" x2="255.00000000000028" y2="286.99779724384075" style="stroke: black; stroke-width: 2px;"></line><line x1="255.00000000000028" y1="286.99779724384075" x2="256.0000000000003" y2="282.98010949891534" style="stroke: black; stroke-width: 2px;"></line><line x1="256.0000000000003" y1="282.98010949891534" x2="257.0000000000003" y2="278.9528085375755" style="stroke: black; stroke-width: 2px;"></line><line x1="257.0000000000003" y1="278.9528085375755" x2="258.0000000000002" y2="274.9200727979689" style="stroke: black; stroke-width: 2px;"></line><line x1="258.0000000000002" y1="274.9200727979689" x2="259.0000000000002" y2="270.8862143681673" style="stroke: black; stroke-width: 2px;"></line><line x1="259.0000000000002" y1="270.8862143681673" x2="260.0000000000003" y2="266.85567272394485" style="stroke: black; stroke-width: 2px;"></line><line x1="260.0000000000003" y1="266.85567272394485" x2="261.0000000000002" y2="262.8330078482167" style="stroke: black; stroke-width: 2px;"></line><line x1="261.0000000000002" y1="262.8330078482167" x2="262.0000000000002" y2="258.82289273756805" style="stroke: black; stroke-width: 2px;"></line><line x1="262.0000000000002" y1="258.82289273756805" x2="263.0000000000003" y2="254.83010530449093" style="stroke: black; stroke-width: 2px;"></line><line x1="263.0000000000003" y1="254.83010530449093" x2="264.0000000000003" y2="250.85951968721855" style="stroke: black; stroke-width: 2px;"></line><line x1="264.0000000000003" y1="250.85951968721855" x2="265.0000000000002" y2="246.91609698237343" style="stroke: black; stroke-width: 2px;"></line><line x1="265.0000000000002" y1="246.91609698237343" x2="266.0000000000002" y2="243.00487541900705" style="stroke: black; stroke-width: 2px;"></line><line x1="266.0000000000002" y1="243.00487541900705" x2="267.0000000000002" y2="239.13095999598943" style="stroke: black; stroke-width: 2px;"></line><line x1="267.0000000000002" y1="239.13095999598943" x2="268.0000000000003" y2="235.29951160807926" style="stroke: black; stroke-width: 2px;"></line><line x1="268.0000000000003" y1="235.29951160807926" x2="269.0000000000002" y2="231.51573568934577" style="stroke: black; stroke-width: 2px;"></line><line x1="269.0000000000002" y1="231.51573568934577" x2="270.0000000000002" y2="227.78487040590076" style="stroke: black; stroke-width: 2px;"></line><line x1="270.0000000000002" y1="227.78487040590076" x2="271.0000000000003" y2="224.11217443311034" style="stroke: black; stroke-width: 2px;"></line><line x1="271.0000000000003" y1="224.11217443311034" x2="272.0000000000002" y2="220.50291435556053" style="stroke: black; stroke-width: 2px;"></line><line x1="272.0000000000002" y1="220.50291435556053" x2="273.0000000000002" y2="216.96235173101547" style="stroke: black; stroke-width: 2px;"></line><line x1="273.0000000000002" y1="216.96235173101547" x2="274.0000000000002" y2="213.49572986245926" style="stroke: black; stroke-width: 2px;"></line><line x1="274.0000000000002" y1="213.49572986245926" x2="275.0000000000002" y2="210.10826032492403" style="stroke: black; stroke-width: 2px;"></line><line x1="275.0000000000002" y1="210.10826032492403" x2="276.0000000000002" y2="206.8051092962745" style="stroke: black; stroke-width: 2px;"></line><line x1="276.0000000000002" y1="206.8051092962745" x2="277.0000000000002" y2="203.5913837433385" style="stroke: black; stroke-width: 2px;"></line><line x1="277.0000000000002" y1="203.5913837433385" x2="278.0000000000002" y2="200.47211751673768" style="stroke: black; stroke-width: 2px;"></line><line x1="278.0000000000002" y1="200.47211751673768" x2="279.0000000000003" y2="197.45225740949496" style="stroke: black; stroke-width: 2px;"></line><line x1="279.0000000000003" y1="197.45225740949496" x2="280.0000000000002" y2="194.53664923591168" style="stroke: black; stroke-width: 2px;"></line><line x1="280.0000000000002" y1="194.53664923591168" x2="281.0000000000002" y2="191.73002398833273" style="stroke: black; stroke-width: 2px;"></line><line x1="281.0000000000002" y1="191.73002398833273" x2="282.0000000000002" y2="189.03698413023176" style="stroke: black; stroke-width: 2px;"></line><line x1="282.0000000000002" y1="189.03698413023176" x2="283.0000000000002" y2="186.46199008450452" style="stroke: black; stroke-width: 2px;"></line><line x1="283.0000000000002" y1="186.46199008450452" x2="284.0000000000002" y2="184.00934697601872" style="stroke: black; stroke-width: 2px;"></line><line x1="284.0000000000002" y1="184.00934697601872" x2="285.0000000000002" y2="181.68319168723514" style="stroke: black; stroke-width: 2px;"></line><line x1="285.0000000000002" y1="181.68319168723514" x2="286.0000000000002" y2="179.48748028515286" style="stroke: black; stroke-width: 2px;"></line><line x1="286.0000000000002" y1="179.48748028515286" x2="287.0000000000003" y2="177.42597587691637" style="stroke: black; stroke-width: 2px;"></line><line x1="287.0000000000003" y1="177.42597587691637" x2="288.0000000000002" y2="175.5022369501143" style="stroke: black; stroke-width: 2px;"></line><line x1="288.0000000000002" y1="175.5022369501143" x2="289.0000000000002" y2="173.71960625219424" style="stroke: black; stroke-width: 2px;"></line><line x1="289.0000000000002" y1="173.71960625219424" x2="290.0000000000002" y2="172.0812002614063" style="stroke: black; stroke-width: 2px;"></line><line x1="290.0000000000002" y1="172.0812002614063" x2="291.0000000000003" y2="170.5898992993766" style="stroke: black; stroke-width: 2px;"></line><line x1="291.0000000000003" y1="170.5898992993766" x2="292.0000000000002" y2="169.2483383327505" style="stroke: black; stroke-width: 2px;"></line><line x1="292.0000000000002" y1="169.2483383327505" x2="293.0000000000002" y2="168.05889850839014" style="stroke: black; stroke-width: 2px;"></line><line x1="293.0000000000002" y1="168.05889850839014" x2="294.0000000000002" y2="167.02369946332084" style="stroke: black; stroke-width: 2px;"></line><line x1="294.0000000000002" y1="167.02369946332084" x2="295.0000000000002" y2="166.14459244711014" style="stroke: black; stroke-width: 2px;"></line><line x1="295.0000000000002" y1="166.14459244711014" x2="296.0000000000002" y2="165.42315429053946" style="stroke: black; stroke-width: 2px;"></line><line x1="296.0000000000002" y1="165.42315429053946" x2="297.0000000000002" y2="164.8606822504131" style="stroke: black; stroke-width: 2px;"></line><line x1="297.0000000000002" y1="164.8606822504131" x2="298.0000000000003" y2="164.45818975610996" style="stroke: black; stroke-width: 2px;"></line><line x1="298.0000000000003" y1="164.45818975610996" x2="299.0000000000002" y2="164.216403079084" style="stroke: black; stroke-width: 2px;"></line><line x1="299.0000000000002" y1="164.216403079084" x2="300.0000000000002" y2="164.13575894194224" style="stroke: black; stroke-width: 2px;"></line><line x1="300.0000000000002" y1="164.13575894194224" x2="301.0000000000002" y2="164.216403079084" style="stroke: black; stroke-width: 2px;"></line><line x1="301.0000000000002" y1="164.216403079084" x2="302.0000000000003" y2="164.45818975610996" style="stroke: black; stroke-width: 2px;"></line><line x1="302.0000000000003" y1="164.45818975610996" x2="303.0000000000002" y2="164.8606822504131" style="stroke: black; stroke-width: 2px;"></line><line x1="303.0000000000002" y1="164.8606822504131" x2="304.0000000000002" y2="165.42315429054008" style="stroke: black; stroke-width: 2px;"></line><line x1="304.0000000000002" y1="165.42315429054008" x2="305.0000000000002" y2="166.14459244711014" style="stroke: black; stroke-width: 2px;"></line><line x1="305.0000000000002" y1="166.14459244711014" x2="306.0000000000002" y2="167.02369946332146" style="stroke: black; stroke-width: 2px;"></line><line x1="306.0000000000002" y1="167.02369946332146" x2="307.0000000000002" y2="168.0588985083907" style="stroke: black; stroke-width: 2px;"></line><line x1="307.0000000000002" y1="168.0588985083907" x2="308.0000000000002" y2="169.24833833275113" style="stroke: black; stroke-width: 2px;"></line><line x1="308.0000000000002" y1="169.24833833275113" x2="309.0000000000003" y2="170.58989929937718" style="stroke: black; stroke-width: 2px;"></line><line x1="309.0000000000003" y1="170.58989929937718" x2="310.0000000000002" y2="172.081200261407" style="stroke: black; stroke-width: 2px;"></line><line x1="310.0000000000002" y1="172.081200261407" x2="311.0000000000002" y2="173.71960625219486" style="stroke: black; stroke-width: 2px;"></line><line x1="311.0000000000002" y1="173.71960625219486" x2="312.0000000000002" y2="175.50223695011488" style="stroke: black; stroke-width: 2px;"></line><line x1="312.0000000000002" y1="175.50223695011488" x2="313.0000000000003" y2="177.4259758769175" style="stroke: black; stroke-width: 2px;"></line><line x1="313.0000000000003" y1="177.4259758769175" x2="314.0000000000002" y2="179.487480285154" style="stroke: black; stroke-width: 2px;"></line><line x1="314.0000000000002" y1="179.487480285154" x2="315.0000000000002" y2="181.68319168723627" style="stroke: black; stroke-width: 2px;"></line><line x1="315.0000000000002" y1="181.68319168723627" x2="316.0000000000002" y2="184.0093469760199" style="stroke: black; stroke-width: 2px;"></line><line x1="316.0000000000002" y1="184.0093469760199" x2="317.0000000000002" y2="186.46199008450566" style="stroke: black; stroke-width: 2px;"></line><line x1="317.0000000000002" y1="186.46199008450566" x2="318.0000000000002" y2="189.0369841302329" style="stroke: black; stroke-width: 2px;"></line><line x1="318.0000000000002" y1="189.0369841302329" x2="319.0000000000002" y2="191.73002398833438" style="stroke: black; stroke-width: 2px;"></line><line x1="319.0000000000002" y1="191.73002398833438" x2="320.0000000000002" y2="194.53664923591282" style="stroke: black; stroke-width: 2px;"></line><line x1="320.0000000000002" y1="194.53664923591282" x2="321.0000000000002" y2="197.45225740949667" style="stroke: black; stroke-width: 2px;"></line><line x1="321.0000000000002" y1="197.45225740949667" x2="322.0000000000002" y2="200.47211751673933" style="stroke: black; stroke-width: 2px;"></line><line x1="322.0000000000002" y1="200.47211751673933" x2="323.0000000000002" y2="203.59138374334003" style="stroke: black; stroke-width: 2px;"></line><line x1="323.0000000000002" y1="203.59138374334003" x2="324.0000000000002" y2="206.80510929627607" style="stroke: black; stroke-width: 2px;"></line><line x1="324.0000000000002" y1="206.80510929627607" x2="325.0000000000002" y2="210.1082603249256" style="stroke: black; stroke-width: 2px;"></line><line x1="325.0000000000002" y1="210.1082603249256" x2="326.0000000000002" y2="213.4957298624608" style="stroke: black; stroke-width: 2px;"></line><line x1="326.0000000000002" y1="213.4957298624608" x2="327.0000000000002" y2="216.96235173101695" style="stroke: black; stroke-width: 2px;"></line><line x1="327.0000000000002" y1="216.96235173101695" x2="328.0000000000002" y2="220.50291435556204" style="stroke: black; stroke-width: 2px;"></line><line x1="328.0000000000002" y1="220.50291435556204" x2="329.0000000000002" y2="224.11217443311233" style="stroke: black; stroke-width: 2px;"></line><line x1="329.0000000000002" y1="224.11217443311233" x2="330.0000000000002" y2="227.7848704059022" style="stroke: black; stroke-width: 2px;"></line><line x1="330.0000000000002" y1="227.7848704059022" x2="331.0000000000002" y2="231.51573568934765" style="stroke: black; stroke-width: 2px;"></line><line x1="331.0000000000002" y1="231.51573568934765" x2="332.0000000000002" y2="235.29951160808102" style="stroke: black; stroke-width: 2px;"></line><line x1="332.0000000000002" y1="235.29951160808102" x2="333.0000000000002" y2="239.13095999599122" style="stroke: black; stroke-width: 2px;"></line><line x1="333.0000000000002" y1="239.13095999599122" x2="334.0000000000002" y2="243.0048754190088" style="stroke: black; stroke-width: 2px;"></line><line x1="334.0000000000002" y1="243.0048754190088" x2="335.0000000000002" y2="246.9160969823752" style="stroke: black; stroke-width: 2px;"></line><line x1="335.0000000000002" y1="246.9160969823752" x2="336.00000000000017" y2="250.8595196872203" style="stroke: black; stroke-width: 2px;"></line><line x1="336.00000000000017" y1="250.8595196872203" x2="337.0000000000002" y2="254.83010530449263" style="stroke: black; stroke-width: 2px;"></line><line x1="337.0000000000002" y1="254.83010530449263" x2="338.0000000000002" y2="258.82289273757004" style="stroke: black; stroke-width: 2px;"></line><line x1="338.0000000000002" y1="258.82289273757004" x2="339.0000000000002" y2="262.8330078482187" style="stroke: black; stroke-width: 2px;"></line><line x1="339.0000000000002" y1="262.8330078482187" x2="340.00000000000017" y2="266.8556727239468" style="stroke: black; stroke-width: 2px;"></line><line x1="340.00000000000017" y1="266.8556727239468" x2="341.0000000000002" y2="270.88621436816925" style="stroke: black; stroke-width: 2px;"></line><line x1="341.0000000000002" y1="270.88621436816925" x2="342.0000000000002" y2="274.92007279797076" style="stroke: black; stroke-width: 2px;"></line><line x1="342.0000000000002" y1="274.92007279797076" x2="343.0000000000002" y2="278.95280853757765" style="stroke: black; stroke-width: 2px;"></line><line x1="343.0000000000002" y1="278.95280853757765" x2="344.0000000000002" y2="282.98010949891705" style="stroke: black; stroke-width: 2px;"></line><line x1="344.0000000000002" y1="282.98010949891705" x2="345.0000000000002" y2="286.9977972438424" style="stroke: black; stroke-width: 2px;"></line><line x1="345.0000000000002" y1="286.9977972438424" x2="346.0000000000002" y2="291.00183262568964" style="stroke: black; stroke-width: 2px;"></line><line x1="346.0000000000002" y1="291.00183262568964" x2="347.00000000000017" y2="294.9883208108331" style="stroke: black; stroke-width: 2px;"></line><line x1="347.00000000000017" y1="294.9883208108331" x2="348.00000000000017" y2="298.95351568376225" style="stroke: black; stroke-width: 2px;"></line><line x1="348.00000000000017" y1="298.95351568376225" x2="349.0000000000002" y2="302.8938236419293" style="stroke: black; stroke-width: 2px;"></line><line x1="349.0000000000002" y1="302.8938236419293" x2="350.0000000000002" y2="306.80580678920137" style="stroke: black; stroke-width: 2px;"></line><line x1="350.0000000000002" y1="306.80580678920137" x2="351.00000000000017" y2="310.6861855391535" style="stroke: black; stroke-width: 2px;"></line><line x1="351.00000000000017" y1="310.6861855391535" x2="352.0000000000002" y2="314.53184064170534" style="stroke: black; stroke-width: 2px;"></line><line x1="352.0000000000002" y1="314.53184064170534" x2="353.0000000000002" y2="318.33981464866804" style="stroke: black; stroke-width: 2px;"></line><line x1="353.0000000000002" y1="318.33981464866804" x2="354.0000000000002" y2="322.10731283566986" style="stroke: black; stroke-width: 2px;"></line><line x1="354.0000000000002" y1="322.10731283566986" x2="355.00000000000017" y2="325.8317035996438" style="stroke: black; stroke-width: 2px;"></line><line x1="355.00000000000017" y1="325.8317035996438" x2="356.00000000000017" y2="329.510518352589" style="stroke: black; stroke-width: 2px;"></line><line x1="356.00000000000017" y1="329.510518352589" x2="357.0000000000002" y2="333.1414509336673" style="stroke: black; stroke-width: 2px;"></line><line x1="357.0000000000002" y1="333.1414509336673" x2="358.00000000000017" y2="336.72235656285477" style="stroke: black; stroke-width: 2px;"></line><line x1="358.00000000000017" y1="336.72235656285477" x2="359.00000000000017" y2="340.25125036034837" style="stroke: black; stroke-width: 2px;"></line><line x1="359.00000000000017" y1="340.25125036034837" x2="360.0000000000002" y2="343.7263054567354" style="stroke: black; stroke-width: 2px;"></line><line x1="360.0000000000002" y1="343.7263054567354" x2="361.0000000000002" y2="347.1458507195587" style="stroke: black; stroke-width: 2px;"></line><line x1="361.0000000000002" y1="347.1458507195587" x2="362.00000000000017" y2="350.5083681223672" style="stroke: black; stroke-width: 2px;"></line><line x1="362.00000000000017" y1="350.5083681223672" x2="363.00000000000017" y2="353.8124897826504" style="stroke: black; stroke-width: 2px;"></line><line x1="363.00000000000017" y1="353.8124897826504" x2="364.00000000000017" y2="357.05699469518686" style="stroke: black; stroke-width: 2px;"></line><line x1="364.00000000000017" y1="357.05699469518686" x2="365.0000000000002" y2="360.2408051873437" style="stroke: black; stroke-width: 2px;"></line><line x1="365.0000000000002" y1="360.2408051873437" x2="366.00000000000017" y2="363.3629831227177" style="stroke: black; stroke-width: 2px;"></line><line x1="366.00000000000017" y1="363.3629831227177" x2="367.00000000000017" y2="366.4227258792351" style="stroke: black; stroke-width: 2px;"></line><line x1="367.00000000000017" y1="366.4227258792351" x2="368.0000000000002" y2="369.4193621274384" style="stroke: black; stroke-width: 2px;"></line><line x1="368.0000000000002" y1="369.4193621274384" x2="369.00000000000017" y2="372.35234743418584" style="stroke: black; stroke-width: 2px;"></line><line x1="369.00000000000017" y1="372.35234743418584" x2="370.00000000000017" y2="375.22125971637956" style="stroke: black; stroke-width: 2px;"></line><line x1="370.00000000000017" y1="375.22125971637956" x2="371.00000000000017" y2="378.02579456864584" style="stroke: black; stroke-width: 2px;"></line><line x1="371.00000000000017" y1="378.02579456864584" x2="372.00000000000017" y2="380.7657604881122" style="stroke: black; stroke-width: 2px;"></line><line x1="372.00000000000017" y1="380.7657604881122" x2="373.00000000000017" y2="383.441074018573" style="stroke: black; stroke-width: 2px;"></line><line x1="373.00000000000017" y1="383.441074018573" x2="374.00000000000017" y2="386.05175483542445" style="stroke: black; stroke-width: 2px;"></line><line x1="374.00000000000017" y1="386.05175483542445" x2="375.00000000000017" y2="388.5979207917817" style="stroke: black; stroke-width: 2px;"></line><line x1="375.00000000000017" y1="388.5979207917817" x2="376.0000000000002" y2="391.079782945179" style="stroke: black; stroke-width: 2px;"></line><line x1="376.0000000000002" y1="391.079782945179" x2="377.00000000000017" y2="393.49764058320915" style="stroke: black; stroke-width: 2px;"></line><line x1="377.00000000000017" y1="393.49764058320915" x2="378.00000000000017" y2="395.85187626538533" style="stroke: black; stroke-width: 2px;"></line><line x1="378.00000000000017" y1="395.85187626538533" x2="379.00000000000017" y2="398.1429508974114" style="stroke: black; stroke-width: 2px;"></line><line x1="379.00000000000017" y1="398.1429508974114" x2="380.00000000000017" y2="400.3713988529491" style="stroke: black; stroke-width: 2px;"></line><line x1="380.00000000000017" y1="400.3713988529491" x2="381.00000000000017" y2="402.53782315685703" style="stroke: black; stroke-width: 2px;"></line><line x1="381.00000000000017" y1="402.53782315685703" x2="382.00000000000017" y2="404.6428907427741" style="stroke: black; stroke-width: 2px;"></line><line x1="382.00000000000017" y1="404.6428907427741" x2="383.00000000000017" y2="406.6873277968191" style="stroke: black; stroke-width: 2px;"></line><line x1="383.00000000000017" y1="406.6873277968191" x2="384.00000000000017" y2="408.6719151980979" style="stroke: black; stroke-width: 2px;"></line><line x1="384.00000000000017" y1="408.6719151980979" x2="385.00000000000017" y2="410.5974840656451" style="stroke: black; stroke-width: 2px;"></line><line x1="385.00000000000017" y1="410.5974840656451" x2="386.00000000000017" y2="412.464911420386" style="stroke: black; stroke-width: 2px;"></line><line x1="386.00000000000017" y1="412.464911420386" x2="387.00000000000017" y2="414.27511596969345" style="stroke: black; stroke-width: 2px;"></line><line x1="387.00000000000017" y1="414.27511596969345" x2="388.0000000000001" y2="416.02905402113726" style="stroke: black; stroke-width: 2px;"></line><line x1="388.0000000000001" y1="416.02905402113726" x2="389.00000000000017" y2="417.7277155310741" style="stroke: black; stroke-width: 2px;"></line><line x1="389.00000000000017" y1="417.7277155310741" x2="390.0000000000002" y2="419.3721202928244" style="stroke: black; stroke-width: 2px;"></line><line x1="390.0000000000002" y1="419.3721202928244" x2="391.00000000000017" y2="420.96331426831017" style="stroke: black; stroke-width: 2px;"></line><line x1="391.00000000000017" y1="420.96331426831017" x2="392.00000000000017" y2="422.5023660662103" style="stroke: black; stroke-width: 2px;"></line><line x1="392.00000000000017" y1="422.5023660662103" x2="393.0000000000002" y2="423.9903635688999" style="stroke: black; stroke-width: 2px;"></line><line x1="393.0000000000002" y1="423.9903635688999" x2="394.0000000000002" y2="425.42841070971025" style="stroke: black; stroke-width: 2px;"></line><line x1="394.0000000000002" y1="425.42841070971025" x2="395.0000000000002" y2="426.81762440135026" style="stroke: black; stroke-width: 2px;"></line><line x1="395.0000000000002" y1="426.81762440135026" x2="396.0000000000002" y2="428.1591316156849" style="stroke: black; stroke-width: 2px;"></line><line x1="396.0000000000002" y1="428.1591316156849" x2="397.0000000000003" y2="429.45406661446503" style="stroke: black; stroke-width: 2px;"></line><line x1="397.0000000000003" y1="429.45406661446503" x2="398.0000000000003" y2="430.7035683300485" style="stroke: black; stroke-width: 2px;"></line><line x1="398.0000000000003" y1="430.7035683300485" x2="399.0000000000003" y2="431.90877789463923" style="stroke: black; stroke-width: 2px;"></line><line x1="399.0000000000003" y1="431.90877789463923" x2="400.0000000000003" y2="433.0708363161071" style="stroke: black; stroke-width: 2px;"></line><line x1="400.0000000000003" y1="433.0708363161071" x2="401.0000000000003" y2="434.19088229802543" style="stroke: black; stroke-width: 2px;"></line><line x1="401.0000000000003" y1="434.19088229802543" x2="402.00000000000034" y2="435.2700502011838" style="stroke: black; stroke-width: 2px;"></line><line x1="402.00000000000034" y1="435.2700502011838" x2="403.00000000000034" y2="436.30946814348937" style="stroke: black; stroke-width: 2px;"></line><line x1="403.00000000000034" y1="436.30946814348937" x2="404.00000000000034" y2="437.3102562348734" style="stroke: black; stroke-width: 2px;"></line><line x1="404.00000000000034" y1="437.3102562348734" x2="405.00000000000034" y2="438.2735249435502" style="stroke: black; stroke-width: 2px;"></line><line x1="405.00000000000034" y1="438.2735249435502" x2="406.00000000000034" y2="439.20037358975304" style="stroke: black; stroke-width: 2px;"></line><line x1="406.00000000000034" y1="439.20037358975304" x2="407.00000000000034" y2="440.0918889628747" style="stroke: black; stroke-width: 2px;"></line><line x1="407.00000000000034" y1="440.0918889628747" x2="408.00000000000034" y2="440.94914405778155" style="stroke: black; stroke-width: 2px;"></line><line x1="408.00000000000034" y1="440.94914405778155" x2="409.00000000000034" y2="441.77319692593977" style="stroke: black; stroke-width: 2px;"></line><line x1="409.00000000000034" y1="441.77319692593977" x2="410.0000000000004" y2="442.5650896368903" style="stroke: black; stroke-width: 2px;"></line><line x1="410.0000000000004" y1="442.5650896368903" x2="411.00000000000034" y2="443.32584734553757" style="stroke: black; stroke-width: 2px;"></line><line x1="411.00000000000034" y1="443.32584734553757" x2="412.00000000000034" y2="444.0564774606658" style="stroke: black; stroke-width: 2px;"></line><line x1="412.00000000000034" y1="444.0564774606658" x2="413.0000000000004" y2="444.7579689100743" style="stroke: black; stroke-width: 2px;"></line><line x1="413.0000000000004" y1="444.7579689100743" x2="414.0000000000004" y2="445.43129149771687" style="stroke: black; stroke-width: 2px;"></line><line x1="414.0000000000004" y1="445.43129149771687" x2="415.0000000000004" y2="446.0773953482494" style="stroke: black; stroke-width: 2px;"></line><line x1="415.0000000000004" y1="446.0773953482494" x2="416.0000000000004" y2="446.69721043442246" style="stroke: black; stroke-width: 2px;"></line><line x1="416.0000000000004" y1="446.69721043442246" x2="417.00000000000045" y2="447.29164618280686" style="stroke: black; stroke-width: 2px;"></line><line x1="417.00000000000045" y1="447.29164618280686" x2="418.00000000000045" y2="447.8615911534065" style="stroke: black; stroke-width: 2px;"></line><line x1="418.00000000000045" y1="447.8615911534065" x2="419.00000000000045" y2="448.4079127887912" style="stroke: black; stroke-width: 2px;"></line><line x1="419.00000000000045" y1="448.4079127887912" x2="420.00000000000045" y2="448.93145722847214" style="stroke: black; stroke-width: 2px;"></line><line x1="420.00000000000045" y1="448.93145722847214" x2="421.00000000000045" y2="449.43304918434563" style="stroke: black; stroke-width: 2px;"></line><line x1="421.00000000000045" y1="449.43304918434563" x2="422.0000000000005" y2="449.9134918731375" style="stroke: black; stroke-width: 2px;"></line><line x1="422.0000000000005" y1="449.9134918731375" x2="423.0000000000005" y2="450.373567001901" style="stroke: black; stroke-width: 2px;"></line><line x1="423.0000000000005" y1="450.373567001901" x2="424.00000000000045" y2="450.81403480274366" style="stroke: black; stroke-width: 2px;"></line><line x1="424.00000000000045" y1="450.81403480274366" x2="425.0000000000005" y2="451.2356341130867" style="stroke: black; stroke-width: 2px;"></line><line x1="425.0000000000005" y1="451.2356341130867" x2="426.00000000000057" y2="451.6390824978962" style="stroke: black; stroke-width: 2px;"></line><line x1="426.00000000000057" y1="451.6390824978962" x2="427.0000000000005" y2="452.0250764104609" style="stroke: black; stroke-width: 2px;"></line><line x1="427.0000000000005" y1="452.0250764104609" x2="428.0000000000005" y2="452.3942913884292" style="stroke: black; stroke-width: 2px;"></line><line x1="428.0000000000005" y1="452.3942913884292" x2="429.00000000000057" y2="452.74738228196145" style="stroke: black; stroke-width: 2px;"></line><line x1="429.00000000000057" y1="452.74738228196145" x2="430.00000000000057" y2="453.0849835109909" style="stroke: black; stroke-width: 2px;"></line><line x1="430.00000000000057" y1="453.0849835109909" x2="431.00000000000057" y2="453.4077093487322" style="stroke: black; stroke-width: 2px;"></line><line x1="431.00000000000057" y1="453.4077093487322" x2="432.00000000000057" y2="453.71615422871264" style="stroke: black; stroke-width: 2px;"></line><line x1="432.00000000000057" y1="453.71615422871264" x2="433.00000000000057" y2="454.0108930727437" style="stroke: black; stroke-width: 2px;"></line><line x1="433.00000000000057" y1="454.0108930727437" x2="434.00000000000057" y2="454.29248163738697" style="stroke: black; stroke-width: 2px;"></line><line x1="434.00000000000057" y1="454.29248163738697" x2="435.00000000000057" y2="454.5614568766031" style="stroke: black; stroke-width: 2px;"></line><line x1="435.00000000000057" y1="454.5614568766031" x2="436.00000000000057" y2="454.81833731840624" style="stroke: black; stroke-width: 2px;"></line><line x1="436.00000000000057" y1="454.81833731840624" x2="437.00000000000057" y2="455.06362345347657" style="stroke: black; stroke-width: 2px;"></line><line x1="437.00000000000057" y1="455.06362345347657" x2="438.0000000000006" y2="455.29779813380765" style="stroke: black; stroke-width: 2px;"></line><line x1="438.0000000000006" y1="455.29779813380765" x2="439.0000000000007" y2="455.5213269795918" style="stroke: black; stroke-width: 2px;"></line><line x1="439.0000000000007" y1="455.5213269795918" x2="440.0000000000006" y2="455.73465879266246" style="stroke: black; stroke-width: 2px;"></line><line x1="440.0000000000006" y1="455.73465879266246" x2="441.0000000000006" y2="455.9382259749305" style="stroke: black; stroke-width: 2px;"></line><line x1="441.0000000000006" y1="455.9382259749305" x2="442.0000000000007" y2="456.1324449503603" style="stroke: black; stroke-width: 2px;"></line><line x1="442.0000000000007" y1="456.1324449503603" x2="443.0000000000006" y2="456.31771658914045" style="stroke: black; stroke-width: 2px;"></line><line x1="443.0000000000006" y1="456.31771658914045" x2="444.0000000000006" y2="456.4944266328057" style="stroke: black; stroke-width: 2px;"></line><line x1="444.0000000000006" y1="456.4944266328057" x2="445.0000000000007" y2="456.6629461191641" style="stroke: black; stroke-width: 2px;"></line><line x1="445.0000000000007" y1="456.6629461191641" x2="446.00000000000074" y2="456.8236318059801" style="stroke: black; stroke-width: 2px;"></line><line x1="446.00000000000074" y1="456.8236318059801" x2="447.00000000000074" y2="456.9768265924512" style="stroke: black; stroke-width: 2px;"></line><line x1="447.00000000000074" y1="456.9768265924512" x2="448.0000000000007" y2="457.1228599376025" style="stroke: black; stroke-width: 2px;"></line><line x1="448.0000000000007" y1="457.1228599376025" x2="449.00000000000074" y2="457.2620482748058" style="stroke: black; stroke-width: 2px;"></line><line x1="449.00000000000074" y1="457.2620482748058" x2="450.00000000000074" y2="457.394695421703" style="stroke: black; stroke-width: 2px;"></line><line x1="450.00000000000074" y1="457.394695421703" x2="451.0000000000007" y2="457.5210929848912" style="stroke: black; stroke-width: 2px;"></line><line x1="451.0000000000007" y1="457.5210929848912" x2="452.00000000000074" y2="457.6415207587922" style="stroke: black; stroke-width: 2px;"></line><line x1="452.00000000000074" y1="457.6415207587922" x2="453.0000000000008" y2="457.7562471181936" style="stroke: black; stroke-width: 2px;"></line><line x1="453.0000000000008" y1="457.7562471181936" x2="454.0000000000008" y2="457.86552940401276" style="stroke: black; stroke-width: 2px;"></line><line x1="454.0000000000008" y1="457.86552940401276" x2="455.0000000000008" y2="457.9696143018875" style="stroke: black; stroke-width: 2px;"></line><line x1="455.0000000000008" y1="457.9696143018875" x2="456.0000000000008" y2="458.06873821325473" style="stroke: black; stroke-width: 2px;"></line><line x1="456.0000000000008" y1="458.06873821325473" x2="457.0000000000008" y2="458.1631276186257" style="stroke: black; stroke-width: 2px;"></line><line x1="457.0000000000008" y1="458.1631276186257" x2="458.0000000000008" y2="458.2529994328133" style="stroke: black; stroke-width: 2px;"></line><line x1="458.0000000000008" y1="458.2529994328133" x2="459.0000000000008" y2="458.33856135191144" style="stroke: black; stroke-width: 2px;"></line><line x1="459.0000000000008" y1="458.33856135191144" x2="460.0000000000008" y2="458.420012191865" style="stroke: black; stroke-width: 2px;"></line><line x1="460.0000000000008" y1="458.420012191865" x2="461.0000000000008" y2="458.49754221850685" style="stroke: black; stroke-width: 2px;"></line><line x1="461.0000000000008" y1="458.49754221850685" x2="462.00000000000085" y2="458.57133346897217" style="stroke: black; stroke-width: 2px;"></line><line x1="462.00000000000085" y1="458.57133346897217" x2="463.00000000000085" y2="458.64156006443267" style="stroke: black; stroke-width: 2px;"></line><line x1="463.00000000000085" y1="458.64156006443267" x2="464.0000000000008" y2="458.70838851412043" style="stroke: black; stroke-width: 2px;"></line><line x1="464.0000000000008" y1="458.70838851412043" x2="465.00000000000085" y2="458.7719780106404" style="stroke: black; stroke-width: 2px;"></line><line x1="465.00000000000085" y1="458.7719780106404" x2="466.0000000000009" y2="458.83248071659136" style="stroke: black; stroke-width: 2px;"></line><line x1="466.0000000000009" y1="458.83248071659136" x2="467.0000000000008" y2="458.8900420425394" style="stroke: black; stroke-width: 2px;"></line><line x1="467.0000000000008" y1="458.8900420425394" x2="468.00000000000085" y2="458.9448009164077" style="stroke: black; stroke-width: 2px;"></line><line x1="468.00000000000085" y1="458.9448009164077" x2="469.0000000000009" y2="458.99689004436215" style="stroke: black; stroke-width: 2px;"></line><line x1="469.0000000000009" y1="458.99689004436215" x2="470.0000000000009" y2="459.0464361632915" style="stroke: black; stroke-width: 2px;"></line><line x1="470.0000000000009" y1="459.0464361632915" x2="471.00000000000097" y2="459.0935602849922" style="stroke: black; stroke-width: 2px;"></line><line x1="471.00000000000097" y1="459.0935602849922" x2="472.0000000000009" y2="459.13837793218227" style="stroke: black; stroke-width: 2px;"></line><line x1="472.0000000000009" y1="459.13837793218227" x2="473.0000000000009" y2="459.1809993664798" style="stroke: black; stroke-width: 2px;"></line><line x1="473.0000000000009" y1="459.1809993664798" x2="474.00000000000097" y2="459.2215298084899" style="stroke: black; stroke-width: 2px;"></line><line x1="474.00000000000097" y1="459.2215298084899" x2="475.0000000000009" y2="459.26006965015455" style="stroke: black; stroke-width: 2px;"></line><line x1="475.0000000000009" y1="459.26006965015455" x2="476.00000000000097" y2="459.2967146595251" style="stroke: black; stroke-width: 2px;"></line><line x1="476.00000000000097" y1="459.2967146595251" x2="477.00000000000097" y2="459.33155617812366" style="stroke: black; stroke-width: 2px;"></line><line x1="477.00000000000097" y1="459.33155617812366" x2="478.0000000000009" y2="459.36468131106614" style="stroke: black; stroke-width: 2px;"></line><line x1="478.0000000000009" y1="459.36468131106614" x2="479.00000000000085" y2="459.39617311012097" style="stroke: black; stroke-width: 2px;"></line><line x1="479.00000000000085" y1="459.39617311012097" x2="480.0000000000009" y2="459.42611074988315" style="stroke: black; stroke-width: 2px;"></line><line x1="480.0000000000009" y1="459.42611074988315" x2="481.0000000000009" y2="459.45456969724466" style="stroke: black; stroke-width: 2px;"></line><line x1="481.0000000000009" y1="459.45456969724466" x2="482.00000000000085" y2="459.48162187434315" style="stroke: black; stroke-width: 2px;"></line><line x1="482.00000000000085" y1="459.48162187434315" x2="483.0000000000008" y2="459.5073358151734" style="stroke: black; stroke-width: 2px;"></line><line x1="483.0000000000008" y1="459.5073358151734" x2="484.00000000000085" y2="459.53177681604416" style="stroke: black; stroke-width: 2px;"></line><line x1="484.00000000000085" y1="459.53177681604416" x2="485.00000000000085" y2="459.5550070800649" style="stroke: black; stroke-width: 2px;"></line><line x1="485.00000000000085" y1="459.5550070800649" x2="486.0000000000008" y2="459.5770858558447" style="stroke: black; stroke-width: 2px;"></line><line x1="486.0000000000008" y1="459.5770858558447" x2="487.0000000000008" y2="459.59806957058447" style="stroke: black; stroke-width: 2px;"></line><line x1="487.0000000000008" y1="459.59806957058447" x2="488.0000000000008" y2="459.6180119577425" style="stroke: black; stroke-width: 2px;"></line><line x1="488.0000000000008" y1="459.6180119577425" x2="489.0000000000008" y2="459.63696417945096" style="stroke: black; stroke-width: 2px;"></line><line x1="489.0000000000008" y1="459.63696417945096" x2="490.0000000000008" y2="459.6549749438587" style="stroke: black; stroke-width: 2px;"></line><line x1="490.0000000000008" y1="459.6549749438587" x2="491.00000000000074" y2="459.672090617573" style="stroke: black; stroke-width: 2px;"></line><line x1="491.00000000000074" y1="459.672090617573" x2="492.00000000000074" y2="459.6883553333699" style="stroke: black; stroke-width: 2px;"></line><line x1="492.00000000000074" y1="459.6883553333699" x2="493.0000000000008" y2="459.70381109333937" style="stroke: black; stroke-width: 2px;"></line><line x1="493.0000000000008" y1="459.70381109333937" x2="494.00000000000074" y2="459.7184978676298" style="stroke: black; stroke-width: 2px;"></line><line x1="494.00000000000074" y1="459.7184978676298" x2="495.00000000000074" y2="459.73245368895044" style="stroke: black; stroke-width: 2px;"></line><line x1="495.00000000000074" y1="459.73245368895044" x2="496.00000000000074" y2="459.74571474298784" style="stroke: black; stroke-width: 2px;"></line><line x1="496.00000000000074" y1="459.74571474298784" x2="497.00000000000074" y2="459.75831545489046" style="stroke: black; stroke-width: 2px;"></line><line x1="497.00000000000074" y1="459.75831545489046" x2="498.00000000000074" y2="459.7702885719681" style="stroke: black; stroke-width: 2px;"></line><line x1="498.00000000000074" y1="459.7702885719681" x2="499.0000000000006" y2="459.7816652427521" style="stroke: black; stroke-width: 2px;"></line><line x1="499.0000000000006" y1="459.7816652427521" x2="500.00000000000074" y2="459.79247509255725" style="stroke: black; stroke-width: 2px;"></line><line x1="500.00000000000074" y1="459.79247509255725" x2="501.00000000000074" y2="459.8027462956818" style="stroke: black; stroke-width: 2px;"></line><line x1="501.00000000000074" y1="459.8027462956818" x2="502.0000000000006" y2="459.81250564437886" style="stroke: black; stroke-width: 2px;"></line><line x1="502.0000000000006" y1="459.81250564437886" x2="503.0000000000006" y2="459.82177861472843" style="stroke: black; stroke-width: 2px;"></line><line x1="503.0000000000006" y1="459.82177861472843" x2="504.0000000000006" y2="459.83058942953465" style="stroke: black; stroke-width: 2px;"></line><line x1="504.0000000000006" y1="459.83058942953465" x2="505.0000000000006" y2="459.83896111837" style="stroke: black; stroke-width: 2px;"></line><line x1="505.0000000000006" y1="459.83896111837" x2="506.0000000000006" y2="459.84691557488264" style="stroke: black; stroke-width: 2px;"></line><line x1="506.0000000000006" y1="459.84691557488264" x2="507.00000000000057" y2="459.8544736114821" style="stroke: black; stroke-width: 2px;"></line><line x1="507.00000000000057" y1="459.8544736114821" x2="508.0000000000006" y2="459.8616550115108" style="stroke: black; stroke-width: 2px;"></line><line x1="508.0000000000006" y1="459.8616550115108" x2="509.0000000000006" y2="459.8684785790086" style="stroke: black; stroke-width: 2px;"></line><line x1="509.0000000000006" y1="459.8684785790086" x2="510.00000000000057" y2="459.87496218617196" style="stroke: black; stroke-width: 2px;"></line><line x1="510.00000000000057" y1="459.87496218617196" x2="511.00000000000057" y2="459.8811228186067" style="stroke: black; stroke-width: 2px;"></line><line x1="511.00000000000057" y1="459.8811228186067" x2="512.0000000000006" y2="459.88697661846845" style="stroke: black; stroke-width: 2px;"></line><line x1="512.0000000000006" y1="459.88697661846845" x2="513.0000000000006" y2="459.8925389255831" style="stroke: black; stroke-width: 2px;"></line><line x1="513.0000000000006" y1="459.8925389255831" x2="514.0000000000006" y2="459.89782431663485" style="stroke: black; stroke-width: 2px;"></line><line x1="514.0000000000006" y1="459.89782431663485" x2="515.0000000000005" y2="459.90284664250674" style="stroke: black; stroke-width: 2px;"></line><line x1="515.0000000000005" y1="459.90284664250674" x2="516.0000000000006" y2="459.9076190638553" style="stroke: black; stroke-width: 2px;"></line><line x1="516.0000000000006" y1="459.9076190638553" x2="517.0000000000006" y2="459.9121540849974" style="stroke: black; stroke-width: 2px;"></line><line x1="517.0000000000006" y1="459.9121540849974" x2="518.0000000000005" y2="459.91646358618465" style="stroke: black; stroke-width: 2px;"></line><line x1="518.0000000000005" y1="459.91646358618465" x2="519.0000000000005" y2="459.9205588543383" style="stroke: black; stroke-width: 2px;"></line><line x1="519.0000000000005" y1="459.9205588543383" x2="520.0000000000005" y2="459.924450612313" style="stroke: black; stroke-width: 2px;"></line><line x1="207.4403026637189" y1="460" x2="207.4403026637189" y2="423.34141473301224" style="stroke: rgb(0, 85, 255); stroke-width: 2px;"></line><line x1="208.4403026637189" y1="460" x2="208.4403026637189" y2="421.83107303575747" style="stroke: rgb(0, 85, 255); stroke-width: 2px;"></line><line x1="209.4403026637189" y1="460" x2="209.4403026637189" y2="420.26919588084854" style="stroke: rgb(0, 85, 255); stroke-width: 2px;"></line><line x1="210.4403026637189" y1="460" x2="210.4403026637189" y2="418.65470346615075" style="stroke: rgb(0, 85, 255); stroke-width: 2px;"></line><line x1="211.44030266371894" y1="460" x2="211.44030266371894" y2="416.98653672994516" style="stroke: rgb(0, 85, 255); stroke-width: 2px;"></line><line x1="212.44030266371894" y1="460" x2="212.44030266371894" y2="415.2636607897312" style="stroke: rgb(0, 85, 255); stroke-width: 2px;"></line><line x1="213.44030266371894" y1="460" x2="213.44030266371894" y2="413.48506852890836" style="stroke: rgb(0, 85, 255); stroke-width: 2px;"></line><line x1="214.4403026637189" y1="460" x2="214.4403026637189" y2="411.649784328728" style="stroke: rgb(0, 85, 255); stroke-width: 2px;"></line><line x1="215.44030266371894" y1="460" x2="215.44030266371894" y2="409.75686794210566" style="stroke: rgb(0, 85, 255); stroke-width: 2px;"></line><line x1="216.44030266371894" y1="460" x2="216.44030266371894" y2="407.8054185050389" style="stroke: rgb(0, 85, 255); stroke-width: 2px;"></line><line x1="217.4403026637189" y1="460" x2="217.4403026637189" y2="405.79457868049303" style="stroke: rgb(0, 85, 255); stroke-width: 2px;"></line><line x1="218.4403026637189" y1="460" x2="218.4403026637189" y2="403.7235389286927" style="stroke: rgb(0, 85, 255); stroke-width: 2px;"></line><line x1="219.4403026637189" y1="460" x2="219.4403026637189" y2="401.5915418967962" style="stroke: rgb(0, 85, 255); stroke-width: 2px;"></line><line x1="220.44030266371894" y1="460" x2="220.44030266371894" y2="399.39788691993687" style="stroke: rgb(0, 85, 255); stroke-width: 2px;"></line><line x1="221.4403026637189" y1="460" x2="221.4403026637189" y2="397.1419346245882" style="stroke: rgb(0, 85, 255); stroke-width: 2px;"></line><line x1="222.4403026637189" y1="460" x2="222.4403026637189" y2="394.82311162416306" style="stroke: rgb(0, 85, 255); stroke-width: 2px;"></line><line x1="223.4403026637189" y1="460" x2="223.4403026637189" y2="392.440915295679" style="stroke: rgb(0, 85, 255); stroke-width: 2px;"></line><line x1="224.44030266371894" y1="460" x2="224.44030266371894" y2="389.9949186252378" style="stroke: rgb(0, 85, 255); stroke-width: 2px;"></line><line x1="225.4403026637189" y1="460" x2="225.4403026637189" y2="387.4847751089574" style="stroke: rgb(0, 85, 255); stroke-width: 2px;"></line><line x1="226.4403026637189" y1="460" x2="226.4403026637189" y2="384.9102236948969" style="stroke: rgb(0, 85, 255); stroke-width: 2px;"></line><line x1="227.4403026637189" y1="460" x2="227.4403026637189" y2="382.271093750397" style="stroke: rgb(0, 85, 255); stroke-width: 2px;"></line><line x1="228.4403026637189" y1="460" x2="228.4403026637189" y2="379.56731003816617" style="stroke: rgb(0, 85, 255); stroke-width: 2px;"></line><line x1="229.4403026637189" y1="460" x2="229.4403026637189" y2="376.79889768335636" style="stroke: rgb(0, 85, 255); stroke-width: 2px;"></line><line x1="230.4403026637189" y1="460" x2="230.4403026637189" y2="373.96598711280524" style="stroke: rgb(0, 85, 255); stroke-width: 2px;"></line><line x1="231.4403026637189" y1="460" x2="231.4403026637189" y2="371.06881894659585" style="stroke: rgb(0, 85, 255); stroke-width: 2px;"></line><line x1="232.4403026637189" y1="460" x2="232.4403026637189" y2="368.10774882108643" style="stroke: rgb(0, 85, 255); stroke-width: 2px;"></line><line x1="233.4403026637189" y1="460" x2="233.4403026637189" y2="365.08325212162435" style="stroke: rgb(0, 85, 255); stroke-width: 2px;"></line><line x1="234.4403026637189" y1="460" x2="234.4403026637189" y2="361.99592860226596" style="stroke: rgb(0, 85, 255); stroke-width: 2px;"></line><line x1="235.4403026637189" y1="460" x2="235.4403026637189" y2="358.84650686900665" style="stroke: rgb(0, 85, 255); stroke-width: 2px;"></line><line x1="236.4403026637189" y1="460" x2="236.4403026637189" y2="355.635848702281" style="stroke: rgb(0, 85, 255); stroke-width: 2px;"></line><line x1="237.4403026637189" y1="460" x2="237.4403026637189" y2="352.364953193839" style="stroke: rgb(0, 85, 255); stroke-width: 2px;"></line><line x1="238.4403026637189" y1="460" x2="238.4403026637189" y2="349.0349606725351" style="stroke: rgb(0, 85, 255); stroke-width: 2px;"></line><line x1="239.4403026637189" y1="460" x2="239.4403026637189" y2="345.6471563931184" style="stroke: rgb(0, 85, 255); stroke-width: 2px;"></line><line x1="240.4403026637189" y1="460" x2="240.4403026637189" y2="342.2029739617717" style="stroke: rgb(0, 85, 255); stroke-width: 2px;"></line><line x1="241.4403026637189" y1="460" x2="241.4403026637189" y2="338.7039984719248" style="stroke: rgb(0, 85, 255); stroke-width: 2px;"></line><line x1="242.4403026637189" y1="460" x2="242.4403026637189" y2="335.1519693237943" style="stroke: rgb(0, 85, 255); stroke-width: 2px;"></line><line x1="243.4403026637189" y1="460" x2="243.4403026637189" y2="331.54878270115483" style="stroke: rgb(0, 85, 255); stroke-width: 2px;"></line><line x1="244.4403026637189" y1="460" x2="244.4403026637189" y2="327.89649367906634" style="stroke: rgb(0, 85, 255); stroke-width: 2px;"></line><line x1="245.4403026637189" y1="460" x2="245.4403026637189" y2="324.19731793663925" style="stroke: rgb(0, 85, 255); stroke-width: 2px;"></line><line x1="246.4403026637189" y1="460" x2="246.4403026637189" y2="320.45363304946704" style="stroke: rgb(0, 85, 255); stroke-width: 2px;"></line><line x1="247.4403026637189" y1="460" x2="247.4403026637189" y2="316.66797933704834" style="stroke: rgb(0, 85, 255); stroke-width: 2px;"></line><line x1="248.4403026637189" y1="460" x2="248.4403026637189" y2="312.8430602414092" style="stroke: rgb(0, 85, 255); stroke-width: 2px;"></line><line x1="249.4403026637189" y1="460" x2="249.4403026637189" y2="308.9817422141924" style="stroke: rgb(0, 85, 255); stroke-width: 2px;"></line><line x1="250.4403026637189" y1="460" x2="250.4403026637189" y2="305.0870540907233" style="stroke: rgb(0, 85, 255); stroke-width: 2px;"></line><line x1="251.4403026637189" y1="460" x2="251.4403026637189" y2="301.1621859309935" style="stroke: rgb(0, 85, 255); stroke-width: 2px;"></line><line x1="252.4403026637189" y1="460" x2="252.4403026637189" y2="297.2104873091092" style="stroke: rgb(0, 85, 255); stroke-width: 2px;"></line><line x1="253.4403026637189" y1="460" x2="253.4403026637189" y2="293.2354650345509" style="stroke: rgb(0, 85, 255); stroke-width: 2px;"></line><line x1="254.4403026637189" y1="460" x2="254.4403026637189" y2="289.2407802905652" style="stroke: rgb(0, 85, 255); stroke-width: 2px;"></line><line x1="255.4403026637189" y1="460" x2="255.4403026637189" y2="285.2302451771625" style="stroke: rgb(0, 85, 255); stroke-width: 2px;"></line><line x1="256.4403026637189" y1="460" x2="256.4403026637189" y2="281.20781864852427" style="stroke: rgb(0, 85, 255); stroke-width: 2px;"></line><line x1="257.4403026637189" y1="460" x2="257.4403026637189" y2="277.1776018370996" style="stroke: rgb(0, 85, 255); stroke-width: 2px;"></line><line x1="258.44030266371885" y1="460" x2="258.44030266371885" y2="273.1438327593302" style="stroke: rgb(0, 85, 255); stroke-width: 2px;"></line><line x1="259.44030266371885" y1="460" x2="259.44030266371885" y2="269.1108804007199" style="stroke: rgb(0, 85, 255); stroke-width: 2px;"></line><line x1="260.4403026637189" y1="460" x2="260.4403026637189" y2="265.08323818088553" style="stroke: rgb(0, 85, 255); stroke-width: 2px;"></line><line x1="261.4403026637189" y1="460" x2="261.4403026637189" y2="261.06551680227795" style="stroke: rgb(0, 85, 255); stroke-width: 2px;"></line><line x1="262.44030266371885" y1="460" x2="262.44030266371885" y2="257.0624364893823" style="stroke: rgb(0, 85, 255); stroke-width: 2px;"></line><line x1="263.4403026637189" y1="460" x2="263.4403026637189" y2="253.07881862846017" style="stroke: rgb(0, 85, 255); stroke-width: 2px;"></line><line x1="264.4403026637189" y1="460" x2="264.4403026637189" y2="249.11957682117298" style="stroke: rgb(0, 85, 255); stroke-width: 2px;"></line><line x1="265.4403026637189" y1="460" x2="265.4403026637189" y2="245.18970736878492" style="stroke: rgb(0, 85, 255); stroke-width: 2px;"></line><line x1="266.44030266371885" y1="460" x2="266.44030266371885" y2="241.2942792070085" style="stroke: rgb(0, 85, 255); stroke-width: 2px;"></line><line x1="267.44030266371885" y1="460" x2="267.44030266371885" y2="237.43842331493732" style="stroke: rgb(0, 85, 255); stroke-width: 2px;"></line><line x1="268.4403026637189" y1="460" x2="268.4403026637189" y2="233.62732162487933" style="stroke: rgb(0, 85, 255); stroke-width: 2px;"></line><line x1="269.44030266371885" y1="460" x2="269.44030266371885" y2="229.8661954632056" style="stroke: rgb(0, 85, 255); stroke-width: 2px;"></line><line x1="270.44030266371885" y1="460" x2="270.44030266371885" y2="226.16029355561133" style="stroke: rgb(0, 85, 255); stroke-width: 2px;"></line><line x1="271.4403026637189" y1="460" x2="271.4403026637189" y2="222.51487963332534" style="stroke: rgb(0, 85, 255); stroke-width: 2px;"></line><line x1="272.4403026637189" y1="460" x2="272.4403026637189" y2="218.93521967988215" style="stroke: rgb(0, 85, 255); stroke-width: 2px;"></line><line x1="273.44030266371885" y1="460" x2="273.44030266371885" y2="215.42656886095412" style="stroke: rgb(0, 85, 255); stroke-width: 2px;"></line><line x1="274.44030266371885" y1="460" x2="274.44030266371885" y2="211.99415818252007" style="stroke: rgb(0, 85, 255); stroke-width: 2px;"></line><line x1="275.44030266371885" y1="460" x2="275.44030266371885" y2="208.6431809251796" style="stroke: rgb(0, 85, 255); stroke-width: 2px;"></line><line x1="276.4403026637189" y1="460" x2="276.4403026637189" y2="205.37877890479072" style="stroke: rgb(0, 85, 255); stroke-width: 2px;"></line><line x1="277.44030266371885" y1="460" x2="277.44030266371885" y2="202.20602861172097" style="stroke: rgb(0, 85, 255); stroke-width: 2px;"></line><line x1="278.44030266371885" y1="460" x2="278.44030266371885" y2="199.1299272828502" style="stroke: rgb(0, 85, 255); stroke-width: 2px;"></line><line x1="279.4403026637189" y1="460" x2="279.4403026637189" y2="196.15537896206678" style="stroke: rgb(0, 85, 255); stroke-width: 2px;"></line><line x1="280.44030266371885" y1="460" x2="280.44030266371885" y2="193.28718060628688" style="stroke: rgb(0, 85, 255); stroke-width: 2px;"></line><line x1="281.44030266371885" y1="460" x2="281.44030266371885" y2="190.5300082950052" style="stroke: rgb(0, 85, 255); stroke-width: 2px;"></line><line x1="282.44030266371885" y1="460" x2="282.44030266371885" y2="187.888403602057" style="stroke: rgb(0, 85, 255); stroke-width: 2px;"></line><line x1="283.44030266371885" y1="460" x2="283.44030266371885" y2="185.3667601885934" style="stroke: rgb(0, 85, 255); stroke-width: 2px;"></line><line x1="284.44030266371885" y1="460" x2="284.44030266371885" y2="182.9693106762512" style="stroke: rgb(0, 85, 255); stroke-width: 2px;"></line><line x1="285.44030266371885" y1="460" x2="285.44030266371885" y2="180.7001138591425" style="stroke: rgb(0, 85, 255); stroke-width: 2px;"></line><line x1="286.44030266371885" y1="460" x2="286.44030266371885" y2="178.56304231254035" style="stroke: rgb(0, 85, 255); stroke-width: 2px;"></line><line x1="287.44030266371885" y1="460" x2="287.44030266371885" y2="176.56177045508133" style="stroke: rgb(0, 85, 255); stroke-width: 2px;"></line><line x1="288.44030266371885" y1="460" x2="288.44030266371885" y2="174.6997631198454" style="stroke: rgb(0, 85, 255); stroke-width: 2px;"></line><line x1="289.44030266371885" y1="460" x2="289.44030266371885" y2="172.9802646878893" style="stroke: rgb(0, 85, 255); stroke-width: 2px;"></line><line x1="290.44030266371885" y1="460" x2="290.44030266371885" y2="171.4062888356824" style="stroke: rgb(0, 85, 255); stroke-width: 2px;"></line><line x1="291.44030266371885" y1="460" x2="291.44030266371885" y2="169.98060894539879" style="stroke: rgb(0, 85, 255); stroke-width: 2px;"></line><line x1="292.44030266371885" y1="460" x2="292.44030266371885" y2="168.70574922425442" style="stroke: rgb(0, 85, 255); stroke-width: 2px;"></line><line x1="293.44030266371885" y1="460" x2="293.44030266371885" y2="167.583976575953" style="stroke: rgb(0, 85, 255); stroke-width: 2px;"></line><line x1="294.44030266371885" y1="460" x2="294.44030266371885" y2="166.61729326392867" style="stroke: rgb(0, 85, 255); stroke-width: 2px;"></line><line x1="295.44030266371885" y1="460" x2="295.44030266371885" y2="165.80743040240606" style="stroke: rgb(0, 85, 255); stroke-width: 2px;"></line><line x1="296.44030266371885" y1="460" x2="296.44030266371885" y2="165.15584230741064" style="stroke: rgb(0, 85, 255); stroke-width: 2px;"></line><line x1="297.44030266371885" y1="460" x2="297.44030266371885" y2="164.66370173571636" style="stroke: rgb(0, 85, 255); stroke-width: 2px;"></line><line x1="298.44030266371885" y1="460" x2="298.44030266371885" y2="164.3318960354298" style="stroke: rgb(0, 85, 255); stroke-width: 2px;"></line><line x1="299.44030266371885" y1="460" x2="299.44030266371885" y2="164.16102422741199" style="stroke: rgb(0, 85, 255); stroke-width: 2px;"></line><line x1="300.44030266371885" y1="460" x2="300.44030266371885" y2="164.15139503213777" style="stroke: rgb(0, 85, 255); stroke-width: 2px;"></line><line x1="301.44030266371885" y1="460" x2="301.44030266371885" y2="164.30302585187587" style="stroke: rgb(0, 85, 255); stroke-width: 2px;"></line><line x1="302.44030266371885" y1="460" x2="302.44030266371885" y2="164.61564271329712" style="stroke: rgb(0, 85, 255); stroke-width: 2px;"></line><line x1="303.44030266371885" y1="460" x2="303.44030266371885" y2="165.08868117080033" style="stroke: rgb(0, 85, 255); stroke-width: 2px;"></line><line x1="304.44030266371885" y1="460" x2="304.44030266371885" y2="165.72128816601577" style="stroke: rgb(0, 85, 255); stroke-width: 2px;"></line><line x1="305.44030266371885" y1="460" x2="305.44030266371885" y2="166.51232483417857" style="stroke: rgb(0, 85, 255); stroke-width: 2px;"></line><line x1="306.44030266371885" y1="460" x2="306.44030266371885" y2="167.46037024333293" style="stroke: rgb(0, 85, 255); stroke-width: 2px;"></line><line x1="307.44030266371885" y1="460" x2="307.44030266371885" y2="168.5637260476936" style="stroke: rgb(0, 85, 255); stroke-width: 2px;"></line><line x1="308.44030266371885" y1="460" x2="308.44030266371885" y2="169.8204220320115" style="stroke: rgb(0, 85, 255); stroke-width: 2px;"></line><line x1="309.44030266371885" y1="460" x2="309.44030266371885" y2="171.22822251945001" style="stroke: rgb(0, 85, 255); stroke-width: 2px;"></line><line x1="310.44030266371885" y1="460" x2="310.44030266371885" y2="172.78463361132492" style="stroke: rgb(0, 85, 255); stroke-width: 2px;"></line><line x1="311.44030266371885" y1="460" x2="311.44030266371885" y2="174.48691122313824" style="stroke: rgb(0, 85, 255); stroke-width: 2px;"></line><line x1="312.44030266371885" y1="460" x2="312.44030266371885" y2="176.33206987764441" style="stroke: rgb(0, 85, 255); stroke-width: 2px;"></line><line x1="313.44030266371885" y1="460" x2="313.44030266371885" y2="178.31689221227128" style="stroke: rgb(0, 85, 255); stroke-width: 2px;"></line><line x1="314.44030266371885" y1="460" x2="314.44030266371885" y2="180.4379391550646" style="stroke: rgb(0, 85, 255); stroke-width: 2px;"></line><line x1="315.44030266371885" y1="460" x2="315.44030266371885" y2="182.69156072051715" style="stroke: rgb(0, 85, 255); stroke-width: 2px;"></line><line x1="316.44030266371885" y1="460" x2="316.44030266371885" y2="185.07390737411208" style="stroke: rgb(0, 85, 255); stroke-width: 2px;"></line><line x1="317.44030266371885" y1="460" x2="317.44030266371885" y2="187.5809419122445" style="stroke: rgb(0, 85, 255); stroke-width: 2px;"></line><line x1="318.44030266371885" y1="460" x2="318.44030266371885" y2="190.2084518023438" style="stroke: rgb(0, 85, 255); stroke-width: 2px;"></line><line x1="319.44030266371885" y1="460" x2="319.44030266371885" y2="192.95206192655354" style="stroke: rgb(0, 85, 255); stroke-width: 2px;"></line><line x1="320.44030266371885" y1="460" x2="320.44030266371885" y2="195.80724767117295" style="stroke: rgb(0, 85, 255); stroke-width: 2px;"></line><line x1="321.44030266371885" y1="460" x2="321.44030266371885" y2="198.76934830332698" style="stroke: rgb(0, 85, 255); stroke-width: 2px;"></line><line x1="322.44030266371885" y1="460" x2="322.44030266371885" y2="201.83358057589783" style="stroke: rgb(0, 85, 255); stroke-width: 2px;"></line><line x1="323.44030266371885" y1="460" x2="323.44030266371885" y2="204.9950525016999" style="stroke: rgb(0, 85, 255); stroke-width: 2px;"></line><line x1="324.44030266371885" y1="460" x2="324.44030266371885" y2="208.24877723816493" style="stroke: rgb(0, 85, 255); stroke-width: 2px;"></line><line x1="325.44030266371885" y1="460" x2="325.44030266371885" y2="211.58968702443428" style="stroke: rgb(0, 85, 255); stroke-width: 2px;"></line><line x1="326.44030266371885" y1="460" x2="326.44030266371885" y2="215.01264711368194" style="stroke: rgb(0, 85, 255); stroke-width: 2px;"></line><line x1="327.44030266371885" y1="460" x2="327.44030266371885" y2="218.51246964477792" style="stroke: rgb(0, 85, 255); stroke-width: 2px;"></line><line x1="328.44030266371885" y1="460" x2="328.44030266371885" y2="222.0839273989305" style="stroke: rgb(0, 85, 255); stroke-width: 2px;"></line><line x1="329.44030266371885" y1="460" x2="329.44030266371885" y2="225.7217673887854" style="stroke: rgb(0, 85, 255); stroke-width: 2px;"></line><line x1="330.44030266371885" y1="460" x2="330.44030266371885" y2="229.42072422955243" style="stroke: rgb(0, 85, 255); stroke-width: 2px;"></line><line x1="331.44030266371885" y1="460" x2="331.44030266371885" y2="233.17553324403337" style="stroke: rgb(0, 85, 255); stroke-width: 2px;"></line><line x1="332.44030266371885" y1="460" x2="332.44030266371885" y2="236.9809432559864" style="stroke: rgb(0, 85, 255); stroke-width: 2px;"></line><line x1="333.44030266371885" y1="460" x2="333.44030266371885" y2="240.83172902896894" style="stroke: rgb(0, 85, 255); stroke-width: 2px;"></line><line x1="334.44030266371885" y1="460" x2="334.44030266371885" y2="244.72270331070618" style="stroke: rgb(0, 85, 255); stroke-width: 2px;"></line><line x1="335.44030266371885" y1="460" x2="335.44030266371885" y2="248.64872844606273" style="stroke: rgb(0, 85, 255); stroke-width: 2px;"></line><line x1="336.44030266371885" y1="460" x2="336.44030266371885" y2="252.60472752485748" style="stroke: rgb(0, 85, 255); stroke-width: 2px;"></line><line x1="337.44030266371885" y1="460" x2="337.44030266371885" y2="256.5856950339913" style="stroke: rgb(0, 85, 255); stroke-width: 2px;"></line><line x1="338.44030266371885" y1="460" x2="338.44030266371885" y2="260.5867069866931" style="stroke: rgb(0, 85, 255); stroke-width: 2px;"></line><line x1="339.44030266371885" y1="460" x2="339.44030266371885" y2="264.602930505028" style="stroke: rgb(0, 85, 255); stroke-width: 2px;"></line><line x1="340.44030266371885" y1="460" x2="340.44030266371885" y2="268.62963283520367" style="stroke: rgb(0, 85, 255); stroke-width: 2px;"></line><line x1="341.44030266371885" y1="460" x2="341.44030266371885" y2="272.66218977857415" style="stroke: rgb(0, 85, 255); stroke-width: 2px;"></line><line x1="342.44030266371885" y1="460" x2="342.44030266371885" y2="276.6960935246042" style="stroke: rgb(0, 85, 255); stroke-width: 2px;"></line><line x1="343.44030266371885" y1="460" x2="343.44030266371885" y2="280.72695987534354" style="stroke: rgb(0, 85, 255); stroke-width: 2px;"></line><line x1="344.44030266371885" y1="460" x2="344.44030266371885" y2="284.75053485421586" style="stroke: rgb(0, 85, 255); stroke-width: 2px;"></line><line x1="345.44030266371885" y1="460" x2="345.44030266371885" y2="288.7627006950687" style="stroke: rgb(0, 85, 255); stroke-width: 2px;"></line><line x1="346.44030266371885" y1="460" x2="346.44030266371885" y2="292.759481210489" style="stroke: rgb(0, 85, 255); stroke-width: 2px;"></line><line x1="347.44030266371885" y1="460" x2="347.44030266371885" y2="296.73704654132086" style="stroke: rgb(0, 85, 255); stroke-width: 2px;"></line><line x1="348.44030266371885" y1="460" x2="348.44030266371885" y2="300.691717292132" style="stroke: rgb(0, 85, 255); stroke-width: 2px;"></line><line x1="349.44030266371885" y1="460" x2="349.44030266371885" y2="304.6199680600308" style="stroke: rgb(0, 85, 255); stroke-width: 2px;"></line><line x1="350.44030266371885" y1="460" x2="350.44030266371885" y2="308.5184303667461" style="stroke: rgb(0, 85, 255); stroke-width: 2px;"></line><line x1="351.44030266371885" y1="460" x2="351.44030266371885" y2="312.3838950062284" style="stroke: rgb(0, 85, 255); stroke-width: 2px;"></line><line x1="352.44030266371885" y1="460" x2="352.44030266371885" y2="316.21331382220103" style="stroke: rgb(0, 85, 255); stroke-width: 2px;"></line><line x1="353.44030266371885" y1="460" x2="353.44030266371885" y2="320.0038009320927" style="stroke: rgb(0, 85, 255); stroke-width: 2px;"></line><line x1="354.44030266371885" y1="460" x2="354.44030266371885" y2="323.75263341559116" style="stroke: rgb(0, 85, 255); stroke-width: 2px;"></line><line x1="355.44030266371885" y1="460" x2="355.44030266371885" y2="327.45725148770475" style="stroke: rgb(0, 85, 255); stroke-width: 2px;"></line><line x1="356.44030266371885" y1="460" x2="356.44030266371885" y2="331.11525817765335" style="stroke: rgb(0, 85, 255); stroke-width: 2px;"></line><line x1="357.44030266371885" y1="460" x2="357.44030266371885" y2="334.7244185361873" style="stroke: rgb(0, 85, 255); stroke-width: 2px;"></line><line x1="358.44030266371885" y1="460" x2="358.44030266371885" y2="338.2826583950047" style="stroke: rgb(0, 85, 255); stroke-width: 2px;"></line><line x1="359.44030266371885" y1="460" x2="359.44030266371885" y2="341.7880627028509" style="stroke: rgb(0, 85, 255); stroke-width: 2px;"></line><line x1="360.44030266371885" y1="460" x2="360.44030266371885" y2="345.23887346359317" style="stroke: rgb(0, 85, 255); stroke-width: 2px;"></line><line x1="361.44030266371885" y1="460" x2="361.44030266371885" y2="348.63348730213613" style="stroke: rgb(0, 85, 255); stroke-width: 2px;"></line><line x1="362.44030266371885" y1="460" x2="362.44030266371885" y2="351.97045268441707" style="stroke: rgb(0, 85, 255); stroke-width: 2px;"></line><line x1="363.44030266371885" y1="460" x2="363.44030266371885" y2="355.2484668179575" style="stroke: rgb(0, 85, 255); stroke-width: 2px;"></line><line x1="364.44030266371885" y1="460" x2="364.44030266371885" y2="358.466372259521" style="stroke: rgb(0, 85, 255); stroke-width: 2px;"></line><line x1="365.44030266371885" y1="460" x2="365.44030266371885" y2="361.6231532563705" style="stroke: rgb(0, 85, 255); stroke-width: 2px;"></line><line x1="366.44030266371885" y1="460" x2="366.44030266371885" y2="364.71793184740176" style="stroke: rgb(0, 85, 255); stroke-width: 2px;"></line><line x1="367.44030266371885" y1="460" x2="367.44030266371885" y2="367.74996375012495" style="stroke: rgb(0, 85, 255); stroke-width: 2px;"></line><line x1="368.44030266371885" y1="460" x2="368.44030266371885" y2="370.7186340590049" style="stroke: rgb(0, 85, 255); stroke-width: 2px;"></line><line x1="369.44030266371885" y1="460" x2="369.44030266371885" y2="373.6234527801331" style="stroke: rgb(0, 85, 255); stroke-width: 2px;"></line><line x1="370.44030266371885" y1="460" x2="370.44030266371885" y2="376.46405022655324" style="stroke: rgb(0, 85, 255); stroke-width: 2px;"></line><line x1="371.44030266371885" y1="460" x2="371.44030266371885" y2="379.240172297831" style="stroke: rgb(0, 85, 255); stroke-width: 2px;"></line><line x1="372.4403026637188" y1="460" x2="372.4403026637188" y2="381.9516756666419" style="stroke: rgb(0, 85, 255); stroke-width: 2px;"></line><line x1="373.44030266371885" y1="460" x2="373.44030266371885" y2="384.59852289428073" style="stroke: rgb(0, 85, 255); stroke-width: 2px;"></line><line x1="374.44030266371885" y1="460" x2="374.44030266371885" y2="387.1807774960473" style="stroke: rgb(0, 85, 255); stroke-width: 2px;"></line><line x1="375.44030266371885" y1="460" x2="375.44030266371885" y2="389.6985989764855" style="stroke: rgb(0, 85, 255); stroke-width: 2px;"></line><line x1="376.44030266371885" y1="460" x2="376.44030266371885" y2="392.1522378534178" style="stroke: rgb(0, 85, 255); stroke-width: 2px;"></line><line x1="377.44030266371885" y1="460" x2="377.44030266371885" y2="394.5420306886614" style="stroke: rgb(0, 85, 255); stroke-width: 2px;"></line><line x1="378.44030266371885" y1="460" x2="378.44030266371885" y2="396.8683951422307" style="stroke: rgb(0, 85, 255); stroke-width: 2px;"></line><line x1="379.4403026637188" y1="460" x2="379.4403026637188" y2="399.13182506572724" style="stroke: rgb(0, 85, 255); stroke-width: 2px;"></line><line x1="380.4403026637188" y1="460" x2="380.4403026637188" y2="401.33288564951647" style="stroke: rgb(0, 85, 255); stroke-width: 2px;"></line><line x1="381.44030266371885" y1="460" x2="381.44030266371885" y2="403.47220863717945" style="stroke: rgb(0, 85, 255); stroke-width: 2px;"></line><line x1="382.44030266371885" y1="460" x2="382.44030266371885" y2="405.5504876196282" style="stroke: rgb(0, 85, 255); stroke-width: 2px;"></line><line x1="383.4403026637188" y1="460" x2="383.4403026637188" y2="407.56847342017534" style="stroke: rgb(0, 85, 255); stroke-width: 2px;"></line><line x1="384.44030266371885" y1="460" x2="384.44030266371885" y2="409.526969580781" style="stroke: rgb(0, 85, 255); stroke-width: 2px;"></line><line x1="385.44030266371885" y1="460" x2="385.44030266371885" y2="411.4268279586404" style="stroke: rgb(0, 85, 255); stroke-width: 2px;"></line><line x1="386.44030266371885" y1="460" x2="386.44030266371885" y2="413.2689444412504" style="stroke: rgb(0, 85, 255); stroke-width: 2px;"></line><line x1="387.4403026637188" y1="460" x2="387.4403026637188" y2="415.054254787094" style="stroke: rgb(0, 85, 255); stroke-width: 2px;"></line><line x1="388.4403026637188" y1="460" x2="388.4403026637188" y2="416.7837305981188" style="stroke: rgb(0, 85, 255); stroke-width: 2px;"></line><line x1="389.44030266371885" y1="460" x2="389.44030266371885" y2="418.45837542925483" style="stroke: rgb(0, 85, 255); stroke-width: 2px;"></line><line x1="390.44030266371885" y1="460" x2="390.44030266371885" y2="420.0792210393301" style="stroke: rgb(0, 85, 255); stroke-width: 2px;"></line><line x1="391.44030266371885" y1="460" x2="391.44030266371885" y2="421.6473237868912" style="stroke: rgb(0, 85, 255); stroke-width: 2px;"></line><line x1="392.44030266371885" y1="460" x2="392.44030266371885" y2="423.1637611736339" style="stroke: rgb(0, 85, 255); stroke-width: 2px;"></line><line x1="207.4403026637189" y1="460" x2="207.4403026637189" y2="485" style="stroke: rgb(0, 85, 255); stroke-width: 2px;"></line><line x1="392.55969733628115" y1="460" x2="392.55969733628115" y2="485" style="stroke: rgb(0, 85, 255); stroke-width: 2px;"></line><text x="207.4403026637189" y="505" style="stroke: rgb(0, 85, 255); font-size: 9pt; font-family: sans-serif; text-anchor: middle;">-2.104</text><text x="392.55969733628115" y="505" style="stroke: rgb(0, 85, 255); font-size: 9pt; font-family: sans-serif; text-anchor: middle;">2.104</text><text x="300" y="500" style="stroke: rgb(0, 85, 255); font-size: 9pt; font-family: sans-serif; text-anchor: middle;">&lt;- Accept H₀ -&gt;</text><text x="147.4403026637189" y="500" style="stroke: red; font-size: 9pt; font-family: sans-serif; text-anchor: middle;">Reject H₀ -&gt;</text><text x="452.55969733628115" y="500" style="stroke: red; font-size: 9pt; font-family: sans-serif; text-anchor: middle;">&lt;- Reject H₀</text><text x="167.4403026637189" y="440" style="stroke: red; font-size: 9pt; font-family: sans-serif; text-anchor: middle;">0.025</text><text x="437.55969733628115" y="440" style="stroke: red; font-size: 9pt; font-family: sans-serif; text-anchor: middle;">0.025</text><line x1="309.5721240506867" y1="460" x2="309.5721240506867" y2="520" style="stroke: green; stroke-width: 2px;"></line><text x="309.5721240506867" y="535" style="stroke: green; font-size: 9pt; font-family: sans-serif; text-anchor: middle;">[TestStat] = 0.218</text><text x="309.5721240506867" y="550" style="stroke: green; font-size: 9pt; font-family: sans-serif; text-anchor: middle;">p-value = 0.8303</text><text x="300" y="570" style="stroke: rgb(0, 85, 255); font-size: 9pt; font-family: sans-serif; text-anchor: middle;">[Decision] Accept H₀</text><line class="line2" x1="0" y1="580" x2="600" y2="580"></line></svg>