<svg xmlns="http://www.w3.org/2000/svg" id="SVG" width="600" height="560" xlink="http://www.w3.org/1999/xlink"><text x="290" y="50" style="font-size: 17px; font-family: sans-seirf; stroke: black; text-anchor: middle;">Gender  Bar Graph</text><text x="290" y="530" style="font-size: 12px; font-family: sans-seirf; stroke: black; text-anchor: middle;">Frequency</text><text x="10" y="95" transform="rotate(-90 30 100)" style="font-size: 12px; font-family: sans-seirf; stroke: black; text-anchor: end;">Gender</text><text class="barnameh" x="75" y="185" style="text-anchor: end; font-family: sans-serif; font-size: 8pt;">1</text><text class="barnameh" x="75" y="385" style="text-anchor: end; font-family: sans-serif; font-size: 8pt;">2</text><g transform="translate(80,480)" fill="none" font-size="10" font-family="sans-serif" text-anchor="middle"><path class="domain" stroke="#000" d="M0.5,6V0.5H420.5V6"></path><g class="tick" opacity="1" transform="translate(0.5,0)"><line stroke="#000" y2="6"></line><text fill="#000" y="9" dy="0.71em">0.0</text></g><g class="tick" opacity="1" transform="translate(30.5,0)"><line stroke="#000" y2="6"></line><text fill="#000" y="9" dy="0.71em">0.5</text></g><g class="tick" opacity="1" transform="translate(60.5,0)"><line stroke="#000" y2="6"></line><text fill="#000" y="9" dy="0.71em">1.0</text></g><g class="tick" opacity="1" transform="translate(90.5,0)"><line stroke="#000" y2="6"></line><text fill="#000" y="9" dy="0.71em">1.5</text></g><g class="tick" opacity="1" transform="translate(120.5,0)"><line stroke="#000" y2="6"></line><text fill="#000" y="9" dy="0.71em">2.0</text></g><g class="tick" opacity="1" transform="translate(150.5,0)"><line stroke="#000" y2="6"></line><text fill="#000" y="9" dy="0.71em">2.5</text></g><g class="tick" opacity="1" transform="translate(180.5,0)"><line stroke="#000" y2="6"></line><text fill="#000" y="9" dy="0.71em">3.0</text></g><g class="tick" opacity="1" transform="translate(210.5,0)"><line stroke="#000" y2="6"></line><text fill="#000" y="9" dy="0.71em">3.5</text></g><g class="tick" opacity="1" transform="translate(240.5,0)"><line stroke="#000" y2="6"></line><text fill="#000" y="9" dy="0.71em">4.0</text></g><g class="tick" opacity="1" transform="translate(270.5,0)"><line stroke="#000" y2="6"></line><text fill="#000" y="9" dy="0.71em">4.5</text></g><g class="tick" opacity="1" transform="translate(300.5,0)"><line stroke="#000" y2="6"></line><text fill="#000" y="9" dy="0.71em">5.0</text></g><g class="tick" opacity="1" transform="translate(330.5,0)"><line stroke="#000" y2="6"></line><text fill="#000" y="9" dy="0.71em">5.5</text></g><g class="tick" opacity="1" transform="translate(360.5,0)"><line stroke="#000" y2="6"></line><text fill="#000" y="9" dy="0.71em">6.0</text></g><g class="tick" opacity="1" transform="translate(390.5,0)"><line stroke="#000" y2="6"></line><text fill="#000" y="9" dy="0.71em">6.5</text></g><g class="tick" opacity="1" transform="translate(420.5,0)"><line stroke="#000" y2="6"></line><text fill="#000" y="9" dy="0.71em">7.0</text></g></g><rect class="bar" x="80" y="120" width="360" style="fill: rgb(0, 85, 255);" height="120"></rect><rect class="bar" x="80" y="320" width="240" style="fill: rgb(0, 85, 255);" height="120"></rect></svg>