<svg xmlns="http://www.w3.org/2000/svg" id="SVG" width="600" height="560" xlink="http://www.w3.org/1999/xlink"><text x="290" y="50" style="font-size: 17px; font-family: sans-seirf; stroke: black; text-anchor: middle;">(Group  Gender)  Marital  Band Graph</text><text x="290" y="530" style="font-size: 12px; font-family: sans-seirf; stroke: black; text-anchor: middle;"></text><rect x="510" y="141.66666666666669" width="8" height="8" style="fill: rgb(0, 85, 255);"></rect><text x="525" y="151.66666666666669" style="font-size: 12px; font-family: sans-seirf; stroke: rgb(0, 85, 255); text-anchor: start;">Group 1</text><rect x="80" y="80" width="280" height="133.33333333333334" style="fill: rgb(0, 85, 255);"></rect><rect x="360" y="80" width="70" height="133.33333333333334" style="fill: rgb(255, 69, 0);"></rect><rect x="430" y="80" width="70" height="133.33333333333334" style="fill: rgb(0, 170, 0);"></rect><rect x="510" y="341.6666666666667" width="8" height="8" style="fill: rgb(255, 69, 0);"></rect><text x="525" y="351.6666666666667" style="font-size: 12px; font-family: sans-seirf; stroke: rgb(255, 69, 0); text-anchor: start;">Group 2</text><rect x="80" y="280" width="210" height="133.33333333333334" style="fill: rgb(0, 85, 255);"></rect><rect x="290" y="280" width="210" height="133.33333333333334" style="fill: rgb(255, 69, 0);"></rect><rect x="500" y="280" width="0" height="133.33333333333334" style="fill: rgb(0, 170, 0);"></rect><rect x="100" y="480" width="8" height="8" style="fill: rgb(0, 85, 255);"></rect><text x="113" y="488" style="font-size: 12px; font-family: sans-seirf; text-anchor: start; stroke: rgb(0, 85, 255);">1</text><rect x="240" y="480" width="8" height="8" style="fill: rgb(255, 69, 0);"></rect><text x="253" y="488" style="font-size: 12px; font-family: sans-seirf; text-anchor: start; stroke: rgb(255, 69, 0);">2</text><rect x="380" y="480" width="8" height="8" style="fill: rgb(0, 170, 0);"></rect><text x="393" y="488" style="font-size: 12px; font-family: sans-seirf; text-anchor: start; stroke: rgb(0, 170, 0);">3</text></svg>