<svg xmlns="http://www.w3.org/2000/svg" id="SVG" width="600" height="560"><text x="290" y="50" style="font-size: 17px; font-family: sans-seirf; stroke: black; text-anchor: middle;"> Pie Chart</text><text x="290" y="530" style="font-size: 12px; font-family: sans-seirf; stroke: black; text-anchor: middle;"></text><g class="piechart" id="piechart0"><g transform="translate(290,180)"><path class="pie" d="M5.5109105961630896e-15,-90A90,90,0,1,1,-18.71205217359832,88.03328406604251L0,0Z" style="fill: rgb(0, 85, 255);"></path><text transform="translate(44.7534852915723,4.703780847044403)" style="font-size: 10px; font-family: sans-seirf; stroke: white; text-anchor: middle;">Male: 16</text></g><g transform="translate(290,180)"><path class="pie" d="M-18.71205217359832,88.03328406604251A90,90,0,0,1,-1.6532731788489267e-14,-90L0,0Z" style="fill: rgb(255, 69, 0);"></path><text transform="translate(-44.753485291572304,-4.703780847044388)" style="font-size: 10px; font-family: sans-seirf; stroke: white; text-anchor: middle;">Female: 14</text></g></g><text x="520" y="180" style="font-size: 12px; font-family: sans-seirf; stroke: rgb(0, 85, 255); text-anchor: start;">5-1</text><g class="piechart" id="piechart1"><g transform="translate(290,380)"><path class="pie" d="M-52.900672706322574,72.81152949374527A90,90,0,0,1,-1.6532731788489267e-14,-90L0,0Z" style="fill: rgb(0, 85, 255);"></path><text transform="translate(-42.797543233281914,-13.905764746872627)" style="font-size: 10px; font-family: sans-seirf; stroke: white; text-anchor: middle;">Male: 12</text></g><g transform="translate(290,380)"><path class="pie" d="M5.5109105961630896e-15,-90A90,90,0,1,1,-52.900672706322574,72.81152949374527L0,0Z" style="fill: rgb(255, 69, 0);"></path><text transform="translate(42.79754323328191,13.905764746872633)" style="font-size: 10px; font-family: sans-seirf; stroke: white; text-anchor: middle;">Female: 18</text></g></g><text x="520" y="380" style="font-size: 12px; font-family: sans-seirf; stroke: rgb(255, 69, 0); text-anchor: start;">5-2</text></svg>