<svg xmlns="http://www.w3.org/2000/svg" id="SVG" width="600" height="560"><text x="290" y="50" style="font-size: 17px; font-family: sans-seirf; stroke: black; text-anchor: middle;"> Bar Graph</text><text x="290" y="530" style="font-size: 12px; font-family: sans-seirf; stroke: black; text-anchor: middle;">AgeInterval</text><text x="10" y="95" transform="rotate(-90 30 100)" style="font-size: 12px; font-family: sans-seirf; stroke: black; text-anchor: end;">Frequency</text><g transform="translate(80,80)" fill="none" font-size="10" font-family="sans-serif" text-anchor="end"><path class="domain" stroke="#000" d="M-6,400.5H0.5V0.5H-6"></path><g class="tick" opacity="1" transform="translate(0,400.5)"><line stroke="#000" x2="-6"></line><text fill="#000" x="-9" dy="0.32em">0</text></g><g class="tick" opacity="1" transform="translate(0,367.44214876033055)"><line stroke="#000" x2="-6"></line><text fill="#000" x="-9" dy="0.32em">20</text></g><g class="tick" opacity="1" transform="translate(0,334.38429752066116)"><line stroke="#000" x2="-6"></line><text fill="#000" x="-9" dy="0.32em">40</text></g><g class="tick" opacity="1" transform="translate(0,301.3264462809917)"><line stroke="#000" x2="-6"></line><text fill="#000" x="-9" dy="0.32em">60</text></g><g class="tick" opacity="1" transform="translate(0,268.2685950413223)"><line stroke="#000" x2="-6"></line><text fill="#000" x="-9" dy="0.32em">80</text></g><g class="tick" opacity="1" transform="translate(0,235.21074380165288)"><line stroke="#000" x2="-6"></line><text fill="#000" x="-9" dy="0.32em">100</text></g><g class="tick" opacity="1" transform="translate(0,202.15289256198346)"><line stroke="#000" x2="-6"></line><text fill="#000" x="-9" dy="0.32em">120</text></g><g class="tick" opacity="1" transform="translate(0,169.09504132231407)"><line stroke="#000" x2="-6"></line><text fill="#000" x="-9" dy="0.32em">140</text></g><g class="tick" opacity="1" transform="translate(0,136.0371900826446)"><line stroke="#000" x2="-6"></line><text fill="#000" x="-9" dy="0.32em">160</text></g><g class="tick" opacity="1" transform="translate(0,102.97933884297521)"><line stroke="#000" x2="-6"></line><text fill="#000" x="-9" dy="0.32em">180</text></g><g class="tick" opacity="1" transform="translate(0,69.92148760330576)"><line stroke="#000" x2="-6"></line><text fill="#000" x="-9" dy="0.32em">200</text></g><g class="tick" opacity="1" transform="translate(0,36.863636363636374)"><line stroke="#000" x2="-6"></line><text fill="#000" x="-9" dy="0.32em">220</text></g><g class="tick" opacity="1" transform="translate(0,3.8057851239669276)"><line stroke="#000" x2="-6"></line><text fill="#000" x="-9" dy="0.32em">240</text></g></g><line class="line" x1="80" x2="80" y1="80" y2="480" style="stroke: black;"></line><line class="line" x1="500" x2="500" y1="80" y2="480" style="stroke: black;"></line><line x1="91.66666666666667" x2="91.66666666666667" y1="480" y2="485" style="stroke: black; stroke-width: 0.5;"></line><text x="84.66666666666667" y="490" transform="rotate(30,84.66666666666667,490)  " style="text-anchor: start; font-family: sans-serif; font-size: 9px;">00 - 04</text><line x1="115" x2="115" y1="480" y2="485" style="stroke: black; stroke-width: 0.5;"></line><text x="108" y="490" transform="rotate(30,108,490)  " style="text-anchor: start; font-family: sans-serif; font-size: 9px;">05 - 09</text><line x1="138.33333333333334" x2="138.33333333333334" y1="480" y2="485" style="stroke: black; stroke-width: 0.5;"></line><text x="131.33333333333334" y="490" transform="rotate(30,131.33333333333334,490)  " style="text-anchor: start; font-family: sans-serif; font-size: 9px;">10 - 14</text><line x1="161.66666666666669" x2="161.66666666666669" y1="480" y2="485" style="stroke: black; stroke-width: 0.5;"></line><text x="154.66666666666669" y="490" transform="rotate(30,154.66666666666669,490)  " style="text-anchor: start; font-family: sans-serif; font-size: 9px;">15 - 19</text><line x1="185" x2="185" y1="480" y2="485" style="stroke: black; stroke-width: 0.5;"></line><text x="178" y="490" transform="rotate(30,178,490)  " style="text-anchor: start; font-family: sans-serif; font-size: 9px;">20 - 24</text><line x1="208.33333333333331" x2="208.33333333333331" y1="480" y2="485" style="stroke: black; stroke-width: 0.5;"></line><text x="201.33333333333331" y="490" transform="rotate(30,201.33333333333331,490)  " style="text-anchor: start; font-family: sans-serif; font-size: 9px;">25 - 29</text><line x1="231.66666666666669" x2="231.66666666666669" y1="480" y2="485" style="stroke: black; stroke-width: 0.5;"></line><text x="224.66666666666669" y="490" transform="rotate(30,224.66666666666669,490)  " style="text-anchor: start; font-family: sans-serif; font-size: 9px;">30 - 34</text><line x1="255" x2="255" y1="480" y2="485" style="stroke: black; stroke-width: 0.5;"></line><text x="248" y="490" transform="rotate(30,248,490)  " style="text-anchor: start; font-family: sans-serif; font-size: 9px;">35 - 39</text><line x1="278.3333333333333" x2="278.3333333333333" y1="480" y2="485" style="stroke: black; stroke-width: 0.5;"></line><text x="271.3333333333333" y="490" transform="rotate(30,271.3333333333333,490)  " style="text-anchor: start; font-family: sans-serif; font-size: 9px;">40 - 44</text><line x1="301.6666666666667" x2="301.6666666666667" y1="480" y2="485" style="stroke: black; stroke-width: 0.5;"></line><text x="294.6666666666667" y="490" transform="rotate(30,294.6666666666667,490)  " style="text-anchor: start; font-family: sans-serif; font-size: 9px;">45 - 49</text><line x1="325" x2="325" y1="480" y2="485" style="stroke: black; stroke-width: 0.5;"></line><text x="318" y="490" transform="rotate(30,318,490)  " style="text-anchor: start; font-family: sans-serif; font-size: 9px;">50 - 54</text><line x1="348.3333333333333" x2="348.3333333333333" y1="480" y2="485" style="stroke: black; stroke-width: 0.5;"></line><text x="341.3333333333333" y="490" transform="rotate(30,341.3333333333333,490)  " style="text-anchor: start; font-family: sans-serif; font-size: 9px;">55 - 59</text><line x1="371.6666666666667" x2="371.6666666666667" y1="480" y2="485" style="stroke: black; stroke-width: 0.5;"></line><text x="364.6666666666667" y="490" transform="rotate(30,364.6666666666667,490)  " style="text-anchor: start; font-family: sans-serif; font-size: 9px;">60 - 64</text><line x1="395" x2="395" y1="480" y2="485" style="stroke: black; stroke-width: 0.5;"></line><text x="388" y="490" transform="rotate(30,388,490)  " style="text-anchor: start; font-family: sans-serif; font-size: 9px;">65 - 69</text><line x1="418.3333333333333" x2="418.3333333333333" y1="480" y2="485" style="stroke: black; stroke-width: 0.5;"></line><text x="411.3333333333333" y="490" transform="rotate(30,411.3333333333333,490)  " style="text-anchor: start; font-family: sans-serif; font-size: 9px;">70 - 74</text><line x1="441.6666666666667" x2="441.6666666666667" y1="480" y2="485" style="stroke: black; stroke-width: 0.5;"></line><text x="434.6666666666667" y="490" transform="rotate(30,434.6666666666667,490)  " style="text-anchor: start; font-family: sans-serif; font-size: 9px;">75 - 79</text><line x1="465" x2="465" y1="480" y2="485" style="stroke: black; stroke-width: 0.5;"></line><text x="458" y="490" transform="rotate(30,458,490)  " style="text-anchor: start; font-family: sans-serif; font-size: 9px;">80 - 84</text><line x1="488.3333333333333" x2="488.3333333333333" y1="480" y2="485" style="stroke: black; stroke-width: 0.5;"></line><text x="481.3333333333333" y="490" transform="rotate(30,481.3333333333333,490)  " style="text-anchor: start; font-family: sans-serif; font-size: 9px;">85 above</text><line x1="80" x2="500" y1="480" y2="480" style="stroke: black;"></line><line x1="80" x2="500" y1="80" y2="80" style="stroke: black;"></line><rect x="515" y="100" width="8" height="8" style="fill: rgb(0, 85, 255);"></rect><text x="530" y="110" style="font-size: 12px; font-family: sans-seirf; stroke: rgb(0, 85, 255); text-anchor: start;">2015_Male</text><rect x="515" y="120" width="8" height="8" style="fill: rgb(255, 69, 0);"></rect><text x="530" y="130" style="font-size: 12px; font-family: sans-seirf; stroke: rgb(255, 69, 0); text-anchor: start;">2015_Female</text><rect class="bar" height="190.0826446280992" width="6.999999999999999" x="84.66666666666667" y="289.91735537190084" style="fill: rgb(0, 85, 255);"></rect><rect class="bar" height="191.73553719008265" width="6.999999999999999" x="108" y="288.26446280991735" style="fill: rgb(0, 85, 255);"></rect><rect class="bar" height="208.26446280991735" width="6.999999999999999" x="131.33333333333334" y="271.73553719008265" style="fill: rgb(0, 85, 255);"></rect><rect class="bar" height="274.3801652892562" width="6.999999999999999" x="154.66666666666669" y="205.61983471074382" style="fill: rgb(0, 85, 255);"></rect><rect class="bar" height="299.1735537190083" width="6.999999999999999" x="178" y="180.82644628099172" style="fill: rgb(0, 85, 255);"></rect><rect class="bar" height="261.1570247933884" width="6.999999999999999" x="201.33333333333331" y="218.84297520661158" style="fill: rgb(0, 85, 255);"></rect><rect class="bar" height="305.78512396694214" width="6.999999999999999" x="224.66666666666669" y="174.21487603305786" style="fill: rgb(0, 85, 255);"></rect><rect class="bar" height="319.0082644628099" width="6.999999999999999" x="248" y="160.9917355371901" style="fill: rgb(0, 85, 255);"></rect><rect class="bar" height="353.71900826446284" width="6.999999999999999" x="271.3333333333333" y="126.28099173553716" style="fill: rgb(0, 85, 255);"></rect><rect class="bar" height="355.3719008264463" width="6.999999999999999" x="294.6666666666667" y="124.62809917355372" style="fill: rgb(0, 85, 255);"></rect><rect class="bar" height="345.45454545454544" width="6.999999999999999" x="318" y="134.54545454545456" style="fill: rgb(0, 85, 255);"></rect><rect class="bar" height="317.35537190082647" width="6.999999999999999" x="341.3333333333333" y="162.64462809917353" style="fill: rgb(0, 85, 255);"></rect><rect class="bar" height="221.48760330578514" width="6.999999999999999" x="364.6666666666667" y="258.5123966942149" style="fill: rgb(0, 85, 255);"></rect><rect class="bar" height="168.59504132231405" width="6.999999999999999" x="388" y="311.40495867768595" style="fill: rgb(0, 85, 255);"></rect><rect class="bar" height="130.5785123966942" width="6.999999999999999" x="411.3333333333333" y="349.42148760330576" style="fill: rgb(0, 85, 255);"></rect><rect class="bar" height="90.9090909090909" width="6.999999999999999" x="434.6666666666667" y="389.0909090909091" style="fill: rgb(0, 85, 255);"></rect><rect class="bar" height="46.28099173553719" width="6.999999999999999" x="458" y="433.7190082644628" style="fill: rgb(0, 85, 255);"></rect><rect class="bar" height="21.487603305785125" width="6.999999999999999" x="481.3333333333333" y="458.5123966942149" style="fill: rgb(0, 85, 255);"></rect><rect class="bar" height="180.16528925619835" width="6.999999999999999" x="91.66666666666667" y="299.8347107438017" style="fill: rgb(255, 69, 0);"></rect><rect class="bar" height="180.16528925619835" width="6.999999999999999" x="115" y="299.8347107438017" style="fill: rgb(255, 69, 0);"></rect><rect class="bar" height="191.73553719008265" width="6.999999999999999" x="138.33333333333334" y="288.26446280991735" style="fill: rgb(255, 69, 0);"></rect><rect class="bar" height="249.58677685950414" width="6.999999999999999" x="161.66666666666669" y="230.41322314049586" style="fill: rgb(255, 69, 0);"></rect><rect class="bar" height="261.1570247933884" width="6.999999999999999" x="185" y="218.84297520661158" style="fill: rgb(255, 69, 0);"></rect><rect class="bar" height="239.6694214876033" width="6.999999999999999" x="208.33333333333331" y="240.3305785123967" style="fill: rgb(255, 69, 0);"></rect><rect class="bar" height="290.90909090909093" width="6.999999999999999" x="231.66666666666669" y="189.09090909090907" style="fill: rgb(255, 69, 0);"></rect><rect class="bar" height="307.43801652892563" width="6.999999999999999" x="255" y="172.56198347107437" style="fill: rgb(255, 69, 0);"></rect><rect class="bar" height="342.1487603305785" width="6.999999999999999" x="278.3333333333333" y="137.8512396694215" style="fill: rgb(255, 69, 0);"></rect><rect class="bar" height="350.41322314049586" width="6.999999999999999" x="301.6666666666667" y="129.58677685950414" style="fill: rgb(255, 69, 0);"></rect><rect class="bar" height="338.8429752066116" width="6.999999999999999" x="325" y="141.15702479338842" style="fill: rgb(255, 69, 0);"></rect><rect class="bar" height="320.6611570247934" width="6.999999999999999" x="348.3333333333333" y="159.3388429752066" style="fill: rgb(255, 69, 0);"></rect><rect class="bar" height="233.05785123966942" width="6.999999999999999" x="371.6666666666667" y="246.94214876033058" style="fill: rgb(255, 69, 0);"></rect><rect class="bar" height="181.8181818181818" width="6.999999999999999" x="395" y="298.1818181818182" style="fill: rgb(255, 69, 0);"></rect><rect class="bar" height="160.3305785123967" width="6.999999999999999" x="418.3333333333333" y="319.6694214876033" style="fill: rgb(255, 69, 0);"></rect><rect class="bar" height="132.2314049586777" width="6.999999999999999" x="441.6666666666667" y="347.7685950413223" style="fill: rgb(255, 69, 0);"></rect><rect class="bar" height="89.25619834710744" width="6.999999999999999" x="465" y="390.74380165289256" style="fill: rgb(255, 69, 0);"></rect><rect class="bar" height="64.46280991735537" width="6.999999999999999" x="488.3333333333333" y="415.53719008264466" style="fill: rgb(255, 69, 0);"></rect></svg>