<svg xmlns="http://www.w3.org/2000/svg" id="SVG" width="600" height="560" xlink="http://www.w3.org/1999/xlink"><text x="290" y="50" style="font-size: 17px; font-family: sans-seirf; stroke: black; text-anchor: middle;">(Group  Gender)   Age  Box-Whisker Plot</text><rect x="80" y="80" width="420" height="400" style="stroke: black; fill: white;"></rect><g transform="translate(80,80)" fill="none" font-size="10" font-family="sans-serif" text-anchor="end"><path class="domain" stroke="#000" d="M-6,400.5H0.5V0.5H-6"></path><g class="tick" opacity="1" transform="translate(0,367.16666666666663)"><line stroke="#000" x2="-6"></line><text fill="#000" x="-9" dy="0.32em">25</text></g><g class="tick" opacity="1" transform="translate(0,323.3070175438596)"><line stroke="#000" x2="-6"></line><text fill="#000" x="-9" dy="0.32em">30</text></g><g class="tick" opacity="1" transform="translate(0,279.4473684210526)"><line stroke="#000" x2="-6"></line><text fill="#000" x="-9" dy="0.32em">35</text></g><g class="tick" opacity="1" transform="translate(0,235.5877192982456)"><line stroke="#000" x2="-6"></line><text fill="#000" x="-9" dy="0.32em">40</text></g><g class="tick" opacity="1" transform="translate(0,191.72807017543857)"><line stroke="#000" x2="-6"></line><text fill="#000" x="-9" dy="0.32em">45</text></g><g class="tick" opacity="1" transform="translate(0,147.86842105263156)"><line stroke="#000" x2="-6"></line><text fill="#000" x="-9" dy="0.32em">50</text></g><g class="tick" opacity="1" transform="translate(0,104.00877192982455)"><line stroke="#000" x2="-6"></line><text fill="#000" x="-9" dy="0.32em">55</text></g><g class="tick" opacity="1" transform="translate(0,60.149122807017534)"><line stroke="#000" x2="-6"></line><text fill="#000" x="-9" dy="0.32em">60</text></g><g class="tick" opacity="1" transform="translate(0,16.289473684210463)"><line stroke="#000" x2="-6"></line><text fill="#000" x="-9" dy="0.32em">65</text></g></g><text x="185" y="500" style="font-size: 12px; font-family: sans-seirf; stroke: rgb(0, 85, 255); text-anchor: middle;">Group 1</text><line x1="158.75" y1="446.66666666666663" x2="211.25" y2="446.66666666666663" style="stroke: rgb(0, 85, 255); stroke-width: 2px;"></line><line x1="185" y1="446.66666666666663" x2="185" y2="385.2631578947368" style="stroke: rgb(0, 85, 255); stroke-width: 2px;"></line><line x1="158.75" y1="157.19298245614033" x2="211.25" y2="157.19298245614033" style="stroke: rgb(0, 85, 255); stroke-width: 2px;"></line><rect x="132.5" y="262.45614035087715" width="105" height="122.80701754385966" style="stroke: black; fill: rgb(0, 85, 255);"></rect><line x1="185" y1="262.45614035087715" x2="185" y2="157.19298245614033" style="stroke: rgb(0, 85, 255); stroke-width: 2px;"></line><line x1="132.5" y1="350.1754385964912" x2="237.5" y2="350.1754385964912" style="stroke: lime; stroke-width: 2px;"></line><text x="395" y="500" style="font-size: 12px; font-family: sans-seirf; stroke: rgb(255, 69, 0); text-anchor: middle;">Group 2</text><line x1="368.75" y1="429.12280701754383" x2="421.25" y2="429.12280701754383" style="stroke: rgb(255, 69, 0); stroke-width: 2px;"></line><line x1="395" y1="429.12280701754383" x2="395" y2="376.49122807017545" style="stroke: rgb(255, 69, 0); stroke-width: 2px;"></line><line x1="368.75" y1="113.33333333333331" x2="421.25" y2="113.33333333333331" style="stroke: rgb(255, 69, 0); stroke-width: 2px;"></line><rect x="342.5" y="218.59649122807014" width="105" height="157.8947368421053" style="stroke: black; fill: rgb(255, 69, 0);"></rect><line x1="395" y1="218.59649122807014" x2="395" y2="113.33333333333331" style="stroke: rgb(255, 69, 0); stroke-width: 2px;"></line><line x1="342.5" y1="306.31578947368416" x2="447.5" y2="306.31578947368416" style="stroke: lime; stroke-width: 2px;"></line></svg>