<svg xmlns="http://www.w3.org/2000/svg" id="chart" width="600" height="400"> <text x="290" y="45" style="font-family: sans-serif; font-size: 12pt; stroke: black; text-anchor: middle;">Wilcoxon Signed Rank Sum Test</text><text x="290" y="60" style="font-family: sans-serif; font-size: 9pt; stroke: black; text-anchor: middle;">H₀: M = M₀   , H₁: M ≠ M₀</text><text x="290" y="75" style="font-family: sans-serif; font-size: 9pt; stroke: green; text-anchor: middle;">[TestStat] (R+) ~ Wilcoxson Sign (n = 10) Distribution</text><g transform="translate(100,90)" fill="none" font-size="10" font-family="sans-serif" text-anchor="end"><path class="domain" stroke="#000" d="M-6,0.5H0.5V220.5H-6"></path><g class="tick" opacity="1" transform="translate(0,9.300000000000011)"><line stroke="#000" x2="-6"></line><text fill="#000" x="-9" dy="0.32em">0.045</text></g><g class="tick" opacity="1" transform="translate(0,32.76666666666665)"><line stroke="#000" x2="-6"></line><text fill="#000" x="-9" dy="0.32em">0.040</text></g><g class="tick" opacity="1" transform="translate(0,56.23333333333332)"><line stroke="#000" x2="-6"></line><text fill="#000" x="-9" dy="0.32em">0.035</text></g><g class="tick" opacity="1" transform="translate(0,79.69999999999999)"><line stroke="#000" x2="-6"></line><text fill="#000" x="-9" dy="0.32em">0.030</text></g><g class="tick" opacity="1" transform="translate(0,103.16666666666667)"><line stroke="#000" x2="-6"></line><text fill="#000" x="-9" dy="0.32em">0.025</text></g><g class="tick" opacity="1" transform="translate(0,126.63333333333333)"><line stroke="#000" x2="-6"></line><text fill="#000" x="-9" dy="0.32em">0.020</text></g><g class="tick" opacity="1" transform="translate(0,150.1)"><line stroke="#000" x2="-6"></line><text fill="#000" x="-9" dy="0.32em">0.015</text></g><g class="tick" opacity="1" transform="translate(0,173.56666666666666)"><line stroke="#000" x2="-6"></line><text fill="#000" x="-9" dy="0.32em">0.010</text></g><g class="tick" opacity="1" transform="translate(0,197.03333333333333)"><line stroke="#000" x2="-6"></line><text fill="#000" x="-9" dy="0.32em">0.005</text></g><g class="tick" opacity="1" transform="translate(0,220.5)"><line stroke="#000" x2="-6"></line><text fill="#000" x="-9" dy="0.32em">0.000</text></g></g><line x1="100" y1="310" x2="480" y2="310" style="stroke: black;"></line><text class="barname" x="107.17857142857143" y="330" transform="rotate(90,107.17857142857143,330)  " style="font-family: sans-serif; font-size: 8pt; text-anchor: middle;">1</text><text class="barname" x="120.75" y="330" transform="rotate(90,120.75,330)  " style="font-family: sans-serif; font-size: 8pt; text-anchor: middle;">3</text><text class="barname" x="134.32142857142856" y="330" transform="rotate(90,134.32142857142856,330)  " style="font-family: sans-serif; font-size: 8pt; text-anchor: middle;">5</text><text class="barname" x="147.89285714285714" y="330" transform="rotate(90,147.89285714285714,330)  " style="font-family: sans-serif; font-size: 8pt; text-anchor: middle;">7</text><text class="barname" x="161.46428571428572" y="330" transform="rotate(90,161.46428571428572,330)  " style="font-family: sans-serif; font-size: 8pt; text-anchor: middle;">9</text><text class="barname" x="175.03571428571428" y="330" transform="rotate(90,175.03571428571428,330)  " style="font-family: sans-serif; font-size: 8pt; text-anchor: middle;">11</text><text class="barname" x="188.60714285714283" y="330" transform="rotate(90,188.60714285714283,330)  " style="font-family: sans-serif; font-size: 8pt; text-anchor: middle;">13</text><text class="barname" x="202.17857142857142" y="330" transform="rotate(90,202.17857142857142,330)  " style="font-family: sans-serif; font-size: 8pt; text-anchor: middle;">15</text><text class="barname" x="215.75" y="330" transform="rotate(90,215.75,330)  " style="font-family: sans-serif; font-size: 8pt; text-anchor: middle;">17</text><text class="barname" x="229.32142857142856" y="330" transform="rotate(90,229.32142857142856,330)  " style="font-family: sans-serif; font-size: 8pt; text-anchor: middle;">19</text><text class="barname" x="242.89285714285714" y="330" transform="rotate(90,242.89285714285714,330)  " style="font-family: sans-serif; font-size: 8pt; text-anchor: middle;">21</text><text class="barname" x="256.46428571428567" y="330" transform="rotate(90,256.46428571428567,330)  " style="font-family: sans-serif; font-size: 8pt; text-anchor: middle;">23</text><text class="barname" x="270.0357142857143" y="330" transform="rotate(90,270.0357142857143,330)  " style="font-family: sans-serif; font-size: 8pt; text-anchor: middle;">25</text><text class="barname" x="283.6071428571429" y="330" transform="rotate(90,283.6071428571429,330)  " style="font-family: sans-serif; font-size: 8pt; text-anchor: middle;">27</text><text class="barname" x="297.17857142857144" y="330" transform="rotate(90,297.17857142857144,330)  " style="font-family: sans-serif; font-size: 8pt; text-anchor: middle;">29</text><text class="barname" x="310.75" y="330" transform="rotate(90,310.75,330)  " style="font-family: sans-serif; font-size: 8pt; text-anchor: middle;">31</text><text class="barname" x="324.32142857142856" y="330" transform="rotate(90,324.32142857142856,330)  " style="font-family: sans-serif; font-size: 8pt; text-anchor: middle;">33</text><text class="barname" x="337.8928571428571" y="330" transform="rotate(90,337.8928571428571,330)  " style="font-family: sans-serif; font-size: 8pt; text-anchor: middle;">35</text><text class="barname" x="351.46428571428567" y="330" transform="rotate(90,351.46428571428567,330)  " style="font-family: sans-serif; font-size: 8pt; text-anchor: middle;">37</text><text class="barname" x="365.0357142857142" y="330" transform="rotate(90,365.0357142857142,330)  " style="font-family: sans-serif; font-size: 8pt; text-anchor: middle;">39</text><text class="barname" x="378.6071428571429" y="330" transform="rotate(90,378.6071428571429,330)  " style="font-family: sans-serif; font-size: 8pt; text-anchor: middle;">41</text><text class="barname" x="392.17857142857144" y="330" transform="rotate(90,392.17857142857144,330)  " style="font-family: sans-serif; font-size: 8pt; text-anchor: middle;">43</text><text class="barname" x="405.75" y="330" transform="rotate(90,405.75,330)  " style="font-family: sans-serif; font-size: 8pt; text-anchor: middle;">45</text><text class="barname" x="419.32142857142856" y="330" transform="rotate(90,419.32142857142856,330)  " style="font-family: sans-serif; font-size: 8pt; text-anchor: middle;">47</text><text class="barname" x="432.8928571428571" y="330" transform="rotate(90,432.8928571428571,330)  " style="font-family: sans-serif; font-size: 8pt; text-anchor: middle;">49</text><text class="barname" x="446.46428571428567" y="330" transform="rotate(90,446.46428571428567,330)  " style="font-family: sans-serif; font-size: 8pt; text-anchor: middle;">51</text><text class="barname" x="460.0357142857142" y="330" transform="rotate(90,460.0357142857142,330)  " style="font-family: sans-serif; font-size: 8pt; text-anchor: middle;">53</text><text class="barname" x="473.6071428571429" y="330" transform="rotate(90,473.6071428571429,330)  " style="font-family: sans-serif; font-size: 8pt; text-anchor: middle;">55</text><rect height="4.583333333333333" width="4.523809523809524" x="101.13095238095238" y="305.4166666666667" style="fill: rgb(0, 85, 255);"></rect><rect height="4.583333333333333" width="4.523809523809524" x="107.91666666666667" y="305.4166666666667" style="fill: rgb(0, 85, 255);"></rect><rect height="4.583333333333333" width="4.523809523809524" x="114.70238095238095" y="305.4166666666667" style="fill: rgb(0, 85, 255);"></rect><rect height="9.166666666666666" width="4.523809523809524" x="121.48809523809524" y="300.8333333333333" style="fill: rgb(0, 85, 255);"></rect><rect height="9.166666666666666" width="4.523809523809524" x="128.27380952380952" y="300.8333333333333" style="fill: rgb(0, 85, 255);"></rect><rect height="13.75" width="4.523809523809524" x="135.0595238095238" y="296.25" style="fill: rgb(0, 85, 255);"></rect><rect height="18.333333333333332" width="4.523809523809524" x="141.8452380952381" y="291.6666666666667" style="fill: rgb(0, 85, 255);"></rect><rect height="22.916666666666664" width="4.523809523809524" x="148.63095238095238" y="287.0833333333333" style="fill: rgb(0, 85, 255);"></rect><rect height="27.5" width="4.523809523809524" x="155.41666666666666" y="282.5" style="fill: rgb(0, 85, 255);"></rect><rect height="36.666666666666664" width="4.523809523809524" x="162.20238095238096" y="273.3333333333333" style="fill: rgb(0, 85, 255);"></rect><rect height="45.83333333333333" width="4.523809523809524" x="168.98809523809524" y="264.1666666666667" style="fill: rgb(0, 85, 255);"></rect><rect height="50.416666666666664" width="4.523809523809524" x="175.77380952380952" y="259.5833333333333" style="fill: rgb(0, 85, 255);"></rect><rect height="59.58333333333333" width="4.523809523809524" x="182.5595238095238" y="250.41666666666669" style="fill: rgb(0, 85, 255);"></rect><rect height="68.75" width="4.523809523809524" x="189.34523809523807" y="241.25" style="fill: rgb(0, 85, 255);"></rect><rect height="77.91666666666666" width="4.523809523809524" x="196.13095238095238" y="232.08333333333334" style="fill: rgb(0, 85, 255);"></rect><rect height="91.66666666666666" width="4.523809523809524" x="202.91666666666666" y="218.33333333333334" style="fill: rgb(0, 85, 255);"></rect><rect height="100.83333333333333" width="4.523809523809524" x="209.70238095238096" y="209.16666666666669" style="fill: rgb(0, 85, 255);"></rect><rect height="110" width="4.523809523809524" x="216.48809523809524" y="200" style="fill: rgb(0, 85, 255);"></rect><rect height="123.74999999999999" width="4.523809523809524" x="223.27380952380952" y="186.25" style="fill: rgb(0, 85, 255);"></rect><rect height="132.91666666666666" width="4.523809523809524" x="230.0595238095238" y="177.08333333333334" style="fill: rgb(0, 85, 255);"></rect><rect height="142.08333333333331" width="4.523809523809524" x="236.8452380952381" y="167.91666666666669" style="fill: rgb(0, 85, 255);"></rect><rect height="151.25" width="4.523809523809524" x="243.63095238095238" y="158.75" style="fill: rgb(0, 85, 255);"></rect><rect height="160.41666666666666" width="4.523809523809524" x="250.41666666666666" y="149.58333333333334" style="fill: rgb(0, 85, 255);"></rect><rect height="165" width="4.523809523809524" x="257.20238095238096" y="145" style="fill: rgb(0, 85, 255);"></rect><rect height="174.16666666666666" width="4.523809523809524" x="263.98809523809524" y="135.83333333333334" style="fill: rgb(0, 85, 255);"></rect><rect height="178.75" width="4.523809523809524" x="270.7738095238095" y="131.25" style="fill: rgb(0, 85, 255);"></rect><rect height="178.75" width="4.523809523809524" x="277.5595238095238" y="131.25" style="fill: rgb(0, 85, 255);"></rect><rect height="183.33333333333331" width="4.523809523809524" x="284.3452380952381" y="126.66666666666669" style="fill: rgb(0, 85, 255);"></rect><rect height="183.33333333333331" width="4.523809523809524" x="291.1309523809524" y="126.66666666666669" style="fill: rgb(0, 85, 255);"></rect><rect height="178.75" width="4.523809523809524" x="297.91666666666663" y="131.25" style="fill: rgb(0, 85, 255);"></rect><rect height="178.75" width="4.523809523809524" x="304.70238095238096" y="131.25" style="fill: rgb(0, 85, 255);"></rect><rect height="174.16666666666666" width="4.523809523809524" x="311.48809523809524" y="135.83333333333334" style="fill: rgb(0, 85, 255);"></rect><rect height="165" width="4.523809523809524" x="318.2738095238095" y="145" style="fill: rgb(0, 85, 255);"></rect><rect height="160.41666666666666" width="4.523809523809524" x="325.0595238095238" y="149.58333333333334" style="fill: rgb(0, 85, 255);"></rect><rect height="151.25" width="4.523809523809524" x="331.8452380952381" y="158.75" style="fill: rgb(0, 85, 255);"></rect><rect height="142.08333333333331" width="4.523809523809524" x="338.6309523809524" y="167.91666666666669" style="fill: rgb(0, 85, 255);"></rect><rect height="132.91666666666666" width="4.523809523809524" x="345.41666666666663" y="177.08333333333334" style="fill: rgb(0, 85, 255);"></rect><rect height="123.74999999999999" width="4.523809523809524" x="352.20238095238096" y="186.25" style="fill: rgb(0, 85, 255);"></rect><rect height="110" width="4.523809523809524" x="358.9880952380952" y="200" style="fill: rgb(0, 85, 255);"></rect><rect height="100.83333333333333" width="4.523809523809524" x="365.7738095238095" y="209.16666666666669" style="fill: rgb(0, 85, 255);"></rect><rect height="91.66666666666666" width="4.523809523809524" x="372.55952380952385" y="218.33333333333334" style="fill: rgb(0, 85, 255);"></rect><rect height="77.91666666666666" width="4.523809523809524" x="379.3452380952381" y="232.08333333333334" style="fill: rgb(0, 85, 255);"></rect><rect height="68.75" width="4.523809523809524" x="386.1309523809524" y="241.25" style="fill: rgb(0, 85, 255);"></rect><rect height="59.58333333333333" width="4.523809523809524" x="392.91666666666663" y="250.41666666666669" style="fill: rgb(0, 85, 255);"></rect><rect height="50.416666666666664" width="4.523809523809524" x="399.70238095238096" y="259.5833333333333" style="fill: rgb(0, 85, 255);"></rect><rect height="45.83333333333333" width="4.523809523809524" x="406.4880952380952" y="264.1666666666667" style="fill: rgb(0, 85, 255);"></rect><rect height="36.666666666666664" width="4.523809523809524" x="413.2738095238095" y="273.3333333333333" style="fill: rgb(0, 85, 255);"></rect><rect height="27.5" width="4.523809523809524" x="420.05952380952385" y="282.5" style="fill: rgb(0, 85, 255);"></rect><rect height="22.916666666666664" width="4.523809523809524" x="426.8452380952381" y="287.0833333333333" style="fill: rgb(0, 85, 255);"></rect><rect height="18.333333333333332" width="4.523809523809524" x="433.6309523809524" y="291.6666666666667" style="fill: rgb(0, 85, 255);"></rect><rect height="13.75" width="4.523809523809524" x="440.41666666666663" y="296.25" style="fill: rgb(0, 85, 255);"></rect><rect height="9.166666666666666" width="4.523809523809524" x="447.20238095238096" y="300.8333333333333" style="fill: rgb(0, 85, 255);"></rect><rect height="9.166666666666666" width="4.523809523809524" x="453.9880952380952" y="300.8333333333333" style="fill: rgb(0, 85, 255);"></rect><rect height="4.583333333333333" width="4.523809523809524" x="460.7738095238095" y="305.4166666666667" style="fill: rgb(0, 85, 255);"></rect><rect height="4.583333333333333" width="4.523809523809524" x="467.55952380952385" y="305.4166666666667" style="fill: rgb(0, 85, 255);"></rect><rect height="4.583333333333333" width="4.523809523809524" x="474.3452380952381" y="305.4166666666667" style="fill: rgb(0, 85, 255);"></rect><line x1="303.57142857142856" y1="110" x2="303.57142857142856" y2="340" style="stroke: green; stroke-width: 2px;"></line><text x="303.57142857142856" y="355" style="font-size: 9pt; stroke: green; text-anchor: middle;">R+ = 29.5</text><text x="298.57142857142856" y="370" style="font-size: 9pt; stroke: green; text-anchor: end;">P( X ≤ (R+) ) = 0.5771</text><text x="308.57142857142856" y="370" style="font-size: 9pt; stroke: green; text-anchor: start;">P( X ≥ (R+) ) = 0.4229</text><line x1="164.46428571428572" y1="220" x2="164.46428571428572" y2="330" style="stroke: red; stroke-width: 1px;"></line><text x="164.46428571428572" y="340" style="font-size: 9pt; stroke: red; text-anchor: middle;">9</text><text x="159.46428571428572" y="280" style="font-size: 9pt; stroke: red; text-anchor: end;">0.0322</text><line x1="415.5357142857143" y1="220" x2="415.5357142857143" y2="330" style="stroke: red; stroke-width: 1px;"></line><text x="415.5357142857143" y="340" style="font-size: 9pt; stroke: red; text-anchor: middle;">46</text><text x="420.5357142857143" y="280" style="font-size: 9pt; stroke: red; text-anchor: start;">0.0322</text></svg>