<svg xmlns="http://www.w3.org/2000/svg" id="SVG" width="600" height="560"><text x="290" y="50" style="font-size: 17px; font-family: sans-seirf; stroke: black; text-anchor: middle;">(Group  Company)  Score Confidence Interval Graph</text><text x="290" y="530" style="font-size: 12px; font-family: sans-seirf; stroke: black; text-anchor: middle;">Score</text><text x="520" y="146.66666666666669" style="font-size: 12px; font-family: sans-seirf; stroke: rgb(0, 85, 255); text-anchor: start;">A</text><line x1="80" x2="500" y1="80" y2="80" style="stroke: black;"></line><g transform="translate(80,480)" fill="none" font-size="10" font-family="sans-serif" text-anchor="middle"><path class="domain" stroke="#000" d="M0.5,6V0.5H420.5V6"></path><g class="tick" opacity="1" transform="translate(13.610781966012263,0)"><line stroke="#000" y2="6"></line><text fill="#000" y="9" dy="0.71em">48</text></g><g class="tick" opacity="1" transform="translate(45.27531255231481,0)"><line stroke="#000" y2="6"></line><text fill="#000" y="9" dy="0.71em">50</text></g><g class="tick" opacity="1" transform="translate(76.93984313861736,0)"><line stroke="#000" y2="6"></line><text fill="#000" y="9" dy="0.71em">52</text></g><g class="tick" opacity="1" transform="translate(108.6043737249199,0)"><line stroke="#000" y2="6"></line><text fill="#000" y="9" dy="0.71em">54</text></g><g class="tick" opacity="1" transform="translate(140.26890431122243,0)"><line stroke="#000" y2="6"></line><text fill="#000" y="9" dy="0.71em">56</text></g><g class="tick" opacity="1" transform="translate(171.933434897525,0)"><line stroke="#000" y2="6"></line><text fill="#000" y="9" dy="0.71em">58</text></g><g class="tick" opacity="1" transform="translate(203.59796548382752,0)"><line stroke="#000" y2="6"></line><text fill="#000" y="9" dy="0.71em">60</text></g><g class="tick" opacity="1" transform="translate(235.26249607013006,0)"><line stroke="#000" y2="6"></line><text fill="#000" y="9" dy="0.71em">62</text></g><g class="tick" opacity="1" transform="translate(266.92702665643264,0)"><line stroke="#000" y2="6"></line><text fill="#000" y="9" dy="0.71em">64</text></g><g class="tick" opacity="1" transform="translate(298.5915572427352,0)"><line stroke="#000" y2="6"></line><text fill="#000" y="9" dy="0.71em">66</text></g><g class="tick" opacity="1" transform="translate(330.2560878290377,0)"><line stroke="#000" y2="6"></line><text fill="#000" y="9" dy="0.71em">68</text></g><g class="tick" opacity="1" transform="translate(361.92061841534024,0)"><line stroke="#000" y2="6"></line><text fill="#000" y="9" dy="0.71em">70</text></g><g class="tick" opacity="1" transform="translate(393.5851490016428,0)"><line stroke="#000" y2="6"></line><text fill="#000" y="9" dy="0.71em">72</text></g></g><line x1="80" x2="80" y1="80" y2="480" style="stroke: black;"></line><line x1="500" x2="500" y1="80" y2="480" style="stroke: black;"></line><circle class="circle" tooltip="circle" stroke="black" cx="267.2657001906763" cy="205.33333333333334" r="4" style="fill: rgb(0, 85, 255);"></circle><circle class="circle" tooltip="circle" stroke="black" cx="362.2592919495839" cy="205.33333333333334" r="4" style="fill: rgb(0, 85, 255);"></circle><circle class="circle" tooltip="circle" stroke="black" cx="393.9238225358864" cy="205.33333333333334" r="4" style="fill: rgb(0, 85, 255);"></circle><circle class="circle" tooltip="circle" stroke="black" cx="425.58835312218895" cy="205.33333333333334" r="4" style="fill: rgb(0, 85, 255);"></circle><text x="520" y="280" style="font-size: 12px; font-family: sans-seirf; stroke: rgb(255, 69, 0); text-anchor: start;">B</text><line x1="80" x2="500" y1="213.33333333333334" y2="213.33333333333334" style="stroke: black;"></line><g transform="translate(80,480)" fill="none" font-size="10" font-family="sans-serif" text-anchor="middle"><path class="domain" stroke="#000" d="M0.5,6V0.5H420.5V6"></path><g class="tick" opacity="1" transform="translate(13.610781966012263,0)"><line stroke="#000" y2="6"></line><text fill="#000" y="9" dy="0.71em">48</text></g><g class="tick" opacity="1" transform="translate(45.27531255231481,0)"><line stroke="#000" y2="6"></line><text fill="#000" y="9" dy="0.71em">50</text></g><g class="tick" opacity="1" transform="translate(76.93984313861736,0)"><line stroke="#000" y2="6"></line><text fill="#000" y="9" dy="0.71em">52</text></g><g class="tick" opacity="1" transform="translate(108.6043737249199,0)"><line stroke="#000" y2="6"></line><text fill="#000" y="9" dy="0.71em">54</text></g><g class="tick" opacity="1" transform="translate(140.26890431122243,0)"><line stroke="#000" y2="6"></line><text fill="#000" y="9" dy="0.71em">56</text></g><g class="tick" opacity="1" transform="translate(171.933434897525,0)"><line stroke="#000" y2="6"></line><text fill="#000" y="9" dy="0.71em">58</text></g><g class="tick" opacity="1" transform="translate(203.59796548382752,0)"><line stroke="#000" y2="6"></line><text fill="#000" y="9" dy="0.71em">60</text></g><g class="tick" opacity="1" transform="translate(235.26249607013006,0)"><line stroke="#000" y2="6"></line><text fill="#000" y="9" dy="0.71em">62</text></g><g class="tick" opacity="1" transform="translate(266.92702665643264,0)"><line stroke="#000" y2="6"></line><text fill="#000" y="9" dy="0.71em">64</text></g><g class="tick" opacity="1" transform="translate(298.5915572427352,0)"><line stroke="#000" y2="6"></line><text fill="#000" y="9" dy="0.71em">66</text></g><g class="tick" opacity="1" transform="translate(330.2560878290377,0)"><line stroke="#000" y2="6"></line><text fill="#000" y="9" dy="0.71em">68</text></g><g class="tick" opacity="1" transform="translate(361.92061841534024,0)"><line stroke="#000" y2="6"></line><text fill="#000" y="9" dy="0.71em">70</text></g><g class="tick" opacity="1" transform="translate(393.5851490016428,0)"><line stroke="#000" y2="6"></line><text fill="#000" y="9" dy="0.71em">72</text></g></g><line x1="80" x2="80" y1="80" y2="480" style="stroke: black;"></line><line x1="500" x2="500" y1="80" y2="480" style="stroke: black;"></line><circle class="circle" tooltip="circle" stroke="black" cx="203.93663901807116" cy="338.6666666666667" r="4" style="fill: rgb(255, 69, 0);"></circle><circle class="circle" tooltip="circle" stroke="black" cx="219.76890431122243" cy="338.6666666666667" r="4" style="fill: rgb(255, 69, 0);"></circle><circle class="circle" tooltip="circle" stroke="black" cx="330.59476136328135" cy="338.6666666666667" r="4" style="fill: rgb(255, 69, 0);"></circle><text x="520" y="413.33333333333337" style="font-size: 12px; font-family: sans-seirf; stroke: rgb(0, 170, 0); text-anchor: start;">C</text><line x1="80" x2="500" y1="346.6666666666667" y2="346.6666666666667" style="stroke: black;"></line><g transform="translate(80,480)" fill="none" font-size="10" font-family="sans-serif" text-anchor="middle"><path class="domain" stroke="#000" d="M0.5,6V0.5H420.5V6"></path><g class="tick" opacity="1" transform="translate(13.610781966012263,0)"><line stroke="#000" y2="6"></line><text fill="#000" y="9" dy="0.71em">48</text></g><g class="tick" opacity="1" transform="translate(45.27531255231481,0)"><line stroke="#000" y2="6"></line><text fill="#000" y="9" dy="0.71em">50</text></g><g class="tick" opacity="1" transform="translate(76.93984313861736,0)"><line stroke="#000" y2="6"></line><text fill="#000" y="9" dy="0.71em">52</text></g><g class="tick" opacity="1" transform="translate(108.6043737249199,0)"><line stroke="#000" y2="6"></line><text fill="#000" y="9" dy="0.71em">54</text></g><g class="tick" opacity="1" transform="translate(140.26890431122243,0)"><line stroke="#000" y2="6"></line><text fill="#000" y="9" dy="0.71em">56</text></g><g class="tick" opacity="1" transform="translate(171.933434897525,0)"><line stroke="#000" y2="6"></line><text fill="#000" y="9" dy="0.71em">58</text></g><g class="tick" opacity="1" transform="translate(203.59796548382752,0)"><line stroke="#000" y2="6"></line><text fill="#000" y="9" dy="0.71em">60</text></g><g class="tick" opacity="1" transform="translate(235.26249607013006,0)"><line stroke="#000" y2="6"></line><text fill="#000" y="9" dy="0.71em">62</text></g><g class="tick" opacity="1" transform="translate(266.92702665643264,0)"><line stroke="#000" y2="6"></line><text fill="#000" y="9" dy="0.71em">64</text></g><g class="tick" opacity="1" transform="translate(298.5915572427352,0)"><line stroke="#000" y2="6"></line><text fill="#000" y="9" dy="0.71em">66</text></g><g class="tick" opacity="1" transform="translate(330.2560878290377,0)"><line stroke="#000" y2="6"></line><text fill="#000" y="9" dy="0.71em">68</text></g><g class="tick" opacity="1" transform="translate(361.92061841534024,0)"><line stroke="#000" y2="6"></line><text fill="#000" y="9" dy="0.71em">70</text></g><g class="tick" opacity="1" transform="translate(393.5851490016428,0)"><line stroke="#000" y2="6"></line><text fill="#000" y="9" dy="0.71em">72</text></g></g><line x1="80" x2="80" y1="80" y2="480" style="stroke: black;"></line><line x1="500" x2="500" y1="80" y2="480" style="stroke: black;"></line><circle class="circle" tooltip="circle" stroke="black" cx="441.42061841534024" cy="472" r="4" style="fill: rgb(0, 170, 0);"></circle><circle class="circle" tooltip="circle" stroke="black" cx="457.25288370849154" cy="472" r="4" style="fill: rgb(0, 170, 0);"></circle><circle class="circle" tooltip="circle" stroke="black" cx="473.0851490016428" cy="472" r="4" style="fill: rgb(0, 170, 0);"></circle><line class="mean" x1="362.2592919495839" y1="85" x2="362.2592919495839" y2="213.33333333333334" style="stroke: rgb(255, 69, 0);"></line><text class="mean" x="367.2592919495839" y="146.66666666666669" style="text-anchor: start; font-size: 9px; font-family: sans-serif; stroke: rgb(255, 69, 0);">x̄=65.00</text><text class="mean" x="485" y="95" style="text-anchor: end; font-size: 9px; font-family: sans-serif; stroke: rgb(0, 85, 255);">n=4</text><text class="mean" x="490" y="110" style="text-anchor: end; font-size: 9px; font-family: sans-serif; stroke: rgb(0, 85, 255);">s=4.32</text><line class="mean" x1="251.433434897525" y1="218.33333333333334" x2="251.433434897525" y2="346.6666666666667" style="stroke: rgb(255, 69, 0);"></line><text class="mean" x="256.433434897525" y="280" style="text-anchor: start; font-size: 9px; font-family: sans-serif; stroke: rgb(255, 69, 0);">x̄=58.00</text><text class="mean" x="485" y="228.33333333333334" style="text-anchor: end; font-size: 9px; font-family: sans-serif; stroke: rgb(0, 85, 255);">n=3</text><text class="mean" x="490" y="243.33333333333334" style="text-anchor: end; font-size: 9px; font-family: sans-serif; stroke: rgb(0, 85, 255);">s=4.36</text><line class="mean" x1="457.25288370849154" y1="351.6666666666667" x2="457.25288370849154" y2="480" style="stroke: rgb(255, 69, 0);"></line><text class="mean" x="462.25288370849154" y="413.33333333333337" style="text-anchor: start; font-size: 9px; font-family: sans-serif; stroke: rgb(255, 69, 0);">x̄=71.00</text><text class="mean" x="485" y="361.6666666666667" style="text-anchor: end; font-size: 9px; font-family: sans-serif; stroke: rgb(0, 85, 255);">n=3</text><text class="mean" x="490" y="376.6666666666667" style="text-anchor: end; font-size: 9px; font-family: sans-serif; stroke: rgb(0, 85, 255);">s=1.00</text><circle class="std" cx="362.2592919495839" cy="151.66666666666669" r="1" style="fill: green;"></circle><line class="std" x1="253.41452999456328" y1="151.66666666666669" x2="362.2592919495839" y2="151.66666666666669" style="stroke: yellowgreen;"></line><line class="std" x1="471.1040539046046" y1="151.66666666666669" x2="362.2592919495839" y2="151.66666666666669" style="stroke: yellowgreen;"></line><circle class="std" cx="253.41452999456328" cy="151.66666666666669" r="1" style="fill: yellowgreen;"></circle><circle class="std" cx="471.1040539046046" cy="151.66666666666669" r="1" style="fill: yellowgreen;"></circle><text class="std" x="253.41452999456328" y="161.66666666666669" style="text-anchor: middle; font-size: 9px; font-family: sans-serif; stroke: green;">95% CI</text><circle class="std" cx="251.433434897525" cy="285" r="1" style="fill: green;"></circle><line class="std" x1="80" y1="285" x2="251.433434897525" y2="285" style="stroke: yellowgreen;"></line><line class="std" x1="422.86686979505" y1="285" x2="251.433434897525" y2="285" style="stroke: yellowgreen;"></line><circle class="std" cx="80" cy="285" r="1" style="fill: yellowgreen;"></circle><circle class="std" cx="422.86686979505" cy="285" r="1" style="fill: yellowgreen;"></circle><text class="std" x="80" y="295" style="text-anchor: middle; font-size: 9px; font-family: sans-serif; stroke: green;">95% CI</text><circle class="std" cx="457.25288370849154" cy="418.3333333333333" r="1" style="fill: green;"></circle><line class="std" x1="417.9233564315245" y1="418.3333333333333" x2="457.25288370849154" y2="418.3333333333333" style="stroke: yellowgreen;"></line><line class="std" x1="496.5824109854585" y1="418.3333333333333" x2="457.25288370849154" y2="418.3333333333333" style="stroke: yellowgreen;"></line><circle class="std" cx="417.9233564315245" cy="418.3333333333333" r="1" style="fill: yellowgreen;"></circle><circle class="std" cx="496.5824109854585" cy="418.3333333333333" r="1" style="fill: yellowgreen;"></circle><text class="std" x="417.9233564315245" y="428.3333333333333" style="text-anchor: middle; font-size: 9px; font-family: sans-serif; stroke: green;">95% CI</text></svg>