<svg xmlns="http://www.w3.org/2000/svg" id="SVG" width="600" height="560"><text x="290" y="50" style="font-size: 17px; font-family: sans-seirf; stroke: black; text-anchor: middle;">Weight Confidence Interval Graph</text><text x="290" y="530" style="font-size: 12px; font-family: sans-seirf; stroke: black; text-anchor: middle;">Weight</text><text x="520" y="280" style="font-size: 12px; font-family: sans-seirf; stroke: rgb(0, 85, 255); text-anchor: start;"></text><line x1="80" x2="500" y1="80" y2="80" style="stroke: black;"></line><g transform="translate(80,480)" fill="none" font-size="10" font-family="sans-serif" text-anchor="middle"><path class="domain" stroke="#000" d="M0.5,6V0.5H420.5V6"></path><g class="tick" opacity="1" transform="translate(35.500000000000256,0)"><line stroke="#000" y2="6"></line><text fill="#000" y="9" dy="0.71em">194</text></g><g class="tick" opacity="1" transform="translate(89.34615384615402,0)"><line stroke="#000" y2="6"></line><text fill="#000" y="9" dy="0.71em">196</text></g><g class="tick" opacity="1" transform="translate(143.1923076923078,0)"><line stroke="#000" y2="6"></line><text fill="#000" y="9" dy="0.71em">198</text></g><g class="tick" opacity="1" transform="translate(197.03846153846158,0)"><line stroke="#000" y2="6"></line><text fill="#000" y="9" dy="0.71em">200</text></g><g class="tick" opacity="1" transform="translate(250.88461538461533,0)"><line stroke="#000" y2="6"></line><text fill="#000" y="9" dy="0.71em">202</text></g><g class="tick" opacity="1" transform="translate(304.73076923076906,0)"><line stroke="#000" y2="6"></line><text fill="#000" y="9" dy="0.71em">204</text></g><g class="tick" opacity="1" transform="translate(358.57692307692287,0)"><line stroke="#000" y2="6"></line><text fill="#000" y="9" dy="0.71em">206</text></g><g class="tick" opacity="1" transform="translate(412.4230769230766,0)"><line stroke="#000" y2="6"></line><text fill="#000" y="9" dy="0.71em">208</text></g></g><line x1="80" x2="80" y1="80" y2="480" style="stroke: black;"></line><line x1="500" x2="500" y1="80" y2="480" style="stroke: black;"></line><circle class="circle" tooltip="circle" stroke="black" cx="115.00000000000026" cy="472" r="4" style="fill: rgb(0, 85, 255);"></circle><circle class="circle" tooltip="circle" stroke="black" cx="141.92307692307713" cy="472" r="4" style="fill: rgb(0, 85, 255);"></circle><circle class="circle" tooltip="circle" stroke="black" cx="195.7692307692309" cy="472" r="4" style="fill: rgb(0, 85, 255);"></circle><circle class="circle" tooltip="circle" stroke="black" cx="222.69230769230776" cy="472" r="4" style="fill: rgb(0, 85, 255);"></circle><circle class="circle" tooltip="circle" stroke="black" cx="249.61538461538467" cy="472" r="4" style="fill: rgb(0, 85, 255);"></circle><circle class="circle" tooltip="circle" stroke="black" cx="303.46153846153845" cy="472" r="4" style="fill: rgb(0, 85, 255);"></circle><circle class="circle" tooltip="circle" stroke="black" cx="357.3076923076922" cy="472" r="4" style="fill: rgb(0, 85, 255);"></circle><circle class="circle" tooltip="circle" stroke="black" cx="384.23076923076906" cy="472" r="4" style="fill: rgb(0, 85, 255);"></circle><circle class="circle" tooltip="circle" stroke="black" cx="411.15384615384596" cy="472" r="4" style="fill: rgb(0, 85, 255);"></circle><circle class="circle" tooltip="circle" stroke="black" cx="464.9999999999997" cy="472" r="4" style="fill: rgb(0, 85, 255);"></circle><line class="mean" x1="284.6153846153849" y1="85" x2="284.6153846153849" y2="480" style="stroke: rgb(255, 69, 0);"></line><text class="mean" x="289.6153846153849" y="280" style="text-anchor: start; font-size: 9px; font-family: sans-serif; stroke: rgb(255, 69, 0);">x̄=200.30</text><text class="mean" x="485" y="95" style="text-anchor: end; font-size: 9px; font-family: sans-serif; stroke: rgb(0, 85, 255);">n=10</text><text class="mean" x="490" y="110" style="text-anchor: end; font-size: 9px; font-family: sans-serif; stroke: rgb(0, 85, 255);">s=4.40</text><circle class="std" cx="284.6153846153849" cy="285" r="1" style="fill: green;"></circle><line class="std" x1="199.90715661763772" y1="285" x2="284.6153846153849" y2="285" style="stroke: yellowgreen;"></line><line class="std" x1="369.3236126131321" y1="285" x2="284.6153846153849" y2="285" style="stroke: yellowgreen;"></line><circle class="std" cx="199.90715661763772" cy="285" r="1" style="fill: yellowgreen;"></circle><circle class="std" cx="369.3236126131321" cy="285" r="1" style="fill: yellowgreen;"></circle><text class="std" x="199.90715661763772" y="295" style="text-anchor: middle; font-size: 9px; font-family: sans-serif; stroke: green;">95% CI</text></svg>