<svg xmlns="http://www.w3.org/2000/svg" id="SVG" width="600" height="560"><text x="290" y="50" style="font-size: 17px; font-family: sans-seirf; stroke: black; text-anchor: middle;">(Group  Car)  Miles Confidence Interval Graph</text><text x="290" y="530" style="font-size: 12px; font-family: sans-seirf; stroke: black; text-anchor: middle;">Miles</text><text x="520" y="146.66666666666669" style="font-size: 12px; font-family: sans-seirf; stroke: rgb(0, 85, 255); text-anchor: start;">A</text><line x1="80" x2="500" y1="80" y2="80" style="stroke: black;"></line><g transform="translate(80,480)" fill="none" font-size="10" font-family="sans-serif" text-anchor="middle"><path class="domain" stroke="#000" d="M0.5,6V0.5H420.5V6"></path><g class="tick" opacity="1" transform="translate(17.852941176470583,0)"><line stroke="#000" y2="6"></line><text fill="#000" y="9" dy="0.71em">12</text></g><g class="tick" opacity="1" transform="translate(76.67647058823528,0)"><line stroke="#000" y2="6"></line><text fill="#000" y="9" dy="0.71em">14</text></g><g class="tick" opacity="1" transform="translate(135.5,0)"><line stroke="#000" y2="6"></line><text fill="#000" y="9" dy="0.71em">16</text></g><g class="tick" opacity="1" transform="translate(194.3235294117647,0)"><line stroke="#000" y2="6"></line><text fill="#000" y="9" dy="0.71em">18</text></g><g class="tick" opacity="1" transform="translate(253.1470588235294,0)"><line stroke="#000" y2="6"></line><text fill="#000" y="9" dy="0.71em">20</text></g><g class="tick" opacity="1" transform="translate(311.9705882352941,0)"><line stroke="#000" y2="6"></line><text fill="#000" y="9" dy="0.71em">22</text></g><g class="tick" opacity="1" transform="translate(370.7941176470588,0)"><line stroke="#000" y2="6"></line><text fill="#000" y="9" dy="0.71em">24</text></g></g><line x1="80" x2="80" y1="80" y2="480" style="stroke: black;"></line><line x1="500" x2="500" y1="80" y2="480" style="stroke: black;"></line><circle class="circle" tooltip="circle" stroke="black" cx="217.94117647058826" cy="205.33333333333334" r="4" style="fill: rgb(0, 85, 255);"></circle><circle class="circle" tooltip="circle" stroke="black" cx="323.82352941176464" cy="205.33333333333334" r="4" style="fill: rgb(0, 85, 255);"></circle><circle class="circle" tooltip="circle" stroke="black" cx="365" cy="205.33333333333334" r="4" style="fill: rgb(0, 85, 255);"></circle><circle class="circle" tooltip="circle" stroke="black" cx="403.23529411764696" cy="205.33333333333334" r="4" style="fill: rgb(0, 85, 255);"></circle><circle class="circle" tooltip="circle" stroke="black" cx="465" cy="205.33333333333334" r="4" style="fill: rgb(0, 85, 255);"></circle><text x="520" y="280" style="font-size: 12px; font-family: sans-seirf; stroke: rgb(255, 69, 0); text-anchor: start;">B</text><line x1="80" x2="500" y1="213.33333333333334" y2="213.33333333333334" style="stroke: black;"></line><g transform="translate(80,480)" fill="none" font-size="10" font-family="sans-serif" text-anchor="middle"><path class="domain" stroke="#000" d="M0.5,6V0.5H420.5V6"></path><g class="tick" opacity="1" transform="translate(17.852941176470583,0)"><line stroke="#000" y2="6"></line><text fill="#000" y="9" dy="0.71em">12</text></g><g class="tick" opacity="1" transform="translate(76.67647058823528,0)"><line stroke="#000" y2="6"></line><text fill="#000" y="9" dy="0.71em">14</text></g><g class="tick" opacity="1" transform="translate(135.5,0)"><line stroke="#000" y2="6"></line><text fill="#000" y="9" dy="0.71em">16</text></g><g class="tick" opacity="1" transform="translate(194.3235294117647,0)"><line stroke="#000" y2="6"></line><text fill="#000" y="9" dy="0.71em">18</text></g><g class="tick" opacity="1" transform="translate(253.1470588235294,0)"><line stroke="#000" y2="6"></line><text fill="#000" y="9" dy="0.71em">20</text></g><g class="tick" opacity="1" transform="translate(311.9705882352941,0)"><line stroke="#000" y2="6"></line><text fill="#000" y="9" dy="0.71em">22</text></g><g class="tick" opacity="1" transform="translate(370.7941176470588,0)"><line stroke="#000" y2="6"></line><text fill="#000" y="9" dy="0.71em">24</text></g></g><line x1="80" x2="80" y1="80" y2="480" style="stroke: black;"></line><line x1="500" x2="500" y1="80" y2="480" style="stroke: black;"></line><circle class="circle" tooltip="circle" stroke="black" cx="114.99999999999997" cy="338.6666666666667" r="4" style="fill: rgb(255, 69, 0);"></circle><circle class="circle" tooltip="circle" stroke="black" cx="212.05882352941177" cy="338.6666666666667" r="4" style="fill: rgb(255, 69, 0);"></circle><circle class="circle" tooltip="circle" stroke="black" cx="223.8235294117647" cy="338.6666666666667" r="4" style="fill: rgb(255, 69, 0);"></circle><circle class="circle" tooltip="circle" stroke="black" cx="267.94117647058823" cy="338.6666666666667" r="4" style="fill: rgb(255, 69, 0);"></circle><circle class="circle" tooltip="circle" stroke="black" cx="362.0588235294117" cy="338.6666666666667" r="4" style="fill: rgb(255, 69, 0);"></circle><text x="520" y="413.33333333333337" style="font-size: 12px; font-family: sans-seirf; stroke: rgb(0, 170, 0); text-anchor: start;">C</text><line x1="80" x2="500" y1="346.6666666666667" y2="346.6666666666667" style="stroke: black;"></line><g transform="translate(80,480)" fill="none" font-size="10" font-family="sans-serif" text-anchor="middle"><path class="domain" stroke="#000" d="M0.5,6V0.5H420.5V6"></path><g class="tick" opacity="1" transform="translate(17.852941176470583,0)"><line stroke="#000" y2="6"></line><text fill="#000" y="9" dy="0.71em">12</text></g><g class="tick" opacity="1" transform="translate(76.67647058823528,0)"><line stroke="#000" y2="6"></line><text fill="#000" y="9" dy="0.71em">14</text></g><g class="tick" opacity="1" transform="translate(135.5,0)"><line stroke="#000" y2="6"></line><text fill="#000" y="9" dy="0.71em">16</text></g><g class="tick" opacity="1" transform="translate(194.3235294117647,0)"><line stroke="#000" y2="6"></line><text fill="#000" y="9" dy="0.71em">18</text></g><g class="tick" opacity="1" transform="translate(253.1470588235294,0)"><line stroke="#000" y2="6"></line><text fill="#000" y="9" dy="0.71em">20</text></g><g class="tick" opacity="1" transform="translate(311.9705882352941,0)"><line stroke="#000" y2="6"></line><text fill="#000" y="9" dy="0.71em">22</text></g><g class="tick" opacity="1" transform="translate(370.7941176470588,0)"><line stroke="#000" y2="6"></line><text fill="#000" y="9" dy="0.71em">24</text></g></g><line x1="80" x2="80" y1="80" y2="480" style="stroke: black;"></line><line x1="500" x2="500" y1="80" y2="480" style="stroke: black;"></line><circle class="circle" tooltip="circle" stroke="black" cx="191.4705882352941" cy="472" r="4" style="fill: rgb(0, 170, 0);"></circle><circle class="circle" tooltip="circle" stroke="black" cx="294.4117647058823" cy="472" r="4" style="fill: rgb(0, 170, 0);"></circle><circle class="circle" tooltip="circle" stroke="black" cx="300.2941176470588" cy="472" r="4" style="fill: rgb(0, 170, 0);"></circle><circle class="circle" tooltip="circle" stroke="black" cx="338.52941176470586" cy="472" r="4" style="fill: rgb(0, 170, 0);"></circle><circle class="circle" tooltip="circle" stroke="black" cx="444.4117647058823" cy="472" r="4" style="fill: rgb(0, 170, 0);"></circle><line class="mean" x1="354.9999999999999" y1="85" x2="354.9999999999999" y2="213.33333333333334" style="stroke: rgb(255, 69, 0);"></line><text class="mean" x="359.9999999999999" y="146.66666666666669" style="text-anchor: start; font-size: 9px; font-family: sans-serif; stroke: rgb(255, 69, 0);">x̄=20.76</text><text class="mean" x="485" y="95" style="text-anchor: end; font-size: 9px; font-family: sans-serif; stroke: rgb(0, 85, 255);">n=5</text><text class="mean" x="490" y="110" style="text-anchor: end; font-size: 9px; font-family: sans-serif; stroke: rgb(0, 85, 255);">s=3.15</text><line class="mean" x1="236.17647058823525" y1="218.33333333333334" x2="236.17647058823525" y2="346.6666666666667" style="stroke: rgb(255, 69, 0);"></line><text class="mean" x="241.17647058823525" y="280" style="text-anchor: start; font-size: 9px; font-family: sans-serif; stroke: rgb(255, 69, 0);">x̄=16.72</text><text class="mean" x="485" y="228.33333333333334" style="text-anchor: end; font-size: 9px; font-family: sans-serif; stroke: rgb(0, 85, 255);">n=5</text><text class="mean" x="490" y="243.33333333333334" style="text-anchor: end; font-size: 9px; font-family: sans-serif; stroke: rgb(0, 85, 255);">s=3.05</text><line class="mean" x1="313.82352941176464" y1="351.6666666666667" x2="313.82352941176464" y2="480" style="stroke: rgb(255, 69, 0);"></line><text class="mean" x="318.82352941176464" y="413.33333333333337" style="text-anchor: start; font-size: 9px; font-family: sans-serif; stroke: rgb(255, 69, 0);">x̄=19.36</text><text class="mean" x="485" y="361.6666666666667" style="text-anchor: end; font-size: 9px; font-family: sans-serif; stroke: rgb(0, 85, 255);">n=5</text><text class="mean" x="490" y="376.6666666666667" style="text-anchor: end; font-size: 9px; font-family: sans-serif; stroke: rgb(0, 85, 255);">s=3.10</text><circle class="std" cx="354.9999999999999" cy="151.66666666666669" r="1" style="fill: green;"></circle><line class="std" x1="240.04756627614728" y1="151.66666666666669" x2="354.9999999999999" y2="151.66666666666669" style="stroke: yellowgreen;"></line><line class="std" x1="469.95243372385255" y1="151.66666666666669" x2="354.9999999999999" y2="151.66666666666669" style="stroke: yellowgreen;"></line><circle class="std" cx="240.04756627614728" cy="151.66666666666669" r="1" style="fill: yellowgreen;"></circle><circle class="std" cx="469.95243372385255" cy="151.66666666666669" r="1" style="fill: yellowgreen;"></circle><text class="std" x="240.04756627614728" y="161.66666666666669" style="text-anchor: middle; font-size: 9px; font-family: sans-serif; stroke: green;">95% CI</text><circle class="std" cx="236.17647058823525" cy="285" r="1" style="fill: green;"></circle><line class="std" x1="124.64532583188632" y1="285" x2="236.17647058823525" y2="285" style="stroke: yellowgreen;"></line><line class="std" x1="347.70761534458416" y1="285" x2="236.17647058823525" y2="285" style="stroke: yellowgreen;"></line><circle class="std" cx="124.64532583188632" cy="285" r="1" style="fill: yellowgreen;"></circle><circle class="std" cx="347.70761534458416" cy="285" r="1" style="fill: yellowgreen;"></circle><text class="std" x="124.64532583188632" y="295" style="text-anchor: middle; font-size: 9px; font-family: sans-serif; stroke: green;">95% CI</text><circle class="std" cx="313.82352941176464" cy="418.3333333333333" r="1" style="fill: green;"></circle><line class="std" x1="200.7131670556686" y1="418.3333333333333" x2="313.82352941176464" y2="418.3333333333333" style="stroke: yellowgreen;"></line><line class="std" x1="426.93389176786076" y1="418.3333333333333" x2="313.82352941176464" y2="418.3333333333333" style="stroke: yellowgreen;"></line><circle class="std" cx="200.7131670556686" cy="418.3333333333333" r="1" style="fill: yellowgreen;"></circle><circle class="std" cx="426.93389176786076" cy="418.3333333333333" r="1" style="fill: yellowgreen;"></circle><text class="std" x="200.7131670556686" y="428.3333333333333" style="text-anchor: middle; font-size: 9px; font-family: sans-serif; stroke: green;">95% CI</text></svg>