<svg xmlns="http://www.w3.org/2000/svg" id="SVG" width="600" height="560" xlink="http://www.w3.org/1999/xlink"><text x="290" y="50" style="font-size: 17px; font-family: sans-seirf; stroke: black; text-anchor: middle;">(Group  Gender)   Age  Box-Whisker Plot</text><rect x="80" y="80" width="420" height="400" style="stroke: black; fill: white;"></rect><g transform="translate(80,480)" fill="none" font-size="10" font-family="sans-serif" text-anchor="middle"><path class="domain" stroke="#000" d="M0.5,6V0.5H420.5V6"></path><g class="tick" opacity="1" transform="translate(35.50000000000001,0)"><line stroke="#000" y2="6"></line><text fill="#000" y="9" dy="0.71em">25</text></g><g class="tick" opacity="1" transform="translate(81.55263157894738,0)"><line stroke="#000" y2="6"></line><text fill="#000" y="9" dy="0.71em">30</text></g><g class="tick" opacity="1" transform="translate(127.60526315789475,0)"><line stroke="#000" y2="6"></line><text fill="#000" y="9" dy="0.71em">35</text></g><g class="tick" opacity="1" transform="translate(173.65789473684214,0)"><line stroke="#000" y2="6"></line><text fill="#000" y="9" dy="0.71em">40</text></g><g class="tick" opacity="1" transform="translate(219.7105263157895,0)"><line stroke="#000" y2="6"></line><text fill="#000" y="9" dy="0.71em">45</text></g><g class="tick" opacity="1" transform="translate(265.7631578947369,0)"><line stroke="#000" y2="6"></line><text fill="#000" y="9" dy="0.71em">50</text></g><g class="tick" opacity="1" transform="translate(311.8157894736842,0)"><line stroke="#000" y2="6"></line><text fill="#000" y="9" dy="0.71em">55</text></g><g class="tick" opacity="1" transform="translate(357.8684210526316,0)"><line stroke="#000" y2="6"></line><text fill="#000" y="9" dy="0.71em">60</text></g><g class="tick" opacity="1" transform="translate(403.921052631579,0)"><line stroke="#000" y2="6"></line><text fill="#000" y="9" dy="0.71em">65</text></g></g><text x="510" y="185" style="font-size: 12px; font-family: sans-seirf; stroke: rgb(0, 85, 255); text-anchor: start;">Group 1</text><line x1="115" y1="155" x2="115" y2="205" style="stroke: rgb(0, 85, 255); stroke-width: 2px;"></line><line x1="115" y1="180" x2="179.47368421052633" y2="180" style="stroke: rgb(0, 85, 255); stroke-width: 2px;"></line><line x1="418.94736842105266" y1="155" x2="418.94736842105266" y2="205" style="stroke: rgb(0, 85, 255); stroke-width: 2px;"></line><rect x="179.47368421052633" y="130" width="128.94736842105266" height="100" style="stroke: black; fill: rgb(0, 85, 255);"></rect><line x1="308.42105263157896" y1="180" x2="418.94736842105266" y2="180" style="stroke: rgb(0, 85, 255); stroke-width: 2px;"></line><line x1="216.31578947368422" y1="130" x2="216.31578947368422" y2="230" style="stroke: lime; stroke-width: 2px;"></line><text x="510" y="385" style="font-size: 12px; font-family: sans-seirf; stroke: rgb(255, 69, 0); text-anchor: start;">Group 2</text><line x1="133.42105263157896" y1="355" x2="133.42105263157896" y2="405" style="stroke: rgb(255, 69, 0); stroke-width: 2px;"></line><line x1="133.42105263157896" y1="380" x2="188.6842105263158" y2="380" style="stroke: rgb(255, 69, 0); stroke-width: 2px;"></line><line x1="465.00000000000006" y1="355" x2="465.00000000000006" y2="405" style="stroke: rgb(255, 69, 0); stroke-width: 2px;"></line><rect x="188.6842105263158" y="330" width="165.78947368421055" height="100" style="stroke: black; fill: rgb(255, 69, 0);"></rect><line x1="354.47368421052636" y1="380" x2="465.00000000000006" y2="380" style="stroke: rgb(255, 69, 0); stroke-width: 2px;"></line><line x1="262.36842105263156" y1="330" x2="262.36842105263156" y2="430" style="stroke: lime; stroke-width: 2px;"></line></svg>