<svg xmlns="http://www.w3.org/2000/svg" id="SVG" width="600" height="560"><text x="310" y="45" style="font-size: 17px; font-family: sans-seirf; stroke: black; text-anchor: middle;">Residual Plot</text><text x="50" y="285" transform="rotate(-90 10 240)" style="font-size: 10px; font-family: sans-seirf; stroke: black; text-anchor: middle;">Residual</text><text x="290" y="515" style="font-size: 10px; font-family: sans-seirf; stroke: black; text-anchor: middle;">Predicted Value</text><g transform="translate(100,470)" fill="none" font-size="10" font-family="sans-serif" text-anchor="middle"><path class="domain" stroke="#000" d="M0.5,6V0.5H380.5V6"></path><g class="tick" opacity="1" transform="translate(31.18322981366449,0)"><line stroke="#000" y2="6"></line><text fill="#000" y="9" dy="0.71em">70</text></g><g class="tick" opacity="1" transform="translate(64.90106477373548,0)"><line stroke="#000" y2="6"></line><text fill="#000" y="9" dy="0.71em">72</text></g><g class="tick" opacity="1" transform="translate(98.61889973380649,0)"><line stroke="#000" y2="6"></line><text fill="#000" y="9" dy="0.71em">74</text></g><g class="tick" opacity="1" transform="translate(132.33673469387747,0)"><line stroke="#000" y2="6"></line><text fill="#000" y="9" dy="0.71em">76</text></g><g class="tick" opacity="1" transform="translate(166.05456965394848,0)"><line stroke="#000" y2="6"></line><text fill="#000" y="9" dy="0.71em">78</text></g><g class="tick" opacity="1" transform="translate(199.77240461401948,0)"><line stroke="#000" y2="6"></line><text fill="#000" y="9" dy="0.71em">80</text></g><g class="tick" opacity="1" transform="translate(233.49023957409048,0)"><line stroke="#000" y2="6"></line><text fill="#000" y="9" dy="0.71em">82</text></g><g class="tick" opacity="1" transform="translate(267.2080745341615,0)"><line stroke="#000" y2="6"></line><text fill="#000" y="9" dy="0.71em">84</text></g><g class="tick" opacity="1" transform="translate(300.9259094942324,0)"><line stroke="#000" y2="6"></line><text fill="#000" y="9" dy="0.71em">86</text></g><g class="tick" opacity="1" transform="translate(334.64374445430343,0)"><line stroke="#000" y2="6"></line><text fill="#000" y="9" dy="0.71em">88</text></g><g class="tick" opacity="1" transform="translate(368.36157941437443,0)"><line stroke="#000" y2="6"></line><text fill="#000" y="9" dy="0.71em">90</text></g></g><g transform="translate(100,90)" fill="none" font-size="10" font-family="sans-serif" text-anchor="middle"><path class="domain" stroke="#000" d="M0.5,-6V0.5H380.5V-6"></path><g class="tick" opacity="1" transform="translate(31.18322981366449,0)"><line stroke="#000" y2="-6"></line><text fill="#000" y="-9" dy="0em">70</text></g><g class="tick" opacity="1" transform="translate(64.90106477373548,0)"><line stroke="#000" y2="-6"></line><text fill="#000" y="-9" dy="0em">72</text></g><g class="tick" opacity="1" transform="translate(98.61889973380649,0)"><line stroke="#000" y2="-6"></line><text fill="#000" y="-9" dy="0em">74</text></g><g class="tick" opacity="1" transform="translate(132.33673469387747,0)"><line stroke="#000" y2="-6"></line><text fill="#000" y="-9" dy="0em">76</text></g><g class="tick" opacity="1" transform="translate(166.05456965394848,0)"><line stroke="#000" y2="-6"></line><text fill="#000" y="-9" dy="0em">78</text></g><g class="tick" opacity="1" transform="translate(199.77240461401948,0)"><line stroke="#000" y2="-6"></line><text fill="#000" y="-9" dy="0em">80</text></g><g class="tick" opacity="1" transform="translate(233.49023957409048,0)"><line stroke="#000" y2="-6"></line><text fill="#000" y="-9" dy="0em">82</text></g><g class="tick" opacity="1" transform="translate(267.2080745341615,0)"><line stroke="#000" y2="-6"></line><text fill="#000" y="-9" dy="0em">84</text></g><g class="tick" opacity="1" transform="translate(300.9259094942324,0)"><line stroke="#000" y2="-6"></line><text fill="#000" y="-9" dy="0em">86</text></g><g class="tick" opacity="1" transform="translate(334.64374445430343,0)"><line stroke="#000" y2="-6"></line><text fill="#000" y="-9" dy="0em">88</text></g><g class="tick" opacity="1" transform="translate(368.36157941437443,0)"><line stroke="#000" y2="-6"></line><text fill="#000" y="-9" dy="0em">90</text></g></g><g transform="translate(100,90)" fill="none" font-size="10" font-family="sans-serif" text-anchor="end"><path class="domain" stroke="#000" d="M-6,380.5H0.5V0.5H-6"></path><g class="tick" opacity="1" transform="translate(0,342.7255192878338)"><line stroke="#000" x2="-6"></line><text fill="#000" x="-9" dy="0.32em">-15</text></g><g class="tick" opacity="1" transform="translate(0,291.98367952522256)"><line stroke="#000" x2="-6"></line><text fill="#000" x="-9" dy="0.32em">-10</text></g><g class="tick" opacity="1" transform="translate(0,241.24183976261125)"><line stroke="#000" x2="-6"></line><text fill="#000" x="-9" dy="0.32em">-5</text></g><g class="tick" opacity="1" transform="translate(0,190.5)"><line stroke="#000" x2="-6"></line><text fill="#000" x="-9" dy="0.32em">0</text></g><g class="tick" opacity="1" transform="translate(0,139.75816023738875)"><line stroke="#000" x2="-6"></line><text fill="#000" x="-9" dy="0.32em">5</text></g><g class="tick" opacity="1" transform="translate(0,89.0163204747775)"><line stroke="#000" x2="-6"></line><text fill="#000" x="-9" dy="0.32em">10</text></g><g class="tick" opacity="1" transform="translate(0,38.27448071216622)"><line stroke="#000" x2="-6"></line><text fill="#000" x="-9" dy="0.32em">15</text></g></g><g transform="translate(480,90)" fill="none" font-size="10" font-family="sans-serif" text-anchor="start"><path class="domain" stroke="#000" d="M6,380.5H0.5V0.5H6"></path><g class="tick" opacity="1" transform="translate(0,342.7255192878338)"><line stroke="#000" x2="6"></line><text fill="#000" x="9" dy="0.32em">-15</text></g><g class="tick" opacity="1" transform="translate(0,291.98367952522256)"><line stroke="#000" x2="6"></line><text fill="#000" x="9" dy="0.32em">-10</text></g><g class="tick" opacity="1" transform="translate(0,241.24183976261125)"><line stroke="#000" x2="6"></line><text fill="#000" x="9" dy="0.32em">-5</text></g><g class="tick" opacity="1" transform="translate(0,190.5)"><line stroke="#000" x2="6"></line><text fill="#000" x="9" dy="0.32em">0</text></g><g class="tick" opacity="1" transform="translate(0,139.75816023738875)"><line stroke="#000" x2="6"></line><text fill="#000" x="9" dy="0.32em">5</text></g><g class="tick" opacity="1" transform="translate(0,89.0163204747775)"><line stroke="#000" x2="6"></line><text fill="#000" x="9" dy="0.32em">10</text></g><g class="tick" opacity="1" transform="translate(0,38.27448071216622)"><line stroke="#000" x2="6"></line><text fill="#000" x="9" dy="0.32em">15</text></g></g><line x1="100" y1="280" x2="480" y2="280" style="stroke: greenyellow;"></line><circle class="circle" r="4" cx="271.17420881396026" cy="252.9376854599406" style="stroke: black; fill: rgb(255, 69, 0);"></circle><circle class="circle" r="4" cx="271.17420881396026" cy="313.8278931750741" style="stroke: black; fill: rgb(255, 69, 0);"></circle><circle class="circle" r="4" cx="271.17420881396026" cy="374.71810089020767" style="stroke: black; fill: rgb(255, 69, 0);"></circle><circle class="circle" r="4" cx="271.17420881396026" cy="161.60237388724033" style="stroke: black; fill: rgb(255, 69, 0);"></circle><circle class="circle" r="4" cx="271.17420881396026" cy="344.2729970326409" style="stroke: black; fill: rgb(255, 69, 0);"></circle><circle class="circle" r="4" cx="271.17420881396026" cy="232.64094955489608" style="stroke: black; fill: rgb(255, 69, 0);"></circle><circle class="circle" r="4" cx="206.54835847382424" cy="376.4094955489614" style="stroke: black; fill: rgb(255, 69, 0);"></circle><circle class="circle" r="4" cx="206.54835847382424" cy="224.1839762611276" style="stroke: black; fill: rgb(255, 69, 0);"></circle><circle class="circle" r="4" cx="206.54835847382424" cy="295.22255192878333" style="stroke: black; fill: rgb(255, 69, 0);"></circle><circle class="circle" r="4" cx="206.54835847382424" cy="234.33234421364986" style="stroke: black; fill: rgb(255, 69, 0);"></circle><circle class="circle" r="4" cx="206.54835847382424" cy="214.03560830860536" style="stroke: black; fill: rgb(255, 69, 0);"></circle><circle class="circle" r="4" cx="206.54835847382424" cy="335.8160237388724" style="stroke: black; fill: rgb(255, 69, 0);"></circle><circle class="circle" r="4" cx="154.28571428571428" cy="273.9109792284867" style="stroke: black; fill: rgb(255, 69, 0);"></circle><circle class="circle" r="4" cx="154.28571428571428" cy="324.652818991098" style="stroke: black; fill: rgb(255, 69, 0);"></circle><circle class="circle" r="4" cx="154.28571428571428" cy="375.3946587537092" style="stroke: black; fill: rgb(255, 69, 0);"></circle><circle class="circle" r="4" cx="154.28571428571428" cy="233.3175074183977" style="stroke: black; fill: rgb(255, 69, 0);"></circle><circle class="circle" r="4" cx="154.28571428571428" cy="192.72403560830867" style="stroke: black; fill: rgb(255, 69, 0);"></circle><circle class="circle" r="4" cx="425.7142857142857" cy="264.7774480712166" style="stroke: black; fill: rgb(255, 69, 0);"></circle><circle class="circle" r="4" cx="425.7142857142857" cy="214.03560830860536" style="stroke: black; fill: rgb(255, 69, 0);"></circle><circle class="circle" r="4" cx="425.7142857142857" cy="366.2611275964391" style="stroke: black; fill: rgb(255, 69, 0);"></circle><circle class="circle" r="4" cx="425.7142857142857" cy="274.9258160237389" style="stroke: black; fill: rgb(255, 69, 0);"></circle></svg>