<svg xmlns="http://www.w3.org/2000/svg" id="SVG" width="600" height="865" xlink="http://www.w3.org/1999/xlink"><text x="290" y="50" style="font-size: 17px; font-family: sans-seirf; stroke: black; text-anchor: middle;">(Group  HotDog)   Calorie  Stem and Leaf Plot</text><text class="titleStem" x="40" y="100" style="stroke: rgb(0, 85, 255);">Stem</text><text class="titleStem" x="110" y="100" style="stroke: rgb(0, 85, 255);">Group 1 Leaf</text><line x1="20" x2="580" y1="110" y2="110" style="stroke: black;"></line><text class="stem" x="70" y="130" style="stroke: rgb(0, 85, 255);">8</text><text class="stem" x="70" y="145" style="stroke: rgb(0, 85, 255);">9</text><text class="stem" x="70" y="160" style="stroke: rgb(0, 85, 255);">10</text><text class="stem" x="70" y="175" style="stroke: rgb(0, 85, 255);">11</text><text class="leaf" x="118" y="175" style="stroke: rgb(255, 69, 0);">1</text><text class="stem" x="70" y="190" style="stroke: rgb(0, 85, 255);">12</text><text class="stem" x="70" y="205" style="stroke: rgb(0, 85, 255);">13</text><text class="leaf" x="118" y="205" style="stroke: rgb(255, 69, 0);">1</text><text class="leaf" x="126" y="205" style="stroke: rgb(0, 170, 0);">2</text><text class="leaf" x="134" y="205" style="stroke: rgb(128, 128, 0);">5</text><text class="leaf" x="142" y="205" style="stroke: rgb(135, 206, 235);">9</text><text class="stem" x="70" y="220" style="stroke: rgb(0, 85, 255);">14</text><text class="leaf" x="118" y="220" style="stroke: rgb(255, 69, 0);">1</text><text class="leaf" x="126" y="220" style="stroke: rgb(124, 252, 0);">8</text><text class="leaf" x="134" y="220" style="stroke: rgb(135, 206, 235);">9</text><text class="leaf" x="142" y="220" style="stroke: rgb(135, 206, 235);">9</text><text class="stem" x="70" y="235" style="stroke: rgb(0, 85, 255);">15</text><text class="leaf" x="118" y="235" style="stroke: rgb(0, 170, 0);">2</text><text class="leaf" x="126" y="235" style="stroke: rgb(255, 228, 0);">3</text><text class="leaf" x="134" y="235" style="stroke: rgb(255, 165, 0);">7</text><text class="leaf" x="142" y="235" style="stroke: rgb(124, 252, 0);">8</text><text class="stem" x="70" y="250" style="stroke: rgb(0, 85, 255);">16</text><text class="stem" x="70" y="265" style="stroke: rgb(0, 85, 255);">17</text><text class="leaf" x="118" y="265" style="stroke: rgb(128, 128, 0);">5</text><text class="leaf" x="126" y="265" style="stroke: rgb(0, 0, 205);">6</text><text class="stem" x="70" y="280" style="stroke: rgb(0, 85, 255);">18</text><text class="leaf" x="118" y="280" style="stroke: rgb(255, 69, 0);">1</text><text class="leaf" x="126" y="280" style="stroke: rgb(255, 0, 221);">4</text><text class="leaf" x="134" y="280" style="stroke: rgb(0, 0, 205);">6</text><text class="stem" x="70" y="295" style="stroke: rgb(0, 85, 255);">19</text><text class="leaf" x="118" y="295" style="stroke: rgb(0, 85, 255);">0</text><text class="leaf" x="126" y="295" style="stroke: rgb(0, 85, 255);">0</text><text class="titleStem" x="40" y="345" style="stroke: rgb(255, 69, 0);">Stem</text><text class="titleStem" x="110" y="345" style="stroke: rgb(255, 69, 0);">Group 2 Leaf</text><line x1="20" x2="580" y1="355" y2="355" style="stroke: black;"></line><text class="stem" x="70" y="375" style="stroke: rgb(255, 69, 0);">8</text><text class="stem" x="70" y="390" style="stroke: rgb(255, 69, 0);">9</text><text class="stem" x="70" y="405" style="stroke: rgb(255, 69, 0);">10</text><text class="leaf" x="118" y="405" style="stroke: rgb(255, 165, 0);">7</text><text class="stem" x="70" y="420" style="stroke: rgb(255, 69, 0);">11</text><text class="stem" x="70" y="435" style="stroke: rgb(255, 69, 0);">12</text><text class="stem" x="70" y="450" style="stroke: rgb(255, 69, 0);">13</text><text class="leaf" x="118" y="450" style="stroke: rgb(128, 128, 0);">5</text><text class="leaf" x="126" y="450" style="stroke: rgb(0, 0, 205);">6</text><text class="leaf" x="134" y="450" style="stroke: rgb(124, 252, 0);">8</text><text class="leaf" x="142" y="450" style="stroke: rgb(135, 206, 235);">9</text><text class="stem" x="70" y="465" style="stroke: rgb(255, 69, 0);">14</text><text class="leaf" x="118" y="465" style="stroke: rgb(0, 85, 255);">0</text><text class="leaf" x="126" y="465" style="stroke: rgb(0, 0, 205);">6</text><text class="leaf" x="134" y="465" style="stroke: rgb(255, 165, 0);">7</text><text class="stem" x="70" y="480" style="stroke: rgb(255, 69, 0);">15</text><text class="leaf" x="118" y="480" style="stroke: rgb(255, 228, 0);">3</text><text class="stem" x="70" y="495" style="stroke: rgb(255, 69, 0);">16</text><text class="stem" x="70" y="510" style="stroke: rgb(255, 69, 0);">17</text><text class="leaf" x="118" y="510" style="stroke: rgb(0, 170, 0);">2</text><text class="leaf" x="126" y="510" style="stroke: rgb(255, 228, 0);">3</text><text class="leaf" x="134" y="510" style="stroke: rgb(128, 128, 0);">5</text><text class="leaf" x="142" y="510" style="stroke: rgb(135, 206, 235);">9</text><text class="stem" x="70" y="525" style="stroke: rgb(255, 69, 0);">18</text><text class="leaf" x="118" y="525" style="stroke: rgb(0, 170, 0);">2</text><text class="stem" x="70" y="540" style="stroke: rgb(255, 69, 0);">19</text><text class="leaf" x="118" y="540" style="stroke: rgb(0, 85, 255);">0</text><text class="leaf" x="126" y="540" style="stroke: rgb(255, 69, 0);">1</text><text class="leaf" x="134" y="540" style="stroke: rgb(128, 128, 0);">5</text><text class="titleStem" x="40" y="590" style="stroke: rgb(0, 170, 0);">Stem</text><text class="titleStem" x="110" y="590" style="stroke: rgb(0, 170, 0);">Group 3 Leaf</text><line x1="20" x2="580" y1="600" y2="600" style="stroke: black;"></line><text class="stem" x="70" y="620" style="stroke: rgb(0, 170, 0);">8</text><text class="leaf" x="118" y="620" style="stroke: rgb(0, 0, 205);">6</text><text class="leaf" x="126" y="620" style="stroke: rgb(255, 165, 0);">7</text><text class="stem" x="70" y="635" style="stroke: rgb(0, 170, 0);">9</text><text class="leaf" x="118" y="635" style="stroke: rgb(255, 0, 221);">4</text><text class="leaf" x="126" y="635" style="stroke: rgb(135, 206, 235);">9</text><text class="stem" x="70" y="650" style="stroke: rgb(0, 170, 0);">10</text><text class="leaf" x="118" y="650" style="stroke: rgb(0, 170, 0);">2</text><text class="leaf" x="126" y="650" style="stroke: rgb(0, 170, 0);">2</text><text class="leaf" x="134" y="650" style="stroke: rgb(0, 0, 205);">6</text><text class="leaf" x="142" y="650" style="stroke: rgb(255, 165, 0);">7</text><text class="stem" x="70" y="665" style="stroke: rgb(0, 170, 0);">11</text><text class="leaf" x="118" y="665" style="stroke: rgb(255, 228, 0);">3</text><text class="stem" x="70" y="680" style="stroke: rgb(0, 170, 0);">12</text><text class="leaf" x="118" y="680" style="stroke: rgb(135, 206, 235);">9</text><text class="stem" x="70" y="695" style="stroke: rgb(0, 170, 0);">13</text><text class="leaf" x="118" y="695" style="stroke: rgb(0, 170, 0);">2</text><text class="leaf" x="126" y="695" style="stroke: rgb(128, 128, 0);">5</text><text class="stem" x="70" y="710" style="stroke: rgb(0, 170, 0);">14</text><text class="leaf" x="118" y="710" style="stroke: rgb(0, 170, 0);">2</text><text class="leaf" x="126" y="710" style="stroke: rgb(255, 228, 0);">3</text><text class="leaf" x="134" y="710" style="stroke: rgb(255, 0, 221);">4</text><text class="leaf" x="142" y="710" style="stroke: rgb(0, 0, 205);">6</text><text class="stem" x="70" y="725" style="stroke: rgb(0, 170, 0);">15</text><text class="leaf" x="118" y="725" style="stroke: rgb(0, 170, 0);">2</text><text class="stem" x="70" y="740" style="stroke: rgb(0, 170, 0);">16</text><text class="stem" x="70" y="755" style="stroke: rgb(0, 170, 0);">17</text><text class="stem" x="70" y="770" style="stroke: rgb(0, 170, 0);">18</text><text class="stem" x="70" y="785" style="stroke: rgb(0, 170, 0);">19</text></svg>