<svg xmlns="http://www.w3.org/2000/svg" id="SVG" style="width: 600px; height: 560px;"><text x="290" y="40" style="font-size: 17px; font-family: sans-seirf; stroke: black; text-anchor: middle;">Paired Sample Data Graph</text><text x="290" y="530" style="font-size: 12px; font-family: sans-seirf; stroke: black; text-anchor: middle;">d = (Before - After)</text><text x="520" y="280" style="font-size: 12px; font-family: sans-seirf; stroke: rgb(0, 85, 255); text-anchor: start;"></text><line x1="80" x2="500" y1="80" y2="80" style="stroke: black;"></line><g transform="translate(80,480)" fill="none" font-size="10" font-family="sans-serif" text-anchor="middle"><path class="domain" stroke="#000" d="M0.5,6V0.5H420.5V6"></path><g class="tick" opacity="1" transform="translate(35.49999999999999,0)"><line stroke="#000" y2="6"></line><text fill="#000" y="9" dy="0.71em">-7</text></g><g class="tick" opacity="1" transform="translate(79.25,0)"><line stroke="#000" y2="6"></line><text fill="#000" y="9" dy="0.71em">-6</text></g><g class="tick" opacity="1" transform="translate(123.00000000000001,0)"><line stroke="#000" y2="6"></line><text fill="#000" y="9" dy="0.71em">-5</text></g><g class="tick" opacity="1" transform="translate(166.75,0)"><line stroke="#000" y2="6"></line><text fill="#000" y="9" dy="0.71em">-4</text></g><g class="tick" opacity="1" transform="translate(210.5,0)"><line stroke="#000" y2="6"></line><text fill="#000" y="9" dy="0.71em">-3</text></g><g class="tick" opacity="1" transform="translate(254.24999999999997,0)"><line stroke="#000" y2="6"></line><text fill="#000" y="9" dy="0.71em">-2</text></g><g class="tick" opacity="1" transform="translate(298,0)"><line stroke="#000" y2="6"></line><text fill="#000" y="9" dy="0.71em">-1</text></g><g class="tick" opacity="1" transform="translate(341.75,0)"><line stroke="#000" y2="6"></line><text fill="#000" y="9" dy="0.71em">0</text></g><g class="tick" opacity="1" transform="translate(385.50000000000006,0)"><line stroke="#000" y2="6"></line><text fill="#000" y="9" dy="0.71em">1</text></g></g><line x1="80" x2="80" y1="80" y2="480" style="stroke: black;"></line><line x1="500" x2="500" y1="80" y2="480" style="stroke: black;"></line><circle class="circle" tooltip="circle" stroke="black" cx="115" cy="472" r="4" style="fill: rgb(0, 85, 255);"></circle><circle class="circle" tooltip="circle" stroke="black" cx="158.75" cy="472" r="4" style="fill: rgb(0, 85, 255);"></circle><circle class="circle" tooltip="circle" stroke="black" cx="158.75" cy="464" r="4" style="fill: rgb(0, 85, 255);"></circle><circle class="circle" tooltip="circle" stroke="black" cx="202.5" cy="472" r="4" style="fill: rgb(0, 85, 255);"></circle><circle class="circle" tooltip="circle" stroke="black" cx="246.25" cy="472" r="4" style="fill: rgb(0, 85, 255);"></circle><circle class="circle" tooltip="circle" stroke="black" cx="333.75" cy="472" r="4" style="fill: rgb(0, 85, 255);"></circle><circle class="circle" tooltip="circle" stroke="black" cx="465.00000000000006" cy="472" r="4" style="fill: rgb(0, 85, 255);"></circle><circle class="circle" tooltip="circle" stroke="black" cx="465.00000000000006" cy="464" r="4" style="fill: rgb(0, 85, 255);"></circle><line class="mean" x1="268.125" y1="85" x2="268.125" y2="480" style="stroke: rgb(255, 69, 0);"></line><text class="mean" x="273.125" y="280" style="text-anchor: start; font-size: 9px; font-family: sans-serif; stroke: rgb(255, 69, 0);">x̄=-3.50</text><text class="mean" x="485" y="95" style="text-anchor: end; font-size: 9px; font-family: sans-serif; stroke: rgb(0, 85, 255);">n=8</text><text class="mean" x="490" y="110" style="text-anchor: end; font-size: 9px; font-family: sans-serif; stroke: rgb(0, 85, 255);">s=3.16</text><circle class="std" cx="268.125" cy="285" r="1" style="fill: green;"></circle><line class="std" x1="152.46180069177154" y1="285" x2="268.125" y2="285" style="stroke: yellowgreen;"></line><line class="std" x1="383.7881993082285" y1="285" x2="268.125" y2="285" style="stroke: yellowgreen;"></line><circle class="std" cx="152.46180069177154" cy="285" r="1" style="fill: yellowgreen;"></circle><circle class="std" cx="383.7881993082285" cy="285" r="1" style="fill: yellowgreen;"></circle><text class="std" x="152.46180069177154" y="295" style="text-anchor: middle; font-size: 9px; font-family: sans-serif; stroke: green;">95% CI</text></svg>