<svg xmlns="http://www.w3.org/2000/svg" id="SVG" width="600" height="560" xlink="http://www.w3.org/1999/xlink"><text x="290" y="50" style="font-size: 17px; font-family: sans-seirf; stroke: black; text-anchor: middle;"> Age  Box-Whisker Plot</text><rect x="80" y="80" width="420" height="400" style="stroke: black; fill: white;"></rect><g transform="translate(80,480)" fill="none" font-size="10" font-family="sans-serif" text-anchor="middle"><path class="domain" stroke="#000" d="M0.5,6V0.5H420.5V6"></path><g class="tick" opacity="1" transform="translate(35.50000000000001,0)"><line stroke="#000" y2="6"></line><text fill="#000" y="9" dy="0.71em">25</text></g><g class="tick" opacity="1" transform="translate(81.55263157894738,0)"><line stroke="#000" y2="6"></line><text fill="#000" y="9" dy="0.71em">30</text></g><g class="tick" opacity="1" transform="translate(127.60526315789475,0)"><line stroke="#000" y2="6"></line><text fill="#000" y="9" dy="0.71em">35</text></g><g class="tick" opacity="1" transform="translate(173.65789473684214,0)"><line stroke="#000" y2="6"></line><text fill="#000" y="9" dy="0.71em">40</text></g><g class="tick" opacity="1" transform="translate(219.7105263157895,0)"><line stroke="#000" y2="6"></line><text fill="#000" y="9" dy="0.71em">45</text></g><g class="tick" opacity="1" transform="translate(265.7631578947369,0)"><line stroke="#000" y2="6"></line><text fill="#000" y="9" dy="0.71em">50</text></g><g class="tick" opacity="1" transform="translate(311.8157894736842,0)"><line stroke="#000" y2="6"></line><text fill="#000" y="9" dy="0.71em">55</text></g><g class="tick" opacity="1" transform="translate(357.8684210526316,0)"><line stroke="#000" y2="6"></line><text fill="#000" y="9" dy="0.71em">60</text></g><g class="tick" opacity="1" transform="translate(403.921052631579,0)"><line stroke="#000" y2="6"></line><text fill="#000" y="9" dy="0.71em">65</text></g></g><line x1="115" y1="230" x2="115" y2="330" style="stroke: rgb(0, 85, 255); stroke-width: 2px;"></line><line x1="115" y1="280" x2="181.7763157894737" y2="280" style="stroke: rgb(0, 85, 255); stroke-width: 2px;"></line><line x1="465.00000000000006" y1="230" x2="465.00000000000006" y2="330" style="stroke: rgb(0, 85, 255); stroke-width: 2px;"></line><rect x="181.7763157894737" y="180" width="147.3684210526316" height="200" style="stroke: black; fill: rgb(0, 85, 255);"></rect><line x1="329.1447368421053" y1="280" x2="465.00000000000006" y2="280" style="stroke: rgb(0, 85, 255); stroke-width: 2px;"></line><line x1="253.15789473684214" y1="180" x2="253.15789473684214" y2="380" style="stroke: lime; stroke-width: 2px;"></line></svg>