<svg xmlns="http://www.w3.org/2000/svg" id="SVG" width="600" height="560" xlink="http://www.w3.org/1999/xlink"><text x="290" y="50" style="font-size: 17px; font-family: sans-seirf; stroke: black; text-anchor: middle;">(Group  Gender)  Marital  Bar Graph</text><text x="290" y="530" style="font-size: 12px; font-family: sans-seirf; stroke: black; text-anchor: middle;">Marital</text><text x="10" y="95" transform="rotate(-90 30 100)" style="font-size: 12px; font-family: sans-seirf; stroke: black; text-anchor: end;">Ratio</text><line x1="150" x2="150" y1="480" y2="485" style="stroke: black; stroke-width: 0.5;"></line><text x="150" y="495" transform="rotate(0,150,495)  " style="text-anchor: middle; font-family: sans-serif; font-size: 9px;">1</text><line x1="290" x2="290" y1="480" y2="485" style="stroke: black; stroke-width: 0.5;"></line><text x="290" y="495" transform="rotate(0,290,495)  " style="text-anchor: middle; font-family: sans-serif; font-size: 9px;">2</text><line x1="430" x2="430" y1="480" y2="485" style="stroke: black; stroke-width: 0.5;"></line><text x="430" y="495" transform="rotate(0,430,495)  " style="text-anchor: middle; font-family: sans-serif; font-size: 9px;">3</text><g transform="translate(80,80)" fill="none" font-size="10" font-family="sans-serif" text-anchor="end"><path class="domain" stroke="#000" d="M-6,400.5H0.5V0.5H-6"></path><g class="tick" opacity="1" transform="translate(0,400.5)"><line stroke="#000" x2="-6"></line><text fill="#000" x="-9" dy="0.32em">0.0</text></g><g class="tick" opacity="1" transform="translate(0,360.5)"><line stroke="#000" x2="-6"></line><text fill="#000" x="-9" dy="0.32em">0.1</text></g><g class="tick" opacity="1" transform="translate(0,320.5)"><line stroke="#000" x2="-6"></line><text fill="#000" x="-9" dy="0.32em">0.2</text></g><g class="tick" opacity="1" transform="translate(0,280.5)"><line stroke="#000" x2="-6"></line><text fill="#000" x="-9" dy="0.32em">0.3</text></g><g class="tick" opacity="1" transform="translate(0,240.5)"><line stroke="#000" x2="-6"></line><text fill="#000" x="-9" dy="0.32em">0.4</text></g><g class="tick" opacity="1" transform="translate(0,200.5)"><line stroke="#000" x2="-6"></line><text fill="#000" x="-9" dy="0.32em">0.5</text></g><g class="tick" opacity="1" transform="translate(0,160.5)"><line stroke="#000" x2="-6"></line><text fill="#000" x="-9" dy="0.32em">0.6</text></g><g class="tick" opacity="1" transform="translate(0,120.5)"><line stroke="#000" x2="-6"></line><text fill="#000" x="-9" dy="0.32em">0.7</text></g><g class="tick" opacity="1" transform="translate(0,80.5)"><line stroke="#000" x2="-6"></line><text fill="#000" x="-9" dy="0.32em">0.8</text></g><g class="tick" opacity="1" transform="translate(0,40.5)"><line stroke="#000" x2="-6"></line><text fill="#000" x="-9" dy="0.32em">0.9</text></g><g class="tick" opacity="1" transform="translate(0,0.5)"><line stroke="#000" x2="-6"></line><text fill="#000" x="-9" dy="0.32em">1.0</text></g></g><line class="line" x1="80" x2="80" y1="80" y2="480" style="stroke: black;"></line><line class="line" x1="500" x2="500" y1="80" y2="480" style="stroke: black;"></line><line x1="80" x2="500" y1="480" y2="480" style="stroke: black;"></line><line x1="80" x2="500" y1="80" y2="80" style="stroke: black;"></line><rect x="515" y="100" width="8" height="8" style="fill: rgb(0, 85, 255);"></rect><text x="530" y="110" style="font-size: 12px; font-family: sans-seirf; stroke: rgb(0, 85, 255); text-anchor: start;">Group 1</text><rect class="bar" height="266.66666666666663" width="84" x="108" y="213.33333333333337" style="fill: rgb(0, 85, 255);"></rect><rect class="bar" height="133.33333333333331" width="84" x="248" y="346.6666666666667" style="fill: rgb(0, 85, 255);"></rect><rect class="bar" height="400" width="84" x="388" y="80" style="fill: rgb(0, 85, 255);"></rect><rect x="515" y="120" width="8" height="8" style="fill: rgb(255, 69, 0);"></rect><text x="530" y="130" style="font-size: 12px; font-family: sans-seirf; stroke: rgb(255, 69, 0); text-anchor: start;">Group 2</text><rect class="bar" height="133.33333333333331" width="84" x="108" y="80.00000000000006" style="fill: rgb(255, 69, 0);"></rect><rect class="bar" height="266.66666666666663" width="84" x="248" y="80.00000000000006" style="fill: rgb(255, 69, 0);"></rect><rect class="bar" height="0" width="84" x="388" y="80" style="fill: rgb(255, 69, 0);"></rect></svg>