<svg xmlns="http://www.w3.org/2000/svg" id="SVG" width="600" height="560"><text x="290" y="50" style="font-size: 17px; font-family: sans-seirf; stroke: black; text-anchor: middle;"> Line Graph</text><text x="290" y="530" style="font-size: 12px; font-family: sans-seirf; stroke: black; text-anchor: middle;">AgeInterval</text><text x="25" y="95" transform="rotate(-90 30 100)" style="font-size: 12px; font-family: sans-seirf; stroke: black; text-anchor: end;"></text><line x1="80" x2="500" y1="480" y2="480" style="stroke: black;"></line><line x1="80" x2="500" y1="80" y2="80" style="stroke: black;"></line><line x1="91.66666666666667" x2="91.66666666666667" y1="480" y2="485" style="stroke: black; stroke-width: 0.5;"></line><text x="84.66666666666667" y="490" transform="rotate(30,84.66666666666667,490)  " style="text-anchor: start; font-size: 9px; font-family: sans-serif;">00 - 04</text><line x1="115" x2="115" y1="480" y2="485" style="stroke: black; stroke-width: 0.5;"></line><text x="108" y="490" transform="rotate(30,108,490)  " style="text-anchor: start; font-size: 9px; font-family: sans-serif;">05 - 09</text><line x1="138.33333333333334" x2="138.33333333333334" y1="480" y2="485" style="stroke: black; stroke-width: 0.5;"></line><text x="131.33333333333334" y="490" transform="rotate(30,131.33333333333334,490)  " style="text-anchor: start; font-size: 9px; font-family: sans-serif;">10 - 14</text><line x1="161.66666666666669" x2="161.66666666666669" y1="480" y2="485" style="stroke: black; stroke-width: 0.5;"></line><text x="154.66666666666669" y="490" transform="rotate(30,154.66666666666669,490)  " style="text-anchor: start; font-size: 9px; font-family: sans-serif;">15 - 19</text><line x1="185" x2="185" y1="480" y2="485" style="stroke: black; stroke-width: 0.5;"></line><text x="178" y="490" transform="rotate(30,178,490)  " style="text-anchor: start; font-size: 9px; font-family: sans-serif;">20 - 24</text><line x1="208.33333333333331" x2="208.33333333333331" y1="480" y2="485" style="stroke: black; stroke-width: 0.5;"></line><text x="201.33333333333331" y="490" transform="rotate(30,201.33333333333331,490)  " style="text-anchor: start; font-size: 9px; font-family: sans-serif;">25 - 29</text><line x1="231.66666666666669" x2="231.66666666666669" y1="480" y2="485" style="stroke: black; stroke-width: 0.5;"></line><text x="224.66666666666669" y="490" transform="rotate(30,224.66666666666669,490)  " style="text-anchor: start; font-size: 9px; font-family: sans-serif;">30 - 34</text><line x1="255" x2="255" y1="480" y2="485" style="stroke: black; stroke-width: 0.5;"></line><text x="248" y="490" transform="rotate(30,248,490)  " style="text-anchor: start; font-size: 9px; font-family: sans-serif;">35 - 39</text><line x1="278.3333333333333" x2="278.3333333333333" y1="480" y2="485" style="stroke: black; stroke-width: 0.5;"></line><text x="271.3333333333333" y="490" transform="rotate(30,271.3333333333333,490)  " style="text-anchor: start; font-size: 9px; font-family: sans-serif;">40 - 44</text><line x1="301.6666666666667" x2="301.6666666666667" y1="480" y2="485" style="stroke: black; stroke-width: 0.5;"></line><text x="294.6666666666667" y="490" transform="rotate(30,294.6666666666667,490)  " style="text-anchor: start; font-size: 9px; font-family: sans-serif;">45 - 49</text><line x1="325" x2="325" y1="480" y2="485" style="stroke: black; stroke-width: 0.5;"></line><text x="318" y="490" transform="rotate(30,318,490)  " style="text-anchor: start; font-size: 9px; font-family: sans-serif;">50 - 54</text><line x1="348.3333333333333" x2="348.3333333333333" y1="480" y2="485" style="stroke: black; stroke-width: 0.5;"></line><text x="341.3333333333333" y="490" transform="rotate(30,341.3333333333333,490)  " style="text-anchor: start; font-size: 9px; font-family: sans-serif;">55 - 59</text><line x1="371.6666666666667" x2="371.6666666666667" y1="480" y2="485" style="stroke: black; stroke-width: 0.5;"></line><text x="364.6666666666667" y="490" transform="rotate(30,364.6666666666667,490)  " style="text-anchor: start; font-size: 9px; font-family: sans-serif;">60 - 64</text><line x1="395" x2="395" y1="480" y2="485" style="stroke: black; stroke-width: 0.5;"></line><text x="388" y="490" transform="rotate(30,388,490)  " style="text-anchor: start; font-size: 9px; font-family: sans-serif;">65 - 69</text><line x1="418.3333333333333" x2="418.3333333333333" y1="480" y2="485" style="stroke: black; stroke-width: 0.5;"></line><text x="411.3333333333333" y="490" transform="rotate(30,411.3333333333333,490)  " style="text-anchor: start; font-size: 9px; font-family: sans-serif;">70 - 74</text><line x1="441.6666666666667" x2="441.6666666666667" y1="480" y2="485" style="stroke: black; stroke-width: 0.5;"></line><text x="434.6666666666667" y="490" transform="rotate(30,434.6666666666667,490)  " style="text-anchor: start; font-size: 9px; font-family: sans-serif;">75 - 79</text><line x1="465" x2="465" y1="480" y2="485" style="stroke: black; stroke-width: 0.5;"></line><text x="458" y="490" transform="rotate(30,458,490)  " style="text-anchor: start; font-size: 9px; font-family: sans-serif;">80 - 84</text><line x1="488.3333333333333" x2="488.3333333333333" y1="480" y2="485" style="stroke: black; stroke-width: 0.5;"></line><text x="481.3333333333333" y="490" transform="rotate(30,481.3333333333333,490)  " style="text-anchor: start; font-size: 9px; font-family: sans-serif;">85 above</text><g transform="translate(80,80)" fill="none" font-size="10" font-family="sans-serif" text-anchor="end"><path class="domain" stroke="#000" d="M-6,0.5H0.5V400.5H-6"></path><g class="tick" opacity="1" transform="translate(0,29.1919831223629)"><line stroke="#000" x2="-6"></line><text fill="#000" x="-9" dy="0.32em">220</text></g><g class="tick" opacity="1" transform="translate(0,62.947257383966246)"><line stroke="#000" x2="-6"></line><text fill="#000" x="-9" dy="0.32em">200</text></g><g class="tick" opacity="1" transform="translate(0,96.7025316455696)"><line stroke="#000" x2="-6"></line><text fill="#000" x="-9" dy="0.32em">180</text></g><g class="tick" opacity="1" transform="translate(0,130.457805907173)"><line stroke="#000" x2="-6"></line><text fill="#000" x="-9" dy="0.32em">160</text></g><g class="tick" opacity="1" transform="translate(0,164.21308016877637)"><line stroke="#000" x2="-6"></line><text fill="#000" x="-9" dy="0.32em">140</text></g><g class="tick" opacity="1" transform="translate(0,197.96835443037975)"><line stroke="#000" x2="-6"></line><text fill="#000" x="-9" dy="0.32em">120</text></g><g class="tick" opacity="1" transform="translate(0,231.72362869198312)"><line stroke="#000" x2="-6"></line><text fill="#000" x="-9" dy="0.32em">100</text></g><g class="tick" opacity="1" transform="translate(0,265.4789029535865)"><line stroke="#000" x2="-6"></line><text fill="#000" x="-9" dy="0.32em">80</text></g><g class="tick" opacity="1" transform="translate(0,299.2341772151899)"><line stroke="#000" x2="-6"></line><text fill="#000" x="-9" dy="0.32em">60</text></g><g class="tick" opacity="1" transform="translate(0,332.98945147679325)"><line stroke="#000" x2="-6"></line><text fill="#000" x="-9" dy="0.32em">40</text></g><g class="tick" opacity="1" transform="translate(0,366.7447257383966)"><line stroke="#000" x2="-6"></line><text fill="#000" x="-9" dy="0.32em">20</text></g><g class="tick" opacity="1" transform="translate(0,400.5)"><line stroke="#000" x2="-6"></line><text fill="#000" x="-9" dy="0.32em">0</text></g></g><line x1="500" x2="500" y1="80" y2="480" style="stroke: black;"></line><circle cx="91.66666666666667" cy="285.90717299578057" r="4" style="fill: rgb(0, 85, 255);"><title>115</title></circle><circle cx="115" cy="284.21940928270044" r="4" style="fill: rgb(0, 85, 255);"><title>116</title></circle><line x1="91.66666666666667" x2="115" y1="285.90717299578057" y2="284.21940928270044" style="stroke: rgb(0, 85, 255);"></line><circle cx="138.33333333333334" cy="267.34177215189874" r="4" style="fill: rgb(0, 85, 255);"><title>126</title></circle><line x1="115" x2="138.33333333333334" y1="284.21940928270044" y2="267.34177215189874" style="stroke: rgb(0, 85, 255);"></line><circle cx="161.66666666666669" cy="199.831223628692" r="4" style="fill: rgb(0, 85, 255);"><title>166</title></circle><line x1="138.33333333333334" x2="161.66666666666669" y1="267.34177215189874" y2="199.831223628692" style="stroke: rgb(0, 85, 255);"></line><circle cx="185" cy="174.51476793248946" r="4" style="fill: rgb(0, 85, 255);"><title>181</title></circle><line x1="161.66666666666669" x2="185" y1="199.831223628692" y2="174.51476793248946" style="stroke: rgb(0, 85, 255);"></line><circle cx="208.33333333333331" cy="213.33333333333331" r="4" style="fill: rgb(0, 85, 255);"><title>158</title></circle><line x1="185" x2="208.33333333333331" y1="174.51476793248946" y2="213.33333333333331" style="stroke: rgb(0, 85, 255);"></line><circle cx="231.66666666666669" cy="167.76371308016877" r="4" style="fill: rgb(0, 85, 255);"><title>185</title></circle><line x1="208.33333333333331" x2="231.66666666666669" y1="213.33333333333331" y2="167.76371308016877" style="stroke: rgb(0, 85, 255);"></line><circle cx="255" cy="154.26160337552744" r="4" style="fill: rgb(0, 85, 255);"><title>193</title></circle><line x1="231.66666666666669" x2="255" y1="167.76371308016877" y2="154.26160337552744" style="stroke: rgb(0, 85, 255);"></line><circle cx="278.3333333333333" cy="118.81856540084391" r="4" style="fill: rgb(0, 85, 255);"><title>214</title></circle><line x1="255" x2="278.3333333333333" y1="154.26160337552744" y2="118.81856540084391" style="stroke: rgb(0, 85, 255);"></line><circle cx="301.6666666666667" cy="117.13080168776372" r="4" style="fill: rgb(0, 85, 255);"><title>215</title></circle><line x1="278.3333333333333" x2="301.6666666666667" y1="118.81856540084391" y2="117.13080168776372" style="stroke: rgb(0, 85, 255);"></line><circle cx="325" cy="127.25738396624473" r="4" style="fill: rgb(0, 85, 255);"><title>209</title></circle><line x1="301.6666666666667" x2="325" y1="117.13080168776372" y2="127.25738396624473" style="stroke: rgb(0, 85, 255);"></line><circle cx="348.3333333333333" cy="155.94936708860757" r="4" style="fill: rgb(0, 85, 255);"><title>192</title></circle><line x1="325" x2="348.3333333333333" y1="127.25738396624473" y2="155.94936708860757" style="stroke: rgb(0, 85, 255);"></line><circle cx="371.6666666666667" cy="253.83966244725738" r="4" style="fill: rgb(0, 85, 255);"><title>134</title></circle><line x1="348.3333333333333" x2="371.6666666666667" y1="155.94936708860757" y2="253.83966244725738" style="stroke: rgb(0, 85, 255);"></line><circle cx="395" cy="307.8481012658228" r="4" style="fill: rgb(0, 85, 255);"><title>102</title></circle><line x1="371.6666666666667" x2="395" y1="253.83966244725738" y2="307.8481012658228" style="stroke: rgb(0, 85, 255);"></line><circle cx="418.3333333333333" cy="346.66666666666663" r="4" style="fill: rgb(0, 85, 255);"><title>79</title></circle><line x1="395" x2="418.3333333333333" y1="307.8481012658228" y2="346.66666666666663" style="stroke: rgb(0, 85, 255);"></line><circle cx="441.6666666666667" cy="387.1729957805907" r="4" style="fill: rgb(0, 85, 255);"><title>55</title></circle><line x1="418.3333333333333" x2="441.6666666666667" y1="346.66666666666663" y2="387.1729957805907" style="stroke: rgb(0, 85, 255);"></line><circle cx="465" cy="432.74261603375527" r="4" style="fill: rgb(0, 85, 255);"><title>28</title></circle><line x1="441.6666666666667" x2="465" y1="387.1729957805907" y2="432.74261603375527" style="stroke: rgb(0, 85, 255);"></line><circle cx="488.3333333333333" cy="458.0590717299578" r="4" style="fill: rgb(0, 85, 255);"><title>13</title></circle><line x1="465" x2="488.3333333333333" y1="432.74261603375527" y2="458.0590717299578" style="stroke: rgb(0, 85, 255);"></line><circle cx="91.66666666666667" cy="296.0337552742616" r="4" style="fill: rgb(255, 69, 0);"><title>109</title></circle><circle cx="115" cy="296.0337552742616" r="4" style="fill: rgb(255, 69, 0);"><title>109</title></circle><line x1="91.66666666666667" x2="115" y1="296.0337552742616" y2="296.0337552742616" style="stroke: rgb(255, 69, 0);"></line><circle cx="138.33333333333334" cy="284.21940928270044" r="4" style="fill: rgb(255, 69, 0);"><title>116</title></circle><line x1="115" x2="138.33333333333334" y1="296.0337552742616" y2="284.21940928270044" style="stroke: rgb(255, 69, 0);"></line><circle cx="161.66666666666669" cy="225.1476793248945" r="4" style="fill: rgb(255, 69, 0);"><title>151</title></circle><line x1="138.33333333333334" x2="161.66666666666669" y1="284.21940928270044" y2="225.1476793248945" style="stroke: rgb(255, 69, 0);"></line><circle cx="185" cy="213.33333333333331" r="4" style="fill: rgb(255, 69, 0);"><title>158</title></circle><line x1="161.66666666666669" x2="185" y1="225.1476793248945" y2="213.33333333333331" style="stroke: rgb(255, 69, 0);"></line><circle cx="208.33333333333331" cy="235.27426160337552" r="4" style="fill: rgb(255, 69, 0);"><title>145</title></circle><line x1="185" x2="208.33333333333331" y1="213.33333333333331" y2="235.27426160337552" style="stroke: rgb(255, 69, 0);"></line><circle cx="231.66666666666669" cy="182.95358649789029" r="4" style="fill: rgb(255, 69, 0);"><title>176</title></circle><line x1="208.33333333333331" x2="231.66666666666669" y1="235.27426160337552" y2="182.95358649789029" style="stroke: rgb(255, 69, 0);"></line><circle cx="255" cy="166.07594936708858" r="4" style="fill: rgb(255, 69, 0);"><title>186</title></circle><line x1="231.66666666666669" x2="255" y1="182.95358649789029" y2="166.07594936708858" style="stroke: rgb(255, 69, 0);"></line><circle cx="278.3333333333333" cy="130.63291139240505" r="4" style="fill: rgb(255, 69, 0);"><title>207</title></circle><line x1="255" x2="278.3333333333333" y1="166.07594936708858" y2="130.63291139240505" style="stroke: rgb(255, 69, 0);"></line><circle cx="301.6666666666667" cy="122.19409282700423" r="4" style="fill: rgb(255, 69, 0);"><title>212</title></circle><line x1="278.3333333333333" x2="301.6666666666667" y1="130.63291139240505" y2="122.19409282700423" style="stroke: rgb(255, 69, 0);"></line><circle cx="325" cy="134.00843881856542" r="4" style="fill: rgb(255, 69, 0);"><title>205</title></circle><line x1="301.6666666666667" x2="325" y1="122.19409282700423" y2="134.00843881856542" style="stroke: rgb(255, 69, 0);"></line><circle cx="348.3333333333333" cy="152.57383966244726" r="4" style="fill: rgb(255, 69, 0);"><title>194</title></circle><line x1="325" x2="348.3333333333333" y1="134.00843881856542" y2="152.57383966244726" style="stroke: rgb(255, 69, 0);"></line><circle cx="371.6666666666667" cy="242.0253164556962" r="4" style="fill: rgb(255, 69, 0);"><title>141</title></circle><line x1="348.3333333333333" x2="371.6666666666667" y1="152.57383966244726" y2="242.0253164556962" style="stroke: rgb(255, 69, 0);"></line><circle cx="395" cy="294.34599156118145" r="4" style="fill: rgb(255, 69, 0);"><title>110</title></circle><line x1="371.6666666666667" x2="395" y1="242.0253164556962" y2="294.34599156118145" style="stroke: rgb(255, 69, 0);"></line><circle cx="418.3333333333333" cy="316.2869198312236" r="4" style="fill: rgb(255, 69, 0);"><title>97</title></circle><line x1="395" x2="418.3333333333333" y1="294.34599156118145" y2="316.2869198312236" style="stroke: rgb(255, 69, 0);"></line><circle cx="441.6666666666667" cy="344.9789029535865" r="4" style="fill: rgb(255, 69, 0);"><title>80</title></circle><line x1="418.3333333333333" x2="441.6666666666667" y1="316.2869198312236" y2="344.9789029535865" style="stroke: rgb(255, 69, 0);"></line><circle cx="465" cy="388.8607594936709" r="4" style="fill: rgb(255, 69, 0);"><title>54</title></circle><line x1="441.6666666666667" x2="465" y1="344.9789029535865" y2="388.8607594936709" style="stroke: rgb(255, 69, 0);"></line><circle cx="488.3333333333333" cy="414.17721518987344" r="4" style="fill: rgb(255, 69, 0);"><title>39</title></circle><line x1="465" x2="488.3333333333333" y1="388.8607594936709" y2="414.17721518987344" style="stroke: rgb(255, 69, 0);"></line><circle cx="515" cy="100" r="4" style="fill: rgb(0, 85, 255);"></circle><text x="525" y="105" style="font-size: 12px; font-family: sans-seirf; stroke: rgb(0, 85, 255); text-anchor: start;">2015_Male</text><circle cx="515" cy="120" r="4" style="fill: rgb(255, 69, 0);"></circle><text x="525" y="125" style="font-size: 12px; font-family: sans-seirf; stroke: rgb(255, 69, 0); text-anchor: start;">2015_Female</text></svg>