<svg xmlns="http://www.w3.org/2000/svg" id="SVG" width="600" height="560"><text x="290" y="50" style="font-size: 17px; font-family: sans-seirf; stroke: black; text-anchor: middle;">(Group  Grade)  Score Confidence Interval Graph</text><text x="290" y="530" style="font-size: 12px; font-family: sans-seirf; stroke: black; text-anchor: middle;">Score</text><text x="520" y="130" style="font-size: 12px; font-family: sans-seirf; stroke: rgb(0, 85, 255); text-anchor: start;">Group 1</text><line x1="80" x2="500" y1="80" y2="80" style="stroke: black;"></line><g transform="translate(80,480)" fill="none" font-size="10" font-family="sans-serif" text-anchor="middle"><path class="domain" stroke="#000" d="M0.5,6V0.5H420.5V6"></path><g class="tick" opacity="1" transform="translate(13.54442843700427,0)"><line stroke="#000" y2="6"></line><text fill="#000" y="9" dy="0.71em">60</text></g><g class="tick" opacity="1" transform="translate(67.8962135911886,0)"><line stroke="#000" y2="6"></line><text fill="#000" y="9" dy="0.71em">65</text></g><g class="tick" opacity="1" transform="translate(122.24799874537293,0)"><line stroke="#000" y2="6"></line><text fill="#000" y="9" dy="0.71em">70</text></g><g class="tick" opacity="1" transform="translate(176.59978389955725,0)"><line stroke="#000" y2="6"></line><text fill="#000" y="9" dy="0.71em">75</text></g><g class="tick" opacity="1" transform="translate(230.9515690537416,0)"><line stroke="#000" y2="6"></line><text fill="#000" y="9" dy="0.71em">80</text></g><g class="tick" opacity="1" transform="translate(285.3033542079259,0)"><line stroke="#000" y2="6"></line><text fill="#000" y="9" dy="0.71em">85</text></g><g class="tick" opacity="1" transform="translate(339.6551393621103,0)"><line stroke="#000" y2="6"></line><text fill="#000" y="9" dy="0.71em">90</text></g><g class="tick" opacity="1" transform="translate(394.0069245162946,0)"><line stroke="#000" y2="6"></line><text fill="#000" y="9" dy="0.71em">95</text></g></g><line x1="80" x2="80" y1="80" y2="480" style="stroke: black;"></line><line x1="500" x2="500" y1="80" y2="480" style="stroke: black;"></line><circle class="circle" tooltip="circle" stroke="black" cx="190.87764171453605" cy="172" r="4" style="fill: rgb(0, 85, 255);"></circle><circle class="circle" tooltip="circle" stroke="black" cx="223.48871280704665" cy="172" r="4" style="fill: rgb(0, 85, 255);"></circle><circle class="circle" tooltip="circle" stroke="black" cx="256.0997838995572" cy="172" r="4" style="fill: rgb(0, 85, 255);"></circle><circle class="circle" tooltip="circle" stroke="black" cx="321.3219260845785" cy="172" r="4" style="fill: rgb(0, 85, 255);"></circle><circle class="circle" tooltip="circle" stroke="black" cx="343.0626401462522" cy="172" r="4" style="fill: rgb(0, 85, 255);"></circle><circle class="circle" tooltip="circle" stroke="black" cx="419.1551393621103" cy="172" r="4" style="fill: rgb(0, 85, 255);"></circle><text x="520" y="230" style="font-size: 12px; font-family: sans-seirf; stroke: rgb(255, 69, 0); text-anchor: start;">Group 2</text><line x1="80" x2="500" y1="180" y2="180" style="stroke: black;"></line><g transform="translate(80,480)" fill="none" font-size="10" font-family="sans-serif" text-anchor="middle"><path class="domain" stroke="#000" d="M0.5,6V0.5H420.5V6"></path><g class="tick" opacity="1" transform="translate(13.54442843700427,0)"><line stroke="#000" y2="6"></line><text fill="#000" y="9" dy="0.71em">60</text></g><g class="tick" opacity="1" transform="translate(67.8962135911886,0)"><line stroke="#000" y2="6"></line><text fill="#000" y="9" dy="0.71em">65</text></g><g class="tick" opacity="1" transform="translate(122.24799874537293,0)"><line stroke="#000" y2="6"></line><text fill="#000" y="9" dy="0.71em">70</text></g><g class="tick" opacity="1" transform="translate(176.59978389955725,0)"><line stroke="#000" y2="6"></line><text fill="#000" y="9" dy="0.71em">75</text></g><g class="tick" opacity="1" transform="translate(230.9515690537416,0)"><line stroke="#000" y2="6"></line><text fill="#000" y="9" dy="0.71em">80</text></g><g class="tick" opacity="1" transform="translate(285.3033542079259,0)"><line stroke="#000" y2="6"></line><text fill="#000" y="9" dy="0.71em">85</text></g><g class="tick" opacity="1" transform="translate(339.6551393621103,0)"><line stroke="#000" y2="6"></line><text fill="#000" y="9" dy="0.71em">90</text></g><g class="tick" opacity="1" transform="translate(394.0069245162946,0)"><line stroke="#000" y2="6"></line><text fill="#000" y="9" dy="0.71em">95</text></g></g><line x1="80" x2="80" y1="80" y2="480" style="stroke: black;"></line><line x1="500" x2="500" y1="80" y2="480" style="stroke: black;"></line><circle class="circle" tooltip="circle" stroke="black" cx="147.3962135911886" cy="272" r="4" style="fill: rgb(255, 69, 0);"></circle><circle class="circle" tooltip="circle" stroke="black" cx="190.87764171453605" cy="272" r="4" style="fill: rgb(255, 69, 0);"></circle><circle class="circle" tooltip="circle" stroke="black" cx="234.3590698378835" cy="272" r="4" style="fill: rgb(255, 69, 0);"></circle><circle class="circle" tooltip="circle" stroke="black" cx="299.58121202290477" cy="272" r="4" style="fill: rgb(255, 69, 0);"></circle><circle class="circle" tooltip="circle" stroke="black" cx="310.4515690537416" cy="272" r="4" style="fill: rgb(255, 69, 0);"></circle><circle class="circle" tooltip="circle" stroke="black" cx="321.3219260845785" cy="272" r="4" style="fill: rgb(255, 69, 0);"></circle><text x="520" y="330" style="font-size: 12px; font-family: sans-seirf; stroke: rgb(0, 170, 0); text-anchor: start;">Group 3</text><line x1="80" x2="500" y1="280" y2="280" style="stroke: black;"></line><g transform="translate(80,480)" fill="none" font-size="10" font-family="sans-serif" text-anchor="middle"><path class="domain" stroke="#000" d="M0.5,6V0.5H420.5V6"></path><g class="tick" opacity="1" transform="translate(13.54442843700427,0)"><line stroke="#000" y2="6"></line><text fill="#000" y="9" dy="0.71em">60</text></g><g class="tick" opacity="1" transform="translate(67.8962135911886,0)"><line stroke="#000" y2="6"></line><text fill="#000" y="9" dy="0.71em">65</text></g><g class="tick" opacity="1" transform="translate(122.24799874537293,0)"><line stroke="#000" y2="6"></line><text fill="#000" y="9" dy="0.71em">70</text></g><g class="tick" opacity="1" transform="translate(176.59978389955725,0)"><line stroke="#000" y2="6"></line><text fill="#000" y="9" dy="0.71em">75</text></g><g class="tick" opacity="1" transform="translate(230.9515690537416,0)"><line stroke="#000" y2="6"></line><text fill="#000" y="9" dy="0.71em">80</text></g><g class="tick" opacity="1" transform="translate(285.3033542079259,0)"><line stroke="#000" y2="6"></line><text fill="#000" y="9" dy="0.71em">85</text></g><g class="tick" opacity="1" transform="translate(339.6551393621103,0)"><line stroke="#000" y2="6"></line><text fill="#000" y="9" dy="0.71em">90</text></g><g class="tick" opacity="1" transform="translate(394.0069245162946,0)"><line stroke="#000" y2="6"></line><text fill="#000" y="9" dy="0.71em">95</text></g></g><line x1="80" x2="80" y1="80" y2="480" style="stroke: black;"></line><line x1="500" x2="500" y1="80" y2="480" style="stroke: black;"></line><circle class="circle" tooltip="circle" stroke="black" cx="114.785142498678" cy="372" r="4" style="fill: rgb(0, 170, 0);"></circle><circle class="circle" tooltip="circle" stroke="black" cx="169.13692765286234" cy="372" r="4" style="fill: rgb(0, 170, 0);"></circle><circle class="circle" tooltip="circle" stroke="black" cx="223.48871280704665" cy="372" r="4" style="fill: rgb(0, 170, 0);"></circle><circle class="circle" tooltip="circle" stroke="black" cx="266.9701409303941" cy="372" r="4" style="fill: rgb(0, 170, 0);"></circle><circle class="circle" tooltip="circle" stroke="black" cx="310.4515690537416" cy="372" r="4" style="fill: rgb(0, 170, 0);"></circle><text x="520" y="430" style="font-size: 12px; font-family: sans-seirf; stroke: rgb(255, 228, 0); text-anchor: start;">Group 4</text><line x1="80" x2="500" y1="380" y2="380" style="stroke: black;"></line><g transform="translate(80,480)" fill="none" font-size="10" font-family="sans-serif" text-anchor="middle"><path class="domain" stroke="#000" d="M0.5,6V0.5H420.5V6"></path><g class="tick" opacity="1" transform="translate(13.54442843700427,0)"><line stroke="#000" y2="6"></line><text fill="#000" y="9" dy="0.71em">60</text></g><g class="tick" opacity="1" transform="translate(67.8962135911886,0)"><line stroke="#000" y2="6"></line><text fill="#000" y="9" dy="0.71em">65</text></g><g class="tick" opacity="1" transform="translate(122.24799874537293,0)"><line stroke="#000" y2="6"></line><text fill="#000" y="9" dy="0.71em">70</text></g><g class="tick" opacity="1" transform="translate(176.59978389955725,0)"><line stroke="#000" y2="6"></line><text fill="#000" y="9" dy="0.71em">75</text></g><g class="tick" opacity="1" transform="translate(230.9515690537416,0)"><line stroke="#000" y2="6"></line><text fill="#000" y="9" dy="0.71em">80</text></g><g class="tick" opacity="1" transform="translate(285.3033542079259,0)"><line stroke="#000" y2="6"></line><text fill="#000" y="9" dy="0.71em">85</text></g><g class="tick" opacity="1" transform="translate(339.6551393621103,0)"><line stroke="#000" y2="6"></line><text fill="#000" y="9" dy="0.71em">90</text></g><g class="tick" opacity="1" transform="translate(394.0069245162946,0)"><line stroke="#000" y2="6"></line><text fill="#000" y="9" dy="0.71em">95</text></g></g><line x1="80" x2="80" y1="80" y2="480" style="stroke: black;"></line><line x1="500" x2="500" y1="80" y2="480" style="stroke: black;"></line><circle class="circle" tooltip="circle" stroke="black" cx="299.58121202290477" cy="472" r="4" style="fill: rgb(255, 228, 0);"></circle><circle class="circle" tooltip="circle" stroke="black" cx="397.4144253004365" cy="472" r="4" style="fill: rgb(255, 228, 0);"></circle><circle class="circle" tooltip="circle" stroke="black" cx="408.2847823312734" cy="472" r="4" style="fill: rgb(255, 228, 0);"></circle><circle class="circle" tooltip="circle" stroke="black" cx="462.6365674854577" cy="472" r="4" style="fill: rgb(255, 228, 0);"></circle><line class="mean" x1="292.33430733568014" y1="85" x2="292.33430733568014" y2="180" style="stroke: rgb(255, 69, 0);"></line><text class="mean" x="297.33430733568014" y="130" style="text-anchor: start; font-size: 9px; font-family: sans-serif; stroke: rgb(255, 69, 0);">x̄=78.33</text><text class="mean" x="485" y="95" style="text-anchor: end; font-size: 9px; font-family: sans-serif; stroke: rgb(0, 85, 255);">n=6</text><text class="mean" x="490" y="110" style="text-anchor: end; font-size: 9px; font-family: sans-serif; stroke: rgb(0, 85, 255);">s=7.79</text><line class="mean" x1="250.6646053841388" y1="185" x2="250.6646053841388" y2="280" style="stroke: rgb(255, 69, 0);"></line><text class="mean" x="255.6646053841388" y="230" style="text-anchor: start; font-size: 9px; font-family: sans-serif; stroke: rgb(255, 69, 0);">x̄=74.50</text><text class="mean" x="485" y="195" style="text-anchor: end; font-size: 9px; font-family: sans-serif; stroke: rgb(0, 85, 255);">n=6</text><text class="mean" x="490" y="210" style="text-anchor: end; font-size: 9px; font-family: sans-serif; stroke: rgb(0, 85, 255);">s=6.57</text><line class="mean" x1="216.9664985885446" y1="285" x2="216.9664985885446" y2="380" style="stroke: rgb(255, 69, 0);"></line><text class="mean" x="221.9664985885446" y="330" style="text-anchor: start; font-size: 9px; font-family: sans-serif; stroke: rgb(255, 69, 0);">x̄=71.40</text><text class="mean" x="485" y="295" style="text-anchor: end; font-size: 9px; font-family: sans-serif; stroke: rgb(0, 85, 255);">n=5</text><text class="mean" x="490" y="310" style="text-anchor: end; font-size: 9px; font-family: sans-serif; stroke: rgb(0, 85, 255);">s=7.13</text><line class="mean" x1="391.9792467850181" y1="385" x2="391.9792467850181" y2="480" style="stroke: rgb(255, 69, 0);"></line><text class="mean" x="396.9792467850181" y="430" style="text-anchor: start; font-size: 9px; font-family: sans-serif; stroke: rgb(255, 69, 0);">x̄=87.50</text><text class="mean" x="485" y="395" style="text-anchor: end; font-size: 9px; font-family: sans-serif; stroke: rgb(0, 85, 255);">n=4</text><text class="mean" x="490" y="410" style="text-anchor: end; font-size: 9px; font-family: sans-serif; stroke: rgb(0, 85, 255);">s=6.24</text><circle class="std" cx="292.33430733568014" cy="135" r="1" style="fill: green;"></circle><line class="std" x1="203.480777737391" y1="135" x2="292.33430733568014" y2="135" style="stroke: yellowgreen;"></line><line class="std" x1="381.1878369339692" y1="135" x2="292.33430733568014" y2="135" style="stroke: yellowgreen;"></line><circle class="std" cx="203.480777737391" cy="135" r="1" style="fill: yellowgreen;"></circle><circle class="std" cx="381.1878369339692" cy="135" r="1" style="fill: yellowgreen;"></circle><text class="std" x="203.480777737391" y="145" style="text-anchor: middle; font-size: 9px; font-family: sans-serif; stroke: green;">95% CI</text><circle class="std" cx="250.6646053841388" cy="235" r="1" style="fill: green;"></circle><line class="std" x1="175.77211837614377" y1="235" x2="250.6646053841388" y2="235" style="stroke: yellowgreen;"></line><line class="std" x1="325.5570923921339" y1="235" x2="250.6646053841388" y2="235" style="stroke: yellowgreen;"></line><circle class="std" cx="175.77211837614377" cy="235" r="1" style="fill: yellowgreen;"></circle><circle class="std" cx="325.5570923921339" cy="235" r="1" style="fill: yellowgreen;"></circle><text class="std" x="175.77211837614377" y="245" style="text-anchor: middle; font-size: 9px; font-family: sans-serif; stroke: green;">95% CI</text><circle class="std" cx="216.9664985885446" cy="335" r="1" style="fill: green;"></circle><line class="std" x1="120.76546168506937" y1="335" x2="216.9664985885446" y2="335" style="stroke: yellowgreen;"></line><line class="std" x1="313.1675354920199" y1="335" x2="216.9664985885446" y2="335" style="stroke: yellowgreen;"></line><circle class="std" cx="120.76546168506937" cy="335" r="1" style="fill: yellowgreen;"></circle><circle class="std" cx="313.1675354920199" cy="335" r="1" style="fill: yellowgreen;"></circle><text class="std" x="120.76546168506937" y="345" style="text-anchor: middle; font-size: 9px; font-family: sans-serif; stroke: green;">95% CI</text><circle class="std" cx="391.9792467850181" cy="435" r="1" style="fill: green;"></circle><line class="std" x1="283.9584935700361" y1="435" x2="391.9792467850181" y2="435" style="stroke: yellowgreen;"></line><line class="std" x1="500" y1="435" x2="391.9792467850181" y2="435" style="stroke: yellowgreen;"></line><circle class="std" cx="283.9584935700361" cy="435" r="1" style="fill: yellowgreen;"></circle><circle class="std" cx="500" cy="435" r="1" style="fill: yellowgreen;"></circle><text class="std" x="283.9584935700361" y="445" style="text-anchor: middle; font-size: 9px; font-family: sans-serif; stroke: green;">95% CI</text></svg>