<svg xmlns="http://www.w3.org/2000/svg" id="SVG" width="600" height="560"><text x="290" y="50" style="font-size: 17px; font-family: sans-seirf; stroke: black; text-anchor: middle;"> Bar Graph</text><text x="290" y="530" style="font-size: 12px; font-family: sans-seirf; stroke: black; text-anchor: middle;">Gender</text><text x="10" y="95" transform="rotate(-90 30 100)" style="font-size: 12px; font-family: sans-seirf; stroke: black; text-anchor: end;">Frequency</text><g transform="translate(80,80)" fill="none" font-size="10" font-family="sans-serif" text-anchor="end"><path class="domain" stroke="#000" d="M-6,200.5H0.5V0.5H-6"></path><g class="tick" opacity="1" transform="translate(0,200.5)"><line stroke="#000" x2="-6"></line><text fill="#000" x="-9" dy="0.32em">0</text></g><g class="tick" opacity="1" transform="translate(0,181.45238095238096)"><line stroke="#000" x2="-6"></line><text fill="#000" x="-9" dy="0.32em">2</text></g><g class="tick" opacity="1" transform="translate(0,162.4047619047619)"><line stroke="#000" x2="-6"></line><text fill="#000" x="-9" dy="0.32em">4</text></g><g class="tick" opacity="1" transform="translate(0,143.35714285714286)"><line stroke="#000" x2="-6"></line><text fill="#000" x="-9" dy="0.32em">6</text></g><g class="tick" opacity="1" transform="translate(0,124.30952380952381)"><line stroke="#000" x2="-6"></line><text fill="#000" x="-9" dy="0.32em">8</text></g><g class="tick" opacity="1" transform="translate(0,105.26190476190477)"><line stroke="#000" x2="-6"></line><text fill="#000" x="-9" dy="0.32em">10</text></g><g class="tick" opacity="1" transform="translate(0,86.21428571428572)"><line stroke="#000" x2="-6"></line><text fill="#000" x="-9" dy="0.32em">12</text></g><g class="tick" opacity="1" transform="translate(0,67.16666666666669)"><line stroke="#000" x2="-6"></line><text fill="#000" x="-9" dy="0.32em">14</text></g><g class="tick" opacity="1" transform="translate(0,48.11904761904762)"><line stroke="#000" x2="-6"></line><text fill="#000" x="-9" dy="0.32em">16</text></g><g class="tick" opacity="1" transform="translate(0,29.071428571428584)"><line stroke="#000" x2="-6"></line><text fill="#000" x="-9" dy="0.32em">18</text></g><g class="tick" opacity="1" transform="translate(0,10.023809523809547)"><line stroke="#000" x2="-6"></line><text fill="#000" x="-9" dy="0.32em">20</text></g></g><g transform="translate(80,295)" fill="none" font-size="10" font-family="sans-serif" text-anchor="end"><path class="domain" stroke="#000" d="M-6,200.5H0.5V0.5H-6"></path><g class="tick" opacity="1" transform="translate(0,190.97619047619045)"><line stroke="#000" x2="-6"></line><text fill="#000" x="-9" dy="0.32em">20</text></g><g class="tick" opacity="1" transform="translate(0,171.92857142857142)"><line stroke="#000" x2="-6"></line><text fill="#000" x="-9" dy="0.32em">18</text></g><g class="tick" opacity="1" transform="translate(0,152.88095238095238)"><line stroke="#000" x2="-6"></line><text fill="#000" x="-9" dy="0.32em">16</text></g><g class="tick" opacity="1" transform="translate(0,133.83333333333331)"><line stroke="#000" x2="-6"></line><text fill="#000" x="-9" dy="0.32em">14</text></g><g class="tick" opacity="1" transform="translate(0,114.78571428571428)"><line stroke="#000" x2="-6"></line><text fill="#000" x="-9" dy="0.32em">12</text></g><g class="tick" opacity="1" transform="translate(0,95.73809523809523)"><line stroke="#000" x2="-6"></line><text fill="#000" x="-9" dy="0.32em">10</text></g><g class="tick" opacity="1" transform="translate(0,76.69047619047619)"><line stroke="#000" x2="-6"></line><text fill="#000" x="-9" dy="0.32em">8</text></g><g class="tick" opacity="1" transform="translate(0,57.64285714285714)"><line stroke="#000" x2="-6"></line><text fill="#000" x="-9" dy="0.32em">6</text></g><g class="tick" opacity="1" transform="translate(0,38.595238095238095)"><line stroke="#000" x2="-6"></line><text fill="#000" x="-9" dy="0.32em">4</text></g><g class="tick" opacity="1" transform="translate(0,19.547619047619047)"><line stroke="#000" x2="-6"></line><text fill="#000" x="-9" dy="0.32em">2</text></g><g class="tick" opacity="1" transform="translate(0,0.5)"><line stroke="#000" x2="-6"></line><text fill="#000" x="-9" dy="0.32em">0</text></g></g><text x="185" y="295" transform="rotate(0,185,295)  " style="text-anchor: middle; font-family: sans-serif; font-size: 8pt;">Male</text><text x="395" y="295" transform="rotate(0,395,295)  " style="text-anchor: middle; font-family: sans-serif; font-size: 8pt;">Female</text><line x1="80" x2="80" y1="80" y2="280" style="stroke: black;"></line><line x1="80" x2="80" y1="305" y2="505" style="stroke: black;"></line><line x1="80" x2="500" y1="80" y2="80" style="stroke: black;"></line><line x1="80" x2="500" y1="280" y2="280" style="stroke: black;"></line><line x1="80" x2="500" y1="305" y2="305" style="stroke: black;"></line><line x1="80" x2="500" y1="505" y2="505" style="stroke: black;"></line><line x1="500" x2="500" y1="80" y2="280" style="stroke: black;"></line><line x1="500" x2="500" y1="305" y2="505" style="stroke: black;"></line><rect x="515" y="175" width="8" height="8" style="fill: rgb(0, 85, 255);"></rect><text x="530" y="185" style="font-size: 12px; font-family: sans-seirf; stroke: rgb(0, 85, 255); text-anchor: start;">5-1</text><rect class="bar" height="152.38095238095238" width="126" x="122" y="127.61904761904762" style="fill: rgb(0, 85, 255);"></rect><rect class="bar" height="133.33333333333334" width="126" x="332" y="146.66666666666666" style="fill: rgb(0, 85, 255);"></rect><rect x="515" y="400" width="8" height="8" style="fill: rgb(255, 69, 0);"></rect><text x="530" y="410" style="font-size: 12px; font-family: sans-seirf; stroke: rgb(255, 69, 0); text-anchor: start;">5-2</text><rect class="bar" height="114.28571428571428" width="126" x="122" y="305" style="fill: rgb(255, 69, 0);"></rect><rect class="bar" height="171.42857142857142" width="126" x="332" y="305" style="fill: rgb(255, 69, 0);"></rect></svg>