<svg xmlns="http://www.w3.org/2000/svg" id="SVG" width="600" height="560" xlink="http://www.w3.org/1999/xlink"><text x="290" y="50" style="font-size: 17px; font-family: sans-seirf; stroke: black; text-anchor: middle;">(Group  HotDog)   Calorie  Histogram</text><g class="axis" transform="translate(80, 80) " fill="none" font-size="10" font-family="sans-serif" text-anchor="end"><path class="domain" stroke="#000" d="M-6,133.83333333333334H0.5V0.5H-6"></path><g class="tick" opacity="1" transform="translate(0,133.83333333333334)"><line stroke="#000" x2="-6"></line><text fill="#000" x="-9" dy="0.32em">0</text></g><g class="tick" opacity="1" transform="translate(0,117.16666666666667)"><line stroke="#000" x2="-6"></line><text fill="#000" x="-9" dy="0.32em">1</text></g><g class="tick" opacity="1" transform="translate(0,100.5)"><line stroke="#000" x2="-6"></line><text fill="#000" x="-9" dy="0.32em">2</text></g><g class="tick" opacity="1" transform="translate(0,83.83333333333334)"><line stroke="#000" x2="-6"></line><text fill="#000" x="-9" dy="0.32em">3</text></g><g class="tick" opacity="1" transform="translate(0,67.16666666666667)"><line stroke="#000" x2="-6"></line><text fill="#000" x="-9" dy="0.32em">4</text></g><g class="tick" opacity="1" transform="translate(0,50.5)"><line stroke="#000" x2="-6"></line><text fill="#000" x="-9" dy="0.32em">5</text></g><g class="tick" opacity="1" transform="translate(0,33.83333333333334)"><line stroke="#000" x2="-6"></line><text fill="#000" x="-9" dy="0.32em">6</text></g><g class="tick" opacity="1" transform="translate(0,17.16666666666667)"><line stroke="#000" x2="-6"></line><text fill="#000" x="-9" dy="0.32em">7</text></g><g class="tick" opacity="1" transform="translate(0,0.5)"><line stroke="#000" x2="-6"></line><text fill="#000" x="-9" dy="0.32em">8</text></g></g><g class="axis" transform="translate(80, 213.33333333333334) " fill="none" font-size="10" font-family="sans-serif" text-anchor="end"><path class="domain" stroke="#000" d="M-6,133.83333333333334H0.5V0.5H-6"></path><g class="tick" opacity="1" transform="translate(0,133.83333333333334)"><line stroke="#000" x2="-6"></line><text fill="#000" x="-9" dy="0.32em">0</text></g><g class="tick" opacity="1" transform="translate(0,117.16666666666667)"><line stroke="#000" x2="-6"></line><text fill="#000" x="-9" dy="0.32em">1</text></g><g class="tick" opacity="1" transform="translate(0,100.5)"><line stroke="#000" x2="-6"></line><text fill="#000" x="-9" dy="0.32em">2</text></g><g class="tick" opacity="1" transform="translate(0,83.83333333333334)"><line stroke="#000" x2="-6"></line><text fill="#000" x="-9" dy="0.32em">3</text></g><g class="tick" opacity="1" transform="translate(0,67.16666666666667)"><line stroke="#000" x2="-6"></line><text fill="#000" x="-9" dy="0.32em">4</text></g><g class="tick" opacity="1" transform="translate(0,50.5)"><line stroke="#000" x2="-6"></line><text fill="#000" x="-9" dy="0.32em">5</text></g><g class="tick" opacity="1" transform="translate(0,33.83333333333334)"><line stroke="#000" x2="-6"></line><text fill="#000" x="-9" dy="0.32em">6</text></g><g class="tick" opacity="1" transform="translate(0,17.16666666666667)"><line stroke="#000" x2="-6"></line><text fill="#000" x="-9" dy="0.32em">7</text></g><g class="tick" opacity="1" transform="translate(0,0.5)"><line stroke="#000" x2="-6"></line><text fill="#000" x="-9" dy="0.32em">8</text></g></g><g class="axis" transform="translate(80, 346.6666666666667) " fill="none" font-size="10" font-family="sans-serif" text-anchor="end"><path class="domain" stroke="#000" d="M-6,133.83333333333334H0.5V0.5H-6"></path><g class="tick" opacity="1" transform="translate(0,133.83333333333334)"><line stroke="#000" x2="-6"></line><text fill="#000" x="-9" dy="0.32em">0</text></g><g class="tick" opacity="1" transform="translate(0,117.16666666666667)"><line stroke="#000" x2="-6"></line><text fill="#000" x="-9" dy="0.32em">1</text></g><g class="tick" opacity="1" transform="translate(0,100.5)"><line stroke="#000" x2="-6"></line><text fill="#000" x="-9" dy="0.32em">2</text></g><g class="tick" opacity="1" transform="translate(0,83.83333333333334)"><line stroke="#000" x2="-6"></line><text fill="#000" x="-9" dy="0.32em">3</text></g><g class="tick" opacity="1" transform="translate(0,67.16666666666667)"><line stroke="#000" x2="-6"></line><text fill="#000" x="-9" dy="0.32em">4</text></g><g class="tick" opacity="1" transform="translate(0,50.5)"><line stroke="#000" x2="-6"></line><text fill="#000" x="-9" dy="0.32em">5</text></g><g class="tick" opacity="1" transform="translate(0,33.83333333333334)"><line stroke="#000" x2="-6"></line><text fill="#000" x="-9" dy="0.32em">6</text></g><g class="tick" opacity="1" transform="translate(0,17.16666666666667)"><line stroke="#000" x2="-6"></line><text fill="#000" x="-9" dy="0.32em">7</text></g><g class="tick" opacity="1" transform="translate(0,0.5)"><line stroke="#000" x2="-6"></line><text fill="#000" x="-9" dy="0.32em">8</text></g></g><line x1="500" x2="500" y1="80" y2="480" style="stroke: black;"></line><line x1="80" x2="500" y1="80" y2="80" style="stroke: black;"></line><line x1="80" x2="500" y1="213.33333333333334" y2="213.33333333333334" style="stroke: black;"></line><line x1="80" x2="500" y1="346.6666666666667" y2="346.6666666666667" style="stroke: black;"></line><line x1="80" x2="500" y1="480" y2="480" style="stroke: black;"></line><line x1="80" x2="80" y1="480" y2="485" style="stroke: black;"></line><text class="myaxis" x="80" y="500" style="text-anchor: middle; font-family: sans-serif; font-size: 7px; stroke: rgb(0, 85, 255);">70.43</text><line x1="126.66666666666663" x2="126.66666666666663" y1="480" y2="485" style="stroke: black;"></line><text class="myaxis" x="126.66666666666663" y="500" style="text-anchor: middle; font-family: sans-serif; font-size: 7px; stroke: rgb(0, 85, 255);">86.00</text><line x1="173.33333333333326" x2="173.33333333333326" y1="480" y2="485" style="stroke: black;"></line><text class="myaxis" x="173.33333333333326" y="500" style="text-anchor: middle; font-family: sans-serif; font-size: 7px; stroke: rgb(0, 85, 255);">101.57</text><line x1="219.9999999999999" x2="219.9999999999999" y1="480" y2="485" style="stroke: black;"></line><text class="myaxis" x="219.9999999999999" y="500" style="text-anchor: middle; font-family: sans-serif; font-size: 7px; stroke: rgb(0, 85, 255);">117.14</text><line x1="266.6666666666666" x2="266.6666666666666" y1="480" y2="485" style="stroke: black;"></line><text class="myaxis" x="266.6666666666666" y="500" style="text-anchor: middle; font-family: sans-serif; font-size: 7px; stroke: rgb(0, 85, 255);">132.71</text><line x1="313.33333333333326" x2="313.33333333333326" y1="480" y2="485" style="stroke: black;"></line><text class="myaxis" x="313.33333333333326" y="500" style="text-anchor: middle; font-family: sans-serif; font-size: 7px; stroke: rgb(0, 85, 255);">148.29</text><line x1="359.99999999999994" x2="359.99999999999994" y1="480" y2="485" style="stroke: black;"></line><text class="myaxis" x="359.99999999999994" y="500" style="text-anchor: middle; font-family: sans-serif; font-size: 7px; stroke: rgb(0, 85, 255);">163.86</text><line x1="406.6666666666666" x2="406.6666666666666" y1="480" y2="485" style="stroke: black;"></line><text class="myaxis" x="406.6666666666666" y="500" style="text-anchor: middle; font-family: sans-serif; font-size: 7px; stroke: rgb(0, 85, 255);">179.43</text><line x1="453.33333333333326" x2="453.33333333333326" y1="480" y2="485" style="stroke: black;"></line><text class="myaxis" x="453.33333333333326" y="500" style="text-anchor: middle; font-family: sans-serif; font-size: 7px; stroke: rgb(0, 85, 255);">195.00</text><line x1="500" x2="500" y1="480" y2="485" style="stroke: black;"></line><text class="myaxis" x="500" y="500" style="text-anchor: middle; font-family: sans-serif; font-size: 7px; stroke: rgb(0, 85, 255);">210.57</text><text x="290" y="530" style="font-size: 12px; font-family: sans-seirf; stroke: black; text-anchor: middle;"> Calorie</text><text x="25" y="95" transform="rotate(-90 30 100)" style="font-size: 12px; font-family: sans-seirf; stroke: black; text-anchor: end;">Frequency</text><text x="520" y="146.66666666666669" style="font-size: 12px; font-family: sans-seirf; stroke: rgb(0, 85, 255); text-anchor: start;">Group 1</text><rect class="bar" x="80" width="46.66666666666664" height="0" y="213.33333333333334" style="fill: rgb(0, 85, 255); stroke: black; stroke-width: 1px;"></rect><rect class="bar" x="126.66666666666663" width="46.66666666666664" height="0" y="213.33333333333334" style="fill: rgb(0, 85, 255); stroke: black; stroke-width: 1px;"></rect><rect class="bar" x="173.33333333333326" width="46.66666666666664" height="16.666666666666668" y="196.66666666666669" style="fill: rgb(0, 85, 255); stroke: black; stroke-width: 1px;"></rect><rect class="bar" x="219.9999999999999" width="46.66666666666664" height="33.333333333333336" y="180" style="fill: rgb(0, 85, 255); stroke: black; stroke-width: 1px;"></rect><rect class="bar" x="266.6666666666666" width="46.66666666666664" height="66.66666666666667" y="146.66666666666669" style="fill: rgb(0, 85, 255); stroke: black; stroke-width: 1px;"></rect><rect class="bar" x="313.33333333333326" width="46.66666666666664" height="100" y="113.33333333333334" style="fill: rgb(0, 85, 255); stroke: black; stroke-width: 1px;"></rect><rect class="bar" x="359.99999999999994" width="46.66666666666664" height="33.333333333333336" y="180" style="fill: rgb(0, 85, 255); stroke: black; stroke-width: 1px;"></rect><rect class="bar" x="406.6666666666666" width="46.66666666666664" height="83.33333333333334" y="130" style="fill: rgb(0, 85, 255); stroke: black; stroke-width: 1px;"></rect><rect class="bar" x="453.33333333333326" width="46.66666666666664" height="0" y="213.33333333333334" style="fill: rgb(0, 85, 255); stroke: black; stroke-width: 1px;"></rect><rect class="bar" x="500" width="46.66666666666664" height="0" y="213.33333333333334" style="fill: rgb(0, 85, 255); stroke: black; stroke-width: 1px;"></rect><text x="520" y="280" style="font-size: 12px; font-family: sans-seirf; stroke: rgb(255, 69, 0); text-anchor: start;">Group 2</text><rect class="bar" x="80" width="46.66666666666664" height="0" y="346.6666666666667" style="fill: rgb(255, 69, 0); stroke: black; stroke-width: 1px;"></rect><rect class="bar" x="126.66666666666663" width="46.66666666666664" height="0" y="346.6666666666667" style="fill: rgb(255, 69, 0); stroke: black; stroke-width: 1px;"></rect><rect class="bar" x="173.33333333333326" width="46.66666666666664" height="16.666666666666668" y="330" style="fill: rgb(255, 69, 0); stroke: black; stroke-width: 1px;"></rect><rect class="bar" x="219.9999999999999" width="46.66666666666664" height="0" y="346.6666666666667" style="fill: rgb(255, 69, 0); stroke: black; stroke-width: 1px;"></rect><rect class="bar" x="266.6666666666666" width="46.66666666666664" height="116.66666666666667" y="230" style="fill: rgb(255, 69, 0); stroke: black; stroke-width: 1px;"></rect><rect class="bar" x="313.33333333333326" width="46.66666666666664" height="16.666666666666668" y="330" style="fill: rgb(255, 69, 0); stroke: black; stroke-width: 1px;"></rect><rect class="bar" x="359.99999999999994" width="46.66666666666664" height="66.66666666666667" y="280" style="fill: rgb(255, 69, 0); stroke: black; stroke-width: 1px;"></rect><rect class="bar" x="406.6666666666666" width="46.66666666666664" height="66.66666666666667" y="280" style="fill: rgb(255, 69, 0); stroke: black; stroke-width: 1px;"></rect><rect class="bar" x="453.33333333333326" width="46.66666666666664" height="0" y="346.6666666666667" style="fill: rgb(255, 69, 0); stroke: black; stroke-width: 1px;"></rect><rect class="bar" x="500" width="46.66666666666664" height="0" y="346.6666666666667" style="fill: rgb(255, 69, 0); stroke: black; stroke-width: 1px;"></rect><text x="520" y="413.33333333333337" style="font-size: 12px; font-family: sans-seirf; stroke: rgb(0, 170, 0); text-anchor: start;">Group 3</text><rect class="bar" x="80" width="46.66666666666664" height="0" y="480" style="fill: rgb(0, 170, 0); stroke: black; stroke-width: 1px;"></rect><rect class="bar" x="126.66666666666663" width="46.66666666666664" height="66.66666666666667" y="413.3333333333333" style="fill: rgb(0, 170, 0); stroke: black; stroke-width: 1px;"></rect><rect class="bar" x="173.33333333333326" width="46.66666666666664" height="83.33333333333334" y="396.66666666666663" style="fill: rgb(0, 170, 0); stroke: black; stroke-width: 1px;"></rect><rect class="bar" x="219.9999999999999" width="46.66666666666664" height="33.333333333333336" y="446.6666666666667" style="fill: rgb(0, 170, 0); stroke: black; stroke-width: 1px;"></rect><rect class="bar" x="266.6666666666666" width="46.66666666666664" height="83.33333333333334" y="396.66666666666663" style="fill: rgb(0, 170, 0); stroke: black; stroke-width: 1px;"></rect><rect class="bar" x="313.33333333333326" width="46.66666666666664" height="16.666666666666668" y="463.3333333333333" style="fill: rgb(0, 170, 0); stroke: black; stroke-width: 1px;"></rect><rect class="bar" x="359.99999999999994" width="46.66666666666664" height="0" y="480" style="fill: rgb(0, 170, 0); stroke: black; stroke-width: 1px;"></rect><rect class="bar" x="406.6666666666666" width="46.66666666666664" height="0" y="480" style="fill: rgb(0, 170, 0); stroke: black; stroke-width: 1px;"></rect><rect class="bar" x="453.33333333333326" width="46.66666666666664" height="0" y="480" style="fill: rgb(0, 170, 0); stroke: black; stroke-width: 1px;"></rect><rect class="bar" x="500" width="46.66666666666664" height="0" y="480" style="fill: rgb(0, 170, 0); stroke: black; stroke-width: 1px;"></rect></svg>