<svg xmlns="http://www.w3.org/2000/svg" id="SVG" width="600" height="560"><text x="310" y="45" style="font-size: 17px; font-family: sans-seirf; stroke: black; text-anchor: middle;">Standardized Residual vs Forecasting Plot</text><text x="50" y="285" transform="rotate(-90 50 280)" style="font-size: 10px; font-family: sans-seirf; stroke: black; text-anchor: middle;">Standardized Residual</text><text x="290" y="515" style="font-size: 10px; font-family: sans-seirf; stroke: black; text-anchor: middle;">Predicted Value</text><g transform="translate(100,470)" fill="none" font-size="10" font-family="sans-serif" text-anchor="middle"><path class="domain" stroke="#000" d="M0.5,6V0.5H380.5V6"></path><g class="tick" opacity="1" transform="translate(36.18443479584584,0)"><line stroke="#000" y2="6"></line><text fill="#000" y="9" dy="0.71em">0.2</text></g><g class="tick" opacity="1" transform="translate(72.5984296788497,0)"><line stroke="#000" y2="6"></line><text fill="#000" y="9" dy="0.71em">0.3</text></g><g class="tick" opacity="1" transform="translate(109.01242456185355,0)"><line stroke="#000" y2="6"></line><text fill="#000" y="9" dy="0.71em">0.4</text></g><g class="tick" opacity="1" transform="translate(145.4264194448574,0)"><line stroke="#000" y2="6"></line><text fill="#000" y="9" dy="0.71em">0.5</text></g><g class="tick" opacity="1" transform="translate(181.84041432786125,0)"><line stroke="#000" y2="6"></line><text fill="#000" y="9" dy="0.71em">0.6</text></g><g class="tick" opacity="1" transform="translate(218.2544092108651,0)"><line stroke="#000" y2="6"></line><text fill="#000" y="9" dy="0.71em">0.7</text></g><g class="tick" opacity="1" transform="translate(254.66840409386901,0)"><line stroke="#000" y2="6"></line><text fill="#000" y="9" dy="0.71em">0.8</text></g><g class="tick" opacity="1" transform="translate(291.08239897687287,0)"><line stroke="#000" y2="6"></line><text fill="#000" y="9" dy="0.71em">0.9</text></g><g class="tick" opacity="1" transform="translate(327.4963938598767,0)"><line stroke="#000" y2="6"></line><text fill="#000" y="9" dy="0.71em">1.0</text></g><g class="tick" opacity="1" transform="translate(363.9103887428806,0)"><line stroke="#000" y2="6"></line><text fill="#000" y="9" dy="0.71em">1.1</text></g></g><g transform="translate(100,90)" fill="none" font-size="10" font-family="sans-serif" text-anchor="middle"><path class="domain" stroke="#000" d="M0.5,-6V0.5H380.5V-6"></path><g class="tick" opacity="1" transform="translate(36.18443479584584,0)"><line stroke="#000" y2="-6"></line><text fill="#000" y="-9" dy="0em">0.2</text></g><g class="tick" opacity="1" transform="translate(72.5984296788497,0)"><line stroke="#000" y2="-6"></line><text fill="#000" y="-9" dy="0em">0.3</text></g><g class="tick" opacity="1" transform="translate(109.01242456185355,0)"><line stroke="#000" y2="-6"></line><text fill="#000" y="-9" dy="0em">0.4</text></g><g class="tick" opacity="1" transform="translate(145.4264194448574,0)"><line stroke="#000" y2="-6"></line><text fill="#000" y="-9" dy="0em">0.5</text></g><g class="tick" opacity="1" transform="translate(181.84041432786125,0)"><line stroke="#000" y2="-6"></line><text fill="#000" y="-9" dy="0em">0.6</text></g><g class="tick" opacity="1" transform="translate(218.2544092108651,0)"><line stroke="#000" y2="-6"></line><text fill="#000" y="-9" dy="0em">0.7</text></g><g class="tick" opacity="1" transform="translate(254.66840409386901,0)"><line stroke="#000" y2="-6"></line><text fill="#000" y="-9" dy="0em">0.8</text></g><g class="tick" opacity="1" transform="translate(291.08239897687287,0)"><line stroke="#000" y2="-6"></line><text fill="#000" y="-9" dy="0em">0.9</text></g><g class="tick" opacity="1" transform="translate(327.4963938598767,0)"><line stroke="#000" y2="-6"></line><text fill="#000" y="-9" dy="0em">1.0</text></g><g class="tick" opacity="1" transform="translate(363.9103887428806,0)"><line stroke="#000" y2="-6"></line><text fill="#000" y="-9" dy="0em">1.1</text></g></g><g transform="translate(100,90)" fill="none" font-size="10" font-family="sans-serif" text-anchor="end"><path class="domain" stroke="#000" d="M-6,380.5H0.5V0.5H-6"></path><g class="tick" opacity="1" transform="translate(0,380.5)"><line stroke="#000" x2="-6"></line><text fill="#000" x="-9" dy="0.32em">-3.0</text></g><g class="tick" opacity="1" transform="translate(0,348.8333333333333)"><line stroke="#000" x2="-6"></line><text fill="#000" x="-9" dy="0.32em">-2.5</text></g><g class="tick" opacity="1" transform="translate(0,317.1666666666667)"><line stroke="#000" x2="-6"></line><text fill="#000" x="-9" dy="0.32em">-2.0</text></g><g class="tick" opacity="1" transform="translate(0,285.5)"><line stroke="#000" x2="-6"></line><text fill="#000" x="-9" dy="0.32em">-1.5</text></g><g class="tick" opacity="1" transform="translate(0,253.83333333333334)"><line stroke="#000" x2="-6"></line><text fill="#000" x="-9" dy="0.32em">-1.0</text></g><g class="tick" opacity="1" transform="translate(0,222.16666666666666)"><line stroke="#000" x2="-6"></line><text fill="#000" x="-9" dy="0.32em">-0.5</text></g><g class="tick" opacity="1" transform="translate(0,190.5)"><line stroke="#000" x2="-6"></line><text fill="#000" x="-9" dy="0.32em">0.0</text></g><g class="tick" opacity="1" transform="translate(0,158.83333333333331)"><line stroke="#000" x2="-6"></line><text fill="#000" x="-9" dy="0.32em">0.5</text></g><g class="tick" opacity="1" transform="translate(0,127.16666666666669)"><line stroke="#000" x2="-6"></line><text fill="#000" x="-9" dy="0.32em">1.0</text></g><g class="tick" opacity="1" transform="translate(0,95.5)"><line stroke="#000" x2="-6"></line><text fill="#000" x="-9" dy="0.32em">1.5</text></g><g class="tick" opacity="1" transform="translate(0,63.833333333333314)"><line stroke="#000" x2="-6"></line><text fill="#000" x="-9" dy="0.32em">2.0</text></g><g class="tick" opacity="1" transform="translate(0,32.166666666666686)"><line stroke="#000" x2="-6"></line><text fill="#000" x="-9" dy="0.32em">2.5</text></g><g class="tick" opacity="1" transform="translate(0,0.5)"><line stroke="#000" x2="-6"></line><text fill="#000" x="-9" dy="0.32em">3.0</text></g></g><g transform="translate(480,90)" fill="none" font-size="10" font-family="sans-serif" text-anchor="start"><path class="domain" stroke="#000" d="M6,380.5H0.5V0.5H6"></path><g class="tick" opacity="1" transform="translate(0,380.5)"><line stroke="#000" x2="6"></line><text fill="#000" x="9" dy="0.32em">-3.0</text></g><g class="tick" opacity="1" transform="translate(0,348.8333333333333)"><line stroke="#000" x2="6"></line><text fill="#000" x="9" dy="0.32em">-2.5</text></g><g class="tick" opacity="1" transform="translate(0,317.1666666666667)"><line stroke="#000" x2="6"></line><text fill="#000" x="9" dy="0.32em">-2.0</text></g><g class="tick" opacity="1" transform="translate(0,285.5)"><line stroke="#000" x2="6"></line><text fill="#000" x="9" dy="0.32em">-1.5</text></g><g class="tick" opacity="1" transform="translate(0,253.83333333333334)"><line stroke="#000" x2="6"></line><text fill="#000" x="9" dy="0.32em">-1.0</text></g><g class="tick" opacity="1" transform="translate(0,222.16666666666666)"><line stroke="#000" x2="6"></line><text fill="#000" x="9" dy="0.32em">-0.5</text></g><g class="tick" opacity="1" transform="translate(0,190.5)"><line stroke="#000" x2="6"></line><text fill="#000" x="9" dy="0.32em">0.0</text></g><g class="tick" opacity="1" transform="translate(0,158.83333333333331)"><line stroke="#000" x2="6"></line><text fill="#000" x="9" dy="0.32em">0.5</text></g><g class="tick" opacity="1" transform="translate(0,127.16666666666669)"><line stroke="#000" x2="6"></line><text fill="#000" x="9" dy="0.32em">1.0</text></g><g class="tick" opacity="1" transform="translate(0,95.5)"><line stroke="#000" x2="6"></line><text fill="#000" x="9" dy="0.32em">1.5</text></g><g class="tick" opacity="1" transform="translate(0,63.833333333333314)"><line stroke="#000" x2="6"></line><text fill="#000" x="9" dy="0.32em">2.0</text></g><g class="tick" opacity="1" transform="translate(0,32.166666666666686)"><line stroke="#000" x2="6"></line><text fill="#000" x="9" dy="0.32em">2.5</text></g><g class="tick" opacity="1" transform="translate(0,0.5)"><line stroke="#000" x2="6"></line><text fill="#000" x="9" dy="0.32em">3.0</text></g></g><line x1="100" y1="280" x2="480" y2="280" style="stroke: greenyellow;"></line><circle data-sheetrowid="0" class="datapoint" r="3" cx="156.61362942103088" cy="245.11062300150263" style="stroke: black; fill: rgb(255, 69, 0);"></circle><circle data-sheetrowid="1" class="datapoint" r="3" cx="154.2857142857143" cy="238.2569874067534" style="stroke: black; fill: rgb(255, 69, 0);"></circle><circle data-sheetrowid="2" class="datapoint" r="3" cx="155.76037779422316" cy="245.17009974353107" style="stroke: black; fill: rgb(255, 69, 0);"></circle><circle data-sheetrowid="3" class="datapoint" r="3" cx="237.25386396181352" cy="294.22960505597223" style="stroke: black; fill: rgb(255, 69, 0);"></circle><circle data-sheetrowid="4" class="datapoint" r="3" cx="267.59380708230424" cy="310.4769018152341" style="stroke: black; fill: rgb(255, 69, 0);"></circle><circle data-sheetrowid="5" class="datapoint" r="3" cx="276.8883105310794" cy="311.91292781099685" style="stroke: black; fill: rgb(255, 69, 0);"></circle><circle data-sheetrowid="6" class="datapoint" r="3" cx="238.98556274801905" cy="321.68938340080695" style="stroke: black; fill: rgb(255, 69, 0);"></circle><circle data-sheetrowid="7" class="datapoint" r="3" cx="262.6809415339743" cy="312.0889958614416" style="stroke: black; fill: rgb(255, 69, 0);"></circle><circle data-sheetrowid="8" class="datapoint" r="3" cx="271.1433696684825" cy="250.37332690500992" style="stroke: black; fill: rgb(255, 69, 0);"></circle><circle data-sheetrowid="9" class="datapoint" r="3" cx="324.6248278508987" cy="366.94303618435725" style="stroke: black; fill: rgb(255, 69, 0);"></circle><circle data-sheetrowid="10" class="datapoint" r="3" cx="353.4901074628806" cy="114.31727970804536" style="stroke: black; fill: rgb(255, 69, 0);"></circle><circle data-sheetrowid="11" class="datapoint" r="3" cx="369.62268158626614" cy="352.5894293103982" style="stroke: black; fill: rgb(255, 69, 0);"></circle><circle data-sheetrowid="12" class="datapoint" r="3" cx="343.70672899130204" cy="323.86475103820237" style="stroke: black; fill: rgb(255, 69, 0);"></circle><circle data-sheetrowid="13" class="datapoint" r="3" cx="329.3058536541219" cy="310.3019904424077" style="stroke: black; fill: rgb(255, 69, 0);"></circle><circle data-sheetrowid="14" class="datapoint" r="3" cx="425.7142857142858" cy="177.33396846923387" style="stroke: black; fill: rgb(255, 69, 0);"></circle></svg>