<svg xmlns="http://www.w3.org/2000/svg" id="chart" width="600" height="400"> <text x="290" y="45" style="font-family: sans-serif; font-size: 12pt; stroke: black; text-anchor: middle;">Kruskal-Wallis Test</text><text x="290" y="60" style="font-family: sans-serif; font-size: 9pt; stroke: black; text-anchor: middle;">H₀: M₁ = M₂ = ... = Mₖ</text><text x="290" y="75" style="font-family: sans-serif; font-size: 9pt; stroke: green; text-anchor: middle;">Kruskal-Wallis H Statistic</text><g transform="translate(100,90)" fill="none" font-size="10" font-family="sans-serif" text-anchor="end"><path class="domain" stroke="#000" d="M-6,0.5H0.5V220.5H-6"></path><g class="tick" opacity="1" transform="translate(0,19.046511627907023)"><line stroke="#000" x2="-6"></line><text fill="#000" x="-9" dy="0.32em">0.045</text></g><g class="tick" opacity="1" transform="translate(0,41.43023255813955)"><line stroke="#000" x2="-6"></line><text fill="#000" x="-9" dy="0.32em">0.040</text></g><g class="tick" opacity="1" transform="translate(0,63.81395348837208)"><line stroke="#000" x2="-6"></line><text fill="#000" x="-9" dy="0.32em">0.035</text></g><g class="tick" opacity="1" transform="translate(0,86.19767441860469)"><line stroke="#000" x2="-6"></line><text fill="#000" x="-9" dy="0.32em">0.030</text></g><g class="tick" opacity="1" transform="translate(0,108.5813953488372)"><line stroke="#000" x2="-6"></line><text fill="#000" x="-9" dy="0.32em">0.025</text></g><g class="tick" opacity="1" transform="translate(0,130.96511627906978)"><line stroke="#000" x2="-6"></line><text fill="#000" x="-9" dy="0.32em">0.020</text></g><g class="tick" opacity="1" transform="translate(0,153.34883720930236)"><line stroke="#000" x2="-6"></line><text fill="#000" x="-9" dy="0.32em">0.015</text></g><g class="tick" opacity="1" transform="translate(0,175.7325581395349)"><line stroke="#000" x2="-6"></line><text fill="#000" x="-9" dy="0.32em">0.010</text></g><g class="tick" opacity="1" transform="translate(0,198.11627906976744)"><line stroke="#000" x2="-6"></line><text fill="#000" x="-9" dy="0.32em">0.005</text></g><g class="tick" opacity="1" transform="translate(0,220.5)"><line stroke="#000" x2="-6"></line><text fill="#000" x="-9" dy="0.32em">0.000</text></g></g><line x1="100" y1="310" x2="480" y2="310" style="stroke: black;"></line><text class="barname" x="102.87628865979381" y="330" transform="rotate(90,102.87628865979381,330)  " style="font-family: sans-serif; font-size: 8pt; text-anchor: middle;">0.045</text><text class="barname" x="118.54639175257732" y="330" transform="rotate(90,118.54639175257732,330)  " style="font-family: sans-serif; font-size: 8pt; text-anchor: middle;">0.336</text><text class="barname" x="134.2164948453608" y="330" transform="rotate(90,134.2164948453608,330)  " style="font-family: sans-serif; font-size: 8pt; text-anchor: middle;">0.482</text><text class="barname" x="149.88659793814432" y="330" transform="rotate(90,149.88659793814432,330)  " style="font-family: sans-serif; font-size: 8pt; text-anchor: middle;">0.700</text><text class="barname" x="165.55670103092783" y="330" transform="rotate(90,165.55670103092783,330)  " style="font-family: sans-serif; font-size: 8pt; text-anchor: middle;">1.064</text><text class="barname" x="181.22680412371133" y="330" transform="rotate(90,181.22680412371133,330)  " style="font-family: sans-serif; font-size: 8pt; text-anchor: middle;">1.209</text><text class="barname" x="196.89690721649484" y="330" transform="rotate(90,196.89690721649484,330)  " style="font-family: sans-serif; font-size: 8pt; text-anchor: middle;">1.618</text><text class="barname" x="212.56701030927834" y="330" transform="rotate(90,212.56701030927834,330)  " style="font-family: sans-serif; font-size: 8pt; text-anchor: middle;">1.791</text><text class="barname" x="228.23711340206182" y="330" transform="rotate(90,228.23711340206182,330)  " style="font-family: sans-serif; font-size: 8pt; text-anchor: middle;">2.091</text><text class="barname" x="243.90721649484533" y="330" transform="rotate(90,243.90721649484533,330)  " style="font-family: sans-serif; font-size: 8pt; text-anchor: middle;">2.300</text><text class="barname" x="259.57731958762884" y="330" transform="rotate(90,259.57731958762884,330)  " style="font-family: sans-serif; font-size: 8pt; text-anchor: middle;">2.518</text><text class="barname" x="275.24742268041234" y="330" transform="rotate(90,275.24742268041234,330)  " style="font-family: sans-serif; font-size: 8pt; text-anchor: middle;">2.882</text><text class="barname" x="290.91752577319585" y="330" transform="rotate(90,290.91752577319585,330)  " style="font-family: sans-serif; font-size: 8pt; text-anchor: middle;">3.073</text><text class="barname" x="306.58762886597935" y="330" transform="rotate(90,306.58762886597935,330)  " style="font-family: sans-serif; font-size: 8pt; text-anchor: middle;">3.391</text><text class="barname" x="322.25773195876286" y="330" transform="rotate(90,322.25773195876286,330)  " style="font-family: sans-serif; font-size: 8pt; text-anchor: middle;">3.755</text><text class="barname" x="337.92783505154637" y="330" transform="rotate(90,337.92783505154637,330)  " style="font-family: sans-serif; font-size: 8pt; text-anchor: middle;">3.836</text><text class="barname" x="353.5979381443299" y="330" transform="rotate(90,353.5979381443299,330)  " style="font-family: sans-serif; font-size: 8pt; text-anchor: middle;">4.045</text><text class="barname" x="369.2680412371134" y="330" transform="rotate(90,369.2680412371134,330)  " style="font-family: sans-serif; font-size: 8pt; text-anchor: middle;">4.382</text><text class="barname" x="384.9381443298969" y="330" transform="rotate(90,384.9381443298969,330)  " style="font-family: sans-serif; font-size: 8pt; text-anchor: middle;">4.818</text><text class="barname" x="400.6082474226804" y="330" transform="rotate(90,400.6082474226804,330)  " style="font-family: sans-serif; font-size: 8pt; text-anchor: middle;">5.109</text><text class="barname" x="416.2783505154639" y="330" transform="rotate(90,416.2783505154639,330)  " style="font-family: sans-serif; font-size: 8pt; text-anchor: middle;">5.573</text><text class="barname" x="431.9484536082474" y="330" transform="rotate(90,431.9484536082474,330)  " style="font-family: sans-serif; font-size: 8pt; text-anchor: middle;">5.982</text><text class="barname" x="447.6185567010309" y="330" transform="rotate(90,447.6185567010309,330)  " style="font-family: sans-serif; font-size: 8pt; text-anchor: middle;">6.564</text><text class="barname" x="463.2886597938144" y="330" transform="rotate(90,463.2886597938144,330)  " style="font-family: sans-serif; font-size: 8pt; text-anchor: middle;">7.000</text><rect height="72.48062015503875" width="2.611683848797251" x="100.65292096219932" y="237.51937984496124" style="fill: rgb(0, 85, 255);"></rect><rect height="59.689922480620154" width="2.611683848797251" x="104.5704467353952" y="250.31007751937983" style="fill: rgb(0, 85, 255);"></rect><rect height="132.1705426356589" width="2.611683848797251" x="108.48797250859107" y="177.8294573643411" style="fill: rgb(0, 85, 255);"></rect><rect height="72.48062015503875" width="2.611683848797251" x="112.40549828178695" y="237.51937984496124" style="fill: rgb(0, 85, 255);"></rect><rect height="132.1705426356589" width="2.611683848797251" x="116.32302405498282" y="177.8294573643411" style="fill: rgb(0, 85, 255);"></rect><rect height="119.37984496124031" width="2.611683848797251" x="120.2405498281787" y="190.6201550387597" style="fill: rgb(0, 85, 255);"></rect><rect height="119.37984496124031" width="2.611683848797251" x="124.15807560137458" y="190.6201550387597" style="fill: rgb(0, 85, 255);"></rect><rect height="51.16279069767442" width="2.611683848797251" x="128.07560137457045" y="258.83720930232556" style="fill: rgb(0, 85, 255);"></rect><rect height="61.82170542635659" width="2.611683848797251" x="131.99312714776633" y="248.17829457364343" style="fill: rgb(0, 85, 255);"></rect><rect height="115.11627906976743" width="2.611683848797251" x="135.9106529209622" y="194.88372093023258" style="fill: rgb(0, 85, 255);"></rect><rect height="29.844961240310077" width="2.611683848797251" x="139.82817869415808" y="280.15503875968994" style="fill: rgb(0, 85, 255);"></rect><rect height="89.53488372093022" width="2.611683848797251" x="143.74570446735396" y="220.46511627906978" style="fill: rgb(0, 85, 255);"></rect><rect height="106.5891472868217" width="2.611683848797251" x="147.66323024054984" y="203.41085271317831" style="fill: rgb(0, 85, 255);"></rect><rect height="106.5891472868217" width="2.611683848797251" x="151.5807560137457" y="203.41085271317831" style="fill: rgb(0, 85, 255);"></rect><rect height="119.37984496124031" width="2.611683848797251" x="155.4982817869416" y="190.6201550387597" style="fill: rgb(0, 85, 255);"></rect><rect height="49.031007751937985" width="2.611683848797251" x="159.41580756013747" y="260.968992248062" style="fill: rgb(0, 85, 255);"></rect><rect height="104.45736434108527" width="2.611683848797251" x="163.33333333333334" y="205.54263565891472" style="fill: rgb(0, 85, 255);"></rect><rect height="102.32558139534883" width="2.611683848797251" x="167.25085910652922" y="207.67441860465118" style="fill: rgb(0, 85, 255);"></rect><rect height="98.06201550387597" width="2.611683848797251" x="171.16838487972507" y="211.93798449612405" style="fill: rgb(0, 85, 255);"></rect><rect height="38.372093023255815" width="2.611683848797251" x="175.08591065292097" y="271.62790697674416" style="fill: rgb(0, 85, 255);"></rect><rect height="89.53488372093022" width="2.611683848797251" x="179.00343642611682" y="220.46511627906978" style="fill: rgb(0, 85, 255);"></rect><rect height="183.33333333333334" width="2.611683848797251" x="182.92096219931273" y="126.66666666666666" style="fill: rgb(0, 85, 255);"></rect><rect height="81.0077519379845" width="2.611683848797251" x="186.83848797250857" y="228.9922480620155" style="fill: rgb(0, 85, 255);"></rect><rect height="44.76744186046511" width="2.611683848797251" x="190.75601374570448" y="265.2325581395349" style="fill: rgb(0, 85, 255);"></rect><rect height="72.48062015503875" width="2.611683848797251" x="194.67353951890033" y="237.51937984496124" style="fill: rgb(0, 85, 255);"></rect><rect height="18.120155038759687" width="2.611683848797251" x="198.59106529209623" y="291.87984496124034" style="fill: rgb(0, 85, 255);"></rect><rect height="54.360465116279066" width="2.611683848797251" x="202.50859106529208" y="255.63953488372093" style="fill: rgb(0, 85, 255);"></rect><rect height="40.50387596899225" width="2.611683848797251" x="206.42611683848799" y="269.49612403100775" style="fill: rgb(0, 85, 255);"></rect><rect height="112.984496124031" width="2.611683848797251" x="210.34364261168383" y="197.015503875969" style="fill: rgb(0, 85, 255);"></rect><rect height="59.689922480620154" width="2.611683848797251" x="214.26116838487974" y="250.31007751937983" style="fill: rgb(0, 85, 255);"></rect><rect height="81.0077519379845" width="2.611683848797251" x="218.1786941580756" y="228.9922480620155" style="fill: rgb(0, 85, 255);"></rect><rect height="59.689922480620154" width="2.611683848797251" x="222.0962199312715" y="250.31007751937983" style="fill: rgb(0, 85, 255);"></rect><rect height="29.844961240310077" width="2.611683848797251" x="226.01374570446734" y="280.15503875968994" style="fill: rgb(0, 85, 255);"></rect><rect height="29.844961240310077" width="2.611683848797251" x="229.93127147766322" y="280.15503875968994" style="fill: rgb(0, 85, 255);"></rect><rect height="31.97674418604651" width="2.611683848797251" x="233.8487972508591" y="278.0232558139535" style="fill: rgb(0, 85, 255);"></rect><rect height="59.689922480620154" width="2.611683848797251" x="237.76632302405497" y="250.31007751937983" style="fill: rgb(0, 85, 255);"></rect><rect height="76.74418604651163" width="2.611683848797251" x="241.68384879725085" y="233.25581395348837" style="fill: rgb(0, 85, 255);"></rect><rect height="69.28294573643412" width="2.611683848797251" x="245.60137457044672" y="240.7170542635659" style="fill: rgb(0, 85, 255);"></rect><rect height="41.56976744186046" width="2.611683848797251" x="249.5189003436426" y="268.43023255813955" style="fill: rgb(0, 85, 255);"></rect><rect height="55.42635658914729" width="2.611683848797251" x="253.43642611683848" y="254.5736434108527" style="fill: rgb(0, 85, 255);"></rect><rect height="11.724806201550386" width="2.611683848797251" x="257.35395189003435" y="298.2751937984496" style="fill: rgb(0, 85, 255);"></rect><rect height="35.174418604651166" width="2.611683848797251" x="261.27147766323026" y="274.8255813953488" style="fill: rgb(0, 85, 255);"></rect><rect height="55.42635658914729" width="2.611683848797251" x="265.1890034364261" y="254.5736434108527" style="fill: rgb(0, 85, 255);"></rect><rect height="42.63565891472869" width="2.611683848797251" x="269.10652920962195" y="267.3643410852713" style="fill: rgb(0, 85, 255);"></rect><rect height="19.186046511627907" width="2.611683848797251" x="273.02405498281786" y="290.8139534883721" style="fill: rgb(0, 85, 255);"></rect><rect height="19.186046511627907" width="2.611683848797251" x="276.94158075601376" y="290.8139534883721" style="fill: rgb(0, 85, 255);"></rect><rect height="89.53488372093022" width="2.611683848797251" x="280.8591065292096" y="220.46511627906978" style="fill: rgb(0, 85, 255);"></rect><rect height="38.372093023255815" width="2.611683848797251" x="284.77663230240546" y="271.62790697674416" style="fill: rgb(0, 85, 255);"></rect><rect height="46.899224806201545" width="2.611683848797251" x="288.69415807560136" y="263.1007751937984" style="fill: rgb(0, 85, 255);"></rect><rect height="59.689922480620154" width="2.611683848797251" x="292.61168384879727" y="250.31007751937983" style="fill: rgb(0, 85, 255);"></rect><rect height="38.372093023255815" width="2.611683848797251" x="296.5292096219931" y="271.62790697674416" style="fill: rgb(0, 85, 255);"></rect><rect height="38.372093023255815" width="2.611683848797251" x="300.44673539518897" y="271.62790697674416" style="fill: rgb(0, 85, 255);"></rect><rect height="34.10852713178294" width="2.611683848797251" x="304.36426116838487" y="275.8914728682171" style="fill: rgb(0, 85, 255);"></rect><rect height="34.10852713178294" width="2.611683848797251" x="308.2817869415808" y="275.8914728682171" style="fill: rgb(0, 85, 255);"></rect><rect height="8.527131782945736" width="2.611683848797251" x="312.1993127147766" y="301.47286821705427" style="fill: rgb(0, 85, 255);"></rect><rect height="25.58139534883721" width="2.611683848797251" x="316.1168384879725" y="284.4186046511628" style="fill: rgb(0, 85, 255);"></rect><rect height="12.790697674418604" width="2.611683848797251" x="320.0343642611684" y="297.2093023255814" style="fill: rgb(0, 85, 255);"></rect><rect height="12.790697674418604" width="2.611683848797251" x="323.9518900343643" y="297.2093023255814" style="fill: rgb(0, 85, 255);"></rect><rect height="42.63565891472869" width="2.611683848797251" x="327.86941580756013" y="267.3643410852713" style="fill: rgb(0, 85, 255);"></rect><rect height="42.63565891472869" width="2.611683848797251" x="331.786941580756" y="267.3643410852713" style="fill: rgb(0, 85, 255);"></rect><rect height="25.58139534883721" width="2.611683848797251" x="335.7044673539519" y="284.4186046511628" style="fill: rgb(0, 85, 255);"></rect><rect height="14.922480620155039" width="2.611683848797251" x="339.6219931271478" y="295.07751937984494" style="fill: rgb(0, 85, 255);"></rect><rect height="14.922480620155039" width="2.611683848797251" x="343.53951890034364" y="295.07751937984494" style="fill: rgb(0, 85, 255);"></rect><rect height="19.186046511627907" width="2.611683848797251" x="347.4570446735395" y="290.8139534883721" style="fill: rgb(0, 85, 255);"></rect><rect height="31.97674418604651" width="2.611683848797251" x="351.3745704467354" y="278.0232558139535" style="fill: rgb(0, 85, 255);"></rect><rect height="25.58139534883721" width="2.611683848797251" x="355.2920962199313" y="284.4186046511628" style="fill: rgb(0, 85, 255);"></rect><rect height="14.922480620155039" width="2.611683848797251" x="359.20962199312714" y="295.07751937984494" style="fill: rgb(0, 85, 255);"></rect><rect height="25.58139534883721" width="2.611683848797251" x="363.127147766323" y="284.4186046511628" style="fill: rgb(0, 85, 255);"></rect><rect height="25.58139534883721" width="2.611683848797251" x="367.04467353951884" y="284.4186046511628" style="fill: rgb(0, 85, 255);"></rect><rect height="25.58139534883721" width="2.611683848797251" x="370.9621993127148" y="284.4186046511628" style="fill: rgb(0, 85, 255);"></rect><rect height="21.317829457364343" width="2.611683848797251" x="374.87972508591065" y="288.6821705426357" style="fill: rgb(0, 85, 255);"></rect><rect height="38.372093023255815" width="2.611683848797251" x="378.7972508591065" y="271.62790697674416" style="fill: rgb(0, 85, 255);"></rect><rect height="34.10852713178294" width="2.611683848797251" x="382.71477663230235" y="275.8914728682171" style="fill: rgb(0, 85, 255);"></rect><rect height="17.05426356589147" width="2.611683848797251" x="386.6323024054983" y="292.94573643410854" style="fill: rgb(0, 85, 255);"></rect><rect height="29.844961240310077" width="2.611683848797251" x="390.54982817869416" y="280.15503875968994" style="fill: rgb(0, 85, 255);"></rect><rect height="17.05426356589147" width="2.611683848797251" x="394.46735395189" y="292.94573643410854" style="fill: rgb(0, 85, 255);"></rect><rect height="12.790697674418604" width="2.611683848797251" x="398.38487972508585" y="297.2093023255814" style="fill: rgb(0, 85, 255);"></rect><rect height="17.05426356589147" width="2.611683848797251" x="402.3024054982818" y="292.94573643410854" style="fill: rgb(0, 85, 255);"></rect><rect height="8.527131782945736" width="2.611683848797251" x="406.21993127147766" y="301.47286821705427" style="fill: rgb(0, 85, 255);"></rect><rect height="25.58139534883721" width="2.611683848797251" x="410.1374570446735" y="284.4186046511628" style="fill: rgb(0, 85, 255);"></rect><rect height="12.790697674418604" width="2.611683848797251" x="414.05498281786936" y="297.2093023255814" style="fill: rgb(0, 85, 255);"></rect><rect height="12.790697674418604" width="2.611683848797251" x="417.9725085910653" y="297.2093023255814" style="fill: rgb(0, 85, 255);"></rect><rect height="21.317829457364343" width="2.611683848797251" x="421.89003436426117" y="288.6821705426357" style="fill: rgb(0, 85, 255);"></rect><rect height="42.63565891472869" width="2.611683848797251" x="425.807560137457" y="267.3643410852713" style="fill: rgb(0, 85, 255);"></rect><rect height="8.527131782945736" width="2.611683848797251" x="429.72508591065287" y="301.47286821705427" style="fill: rgb(0, 85, 255);"></rect><rect height="34.10852713178294" width="2.611683848797251" x="433.6426116838488" y="275.8914728682171" style="fill: rgb(0, 85, 255);"></rect><rect height="8.527131782945736" width="2.611683848797251" x="437.5601374570447" y="301.47286821705427" style="fill: rgb(0, 85, 255);"></rect><rect height="8.527131782945736" width="2.611683848797251" x="441.4776632302405" y="301.47286821705427" style="fill: rgb(0, 85, 255);"></rect><rect height="25.58139534883721" width="2.611683848797251" x="445.39518900343637" y="284.4186046511628" style="fill: rgb(0, 85, 255);"></rect><rect height="14.922480620155039" width="2.611683848797251" x="449.31271477663233" y="295.07751937984494" style="fill: rgb(0, 85, 255);"></rect><rect height="4.263565891472868" width="2.611683848797251" x="453.2302405498282" y="305.73643410852713" style="fill: rgb(0, 85, 255);"></rect><rect height="12.790697674418604" width="2.611683848797251" x="457.14776632302403" y="297.2093023255814" style="fill: rgb(0, 85, 255);"></rect><rect height="17.05426356589147" width="2.611683848797251" x="461.0652920962199" y="292.94573643410854" style="fill: rgb(0, 85, 255);"></rect><rect height="8.527131782945736" width="2.611683848797251" x="464.98281786941584" y="301.47286821705427" style="fill: rgb(0, 85, 255);"></rect><rect height="8.527131782945736" width="2.611683848797251" x="468.9003436426117" y="301.47286821705427" style="fill: rgb(0, 85, 255);"></rect><rect height="4.263565891472868" width="2.611683848797251" x="472.81786941580754" y="305.73643410852713" style="fill: rgb(0, 85, 255);"></rect><rect height="6.395348837209302" width="2.611683848797251" x="476.7353951890034" y="303.6046511627907" style="fill: rgb(0, 85, 255);"></rect><line x1="472.16494845360825" y1="110" x2="472.16494845360825" y2="355" style="stroke: green; stroke-width: 2px;"></line><text x="472.16494845360825" y="370" style="font-size: 9pt; stroke: green; text-anchor: middle;">H = 7.318</text><text x="467.16494845360825" y="385" style="font-size: 9pt; stroke: green; text-anchor: end;">P(X ≤ H) = 0.9976</text><text x="477.16494845360825" y="385" style="font-size: 9pt; stroke: green; text-anchor: start;">P(X ≥ H) = 0.0024</text><line x1="423.1958762886598" y1="220" x2="423.1958762886598" y2="340" style="stroke: red; stroke-width: 1px;"></line><text x="423.1958762886598" y="355" style="font-size: 9pt; stroke: red; text-anchor: middle;">5.727</text><text x="428.1958762886598" y="245" style="font-size: 9pt; stroke: red; text-anchor: start;">0.0505</text></svg>