<svg xmlns="http://www.w3.org/2000/svg" id="SVG" width="600" height="560"><text x="290" y="50" style="font-size: 17px; font-family: sans-seirf; stroke: black; text-anchor: middle;">Age  Histogram</text><g class="axis" transform="translate(80, 80) " fill="none" font-size="10" font-family="sans-serif" text-anchor="end"><path class="domain" stroke="#000" d="M-6,400.5H0.5V0.5H-6"></path><g class="tick" opacity="1" transform="translate(0,400.5)"><line stroke="#000" x2="-6"></line><text fill="#000" x="-9" dy="0.32em">0</text></g><g class="tick" opacity="1" transform="translate(0,369.7307692307692)"><line stroke="#000" x2="-6"></line><text fill="#000" x="-9" dy="0.32em">1</text></g><g class="tick" opacity="1" transform="translate(0,338.96153846153845)"><line stroke="#000" x2="-6"></line><text fill="#000" x="-9" dy="0.32em">2</text></g><g class="tick" opacity="1" transform="translate(0,308.1923076923077)"><line stroke="#000" x2="-6"></line><text fill="#000" x="-9" dy="0.32em">3</text></g><g class="tick" opacity="1" transform="translate(0,277.4230769230769)"><line stroke="#000" x2="-6"></line><text fill="#000" x="-9" dy="0.32em">4</text></g><g class="tick" opacity="1" transform="translate(0,246.65384615384613)"><line stroke="#000" x2="-6"></line><text fill="#000" x="-9" dy="0.32em">5</text></g><g class="tick" opacity="1" transform="translate(0,215.8846153846154)"><line stroke="#000" x2="-6"></line><text fill="#000" x="-9" dy="0.32em">6</text></g><g class="tick" opacity="1" transform="translate(0,185.1153846153846)"><line stroke="#000" x2="-6"></line><text fill="#000" x="-9" dy="0.32em">7</text></g><g class="tick" opacity="1" transform="translate(0,154.34615384615384)"><line stroke="#000" x2="-6"></line><text fill="#000" x="-9" dy="0.32em">8</text></g><g class="tick" opacity="1" transform="translate(0,123.5769230769231)"><line stroke="#000" x2="-6"></line><text fill="#000" x="-9" dy="0.32em">9</text></g><g class="tick" opacity="1" transform="translate(0,92.80769230769226)"><line stroke="#000" x2="-6"></line><text fill="#000" x="-9" dy="0.32em">10</text></g><g class="tick" opacity="1" transform="translate(0,62.03846153846155)"><line stroke="#000" x2="-6"></line><text fill="#000" x="-9" dy="0.32em">11</text></g><g class="tick" opacity="1" transform="translate(0,31.269230769230774)"><line stroke="#000" x2="-6"></line><text fill="#000" x="-9" dy="0.32em">12</text></g><g class="tick" opacity="1" transform="translate(0,0.5)"><line stroke="#000" x2="-6"></line><text fill="#000" x="-9" dy="0.32em">13</text></g></g><line x1="500" x2="500" y1="80" y2="480" style="stroke: black;"></line><line x1="80" x2="500" y1="80" y2="80" style="stroke: black;"></line><line x1="80" x2="500" y1="480" y2="480" style="stroke: black;"></line><line x1="80" x2="80" y1="480" y2="485" style="stroke: black;"></line><text class="myaxis" x="80" y="500" style="text-anchor: middle; font-family: sans-serif; font-size: 7px; stroke: rgb(0, 85, 255);">0.00</text><line x1="132.5" x2="132.5" y1="480" y2="485" style="stroke: black;"></line><text class="myaxis" x="132.5" y="500" style="text-anchor: middle; font-family: sans-serif; font-size: 7px; stroke: rgb(0, 85, 255);">10.00</text><line x1="185" x2="185" y1="480" y2="485" style="stroke: black;"></line><text class="myaxis" x="185" y="500" style="text-anchor: middle; font-family: sans-serif; font-size: 7px; stroke: rgb(0, 85, 255);">20.00</text><line x1="237.5" x2="237.5" y1="480" y2="485" style="stroke: black;"></line><text class="myaxis" x="237.5" y="500" style="text-anchor: middle; font-family: sans-serif; font-size: 7px; stroke: rgb(0, 85, 255);">30.00</text><line x1="290" x2="290" y1="480" y2="485" style="stroke: black;"></line><text class="myaxis" x="290" y="500" style="text-anchor: middle; font-family: sans-serif; font-size: 7px; stroke: rgb(0, 85, 255);">40.00</text><line x1="342.5" x2="342.5" y1="480" y2="485" style="stroke: black;"></line><text class="myaxis" x="342.5" y="500" style="text-anchor: middle; font-family: sans-serif; font-size: 7px; stroke: rgb(0, 85, 255);">50.00</text><line x1="395" x2="395" y1="480" y2="485" style="stroke: black;"></line><text class="myaxis" x="395" y="500" style="text-anchor: middle; font-family: sans-serif; font-size: 7px; stroke: rgb(0, 85, 255);">60.00</text><line x1="447.5" x2="447.5" y1="480" y2="485" style="stroke: black;"></line><text class="myaxis" x="447.5" y="500" style="text-anchor: middle; font-family: sans-serif; font-size: 7px; stroke: rgb(0, 85, 255);">70.00</text><line x1="500" x2="500" y1="480" y2="485" style="stroke: black;"></line><text class="myaxis" x="500" y="500" style="text-anchor: middle; font-family: sans-serif; font-size: 7px; stroke: rgb(0, 85, 255);">80.00</text><text x="290" y="530" style="font-size: 12px; font-family: sans-seirf; stroke: black; text-anchor: middle;">Age</text><text x="25" y="95" transform="rotate(-90 30 100)" style="font-size: 12px; font-family: sans-seirf; stroke: black; text-anchor: end;">Frequency</text><rect class="bar" x="80" width="52.5" height="0" y="480" style="fill: rgb(0, 85, 255); stroke: black; stroke-width: 1px;"></rect><rect class="bar" x="132.5" width="52.5" height="61.53846153846154" y="418.46153846153845" style="fill: rgb(0, 85, 255); stroke: black; stroke-width: 1px;"></rect><rect class="bar" x="185" width="52.5" height="184.6153846153846" y="295.38461538461536" style="fill: rgb(0, 85, 255); stroke: black; stroke-width: 1px;"></rect><rect class="bar" x="237.5" width="52.5" height="246.15384615384616" y="233.84615384615384" style="fill: rgb(0, 85, 255); stroke: black; stroke-width: 1px;"></rect><rect class="bar" x="290" width="52.5" height="338.46153846153845" y="141.53846153846155" style="fill: rgb(0, 85, 255); stroke: black; stroke-width: 1px;"></rect><rect class="bar" x="342.5" width="52.5" height="61.53846153846154" y="418.46153846153845" style="fill: rgb(0, 85, 255); stroke: black; stroke-width: 1px;"></rect><rect class="bar" x="395" width="52.5" height="30.76923076923077" y="449.2307692307692" style="fill: rgb(0, 85, 255); stroke: black; stroke-width: 1px;"></rect><rect class="bar" x="447.5" width="52.5" height="0" y="480" style="fill: rgb(0, 85, 255); stroke: black; stroke-width: 1px;"></rect><rect class="bar" x="500" width="52.5" height="0" y="480" style="fill: rgb(0, 85, 255); stroke: black; stroke-width: 1px;"></rect><text class="histfreq" x="106.25" y="476" style="stroke: red; text-anchor: middle; font-family: sans-serif; font-size: 8pt;">0</text><text class="histfreq" x="158.75" y="414.46153846153845" style="stroke: red; text-anchor: middle; font-family: sans-serif; font-size: 8pt;">2</text><text class="histfreq" x="211.25" y="291.38461538461536" style="stroke: red; text-anchor: middle; font-family: sans-serif; font-size: 8pt;">6</text><text class="histfreq" x="263.75" y="229.84615384615384" style="stroke: red; text-anchor: middle; font-family: sans-serif; font-size: 8pt;">8</text><text class="histfreq" x="316.25" y="137.53846153846155" style="stroke: red; text-anchor: middle; font-family: sans-serif; font-size: 8pt;">11</text><text class="histfreq" x="368.75" y="414.46153846153845" style="stroke: red; text-anchor: middle; font-family: sans-serif; font-size: 8pt;">2</text><text class="histfreq" x="421.25" y="445.2307692307692" style="stroke: red; text-anchor: middle; font-family: sans-serif; font-size: 8pt;">1</text><text class="histfreq" x="473.75" y="476" style="stroke: red; text-anchor: middle; font-family: sans-serif; font-size: 8pt;">0</text></svg>