<svg xmlns="http://www.w3.org/2000/svg" id="SVG" width="600" height="560"><text x="290" y="50" style="font-size: 17px; font-family: sans-seirf; stroke: black; text-anchor: middle;">(Group  V2 V3 )  Gender  Line Graph</text><text x="290" y="530" style="font-size: 12px; font-family: sans-seirf; stroke: black; text-anchor: middle;">Gender</text><text x="25" y="95" transform="rotate(-90 30 100)" style="font-size: 12px; font-family: sans-seirf; stroke: black; text-anchor: end;"></text><line x1="80" x2="500" y1="480" y2="480" style="stroke: black;"></line><line x1="80" x2="500" y1="80" y2="80" style="stroke: black;"></line><line x1="185" x2="185" y1="480" y2="485" style="stroke: black; stroke-width: 0.5;"></line><text x="185" y="495" transform="rotate(0,185,495)  " style="text-anchor: middle; font-size: 9px; font-family: sans-serif;">Male</text><line x1="395" x2="395" y1="480" y2="485" style="stroke: black; stroke-width: 0.5;"></line><text x="395" y="495" transform="rotate(0,395,495)  " style="text-anchor: middle; font-size: 9px; font-family: sans-serif;">Female</text><g transform="translate(80,80)" fill="none" font-size="10" font-family="sans-serif" text-anchor="end"><path class="domain" stroke="#000" d="M-6,0.5H0.5V400.5H-6"></path><g class="tick" opacity="1" transform="translate(0,0.5)"><line stroke="#000" x2="-6"></line><text fill="#000" x="-9" dy="0.32em">45</text></g><g class="tick" opacity="1" transform="translate(0,44.94444444444446)"><line stroke="#000" x2="-6"></line><text fill="#000" x="-9" dy="0.32em">40</text></g><g class="tick" opacity="1" transform="translate(0,89.38888888888886)"><line stroke="#000" x2="-6"></line><text fill="#000" x="-9" dy="0.32em">35</text></g><g class="tick" opacity="1" transform="translate(0,133.83333333333337)"><line stroke="#000" x2="-6"></line><text fill="#000" x="-9" dy="0.32em">30</text></g><g class="tick" opacity="1" transform="translate(0,178.27777777777777)"><line stroke="#000" x2="-6"></line><text fill="#000" x="-9" dy="0.32em">25</text></g><g class="tick" opacity="1" transform="translate(0,222.72222222222223)"><line stroke="#000" x2="-6"></line><text fill="#000" x="-9" dy="0.32em">20</text></g><g class="tick" opacity="1" transform="translate(0,267.1666666666667)"><line stroke="#000" x2="-6"></line><text fill="#000" x="-9" dy="0.32em">15</text></g><g class="tick" opacity="1" transform="translate(0,311.6111111111111)"><line stroke="#000" x2="-6"></line><text fill="#000" x="-9" dy="0.32em">10</text></g><g class="tick" opacity="1" transform="translate(0,356.05555555555554)"><line stroke="#000" x2="-6"></line><text fill="#000" x="-9" dy="0.32em">5</text></g><g class="tick" opacity="1" transform="translate(0,400.5)"><line stroke="#000" x2="-6"></line><text fill="#000" x="-9" dy="0.32em">0</text></g></g><line x1="500" x2="500" y1="80" y2="480" style="stroke: black;"></line><circle cx="185" cy="124.44444444444446" r="4" style="fill: rgb(0, 85, 255);"><title>40</title></circle><circle cx="395" cy="302.22222222222223" r="4" style="fill: rgb(0, 85, 255);"><title>20</title></circle><line x1="185" x2="395" y1="124.44444444444446" y2="302.22222222222223" style="stroke: rgb(0, 85, 255);"></line><circle cx="185" cy="391.1111111111111" r="4" style="fill: rgb(255, 69, 0);"><title>10</title></circle><circle cx="395" cy="213.33333333333331" r="4" style="fill: rgb(255, 69, 0);"><title>30</title></circle><line x1="185" x2="395" y1="391.1111111111111" y2="213.33333333333331" style="stroke: rgb(255, 69, 0);"></line><circle cx="515" cy="100" r="4" style="fill: rgb(0, 85, 255);"></circle><text x="525" y="105" style="font-size: 12px; font-family: sans-seirf; stroke: rgb(0, 85, 255); text-anchor: start;">Glasses</text><circle cx="515" cy="120" r="4" style="fill: rgb(255, 69, 0);"></circle><text x="525" y="125" style="font-size: 12px; font-family: sans-seirf; stroke: rgb(255, 69, 0); text-anchor: start;">NoGlasses</text></svg>