<svg xmlns="http://www.w3.org/2000/svg" id="SVG" width="600" height="560"><text x="310" y="45" style="font-size: 17px; font-family: sans-seirf; stroke: black; text-anchor: middle;">Standardized Residual Q-Q Plot</text><text x="50" y="285" transform="rotate(-90 50 280)" style="font-size: 10px; font-family: sans-seirf; stroke: black; text-anchor: middle;">Standardized Residual</text><text x="290" y="515" style="font-size: 10px; font-family: sans-seirf; stroke: black; text-anchor: middle;">Normal Quantile</text><g transform="translate(100,470)" fill="none" font-size="10" font-family="sans-serif" text-anchor="middle"><path class="domain" stroke="#000" d="M0.5,6V0.5H380.5V6"></path><g class="tick" opacity="1" transform="translate(0.5,0)"><line stroke="#000" y2="6"></line><text fill="#000" y="9" dy="0.71em">-3.0</text></g><g class="tick" opacity="1" transform="translate(32.166666666666664,0)"><line stroke="#000" y2="6"></line><text fill="#000" y="9" dy="0.71em">-2.5</text></g><g class="tick" opacity="1" transform="translate(63.83333333333333,0)"><line stroke="#000" y2="6"></line><text fill="#000" y="9" dy="0.71em">-2.0</text></g><g class="tick" opacity="1" transform="translate(95.5,0)"><line stroke="#000" y2="6"></line><text fill="#000" y="9" dy="0.71em">-1.5</text></g><g class="tick" opacity="1" transform="translate(127.16666666666666,0)"><line stroke="#000" y2="6"></line><text fill="#000" y="9" dy="0.71em">-1.0</text></g><g class="tick" opacity="1" transform="translate(158.83333333333334,0)"><line stroke="#000" y2="6"></line><text fill="#000" y="9" dy="0.71em">-0.5</text></g><g class="tick" opacity="1" transform="translate(190.5,0)"><line stroke="#000" y2="6"></line><text fill="#000" y="9" dy="0.71em">0.0</text></g><g class="tick" opacity="1" transform="translate(222.16666666666669,0)"><line stroke="#000" y2="6"></line><text fill="#000" y="9" dy="0.71em">0.5</text></g><g class="tick" opacity="1" transform="translate(253.83333333333331,0)"><line stroke="#000" y2="6"></line><text fill="#000" y="9" dy="0.71em">1.0</text></g><g class="tick" opacity="1" transform="translate(285.5,0)"><line stroke="#000" y2="6"></line><text fill="#000" y="9" dy="0.71em">1.5</text></g><g class="tick" opacity="1" transform="translate(317.1666666666667,0)"><line stroke="#000" y2="6"></line><text fill="#000" y="9" dy="0.71em">2.0</text></g><g class="tick" opacity="1" transform="translate(348.8333333333333,0)"><line stroke="#000" y2="6"></line><text fill="#000" y="9" dy="0.71em">2.5</text></g><g class="tick" opacity="1" transform="translate(380.5,0)"><line stroke="#000" y2="6"></line><text fill="#000" y="9" dy="0.71em">3.0</text></g></g><g transform="translate(100,90)" fill="none" font-size="10" font-family="sans-serif" text-anchor="middle"><path class="domain" stroke="#000" d="M0.5,-6V0.5H380.5V-6"></path><g class="tick" opacity="1" transform="translate(0.5,0)"><line stroke="#000" y2="-6"></line><text fill="#000" y="-9" dy="0em">-3.0</text></g><g class="tick" opacity="1" transform="translate(32.166666666666664,0)"><line stroke="#000" y2="-6"></line><text fill="#000" y="-9" dy="0em">-2.5</text></g><g class="tick" opacity="1" transform="translate(63.83333333333333,0)"><line stroke="#000" y2="-6"></line><text fill="#000" y="-9" dy="0em">-2.0</text></g><g class="tick" opacity="1" transform="translate(95.5,0)"><line stroke="#000" y2="-6"></line><text fill="#000" y="-9" dy="0em">-1.5</text></g><g class="tick" opacity="1" transform="translate(127.16666666666666,0)"><line stroke="#000" y2="-6"></line><text fill="#000" y="-9" dy="0em">-1.0</text></g><g class="tick" opacity="1" transform="translate(158.83333333333334,0)"><line stroke="#000" y2="-6"></line><text fill="#000" y="-9" dy="0em">-0.5</text></g><g class="tick" opacity="1" transform="translate(190.5,0)"><line stroke="#000" y2="-6"></line><text fill="#000" y="-9" dy="0em">0.0</text></g><g class="tick" opacity="1" transform="translate(222.16666666666669,0)"><line stroke="#000" y2="-6"></line><text fill="#000" y="-9" dy="0em">0.5</text></g><g class="tick" opacity="1" transform="translate(253.83333333333331,0)"><line stroke="#000" y2="-6"></line><text fill="#000" y="-9" dy="0em">1.0</text></g><g class="tick" opacity="1" transform="translate(285.5,0)"><line stroke="#000" y2="-6"></line><text fill="#000" y="-9" dy="0em">1.5</text></g><g class="tick" opacity="1" transform="translate(317.1666666666667,0)"><line stroke="#000" y2="-6"></line><text fill="#000" y="-9" dy="0em">2.0</text></g><g class="tick" opacity="1" transform="translate(348.8333333333333,0)"><line stroke="#000" y2="-6"></line><text fill="#000" y="-9" dy="0em">2.5</text></g><g class="tick" opacity="1" transform="translate(380.5,0)"><line stroke="#000" y2="-6"></line><text fill="#000" y="-9" dy="0em">3.0</text></g></g><g transform="translate(100,90)" fill="none" font-size="10" font-family="sans-serif" text-anchor="end"><path class="domain" stroke="#000" d="M-6,380.5H0.5V0.5H-6"></path><g class="tick" opacity="1" transform="translate(0,380.5)"><line stroke="#000" x2="-6"></line><text fill="#000" x="-9" dy="0.32em">-3.0</text></g><g class="tick" opacity="1" transform="translate(0,348.8333333333333)"><line stroke="#000" x2="-6"></line><text fill="#000" x="-9" dy="0.32em">-2.5</text></g><g class="tick" opacity="1" transform="translate(0,317.1666666666667)"><line stroke="#000" x2="-6"></line><text fill="#000" x="-9" dy="0.32em">-2.0</text></g><g class="tick" opacity="1" transform="translate(0,285.5)"><line stroke="#000" x2="-6"></line><text fill="#000" x="-9" dy="0.32em">-1.5</text></g><g class="tick" opacity="1" transform="translate(0,253.83333333333334)"><line stroke="#000" x2="-6"></line><text fill="#000" x="-9" dy="0.32em">-1.0</text></g><g class="tick" opacity="1" transform="translate(0,222.16666666666666)"><line stroke="#000" x2="-6"></line><text fill="#000" x="-9" dy="0.32em">-0.5</text></g><g class="tick" opacity="1" transform="translate(0,190.5)"><line stroke="#000" x2="-6"></line><text fill="#000" x="-9" dy="0.32em">0.0</text></g><g class="tick" opacity="1" transform="translate(0,158.83333333333331)"><line stroke="#000" x2="-6"></line><text fill="#000" x="-9" dy="0.32em">0.5</text></g><g class="tick" opacity="1" transform="translate(0,127.16666666666669)"><line stroke="#000" x2="-6"></line><text fill="#000" x="-9" dy="0.32em">1.0</text></g><g class="tick" opacity="1" transform="translate(0,95.5)"><line stroke="#000" x2="-6"></line><text fill="#000" x="-9" dy="0.32em">1.5</text></g><g class="tick" opacity="1" transform="translate(0,63.833333333333314)"><line stroke="#000" x2="-6"></line><text fill="#000" x="-9" dy="0.32em">2.0</text></g><g class="tick" opacity="1" transform="translate(0,32.166666666666686)"><line stroke="#000" x2="-6"></line><text fill="#000" x="-9" dy="0.32em">2.5</text></g><g class="tick" opacity="1" transform="translate(0,0.5)"><line stroke="#000" x2="-6"></line><text fill="#000" x="-9" dy="0.32em">3.0</text></g></g><g transform="translate(480,90)" fill="none" font-size="10" font-family="sans-serif" text-anchor="start"><path class="domain" stroke="#000" d="M6,380.5H0.5V0.5H6"></path><g class="tick" opacity="1" transform="translate(0,380.5)"><line stroke="#000" x2="6"></line><text fill="#000" x="9" dy="0.32em">-3.0</text></g><g class="tick" opacity="1" transform="translate(0,348.8333333333333)"><line stroke="#000" x2="6"></line><text fill="#000" x="9" dy="0.32em">-2.5</text></g><g class="tick" opacity="1" transform="translate(0,317.1666666666667)"><line stroke="#000" x2="6"></line><text fill="#000" x="9" dy="0.32em">-2.0</text></g><g class="tick" opacity="1" transform="translate(0,285.5)"><line stroke="#000" x2="6"></line><text fill="#000" x="9" dy="0.32em">-1.5</text></g><g class="tick" opacity="1" transform="translate(0,253.83333333333334)"><line stroke="#000" x2="6"></line><text fill="#000" x="9" dy="0.32em">-1.0</text></g><g class="tick" opacity="1" transform="translate(0,222.16666666666666)"><line stroke="#000" x2="6"></line><text fill="#000" x="9" dy="0.32em">-0.5</text></g><g class="tick" opacity="1" transform="translate(0,190.5)"><line stroke="#000" x2="6"></line><text fill="#000" x="9" dy="0.32em">0.0</text></g><g class="tick" opacity="1" transform="translate(0,158.83333333333331)"><line stroke="#000" x2="6"></line><text fill="#000" x="9" dy="0.32em">0.5</text></g><g class="tick" opacity="1" transform="translate(0,127.16666666666669)"><line stroke="#000" x2="6"></line><text fill="#000" x="9" dy="0.32em">1.0</text></g><g class="tick" opacity="1" transform="translate(0,95.5)"><line stroke="#000" x2="6"></line><text fill="#000" x="9" dy="0.32em">1.5</text></g><g class="tick" opacity="1" transform="translate(0,63.833333333333314)"><line stroke="#000" x2="6"></line><text fill="#000" x="9" dy="0.32em">2.0</text></g><g class="tick" opacity="1" transform="translate(0,32.166666666666686)"><line stroke="#000" x2="6"></line><text fill="#000" x="9" dy="0.32em">2.5</text></g><g class="tick" opacity="1" transform="translate(0,0.5)"><line stroke="#000" x2="6"></line><text fill="#000" x="9" dy="0.32em">3.0</text></g></g><line x1="100" y1="470" x2="480" y2="90" style="stroke: greenyellow;"></line><circle class="circle" r="4" cx="185.8259369597401" cy="368.2939763097236" style="fill: rgb(255, 69, 0);"></circle><circle class="circle" r="4" cx="224.3592186653933" cy="360.5459055747633" style="fill: rgb(255, 69, 0);"></circle><circle class="circle" r="4" cx="247.28231582091482" cy="356.56996083829563" style="fill: rgb(255, 69, 0);"></circle><circle class="circle" r="4" cx="265.596370460854" cy="334.28132600838046" style="fill: rgb(255, 69, 0);"></circle><circle class="circle" r="4" cx="282.041448032512" cy="262.3546496293602" style="fill: rgb(255, 69, 0);"></circle><circle class="circle" r="4" cx="297.958551967488" cy="243.96198466110238" style="fill: rgb(255, 69, 0);"></circle><circle class="circle" r="4" cx="314.403629539146" cy="221.341141112183" style="fill: rgb(255, 69, 0);"></circle><circle class="circle" r="4" cx="332.71768417908515" cy="220.3029898395555" style="fill: rgb(255, 69, 0);"></circle><circle class="circle" r="4" cx="355.6407813346067" cy="217.73848786295335" style="fill: rgb(255, 69, 0);"></circle><circle class="circle" r="4" cx="394.17406304025985" cy="213.56604103581543" style="fill: rgb(255, 69, 0);"></circle></svg>