<svg xmlns="http://www.w3.org/2000/svg" id="SVG" width="600" height="560"><text x="310" y="45" style="font-size: 17px; font-family: sans-seirf; stroke: black; text-anchor: middle;">Standardized Residual vs Forecasting Plot</text><text x="50" y="285" transform="rotate(-90 50 280)" style="font-size: 10px; font-family: sans-seirf; stroke: black; text-anchor: middle;">Standardized Residual</text><text x="290" y="515" style="font-size: 10px; font-family: sans-seirf; stroke: black; text-anchor: middle;">Predicted Value</text><g transform="translate(100,470)" fill="none" font-size="10" font-family="sans-serif" text-anchor="middle"><path class="domain" stroke="#000" d="M0.5,6V0.5H380.5V6"></path><g class="tick" opacity="1" transform="translate(18.388794406651066,0)"><line stroke="#000" y2="6"></line><text fill="#000" y="9" dy="0.71em">36</text></g><g class="tick" opacity="1" transform="translate(45.49574829931931,0)"><line stroke="#000" y2="6"></line><text fill="#000" y="9" dy="0.71em">38</text></g><g class="tick" opacity="1" transform="translate(72.60270219198756,0)"><line stroke="#000" y2="6"></line><text fill="#000" y="9" dy="0.71em">40</text></g><g class="tick" opacity="1" transform="translate(99.70965608465579,0)"><line stroke="#000" y2="6"></line><text fill="#000" y="9" dy="0.71em">42</text></g><g class="tick" opacity="1" transform="translate(126.81660997732403,0)"><line stroke="#000" y2="6"></line><text fill="#000" y="9" dy="0.71em">44</text></g><g class="tick" opacity="1" transform="translate(153.92356386999228,0)"><line stroke="#000" y2="6"></line><text fill="#000" y="9" dy="0.71em">46</text></g><g class="tick" opacity="1" transform="translate(181.0305177626605,0)"><line stroke="#000" y2="6"></line><text fill="#000" y="9" dy="0.71em">48</text></g><g class="tick" opacity="1" transform="translate(208.13747165532877,0)"><line stroke="#000" y2="6"></line><text fill="#000" y="9" dy="0.71em">50</text></g><g class="tick" opacity="1" transform="translate(235.24442554799703,0)"><line stroke="#000" y2="6"></line><text fill="#000" y="9" dy="0.71em">52</text></g><g class="tick" opacity="1" transform="translate(262.35137944066526,0)"><line stroke="#000" y2="6"></line><text fill="#000" y="9" dy="0.71em">54</text></g><g class="tick" opacity="1" transform="translate(289.4583333333335,0)"><line stroke="#000" y2="6"></line><text fill="#000" y="9" dy="0.71em">56</text></g><g class="tick" opacity="1" transform="translate(316.5652872260018,0)"><line stroke="#000" y2="6"></line><text fill="#000" y="9" dy="0.71em">58</text></g><g class="tick" opacity="1" transform="translate(343.67224111867,0)"><line stroke="#000" y2="6"></line><text fill="#000" y="9" dy="0.71em">60</text></g><g class="tick" opacity="1" transform="translate(370.77919501133823,0)"><line stroke="#000" y2="6"></line><text fill="#000" y="9" dy="0.71em">62</text></g></g><g transform="translate(100,90)" fill="none" font-size="10" font-family="sans-serif" text-anchor="middle"><path class="domain" stroke="#000" d="M0.5,-6V0.5H380.5V-6"></path><g class="tick" opacity="1" transform="translate(18.388794406651066,0)"><line stroke="#000" y2="-6"></line><text fill="#000" y="-9" dy="0em">36</text></g><g class="tick" opacity="1" transform="translate(45.49574829931931,0)"><line stroke="#000" y2="-6"></line><text fill="#000" y="-9" dy="0em">38</text></g><g class="tick" opacity="1" transform="translate(72.60270219198756,0)"><line stroke="#000" y2="-6"></line><text fill="#000" y="-9" dy="0em">40</text></g><g class="tick" opacity="1" transform="translate(99.70965608465579,0)"><line stroke="#000" y2="-6"></line><text fill="#000" y="-9" dy="0em">42</text></g><g class="tick" opacity="1" transform="translate(126.81660997732403,0)"><line stroke="#000" y2="-6"></line><text fill="#000" y="-9" dy="0em">44</text></g><g class="tick" opacity="1" transform="translate(153.92356386999228,0)"><line stroke="#000" y2="-6"></line><text fill="#000" y="-9" dy="0em">46</text></g><g class="tick" opacity="1" transform="translate(181.0305177626605,0)"><line stroke="#000" y2="-6"></line><text fill="#000" y="-9" dy="0em">48</text></g><g class="tick" opacity="1" transform="translate(208.13747165532877,0)"><line stroke="#000" y2="-6"></line><text fill="#000" y="-9" dy="0em">50</text></g><g class="tick" opacity="1" transform="translate(235.24442554799703,0)"><line stroke="#000" y2="-6"></line><text fill="#000" y="-9" dy="0em">52</text></g><g class="tick" opacity="1" transform="translate(262.35137944066526,0)"><line stroke="#000" y2="-6"></line><text fill="#000" y="-9" dy="0em">54</text></g><g class="tick" opacity="1" transform="translate(289.4583333333335,0)"><line stroke="#000" y2="-6"></line><text fill="#000" y="-9" dy="0em">56</text></g><g class="tick" opacity="1" transform="translate(316.5652872260018,0)"><line stroke="#000" y2="-6"></line><text fill="#000" y="-9" dy="0em">58</text></g><g class="tick" opacity="1" transform="translate(343.67224111867,0)"><line stroke="#000" y2="-6"></line><text fill="#000" y="-9" dy="0em">60</text></g><g class="tick" opacity="1" transform="translate(370.77919501133823,0)"><line stroke="#000" y2="-6"></line><text fill="#000" y="-9" dy="0em">62</text></g></g><g transform="translate(100,90)" fill="none" font-size="10" font-family="sans-serif" text-anchor="end"><path class="domain" stroke="#000" d="M-6,380.5H0.5V0.5H-6"></path><g class="tick" opacity="1" transform="translate(0,380.5)"><line stroke="#000" x2="-6"></line><text fill="#000" x="-9" dy="0.32em">-3.0</text></g><g class="tick" opacity="1" transform="translate(0,348.8333333333333)"><line stroke="#000" x2="-6"></line><text fill="#000" x="-9" dy="0.32em">-2.5</text></g><g class="tick" opacity="1" transform="translate(0,317.1666666666667)"><line stroke="#000" x2="-6"></line><text fill="#000" x="-9" dy="0.32em">-2.0</text></g><g class="tick" opacity="1" transform="translate(0,285.5)"><line stroke="#000" x2="-6"></line><text fill="#000" x="-9" dy="0.32em">-1.5</text></g><g class="tick" opacity="1" transform="translate(0,253.83333333333334)"><line stroke="#000" x2="-6"></line><text fill="#000" x="-9" dy="0.32em">-1.0</text></g><g class="tick" opacity="1" transform="translate(0,222.16666666666666)"><line stroke="#000" x2="-6"></line><text fill="#000" x="-9" dy="0.32em">-0.5</text></g><g class="tick" opacity="1" transform="translate(0,190.5)"><line stroke="#000" x2="-6"></line><text fill="#000" x="-9" dy="0.32em">0.0</text></g><g class="tick" opacity="1" transform="translate(0,158.83333333333331)"><line stroke="#000" x2="-6"></line><text fill="#000" x="-9" dy="0.32em">0.5</text></g><g class="tick" opacity="1" transform="translate(0,127.16666666666669)"><line stroke="#000" x2="-6"></line><text fill="#000" x="-9" dy="0.32em">1.0</text></g><g class="tick" opacity="1" transform="translate(0,95.5)"><line stroke="#000" x2="-6"></line><text fill="#000" x="-9" dy="0.32em">1.5</text></g><g class="tick" opacity="1" transform="translate(0,63.833333333333314)"><line stroke="#000" x2="-6"></line><text fill="#000" x="-9" dy="0.32em">2.0</text></g><g class="tick" opacity="1" transform="translate(0,32.166666666666686)"><line stroke="#000" x2="-6"></line><text fill="#000" x="-9" dy="0.32em">2.5</text></g><g class="tick" opacity="1" transform="translate(0,0.5)"><line stroke="#000" x2="-6"></line><text fill="#000" x="-9" dy="0.32em">3.0</text></g></g><g transform="translate(480,90)" fill="none" font-size="10" font-family="sans-serif" text-anchor="start"><path class="domain" stroke="#000" d="M6,380.5H0.5V0.5H6"></path><g class="tick" opacity="1" transform="translate(0,380.5)"><line stroke="#000" x2="6"></line><text fill="#000" x="9" dy="0.32em">-3.0</text></g><g class="tick" opacity="1" transform="translate(0,348.8333333333333)"><line stroke="#000" x2="6"></line><text fill="#000" x="9" dy="0.32em">-2.5</text></g><g class="tick" opacity="1" transform="translate(0,317.1666666666667)"><line stroke="#000" x2="6"></line><text fill="#000" x="9" dy="0.32em">-2.0</text></g><g class="tick" opacity="1" transform="translate(0,285.5)"><line stroke="#000" x2="6"></line><text fill="#000" x="9" dy="0.32em">-1.5</text></g><g class="tick" opacity="1" transform="translate(0,253.83333333333334)"><line stroke="#000" x2="6"></line><text fill="#000" x="9" dy="0.32em">-1.0</text></g><g class="tick" opacity="1" transform="translate(0,222.16666666666666)"><line stroke="#000" x2="6"></line><text fill="#000" x="9" dy="0.32em">-0.5</text></g><g class="tick" opacity="1" transform="translate(0,190.5)"><line stroke="#000" x2="6"></line><text fill="#000" x="9" dy="0.32em">0.0</text></g><g class="tick" opacity="1" transform="translate(0,158.83333333333331)"><line stroke="#000" x2="6"></line><text fill="#000" x="9" dy="0.32em">0.5</text></g><g class="tick" opacity="1" transform="translate(0,127.16666666666669)"><line stroke="#000" x2="6"></line><text fill="#000" x="9" dy="0.32em">1.0</text></g><g class="tick" opacity="1" transform="translate(0,95.5)"><line stroke="#000" x2="6"></line><text fill="#000" x="9" dy="0.32em">1.5</text></g><g class="tick" opacity="1" transform="translate(0,63.833333333333314)"><line stroke="#000" x2="6"></line><text fill="#000" x="9" dy="0.32em">2.0</text></g><g class="tick" opacity="1" transform="translate(0,32.166666666666686)"><line stroke="#000" x2="6"></line><text fill="#000" x="9" dy="0.32em">2.5</text></g><g class="tick" opacity="1" transform="translate(0,0.5)"><line stroke="#000" x2="6"></line><text fill="#000" x="9" dy="0.32em">3.0</text></g></g><line x1="100" y1="280" x2="480" y2="280" style="stroke: greenyellow;"></line><circle data-sheetrowid="0" class="datapoint" r="4" cx="154.2857142857143" cy="262.3546496293602" style="stroke: black; fill: rgb(255, 69, 0);"></circle><circle data-sheetrowid="1" class="datapoint" r="4" cx="222.1428571428571" cy="360.5459055747633" style="stroke: black; fill: rgb(255, 69, 0);"></circle><circle data-sheetrowid="2" class="datapoint" r="4" cx="222.1428571428571" cy="217.73848786295335" style="stroke: black; fill: rgb(255, 69, 0);"></circle><circle data-sheetrowid="3" class="datapoint" r="4" cx="290" cy="356.56996083829563" style="stroke: black; fill: rgb(255, 69, 0);"></circle><circle data-sheetrowid="4" class="datapoint" r="4" cx="290" cy="221.341141112183" style="stroke: black; fill: rgb(255, 69, 0);"></circle><circle data-sheetrowid="5" class="datapoint" r="4" cx="323.92857142857133" cy="334.28132600838046" style="stroke: black; fill: rgb(255, 69, 0);"></circle><circle data-sheetrowid="6" class="datapoint" r="4" cx="323.92857142857133" cy="243.96198466110238" style="stroke: black; fill: rgb(255, 69, 0);"></circle><circle data-sheetrowid="7" class="datapoint" r="4" cx="357.8571428571428" cy="220.3029898395555" style="stroke: black; fill: rgb(255, 69, 0);"></circle><circle data-sheetrowid="8" class="datapoint" r="4" cx="425.71428571428567" cy="368.2939763097236" style="stroke: black; fill: rgb(255, 69, 0);"></circle><circle data-sheetrowid="9" class="datapoint" r="4" cx="425.71428571428567" cy="213.56604103581543" style="stroke: black; fill: rgb(255, 69, 0);"></circle></svg>