<svg xmlns="http://www.w3.org/2000/svg" id="chart" width="600" height="400"> <text x="290" y="45" style="font-family: sans-serif; font-size: 12pt; stroke: black; text-anchor: middle;">Wilcoxon Rank Sum Test</text><text x="290" y="60" style="font-family: sans-serif; font-size: 9pt; stroke: black; text-anchor: middle;">H₀: M₁ = M₂   , H₁: M₁ ≠ M₂</text><text x="290" y="75" style="font-family: sans-serif; font-size: 9pt; stroke: green; text-anchor: middle;">[TestStat] R₂ ~ Wilcoxson (n₁ = 7, n₂ = 6) Distribution</text><g transform="translate(100,90)" fill="none" font-size="10" font-family="sans-serif" text-anchor="end"><path class="domain" stroke="#000" d="M-6,0.5H0.5V220.5H-6"></path><g class="tick" opacity="1" transform="translate(0,2.957446808510639)"><line stroke="#000" x2="-6"></line><text fill="#000" x="-9" dy="0.32em">0.065</text></g><g class="tick" opacity="1" transform="translate(0,19.69148936170211)"><line stroke="#000" x2="-6"></line><text fill="#000" x="-9" dy="0.32em">0.060</text></g><g class="tick" opacity="1" transform="translate(0,36.42553191489361)"><line stroke="#000" x2="-6"></line><text fill="#000" x="-9" dy="0.32em">0.055</text></g><g class="tick" opacity="1" transform="translate(0,53.15957446808508)"><line stroke="#000" x2="-6"></line><text fill="#000" x="-9" dy="0.32em">0.050</text></g><g class="tick" opacity="1" transform="translate(0,69.89361702127661)"><line stroke="#000" x2="-6"></line><text fill="#000" x="-9" dy="0.32em">0.045</text></g><g class="tick" opacity="1" transform="translate(0,86.62765957446808)"><line stroke="#000" x2="-6"></line><text fill="#000" x="-9" dy="0.32em">0.040</text></g><g class="tick" opacity="1" transform="translate(0,103.36170212765956)"><line stroke="#000" x2="-6"></line><text fill="#000" x="-9" dy="0.32em">0.035</text></g><g class="tick" opacity="1" transform="translate(0,120.09574468085106)"><line stroke="#000" x2="-6"></line><text fill="#000" x="-9" dy="0.32em">0.030</text></g><g class="tick" opacity="1" transform="translate(0,136.82978723404256)"><line stroke="#000" x2="-6"></line><text fill="#000" x="-9" dy="0.32em">0.025</text></g><g class="tick" opacity="1" transform="translate(0,153.56382978723406)"><line stroke="#000" x2="-6"></line><text fill="#000" x="-9" dy="0.32em">0.020</text></g><g class="tick" opacity="1" transform="translate(0,170.29787234042553)"><line stroke="#000" x2="-6"></line><text fill="#000" x="-9" dy="0.32em">0.015</text></g><g class="tick" opacity="1" transform="translate(0,187.03191489361703)"><line stroke="#000" x2="-6"></line><text fill="#000" x="-9" dy="0.32em">0.010</text></g><g class="tick" opacity="1" transform="translate(0,203.7659574468085)"><line stroke="#000" x2="-6"></line><text fill="#000" x="-9" dy="0.32em">0.005</text></g><g class="tick" opacity="1" transform="translate(0,220.5)"><line stroke="#000" x2="-6"></line><text fill="#000" x="-9" dy="0.32em">0.000</text></g></g><line x1="100" y1="310" x2="480" y2="310" style="stroke: black;"></line><text class="barname" x="110.25581395348837" y="330" transform="rotate(90,110.25581395348837,330)  " style="font-family: sans-serif; font-size: 8pt; text-anchor: middle;">22</text><text class="barname" x="127.93023255813955" y="330" transform="rotate(90,127.93023255813955,330)  " style="font-family: sans-serif; font-size: 8pt; text-anchor: middle;">24</text><text class="barname" x="145.6046511627907" y="330" transform="rotate(90,145.6046511627907,330)  " style="font-family: sans-serif; font-size: 8pt; text-anchor: middle;">26</text><text class="barname" x="163.27906976744185" y="330" transform="rotate(90,163.27906976744185,330)  " style="font-family: sans-serif; font-size: 8pt; text-anchor: middle;">28</text><text class="barname" x="180.95348837209303" y="330" transform="rotate(90,180.95348837209303,330)  " style="font-family: sans-serif; font-size: 8pt; text-anchor: middle;">30</text><text class="barname" x="198.62790697674419" y="330" transform="rotate(90,198.62790697674419,330)  " style="font-family: sans-serif; font-size: 8pt; text-anchor: middle;">32</text><text class="barname" x="216.30232558139534" y="330" transform="rotate(90,216.30232558139534,330)  " style="font-family: sans-serif; font-size: 8pt; text-anchor: middle;">34</text><text class="barname" x="233.97674418604652" y="330" transform="rotate(90,233.97674418604652,330)  " style="font-family: sans-serif; font-size: 8pt; text-anchor: middle;">36</text><text class="barname" x="251.6511627906977" y="330" transform="rotate(90,251.6511627906977,330)  " style="font-family: sans-serif; font-size: 8pt; text-anchor: middle;">38</text><text class="barname" x="269.3255813953488" y="330" transform="rotate(90,269.3255813953488,330)  " style="font-family: sans-serif; font-size: 8pt; text-anchor: middle;">40</text><text class="barname" x="287" y="330" transform="rotate(90,287,330)  " style="font-family: sans-serif; font-size: 8pt; text-anchor: middle;">42</text><text class="barname" x="304.6744186046512" y="330" transform="rotate(90,304.6744186046512,330)  " style="font-family: sans-serif; font-size: 8pt; text-anchor: middle;">44</text><text class="barname" x="322.3488372093023" y="330" transform="rotate(90,322.3488372093023,330)  " style="font-family: sans-serif; font-size: 8pt; text-anchor: middle;">46</text><text class="barname" x="340.0232558139535" y="330" transform="rotate(90,340.0232558139535,330)  " style="font-family: sans-serif; font-size: 8pt; text-anchor: middle;">48</text><text class="barname" x="357.69767441860466" y="330" transform="rotate(90,357.69767441860466,330)  " style="font-family: sans-serif; font-size: 8pt; text-anchor: middle;">50</text><text class="barname" x="375.37209302325584" y="330" transform="rotate(90,375.37209302325584,330)  " style="font-family: sans-serif; font-size: 8pt; text-anchor: middle;">52</text><text class="barname" x="393.04651162790697" y="330" transform="rotate(90,393.04651162790697,330)  " style="font-family: sans-serif; font-size: 8pt; text-anchor: middle;">54</text><text class="barname" x="410.72093023255815" y="330" transform="rotate(90,410.72093023255815,330)  " style="font-family: sans-serif; font-size: 8pt; text-anchor: middle;">56</text><text class="barname" x="428.3953488372093" y="330" transform="rotate(90,428.3953488372093,330)  " style="font-family: sans-serif; font-size: 8pt; text-anchor: middle;">58</text><text class="barname" x="446.06976744186045" y="330" transform="rotate(90,446.06976744186045,330)  " style="font-family: sans-serif; font-size: 8pt; text-anchor: middle;">60</text><text class="barname" x="463.74418604651163" y="330" transform="rotate(90,463.74418604651163,330)  " style="font-family: sans-serif; font-size: 8pt; text-anchor: middle;">62</text><rect height="1.9503546099290783" width="5.891472868217054" x="101.47286821705427" y="308.0496453900709" style="fill: rgb(0, 85, 255);"></rect><rect height="1.9503546099290783" width="5.891472868217054" x="110.31007751937985" y="308.0496453900709" style="fill: rgb(0, 85, 255);"></rect><rect height="3.9007092198581566" width="5.891472868217054" x="119.14728682170544" y="306.09929078014187" style="fill: rgb(0, 85, 255);"></rect><rect height="5.851063829787234" width="5.891472868217054" x="127.98449612403101" y="304.1489361702128" style="fill: rgb(0, 85, 255);"></rect><rect height="9.751773049645392" width="5.891472868217054" x="136.8217054263566" y="300.2482269503546" style="fill: rgb(0, 85, 255);"></rect><rect height="13.652482269503547" width="5.891472868217054" x="145.6589147286822" y="296.34751773049646" style="fill: rgb(0, 85, 255);"></rect><rect height="21.45390070921986" width="5.891472868217054" x="154.49612403100775" y="288.54609929078015" style="fill: rgb(0, 85, 255);"></rect><rect height="27.304964539007095" width="5.891472868217054" x="163.33333333333334" y="282.6950354609929" style="fill: rgb(0, 85, 255);"></rect><rect height="37.05673758865249" width="5.891472868217054" x="172.17054263565893" y="272.9432624113475" style="fill: rgb(0, 85, 255);"></rect><rect height="46.808510638297875" width="5.891472868217054" x="181.0077519379845" y="263.1914893617021" style="fill: rgb(0, 85, 255);"></rect><rect height="60.46099290780142" width="5.891472868217054" x="189.84496124031008" y="249.53900709219857" style="fill: rgb(0, 85, 255);"></rect><rect height="72.16312056737588" width="5.891472868217054" x="198.68217054263567" y="237.83687943262413" style="fill: rgb(0, 85, 255);"></rect><rect height="89.7163120567376" width="5.891472868217054" x="207.51937984496124" y="220.2836879432624" style="fill: rgb(0, 85, 255);"></rect><rect height="101.41843971631207" width="5.891472868217054" x="216.35658914728683" y="208.58156028368793" style="fill: rgb(0, 85, 255);"></rect><rect height="118.97163120567376" width="5.891472868217054" x="225.19379844961242" y="191.02836879432624" style="fill: rgb(0, 85, 255);"></rect><rect height="132.62411347517732" width="5.891472868217054" x="234.03100775193798" y="177.37588652482268" style="fill: rgb(0, 85, 255);"></rect><rect height="148.22695035460995" width="5.891472868217054" x="242.86821705426357" y="161.77304964539005" style="fill: rgb(0, 85, 255);"></rect><rect height="157.97872340425533" width="5.891472868217054" x="251.70542635658916" y="152.02127659574467" style="fill: rgb(0, 85, 255);"></rect><rect height="171.63120567375887" width="5.891472868217054" x="260.5426356589147" y="138.36879432624113" style="fill: rgb(0, 85, 255);"></rect><rect height="175.53191489361703" width="5.891472868217054" x="269.37984496124034" y="134.46808510638297" style="fill: rgb(0, 85, 255);"></rect><rect height="183.33333333333334" width="5.891472868217054" x="278.2170542635659" y="126.66666666666666" style="fill: rgb(0, 85, 255);"></rect><rect height="183.33333333333334" width="5.891472868217054" x="287.05426356589146" y="126.66666666666666" style="fill: rgb(0, 85, 255);"></rect><rect height="183.33333333333334" width="5.891472868217054" x="295.8914728682171" y="126.66666666666666" style="fill: rgb(0, 85, 255);"></rect><rect height="175.53191489361703" width="5.891472868217054" x="304.72868217054264" y="134.46808510638297" style="fill: rgb(0, 85, 255);"></rect><rect height="171.63120567375887" width="5.891472868217054" x="313.5658914728682" y="138.36879432624113" style="fill: rgb(0, 85, 255);"></rect><rect height="157.97872340425533" width="5.891472868217054" x="322.4031007751938" y="152.02127659574467" style="fill: rgb(0, 85, 255);"></rect><rect height="148.22695035460995" width="5.891472868217054" x="331.2403100775194" y="161.77304964539005" style="fill: rgb(0, 85, 255);"></rect><rect height="132.62411347517732" width="5.891472868217054" x="340.07751937984494" y="177.37588652482268" style="fill: rgb(0, 85, 255);"></rect><rect height="118.97163120567376" width="5.891472868217054" x="348.91472868217056" y="191.02836879432624" style="fill: rgb(0, 85, 255);"></rect><rect height="101.41843971631207" width="5.891472868217054" x="357.7519379844961" y="208.58156028368793" style="fill: rgb(0, 85, 255);"></rect><rect height="89.7163120567376" width="5.891472868217054" x="366.5891472868217" y="220.2836879432624" style="fill: rgb(0, 85, 255);"></rect><rect height="72.16312056737588" width="5.891472868217054" x="375.4263565891473" y="237.83687943262413" style="fill: rgb(0, 85, 255);"></rect><rect height="60.46099290780142" width="5.891472868217054" x="384.26356589147287" y="249.53900709219857" style="fill: rgb(0, 85, 255);"></rect><rect height="46.808510638297875" width="5.891472868217054" x="393.1007751937984" y="263.1914893617021" style="fill: rgb(0, 85, 255);"></rect><rect height="37.05673758865249" width="5.891472868217054" x="401.93798449612405" y="272.9432624113475" style="fill: rgb(0, 85, 255);"></rect><rect height="27.304964539007095" width="5.891472868217054" x="410.7751937984496" y="282.6950354609929" style="fill: rgb(0, 85, 255);"></rect><rect height="21.45390070921986" width="5.891472868217054" x="419.61240310077517" y="288.54609929078015" style="fill: rgb(0, 85, 255);"></rect><rect height="13.652482269503547" width="5.891472868217054" x="428.4496124031008" y="296.34751773049646" style="fill: rgb(0, 85, 255);"></rect><rect height="9.751773049645392" width="5.891472868217054" x="437.28682170542635" y="300.2482269503546" style="fill: rgb(0, 85, 255);"></rect><rect height="5.851063829787234" width="5.891472868217054" x="446.1240310077519" y="304.1489361702128" style="fill: rgb(0, 85, 255);"></rect><rect height="3.9007092198581566" width="5.891472868217054" x="454.9612403100775" y="306.09929078014187" style="fill: rgb(0, 85, 255);"></rect><rect height="1.9503546099290783" width="5.891472868217054" x="463.7984496124031" y="308.0496453900709" style="fill: rgb(0, 85, 255);"></rect><rect height="1.9503546099290783" width="5.891472868217054" x="472.63565891472865" y="308.0496453900709" style="fill: rgb(0, 85, 255);"></rect><line x1="236.97674418604652" y1="110" x2="236.97674418604652" y2="355" style="stroke: green; stroke-width: 2px;"></line><text x="236.97674418604652" y="370" style="font-size: 9pt; stroke: green; text-anchor: middle;">R₂ = 36</text><text x="231.97674418604652" y="385" style="font-size: 9pt; stroke: green; text-anchor: end;">P(X ≤ R₂) = 0.2226</text><text x="241.97674418604652" y="385" style="font-size: 9pt; stroke: green; text-anchor: start;">P(X ≥ R₂) = 0.8170</text><line x1="166.27906976744188" y1="220" x2="166.27906976744188" y2="340" style="stroke: red; stroke-width: 1px;"></line><text x="166.27906976744188" y="350" style="font-size: 9pt; stroke: red; text-anchor: middle;">28</text><text x="161.27906976744188" y="290" style="font-size: 9pt; stroke: red; text-anchor: end;">0.0256</text><line x1="413.72093023255815" y1="220" x2="413.72093023255815" y2="340" style="stroke: red; stroke-width: 1px;"></line><text x="413.72093023255815" y="350" style="font-size: 9pt; stroke: red; text-anchor: middle;">56</text><text x="418.72093023255815" y="290" style="font-size: 9pt; stroke: red; text-anchor: start;">0.0256</text></svg>