<?xml version="1.0" encoding="UTF-8"?>
<!DOCTYPE svg PUBLIC "-//W3C//DTD SVG 1.1//EN" "http://www.w3.org/Graphics/SVG/1.1/DTD/svg11.dtd">
<svg xmlns="http://www.w3.org/2000/svg" version="1.1" viewBox="0 0 45 45" stroke="none">
	<rect width="100%" height="100%" fill="#FFFFFF"/>
	<path d="M4,4h1v1h-1z M5,4h1v1h-1z M6,4h1v1h-1z M7,4h1v1h-1z M8,4h1v1h-1z M9,4h1v1h-1z M10,4h1v1h-1z M13,4h1v1h-1z M15,4h1v1h-1z M16,4h1v1h-1z M17,4h1v1h-1z M18,4h1v1h-1z M20,4h1v1h-1z M21,4h1v1h-1z M22,4h1v1h-1z M26,4h1v1h-1z M28,4h1v1h-1z M30,4h1v1h-1z M32,4h1v1h-1z M34,4h1v1h-1z M35,4h1v1h-1z M36,4h1v1h-1z M37,4h1v1h-1z M38,4h1v1h-1z M39,4h1v1h-1z M40,4h1v1h-1z M4,5h1v1h-1z M10,5h1v1h-1z M12,5h1v1h-1z M14,5h1v1h-1z M16,5h1v1h-1z M17,5h1v1h-1z M18,5h1v1h-1z M19,5h1v1h-1z M21,5h1v1h-1z M25,5h1v1h-1z M26,5h1v1h-1z M27,5h1v1h-1z M29,5h1v1h-1z M30,5h1v1h-1z M31,5h1v1h-1z M34,5h1v1h-1z M40,5h1v1h-1z M4,6h1v1h-1z M6,6h1v1h-1z M7,6h1v1h-1z M8,6h1v1h-1z M10,6h1v1h-1z M14,6h1v1h-1z M16,6h1v1h-1z M18,6h1v1h-1z M19,6h1v1h-1z M20,6h1v1h-1z M23,6h1v1h-1z M26,6h1v1h-1z M27,6h1v1h-1z M28,6h1v1h-1z M30,6h1v1h-1z M31,6h1v1h-1z M32,6h1v1h-1z M34,6h1v1h-1z M36,6h1v1h-1z M37,6h1v1h-1z M38,6h1v1h-1z M40,6h1v1h-1z M4,7h1v1h-1z M6,7h1v1h-1z M7,7h1v1h-1z M8,7h1v1h-1z M10,7h1v1h-1z M13,7h1v1h-1z M15,7h1v1h-1z M19,7h1v1h-1z M20,7h1v1h-1z M24,7h1v1h-1z M28,7h1v1h-1z M32,7h1v1h-1z M34,7h1v1h-1z M36,7h1v1h-1z M37,7h1v1h-1z M38,7h1v1h-1z M40,7h1v1h-1z M4,8h1v1h-1z M6,8h1v1h-1z M7,8h1v1h-1z M8,8h1v1h-1z M10,8h1v1h-1z M12,8h1v1h-1z M13,8h1v1h-1z M15,8h1v1h-1z M16,8h1v1h-1z M17,8h1v1h-1z M18,8h1v1h-1z M23,8h1v1h-1z M24,8h1v1h-1z M25,8h1v1h-1z M26,8h1v1h-1z M27,8h1v1h-1z M29,8h1v1h-1z M30,8h1v1h-1z M31,8h1v1h-1z M34,8h1v1h-1z M36,8h1v1h-1z M37,8h1v1h-1z M38,8h1v1h-1z M40,8h1v1h-1z M4,9h1v1h-1z M10,9h1v1h-1z M14,9h1v1h-1z M21,9h1v1h-1z M23,9h1v1h-1z M24,9h1v1h-1z M26,9h1v1h-1z M27,9h1v1h-1z M28,9h1v1h-1z M31,9h1v1h-1z M32,9h1v1h-1z M34,9h1v1h-1z M40,9h1v1h-1z M4,10h1v1h-1z M5,10h1v1h-1z M6,10h1v1h-1z M7,10h1v1h-1z M8,10h1v1h-1z M9,10h1v1h-1z M10,10h1v1h-1z M12,10h1v1h-1z M14,10h1v1h-1z M16,10h1v1h-1z M18,10h1v1h-1z M20,10h1v1h-1z M22,10h1v1h-1z M24,10h1v1h-1z M26,10h1v1h-1z M28,10h1v1h-1z M30,10h1v1h-1z M32,10h1v1h-1z M34,10h1v1h-1z M35,10h1v1h-1z M36,10h1v1h-1z M37,10h1v1h-1z M38,10h1v1h-1z M39,10h1v1h-1z M40,10h1v1h-1z M13,11h1v1h-1z M15,11h1v1h-1z M21,11h1v1h-1z M22,11h1v1h-1z M24,11h1v1h-1z M27,11h1v1h-1z M29,11h1v1h-1z M31,11h1v1h-1z M4,12h1v1h-1z M6,12h1v1h-1z M8,12h1v1h-1z M10,12h1v1h-1z M13,12h1v1h-1z M15,12h1v1h-1z M16,12h1v1h-1z M17,12h1v1h-1z M18,12h1v1h-1z M19,12h1v1h-1z M20,12h1v1h-1z M22,12h1v1h-1z M23,12h1v1h-1z M28,12h1v1h-1z M30,12h1v1h-1z M32,12h1v1h-1z M36,12h1v1h-1z M39,12h1v1h-1z M5,13h1v1h-1z M6,13h1v1h-1z M7,13h1v1h-1z M8,13h1v1h-1z M11,13h1v1h-1z M12,13h1v1h-1z M14,13h1v1h-1z M16,13h1v1h-1z M17,13h1v1h-1z M18,13h1v1h-1z M19,13h1v1h-1z M20,13h1v1h-1z M22,13h1v1h-1z M23,13h1v1h-1z M27,13h1v1h-1z M31,13h1v1h-1z M33,13h1v1h-1z M35,13h1v1h-1z M37,13h1v1h-1z M38,13h1v1h-1z M40,13h1v1h-1z M5,14h1v1h-1z M6,14h1v1h-1z M7,14h1v1h-1z M8,14h1v1h-1z M9,14h1v1h-1z M10,14h1v1h-1z M12,14h1v1h-1z M13,14h1v1h-1z M14,14h1v1h-1z M17,14h1v1h-1z M19,14h1v1h-1z M20,14h1v1h-1z M22,14h1v1h-1z M25,14h1v1h-1z M28,14h1v1h-1z M29,14h1v1h-1z M32,14h1v1h-1z M33,14h1v1h-1z M34,14h1v1h-1z M35,14h1v1h-1z M36,14h1v1h-1z M37,14h1v1h-1z M38,14h1v1h-1z M39,14h1v1h-1z M40,14h1v1h-1z M4,15h1v1h-1z M5,15h1v1h-1z M7,15h1v1h-1z M11,15h1v1h-1z M15,15h1v1h-1z M20,15h1v1h-1z M21,15h1v1h-1z M23,15h1v1h-1z M25,15h1v1h-1z M26,15h1v1h-1z M29,15h1v1h-1z M34,15h1v1h-1z M36,15h1v1h-1z M39,15h1v1h-1z M4,16h1v1h-1z M6,16h1v1h-1z M7,16h1v1h-1z M9,16h1v1h-1z M10,16h1v1h-1z M11,16h1v1h-1z M14,16h1v1h-1z M19,16h1v1h-1z M20,16h1v1h-1z M21,16h1v1h-1z M22,16h1v1h-1z M24,16h1v1h-1z M25,16h1v1h-1z M27,16h1v1h-1z M28,16h1v1h-1z M29,16h1v1h-1z M31,16h1v1h-1z M32,16h1v1h-1z M33,16h1v1h-1z M34,16h1v1h-1z M35,16h1v1h-1z M37,16h1v1h-1z M39,16h1v1h-1z M40,16h1v1h-1z M5,17h1v1h-1z M6,17h1v1h-1z M7,17h1v1h-1z M8,17h1v1h-1z M9,17h1v1h-1z M11,17h1v1h-1z M15,17h1v1h-1z M16,17h1v1h-1z M17,17h1v1h-1z M20,17h1v1h-1z M22,17h1v1h-1z M25,17h1v1h-1z M28,17h1v1h-1z M32,17h1v1h-1z M34,17h1v1h-1z M39,17h1v1h-1z M40,17h1v1h-1z M5,18h1v1h-1z M7,18h1v1h-1z M9,18h1v1h-1z M10,18h1v1h-1z M12,18h1v1h-1z M13,18h1v1h-1z M14,18h1v1h-1z M15,18h1v1h-1z M21,18h1v1h-1z M26,18h1v1h-1z M28,18h1v1h-1z M29,18h1v1h-1z M30,18h1v1h-1z M32,18h1v1h-1z M35,18h1v1h-1z M38,18h1v1h-1z M39,18h1v1h-1z M40,18h1v1h-1z M5,19h1v1h-1z M6,19h1v1h-1z M8,19h1v1h-1z M15,19h1v1h-1z M16,19h1v1h-1z M17,19h1v1h-1z M18,19h1v1h-1z M23,19h1v1h-1z M24,19h1v1h-1z M25,19h1v1h-1z M26,19h1v1h-1z M27,19h1v1h-1z M28,19h1v1h-1z M29,19h1v1h-1z M31,19h1v1h-1z M32,19h1v1h-1z M33,19h1v1h-1z M34,19h1v1h-1z M39,19h1v1h-1z M4,20h1v1h-1z M9,20h1v1h-1z M10,20h1v1h-1z M18,20h1v1h-1z M19,20h1v1h-1z M24,20h1v1h-1z M26,20h1v1h-1z M28,20h1v1h-1z M30,20h1v1h-1z M32,20h1v1h-1z M34,20h1v1h-1z M37,20h1v1h-1z M39,20h1v1h-1z M40,20h1v1h-1z M6,21h1v1h-1z M8,21h1v1h-1z M9,21h1v1h-1z M11,21h1v1h-1z M12,21h1v1h-1z M19,21h1v1h-1z M21,21h1v1h-1z M23,21h1v1h-1z M24,21h1v1h-1z M25,21h1v1h-1z M26,21h1v1h-1z M27,21h1v1h-1z M31,21h1v1h-1z M33,21h1v1h-1z M37,21h1v1h-1z M40,21h1v1h-1z M5,22h1v1h-1z M6,22h1v1h-1z M7,22h1v1h-1z M10,22h1v1h-1z M12,22h1v1h-1z M13,22h1v1h-1z M17,22h1v1h-1z M18,22h1v1h-1z M22,22h1v1h-1z M23,22h1v1h-1z M24,22h1v1h-1z M28,22h1v1h-1z M32,22h1v1h-1z M33,22h1v1h-1z M34,22h1v1h-1z M36,22h1v1h-1z M37,22h1v1h-1z M39,22h1v1h-1z M40,22h1v1h-1z M4,23h1v1h-1z M5,23h1v1h-1z M6,23h1v1h-1z M7,23h1v1h-1z M9,23h1v1h-1z M11,23h1v1h-1z M13,23h1v1h-1z M15,23h1v1h-1z M16,23h1v1h-1z M19,23h1v1h-1z M21,23h1v1h-1z M24,23h1v1h-1z M25,23h1v1h-1z M26,23h1v1h-1z M29,23h1v1h-1z M30,23h1v1h-1z M34,23h1v1h-1z M39,23h1v1h-1z M4,24h1v1h-1z M6,24h1v1h-1z M7,24h1v1h-1z M10,24h1v1h-1z M16,24h1v1h-1z M17,24h1v1h-1z M18,24h1v1h-1z M20,24h1v1h-1z M23,24h1v1h-1z M27,24h1v1h-1z M29,24h1v1h-1z M31,24h1v1h-1z M34,24h1v1h-1z M35,24h1v1h-1z M37,24h1v1h-1z M4,25h1v1h-1z M5,25h1v1h-1z M8,25h1v1h-1z M9,25h1v1h-1z M12,25h1v1h-1z M14,25h1v1h-1z M15,25h1v1h-1z M16,25h1v1h-1z M17,25h1v1h-1z M20,25h1v1h-1z M21,25h1v1h-1z M23,25h1v1h-1z M24,25h1v1h-1z M26,25h1v1h-1z M28,25h1v1h-1z M32,25h1v1h-1z M33,25h1v1h-1z M34,25h1v1h-1z M37,25h1v1h-1z M39,25h1v1h-1z M4,26h1v1h-1z M6,26h1v1h-1z M8,26h1v1h-1z M10,26h1v1h-1z M12,26h1v1h-1z M15,26h1v1h-1z M17,26h1v1h-1z M22,26h1v1h-1z M24,26h1v1h-1z M25,26h1v1h-1z M29,26h1v1h-1z M30,26h1v1h-1z M35,26h1v1h-1z M38,26h1v1h-1z M39,26h1v1h-1z M40,26h1v1h-1z M6,27h1v1h-1z M7,27h1v1h-1z M9,27h1v1h-1z M12,27h1v1h-1z M14,27h1v1h-1z M15,27h1v1h-1z M17,27h1v1h-1z M18,27h1v1h-1z M21,27h1v1h-1z M22,27h1v1h-1z M23,27h1v1h-1z M24,27h1v1h-1z M29,27h1v1h-1z M33,27h1v1h-1z M34,27h1v1h-1z M36,27h1v1h-1z M37,27h1v1h-1z M39,27h1v1h-1z M4,28h1v1h-1z M10,28h1v1h-1z M15,28h1v1h-1z M16,28h1v1h-1z M20,28h1v1h-1z M22,28h1v1h-1z M28,28h1v1h-1z M30,28h1v1h-1z M32,28h1v1h-1z M34,28h1v1h-1z M35,28h1v1h-1z M37,28h1v1h-1z M39,28h1v1h-1z M5,29h1v1h-1z M6,29h1v1h-1z M7,29h1v1h-1z M11,29h1v1h-1z M13,29h1v1h-1z M15,29h1v1h-1z M16,29h1v1h-1z M18,29h1v1h-1z M19,29h1v1h-1z M20,29h1v1h-1z M22,29h1v1h-1z M23,29h1v1h-1z M25,29h1v1h-1z M27,29h1v1h-1z M29,29h1v1h-1z M31,29h1v1h-1z M33,29h1v1h-1z M39,29h1v1h-1z M40,29h1v1h-1z M4,30h1v1h-1z M6,30h1v1h-1z M7,30h1v1h-1z M8,30h1v1h-1z M10,30h1v1h-1z M11,30h1v1h-1z M16,30h1v1h-1z M17,30h1v1h-1z M19,30h1v1h-1z M20,30h1v1h-1z M21,30h1v1h-1z M22,30h1v1h-1z M25,30h1v1h-1z M26,30h1v1h-1z M28,30h1v1h-1z M32,30h1v1h-1z M33,30h1v1h-1z M36,30h1v1h-1z M38,30h1v1h-1z M39,30h1v1h-1z M40,30h1v1h-1z M5,31h1v1h-1z M7,31h1v1h-1z M11,31h1v1h-1z M14,31h1v1h-1z M15,31h1v1h-1z M16,31h1v1h-1z M18,31h1v1h-1z M20,31h1v1h-1z M21,31h1v1h-1z M22,31h1v1h-1z M23,31h1v1h-1z M25,31h1v1h-1z M26,31h1v1h-1z M29,31h1v1h-1z M30,31h1v1h-1z M33,31h1v1h-1z M34,31h1v1h-1z M35,31h1v1h-1z M36,31h1v1h-1z M37,31h1v1h-1z M40,31h1v1h-1z M4,32h1v1h-1z M7,32h1v1h-1z M8,32h1v1h-1z M10,32h1v1h-1z M12,32h1v1h-1z M13,32h1v1h-1z M17,32h1v1h-1z M19,32h1v1h-1z M21,32h1v1h-1z M25,32h1v1h-1z M27,32h1v1h-1z M29,32h1v1h-1z M30,32h1v1h-1z M31,32h1v1h-1z M32,32h1v1h-1z M33,32h1v1h-1z M34,32h1v1h-1z M35,32h1v1h-1z M36,32h1v1h-1z M40,32h1v1h-1z M12,33h1v1h-1z M13,33h1v1h-1z M17,33h1v1h-1z M18,33h1v1h-1z M20,33h1v1h-1z M22,33h1v1h-1z M24,33h1v1h-1z M25,33h1v1h-1z M26,33h1v1h-1z M28,33h1v1h-1z M32,33h1v1h-1z M36,33h1v1h-1z M37,33h1v1h-1z M38,33h1v1h-1z M39,33h1v1h-1z M40,33h1v1h-1z M4,34h1v1h-1z M5,34h1v1h-1z M6,34h1v1h-1z M7,34h1v1h-1z M8,34h1v1h-1z M9,34h1v1h-1z M10,34h1v1h-1z M13,34h1v1h-1z M14,34h1v1h-1z M15,34h1v1h-1z M21,34h1v1h-1z M26,34h1v1h-1z M29,34h1v1h-1z M30,34h1v1h-1z M31,34h1v1h-1z M32,34h1v1h-1z M34,34h1v1h-1z M36,34h1v1h-1z M39,34h1v1h-1z M40,34h1v1h-1z M4,35h1v1h-1z M10,35h1v1h-1z M13,35h1v1h-1z M16,35h1v1h-1z M17,35h1v1h-1z M18,35h1v1h-1z M19,35h1v1h-1z M20,35h1v1h-1z M23,35h1v1h-1z M25,35h1v1h-1z M26,35h1v1h-1z M27,35h1v1h-1z M28,35h1v1h-1z M29,35h1v1h-1z M32,35h1v1h-1z M36,35h1v1h-1z M37,35h1v1h-1z M4,36h1v1h-1z M6,36h1v1h-1z M7,36h1v1h-1z M8,36h1v1h-1z M10,36h1v1h-1z M12,36h1v1h-1z M24,36h1v1h-1z M26,36h1v1h-1z M28,36h1v1h-1z M30,36h1v1h-1z M32,36h1v1h-1z M33,36h1v1h-1z M34,36h1v1h-1z M35,36h1v1h-1z M36,36h1v1h-1z M40,36h1v1h-1z M4,37h1v1h-1z M6,37h1v1h-1z M7,37h1v1h-1z M8,37h1v1h-1z M10,37h1v1h-1z M13,37h1v1h-1z M14,37h1v1h-1z M15,37h1v1h-1z M16,37h1v1h-1z M18,37h1v1h-1z M19,37h1v1h-1z M21,37h1v1h-1z M23,37h1v1h-1z M24,37h1v1h-1z M25,37h1v1h-1z M26,37h1v1h-1z M27,37h1v1h-1z M35,37h1v1h-1z M36,37h1v1h-1z M38,37h1v1h-1z M39,37h1v1h-1z M4,38h1v1h-1z M6,38h1v1h-1z M7,38h1v1h-1z M8,38h1v1h-1z M10,38h1v1h-1z M12,38h1v1h-1z M13,38h1v1h-1z M15,38h1v1h-1z M17,38h1v1h-1z M18,38h1v1h-1z M21,38h1v1h-1z M22,38h1v1h-1z M23,38h1v1h-1z M24,38h1v1h-1z M28,38h1v1h-1z M29,38h1v1h-1z M31,38h1v1h-1z M32,38h1v1h-1z M36,38h1v1h-1z M39,38h1v1h-1z M40,38h1v1h-1z M4,39h1v1h-1z M10,39h1v1h-1z M13,39h1v1h-1z M15,39h1v1h-1z M19,39h1v1h-1z M21,39h1v1h-1z M24,39h1v1h-1z M25,39h1v1h-1z M29,39h1v1h-1z M30,39h1v1h-1z M31,39h1v1h-1z M33,39h1v1h-1z M34,39h1v1h-1z M36,39h1v1h-1z M39,39h1v1h-1z M4,40h1v1h-1z M5,40h1v1h-1z M6,40h1v1h-1z M7,40h1v1h-1z M8,40h1v1h-1z M9,40h1v1h-1z M10,40h1v1h-1z M12,40h1v1h-1z M13,40h1v1h-1z M15,40h1v1h-1z M16,40h1v1h-1z M21,40h1v1h-1z M23,40h1v1h-1z M24,40h1v1h-1z M25,40h1v1h-1z M27,40h1v1h-1z M28,40h1v1h-1z M29,40h1v1h-1z M32,40h1v1h-1z M35,40h1v1h-1z M39,40h1v1h-1z M40,40h1v1h-1z" fill="#000000"/>
</svg>