<?xml version="1.0" encoding="UTF-8"?>
<!DOCTYPE svg PUBLIC "-//W3C//DTD SVG 1.1//EN" "http://www.w3.org/Graphics/SVG/1.1/DTD/svg11.dtd">
<svg xmlns="http://www.w3.org/2000/svg" version="1.1" viewBox="0 0 57 57" stroke="none">
	<rect width="100%" height="100%" fill="#FFFFFF"/>
	<path d="M4,4h1v1h-1z M5,4h1v1h-1z M6,4h1v1h-1z M7,4h1v1h-1z M8,4h1v1h-1z M9,4h1v1h-1z M10,4h1v1h-1z M12,4h1v1h-1z M13,4h1v1h-1z M16,4h1v1h-1z M21,4h1v1h-1z M22,4h1v1h-1z M23,4h1v1h-1z M24,4h1v1h-1z M25,4h1v1h-1z M27,4h1v1h-1z M31,4h1v1h-1z M32,4h1v1h-1z M33,4h1v1h-1z M34,4h1v1h-1z M35,4h1v1h-1z M39,4h1v1h-1z M41,4h1v1h-1z M44,4h1v1h-1z M46,4h1v1h-1z M47,4h1v1h-1z M48,4h1v1h-1z M49,4h1v1h-1z M50,4h1v1h-1z M51,4h1v1h-1z M52,4h1v1h-1z M4,5h1v1h-1z M10,5h1v1h-1z M12,5h1v1h-1z M13,5h1v1h-1z M14,5h1v1h-1z M15,5h1v1h-1z M17,5h1v1h-1z M20,5h1v1h-1z M21,5h1v1h-1z M22,5h1v1h-1z M23,5h1v1h-1z M25,5h1v1h-1z M26,5h1v1h-1z M28,5h1v1h-1z M30,5h1v1h-1z M32,5h1v1h-1z M33,5h1v1h-1z M34,5h1v1h-1z M35,5h1v1h-1z M36,5h1v1h-1z M37,5h1v1h-1z M38,5h1v1h-1z M41,5h1v1h-1z M42,5h1v1h-1z M43,5h1v1h-1z M44,5h1v1h-1z M46,5h1v1h-1z M52,5h1v1h-1z M4,6h1v1h-1z M6,6h1v1h-1z M7,6h1v1h-1z M8,6h1v1h-1z M10,6h1v1h-1z M16,6h1v1h-1z M17,6h1v1h-1z M18,6h1v1h-1z M19,6h1v1h-1z M20,6h1v1h-1z M21,6h1v1h-1z M22,6h1v1h-1z M26,6h1v1h-1z M29,6h1v1h-1z M35,6h1v1h-1z M36,6h1v1h-1z M37,6h1v1h-1z M38,6h1v1h-1z M40,6h1v1h-1z M41,6h1v1h-1z M43,6h1v1h-1z M44,6h1v1h-1z M46,6h1v1h-1z M48,6h1v1h-1z M49,6h1v1h-1z M50,6h1v1h-1z M52,6h1v1h-1z M4,7h1v1h-1z M6,7h1v1h-1z M7,7h1v1h-1z M8,7h1v1h-1z M10,7h1v1h-1z M12,7h1v1h-1z M13,7h1v1h-1z M14,7h1v1h-1z M15,7h1v1h-1z M18,7h1v1h-1z M20,7h1v1h-1z M22,7h1v1h-1z M25,7h1v1h-1z M27,7h1v1h-1z M29,7h1v1h-1z M30,7h1v1h-1z M33,7h1v1h-1z M35,7h1v1h-1z M37,7h1v1h-1z M39,7h1v1h-1z M40,7h1v1h-1z M43,7h1v1h-1z M46,7h1v1h-1z M48,7h1v1h-1z M49,7h1v1h-1z M50,7h1v1h-1z M52,7h1v1h-1z M4,8h1v1h-1z M6,8h1v1h-1z M7,8h1v1h-1z M8,8h1v1h-1z M10,8h1v1h-1z M13,8h1v1h-1z M21,8h1v1h-1z M23,8h1v1h-1z M26,8h1v1h-1z M27,8h1v1h-1z M28,8h1v1h-1z M29,8h1v1h-1z M30,8h1v1h-1z M31,8h1v1h-1z M32,8h1v1h-1z M39,8h1v1h-1z M40,8h1v1h-1z M41,8h1v1h-1z M46,8h1v1h-1z M48,8h1v1h-1z M49,8h1v1h-1z M50,8h1v1h-1z M52,8h1v1h-1z M4,9h1v1h-1z M10,9h1v1h-1z M13,9h1v1h-1z M14,9h1v1h-1z M15,9h1v1h-1z M16,9h1v1h-1z M17,9h1v1h-1z M18,9h1v1h-1z M19,9h1v1h-1z M20,9h1v1h-1z M23,9h1v1h-1z M24,9h1v1h-1z M26,9h1v1h-1z M30,9h1v1h-1z M32,9h1v1h-1z M33,9h1v1h-1z M34,9h1v1h-1z M35,9h1v1h-1z M39,9h1v1h-1z M40,9h1v1h-1z M41,9h1v1h-1z M42,9h1v1h-1z M46,9h1v1h-1z M52,9h1v1h-1z M4,10h1v1h-1z M5,10h1v1h-1z M6,10h1v1h-1z M7,10h1v1h-1z M8,10h1v1h-1z M9,10h1v1h-1z M10,10h1v1h-1z M12,10h1v1h-1z M14,10h1v1h-1z M16,10h1v1h-1z M18,10h1v1h-1z M20,10h1v1h-1z M22,10h1v1h-1z M24,10h1v1h-1z M26,10h1v1h-1z M28,10h1v1h-1z M30,10h1v1h-1z M32,10h1v1h-1z M34,10h1v1h-1z M36,10h1v1h-1z M38,10h1v1h-1z M40,10h1v1h-1z M42,10h1v1h-1z M44,10h1v1h-1z M46,10h1v1h-1z M47,10h1v1h-1z M48,10h1v1h-1z M49,10h1v1h-1z M50,10h1v1h-1z M51,10h1v1h-1z M52,10h1v1h-1z M12,11h1v1h-1z M13,11h1v1h-1z M16,11h1v1h-1z M19,11h1v1h-1z M22,11h1v1h-1z M23,11h1v1h-1z M25,11h1v1h-1z M26,11h1v1h-1z M30,11h1v1h-1z M32,11h1v1h-1z M37,11h1v1h-1z M39,11h1v1h-1z M42,11h1v1h-1z M43,11h1v1h-1z M4,12h1v1h-1z M6,12h1v1h-1z M7,12h1v1h-1z M9,12h1v1h-1z M10,12h1v1h-1z M11,12h1v1h-1z M14,12h1v1h-1z M18,12h1v1h-1z M20,12h1v1h-1z M21,12h1v1h-1z M22,12h1v1h-1z M23,12h1v1h-1z M24,12h1v1h-1z M25,12h1v1h-1z M26,12h1v1h-1z M27,12h1v1h-1z M28,12h1v1h-1z M29,12h1v1h-1z M30,12h1v1h-1z M31,12h1v1h-1z M32,12h1v1h-1z M33,12h1v1h-1z M37,12h1v1h-1z M38,12h1v1h-1z M39,12h1v1h-1z M41,12h1v1h-1z M42,12h1v1h-1z M43,12h1v1h-1z M44,12h1v1h-1z M46,12h1v1h-1z M49,12h1v1h-1z M51,12h1v1h-1z M52,12h1v1h-1z M5,13h1v1h-1z M7,13h1v1h-1z M13,13h1v1h-1z M14,13h1v1h-1z M17,13h1v1h-1z M18,13h1v1h-1z M23,13h1v1h-1z M25,13h1v1h-1z M29,13h1v1h-1z M32,13h1v1h-1z M34,13h1v1h-1z M39,13h1v1h-1z M45,13h1v1h-1z M46,13h1v1h-1z M47,13h1v1h-1z M49,13h1v1h-1z M4,14h1v1h-1z M5,14h1v1h-1z M6,14h1v1h-1z M7,14h1v1h-1z M9,14h1v1h-1z M10,14h1v1h-1z M12,14h1v1h-1z M14,14h1v1h-1z M16,14h1v1h-1z M19,14h1v1h-1z M20,14h1v1h-1z M21,14h1v1h-1z M22,14h1v1h-1z M26,14h1v1h-1z M28,14h1v1h-1z M29,14h1v1h-1z M31,14h1v1h-1z M32,14h1v1h-1z M33,14h1v1h-1z M34,14h1v1h-1z M35,14h1v1h-1z M37,14h1v1h-1z M38,14h1v1h-1z M40,14h1v1h-1z M41,14h1v1h-1z M44,14h1v1h-1z M46,14h1v1h-1z M48,14h1v1h-1z M49,14h1v1h-1z M50,14h1v1h-1z M51,14h1v1h-1z M4,15h1v1h-1z M6,15h1v1h-1z M8,15h1v1h-1z M12,15h1v1h-1z M14,15h1v1h-1z M15,15h1v1h-1z M16,15h1v1h-1z M20,15h1v1h-1z M23,15h1v1h-1z M26,15h1v1h-1z M27,15h1v1h-1z M28,15h1v1h-1z M29,15h1v1h-1z M30,15h1v1h-1z M31,15h1v1h-1z M32,15h1v1h-1z M36,15h1v1h-1z M38,15h1v1h-1z M39,15h1v1h-1z M40,15h1v1h-1z M45,15h1v1h-1z M46,15h1v1h-1z M48,15h1v1h-1z M49,15h1v1h-1z M50,15h1v1h-1z M51,15h1v1h-1z M52,15h1v1h-1z M7,16h1v1h-1z M8,16h1v1h-1z M9,16h1v1h-1z M10,16h1v1h-1z M11,16h1v1h-1z M14,16h1v1h-1z M15,16h1v1h-1z M17,16h1v1h-1z M18,16h1v1h-1z M21,16h1v1h-1z M23,16h1v1h-1z M25,16h1v1h-1z M26,16h1v1h-1z M27,16h1v1h-1z M28,16h1v1h-1z M29,16h1v1h-1z M30,16h1v1h-1z M33,16h1v1h-1z M34,16h1v1h-1z M35,16h1v1h-1z M38,16h1v1h-1z M39,16h1v1h-1z M40,16h1v1h-1z M41,16h1v1h-1z M43,16h1v1h-1z M44,16h1v1h-1z M45,16h1v1h-1z M47,16h1v1h-1z M50,16h1v1h-1z M4,17h1v1h-1z M6,17h1v1h-1z M7,17h1v1h-1z M9,17h1v1h-1z M11,17h1v1h-1z M12,17h1v1h-1z M13,17h1v1h-1z M15,17h1v1h-1z M16,17h1v1h-1z M19,17h1v1h-1z M20,17h1v1h-1z M21,17h1v1h-1z M22,17h1v1h-1z M24,17h1v1h-1z M30,17h1v1h-1z M31,17h1v1h-1z M35,17h1v1h-1z M36,17h1v1h-1z M37,17h1v1h-1z M41,17h1v1h-1z M42,17h1v1h-1z M43,17h1v1h-1z M45,17h1v1h-1z M47,17h1v1h-1z M48,17h1v1h-1z M49,17h1v1h-1z M50,17h1v1h-1z M52,17h1v1h-1z M6,18h1v1h-1z M7,18h1v1h-1z M10,18h1v1h-1z M11,18h1v1h-1z M13,18h1v1h-1z M16,18h1v1h-1z M19,18h1v1h-1z M22,18h1v1h-1z M25,18h1v1h-1z M26,18h1v1h-1z M29,18h1v1h-1z M30,18h1v1h-1z M31,18h1v1h-1z M32,18h1v1h-1z M34,18h1v1h-1z M37,18h1v1h-1z M41,18h1v1h-1z M42,18h1v1h-1z M43,18h1v1h-1z M46,18h1v1h-1z M47,18h1v1h-1z M49,18h1v1h-1z M51,18h1v1h-1z M5,19h1v1h-1z M6,19h1v1h-1z M8,19h1v1h-1z M12,19h1v1h-1z M14,19h1v1h-1z M15,19h1v1h-1z M18,19h1v1h-1z M21,19h1v1h-1z M25,19h1v1h-1z M27,19h1v1h-1z M30,19h1v1h-1z M31,19h1v1h-1z M33,19h1v1h-1z M35,19h1v1h-1z M36,19h1v1h-1z M37,19h1v1h-1z M42,19h1v1h-1z M46,19h1v1h-1z M48,19h1v1h-1z M52,19h1v1h-1z M5,20h1v1h-1z M7,20h1v1h-1z M8,20h1v1h-1z M9,20h1v1h-1z M10,20h1v1h-1z M11,20h1v1h-1z M13,20h1v1h-1z M15,20h1v1h-1z M16,20h1v1h-1z M17,20h1v1h-1z M18,20h1v1h-1z M25,20h1v1h-1z M27,20h1v1h-1z M29,20h1v1h-1z M30,20h1v1h-1z M35,20h1v1h-1z M36,20h1v1h-1z M38,20h1v1h-1z M41,20h1v1h-1z M44,20h1v1h-1z M47,20h1v1h-1z M48,20h1v1h-1z M49,20h1v1h-1z M50,20h1v1h-1z M51,20h1v1h-1z M52,20h1v1h-1z M5,21h1v1h-1z M6,21h1v1h-1z M12,21h1v1h-1z M14,21h1v1h-1z M17,21h1v1h-1z M19,21h1v1h-1z M22,21h1v1h-1z M23,21h1v1h-1z M25,21h1v1h-1z M31,21h1v1h-1z M32,21h1v1h-1z M35,21h1v1h-1z M36,21h1v1h-1z M37,21h1v1h-1z M38,21h1v1h-1z M40,21h1v1h-1z M41,21h1v1h-1z M44,21h1v1h-1z M45,21h1v1h-1z M47,21h1v1h-1z M49,21h1v1h-1z M50,21h1v1h-1z M52,21h1v1h-1z M5,22h1v1h-1z M8,22h1v1h-1z M9,22h1v1h-1z M10,22h1v1h-1z M11,22h1v1h-1z M14,22h1v1h-1z M17,22h1v1h-1z M19,22h1v1h-1z M20,22h1v1h-1z M21,22h1v1h-1z M22,22h1v1h-1z M26,22h1v1h-1z M29,22h1v1h-1z M30,22h1v1h-1z M32,22h1v1h-1z M35,22h1v1h-1z M36,22h1v1h-1z M37,22h1v1h-1z M38,22h1v1h-1z M40,22h1v1h-1z M41,22h1v1h-1z M42,22h1v1h-1z M43,22h1v1h-1z M45,22h1v1h-1z M46,22h1v1h-1z M47,22h1v1h-1z M49,22h1v1h-1z M51,22h1v1h-1z M52,22h1v1h-1z M4,23h1v1h-1z M7,23h1v1h-1z M8,23h1v1h-1z M12,23h1v1h-1z M14,23h1v1h-1z M17,23h1v1h-1z M18,23h1v1h-1z M19,23h1v1h-1z M20,23h1v1h-1z M21,23h1v1h-1z M22,23h1v1h-1z M23,23h1v1h-1z M25,23h1v1h-1z M27,23h1v1h-1z M28,23h1v1h-1z M31,23h1v1h-1z M32,23h1v1h-1z M37,23h1v1h-1z M38,23h1v1h-1z M39,23h1v1h-1z M40,23h1v1h-1z M41,23h1v1h-1z M43,23h1v1h-1z M44,23h1v1h-1z M45,23h1v1h-1z M49,23h1v1h-1z M51,23h1v1h-1z M52,23h1v1h-1z M4,24h1v1h-1z M10,24h1v1h-1z M11,24h1v1h-1z M13,24h1v1h-1z M14,24h1v1h-1z M15,24h1v1h-1z M16,24h1v1h-1z M22,24h1v1h-1z M24,24h1v1h-1z M29,24h1v1h-1z M30,24h1v1h-1z M31,24h1v1h-1z M32,24h1v1h-1z M35,24h1v1h-1z M41,24h1v1h-1z M42,24h1v1h-1z M43,24h1v1h-1z M46,24h1v1h-1z M47,24h1v1h-1z M49,24h1v1h-1z M5,25h1v1h-1z M6,25h1v1h-1z M8,25h1v1h-1z M9,25h1v1h-1z M13,25h1v1h-1z M14,25h1v1h-1z M16,25h1v1h-1z M18,25h1v1h-1z M19,25h1v1h-1z M21,25h1v1h-1z M22,25h1v1h-1z M25,25h1v1h-1z M28,25h1v1h-1z M33,25h1v1h-1z M34,25h1v1h-1z M41,25h1v1h-1z M45,25h1v1h-1z M46,25h1v1h-1z M48,25h1v1h-1z M49,25h1v1h-1z M51,25h1v1h-1z M52,25h1v1h-1z M4,26h1v1h-1z M5,26h1v1h-1z M6,26h1v1h-1z M8,26h1v1h-1z M9,26h1v1h-1z M10,26h1v1h-1z M11,26h1v1h-1z M12,26h1v1h-1z M15,26h1v1h-1z M16,26h1v1h-1z M18,26h1v1h-1z M19,26h1v1h-1z M20,26h1v1h-1z M21,26h1v1h-1z M22,26h1v1h-1z M24,26h1v1h-1z M25,26h1v1h-1z M26,26h1v1h-1z M27,26h1v1h-1z M28,26h1v1h-1z M29,26h1v1h-1z M30,26h1v1h-1z M32,26h1v1h-1z M33,26h1v1h-1z M34,26h1v1h-1z M35,26h1v1h-1z M38,26h1v1h-1z M39,26h1v1h-1z M43,26h1v1h-1z M44,26h1v1h-1z M45,26h1v1h-1z M46,26h1v1h-1z M47,26h1v1h-1z M48,26h1v1h-1z M50,26h1v1h-1z M4,27h1v1h-1z M8,27h1v1h-1z M12,27h1v1h-1z M13,27h1v1h-1z M14,27h1v1h-1z M15,27h1v1h-1z M19,27h1v1h-1z M20,27h1v1h-1z M22,27h1v1h-1z M23,27h1v1h-1z M26,27h1v1h-1z M30,27h1v1h-1z M33,27h1v1h-1z M34,27h1v1h-1z M35,27h1v1h-1z M36,27h1v1h-1z M40,27h1v1h-1z M41,27h1v1h-1z M42,27h1v1h-1z M43,27h1v1h-1z M44,27h1v1h-1z M48,27h1v1h-1z M49,27h1v1h-1z M50,27h1v1h-1z M51,27h1v1h-1z M52,27h1v1h-1z M5,28h1v1h-1z M8,28h1v1h-1z M10,28h1v1h-1z M12,28h1v1h-1z M14,28h1v1h-1z M15,28h1v1h-1z M18,28h1v1h-1z M19,28h1v1h-1z M20,28h1v1h-1z M24,28h1v1h-1z M25,28h1v1h-1z M26,28h1v1h-1z M28,28h1v1h-1z M30,28h1v1h-1z M33,28h1v1h-1z M35,28h1v1h-1z M37,28h1v1h-1z M40,28h1v1h-1z M42,28h1v1h-1z M44,28h1v1h-1z M46,28h1v1h-1z M48,28h1v1h-1z M49,28h1v1h-1z M50,28h1v1h-1z M51,28h1v1h-1z M6,29h1v1h-1z M8,29h1v1h-1z M12,29h1v1h-1z M13,29h1v1h-1z M14,29h1v1h-1z M16,29h1v1h-1z M18,29h1v1h-1z M20,29h1v1h-1z M22,29h1v1h-1z M23,29h1v1h-1z M24,29h1v1h-1z M26,29h1v1h-1z M30,29h1v1h-1z M31,29h1v1h-1z M32,29h1v1h-1z M36,29h1v1h-1z M37,29h1v1h-1z M39,29h1v1h-1z M40,29h1v1h-1z M42,29h1v1h-1z M44,29h1v1h-1z M48,29h1v1h-1z M49,29h1v1h-1z M52,29h1v1h-1z M6,30h1v1h-1z M8,30h1v1h-1z M9,30h1v1h-1z M10,30h1v1h-1z M11,30h1v1h-1z M12,30h1v1h-1z M13,30h1v1h-1z M17,30h1v1h-1z M20,30h1v1h-1z M22,30h1v1h-1z M24,30h1v1h-1z M25,30h1v1h-1z M26,30h1v1h-1z M27,30h1v1h-1z M28,30h1v1h-1z M29,30h1v1h-1z M30,30h1v1h-1z M31,30h1v1h-1z M34,30h1v1h-1z M35,30h1v1h-1z M39,30h1v1h-1z M40,30h1v1h-1z M41,30h1v1h-1z M42,30h1v1h-1z M43,30h1v1h-1z M44,30h1v1h-1z M45,30h1v1h-1z M46,30h1v1h-1z M47,30h1v1h-1z M48,30h1v1h-1z M49,30h1v1h-1z M50,30h1v1h-1z M51,30h1v1h-1z M4,31h1v1h-1z M5,31h1v1h-1z M6,31h1v1h-1z M8,31h1v1h-1z M9,31h1v1h-1z M12,31h1v1h-1z M13,31h1v1h-1z M14,31h1v1h-1z M15,31h1v1h-1z M16,31h1v1h-1z M18,31h1v1h-1z M19,31h1v1h-1z M20,31h1v1h-1z M21,31h1v1h-1z M23,31h1v1h-1z M24,31h1v1h-1z M25,31h1v1h-1z M26,31h1v1h-1z M27,31h1v1h-1z M28,31h1v1h-1z M31,31h1v1h-1z M32,31h1v1h-1z M33,31h1v1h-1z M36,31h1v1h-1z M37,31h1v1h-1z M41,31h1v1h-1z M42,31h1v1h-1z M45,31h1v1h-1z M48,31h1v1h-1z M51,31h1v1h-1z M52,31h1v1h-1z M5,32h1v1h-1z M9,32h1v1h-1z M10,32h1v1h-1z M16,32h1v1h-1z M17,32h1v1h-1z M20,32h1v1h-1z M21,32h1v1h-1z M24,32h1v1h-1z M25,32h1v1h-1z M29,32h1v1h-1z M30,32h1v1h-1z M31,32h1v1h-1z M33,32h1v1h-1z M34,32h1v1h-1z M35,32h1v1h-1z M36,32h1v1h-1z M37,32h1v1h-1z M38,32h1v1h-1z M45,32h1v1h-1z M50,32h1v1h-1z M52,32h1v1h-1z M4,33h1v1h-1z M8,33h1v1h-1z M15,33h1v1h-1z M16,33h1v1h-1z M18,33h1v1h-1z M21,33h1v1h-1z M24,33h1v1h-1z M26,33h1v1h-1z M29,33h1v1h-1z M31,33h1v1h-1z M33,33h1v1h-1z M36,33h1v1h-1z M37,33h1v1h-1z M38,33h1v1h-1z M43,33h1v1h-1z M44,33h1v1h-1z M46,33h1v1h-1z M49,33h1v1h-1z M50,33h1v1h-1z M52,33h1v1h-1z M6,34h1v1h-1z M7,34h1v1h-1z M9,34h1v1h-1z M10,34h1v1h-1z M11,34h1v1h-1z M15,34h1v1h-1z M18,34h1v1h-1z M19,34h1v1h-1z M20,34h1v1h-1z M22,34h1v1h-1z M24,34h1v1h-1z M27,34h1v1h-1z M28,34h1v1h-1z M29,34h1v1h-1z M32,34h1v1h-1z M35,34h1v1h-1z M36,34h1v1h-1z M38,34h1v1h-1z M39,34h1v1h-1z M40,34h1v1h-1z M42,34h1v1h-1z M43,34h1v1h-1z M45,34h1v1h-1z M46,34h1v1h-1z M48,34h1v1h-1z M51,34h1v1h-1z M52,34h1v1h-1z M4,35h1v1h-1z M9,35h1v1h-1z M11,35h1v1h-1z M12,35h1v1h-1z M13,35h1v1h-1z M15,35h1v1h-1z M16,35h1v1h-1z M17,35h1v1h-1z M18,35h1v1h-1z M19,35h1v1h-1z M20,35h1v1h-1z M21,35h1v1h-1z M22,35h1v1h-1z M23,35h1v1h-1z M25,35h1v1h-1z M26,35h1v1h-1z M27,35h1v1h-1z M31,35h1v1h-1z M32,35h1v1h-1z M33,35h1v1h-1z M36,35h1v1h-1z M39,35h1v1h-1z M40,35h1v1h-1z M42,35h1v1h-1z M44,35h1v1h-1z M46,35h1v1h-1z M47,35h1v1h-1z M48,35h1v1h-1z M49,35h1v1h-1z M52,35h1v1h-1z M4,36h1v1h-1z M5,36h1v1h-1z M6,36h1v1h-1z M7,36h1v1h-1z M8,36h1v1h-1z M9,36h1v1h-1z M10,36h1v1h-1z M11,36h1v1h-1z M13,36h1v1h-1z M18,36h1v1h-1z M22,36h1v1h-1z M23,36h1v1h-1z M24,36h1v1h-1z M25,36h1v1h-1z M28,36h1v1h-1z M30,36h1v1h-1z M31,36h1v1h-1z M32,36h1v1h-1z M34,36h1v1h-1z M37,36h1v1h-1z M38,36h1v1h-1z M41,36h1v1h-1z M42,36h1v1h-1z M45,36h1v1h-1z M46,36h1v1h-1z M47,36h1v1h-1z M48,36h1v1h-1z M49,36h1v1h-1z M51,36h1v1h-1z M52,36h1v1h-1z M4,37h1v1h-1z M6,37h1v1h-1z M13,37h1v1h-1z M15,37h1v1h-1z M16,37h1v1h-1z M17,37h1v1h-1z M18,37h1v1h-1z M22,37h1v1h-1z M27,37h1v1h-1z M28,37h1v1h-1z M29,37h1v1h-1z M30,37h1v1h-1z M34,37h1v1h-1z M40,37h1v1h-1z M41,37h1v1h-1z M44,37h1v1h-1z M45,37h1v1h-1z M47,37h1v1h-1z M51,37h1v1h-1z M5,38h1v1h-1z M6,38h1v1h-1z M7,38h1v1h-1z M8,38h1v1h-1z M9,38h1v1h-1z M10,38h1v1h-1z M13,38h1v1h-1z M15,38h1v1h-1z M16,38h1v1h-1z M19,38h1v1h-1z M20,38h1v1h-1z M23,38h1v1h-1z M24,38h1v1h-1z M26,38h1v1h-1z M27,38h1v1h-1z M28,38h1v1h-1z M29,38h1v1h-1z M30,38h1v1h-1z M34,38h1v1h-1z M37,38h1v1h-1z M38,38h1v1h-1z M40,38h1v1h-1z M41,38h1v1h-1z M42,38h1v1h-1z M43,38h1v1h-1z M47,38h1v1h-1z M48,38h1v1h-1z M4,39h1v1h-1z M7,39h1v1h-1z M11,39h1v1h-1z M13,39h1v1h-1z M17,39h1v1h-1z M18,39h1v1h-1z M19,39h1v1h-1z M20,39h1v1h-1z M23,39h1v1h-1z M25,39h1v1h-1z M26,39h1v1h-1z M27,39h1v1h-1z M29,39h1v1h-1z M31,39h1v1h-1z M35,39h1v1h-1z M36,39h1v1h-1z M37,39h1v1h-1z M39,39h1v1h-1z M40,39h1v1h-1z M45,39h1v1h-1z M46,39h1v1h-1z M48,39h1v1h-1z M49,39h1v1h-1z M50,39h1v1h-1z M51,39h1v1h-1z M52,39h1v1h-1z M4,40h1v1h-1z M5,40h1v1h-1z M6,40h1v1h-1z M7,40h1v1h-1z M9,40h1v1h-1z M10,40h1v1h-1z M11,40h1v1h-1z M13,40h1v1h-1z M19,40h1v1h-1z M22,40h1v1h-1z M23,40h1v1h-1z M24,40h1v1h-1z M27,40h1v1h-1z M28,40h1v1h-1z M33,40h1v1h-1z M34,40h1v1h-1z M39,40h1v1h-1z M40,40h1v1h-1z M41,40h1v1h-1z M43,40h1v1h-1z M45,40h1v1h-1z M46,40h1v1h-1z M47,40h1v1h-1z M48,40h1v1h-1z M50,40h1v1h-1z M51,40h1v1h-1z M52,40h1v1h-1z M5,41h1v1h-1z M6,41h1v1h-1z M7,41h1v1h-1z M8,41h1v1h-1z M12,41h1v1h-1z M13,41h1v1h-1z M16,41h1v1h-1z M17,41h1v1h-1z M18,41h1v1h-1z M20,41h1v1h-1z M21,41h1v1h-1z M22,41h1v1h-1z M24,41h1v1h-1z M29,41h1v1h-1z M37,41h1v1h-1z M41,41h1v1h-1z M42,41h1v1h-1z M43,41h1v1h-1z M47,41h1v1h-1z M48,41h1v1h-1z M49,41h1v1h-1z M5,42h1v1h-1z M9,42h1v1h-1z M10,42h1v1h-1z M13,42h1v1h-1z M17,42h1v1h-1z M18,42h1v1h-1z M19,42h1v1h-1z M23,42h1v1h-1z M24,42h1v1h-1z M25,42h1v1h-1z M27,42h1v1h-1z M31,42h1v1h-1z M33,42h1v1h-1z M34,42h1v1h-1z M35,42h1v1h-1z M39,42h1v1h-1z M42,42h1v1h-1z M45,42h1v1h-1z M50,42h1v1h-1z M51,42h1v1h-1z M5,43h1v1h-1z M6,43h1v1h-1z M7,43h1v1h-1z M12,43h1v1h-1z M14,43h1v1h-1z M15,43h1v1h-1z M17,43h1v1h-1z M22,43h1v1h-1z M25,43h1v1h-1z M26,43h1v1h-1z M27,43h1v1h-1z M28,43h1v1h-1z M29,43h1v1h-1z M31,43h1v1h-1z M32,43h1v1h-1z M33,43h1v1h-1z M34,43h1v1h-1z M35,43h1v1h-1z M36,43h1v1h-1z M37,43h1v1h-1z M44,43h1v1h-1z M45,43h1v1h-1z M46,43h1v1h-1z M51,43h1v1h-1z M52,43h1v1h-1z M4,44h1v1h-1z M5,44h1v1h-1z M6,44h1v1h-1z M10,44h1v1h-1z M12,44h1v1h-1z M13,44h1v1h-1z M15,44h1v1h-1z M16,44h1v1h-1z M17,44h1v1h-1z M18,44h1v1h-1z M19,44h1v1h-1z M20,44h1v1h-1z M26,44h1v1h-1z M27,44h1v1h-1z M28,44h1v1h-1z M29,44h1v1h-1z M30,44h1v1h-1z M31,44h1v1h-1z M35,44h1v1h-1z M36,44h1v1h-1z M37,44h1v1h-1z M39,44h1v1h-1z M44,44h1v1h-1z M45,44h1v1h-1z M46,44h1v1h-1z M47,44h1v1h-1z M48,44h1v1h-1z M50,44h1v1h-1z M51,44h1v1h-1z M12,45h1v1h-1z M13,45h1v1h-1z M14,45h1v1h-1z M19,45h1v1h-1z M21,45h1v1h-1z M22,45h1v1h-1z M26,45h1v1h-1z M30,45h1v1h-1z M33,45h1v1h-1z M37,45h1v1h-1z M38,45h1v1h-1z M40,45h1v1h-1z M41,45h1v1h-1z M43,45h1v1h-1z M44,45h1v1h-1z M48,45h1v1h-1z M49,45h1v1h-1z M51,45h1v1h-1z M52,45h1v1h-1z M4,46h1v1h-1z M5,46h1v1h-1z M6,46h1v1h-1z M7,46h1v1h-1z M8,46h1v1h-1z M9,46h1v1h-1z M10,46h1v1h-1z M12,46h1v1h-1z M14,46h1v1h-1z M15,46h1v1h-1z M16,46h1v1h-1z M20,46h1v1h-1z M22,46h1v1h-1z M23,46h1v1h-1z M24,46h1v1h-1z M25,46h1v1h-1z M26,46h1v1h-1z M28,46h1v1h-1z M30,46h1v1h-1z M31,46h1v1h-1z M34,46h1v1h-1z M35,46h1v1h-1z M36,46h1v1h-1z M37,46h1v1h-1z M38,46h1v1h-1z M39,46h1v1h-1z M42,46h1v1h-1z M44,46h1v1h-1z M46,46h1v1h-1z M48,46h1v1h-1z M52,46h1v1h-1z M4,47h1v1h-1z M10,47h1v1h-1z M12,47h1v1h-1z M14,47h1v1h-1z M17,47h1v1h-1z M19,47h1v1h-1z M24,47h1v1h-1z M26,47h1v1h-1z M30,47h1v1h-1z M32,47h1v1h-1z M33,47h1v1h-1z M37,47h1v1h-1z M40,47h1v1h-1z M41,47h1v1h-1z M42,47h1v1h-1z M43,47h1v1h-1z M44,47h1v1h-1z M48,47h1v1h-1z M49,47h1v1h-1z M51,47h1v1h-1z M52,47h1v1h-1z M4,48h1v1h-1z M6,48h1v1h-1z M7,48h1v1h-1z M8,48h1v1h-1z M10,48h1v1h-1z M16,48h1v1h-1z M18,48h1v1h-1z M19,48h1v1h-1z M20,48h1v1h-1z M21,48h1v1h-1z M22,48h1v1h-1z M26,48h1v1h-1z M27,48h1v1h-1z M28,48h1v1h-1z M29,48h1v1h-1z M30,48h1v1h-1z M32,48h1v1h-1z M33,48h1v1h-1z M35,48h1v1h-1z M39,48h1v1h-1z M41,48h1v1h-1z M44,48h1v1h-1z M45,48h1v1h-1z M46,48h1v1h-1z M47,48h1v1h-1z M48,48h1v1h-1z M51,48h1v1h-1z M52,48h1v1h-1z M4,49h1v1h-1z M6,49h1v1h-1z M7,49h1v1h-1z M8,49h1v1h-1z M10,49h1v1h-1z M12,49h1v1h-1z M13,49h1v1h-1z M14,49h1v1h-1z M15,49h1v1h-1z M18,49h1v1h-1z M26,49h1v1h-1z M27,49h1v1h-1z M29,49h1v1h-1z M30,49h1v1h-1z M31,49h1v1h-1z M33,49h1v1h-1z M34,49h1v1h-1z M35,49h1v1h-1z M37,49h1v1h-1z M39,49h1v1h-1z M41,49h1v1h-1z M43,49h1v1h-1z M44,49h1v1h-1z M47,49h1v1h-1z M48,49h1v1h-1z M49,49h1v1h-1z M52,49h1v1h-1z M4,50h1v1h-1z M6,50h1v1h-1z M7,50h1v1h-1z M8,50h1v1h-1z M10,50h1v1h-1z M12,50h1v1h-1z M13,50h1v1h-1z M14,50h1v1h-1z M15,50h1v1h-1z M17,50h1v1h-1z M19,50h1v1h-1z M20,50h1v1h-1z M21,50h1v1h-1z M22,50h1v1h-1z M23,50h1v1h-1z M24,50h1v1h-1z M26,50h1v1h-1z M31,50h1v1h-1z M33,50h1v1h-1z M34,50h1v1h-1z M35,50h1v1h-1z M36,50h1v1h-1z M38,50h1v1h-1z M39,50h1v1h-1z M48,50h1v1h-1z M51,50h1v1h-1z M52,50h1v1h-1z M4,51h1v1h-1z M10,51h1v1h-1z M14,51h1v1h-1z M15,51h1v1h-1z M16,51h1v1h-1z M18,51h1v1h-1z M19,51h1v1h-1z M20,51h1v1h-1z M21,51h1v1h-1z M22,51h1v1h-1z M23,51h1v1h-1z M27,51h1v1h-1z M30,51h1v1h-1z M31,51h1v1h-1z M34,51h1v1h-1z M35,51h1v1h-1z M36,51h1v1h-1z M38,51h1v1h-1z M40,51h1v1h-1z M42,51h1v1h-1z M43,51h1v1h-1z M45,51h1v1h-1z M47,51h1v1h-1z M49,51h1v1h-1z M50,51h1v1h-1z M4,52h1v1h-1z M5,52h1v1h-1z M6,52h1v1h-1z M7,52h1v1h-1z M8,52h1v1h-1z M9,52h1v1h-1z M10,52h1v1h-1z M12,52h1v1h-1z M14,52h1v1h-1z M15,52h1v1h-1z M19,52h1v1h-1z M20,52h1v1h-1z M21,52h1v1h-1z M22,52h1v1h-1z M23,52h1v1h-1z M24,52h1v1h-1z M25,52h1v1h-1z M28,52h1v1h-1z M31,52h1v1h-1z M35,52h1v1h-1z M37,52h1v1h-1z M40,52h1v1h-1z M41,52h1v1h-1z M43,52h1v1h-1z M45,52h1v1h-1z M46,52h1v1h-1z M51,52h1v1h-1z M52,52h1v1h-1z" fill="#000000"/>
</svg>
