<?xml version="1.0" encoding="UTF-8"?>
<!DOCTYPE svg PUBLIC "-//W3C//DTD SVG 1.1//EN" "http://www.w3.org/Graphics/SVG/1.1/DTD/svg11.dtd">
<svg xmlns="http://www.w3.org/2000/svg" version="1.1" viewBox="0 0 49 49" stroke="none">
	<rect width="100%" height="100%" fill="#FFFFFF"/>
	<path d="M4,4h1v1h-1z M5,4h1v1h-1z M6,4h1v1h-1z M7,4h1v1h-1z M8,4h1v1h-1z M9,4h1v1h-1z M10,4h1v1h-1z M12,4h1v1h-1z M20,4h1v1h-1z M21,4h1v1h-1z M23,4h1v1h-1z M25,4h1v1h-1z M26,4h1v1h-1z M27,4h1v1h-1z M30,4h1v1h-1z M32,4h1v1h-1z M34,4h1v1h-1z M35,4h1v1h-1z M36,4h1v1h-1z M38,4h1v1h-1z M39,4h1v1h-1z M40,4h1v1h-1z M41,4h1v1h-1z M42,4h1v1h-1z M43,4h1v1h-1z M44,4h1v1h-1z M4,5h1v1h-1z M10,5h1v1h-1z M13,5h1v1h-1z M14,5h1v1h-1z M16,5h1v1h-1z M24,5h1v1h-1z M27,5h1v1h-1z M28,5h1v1h-1z M32,5h1v1h-1z M38,5h1v1h-1z M44,5h1v1h-1z M4,6h1v1h-1z M6,6h1v1h-1z M7,6h1v1h-1z M8,6h1v1h-1z M10,6h1v1h-1z M12,6h1v1h-1z M17,6h1v1h-1z M18,6h1v1h-1z M20,6h1v1h-1z M28,6h1v1h-1z M29,6h1v1h-1z M30,6h1v1h-1z M31,6h1v1h-1z M32,6h1v1h-1z M34,6h1v1h-1z M35,6h1v1h-1z M36,6h1v1h-1z M38,6h1v1h-1z M40,6h1v1h-1z M41,6h1v1h-1z M42,6h1v1h-1z M44,6h1v1h-1z M4,7h1v1h-1z M6,7h1v1h-1z M7,7h1v1h-1z M8,7h1v1h-1z M10,7h1v1h-1z M12,7h1v1h-1z M17,7h1v1h-1z M18,7h1v1h-1z M19,7h1v1h-1z M20,7h1v1h-1z M21,7h1v1h-1z M22,7h1v1h-1z M24,7h1v1h-1z M26,7h1v1h-1z M27,7h1v1h-1z M28,7h1v1h-1z M29,7h1v1h-1z M31,7h1v1h-1z M35,7h1v1h-1z M36,7h1v1h-1z M38,7h1v1h-1z M40,7h1v1h-1z M41,7h1v1h-1z M42,7h1v1h-1z M44,7h1v1h-1z M4,8h1v1h-1z M6,8h1v1h-1z M7,8h1v1h-1z M8,8h1v1h-1z M10,8h1v1h-1z M12,8h1v1h-1z M13,8h1v1h-1z M17,8h1v1h-1z M18,8h1v1h-1z M19,8h1v1h-1z M20,8h1v1h-1z M22,8h1v1h-1z M23,8h1v1h-1z M24,8h1v1h-1z M25,8h1v1h-1z M28,8h1v1h-1z M30,8h1v1h-1z M31,8h1v1h-1z M32,8h1v1h-1z M33,8h1v1h-1z M34,8h1v1h-1z M35,8h1v1h-1z M38,8h1v1h-1z M40,8h1v1h-1z M41,8h1v1h-1z M42,8h1v1h-1z M44,8h1v1h-1z M4,9h1v1h-1z M10,9h1v1h-1z M17,9h1v1h-1z M18,9h1v1h-1z M20,9h1v1h-1z M21,9h1v1h-1z M23,9h1v1h-1z M25,9h1v1h-1z M26,9h1v1h-1z M29,9h1v1h-1z M30,9h1v1h-1z M32,9h1v1h-1z M34,9h1v1h-1z M35,9h1v1h-1z M36,9h1v1h-1z M38,9h1v1h-1z M44,9h1v1h-1z M4,10h1v1h-1z M5,10h1v1h-1z M6,10h1v1h-1z M7,10h1v1h-1z M8,10h1v1h-1z M9,10h1v1h-1z M10,10h1v1h-1z M12,10h1v1h-1z M14,10h1v1h-1z M16,10h1v1h-1z M18,10h1v1h-1z M20,10h1v1h-1z M22,10h1v1h-1z M24,10h1v1h-1z M26,10h1v1h-1z M28,10h1v1h-1z M30,10h1v1h-1z M32,10h1v1h-1z M34,10h1v1h-1z M36,10h1v1h-1z M38,10h1v1h-1z M39,10h1v1h-1z M40,10h1v1h-1z M41,10h1v1h-1z M42,10h1v1h-1z M43,10h1v1h-1z M44,10h1v1h-1z M13,11h1v1h-1z M18,11h1v1h-1z M19,11h1v1h-1z M20,11h1v1h-1z M21,11h1v1h-1z M23,11h1v1h-1z M24,11h1v1h-1z M26,11h1v1h-1z M28,11h1v1h-1z M30,11h1v1h-1z M31,11h1v1h-1z M33,11h1v1h-1z M34,11h1v1h-1z M4,12h1v1h-1z M5,12h1v1h-1z M6,12h1v1h-1z M7,12h1v1h-1z M10,12h1v1h-1z M12,12h1v1h-1z M13,12h1v1h-1z M16,12h1v1h-1z M18,12h1v1h-1z M19,12h1v1h-1z M21,12h1v1h-1z M23,12h1v1h-1z M25,12h1v1h-1z M26,12h1v1h-1z M27,12h1v1h-1z M28,12h1v1h-1z M30,12h1v1h-1z M33,12h1v1h-1z M35,12h1v1h-1z M37,12h1v1h-1z M40,12h1v1h-1z M41,12h1v1h-1z M42,12h1v1h-1z M44,12h1v1h-1z M5,13h1v1h-1z M7,13h1v1h-1z M8,13h1v1h-1z M17,13h1v1h-1z M20,13h1v1h-1z M22,13h1v1h-1z M23,13h1v1h-1z M27,13h1v1h-1z M28,13h1v1h-1z M29,13h1v1h-1z M31,13h1v1h-1z M32,13h1v1h-1z M33,13h1v1h-1z M34,13h1v1h-1z M35,13h1v1h-1z M36,13h1v1h-1z M37,13h1v1h-1z M38,13h1v1h-1z M40,13h1v1h-1z M41,13h1v1h-1z M44,13h1v1h-1z M4,14h1v1h-1z M5,14h1v1h-1z M6,14h1v1h-1z M10,14h1v1h-1z M11,14h1v1h-1z M12,14h1v1h-1z M14,14h1v1h-1z M15,14h1v1h-1z M16,14h1v1h-1z M20,14h1v1h-1z M21,14h1v1h-1z M24,14h1v1h-1z M26,14h1v1h-1z M27,14h1v1h-1z M29,14h1v1h-1z M32,14h1v1h-1z M34,14h1v1h-1z M36,14h1v1h-1z M37,14h1v1h-1z M38,14h1v1h-1z M40,14h1v1h-1z M42,14h1v1h-1z M4,15h1v1h-1z M5,15h1v1h-1z M6,15h1v1h-1z M9,15h1v1h-1z M13,15h1v1h-1z M15,15h1v1h-1z M16,15h1v1h-1z M17,15h1v1h-1z M18,15h1v1h-1z M22,15h1v1h-1z M23,15h1v1h-1z M24,15h1v1h-1z M26,15h1v1h-1z M27,15h1v1h-1z M28,15h1v1h-1z M29,15h1v1h-1z M34,15h1v1h-1z M36,15h1v1h-1z M37,15h1v1h-1z M39,15h1v1h-1z M44,15h1v1h-1z M5,16h1v1h-1z M9,16h1v1h-1z M10,16h1v1h-1z M11,16h1v1h-1z M12,16h1v1h-1z M13,16h1v1h-1z M17,16h1v1h-1z M21,16h1v1h-1z M22,16h1v1h-1z M23,16h1v1h-1z M26,16h1v1h-1z M27,16h1v1h-1z M28,16h1v1h-1z M29,16h1v1h-1z M30,16h1v1h-1z M31,16h1v1h-1z M32,16h1v1h-1z M35,16h1v1h-1z M36,16h1v1h-1z M41,16h1v1h-1z M42,16h1v1h-1z M43,16h1v1h-1z M4,17h1v1h-1z M5,17h1v1h-1z M8,17h1v1h-1z M9,17h1v1h-1z M11,17h1v1h-1z M12,17h1v1h-1z M13,17h1v1h-1z M15,17h1v1h-1z M18,17h1v1h-1z M20,17h1v1h-1z M21,17h1v1h-1z M23,17h1v1h-1z M24,17h1v1h-1z M26,17h1v1h-1z M28,17h1v1h-1z M30,17h1v1h-1z M31,17h1v1h-1z M32,17h1v1h-1z M34,17h1v1h-1z M35,17h1v1h-1z M38,17h1v1h-1z M41,17h1v1h-1z M42,17h1v1h-1z M43,17h1v1h-1z M44,17h1v1h-1z M4,18h1v1h-1z M5,18h1v1h-1z M8,18h1v1h-1z M10,18h1v1h-1z M12,18h1v1h-1z M13,18h1v1h-1z M16,18h1v1h-1z M17,18h1v1h-1z M18,18h1v1h-1z M20,18h1v1h-1z M21,18h1v1h-1z M23,18h1v1h-1z M25,18h1v1h-1z M26,18h1v1h-1z M28,18h1v1h-1z M29,18h1v1h-1z M33,18h1v1h-1z M34,18h1v1h-1z M35,18h1v1h-1z M36,18h1v1h-1z M37,18h1v1h-1z M39,18h1v1h-1z M40,18h1v1h-1z M41,18h1v1h-1z M43,18h1v1h-1z M44,18h1v1h-1z M4,19h1v1h-1z M5,19h1v1h-1z M7,19h1v1h-1z M8,19h1v1h-1z M12,19h1v1h-1z M16,19h1v1h-1z M18,19h1v1h-1z M19,19h1v1h-1z M22,19h1v1h-1z M23,19h1v1h-1z M25,19h1v1h-1z M28,19h1v1h-1z M30,19h1v1h-1z M32,19h1v1h-1z M35,19h1v1h-1z M36,19h1v1h-1z M37,19h1v1h-1z M38,19h1v1h-1z M40,19h1v1h-1z M43,19h1v1h-1z M5,20h1v1h-1z M7,20h1v1h-1z M8,20h1v1h-1z M9,20h1v1h-1z M10,20h1v1h-1z M12,20h1v1h-1z M14,20h1v1h-1z M15,20h1v1h-1z M17,20h1v1h-1z M18,20h1v1h-1z M19,20h1v1h-1z M24,20h1v1h-1z M25,20h1v1h-1z M26,20h1v1h-1z M27,20h1v1h-1z M29,20h1v1h-1z M31,20h1v1h-1z M34,20h1v1h-1z M35,20h1v1h-1z M36,20h1v1h-1z M37,20h1v1h-1z M40,20h1v1h-1z M41,20h1v1h-1z M43,20h1v1h-1z M4,21h1v1h-1z M6,21h1v1h-1z M7,21h1v1h-1z M8,21h1v1h-1z M14,21h1v1h-1z M15,21h1v1h-1z M17,21h1v1h-1z M19,21h1v1h-1z M21,21h1v1h-1z M23,21h1v1h-1z M24,21h1v1h-1z M25,21h1v1h-1z M26,21h1v1h-1z M27,21h1v1h-1z M28,21h1v1h-1z M29,21h1v1h-1z M30,21h1v1h-1z M31,21h1v1h-1z M39,21h1v1h-1z M41,21h1v1h-1z M43,21h1v1h-1z M5,22h1v1h-1z M6,22h1v1h-1z M8,22h1v1h-1z M9,22h1v1h-1z M10,22h1v1h-1z M12,22h1v1h-1z M13,22h1v1h-1z M17,22h1v1h-1z M19,22h1v1h-1z M20,22h1v1h-1z M25,22h1v1h-1z M29,22h1v1h-1z M31,22h1v1h-1z M32,22h1v1h-1z M34,22h1v1h-1z M38,22h1v1h-1z M39,22h1v1h-1z M43,22h1v1h-1z M4,23h1v1h-1z M9,23h1v1h-1z M11,23h1v1h-1z M12,23h1v1h-1z M14,23h1v1h-1z M18,23h1v1h-1z M21,23h1v1h-1z M23,23h1v1h-1z M24,23h1v1h-1z M26,23h1v1h-1z M28,23h1v1h-1z M31,23h1v1h-1z M32,23h1v1h-1z M33,23h1v1h-1z M34,23h1v1h-1z M38,23h1v1h-1z M42,23h1v1h-1z M4,24h1v1h-1z M5,24h1v1h-1z M6,24h1v1h-1z M7,24h1v1h-1z M8,24h1v1h-1z M9,24h1v1h-1z M10,24h1v1h-1z M13,24h1v1h-1z M14,24h1v1h-1z M15,24h1v1h-1z M20,24h1v1h-1z M21,24h1v1h-1z M23,24h1v1h-1z M24,24h1v1h-1z M25,24h1v1h-1z M27,24h1v1h-1z M30,24h1v1h-1z M31,24h1v1h-1z M32,24h1v1h-1z M33,24h1v1h-1z M34,24h1v1h-1z M35,24h1v1h-1z M37,24h1v1h-1z M38,24h1v1h-1z M42,24h1v1h-1z M4,25h1v1h-1z M7,25h1v1h-1z M8,25h1v1h-1z M11,25h1v1h-1z M13,25h1v1h-1z M17,25h1v1h-1z M18,25h1v1h-1z M20,25h1v1h-1z M21,25h1v1h-1z M22,25h1v1h-1z M23,25h1v1h-1z M24,25h1v1h-1z M25,25h1v1h-1z M26,25h1v1h-1z M27,25h1v1h-1z M30,25h1v1h-1z M32,25h1v1h-1z M35,25h1v1h-1z M36,25h1v1h-1z M38,25h1v1h-1z M39,25h1v1h-1z M40,25h1v1h-1z M44,25h1v1h-1z M4,26h1v1h-1z M5,26h1v1h-1z M7,26h1v1h-1z M10,26h1v1h-1z M11,26h1v1h-1z M12,26h1v1h-1z M17,26h1v1h-1z M22,26h1v1h-1z M26,26h1v1h-1z M27,26h1v1h-1z M32,26h1v1h-1z M33,26h1v1h-1z M34,26h1v1h-1z M37,26h1v1h-1z M40,26h1v1h-1z M42,26h1v1h-1z M43,26h1v1h-1z M4,27h1v1h-1z M6,27h1v1h-1z M9,27h1v1h-1z M12,27h1v1h-1z M13,27h1v1h-1z M14,27h1v1h-1z M15,27h1v1h-1z M16,27h1v1h-1z M17,27h1v1h-1z M18,27h1v1h-1z M20,27h1v1h-1z M23,27h1v1h-1z M26,27h1v1h-1z M27,27h1v1h-1z M29,27h1v1h-1z M31,27h1v1h-1z M32,27h1v1h-1z M34,27h1v1h-1z M35,27h1v1h-1z M36,27h1v1h-1z M37,27h1v1h-1z M38,27h1v1h-1z M39,27h1v1h-1z M40,27h1v1h-1z M41,27h1v1h-1z M44,27h1v1h-1z M4,28h1v1h-1z M5,28h1v1h-1z M7,28h1v1h-1z M8,28h1v1h-1z M9,28h1v1h-1z M10,28h1v1h-1z M12,28h1v1h-1z M14,28h1v1h-1z M15,28h1v1h-1z M16,28h1v1h-1z M17,28h1v1h-1z M18,28h1v1h-1z M19,28h1v1h-1z M21,28h1v1h-1z M22,28h1v1h-1z M24,28h1v1h-1z M26,28h1v1h-1z M28,28h1v1h-1z M29,28h1v1h-1z M31,28h1v1h-1z M33,28h1v1h-1z M36,28h1v1h-1z M39,28h1v1h-1z M41,28h1v1h-1z M42,28h1v1h-1z M43,28h1v1h-1z M44,28h1v1h-1z M5,29h1v1h-1z M6,29h1v1h-1z M7,29h1v1h-1z M8,29h1v1h-1z M12,29h1v1h-1z M14,29h1v1h-1z M16,29h1v1h-1z M17,29h1v1h-1z M18,29h1v1h-1z M19,29h1v1h-1z M20,29h1v1h-1z M21,29h1v1h-1z M28,29h1v1h-1z M30,29h1v1h-1z M31,29h1v1h-1z M33,29h1v1h-1z M34,29h1v1h-1z M35,29h1v1h-1z M37,29h1v1h-1z M38,29h1v1h-1z M43,29h1v1h-1z M4,30h1v1h-1z M5,30h1v1h-1z M7,30h1v1h-1z M8,30h1v1h-1z M10,30h1v1h-1z M11,30h1v1h-1z M12,30h1v1h-1z M14,30h1v1h-1z M16,30h1v1h-1z M20,30h1v1h-1z M21,30h1v1h-1z M23,30h1v1h-1z M24,30h1v1h-1z M25,30h1v1h-1z M26,30h1v1h-1z M28,30h1v1h-1z M32,30h1v1h-1z M34,30h1v1h-1z M35,30h1v1h-1z M36,30h1v1h-1z M37,30h1v1h-1z M38,30h1v1h-1z M39,30h1v1h-1z M40,30h1v1h-1z M41,30h1v1h-1z M42,30h1v1h-1z M43,30h1v1h-1z M44,30h1v1h-1z M6,31h1v1h-1z M7,31h1v1h-1z M8,31h1v1h-1z M9,31h1v1h-1z M11,31h1v1h-1z M14,31h1v1h-1z M15,31h1v1h-1z M19,31h1v1h-1z M22,31h1v1h-1z M24,31h1v1h-1z M25,31h1v1h-1z M26,31h1v1h-1z M27,31h1v1h-1z M28,31h1v1h-1z M30,31h1v1h-1z M31,31h1v1h-1z M32,31h1v1h-1z M37,31h1v1h-1z M39,31h1v1h-1z M40,31h1v1h-1z M5,32h1v1h-1z M6,32h1v1h-1z M10,32h1v1h-1z M12,32h1v1h-1z M14,32h1v1h-1z M17,32h1v1h-1z M18,32h1v1h-1z M19,32h1v1h-1z M20,32h1v1h-1z M22,32h1v1h-1z M24,32h1v1h-1z M25,32h1v1h-1z M26,32h1v1h-1z M27,32h1v1h-1z M29,32h1v1h-1z M34,32h1v1h-1z M37,32h1v1h-1z M43,32h1v1h-1z M5,33h1v1h-1z M6,33h1v1h-1z M7,33h1v1h-1z M8,33h1v1h-1z M12,33h1v1h-1z M14,33h1v1h-1z M17,33h1v1h-1z M18,33h1v1h-1z M19,33h1v1h-1z M21,33h1v1h-1z M24,33h1v1h-1z M26,33h1v1h-1z M27,33h1v1h-1z M30,33h1v1h-1z M31,33h1v1h-1z M36,33h1v1h-1z M39,33h1v1h-1z M41,33h1v1h-1z M4,34h1v1h-1z M6,34h1v1h-1z M10,34h1v1h-1z M11,34h1v1h-1z M13,34h1v1h-1z M18,34h1v1h-1z M19,34h1v1h-1z M20,34h1v1h-1z M21,34h1v1h-1z M25,34h1v1h-1z M28,34h1v1h-1z M29,34h1v1h-1z M30,34h1v1h-1z M31,34h1v1h-1z M32,34h1v1h-1z M33,34h1v1h-1z M34,34h1v1h-1z M37,34h1v1h-1z M39,34h1v1h-1z M40,34h1v1h-1z M41,34h1v1h-1z M42,34h1v1h-1z M6,35h1v1h-1z M7,35h1v1h-1z M8,35h1v1h-1z M9,35h1v1h-1z M11,35h1v1h-1z M12,35h1v1h-1z M13,35h1v1h-1z M14,35h1v1h-1z M15,35h1v1h-1z M16,35h1v1h-1z M21,35h1v1h-1z M23,35h1v1h-1z M26,35h1v1h-1z M27,35h1v1h-1z M28,35h1v1h-1z M31,35h1v1h-1z M33,35h1v1h-1z M34,35h1v1h-1z M35,35h1v1h-1z M37,35h1v1h-1z M38,35h1v1h-1z M39,35h1v1h-1z M42,35h1v1h-1z M5,36h1v1h-1z M7,36h1v1h-1z M8,36h1v1h-1z M10,36h1v1h-1z M11,36h1v1h-1z M15,36h1v1h-1z M17,36h1v1h-1z M18,36h1v1h-1z M21,36h1v1h-1z M23,36h1v1h-1z M24,36h1v1h-1z M25,36h1v1h-1z M27,36h1v1h-1z M28,36h1v1h-1z M33,36h1v1h-1z M34,36h1v1h-1z M36,36h1v1h-1z M37,36h1v1h-1z M38,36h1v1h-1z M39,36h1v1h-1z M40,36h1v1h-1z M42,36h1v1h-1z M43,36h1v1h-1z M44,36h1v1h-1z M12,37h1v1h-1z M14,37h1v1h-1z M15,37h1v1h-1z M20,37h1v1h-1z M22,37h1v1h-1z M24,37h1v1h-1z M26,37h1v1h-1z M27,37h1v1h-1z M30,37h1v1h-1z M32,37h1v1h-1z M33,37h1v1h-1z M36,37h1v1h-1z M40,37h1v1h-1z M41,37h1v1h-1z M42,37h1v1h-1z M43,37h1v1h-1z M4,38h1v1h-1z M5,38h1v1h-1z M6,38h1v1h-1z M7,38h1v1h-1z M8,38h1v1h-1z M9,38h1v1h-1z M10,38h1v1h-1z M15,38h1v1h-1z M16,38h1v1h-1z M18,38h1v1h-1z M20,38h1v1h-1z M22,38h1v1h-1z M27,38h1v1h-1z M29,38h1v1h-1z M32,38h1v1h-1z M33,38h1v1h-1z M35,38h1v1h-1z M36,38h1v1h-1z M38,38h1v1h-1z M40,38h1v1h-1z M41,38h1v1h-1z M43,38h1v1h-1z M4,39h1v1h-1z M10,39h1v1h-1z M13,39h1v1h-1z M15,39h1v1h-1z M16,39h1v1h-1z M17,39h1v1h-1z M18,39h1v1h-1z M22,39h1v1h-1z M23,39h1v1h-1z M27,39h1v1h-1z M29,39h1v1h-1z M32,39h1v1h-1z M34,39h1v1h-1z M36,39h1v1h-1z M40,39h1v1h-1z M41,39h1v1h-1z M43,39h1v1h-1z M4,40h1v1h-1z M6,40h1v1h-1z M7,40h1v1h-1z M8,40h1v1h-1z M10,40h1v1h-1z M13,40h1v1h-1z M14,40h1v1h-1z M15,40h1v1h-1z M17,40h1v1h-1z M19,40h1v1h-1z M21,40h1v1h-1z M24,40h1v1h-1z M26,40h1v1h-1z M27,40h1v1h-1z M28,40h1v1h-1z M29,40h1v1h-1z M31,40h1v1h-1z M32,40h1v1h-1z M33,40h1v1h-1z M36,40h1v1h-1z M37,40h1v1h-1z M38,40h1v1h-1z M39,40h1v1h-1z M40,40h1v1h-1z M42,40h1v1h-1z M44,40h1v1h-1z M4,41h1v1h-1z M6,41h1v1h-1z M7,41h1v1h-1z M8,41h1v1h-1z M10,41h1v1h-1z M12,41h1v1h-1z M16,41h1v1h-1z M19,41h1v1h-1z M20,41h1v1h-1z M22,41h1v1h-1z M26,41h1v1h-1z M29,41h1v1h-1z M30,41h1v1h-1z M32,41h1v1h-1z M33,41h1v1h-1z M34,41h1v1h-1z M36,41h1v1h-1z M37,41h1v1h-1z M40,41h1v1h-1z M42,41h1v1h-1z M4,42h1v1h-1z M6,42h1v1h-1z M7,42h1v1h-1z M8,42h1v1h-1z M10,42h1v1h-1z M12,42h1v1h-1z M13,42h1v1h-1z M16,42h1v1h-1z M20,42h1v1h-1z M21,42h1v1h-1z M22,42h1v1h-1z M23,42h1v1h-1z M24,42h1v1h-1z M30,42h1v1h-1z M32,42h1v1h-1z M34,42h1v1h-1z M37,42h1v1h-1z M39,42h1v1h-1z M41,42h1v1h-1z M4,43h1v1h-1z M10,43h1v1h-1z M12,43h1v1h-1z M13,43h1v1h-1z M14,43h1v1h-1z M23,43h1v1h-1z M25,43h1v1h-1z M27,43h1v1h-1z M28,43h1v1h-1z M30,43h1v1h-1z M34,43h1v1h-1z M36,43h1v1h-1z M37,43h1v1h-1z M38,43h1v1h-1z M39,43h1v1h-1z M43,43h1v1h-1z M4,44h1v1h-1z M5,44h1v1h-1z M6,44h1v1h-1z M7,44h1v1h-1z M8,44h1v1h-1z M9,44h1v1h-1z M10,44h1v1h-1z M12,44h1v1h-1z M13,44h1v1h-1z M14,44h1v1h-1z M15,44h1v1h-1z M17,44h1v1h-1z M21,44h1v1h-1z M22,44h1v1h-1z M24,44h1v1h-1z M25,44h1v1h-1z M26,44h1v1h-1z M27,44h1v1h-1z M29,44h1v1h-1z M31,44h1v1h-1z M34,44h1v1h-1z M35,44h1v1h-1z M36,44h1v1h-1z M37,44h1v1h-1z M40,44h1v1h-1z M41,44h1v1h-1z M43,44h1v1h-1z" fill="#000000"/>
</svg>
