<?xml version="1.0" encoding="UTF-8"?>
<!DOCTYPE svg PUBLIC "-//W3C//DTD SVG 1.1//EN" "http://www.w3.org/Graphics/SVG/1.1/DTD/svg11.dtd">
<svg xmlns="http://www.w3.org/2000/svg" version="1.1" viewBox="0 0 37 37" stroke="none">
	<rect width="100%" height="100%" fill="#FFFFFF"/>
	<path d="M4,4h1v1h-1z M5,4h1v1h-1z M6,4h1v1h-1z M7,4h1v1h-1z M8,4h1v1h-1z M9,4h1v1h-1z M10,4h1v1h-1z M13,4h1v1h-1z M18,4h1v1h-1z M20,4h1v1h-1z M22,4h1v1h-1z M23,4h1v1h-1z M24,4h1v1h-1z M26,4h1v1h-1z M27,4h1v1h-1z M28,4h1v1h-1z M29,4h1v1h-1z M30,4h1v1h-1z M31,4h1v1h-1z M32,4h1v1h-1z M4,5h1v1h-1z M10,5h1v1h-1z M12,5h1v1h-1z M13,5h1v1h-1z M15,5h1v1h-1z M16,5h1v1h-1z M18,5h1v1h-1z M19,5h1v1h-1z M20,5h1v1h-1z M22,5h1v1h-1z M24,5h1v1h-1z M26,5h1v1h-1z M32,5h1v1h-1z M4,6h1v1h-1z M6,6h1v1h-1z M7,6h1v1h-1z M8,6h1v1h-1z M10,6h1v1h-1z M13,6h1v1h-1z M14,6h1v1h-1z M15,6h1v1h-1z M19,6h1v1h-1z M24,6h1v1h-1z M26,6h1v1h-1z M28,6h1v1h-1z M29,6h1v1h-1z M30,6h1v1h-1z M32,6h1v1h-1z M4,7h1v1h-1z M6,7h1v1h-1z M7,7h1v1h-1z M8,7h1v1h-1z M10,7h1v1h-1z M12,7h1v1h-1z M13,7h1v1h-1z M15,7h1v1h-1z M16,7h1v1h-1z M18,7h1v1h-1z M19,7h1v1h-1z M21,7h1v1h-1z M26,7h1v1h-1z M28,7h1v1h-1z M29,7h1v1h-1z M30,7h1v1h-1z M32,7h1v1h-1z M4,8h1v1h-1z M6,8h1v1h-1z M7,8h1v1h-1z M8,8h1v1h-1z M10,8h1v1h-1z M14,8h1v1h-1z M16,8h1v1h-1z M17,8h1v1h-1z M20,8h1v1h-1z M23,8h1v1h-1z M24,8h1v1h-1z M26,8h1v1h-1z M28,8h1v1h-1z M29,8h1v1h-1z M30,8h1v1h-1z M32,8h1v1h-1z M4,9h1v1h-1z M10,9h1v1h-1z M12,9h1v1h-1z M14,9h1v1h-1z M16,9h1v1h-1z M19,9h1v1h-1z M21,9h1v1h-1z M22,9h1v1h-1z M26,9h1v1h-1z M32,9h1v1h-1z M4,10h1v1h-1z M5,10h1v1h-1z M6,10h1v1h-1z M7,10h1v1h-1z M8,10h1v1h-1z M9,10h1v1h-1z M10,10h1v1h-1z M12,10h1v1h-1z M14,10h1v1h-1z M16,10h1v1h-1z M18,10h1v1h-1z M20,10h1v1h-1z M22,10h1v1h-1z M24,10h1v1h-1z M26,10h1v1h-1z M27,10h1v1h-1z M28,10h1v1h-1z M29,10h1v1h-1z M30,10h1v1h-1z M31,10h1v1h-1z M32,10h1v1h-1z M19,11h1v1h-1z M20,11h1v1h-1z M22,11h1v1h-1z M24,11h1v1h-1z M4,12h1v1h-1z M5,12h1v1h-1z M6,12h1v1h-1z M7,12h1v1h-1z M8,12h1v1h-1z M10,12h1v1h-1z M11,12h1v1h-1z M12,12h1v1h-1z M13,12h1v1h-1z M14,12h1v1h-1z M15,12h1v1h-1z M16,12h1v1h-1z M17,12h1v1h-1z M19,12h1v1h-1z M20,12h1v1h-1z M21,12h1v1h-1z M23,12h1v1h-1z M25,12h1v1h-1z M27,12h1v1h-1z M29,12h1v1h-1z M31,12h1v1h-1z M4,13h1v1h-1z M5,13h1v1h-1z M6,13h1v1h-1z M7,13h1v1h-1z M12,13h1v1h-1z M13,13h1v1h-1z M15,13h1v1h-1z M17,13h1v1h-1z M20,13h1v1h-1z M21,13h1v1h-1z M22,13h1v1h-1z M24,13h1v1h-1z M25,13h1v1h-1z M26,13h1v1h-1z M28,13h1v1h-1z M29,13h1v1h-1z M30,13h1v1h-1z M31,13h1v1h-1z M32,13h1v1h-1z M4,14h1v1h-1z M5,14h1v1h-1z M6,14h1v1h-1z M8,14h1v1h-1z M9,14h1v1h-1z M10,14h1v1h-1z M12,14h1v1h-1z M13,14h1v1h-1z M17,14h1v1h-1z M18,14h1v1h-1z M19,14h1v1h-1z M20,14h1v1h-1z M21,14h1v1h-1z M24,14h1v1h-1z M26,14h1v1h-1z M27,14h1v1h-1z M28,14h1v1h-1z M30,14h1v1h-1z M31,14h1v1h-1z M5,15h1v1h-1z M7,15h1v1h-1z M8,15h1v1h-1z M9,15h1v1h-1z M11,15h1v1h-1z M13,15h1v1h-1z M14,15h1v1h-1z M18,15h1v1h-1z M22,15h1v1h-1z M24,15h1v1h-1z M26,15h1v1h-1z M27,15h1v1h-1z M28,15h1v1h-1z M29,15h1v1h-1z M32,15h1v1h-1z M4,16h1v1h-1z M5,16h1v1h-1z M8,16h1v1h-1z M10,16h1v1h-1z M12,16h1v1h-1z M13,16h1v1h-1z M15,16h1v1h-1z M16,16h1v1h-1z M17,16h1v1h-1z M18,16h1v1h-1z M19,16h1v1h-1z M20,16h1v1h-1z M21,16h1v1h-1z M30,16h1v1h-1z M4,17h1v1h-1z M8,17h1v1h-1z M11,17h1v1h-1z M14,17h1v1h-1z M15,17h1v1h-1z M17,17h1v1h-1z M19,17h1v1h-1z M20,17h1v1h-1z M21,17h1v1h-1z M22,17h1v1h-1z M23,17h1v1h-1z M24,17h1v1h-1z M25,17h1v1h-1z M26,17h1v1h-1z M27,17h1v1h-1z M28,17h1v1h-1z M29,17h1v1h-1z M32,17h1v1h-1z M7,18h1v1h-1z M10,18h1v1h-1z M12,18h1v1h-1z M13,18h1v1h-1z M16,18h1v1h-1z M19,18h1v1h-1z M20,18h1v1h-1z M22,18h1v1h-1z M24,18h1v1h-1z M27,18h1v1h-1z M28,18h1v1h-1z M29,18h1v1h-1z M4,19h1v1h-1z M5,19h1v1h-1z M8,19h1v1h-1z M9,19h1v1h-1z M12,19h1v1h-1z M13,19h1v1h-1z M14,19h1v1h-1z M18,19h1v1h-1z M19,19h1v1h-1z M20,19h1v1h-1z M23,19h1v1h-1z M24,19h1v1h-1z M27,19h1v1h-1z M29,19h1v1h-1z M32,19h1v1h-1z M10,20h1v1h-1z M14,20h1v1h-1z M17,20h1v1h-1z M18,20h1v1h-1z M19,20h1v1h-1z M21,20h1v1h-1z M23,20h1v1h-1z M29,20h1v1h-1z M30,20h1v1h-1z M4,21h1v1h-1z M11,21h1v1h-1z M12,21h1v1h-1z M13,21h1v1h-1z M15,21h1v1h-1z M17,21h1v1h-1z M20,21h1v1h-1z M21,21h1v1h-1z M22,21h1v1h-1z M23,21h1v1h-1z M26,21h1v1h-1z M27,21h1v1h-1z M28,21h1v1h-1z M32,21h1v1h-1z M4,22h1v1h-1z M6,22h1v1h-1z M7,22h1v1h-1z M10,22h1v1h-1z M11,22h1v1h-1z M12,22h1v1h-1z M14,22h1v1h-1z M16,22h1v1h-1z M17,22h1v1h-1z M18,22h1v1h-1z M19,22h1v1h-1z M20,22h1v1h-1z M21,22h1v1h-1z M25,22h1v1h-1z M29,22h1v1h-1z M30,22h1v1h-1z M4,23h1v1h-1z M8,23h1v1h-1z M14,23h1v1h-1z M16,23h1v1h-1z M20,23h1v1h-1z M22,23h1v1h-1z M24,23h1v1h-1z M26,23h1v1h-1z M27,23h1v1h-1z M29,23h1v1h-1z M32,23h1v1h-1z M4,24h1v1h-1z M6,24h1v1h-1z M7,24h1v1h-1z M8,24h1v1h-1z M9,24h1v1h-1z M10,24h1v1h-1z M11,24h1v1h-1z M12,24h1v1h-1z M14,24h1v1h-1z M15,24h1v1h-1z M16,24h1v1h-1z M17,24h1v1h-1z M18,24h1v1h-1z M21,24h1v1h-1z M24,24h1v1h-1z M25,24h1v1h-1z M26,24h1v1h-1z M27,24h1v1h-1z M28,24h1v1h-1z M29,24h1v1h-1z M30,24h1v1h-1z M12,25h1v1h-1z M15,25h1v1h-1z M22,25h1v1h-1z M23,25h1v1h-1z M24,25h1v1h-1z M28,25h1v1h-1z M29,25h1v1h-1z M32,25h1v1h-1z M4,26h1v1h-1z M5,26h1v1h-1z M6,26h1v1h-1z M7,26h1v1h-1z M8,26h1v1h-1z M9,26h1v1h-1z M10,26h1v1h-1z M12,26h1v1h-1z M14,26h1v1h-1z M16,26h1v1h-1z M18,26h1v1h-1z M19,26h1v1h-1z M21,26h1v1h-1z M23,26h1v1h-1z M24,26h1v1h-1z M26,26h1v1h-1z M28,26h1v1h-1z M4,27h1v1h-1z M10,27h1v1h-1z M14,27h1v1h-1z M15,27h1v1h-1z M23,27h1v1h-1z M24,27h1v1h-1z M28,27h1v1h-1z M29,27h1v1h-1z M4,28h1v1h-1z M6,28h1v1h-1z M7,28h1v1h-1z M8,28h1v1h-1z M10,28h1v1h-1z M12,28h1v1h-1z M13,28h1v1h-1z M14,28h1v1h-1z M15,28h1v1h-1z M16,28h1v1h-1z M17,28h1v1h-1z M18,28h1v1h-1z M19,28h1v1h-1z M20,28h1v1h-1z M21,28h1v1h-1z M22,28h1v1h-1z M24,28h1v1h-1z M25,28h1v1h-1z M26,28h1v1h-1z M27,28h1v1h-1z M28,28h1v1h-1z M30,28h1v1h-1z M31,28h1v1h-1z M4,29h1v1h-1z M6,29h1v1h-1z M7,29h1v1h-1z M8,29h1v1h-1z M10,29h1v1h-1z M12,29h1v1h-1z M13,29h1v1h-1z M15,29h1v1h-1z M16,29h1v1h-1z M20,29h1v1h-1z M21,29h1v1h-1z M22,29h1v1h-1z M23,29h1v1h-1z M32,29h1v1h-1z M4,30h1v1h-1z M6,30h1v1h-1z M7,30h1v1h-1z M8,30h1v1h-1z M10,30h1v1h-1z M12,30h1v1h-1z M13,30h1v1h-1z M16,30h1v1h-1z M18,30h1v1h-1z M19,30h1v1h-1z M20,30h1v1h-1z M21,30h1v1h-1z M26,30h1v1h-1z M28,30h1v1h-1z M29,30h1v1h-1z M31,30h1v1h-1z M4,31h1v1h-1z M10,31h1v1h-1z M12,31h1v1h-1z M16,31h1v1h-1z M18,31h1v1h-1z M24,31h1v1h-1z M28,31h1v1h-1z M29,31h1v1h-1z M31,31h1v1h-1z M4,32h1v1h-1z M5,32h1v1h-1z M6,32h1v1h-1z M7,32h1v1h-1z M8,32h1v1h-1z M9,32h1v1h-1z M10,32h1v1h-1z M12,32h1v1h-1z M15,32h1v1h-1z M17,32h1v1h-1z M18,32h1v1h-1z M21,32h1v1h-1z M23,32h1v1h-1z M25,32h1v1h-1z M27,32h1v1h-1z M28,32h1v1h-1z M29,32h1v1h-1z M30,32h1v1h-1z" fill="#000000"/>
</svg>

