<?xml version="1.0" encoding="UTF-8"?>
<!DOCTYPE svg PUBLIC "-//W3C//DTD SVG 1.1//EN" "http://www.w3.org/Graphics/SVG/1.1/DTD/svg11.dtd">
<svg xmlns="http://www.w3.org/2000/svg" version="1.1" viewBox="0 0 61 61" stroke="none">
	<rect width="100%" height="100%" fill="#FFFFFF"/>
	<path d="M4,4h1v1h-1z M5,4h1v1h-1z M6,4h1v1h-1z M7,4h1v1h-1z M8,4h1v1h-1z M9,4h1v1h-1z M10,4h1v1h-1z M12,4h1v1h-1z M16,4h1v1h-1z M18,4h1v1h-1z M23,4h1v1h-1z M24,4h1v1h-1z M25,4h1v1h-1z M26,4h1v1h-1z M31,4h1v1h-1z M33,4h1v1h-1z M34,4h1v1h-1z M36,4h1v1h-1z M37,4h1v1h-1z M38,4h1v1h-1z M40,4h1v1h-1z M41,4h1v1h-1z M42,4h1v1h-1z M43,4h1v1h-1z M45,4h1v1h-1z M46,4h1v1h-1z M50,4h1v1h-1z M51,4h1v1h-1z M52,4h1v1h-1z M53,4h1v1h-1z M54,4h1v1h-1z M55,4h1v1h-1z M56,4h1v1h-1z M4,5h1v1h-1z M10,5h1v1h-1z M12,5h1v1h-1z M16,5h1v1h-1z M17,5h1v1h-1z M18,5h1v1h-1z M20,5h1v1h-1z M22,5h1v1h-1z M23,5h1v1h-1z M24,5h1v1h-1z M25,5h1v1h-1z M26,5h1v1h-1z M29,5h1v1h-1z M31,5h1v1h-1z M36,5h1v1h-1z M38,5h1v1h-1z M39,5h1v1h-1z M40,5h1v1h-1z M44,5h1v1h-1z M46,5h1v1h-1z M47,5h1v1h-1z M50,5h1v1h-1z M56,5h1v1h-1z M4,6h1v1h-1z M6,6h1v1h-1z M7,6h1v1h-1z M8,6h1v1h-1z M10,6h1v1h-1z M12,6h1v1h-1z M16,6h1v1h-1z M17,6h1v1h-1z M20,6h1v1h-1z M21,6h1v1h-1z M23,6h1v1h-1z M24,6h1v1h-1z M27,6h1v1h-1z M30,6h1v1h-1z M31,6h1v1h-1z M36,6h1v1h-1z M37,6h1v1h-1z M40,6h1v1h-1z M47,6h1v1h-1z M50,6h1v1h-1z M52,6h1v1h-1z M53,6h1v1h-1z M54,6h1v1h-1z M56,6h1v1h-1z M4,7h1v1h-1z M6,7h1v1h-1z M7,7h1v1h-1z M8,7h1v1h-1z M10,7h1v1h-1z M16,7h1v1h-1z M17,7h1v1h-1z M19,7h1v1h-1z M23,7h1v1h-1z M24,7h1v1h-1z M25,7h1v1h-1z M26,7h1v1h-1z M27,7h1v1h-1z M30,7h1v1h-1z M31,7h1v1h-1z M32,7h1v1h-1z M33,7h1v1h-1z M34,7h1v1h-1z M35,7h1v1h-1z M36,7h1v1h-1z M38,7h1v1h-1z M39,7h1v1h-1z M42,7h1v1h-1z M43,7h1v1h-1z M44,7h1v1h-1z M45,7h1v1h-1z M46,7h1v1h-1z M48,7h1v1h-1z M50,7h1v1h-1z M52,7h1v1h-1z M53,7h1v1h-1z M54,7h1v1h-1z M56,7h1v1h-1z M4,8h1v1h-1z M6,8h1v1h-1z M7,8h1v1h-1z M8,8h1v1h-1z M10,8h1v1h-1z M12,8h1v1h-1z M14,8h1v1h-1z M16,8h1v1h-1z M17,8h1v1h-1z M19,8h1v1h-1z M21,8h1v1h-1z M22,8h1v1h-1z M24,8h1v1h-1z M25,8h1v1h-1z M26,8h1v1h-1z M27,8h1v1h-1z M28,8h1v1h-1z M29,8h1v1h-1z M30,8h1v1h-1z M31,8h1v1h-1z M32,8h1v1h-1z M34,8h1v1h-1z M35,8h1v1h-1z M36,8h1v1h-1z M39,8h1v1h-1z M41,8h1v1h-1z M42,8h1v1h-1z M45,8h1v1h-1z M46,8h1v1h-1z M50,8h1v1h-1z M52,8h1v1h-1z M53,8h1v1h-1z M54,8h1v1h-1z M56,8h1v1h-1z M4,9h1v1h-1z M10,9h1v1h-1z M14,9h1v1h-1z M15,9h1v1h-1z M16,9h1v1h-1z M17,9h1v1h-1z M18,9h1v1h-1z M19,9h1v1h-1z M22,9h1v1h-1z M24,9h1v1h-1z M27,9h1v1h-1z M28,9h1v1h-1z M32,9h1v1h-1z M33,9h1v1h-1z M34,9h1v1h-1z M42,9h1v1h-1z M45,9h1v1h-1z M46,9h1v1h-1z M50,9h1v1h-1z M56,9h1v1h-1z M4,10h1v1h-1z M5,10h1v1h-1z M6,10h1v1h-1z M7,10h1v1h-1z M8,10h1v1h-1z M9,10h1v1h-1z M10,10h1v1h-1z M12,10h1v1h-1z M14,10h1v1h-1z M16,10h1v1h-1z M18,10h1v1h-1z M20,10h1v1h-1z M22,10h1v1h-1z M24,10h1v1h-1z M26,10h1v1h-1z M28,10h1v1h-1z M30,10h1v1h-1z M32,10h1v1h-1z M34,10h1v1h-1z M36,10h1v1h-1z M38,10h1v1h-1z M40,10h1v1h-1z M42,10h1v1h-1z M44,10h1v1h-1z M46,10h1v1h-1z M48,10h1v1h-1z M50,10h1v1h-1z M51,10h1v1h-1z M52,10h1v1h-1z M53,10h1v1h-1z M54,10h1v1h-1z M55,10h1v1h-1z M56,10h1v1h-1z M14,11h1v1h-1z M15,11h1v1h-1z M16,11h1v1h-1z M18,11h1v1h-1z M19,11h1v1h-1z M28,11h1v1h-1z M32,11h1v1h-1z M34,11h1v1h-1z M36,11h1v1h-1z M37,11h1v1h-1z M39,11h1v1h-1z M41,11h1v1h-1z M42,11h1v1h-1z M44,11h1v1h-1z M45,11h1v1h-1z M46,11h1v1h-1z M47,11h1v1h-1z M4,12h1v1h-1z M7,12h1v1h-1z M8,12h1v1h-1z M9,12h1v1h-1z M10,12h1v1h-1z M11,12h1v1h-1z M12,12h1v1h-1z M15,12h1v1h-1z M16,12h1v1h-1z M17,12h1v1h-1z M18,12h1v1h-1z M19,12h1v1h-1z M21,12h1v1h-1z M22,12h1v1h-1z M25,12h1v1h-1z M26,12h1v1h-1z M27,12h1v1h-1z M28,12h1v1h-1z M29,12h1v1h-1z M30,12h1v1h-1z M31,12h1v1h-1z M32,12h1v1h-1z M35,12h1v1h-1z M37,12h1v1h-1z M38,12h1v1h-1z M40,12h1v1h-1z M41,12h1v1h-1z M42,12h1v1h-1z M44,12h1v1h-1z M45,12h1v1h-1z M47,12h1v1h-1z M48,12h1v1h-1z M49,12h1v1h-1z M52,12h1v1h-1z M54,12h1v1h-1z M55,12h1v1h-1z M56,12h1v1h-1z M4,13h1v1h-1z M6,13h1v1h-1z M7,13h1v1h-1z M8,13h1v1h-1z M9,13h1v1h-1z M11,13h1v1h-1z M13,13h1v1h-1z M14,13h1v1h-1z M16,13h1v1h-1z M17,13h1v1h-1z M18,13h1v1h-1z M19,13h1v1h-1z M21,13h1v1h-1z M23,13h1v1h-1z M25,13h1v1h-1z M28,13h1v1h-1z M29,13h1v1h-1z M30,13h1v1h-1z M33,13h1v1h-1z M34,13h1v1h-1z M35,13h1v1h-1z M36,13h1v1h-1z M37,13h1v1h-1z M38,13h1v1h-1z M42,13h1v1h-1z M44,13h1v1h-1z M45,13h1v1h-1z M46,13h1v1h-1z M47,13h1v1h-1z M48,13h1v1h-1z M50,13h1v1h-1z M53,13h1v1h-1z M55,13h1v1h-1z M4,14h1v1h-1z M5,14h1v1h-1z M7,14h1v1h-1z M8,14h1v1h-1z M9,14h1v1h-1z M10,14h1v1h-1z M12,14h1v1h-1z M13,14h1v1h-1z M14,14h1v1h-1z M15,14h1v1h-1z M16,14h1v1h-1z M17,14h1v1h-1z M18,14h1v1h-1z M19,14h1v1h-1z M21,14h1v1h-1z M22,14h1v1h-1z M24,14h1v1h-1z M25,14h1v1h-1z M30,14h1v1h-1z M33,14h1v1h-1z M36,14h1v1h-1z M37,14h1v1h-1z M38,14h1v1h-1z M39,14h1v1h-1z M40,14h1v1h-1z M43,14h1v1h-1z M49,14h1v1h-1z M50,14h1v1h-1z M51,14h1v1h-1z M7,15h1v1h-1z M8,15h1v1h-1z M9,15h1v1h-1z M11,15h1v1h-1z M15,15h1v1h-1z M16,15h1v1h-1z M22,15h1v1h-1z M23,15h1v1h-1z M24,15h1v1h-1z M28,15h1v1h-1z M29,15h1v1h-1z M32,15h1v1h-1z M35,15h1v1h-1z M36,15h1v1h-1z M41,15h1v1h-1z M42,15h1v1h-1z M46,15h1v1h-1z M47,15h1v1h-1z M48,15h1v1h-1z M49,15h1v1h-1z M50,15h1v1h-1z M56,15h1v1h-1z M4,16h1v1h-1z M8,16h1v1h-1z M9,16h1v1h-1z M10,16h1v1h-1z M14,16h1v1h-1z M17,16h1v1h-1z M19,16h1v1h-1z M26,16h1v1h-1z M29,16h1v1h-1z M32,16h1v1h-1z M33,16h1v1h-1z M36,16h1v1h-1z M37,16h1v1h-1z M40,16h1v1h-1z M43,16h1v1h-1z M44,16h1v1h-1z M46,16h1v1h-1z M47,16h1v1h-1z M49,16h1v1h-1z M50,16h1v1h-1z M52,16h1v1h-1z M55,16h1v1h-1z M5,17h1v1h-1z M6,17h1v1h-1z M9,17h1v1h-1z M11,17h1v1h-1z M13,17h1v1h-1z M15,17h1v1h-1z M18,17h1v1h-1z M19,17h1v1h-1z M20,17h1v1h-1z M22,17h1v1h-1z M23,17h1v1h-1z M26,17h1v1h-1z M27,17h1v1h-1z M32,17h1v1h-1z M33,17h1v1h-1z M39,17h1v1h-1z M40,17h1v1h-1z M42,17h1v1h-1z M44,17h1v1h-1z M45,17h1v1h-1z M46,17h1v1h-1z M48,17h1v1h-1z M49,17h1v1h-1z M51,17h1v1h-1z M53,17h1v1h-1z M54,17h1v1h-1z M55,17h1v1h-1z M4,18h1v1h-1z M10,18h1v1h-1z M13,18h1v1h-1z M14,18h1v1h-1z M18,18h1v1h-1z M19,18h1v1h-1z M20,18h1v1h-1z M22,18h1v1h-1z M23,18h1v1h-1z M25,18h1v1h-1z M27,18h1v1h-1z M28,18h1v1h-1z M30,18h1v1h-1z M32,18h1v1h-1z M34,18h1v1h-1z M40,18h1v1h-1z M42,18h1v1h-1z M43,18h1v1h-1z M45,18h1v1h-1z M46,18h1v1h-1z M49,18h1v1h-1z M51,18h1v1h-1z M52,18h1v1h-1z M53,18h1v1h-1z M54,18h1v1h-1z M56,18h1v1h-1z M4,19h1v1h-1z M5,19h1v1h-1z M6,19h1v1h-1z M7,19h1v1h-1z M9,19h1v1h-1z M12,19h1v1h-1z M13,19h1v1h-1z M17,19h1v1h-1z M19,19h1v1h-1z M20,19h1v1h-1z M22,19h1v1h-1z M27,19h1v1h-1z M28,19h1v1h-1z M29,19h1v1h-1z M30,19h1v1h-1z M31,19h1v1h-1z M33,19h1v1h-1z M34,19h1v1h-1z M35,19h1v1h-1z M38,19h1v1h-1z M39,19h1v1h-1z M42,19h1v1h-1z M43,19h1v1h-1z M46,19h1v1h-1z M47,19h1v1h-1z M50,19h1v1h-1z M54,19h1v1h-1z M55,19h1v1h-1z M4,20h1v1h-1z M5,20h1v1h-1z M8,20h1v1h-1z M9,20h1v1h-1z M10,20h1v1h-1z M11,20h1v1h-1z M13,20h1v1h-1z M15,20h1v1h-1z M16,20h1v1h-1z M17,20h1v1h-1z M19,20h1v1h-1z M20,20h1v1h-1z M22,20h1v1h-1z M23,20h1v1h-1z M24,20h1v1h-1z M28,20h1v1h-1z M32,20h1v1h-1z M33,20h1v1h-1z M34,20h1v1h-1z M35,20h1v1h-1z M36,20h1v1h-1z M40,20h1v1h-1z M41,20h1v1h-1z M46,20h1v1h-1z M47,20h1v1h-1z M48,20h1v1h-1z M50,20h1v1h-1z M51,20h1v1h-1z M52,20h1v1h-1z M53,20h1v1h-1z M55,20h1v1h-1z M5,21h1v1h-1z M8,21h1v1h-1z M11,21h1v1h-1z M12,21h1v1h-1z M22,21h1v1h-1z M25,21h1v1h-1z M26,21h1v1h-1z M28,21h1v1h-1z M29,21h1v1h-1z M31,21h1v1h-1z M33,21h1v1h-1z M34,21h1v1h-1z M36,21h1v1h-1z M38,21h1v1h-1z M40,21h1v1h-1z M41,21h1v1h-1z M43,21h1v1h-1z M46,21h1v1h-1z M47,21h1v1h-1z M49,21h1v1h-1z M50,21h1v1h-1z M51,21h1v1h-1z M4,22h1v1h-1z M5,22h1v1h-1z M6,22h1v1h-1z M10,22h1v1h-1z M11,22h1v1h-1z M13,22h1v1h-1z M16,22h1v1h-1z M17,22h1v1h-1z M18,22h1v1h-1z M19,22h1v1h-1z M22,22h1v1h-1z M23,22h1v1h-1z M25,22h1v1h-1z M26,22h1v1h-1z M30,22h1v1h-1z M32,22h1v1h-1z M33,22h1v1h-1z M35,22h1v1h-1z M36,22h1v1h-1z M38,22h1v1h-1z M40,22h1v1h-1z M42,22h1v1h-1z M43,22h1v1h-1z M44,22h1v1h-1z M48,22h1v1h-1z M51,22h1v1h-1z M52,22h1v1h-1z M56,22h1v1h-1z M4,23h1v1h-1z M7,23h1v1h-1z M9,23h1v1h-1z M11,23h1v1h-1z M13,23h1v1h-1z M14,23h1v1h-1z M16,23h1v1h-1z M17,23h1v1h-1z M19,23h1v1h-1z M24,23h1v1h-1z M25,23h1v1h-1z M28,23h1v1h-1z M30,23h1v1h-1z M31,23h1v1h-1z M32,23h1v1h-1z M33,23h1v1h-1z M35,23h1v1h-1z M37,23h1v1h-1z M38,23h1v1h-1z M41,23h1v1h-1z M42,23h1v1h-1z M43,23h1v1h-1z M44,23h1v1h-1z M46,23h1v1h-1z M47,23h1v1h-1z M48,23h1v1h-1z M49,23h1v1h-1z M50,23h1v1h-1z M51,23h1v1h-1z M52,23h1v1h-1z M54,23h1v1h-1z M56,23h1v1h-1z M6,24h1v1h-1z M7,24h1v1h-1z M8,24h1v1h-1z M9,24h1v1h-1z M10,24h1v1h-1z M13,24h1v1h-1z M15,24h1v1h-1z M16,24h1v1h-1z M17,24h1v1h-1z M20,24h1v1h-1z M22,24h1v1h-1z M23,24h1v1h-1z M24,24h1v1h-1z M25,24h1v1h-1z M26,24h1v1h-1z M27,24h1v1h-1z M30,24h1v1h-1z M31,24h1v1h-1z M32,24h1v1h-1z M33,24h1v1h-1z M39,24h1v1h-1z M40,24h1v1h-1z M43,24h1v1h-1z M44,24h1v1h-1z M45,24h1v1h-1z M46,24h1v1h-1z M48,24h1v1h-1z M49,24h1v1h-1z M50,24h1v1h-1z M51,24h1v1h-1z M52,24h1v1h-1z M54,24h1v1h-1z M4,25h1v1h-1z M6,25h1v1h-1z M8,25h1v1h-1z M12,25h1v1h-1z M14,25h1v1h-1z M17,25h1v1h-1z M18,25h1v1h-1z M20,25h1v1h-1z M22,25h1v1h-1z M25,25h1v1h-1z M26,25h1v1h-1z M27,25h1v1h-1z M30,25h1v1h-1z M31,25h1v1h-1z M32,25h1v1h-1z M33,25h1v1h-1z M34,25h1v1h-1z M36,25h1v1h-1z M37,25h1v1h-1z M38,25h1v1h-1z M39,25h1v1h-1z M40,25h1v1h-1z M41,25h1v1h-1z M42,25h1v1h-1z M45,25h1v1h-1z M46,25h1v1h-1z M47,25h1v1h-1z M48,25h1v1h-1z M50,25h1v1h-1z M51,25h1v1h-1z M53,25h1v1h-1z M55,25h1v1h-1z M7,26h1v1h-1z M8,26h1v1h-1z M10,26h1v1h-1z M12,26h1v1h-1z M16,26h1v1h-1z M19,26h1v1h-1z M20,26h1v1h-1z M22,26h1v1h-1z M25,26h1v1h-1z M26,26h1v1h-1z M28,26h1v1h-1z M29,26h1v1h-1z M30,26h1v1h-1z M31,26h1v1h-1z M33,26h1v1h-1z M35,26h1v1h-1z M37,26h1v1h-1z M38,26h1v1h-1z M41,26h1v1h-1z M43,26h1v1h-1z M45,26h1v1h-1z M47,26h1v1h-1z M49,26h1v1h-1z M50,26h1v1h-1z M53,26h1v1h-1z M54,26h1v1h-1z M55,26h1v1h-1z M5,27h1v1h-1z M6,27h1v1h-1z M8,27h1v1h-1z M9,27h1v1h-1z M12,27h1v1h-1z M14,27h1v1h-1z M15,27h1v1h-1z M16,27h1v1h-1z M20,27h1v1h-1z M21,27h1v1h-1z M23,27h1v1h-1z M27,27h1v1h-1z M28,27h1v1h-1z M29,27h1v1h-1z M31,27h1v1h-1z M32,27h1v1h-1z M34,27h1v1h-1z M36,27h1v1h-1z M38,27h1v1h-1z M40,27h1v1h-1z M47,27h1v1h-1z M50,27h1v1h-1z M51,27h1v1h-1z M56,27h1v1h-1z M5,28h1v1h-1z M6,28h1v1h-1z M7,28h1v1h-1z M8,28h1v1h-1z M9,28h1v1h-1z M10,28h1v1h-1z M11,28h1v1h-1z M12,28h1v1h-1z M16,28h1v1h-1z M17,28h1v1h-1z M18,28h1v1h-1z M19,28h1v1h-1z M21,28h1v1h-1z M22,28h1v1h-1z M26,28h1v1h-1z M28,28h1v1h-1z M29,28h1v1h-1z M30,28h1v1h-1z M31,28h1v1h-1z M32,28h1v1h-1z M36,28h1v1h-1z M38,28h1v1h-1z M39,28h1v1h-1z M40,28h1v1h-1z M42,28h1v1h-1z M44,28h1v1h-1z M45,28h1v1h-1z M47,28h1v1h-1z M48,28h1v1h-1z M49,28h1v1h-1z M50,28h1v1h-1z M51,28h1v1h-1z M52,28h1v1h-1z M53,28h1v1h-1z M55,28h1v1h-1z M56,28h1v1h-1z M6,29h1v1h-1z M7,29h1v1h-1z M8,29h1v1h-1z M12,29h1v1h-1z M15,29h1v1h-1z M16,29h1v1h-1z M17,29h1v1h-1z M18,29h1v1h-1z M20,29h1v1h-1z M22,29h1v1h-1z M25,29h1v1h-1z M26,29h1v1h-1z M28,29h1v1h-1z M32,29h1v1h-1z M33,29h1v1h-1z M34,29h1v1h-1z M35,29h1v1h-1z M36,29h1v1h-1z M37,29h1v1h-1z M39,29h1v1h-1z M40,29h1v1h-1z M42,29h1v1h-1z M43,29h1v1h-1z M44,29h1v1h-1z M45,29h1v1h-1z M46,29h1v1h-1z M48,29h1v1h-1z M52,29h1v1h-1z M54,29h1v1h-1z M56,29h1v1h-1z M5,30h1v1h-1z M7,30h1v1h-1z M8,30h1v1h-1z M10,30h1v1h-1z M12,30h1v1h-1z M14,30h1v1h-1z M15,30h1v1h-1z M19,30h1v1h-1z M20,30h1v1h-1z M25,30h1v1h-1z M26,30h1v1h-1z M28,30h1v1h-1z M30,30h1v1h-1z M32,30h1v1h-1z M37,30h1v1h-1z M40,30h1v1h-1z M42,30h1v1h-1z M43,30h1v1h-1z M44,30h1v1h-1z M45,30h1v1h-1z M48,30h1v1h-1z M50,30h1v1h-1z M52,30h1v1h-1z M53,30h1v1h-1z M56,30h1v1h-1z M5,31h1v1h-1z M7,31h1v1h-1z M8,31h1v1h-1z M12,31h1v1h-1z M13,31h1v1h-1z M16,31h1v1h-1z M17,31h1v1h-1z M18,31h1v1h-1z M20,31h1v1h-1z M22,31h1v1h-1z M26,31h1v1h-1z M28,31h1v1h-1z M32,31h1v1h-1z M33,31h1v1h-1z M36,31h1v1h-1z M41,31h1v1h-1z M43,31h1v1h-1z M44,31h1v1h-1z M45,31h1v1h-1z M46,31h1v1h-1z M48,31h1v1h-1z M52,31h1v1h-1z M53,31h1v1h-1z M54,31h1v1h-1z M55,31h1v1h-1z M5,32h1v1h-1z M8,32h1v1h-1z M9,32h1v1h-1z M10,32h1v1h-1z M11,32h1v1h-1z M12,32h1v1h-1z M14,32h1v1h-1z M15,32h1v1h-1z M16,32h1v1h-1z M17,32h1v1h-1z M18,32h1v1h-1z M19,32h1v1h-1z M20,32h1v1h-1z M21,32h1v1h-1z M22,32h1v1h-1z M23,32h1v1h-1z M24,32h1v1h-1z M25,32h1v1h-1z M27,32h1v1h-1z M28,32h1v1h-1z M29,32h1v1h-1z M30,32h1v1h-1z M31,32h1v1h-1z M32,32h1v1h-1z M35,32h1v1h-1z M39,32h1v1h-1z M40,32h1v1h-1z M48,32h1v1h-1z M49,32h1v1h-1z M50,32h1v1h-1z M51,32h1v1h-1z M52,32h1v1h-1z M53,32h1v1h-1z M56,32h1v1h-1z M4,33h1v1h-1z M6,33h1v1h-1z M13,33h1v1h-1z M16,33h1v1h-1z M17,33h1v1h-1z M18,33h1v1h-1z M20,33h1v1h-1z M22,33h1v1h-1z M25,33h1v1h-1z M28,33h1v1h-1z M29,33h1v1h-1z M30,33h1v1h-1z M32,33h1v1h-1z M34,33h1v1h-1z M36,33h1v1h-1z M37,33h1v1h-1z M38,33h1v1h-1z M39,33h1v1h-1z M43,33h1v1h-1z M45,33h1v1h-1z M46,33h1v1h-1z M52,33h1v1h-1z M53,33h1v1h-1z M54,33h1v1h-1z M5,34h1v1h-1z M6,34h1v1h-1z M10,34h1v1h-1z M12,34h1v1h-1z M13,34h1v1h-1z M15,34h1v1h-1z M16,34h1v1h-1z M20,34h1v1h-1z M21,34h1v1h-1z M22,34h1v1h-1z M24,34h1v1h-1z M26,34h1v1h-1z M27,34h1v1h-1z M29,34h1v1h-1z M30,34h1v1h-1z M32,34h1v1h-1z M37,34h1v1h-1z M39,34h1v1h-1z M40,34h1v1h-1z M41,34h1v1h-1z M45,34h1v1h-1z M47,34h1v1h-1z M48,34h1v1h-1z M50,34h1v1h-1z M51,34h1v1h-1z M54,34h1v1h-1z M56,34h1v1h-1z M4,35h1v1h-1z M5,35h1v1h-1z M6,35h1v1h-1z M9,35h1v1h-1z M14,35h1v1h-1z M15,35h1v1h-1z M16,35h1v1h-1z M18,35h1v1h-1z M20,35h1v1h-1z M25,35h1v1h-1z M27,35h1v1h-1z M28,35h1v1h-1z M30,35h1v1h-1z M31,35h1v1h-1z M34,35h1v1h-1z M35,35h1v1h-1z M41,35h1v1h-1z M42,35h1v1h-1z M43,35h1v1h-1z M44,35h1v1h-1z M46,35h1v1h-1z M50,35h1v1h-1z M52,35h1v1h-1z M54,35h1v1h-1z M4,36h1v1h-1z M6,36h1v1h-1z M7,36h1v1h-1z M8,36h1v1h-1z M9,36h1v1h-1z M10,36h1v1h-1z M11,36h1v1h-1z M12,36h1v1h-1z M13,36h1v1h-1z M16,36h1v1h-1z M17,36h1v1h-1z M20,36h1v1h-1z M26,36h1v1h-1z M28,36h1v1h-1z M29,36h1v1h-1z M31,36h1v1h-1z M32,36h1v1h-1z M33,36h1v1h-1z M34,36h1v1h-1z M38,36h1v1h-1z M39,36h1v1h-1z M40,36h1v1h-1z M41,36h1v1h-1z M43,36h1v1h-1z M44,36h1v1h-1z M47,36h1v1h-1z M48,36h1v1h-1z M51,36h1v1h-1z M54,36h1v1h-1z M55,36h1v1h-1z M56,36h1v1h-1z M4,37h1v1h-1z M5,37h1v1h-1z M8,37h1v1h-1z M11,37h1v1h-1z M12,37h1v1h-1z M13,37h1v1h-1z M15,37h1v1h-1z M16,37h1v1h-1z M18,37h1v1h-1z M19,37h1v1h-1z M21,37h1v1h-1z M22,37h1v1h-1z M24,37h1v1h-1z M27,37h1v1h-1z M29,37h1v1h-1z M30,37h1v1h-1z M32,37h1v1h-1z M34,37h1v1h-1z M38,37h1v1h-1z M40,37h1v1h-1z M41,37h1v1h-1z M42,37h1v1h-1z M45,37h1v1h-1z M46,37h1v1h-1z M48,37h1v1h-1z M49,37h1v1h-1z M52,37h1v1h-1z M54,37h1v1h-1z M55,37h1v1h-1z M4,38h1v1h-1z M6,38h1v1h-1z M10,38h1v1h-1z M12,38h1v1h-1z M14,38h1v1h-1z M15,38h1v1h-1z M16,38h1v1h-1z M18,38h1v1h-1z M19,38h1v1h-1z M21,38h1v1h-1z M23,38h1v1h-1z M24,38h1v1h-1z M25,38h1v1h-1z M26,38h1v1h-1z M27,38h1v1h-1z M30,38h1v1h-1z M31,38h1v1h-1z M32,38h1v1h-1z M34,38h1v1h-1z M36,38h1v1h-1z M37,38h1v1h-1z M38,38h1v1h-1z M41,38h1v1h-1z M43,38h1v1h-1z M45,38h1v1h-1z M46,38h1v1h-1z M48,38h1v1h-1z M49,38h1v1h-1z M51,38h1v1h-1z M52,38h1v1h-1z M54,38h1v1h-1z M55,38h1v1h-1z M4,39h1v1h-1z M6,39h1v1h-1z M8,39h1v1h-1z M11,39h1v1h-1z M12,39h1v1h-1z M15,39h1v1h-1z M17,39h1v1h-1z M22,39h1v1h-1z M25,39h1v1h-1z M28,39h1v1h-1z M29,39h1v1h-1z M31,39h1v1h-1z M32,39h1v1h-1z M37,39h1v1h-1z M39,39h1v1h-1z M40,39h1v1h-1z M41,39h1v1h-1z M43,39h1v1h-1z M45,39h1v1h-1z M46,39h1v1h-1z M47,39h1v1h-1z M48,39h1v1h-1z M51,39h1v1h-1z M52,39h1v1h-1z M56,39h1v1h-1z M7,40h1v1h-1z M10,40h1v1h-1z M15,40h1v1h-1z M16,40h1v1h-1z M17,40h1v1h-1z M18,40h1v1h-1z M20,40h1v1h-1z M22,40h1v1h-1z M24,40h1v1h-1z M25,40h1v1h-1z M26,40h1v1h-1z M28,40h1v1h-1z M30,40h1v1h-1z M31,40h1v1h-1z M36,40h1v1h-1z M37,40h1v1h-1z M40,40h1v1h-1z M41,40h1v1h-1z M44,40h1v1h-1z M45,40h1v1h-1z M47,40h1v1h-1z M49,40h1v1h-1z M50,40h1v1h-1z M51,40h1v1h-1z M4,41h1v1h-1z M5,41h1v1h-1z M6,41h1v1h-1z M9,41h1v1h-1z M11,41h1v1h-1z M13,41h1v1h-1z M14,41h1v1h-1z M15,41h1v1h-1z M16,41h1v1h-1z M18,41h1v1h-1z M21,41h1v1h-1z M22,41h1v1h-1z M23,41h1v1h-1z M25,41h1v1h-1z M26,41h1v1h-1z M31,41h1v1h-1z M32,41h1v1h-1z M33,41h1v1h-1z M34,41h1v1h-1z M35,41h1v1h-1z M37,41h1v1h-1z M38,41h1v1h-1z M39,41h1v1h-1z M42,41h1v1h-1z M43,41h1v1h-1z M45,41h1v1h-1z M46,41h1v1h-1z M47,41h1v1h-1z M49,41h1v1h-1z M51,41h1v1h-1z M52,41h1v1h-1z M53,41h1v1h-1z M54,41h1v1h-1z M56,41h1v1h-1z M7,42h1v1h-1z M8,42h1v1h-1z M10,42h1v1h-1z M12,42h1v1h-1z M17,42h1v1h-1z M18,42h1v1h-1z M19,42h1v1h-1z M22,42h1v1h-1z M23,42h1v1h-1z M29,42h1v1h-1z M30,42h1v1h-1z M31,42h1v1h-1z M36,42h1v1h-1z M37,42h1v1h-1z M38,42h1v1h-1z M39,42h1v1h-1z M41,42h1v1h-1z M42,42h1v1h-1z M44,42h1v1h-1z M45,42h1v1h-1z M50,42h1v1h-1z M54,42h1v1h-1z M55,42h1v1h-1z M56,42h1v1h-1z M5,43h1v1h-1z M13,43h1v1h-1z M20,43h1v1h-1z M21,43h1v1h-1z M24,43h1v1h-1z M27,43h1v1h-1z M29,43h1v1h-1z M31,43h1v1h-1z M32,43h1v1h-1z M33,43h1v1h-1z M34,43h1v1h-1z M37,43h1v1h-1z M38,43h1v1h-1z M41,43h1v1h-1z M45,43h1v1h-1z M47,43h1v1h-1z M49,43h1v1h-1z M52,43h1v1h-1z M53,43h1v1h-1z M54,43h1v1h-1z M55,43h1v1h-1z M56,43h1v1h-1z M4,44h1v1h-1z M5,44h1v1h-1z M6,44h1v1h-1z M7,44h1v1h-1z M8,44h1v1h-1z M10,44h1v1h-1z M11,44h1v1h-1z M13,44h1v1h-1z M14,44h1v1h-1z M15,44h1v1h-1z M17,44h1v1h-1z M19,44h1v1h-1z M20,44h1v1h-1z M22,44h1v1h-1z M23,44h1v1h-1z M24,44h1v1h-1z M26,44h1v1h-1z M28,44h1v1h-1z M30,44h1v1h-1z M31,44h1v1h-1z M32,44h1v1h-1z M34,44h1v1h-1z M35,44h1v1h-1z M36,44h1v1h-1z M40,44h1v1h-1z M41,44h1v1h-1z M42,44h1v1h-1z M43,44h1v1h-1z M45,44h1v1h-1z M46,44h1v1h-1z M48,44h1v1h-1z M51,44h1v1h-1z M53,44h1v1h-1z M55,44h1v1h-1z M4,45h1v1h-1z M5,45h1v1h-1z M8,45h1v1h-1z M11,45h1v1h-1z M14,45h1v1h-1z M15,45h1v1h-1z M16,45h1v1h-1z M17,45h1v1h-1z M18,45h1v1h-1z M19,45h1v1h-1z M21,45h1v1h-1z M23,45h1v1h-1z M24,45h1v1h-1z M26,45h1v1h-1z M28,45h1v1h-1z M30,45h1v1h-1z M32,45h1v1h-1z M34,45h1v1h-1z M37,45h1v1h-1z M38,45h1v1h-1z M39,45h1v1h-1z M43,45h1v1h-1z M44,45h1v1h-1z M46,45h1v1h-1z M48,45h1v1h-1z M49,45h1v1h-1z M50,45h1v1h-1z M51,45h1v1h-1z M52,45h1v1h-1z M53,45h1v1h-1z M54,45h1v1h-1z M55,45h1v1h-1z M4,46h1v1h-1z M5,46h1v1h-1z M7,46h1v1h-1z M8,46h1v1h-1z M9,46h1v1h-1z M10,46h1v1h-1z M14,46h1v1h-1z M18,46h1v1h-1z M20,46h1v1h-1z M22,46h1v1h-1z M24,46h1v1h-1z M25,46h1v1h-1z M26,46h1v1h-1z M27,46h1v1h-1z M28,46h1v1h-1z M29,46h1v1h-1z M30,46h1v1h-1z M32,46h1v1h-1z M33,46h1v1h-1z M34,46h1v1h-1z M35,46h1v1h-1z M36,46h1v1h-1z M41,46h1v1h-1z M42,46h1v1h-1z M47,46h1v1h-1z M50,46h1v1h-1z M51,46h1v1h-1z M53,46h1v1h-1z M54,46h1v1h-1z M55,46h1v1h-1z M56,46h1v1h-1z M5,47h1v1h-1z M6,47h1v1h-1z M11,47h1v1h-1z M12,47h1v1h-1z M13,47h1v1h-1z M14,47h1v1h-1z M16,47h1v1h-1z M24,47h1v1h-1z M26,47h1v1h-1z M29,47h1v1h-1z M31,47h1v1h-1z M33,47h1v1h-1z M34,47h1v1h-1z M37,47h1v1h-1z M38,47h1v1h-1z M40,47h1v1h-1z M42,47h1v1h-1z M43,47h1v1h-1z M44,47h1v1h-1z M45,47h1v1h-1z M46,47h1v1h-1z M50,47h1v1h-1z M51,47h1v1h-1z M52,47h1v1h-1z M53,47h1v1h-1z M54,47h1v1h-1z M56,47h1v1h-1z M7,48h1v1h-1z M10,48h1v1h-1z M13,48h1v1h-1z M14,48h1v1h-1z M16,48h1v1h-1z M17,48h1v1h-1z M19,48h1v1h-1z M22,48h1v1h-1z M25,48h1v1h-1z M26,48h1v1h-1z M28,48h1v1h-1z M29,48h1v1h-1z M30,48h1v1h-1z M31,48h1v1h-1z M32,48h1v1h-1z M33,48h1v1h-1z M34,48h1v1h-1z M38,48h1v1h-1z M39,48h1v1h-1z M41,48h1v1h-1z M44,48h1v1h-1z M45,48h1v1h-1z M46,48h1v1h-1z M47,48h1v1h-1z M48,48h1v1h-1z M49,48h1v1h-1z M50,48h1v1h-1z M51,48h1v1h-1z M52,48h1v1h-1z M53,48h1v1h-1z M54,48h1v1h-1z M55,48h1v1h-1z M56,48h1v1h-1z M12,49h1v1h-1z M15,49h1v1h-1z M17,49h1v1h-1z M22,49h1v1h-1z M24,49h1v1h-1z M28,49h1v1h-1z M32,49h1v1h-1z M33,49h1v1h-1z M34,49h1v1h-1z M35,49h1v1h-1z M37,49h1v1h-1z M38,49h1v1h-1z M42,49h1v1h-1z M43,49h1v1h-1z M44,49h1v1h-1z M45,49h1v1h-1z M46,49h1v1h-1z M47,49h1v1h-1z M48,49h1v1h-1z M52,49h1v1h-1z M53,49h1v1h-1z M54,49h1v1h-1z M4,50h1v1h-1z M5,50h1v1h-1z M6,50h1v1h-1z M7,50h1v1h-1z M8,50h1v1h-1z M9,50h1v1h-1z M10,50h1v1h-1z M12,50h1v1h-1z M14,50h1v1h-1z M16,50h1v1h-1z M17,50h1v1h-1z M21,50h1v1h-1z M22,50h1v1h-1z M25,50h1v1h-1z M27,50h1v1h-1z M28,50h1v1h-1z M30,50h1v1h-1z M32,50h1v1h-1z M33,50h1v1h-1z M36,50h1v1h-1z M38,50h1v1h-1z M43,50h1v1h-1z M44,50h1v1h-1z M45,50h1v1h-1z M47,50h1v1h-1z M48,50h1v1h-1z M50,50h1v1h-1z M52,50h1v1h-1z M54,50h1v1h-1z M4,51h1v1h-1z M10,51h1v1h-1z M12,51h1v1h-1z M13,51h1v1h-1z M14,51h1v1h-1z M16,51h1v1h-1z M17,51h1v1h-1z M18,51h1v1h-1z M19,51h1v1h-1z M20,51h1v1h-1z M22,51h1v1h-1z M23,51h1v1h-1z M24,51h1v1h-1z M25,51h1v1h-1z M26,51h1v1h-1z M28,51h1v1h-1z M32,51h1v1h-1z M34,51h1v1h-1z M35,51h1v1h-1z M37,51h1v1h-1z M41,51h1v1h-1z M42,51h1v1h-1z M43,51h1v1h-1z M44,51h1v1h-1z M47,51h1v1h-1z M48,51h1v1h-1z M52,51h1v1h-1z M53,51h1v1h-1z M55,51h1v1h-1z M4,52h1v1h-1z M6,52h1v1h-1z M7,52h1v1h-1z M8,52h1v1h-1z M10,52h1v1h-1z M12,52h1v1h-1z M16,52h1v1h-1z M20,52h1v1h-1z M23,52h1v1h-1z M24,52h1v1h-1z M25,52h1v1h-1z M26,52h1v1h-1z M28,52h1v1h-1z M29,52h1v1h-1z M30,52h1v1h-1z M31,52h1v1h-1z M32,52h1v1h-1z M34,52h1v1h-1z M35,52h1v1h-1z M36,52h1v1h-1z M40,52h1v1h-1z M41,52h1v1h-1z M44,52h1v1h-1z M45,52h1v1h-1z M48,52h1v1h-1z M49,52h1v1h-1z M50,52h1v1h-1z M51,52h1v1h-1z M52,52h1v1h-1z M55,52h1v1h-1z M56,52h1v1h-1z M4,53h1v1h-1z M6,53h1v1h-1z M7,53h1v1h-1z M8,53h1v1h-1z M10,53h1v1h-1z M12,53h1v1h-1z M14,53h1v1h-1z M17,53h1v1h-1z M18,53h1v1h-1z M21,53h1v1h-1z M22,53h1v1h-1z M24,53h1v1h-1z M25,53h1v1h-1z M30,53h1v1h-1z M31,53h1v1h-1z M33,53h1v1h-1z M34,53h1v1h-1z M36,53h1v1h-1z M37,53h1v1h-1z M39,53h1v1h-1z M40,53h1v1h-1z M41,53h1v1h-1z M42,53h1v1h-1z M43,53h1v1h-1z M45,53h1v1h-1z M46,53h1v1h-1z M51,53h1v1h-1z M52,53h1v1h-1z M53,53h1v1h-1z M56,53h1v1h-1z M4,54h1v1h-1z M6,54h1v1h-1z M7,54h1v1h-1z M8,54h1v1h-1z M10,54h1v1h-1z M14,54h1v1h-1z M17,54h1v1h-1z M20,54h1v1h-1z M23,54h1v1h-1z M24,54h1v1h-1z M25,54h1v1h-1z M27,54h1v1h-1z M29,54h1v1h-1z M32,54h1v1h-1z M33,54h1v1h-1z M35,54h1v1h-1z M37,54h1v1h-1z M40,54h1v1h-1z M41,54h1v1h-1z M42,54h1v1h-1z M43,54h1v1h-1z M49,54h1v1h-1z M51,54h1v1h-1z M52,54h1v1h-1z M54,54h1v1h-1z M55,54h1v1h-1z M4,55h1v1h-1z M10,55h1v1h-1z M13,55h1v1h-1z M14,55h1v1h-1z M16,55h1v1h-1z M17,55h1v1h-1z M18,55h1v1h-1z M19,55h1v1h-1z M20,55h1v1h-1z M24,55h1v1h-1z M27,55h1v1h-1z M30,55h1v1h-1z M32,55h1v1h-1z M33,55h1v1h-1z M37,55h1v1h-1z M41,55h1v1h-1z M42,55h1v1h-1z M45,55h1v1h-1z M47,55h1v1h-1z M48,55h1v1h-1z M49,55h1v1h-1z M50,55h1v1h-1z M52,55h1v1h-1z M54,55h1v1h-1z M56,55h1v1h-1z M4,56h1v1h-1z M5,56h1v1h-1z M6,56h1v1h-1z M7,56h1v1h-1z M8,56h1v1h-1z M9,56h1v1h-1z M10,56h1v1h-1z M12,56h1v1h-1z M15,56h1v1h-1z M17,56h1v1h-1z M19,56h1v1h-1z M22,56h1v1h-1z M23,56h1v1h-1z M24,56h1v1h-1z M25,56h1v1h-1z M26,56h1v1h-1z M28,56h1v1h-1z M32,56h1v1h-1z M33,56h1v1h-1z M36,56h1v1h-1z M37,56h1v1h-1z M40,56h1v1h-1z M41,56h1v1h-1z M42,56h1v1h-1z M43,56h1v1h-1z M45,56h1v1h-1z M46,56h1v1h-1z M48,56h1v1h-1z M49,56h1v1h-1z M50,56h1v1h-1z M52,56h1v1h-1z" fill="#000000"/>
</svg>
