<?xml version="1.0" encoding="UTF-8"?>
<!DOCTYPE svg PUBLIC "-//W3C//DTD SVG 1.1//EN" "http://www.w3.org/Graphics/SVG/1.1/DTD/svg11.dtd">
<svg xmlns="http://www.w3.org/2000/svg" version="1.1" viewBox="0 0 57 57" stroke="none">
	<rect width="100%" height="100%" fill="#FFFFFF"/>
	<path d="M4,4h1v1h-1z M5,4h1v1h-1z M6,4h1v1h-1z M7,4h1v1h-1z M8,4h1v1h-1z M9,4h1v1h-1z M10,4h1v1h-1z M14,4h1v1h-1z M15,4h1v1h-1z M16,4h1v1h-1z M18,4h1v1h-1z M21,4h1v1h-1z M22,4h1v1h-1z M24,4h1v1h-1z M25,4h1v1h-1z M27,4h1v1h-1z M34,4h1v1h-1z M35,4h1v1h-1z M36,4h1v1h-1z M40,4h1v1h-1z M41,4h1v1h-1z M44,4h1v1h-1z M46,4h1v1h-1z M47,4h1v1h-1z M48,4h1v1h-1z M49,4h1v1h-1z M50,4h1v1h-1z M51,4h1v1h-1z M52,4h1v1h-1z M4,5h1v1h-1z M10,5h1v1h-1z M13,5h1v1h-1z M14,5h1v1h-1z M15,5h1v1h-1z M16,5h1v1h-1z M20,5h1v1h-1z M22,5h1v1h-1z M26,5h1v1h-1z M27,5h1v1h-1z M29,5h1v1h-1z M31,5h1v1h-1z M33,5h1v1h-1z M37,5h1v1h-1z M41,5h1v1h-1z M42,5h1v1h-1z M43,5h1v1h-1z M44,5h1v1h-1z M46,5h1v1h-1z M52,5h1v1h-1z M4,6h1v1h-1z M6,6h1v1h-1z M7,6h1v1h-1z M8,6h1v1h-1z M10,6h1v1h-1z M12,6h1v1h-1z M13,6h1v1h-1z M14,6h1v1h-1z M22,6h1v1h-1z M23,6h1v1h-1z M24,6h1v1h-1z M25,6h1v1h-1z M27,6h1v1h-1z M28,6h1v1h-1z M32,6h1v1h-1z M34,6h1v1h-1z M35,6h1v1h-1z M36,6h1v1h-1z M43,6h1v1h-1z M44,6h1v1h-1z M46,6h1v1h-1z M48,6h1v1h-1z M49,6h1v1h-1z M50,6h1v1h-1z M52,6h1v1h-1z M4,7h1v1h-1z M6,7h1v1h-1z M7,7h1v1h-1z M8,7h1v1h-1z M10,7h1v1h-1z M12,7h1v1h-1z M14,7h1v1h-1z M15,7h1v1h-1z M16,7h1v1h-1z M19,7h1v1h-1z M20,7h1v1h-1z M21,7h1v1h-1z M22,7h1v1h-1z M23,7h1v1h-1z M25,7h1v1h-1z M28,7h1v1h-1z M29,7h1v1h-1z M30,7h1v1h-1z M33,7h1v1h-1z M35,7h1v1h-1z M37,7h1v1h-1z M40,7h1v1h-1z M43,7h1v1h-1z M46,7h1v1h-1z M48,7h1v1h-1z M49,7h1v1h-1z M50,7h1v1h-1z M52,7h1v1h-1z M4,8h1v1h-1z M6,8h1v1h-1z M7,8h1v1h-1z M8,8h1v1h-1z M10,8h1v1h-1z M12,8h1v1h-1z M15,8h1v1h-1z M17,8h1v1h-1z M18,8h1v1h-1z M19,8h1v1h-1z M22,8h1v1h-1z M25,8h1v1h-1z M26,8h1v1h-1z M27,8h1v1h-1z M28,8h1v1h-1z M29,8h1v1h-1z M30,8h1v1h-1z M33,8h1v1h-1z M34,8h1v1h-1z M37,8h1v1h-1z M41,8h1v1h-1z M46,8h1v1h-1z M48,8h1v1h-1z M49,8h1v1h-1z M50,8h1v1h-1z M52,8h1v1h-1z M4,9h1v1h-1z M10,9h1v1h-1z M12,9h1v1h-1z M13,9h1v1h-1z M14,9h1v1h-1z M16,9h1v1h-1z M21,9h1v1h-1z M23,9h1v1h-1z M25,9h1v1h-1z M26,9h1v1h-1z M30,9h1v1h-1z M31,9h1v1h-1z M33,9h1v1h-1z M35,9h1v1h-1z M36,9h1v1h-1z M37,9h1v1h-1z M38,9h1v1h-1z M40,9h1v1h-1z M42,9h1v1h-1z M46,9h1v1h-1z M52,9h1v1h-1z M4,10h1v1h-1z M5,10h1v1h-1z M6,10h1v1h-1z M7,10h1v1h-1z M8,10h1v1h-1z M9,10h1v1h-1z M10,10h1v1h-1z M12,10h1v1h-1z M14,10h1v1h-1z M16,10h1v1h-1z M18,10h1v1h-1z M20,10h1v1h-1z M22,10h1v1h-1z M24,10h1v1h-1z M26,10h1v1h-1z M28,10h1v1h-1z M30,10h1v1h-1z M32,10h1v1h-1z M34,10h1v1h-1z M36,10h1v1h-1z M38,10h1v1h-1z M40,10h1v1h-1z M42,10h1v1h-1z M44,10h1v1h-1z M46,10h1v1h-1z M47,10h1v1h-1z M48,10h1v1h-1z M49,10h1v1h-1z M50,10h1v1h-1z M51,10h1v1h-1z M52,10h1v1h-1z M12,11h1v1h-1z M13,11h1v1h-1z M16,11h1v1h-1z M19,11h1v1h-1z M21,11h1v1h-1z M22,11h1v1h-1z M26,11h1v1h-1z M30,11h1v1h-1z M31,11h1v1h-1z M32,11h1v1h-1z M33,11h1v1h-1z M34,11h1v1h-1z M36,11h1v1h-1z M40,11h1v1h-1z M4,12h1v1h-1z M6,12h1v1h-1z M7,12h1v1h-1z M8,12h1v1h-1z M9,12h1v1h-1z M10,12h1v1h-1z M13,12h1v1h-1z M14,12h1v1h-1z M15,12h1v1h-1z M16,12h1v1h-1z M20,12h1v1h-1z M22,12h1v1h-1z M23,12h1v1h-1z M24,12h1v1h-1z M26,12h1v1h-1z M27,12h1v1h-1z M28,12h1v1h-1z M29,12h1v1h-1z M30,12h1v1h-1z M33,12h1v1h-1z M34,12h1v1h-1z M35,12h1v1h-1z M39,12h1v1h-1z M40,12h1v1h-1z M42,12h1v1h-1z M43,12h1v1h-1z M44,12h1v1h-1z M46,12h1v1h-1z M47,12h1v1h-1z M48,12h1v1h-1z M49,12h1v1h-1z M50,12h1v1h-1z M4,13h1v1h-1z M5,13h1v1h-1z M6,13h1v1h-1z M12,13h1v1h-1z M13,13h1v1h-1z M14,13h1v1h-1z M15,13h1v1h-1z M20,13h1v1h-1z M22,13h1v1h-1z M23,13h1v1h-1z M26,13h1v1h-1z M27,13h1v1h-1z M28,13h1v1h-1z M29,13h1v1h-1z M32,13h1v1h-1z M34,13h1v1h-1z M39,13h1v1h-1z M43,13h1v1h-1z M45,13h1v1h-1z M46,13h1v1h-1z M48,13h1v1h-1z M4,14h1v1h-1z M5,14h1v1h-1z M6,14h1v1h-1z M8,14h1v1h-1z M9,14h1v1h-1z M10,14h1v1h-1z M12,14h1v1h-1z M13,14h1v1h-1z M14,14h1v1h-1z M18,14h1v1h-1z M21,14h1v1h-1z M23,14h1v1h-1z M25,14h1v1h-1z M28,14h1v1h-1z M29,14h1v1h-1z M30,14h1v1h-1z M32,14h1v1h-1z M35,14h1v1h-1z M36,14h1v1h-1z M38,14h1v1h-1z M39,14h1v1h-1z M41,14h1v1h-1z M42,14h1v1h-1z M43,14h1v1h-1z M45,14h1v1h-1z M46,14h1v1h-1z M48,14h1v1h-1z M50,14h1v1h-1z M52,14h1v1h-1z M7,15h1v1h-1z M13,15h1v1h-1z M14,15h1v1h-1z M17,15h1v1h-1z M18,15h1v1h-1z M19,15h1v1h-1z M23,15h1v1h-1z M25,15h1v1h-1z M30,15h1v1h-1z M35,15h1v1h-1z M36,15h1v1h-1z M38,15h1v1h-1z M39,15h1v1h-1z M41,15h1v1h-1z M44,15h1v1h-1z M45,15h1v1h-1z M48,15h1v1h-1z M51,15h1v1h-1z M4,16h1v1h-1z M5,16h1v1h-1z M6,16h1v1h-1z M8,16h1v1h-1z M10,16h1v1h-1z M11,16h1v1h-1z M12,16h1v1h-1z M15,16h1v1h-1z M17,16h1v1h-1z M20,16h1v1h-1z M22,16h1v1h-1z M25,16h1v1h-1z M26,16h1v1h-1z M28,16h1v1h-1z M29,16h1v1h-1z M30,16h1v1h-1z M33,16h1v1h-1z M34,16h1v1h-1z M35,16h1v1h-1z M37,16h1v1h-1z M39,16h1v1h-1z M40,16h1v1h-1z M41,16h1v1h-1z M43,16h1v1h-1z M44,16h1v1h-1z M45,16h1v1h-1z M47,16h1v1h-1z M49,16h1v1h-1z M50,16h1v1h-1z M4,17h1v1h-1z M5,17h1v1h-1z M6,17h1v1h-1z M8,17h1v1h-1z M9,17h1v1h-1z M12,17h1v1h-1z M14,17h1v1h-1z M16,17h1v1h-1z M19,17h1v1h-1z M21,17h1v1h-1z M23,17h1v1h-1z M24,17h1v1h-1z M26,17h1v1h-1z M27,17h1v1h-1z M33,17h1v1h-1z M34,17h1v1h-1z M35,17h1v1h-1z M37,17h1v1h-1z M39,17h1v1h-1z M40,17h1v1h-1z M46,17h1v1h-1z M47,17h1v1h-1z M49,17h1v1h-1z M51,17h1v1h-1z M4,18h1v1h-1z M7,18h1v1h-1z M8,18h1v1h-1z M9,18h1v1h-1z M10,18h1v1h-1z M11,18h1v1h-1z M16,18h1v1h-1z M24,18h1v1h-1z M25,18h1v1h-1z M26,18h1v1h-1z M28,18h1v1h-1z M30,18h1v1h-1z M33,18h1v1h-1z M35,18h1v1h-1z M37,18h1v1h-1z M38,18h1v1h-1z M40,18h1v1h-1z M42,18h1v1h-1z M44,18h1v1h-1z M48,18h1v1h-1z M51,18h1v1h-1z M52,18h1v1h-1z M4,19h1v1h-1z M6,19h1v1h-1z M7,19h1v1h-1z M8,19h1v1h-1z M14,19h1v1h-1z M15,19h1v1h-1z M19,19h1v1h-1z M21,19h1v1h-1z M23,19h1v1h-1z M24,19h1v1h-1z M26,19h1v1h-1z M27,19h1v1h-1z M31,19h1v1h-1z M34,19h1v1h-1z M35,19h1v1h-1z M36,19h1v1h-1z M38,19h1v1h-1z M46,19h1v1h-1z M48,19h1v1h-1z M52,19h1v1h-1z M5,20h1v1h-1z M9,20h1v1h-1z M10,20h1v1h-1z M14,20h1v1h-1z M16,20h1v1h-1z M17,20h1v1h-1z M18,20h1v1h-1z M20,20h1v1h-1z M21,20h1v1h-1z M22,20h1v1h-1z M23,20h1v1h-1z M24,20h1v1h-1z M25,20h1v1h-1z M28,20h1v1h-1z M30,20h1v1h-1z M32,20h1v1h-1z M33,20h1v1h-1z M37,20h1v1h-1z M38,20h1v1h-1z M39,20h1v1h-1z M40,20h1v1h-1z M42,20h1v1h-1z M43,20h1v1h-1z M44,20h1v1h-1z M45,20h1v1h-1z M46,20h1v1h-1z M47,20h1v1h-1z M50,20h1v1h-1z M5,21h1v1h-1z M6,21h1v1h-1z M11,21h1v1h-1z M13,21h1v1h-1z M15,21h1v1h-1z M17,21h1v1h-1z M19,21h1v1h-1z M20,21h1v1h-1z M22,21h1v1h-1z M23,21h1v1h-1z M26,21h1v1h-1z M28,21h1v1h-1z M31,21h1v1h-1z M32,21h1v1h-1z M33,21h1v1h-1z M34,21h1v1h-1z M36,21h1v1h-1z M40,21h1v1h-1z M41,21h1v1h-1z M43,21h1v1h-1z M45,21h1v1h-1z M46,21h1v1h-1z M5,22h1v1h-1z M6,22h1v1h-1z M7,22h1v1h-1z M8,22h1v1h-1z M10,22h1v1h-1z M11,22h1v1h-1z M13,22h1v1h-1z M15,22h1v1h-1z M16,22h1v1h-1z M18,22h1v1h-1z M19,22h1v1h-1z M21,22h1v1h-1z M22,22h1v1h-1z M23,22h1v1h-1z M24,22h1v1h-1z M26,22h1v1h-1z M30,22h1v1h-1z M32,22h1v1h-1z M33,22h1v1h-1z M36,22h1v1h-1z M38,22h1v1h-1z M40,22h1v1h-1z M42,22h1v1h-1z M43,22h1v1h-1z M45,22h1v1h-1z M46,22h1v1h-1z M47,22h1v1h-1z M49,22h1v1h-1z M51,22h1v1h-1z M52,22h1v1h-1z M4,23h1v1h-1z M7,23h1v1h-1z M8,23h1v1h-1z M11,23h1v1h-1z M16,23h1v1h-1z M19,23h1v1h-1z M20,23h1v1h-1z M23,23h1v1h-1z M24,23h1v1h-1z M29,23h1v1h-1z M30,23h1v1h-1z M31,23h1v1h-1z M32,23h1v1h-1z M33,23h1v1h-1z M34,23h1v1h-1z M36,23h1v1h-1z M38,23h1v1h-1z M41,23h1v1h-1z M42,23h1v1h-1z M44,23h1v1h-1z M45,23h1v1h-1z M48,23h1v1h-1z M5,24h1v1h-1z M6,24h1v1h-1z M10,24h1v1h-1z M11,24h1v1h-1z M12,24h1v1h-1z M18,24h1v1h-1z M19,24h1v1h-1z M22,24h1v1h-1z M23,24h1v1h-1z M24,24h1v1h-1z M25,24h1v1h-1z M26,24h1v1h-1z M28,24h1v1h-1z M30,24h1v1h-1z M34,24h1v1h-1z M35,24h1v1h-1z M37,24h1v1h-1z M38,24h1v1h-1z M40,24h1v1h-1z M42,24h1v1h-1z M44,24h1v1h-1z M46,24h1v1h-1z M50,24h1v1h-1z M51,24h1v1h-1z M52,24h1v1h-1z M4,25h1v1h-1z M5,25h1v1h-1z M6,25h1v1h-1z M13,25h1v1h-1z M17,25h1v1h-1z M18,25h1v1h-1z M19,25h1v1h-1z M20,25h1v1h-1z M22,25h1v1h-1z M25,25h1v1h-1z M26,25h1v1h-1z M28,25h1v1h-1z M29,25h1v1h-1z M30,25h1v1h-1z M31,25h1v1h-1z M32,25h1v1h-1z M33,25h1v1h-1z M34,25h1v1h-1z M35,25h1v1h-1z M41,25h1v1h-1z M45,25h1v1h-1z M46,25h1v1h-1z M48,25h1v1h-1z M49,25h1v1h-1z M52,25h1v1h-1z M8,26h1v1h-1z M9,26h1v1h-1z M10,26h1v1h-1z M11,26h1v1h-1z M12,26h1v1h-1z M14,26h1v1h-1z M19,26h1v1h-1z M22,26h1v1h-1z M25,26h1v1h-1z M26,26h1v1h-1z M27,26h1v1h-1z M28,26h1v1h-1z M29,26h1v1h-1z M30,26h1v1h-1z M37,26h1v1h-1z M38,26h1v1h-1z M39,26h1v1h-1z M40,26h1v1h-1z M42,26h1v1h-1z M44,26h1v1h-1z M45,26h1v1h-1z M46,26h1v1h-1z M47,26h1v1h-1z M48,26h1v1h-1z M49,26h1v1h-1z M50,26h1v1h-1z M51,26h1v1h-1z M52,26h1v1h-1z M4,27h1v1h-1z M5,27h1v1h-1z M8,27h1v1h-1z M12,27h1v1h-1z M13,27h1v1h-1z M14,27h1v1h-1z M18,27h1v1h-1z M20,27h1v1h-1z M21,27h1v1h-1z M26,27h1v1h-1z M30,27h1v1h-1z M31,27h1v1h-1z M32,27h1v1h-1z M33,27h1v1h-1z M36,27h1v1h-1z M37,27h1v1h-1z M38,27h1v1h-1z M42,27h1v1h-1z M44,27h1v1h-1z M48,27h1v1h-1z M51,27h1v1h-1z M6,28h1v1h-1z M7,28h1v1h-1z M8,28h1v1h-1z M10,28h1v1h-1z M12,28h1v1h-1z M13,28h1v1h-1z M15,28h1v1h-1z M16,28h1v1h-1z M17,28h1v1h-1z M18,28h1v1h-1z M20,28h1v1h-1z M22,28h1v1h-1z M24,28h1v1h-1z M25,28h1v1h-1z M26,28h1v1h-1z M28,28h1v1h-1z M30,28h1v1h-1z M33,28h1v1h-1z M35,28h1v1h-1z M37,28h1v1h-1z M40,28h1v1h-1z M42,28h1v1h-1z M44,28h1v1h-1z M46,28h1v1h-1z M48,28h1v1h-1z M49,28h1v1h-1z M50,28h1v1h-1z M51,28h1v1h-1z M8,29h1v1h-1z M12,29h1v1h-1z M16,29h1v1h-1z M19,29h1v1h-1z M20,29h1v1h-1z M22,29h1v1h-1z M23,29h1v1h-1z M25,29h1v1h-1z M26,29h1v1h-1z M30,29h1v1h-1z M32,29h1v1h-1z M33,29h1v1h-1z M34,29h1v1h-1z M43,29h1v1h-1z M44,29h1v1h-1z M48,29h1v1h-1z M49,29h1v1h-1z M51,29h1v1h-1z M6,30h1v1h-1z M8,30h1v1h-1z M9,30h1v1h-1z M10,30h1v1h-1z M11,30h1v1h-1z M12,30h1v1h-1z M13,30h1v1h-1z M21,30h1v1h-1z M23,30h1v1h-1z M24,30h1v1h-1z M26,30h1v1h-1z M27,30h1v1h-1z M28,30h1v1h-1z M29,30h1v1h-1z M30,30h1v1h-1z M32,30h1v1h-1z M37,30h1v1h-1z M38,30h1v1h-1z M39,30h1v1h-1z M42,30h1v1h-1z M43,30h1v1h-1z M44,30h1v1h-1z M45,30h1v1h-1z M46,30h1v1h-1z M47,30h1v1h-1z M48,30h1v1h-1z M51,30h1v1h-1z M52,30h1v1h-1z M4,31h1v1h-1z M7,31h1v1h-1z M9,31h1v1h-1z M12,31h1v1h-1z M13,31h1v1h-1z M15,31h1v1h-1z M18,31h1v1h-1z M23,31h1v1h-1z M24,31h1v1h-1z M25,31h1v1h-1z M26,31h1v1h-1z M27,31h1v1h-1z M28,31h1v1h-1z M31,31h1v1h-1z M32,31h1v1h-1z M34,31h1v1h-1z M36,31h1v1h-1z M37,31h1v1h-1z M41,31h1v1h-1z M42,31h1v1h-1z M48,31h1v1h-1z M51,31h1v1h-1z M52,31h1v1h-1z M4,32h1v1h-1z M5,32h1v1h-1z M6,32h1v1h-1z M8,32h1v1h-1z M9,32h1v1h-1z M10,32h1v1h-1z M13,32h1v1h-1z M14,32h1v1h-1z M15,32h1v1h-1z M17,32h1v1h-1z M23,32h1v1h-1z M28,32h1v1h-1z M29,32h1v1h-1z M33,32h1v1h-1z M35,32h1v1h-1z M37,32h1v1h-1z M38,32h1v1h-1z M39,32h1v1h-1z M40,32h1v1h-1z M42,32h1v1h-1z M43,32h1v1h-1z M44,32h1v1h-1z M47,32h1v1h-1z M48,32h1v1h-1z M50,32h1v1h-1z M51,32h1v1h-1z M7,33h1v1h-1z M8,33h1v1h-1z M11,33h1v1h-1z M13,33h1v1h-1z M14,33h1v1h-1z M19,33h1v1h-1z M20,33h1v1h-1z M25,33h1v1h-1z M27,33h1v1h-1z M32,33h1v1h-1z M33,33h1v1h-1z M34,33h1v1h-1z M35,33h1v1h-1z M36,33h1v1h-1z M40,33h1v1h-1z M41,33h1v1h-1z M43,33h1v1h-1z M44,33h1v1h-1z M45,33h1v1h-1z M49,33h1v1h-1z M4,34h1v1h-1z M5,34h1v1h-1z M6,34h1v1h-1z M7,34h1v1h-1z M8,34h1v1h-1z M10,34h1v1h-1z M14,34h1v1h-1z M16,34h1v1h-1z M17,34h1v1h-1z M18,34h1v1h-1z M21,34h1v1h-1z M23,34h1v1h-1z M26,34h1v1h-1z M29,34h1v1h-1z M32,34h1v1h-1z M35,34h1v1h-1z M36,34h1v1h-1z M37,34h1v1h-1z M38,34h1v1h-1z M39,34h1v1h-1z M40,34h1v1h-1z M42,34h1v1h-1z M46,34h1v1h-1z M48,34h1v1h-1z M49,34h1v1h-1z M50,34h1v1h-1z M51,34h1v1h-1z M52,34h1v1h-1z M4,35h1v1h-1z M6,35h1v1h-1z M7,35h1v1h-1z M9,35h1v1h-1z M11,35h1v1h-1z M12,35h1v1h-1z M25,35h1v1h-1z M27,35h1v1h-1z M30,35h1v1h-1z M33,35h1v1h-1z M35,35h1v1h-1z M36,35h1v1h-1z M39,35h1v1h-1z M41,35h1v1h-1z M44,35h1v1h-1z M45,35h1v1h-1z M5,36h1v1h-1z M6,36h1v1h-1z M7,36h1v1h-1z M10,36h1v1h-1z M12,36h1v1h-1z M14,36h1v1h-1z M16,36h1v1h-1z M17,36h1v1h-1z M19,36h1v1h-1z M20,36h1v1h-1z M22,36h1v1h-1z M24,36h1v1h-1z M25,36h1v1h-1z M27,36h1v1h-1z M29,36h1v1h-1z M30,36h1v1h-1z M31,36h1v1h-1z M33,36h1v1h-1z M34,36h1v1h-1z M39,36h1v1h-1z M40,36h1v1h-1z M41,36h1v1h-1z M42,36h1v1h-1z M43,36h1v1h-1z M44,36h1v1h-1z M45,36h1v1h-1z M48,36h1v1h-1z M50,36h1v1h-1z M4,37h1v1h-1z M5,37h1v1h-1z M6,37h1v1h-1z M8,37h1v1h-1z M11,37h1v1h-1z M15,37h1v1h-1z M17,37h1v1h-1z M19,37h1v1h-1z M23,37h1v1h-1z M25,37h1v1h-1z M26,37h1v1h-1z M28,37h1v1h-1z M29,37h1v1h-1z M30,37h1v1h-1z M34,37h1v1h-1z M36,37h1v1h-1z M39,37h1v1h-1z M40,37h1v1h-1z M41,37h1v1h-1z M43,37h1v1h-1z M45,37h1v1h-1z M47,37h1v1h-1z M51,37h1v1h-1z M52,37h1v1h-1z M8,38h1v1h-1z M10,38h1v1h-1z M11,38h1v1h-1z M13,38h1v1h-1z M14,38h1v1h-1z M16,38h1v1h-1z M19,38h1v1h-1z M20,38h1v1h-1z M24,38h1v1h-1z M25,38h1v1h-1z M29,38h1v1h-1z M31,38h1v1h-1z M34,38h1v1h-1z M37,38h1v1h-1z M38,38h1v1h-1z M40,38h1v1h-1z M41,38h1v1h-1z M42,38h1v1h-1z M43,38h1v1h-1z M45,38h1v1h-1z M46,38h1v1h-1z M47,38h1v1h-1z M49,38h1v1h-1z M51,38h1v1h-1z M52,38h1v1h-1z M5,39h1v1h-1z M6,39h1v1h-1z M7,39h1v1h-1z M8,39h1v1h-1z M9,39h1v1h-1z M12,39h1v1h-1z M14,39h1v1h-1z M16,39h1v1h-1z M18,39h1v1h-1z M20,39h1v1h-1z M22,39h1v1h-1z M26,39h1v1h-1z M34,39h1v1h-1z M36,39h1v1h-1z M38,39h1v1h-1z M39,39h1v1h-1z M41,39h1v1h-1z M43,39h1v1h-1z M44,39h1v1h-1z M45,39h1v1h-1z M47,39h1v1h-1z M48,39h1v1h-1z M52,39h1v1h-1z M5,40h1v1h-1z M7,40h1v1h-1z M8,40h1v1h-1z M10,40h1v1h-1z M13,40h1v1h-1z M17,40h1v1h-1z M20,40h1v1h-1z M21,40h1v1h-1z M22,40h1v1h-1z M23,40h1v1h-1z M24,40h1v1h-1z M27,40h1v1h-1z M28,40h1v1h-1z M33,40h1v1h-1z M34,40h1v1h-1z M35,40h1v1h-1z M39,40h1v1h-1z M40,40h1v1h-1z M41,40h1v1h-1z M43,40h1v1h-1z M45,40h1v1h-1z M46,40h1v1h-1z M47,40h1v1h-1z M48,40h1v1h-1z M50,40h1v1h-1z M52,40h1v1h-1z M4,41h1v1h-1z M6,41h1v1h-1z M9,41h1v1h-1z M11,41h1v1h-1z M12,41h1v1h-1z M15,41h1v1h-1z M16,41h1v1h-1z M17,41h1v1h-1z M18,41h1v1h-1z M19,41h1v1h-1z M20,41h1v1h-1z M22,41h1v1h-1z M25,41h1v1h-1z M27,41h1v1h-1z M28,41h1v1h-1z M30,41h1v1h-1z M32,41h1v1h-1z M33,41h1v1h-1z M34,41h1v1h-1z M36,41h1v1h-1z M39,41h1v1h-1z M41,41h1v1h-1z M45,41h1v1h-1z M46,41h1v1h-1z M47,41h1v1h-1z M51,41h1v1h-1z M52,41h1v1h-1z M5,42h1v1h-1z M9,42h1v1h-1z M10,42h1v1h-1z M11,42h1v1h-1z M12,42h1v1h-1z M13,42h1v1h-1z M14,42h1v1h-1z M15,42h1v1h-1z M19,42h1v1h-1z M20,42h1v1h-1z M21,42h1v1h-1z M24,42h1v1h-1z M26,42h1v1h-1z M27,42h1v1h-1z M28,42h1v1h-1z M31,42h1v1h-1z M33,42h1v1h-1z M35,42h1v1h-1z M36,42h1v1h-1z M37,42h1v1h-1z M38,42h1v1h-1z M40,42h1v1h-1z M41,42h1v1h-1z M42,42h1v1h-1z M43,42h1v1h-1z M44,42h1v1h-1z M45,42h1v1h-1z M46,42h1v1h-1z M47,42h1v1h-1z M49,42h1v1h-1z M51,42h1v1h-1z M52,42h1v1h-1z M5,43h1v1h-1z M6,43h1v1h-1z M7,43h1v1h-1z M12,43h1v1h-1z M14,43h1v1h-1z M15,43h1v1h-1z M16,43h1v1h-1z M19,43h1v1h-1z M20,43h1v1h-1z M21,43h1v1h-1z M25,43h1v1h-1z M26,43h1v1h-1z M27,43h1v1h-1z M28,43h1v1h-1z M29,43h1v1h-1z M30,43h1v1h-1z M31,43h1v1h-1z M32,43h1v1h-1z M33,43h1v1h-1z M34,43h1v1h-1z M35,43h1v1h-1z M36,43h1v1h-1z M37,43h1v1h-1z M44,43h1v1h-1z M45,43h1v1h-1z M46,43h1v1h-1z M51,43h1v1h-1z M52,43h1v1h-1z M4,44h1v1h-1z M5,44h1v1h-1z M6,44h1v1h-1z M10,44h1v1h-1z M12,44h1v1h-1z M14,44h1v1h-1z M16,44h1v1h-1z M22,44h1v1h-1z M24,44h1v1h-1z M25,44h1v1h-1z M26,44h1v1h-1z M27,44h1v1h-1z M28,44h1v1h-1z M29,44h1v1h-1z M30,44h1v1h-1z M33,44h1v1h-1z M34,44h1v1h-1z M35,44h1v1h-1z M40,44h1v1h-1z M42,44h1v1h-1z M43,44h1v1h-1z M44,44h1v1h-1z M45,44h1v1h-1z M46,44h1v1h-1z M47,44h1v1h-1z M48,44h1v1h-1z M49,44h1v1h-1z M50,44h1v1h-1z M52,44h1v1h-1z M12,45h1v1h-1z M13,45h1v1h-1z M15,45h1v1h-1z M17,45h1v1h-1z M18,45h1v1h-1z M21,45h1v1h-1z M22,45h1v1h-1z M23,45h1v1h-1z M25,45h1v1h-1z M26,45h1v1h-1z M30,45h1v1h-1z M31,45h1v1h-1z M32,45h1v1h-1z M33,45h1v1h-1z M34,45h1v1h-1z M35,45h1v1h-1z M44,45h1v1h-1z M48,45h1v1h-1z M49,45h1v1h-1z M51,45h1v1h-1z M4,46h1v1h-1z M5,46h1v1h-1z M6,46h1v1h-1z M7,46h1v1h-1z M8,46h1v1h-1z M9,46h1v1h-1z M10,46h1v1h-1z M13,46h1v1h-1z M14,46h1v1h-1z M15,46h1v1h-1z M17,46h1v1h-1z M22,46h1v1h-1z M23,46h1v1h-1z M24,46h1v1h-1z M25,46h1v1h-1z M26,46h1v1h-1z M28,46h1v1h-1z M30,46h1v1h-1z M31,46h1v1h-1z M34,46h1v1h-1z M35,46h1v1h-1z M36,46h1v1h-1z M37,46h1v1h-1z M38,46h1v1h-1z M39,46h1v1h-1z M42,46h1v1h-1z M44,46h1v1h-1z M46,46h1v1h-1z M48,46h1v1h-1z M50,46h1v1h-1z M52,46h1v1h-1z M4,47h1v1h-1z M10,47h1v1h-1z M12,47h1v1h-1z M15,47h1v1h-1z M16,47h1v1h-1z M19,47h1v1h-1z M25,47h1v1h-1z M26,47h1v1h-1z M30,47h1v1h-1z M31,47h1v1h-1z M32,47h1v1h-1z M36,47h1v1h-1z M37,47h1v1h-1z M39,47h1v1h-1z M44,47h1v1h-1z M48,47h1v1h-1z M4,48h1v1h-1z M6,48h1v1h-1z M7,48h1v1h-1z M8,48h1v1h-1z M10,48h1v1h-1z M12,48h1v1h-1z M14,48h1v1h-1z M21,48h1v1h-1z M25,48h1v1h-1z M26,48h1v1h-1z M27,48h1v1h-1z M28,48h1v1h-1z M29,48h1v1h-1z M30,48h1v1h-1z M31,48h1v1h-1z M33,48h1v1h-1z M34,48h1v1h-1z M39,48h1v1h-1z M40,48h1v1h-1z M41,48h1v1h-1z M42,48h1v1h-1z M43,48h1v1h-1z M44,48h1v1h-1z M45,48h1v1h-1z M46,48h1v1h-1z M47,48h1v1h-1z M48,48h1v1h-1z M49,48h1v1h-1z M51,48h1v1h-1z M4,49h1v1h-1z M6,49h1v1h-1z M7,49h1v1h-1z M8,49h1v1h-1z M10,49h1v1h-1z M12,49h1v1h-1z M16,49h1v1h-1z M19,49h1v1h-1z M20,49h1v1h-1z M21,49h1v1h-1z M23,49h1v1h-1z M24,49h1v1h-1z M26,49h1v1h-1z M27,49h1v1h-1z M31,49h1v1h-1z M33,49h1v1h-1z M34,49h1v1h-1z M35,49h1v1h-1z M39,49h1v1h-1z M41,49h1v1h-1z M45,49h1v1h-1z M46,49h1v1h-1z M47,49h1v1h-1z M48,49h1v1h-1z M49,49h1v1h-1z M52,49h1v1h-1z M4,50h1v1h-1z M6,50h1v1h-1z M7,50h1v1h-1z M8,50h1v1h-1z M10,50h1v1h-1z M12,50h1v1h-1z M13,50h1v1h-1z M14,50h1v1h-1z M15,50h1v1h-1z M19,50h1v1h-1z M22,50h1v1h-1z M24,50h1v1h-1z M27,50h1v1h-1z M28,50h1v1h-1z M29,50h1v1h-1z M33,50h1v1h-1z M35,50h1v1h-1z M37,50h1v1h-1z M38,50h1v1h-1z M40,50h1v1h-1z M41,50h1v1h-1z M42,50h1v1h-1z M45,50h1v1h-1z M46,50h1v1h-1z M50,50h1v1h-1z M4,51h1v1h-1z M10,51h1v1h-1z M13,51h1v1h-1z M17,51h1v1h-1z M19,51h1v1h-1z M21,51h1v1h-1z M23,51h1v1h-1z M24,51h1v1h-1z M26,51h1v1h-1z M27,51h1v1h-1z M28,51h1v1h-1z M31,51h1v1h-1z M33,51h1v1h-1z M36,51h1v1h-1z M38,51h1v1h-1z M45,51h1v1h-1z M46,51h1v1h-1z M49,51h1v1h-1z M52,51h1v1h-1z M4,52h1v1h-1z M5,52h1v1h-1z M6,52h1v1h-1z M7,52h1v1h-1z M8,52h1v1h-1z M9,52h1v1h-1z M10,52h1v1h-1z M12,52h1v1h-1z M13,52h1v1h-1z M14,52h1v1h-1z M15,52h1v1h-1z M17,52h1v1h-1z M19,52h1v1h-1z M21,52h1v1h-1z M23,52h1v1h-1z M24,52h1v1h-1z M28,52h1v1h-1z M29,52h1v1h-1z M32,52h1v1h-1z M39,52h1v1h-1z M40,52h1v1h-1z M42,52h1v1h-1z M43,52h1v1h-1z M49,52h1v1h-1z M50,52h1v1h-1z M51,52h1v1h-1z M52,52h1v1h-1z" fill="#000000"/>
</svg>
