<?xml version="1.0" encoding="UTF-8"?>
<!DOCTYPE svg PUBLIC "-//W3C//DTD SVG 1.1//EN" "http://www.w3.org/Graphics/SVG/1.1/DTD/svg11.dtd">
<svg xmlns="http://www.w3.org/2000/svg" version="1.1" viewBox="0 0 53 53" stroke="none">
	<rect width="100%" height="100%" fill="#FFFFFF"/>
	<path d="M4,4h1v1h-1z M5,4h1v1h-1z M6,4h1v1h-1z M7,4h1v1h-1z M8,4h1v1h-1z M9,4h1v1h-1z M10,4h1v1h-1z M13,4h1v1h-1z M15,4h1v1h-1z M17,4h1v1h-1z M18,4h1v1h-1z M19,4h1v1h-1z M21,4h1v1h-1z M24,4h1v1h-1z M25,4h1v1h-1z M30,4h1v1h-1z M31,4h1v1h-1z M34,4h1v1h-1z M35,4h1v1h-1z M36,4h1v1h-1z M40,4h1v1h-1z M42,4h1v1h-1z M43,4h1v1h-1z M44,4h1v1h-1z M45,4h1v1h-1z M46,4h1v1h-1z M47,4h1v1h-1z M48,4h1v1h-1z M4,5h1v1h-1z M10,5h1v1h-1z M12,5h1v1h-1z M13,5h1v1h-1z M16,5h1v1h-1z M20,5h1v1h-1z M21,5h1v1h-1z M22,5h1v1h-1z M27,5h1v1h-1z M28,5h1v1h-1z M29,5h1v1h-1z M30,5h1v1h-1z M35,5h1v1h-1z M39,5h1v1h-1z M42,5h1v1h-1z M48,5h1v1h-1z M4,6h1v1h-1z M6,6h1v1h-1z M7,6h1v1h-1z M8,6h1v1h-1z M10,6h1v1h-1z M12,6h1v1h-1z M13,6h1v1h-1z M16,6h1v1h-1z M21,6h1v1h-1z M22,6h1v1h-1z M23,6h1v1h-1z M24,6h1v1h-1z M27,6h1v1h-1z M28,6h1v1h-1z M30,6h1v1h-1z M31,6h1v1h-1z M32,6h1v1h-1z M33,6h1v1h-1z M34,6h1v1h-1z M36,6h1v1h-1z M37,6h1v1h-1z M39,6h1v1h-1z M42,6h1v1h-1z M44,6h1v1h-1z M45,6h1v1h-1z M46,6h1v1h-1z M48,6h1v1h-1z M4,7h1v1h-1z M6,7h1v1h-1z M7,7h1v1h-1z M8,7h1v1h-1z M10,7h1v1h-1z M12,7h1v1h-1z M13,7h1v1h-1z M15,7h1v1h-1z M16,7h1v1h-1z M17,7h1v1h-1z M18,7h1v1h-1z M21,7h1v1h-1z M22,7h1v1h-1z M23,7h1v1h-1z M28,7h1v1h-1z M30,7h1v1h-1z M32,7h1v1h-1z M33,7h1v1h-1z M34,7h1v1h-1z M36,7h1v1h-1z M37,7h1v1h-1z M39,7h1v1h-1z M40,7h1v1h-1z M42,7h1v1h-1z M44,7h1v1h-1z M45,7h1v1h-1z M46,7h1v1h-1z M48,7h1v1h-1z M4,8h1v1h-1z M6,8h1v1h-1z M7,8h1v1h-1z M8,8h1v1h-1z M10,8h1v1h-1z M14,8h1v1h-1z M15,8h1v1h-1z M16,8h1v1h-1z M17,8h1v1h-1z M19,8h1v1h-1z M20,8h1v1h-1z M21,8h1v1h-1z M23,8h1v1h-1z M24,8h1v1h-1z M25,8h1v1h-1z M26,8h1v1h-1z M27,8h1v1h-1z M28,8h1v1h-1z M29,8h1v1h-1z M31,8h1v1h-1z M32,8h1v1h-1z M33,8h1v1h-1z M34,8h1v1h-1z M38,8h1v1h-1z M39,8h1v1h-1z M40,8h1v1h-1z M42,8h1v1h-1z M44,8h1v1h-1z M45,8h1v1h-1z M46,8h1v1h-1z M48,8h1v1h-1z M4,9h1v1h-1z M10,9h1v1h-1z M13,9h1v1h-1z M14,9h1v1h-1z M15,9h1v1h-1z M16,9h1v1h-1z M19,9h1v1h-1z M20,9h1v1h-1z M22,9h1v1h-1z M24,9h1v1h-1z M28,9h1v1h-1z M33,9h1v1h-1z M34,9h1v1h-1z M35,9h1v1h-1z M36,9h1v1h-1z M42,9h1v1h-1z M48,9h1v1h-1z M4,10h1v1h-1z M5,10h1v1h-1z M6,10h1v1h-1z M7,10h1v1h-1z M8,10h1v1h-1z M9,10h1v1h-1z M10,10h1v1h-1z M12,10h1v1h-1z M14,10h1v1h-1z M16,10h1v1h-1z M18,10h1v1h-1z M20,10h1v1h-1z M22,10h1v1h-1z M24,10h1v1h-1z M26,10h1v1h-1z M28,10h1v1h-1z M30,10h1v1h-1z M32,10h1v1h-1z M34,10h1v1h-1z M36,10h1v1h-1z M38,10h1v1h-1z M40,10h1v1h-1z M42,10h1v1h-1z M43,10h1v1h-1z M44,10h1v1h-1z M45,10h1v1h-1z M46,10h1v1h-1z M47,10h1v1h-1z M48,10h1v1h-1z M12,11h1v1h-1z M14,11h1v1h-1z M15,11h1v1h-1z M16,11h1v1h-1z M18,11h1v1h-1z M19,11h1v1h-1z M21,11h1v1h-1z M22,11h1v1h-1z M23,11h1v1h-1z M24,11h1v1h-1z M28,11h1v1h-1z M29,11h1v1h-1z M30,11h1v1h-1z M32,11h1v1h-1z M33,11h1v1h-1z M35,11h1v1h-1z M37,11h1v1h-1z M39,11h1v1h-1z M4,12h1v1h-1z M10,12h1v1h-1z M12,12h1v1h-1z M14,12h1v1h-1z M20,12h1v1h-1z M22,12h1v1h-1z M23,12h1v1h-1z M24,12h1v1h-1z M25,12h1v1h-1z M26,12h1v1h-1z M27,12h1v1h-1z M28,12h1v1h-1z M29,12h1v1h-1z M30,12h1v1h-1z M31,12h1v1h-1z M33,12h1v1h-1z M35,12h1v1h-1z M38,12h1v1h-1z M39,12h1v1h-1z M41,12h1v1h-1z M42,12h1v1h-1z M45,12h1v1h-1z M46,12h1v1h-1z M47,12h1v1h-1z M4,13h1v1h-1z M8,13h1v1h-1z M13,13h1v1h-1z M14,13h1v1h-1z M17,13h1v1h-1z M18,13h1v1h-1z M21,13h1v1h-1z M22,13h1v1h-1z M24,13h1v1h-1z M25,13h1v1h-1z M26,13h1v1h-1z M27,13h1v1h-1z M29,13h1v1h-1z M30,13h1v1h-1z M31,13h1v1h-1z M32,13h1v1h-1z M33,13h1v1h-1z M34,13h1v1h-1z M35,13h1v1h-1z M36,13h1v1h-1z M37,13h1v1h-1z M38,13h1v1h-1z M40,13h1v1h-1z M42,13h1v1h-1z M45,13h1v1h-1z M47,13h1v1h-1z M5,14h1v1h-1z M6,14h1v1h-1z M9,14h1v1h-1z M10,14h1v1h-1z M11,14h1v1h-1z M13,14h1v1h-1z M14,14h1v1h-1z M15,14h1v1h-1z M17,14h1v1h-1z M18,14h1v1h-1z M19,14h1v1h-1z M21,14h1v1h-1z M22,14h1v1h-1z M28,14h1v1h-1z M30,14h1v1h-1z M34,14h1v1h-1z M38,14h1v1h-1z M40,14h1v1h-1z M42,14h1v1h-1z M43,14h1v1h-1z M44,14h1v1h-1z M45,14h1v1h-1z M47,14h1v1h-1z M4,15h1v1h-1z M7,15h1v1h-1z M8,15h1v1h-1z M11,15h1v1h-1z M12,15h1v1h-1z M13,15h1v1h-1z M14,15h1v1h-1z M16,15h1v1h-1z M17,15h1v1h-1z M19,15h1v1h-1z M22,15h1v1h-1z M23,15h1v1h-1z M24,15h1v1h-1z M25,15h1v1h-1z M29,15h1v1h-1z M30,15h1v1h-1z M32,15h1v1h-1z M34,15h1v1h-1z M35,15h1v1h-1z M40,15h1v1h-1z M41,15h1v1h-1z M42,15h1v1h-1z M44,15h1v1h-1z M46,15h1v1h-1z M4,16h1v1h-1z M5,16h1v1h-1z M8,16h1v1h-1z M9,16h1v1h-1z M10,16h1v1h-1z M12,16h1v1h-1z M13,16h1v1h-1z M15,16h1v1h-1z M17,16h1v1h-1z M19,16h1v1h-1z M20,16h1v1h-1z M22,16h1v1h-1z M23,16h1v1h-1z M27,16h1v1h-1z M28,16h1v1h-1z M29,16h1v1h-1z M32,16h1v1h-1z M33,16h1v1h-1z M36,16h1v1h-1z M37,16h1v1h-1z M39,16h1v1h-1z M44,16h1v1h-1z M47,16h1v1h-1z M4,17h1v1h-1z M7,17h1v1h-1z M8,17h1v1h-1z M11,17h1v1h-1z M12,17h1v1h-1z M14,17h1v1h-1z M15,17h1v1h-1z M16,17h1v1h-1z M17,17h1v1h-1z M18,17h1v1h-1z M19,17h1v1h-1z M23,17h1v1h-1z M24,17h1v1h-1z M26,17h1v1h-1z M33,17h1v1h-1z M34,17h1v1h-1z M35,17h1v1h-1z M37,17h1v1h-1z M40,17h1v1h-1z M41,17h1v1h-1z M46,17h1v1h-1z M47,17h1v1h-1z M48,17h1v1h-1z M6,18h1v1h-1z M8,18h1v1h-1z M9,18h1v1h-1z M10,18h1v1h-1z M12,18h1v1h-1z M13,18h1v1h-1z M19,18h1v1h-1z M20,18h1v1h-1z M21,18h1v1h-1z M22,18h1v1h-1z M23,18h1v1h-1z M24,18h1v1h-1z M25,18h1v1h-1z M26,18h1v1h-1z M27,18h1v1h-1z M28,18h1v1h-1z M30,18h1v1h-1z M31,18h1v1h-1z M37,18h1v1h-1z M38,18h1v1h-1z M39,18h1v1h-1z M42,18h1v1h-1z M47,18h1v1h-1z M5,19h1v1h-1z M8,19h1v1h-1z M11,19h1v1h-1z M12,19h1v1h-1z M13,19h1v1h-1z M14,19h1v1h-1z M17,19h1v1h-1z M19,19h1v1h-1z M20,19h1v1h-1z M21,19h1v1h-1z M22,19h1v1h-1z M23,19h1v1h-1z M24,19h1v1h-1z M26,19h1v1h-1z M27,19h1v1h-1z M28,19h1v1h-1z M32,19h1v1h-1z M34,19h1v1h-1z M35,19h1v1h-1z M41,19h1v1h-1z M45,19h1v1h-1z M46,19h1v1h-1z M48,19h1v1h-1z M4,20h1v1h-1z M7,20h1v1h-1z M9,20h1v1h-1z M10,20h1v1h-1z M11,20h1v1h-1z M12,20h1v1h-1z M14,20h1v1h-1z M18,20h1v1h-1z M20,20h1v1h-1z M22,20h1v1h-1z M26,20h1v1h-1z M27,20h1v1h-1z M29,20h1v1h-1z M33,20h1v1h-1z M34,20h1v1h-1z M35,20h1v1h-1z M39,20h1v1h-1z M41,20h1v1h-1z M42,20h1v1h-1z M43,20h1v1h-1z M48,20h1v1h-1z M6,21h1v1h-1z M7,21h1v1h-1z M8,21h1v1h-1z M11,21h1v1h-1z M12,21h1v1h-1z M14,21h1v1h-1z M16,21h1v1h-1z M18,21h1v1h-1z M19,21h1v1h-1z M23,21h1v1h-1z M25,21h1v1h-1z M27,21h1v1h-1z M29,21h1v1h-1z M31,21h1v1h-1z M33,21h1v1h-1z M34,21h1v1h-1z M35,21h1v1h-1z M36,21h1v1h-1z M39,21h1v1h-1z M40,21h1v1h-1z M41,21h1v1h-1z M43,21h1v1h-1z M44,21h1v1h-1z M45,21h1v1h-1z M46,21h1v1h-1z M5,22h1v1h-1z M6,22h1v1h-1z M7,22h1v1h-1z M9,22h1v1h-1z M10,22h1v1h-1z M12,22h1v1h-1z M13,22h1v1h-1z M14,22h1v1h-1z M17,22h1v1h-1z M18,22h1v1h-1z M21,22h1v1h-1z M22,22h1v1h-1z M23,22h1v1h-1z M25,22h1v1h-1z M26,22h1v1h-1z M28,22h1v1h-1z M30,22h1v1h-1z M32,22h1v1h-1z M35,22h1v1h-1z M36,22h1v1h-1z M42,22h1v1h-1z M43,22h1v1h-1z M46,22h1v1h-1z M48,22h1v1h-1z M4,23h1v1h-1z M6,23h1v1h-1z M7,23h1v1h-1z M8,23h1v1h-1z M9,23h1v1h-1z M11,23h1v1h-1z M14,23h1v1h-1z M15,23h1v1h-1z M18,23h1v1h-1z M19,23h1v1h-1z M20,23h1v1h-1z M23,23h1v1h-1z M27,23h1v1h-1z M28,23h1v1h-1z M29,23h1v1h-1z M30,23h1v1h-1z M32,23h1v1h-1z M34,23h1v1h-1z M36,23h1v1h-1z M39,23h1v1h-1z M40,23h1v1h-1z M42,23h1v1h-1z M44,23h1v1h-1z M45,23h1v1h-1z M46,23h1v1h-1z M47,23h1v1h-1z M7,24h1v1h-1z M8,24h1v1h-1z M9,24h1v1h-1z M10,24h1v1h-1z M11,24h1v1h-1z M12,24h1v1h-1z M14,24h1v1h-1z M16,24h1v1h-1z M17,24h1v1h-1z M19,24h1v1h-1z M21,24h1v1h-1z M22,24h1v1h-1z M24,24h1v1h-1z M25,24h1v1h-1z M26,24h1v1h-1z M27,24h1v1h-1z M28,24h1v1h-1z M30,24h1v1h-1z M31,24h1v1h-1z M38,24h1v1h-1z M40,24h1v1h-1z M41,24h1v1h-1z M42,24h1v1h-1z M43,24h1v1h-1z M44,24h1v1h-1z M47,24h1v1h-1z M4,25h1v1h-1z M5,25h1v1h-1z M7,25h1v1h-1z M8,25h1v1h-1z M12,25h1v1h-1z M14,25h1v1h-1z M16,25h1v1h-1z M18,25h1v1h-1z M24,25h1v1h-1z M28,25h1v1h-1z M29,25h1v1h-1z M30,25h1v1h-1z M33,25h1v1h-1z M34,25h1v1h-1z M37,25h1v1h-1z M38,25h1v1h-1z M39,25h1v1h-1z M40,25h1v1h-1z M44,25h1v1h-1z M45,25h1v1h-1z M46,25h1v1h-1z M8,26h1v1h-1z M10,26h1v1h-1z M12,26h1v1h-1z M13,26h1v1h-1z M14,26h1v1h-1z M15,26h1v1h-1z M16,26h1v1h-1z M19,26h1v1h-1z M21,26h1v1h-1z M24,26h1v1h-1z M26,26h1v1h-1z M28,26h1v1h-1z M29,26h1v1h-1z M30,26h1v1h-1z M31,26h1v1h-1z M32,26h1v1h-1z M34,26h1v1h-1z M38,26h1v1h-1z M40,26h1v1h-1z M42,26h1v1h-1z M44,26h1v1h-1z M46,26h1v1h-1z M6,27h1v1h-1z M7,27h1v1h-1z M8,27h1v1h-1z M12,27h1v1h-1z M14,27h1v1h-1z M16,27h1v1h-1z M17,27h1v1h-1z M18,27h1v1h-1z M20,27h1v1h-1z M24,27h1v1h-1z M28,27h1v1h-1z M29,27h1v1h-1z M32,27h1v1h-1z M33,27h1v1h-1z M35,27h1v1h-1z M36,27h1v1h-1z M37,27h1v1h-1z M40,27h1v1h-1z M44,27h1v1h-1z M45,27h1v1h-1z M46,27h1v1h-1z M4,28h1v1h-1z M5,28h1v1h-1z M8,28h1v1h-1z M9,28h1v1h-1z M10,28h1v1h-1z M11,28h1v1h-1z M12,28h1v1h-1z M13,28h1v1h-1z M14,28h1v1h-1z M18,28h1v1h-1z M20,28h1v1h-1z M24,28h1v1h-1z M25,28h1v1h-1z M26,28h1v1h-1z M27,28h1v1h-1z M28,28h1v1h-1z M30,28h1v1h-1z M32,28h1v1h-1z M33,28h1v1h-1z M34,28h1v1h-1z M35,28h1v1h-1z M36,28h1v1h-1z M40,28h1v1h-1z M41,28h1v1h-1z M42,28h1v1h-1z M43,28h1v1h-1z M44,28h1v1h-1z M48,28h1v1h-1z M5,29h1v1h-1z M6,29h1v1h-1z M8,29h1v1h-1z M9,29h1v1h-1z M11,29h1v1h-1z M12,29h1v1h-1z M14,29h1v1h-1z M15,29h1v1h-1z M16,29h1v1h-1z M17,29h1v1h-1z M18,29h1v1h-1z M19,29h1v1h-1z M20,29h1v1h-1z M22,29h1v1h-1z M24,29h1v1h-1z M26,29h1v1h-1z M27,29h1v1h-1z M28,29h1v1h-1z M29,29h1v1h-1z M31,29h1v1h-1z M33,29h1v1h-1z M34,29h1v1h-1z M40,29h1v1h-1z M41,29h1v1h-1z M43,29h1v1h-1z M45,29h1v1h-1z M48,29h1v1h-1z M4,30h1v1h-1z M5,30h1v1h-1z M8,30h1v1h-1z M10,30h1v1h-1z M14,30h1v1h-1z M17,30h1v1h-1z M22,30h1v1h-1z M24,30h1v1h-1z M25,30h1v1h-1z M29,30h1v1h-1z M30,30h1v1h-1z M32,30h1v1h-1z M37,30h1v1h-1z M38,30h1v1h-1z M39,30h1v1h-1z M41,30h1v1h-1z M44,30h1v1h-1z M45,30h1v1h-1z M47,30h1v1h-1z M9,31h1v1h-1z M14,31h1v1h-1z M15,31h1v1h-1z M16,31h1v1h-1z M17,31h1v1h-1z M19,31h1v1h-1z M20,31h1v1h-1z M21,31h1v1h-1z M25,31h1v1h-1z M26,31h1v1h-1z M27,31h1v1h-1z M28,31h1v1h-1z M29,31h1v1h-1z M31,31h1v1h-1z M33,31h1v1h-1z M34,31h1v1h-1z M37,31h1v1h-1z M38,31h1v1h-1z M39,31h1v1h-1z M40,31h1v1h-1z M41,31h1v1h-1z M44,31h1v1h-1z M45,31h1v1h-1z M46,31h1v1h-1z M47,31h1v1h-1z M5,32h1v1h-1z M9,32h1v1h-1z M10,32h1v1h-1z M11,32h1v1h-1z M12,32h1v1h-1z M13,32h1v1h-1z M14,32h1v1h-1z M15,32h1v1h-1z M18,32h1v1h-1z M22,32h1v1h-1z M28,32h1v1h-1z M30,32h1v1h-1z M33,32h1v1h-1z M35,32h1v1h-1z M37,32h1v1h-1z M40,32h1v1h-1z M41,32h1v1h-1z M42,32h1v1h-1z M44,32h1v1h-1z M47,32h1v1h-1z M5,33h1v1h-1z M7,33h1v1h-1z M9,33h1v1h-1z M12,33h1v1h-1z M13,33h1v1h-1z M14,33h1v1h-1z M15,33h1v1h-1z M16,33h1v1h-1z M18,33h1v1h-1z M20,33h1v1h-1z M21,33h1v1h-1z M22,33h1v1h-1z M26,33h1v1h-1z M27,33h1v1h-1z M28,33h1v1h-1z M31,33h1v1h-1z M33,33h1v1h-1z M34,33h1v1h-1z M37,33h1v1h-1z M39,33h1v1h-1z M40,33h1v1h-1z M41,33h1v1h-1z M42,33h1v1h-1z M45,33h1v1h-1z M4,34h1v1h-1z M5,34h1v1h-1z M8,34h1v1h-1z M10,34h1v1h-1z M12,34h1v1h-1z M13,34h1v1h-1z M16,34h1v1h-1z M17,34h1v1h-1z M22,34h1v1h-1z M23,34h1v1h-1z M25,34h1v1h-1z M26,34h1v1h-1z M27,34h1v1h-1z M29,34h1v1h-1z M31,34h1v1h-1z M32,34h1v1h-1z M36,34h1v1h-1z M37,34h1v1h-1z M39,34h1v1h-1z M41,34h1v1h-1z M42,34h1v1h-1z M43,34h1v1h-1z M44,34h1v1h-1z M48,34h1v1h-1z M8,35h1v1h-1z M9,35h1v1h-1z M11,35h1v1h-1z M13,35h1v1h-1z M14,35h1v1h-1z M21,35h1v1h-1z M22,35h1v1h-1z M24,35h1v1h-1z M26,35h1v1h-1z M28,35h1v1h-1z M29,35h1v1h-1z M32,35h1v1h-1z M33,35h1v1h-1z M34,35h1v1h-1z M35,35h1v1h-1z M36,35h1v1h-1z M39,35h1v1h-1z M42,35h1v1h-1z M45,35h1v1h-1z M46,35h1v1h-1z M47,35h1v1h-1z M4,36h1v1h-1z M7,36h1v1h-1z M9,36h1v1h-1z M10,36h1v1h-1z M13,36h1v1h-1z M14,36h1v1h-1z M16,36h1v1h-1z M18,36h1v1h-1z M19,36h1v1h-1z M20,36h1v1h-1z M21,36h1v1h-1z M23,36h1v1h-1z M24,36h1v1h-1z M27,36h1v1h-1z M28,36h1v1h-1z M34,36h1v1h-1z M35,36h1v1h-1z M37,36h1v1h-1z M41,36h1v1h-1z M42,36h1v1h-1z M43,36h1v1h-1z M44,36h1v1h-1z M47,36h1v1h-1z M4,37h1v1h-1z M9,37h1v1h-1z M11,37h1v1h-1z M12,37h1v1h-1z M13,37h1v1h-1z M21,37h1v1h-1z M23,37h1v1h-1z M27,37h1v1h-1z M29,37h1v1h-1z M30,37h1v1h-1z M34,37h1v1h-1z M35,37h1v1h-1z M36,37h1v1h-1z M38,37h1v1h-1z M43,37h1v1h-1z M44,37h1v1h-1z M45,37h1v1h-1z M8,38h1v1h-1z M10,38h1v1h-1z M11,38h1v1h-1z M12,38h1v1h-1z M14,38h1v1h-1z M15,38h1v1h-1z M18,38h1v1h-1z M19,38h1v1h-1z M21,38h1v1h-1z M24,38h1v1h-1z M25,38h1v1h-1z M30,38h1v1h-1z M35,38h1v1h-1z M38,38h1v1h-1z M39,38h1v1h-1z M45,38h1v1h-1z M46,38h1v1h-1z M47,38h1v1h-1z M5,39h1v1h-1z M6,39h1v1h-1z M7,39h1v1h-1z M8,39h1v1h-1z M11,39h1v1h-1z M16,39h1v1h-1z M17,39h1v1h-1z M19,39h1v1h-1z M21,39h1v1h-1z M22,39h1v1h-1z M25,39h1v1h-1z M27,39h1v1h-1z M28,39h1v1h-1z M29,39h1v1h-1z M31,39h1v1h-1z M32,39h1v1h-1z M33,39h1v1h-1z M36,39h1v1h-1z M39,39h1v1h-1z M41,39h1v1h-1z M42,39h1v1h-1z M44,39h1v1h-1z M45,39h1v1h-1z M46,39h1v1h-1z M47,39h1v1h-1z M48,39h1v1h-1z M4,40h1v1h-1z M7,40h1v1h-1z M8,40h1v1h-1z M10,40h1v1h-1z M11,40h1v1h-1z M15,40h1v1h-1z M18,40h1v1h-1z M22,40h1v1h-1z M23,40h1v1h-1z M24,40h1v1h-1z M25,40h1v1h-1z M26,40h1v1h-1z M27,40h1v1h-1z M28,40h1v1h-1z M30,40h1v1h-1z M31,40h1v1h-1z M32,40h1v1h-1z M33,40h1v1h-1z M34,40h1v1h-1z M35,40h1v1h-1z M36,40h1v1h-1z M39,40h1v1h-1z M40,40h1v1h-1z M41,40h1v1h-1z M42,40h1v1h-1z M43,40h1v1h-1z M44,40h1v1h-1z M45,40h1v1h-1z M12,41h1v1h-1z M14,41h1v1h-1z M18,41h1v1h-1z M19,41h1v1h-1z M21,41h1v1h-1z M22,41h1v1h-1z M23,41h1v1h-1z M24,41h1v1h-1z M28,41h1v1h-1z M29,41h1v1h-1z M32,41h1v1h-1z M34,41h1v1h-1z M36,41h1v1h-1z M37,41h1v1h-1z M39,41h1v1h-1z M40,41h1v1h-1z M44,41h1v1h-1z M45,41h1v1h-1z M46,41h1v1h-1z M47,41h1v1h-1z M48,41h1v1h-1z M4,42h1v1h-1z M5,42h1v1h-1z M6,42h1v1h-1z M7,42h1v1h-1z M8,42h1v1h-1z M9,42h1v1h-1z M10,42h1v1h-1z M14,42h1v1h-1z M16,42h1v1h-1z M20,42h1v1h-1z M21,42h1v1h-1z M23,42h1v1h-1z M24,42h1v1h-1z M26,42h1v1h-1z M28,42h1v1h-1z M30,42h1v1h-1z M31,42h1v1h-1z M35,42h1v1h-1z M38,42h1v1h-1z M39,42h1v1h-1z M40,42h1v1h-1z M42,42h1v1h-1z M44,42h1v1h-1z M46,42h1v1h-1z M47,42h1v1h-1z M4,43h1v1h-1z M10,43h1v1h-1z M13,43h1v1h-1z M15,43h1v1h-1z M16,43h1v1h-1z M17,43h1v1h-1z M23,43h1v1h-1z M24,43h1v1h-1z M28,43h1v1h-1z M30,43h1v1h-1z M35,43h1v1h-1z M37,43h1v1h-1z M39,43h1v1h-1z M40,43h1v1h-1z M44,43h1v1h-1z M45,43h1v1h-1z M46,43h1v1h-1z M47,43h1v1h-1z M48,43h1v1h-1z M4,44h1v1h-1z M6,44h1v1h-1z M7,44h1v1h-1z M8,44h1v1h-1z M10,44h1v1h-1z M13,44h1v1h-1z M15,44h1v1h-1z M16,44h1v1h-1z M17,44h1v1h-1z M20,44h1v1h-1z M21,44h1v1h-1z M22,44h1v1h-1z M24,44h1v1h-1z M25,44h1v1h-1z M26,44h1v1h-1z M27,44h1v1h-1z M28,44h1v1h-1z M29,44h1v1h-1z M30,44h1v1h-1z M33,44h1v1h-1z M34,44h1v1h-1z M37,44h1v1h-1z M38,44h1v1h-1z M39,44h1v1h-1z M40,44h1v1h-1z M41,44h1v1h-1z M42,44h1v1h-1z M43,44h1v1h-1z M44,44h1v1h-1z M45,44h1v1h-1z M4,45h1v1h-1z M6,45h1v1h-1z M7,45h1v1h-1z M8,45h1v1h-1z M10,45h1v1h-1z M13,45h1v1h-1z M16,45h1v1h-1z M18,45h1v1h-1z M20,45h1v1h-1z M23,45h1v1h-1z M25,45h1v1h-1z M27,45h1v1h-1z M28,45h1v1h-1z M29,45h1v1h-1z M32,45h1v1h-1z M33,45h1v1h-1z M34,45h1v1h-1z M35,45h1v1h-1z M36,45h1v1h-1z M37,45h1v1h-1z M39,45h1v1h-1z M44,45h1v1h-1z M47,45h1v1h-1z M48,45h1v1h-1z M4,46h1v1h-1z M6,46h1v1h-1z M7,46h1v1h-1z M8,46h1v1h-1z M10,46h1v1h-1z M13,46h1v1h-1z M15,46h1v1h-1z M16,46h1v1h-1z M18,46h1v1h-1z M19,46h1v1h-1z M20,46h1v1h-1z M21,46h1v1h-1z M28,46h1v1h-1z M33,46h1v1h-1z M35,46h1v1h-1z M36,46h1v1h-1z M37,46h1v1h-1z M40,46h1v1h-1z M41,46h1v1h-1z M42,46h1v1h-1z M44,46h1v1h-1z M45,46h1v1h-1z M48,46h1v1h-1z M4,47h1v1h-1z M10,47h1v1h-1z M13,47h1v1h-1z M15,47h1v1h-1z M18,47h1v1h-1z M19,47h1v1h-1z M24,47h1v1h-1z M25,47h1v1h-1z M26,47h1v1h-1z M28,47h1v1h-1z M29,47h1v1h-1z M30,47h1v1h-1z M32,47h1v1h-1z M34,47h1v1h-1z M35,47h1v1h-1z M36,47h1v1h-1z M40,47h1v1h-1z M41,47h1v1h-1z M43,47h1v1h-1z M44,47h1v1h-1z M45,47h1v1h-1z M46,47h1v1h-1z M4,48h1v1h-1z M5,48h1v1h-1z M6,48h1v1h-1z M7,48h1v1h-1z M8,48h1v1h-1z M9,48h1v1h-1z M10,48h1v1h-1z M12,48h1v1h-1z M14,48h1v1h-1z M15,48h1v1h-1z M16,48h1v1h-1z M17,48h1v1h-1z M18,48h1v1h-1z M19,48h1v1h-1z M21,48h1v1h-1z M22,48h1v1h-1z M23,48h1v1h-1z M26,48h1v1h-1z M27,48h1v1h-1z M28,48h1v1h-1z M29,48h1v1h-1z M30,48h1v1h-1z M35,48h1v1h-1z M39,48h1v1h-1z M40,48h1v1h-1z M41,48h1v1h-1z M44,48h1v1h-1z M45,48h1v1h-1z M47,48h1v1h-1z" fill="#000000"/>
</svg>
