<?xml version="1.0" encoding="UTF-8"?>
<!DOCTYPE svg PUBLIC "-//W3C//DTD SVG 1.1//EN" "http://www.w3.org/Graphics/SVG/1.1/DTD/svg11.dtd">
<svg xmlns="http://www.w3.org/2000/svg" version="1.1" viewBox="0 0 49 49" stroke="none">
	<rect width="100%" height="100%" fill="#FFFFFF"/>
	<path d="M4,4h1v1h-1z M5,4h1v1h-1z M6,4h1v1h-1z M7,4h1v1h-1z M8,4h1v1h-1z M9,4h1v1h-1z M10,4h1v1h-1z M13,4h1v1h-1z M14,4h1v1h-1z M15,4h1v1h-1z M16,4h1v1h-1z M19,4h1v1h-1z M20,4h1v1h-1z M21,4h1v1h-1z M23,4h1v1h-1z M25,4h1v1h-1z M27,4h1v1h-1z M28,4h1v1h-1z M34,4h1v1h-1z M38,4h1v1h-1z M39,4h1v1h-1z M40,4h1v1h-1z M41,4h1v1h-1z M42,4h1v1h-1z M43,4h1v1h-1z M44,4h1v1h-1z M4,5h1v1h-1z M10,5h1v1h-1z M14,5h1v1h-1z M16,5h1v1h-1z M20,5h1v1h-1z M24,5h1v1h-1z M25,5h1v1h-1z M26,5h1v1h-1z M27,5h1v1h-1z M29,5h1v1h-1z M31,5h1v1h-1z M36,5h1v1h-1z M38,5h1v1h-1z M44,5h1v1h-1z M4,6h1v1h-1z M6,6h1v1h-1z M7,6h1v1h-1z M8,6h1v1h-1z M10,6h1v1h-1z M14,6h1v1h-1z M15,6h1v1h-1z M16,6h1v1h-1z M18,6h1v1h-1z M19,6h1v1h-1z M20,6h1v1h-1z M21,6h1v1h-1z M22,6h1v1h-1z M23,6h1v1h-1z M24,6h1v1h-1z M26,6h1v1h-1z M27,6h1v1h-1z M28,6h1v1h-1z M31,6h1v1h-1z M33,6h1v1h-1z M36,6h1v1h-1z M38,6h1v1h-1z M40,6h1v1h-1z M41,6h1v1h-1z M42,6h1v1h-1z M44,6h1v1h-1z M4,7h1v1h-1z M6,7h1v1h-1z M7,7h1v1h-1z M8,7h1v1h-1z M10,7h1v1h-1z M14,7h1v1h-1z M15,7h1v1h-1z M25,7h1v1h-1z M26,7h1v1h-1z M27,7h1v1h-1z M28,7h1v1h-1z M30,7h1v1h-1z M34,7h1v1h-1z M35,7h1v1h-1z M38,7h1v1h-1z M40,7h1v1h-1z M41,7h1v1h-1z M42,7h1v1h-1z M44,7h1v1h-1z M4,8h1v1h-1z M6,8h1v1h-1z M7,8h1v1h-1z M8,8h1v1h-1z M10,8h1v1h-1z M13,8h1v1h-1z M15,8h1v1h-1z M24,8h1v1h-1z M29,8h1v1h-1z M30,8h1v1h-1z M31,8h1v1h-1z M32,8h1v1h-1z M38,8h1v1h-1z M40,8h1v1h-1z M41,8h1v1h-1z M42,8h1v1h-1z M44,8h1v1h-1z M4,9h1v1h-1z M10,9h1v1h-1z M12,9h1v1h-1z M15,9h1v1h-1z M16,9h1v1h-1z M17,9h1v1h-1z M19,9h1v1h-1z M20,9h1v1h-1z M23,9h1v1h-1z M24,9h1v1h-1z M25,9h1v1h-1z M26,9h1v1h-1z M28,9h1v1h-1z M29,9h1v1h-1z M31,9h1v1h-1z M33,9h1v1h-1z M34,9h1v1h-1z M35,9h1v1h-1z M38,9h1v1h-1z M44,9h1v1h-1z M4,10h1v1h-1z M5,10h1v1h-1z M6,10h1v1h-1z M7,10h1v1h-1z M8,10h1v1h-1z M9,10h1v1h-1z M10,10h1v1h-1z M12,10h1v1h-1z M14,10h1v1h-1z M16,10h1v1h-1z M18,10h1v1h-1z M20,10h1v1h-1z M22,10h1v1h-1z M24,10h1v1h-1z M26,10h1v1h-1z M28,10h1v1h-1z M30,10h1v1h-1z M32,10h1v1h-1z M34,10h1v1h-1z M36,10h1v1h-1z M38,10h1v1h-1z M39,10h1v1h-1z M40,10h1v1h-1z M41,10h1v1h-1z M42,10h1v1h-1z M43,10h1v1h-1z M44,10h1v1h-1z M14,11h1v1h-1z M15,11h1v1h-1z M17,11h1v1h-1z M21,11h1v1h-1z M22,11h1v1h-1z M23,11h1v1h-1z M25,11h1v1h-1z M27,11h1v1h-1z M28,11h1v1h-1z M32,11h1v1h-1z M33,11h1v1h-1z M34,11h1v1h-1z M35,11h1v1h-1z M4,12h1v1h-1z M7,12h1v1h-1z M9,12h1v1h-1z M10,12h1v1h-1z M12,12h1v1h-1z M14,12h1v1h-1z M17,12h1v1h-1z M18,12h1v1h-1z M20,12h1v1h-1z M25,12h1v1h-1z M26,12h1v1h-1z M27,12h1v1h-1z M28,12h1v1h-1z M29,12h1v1h-1z M30,12h1v1h-1z M36,12h1v1h-1z M37,12h1v1h-1z M39,12h1v1h-1z M5,13h1v1h-1z M7,13h1v1h-1z M8,13h1v1h-1z M9,13h1v1h-1z M11,13h1v1h-1z M12,13h1v1h-1z M13,13h1v1h-1z M16,13h1v1h-1z M18,13h1v1h-1z M19,13h1v1h-1z M22,13h1v1h-1z M24,13h1v1h-1z M25,13h1v1h-1z M28,13h1v1h-1z M29,13h1v1h-1z M32,13h1v1h-1z M34,13h1v1h-1z M36,13h1v1h-1z M37,13h1v1h-1z M38,13h1v1h-1z M41,13h1v1h-1z M42,13h1v1h-1z M43,13h1v1h-1z M4,14h1v1h-1z M6,14h1v1h-1z M9,14h1v1h-1z M10,14h1v1h-1z M11,14h1v1h-1z M13,14h1v1h-1z M16,14h1v1h-1z M21,14h1v1h-1z M23,14h1v1h-1z M24,14h1v1h-1z M25,14h1v1h-1z M29,14h1v1h-1z M32,14h1v1h-1z M33,14h1v1h-1z M35,14h1v1h-1z M37,14h1v1h-1z M40,14h1v1h-1z M41,14h1v1h-1z M42,14h1v1h-1z M43,14h1v1h-1z M5,15h1v1h-1z M14,15h1v1h-1z M15,15h1v1h-1z M17,15h1v1h-1z M20,15h1v1h-1z M23,15h1v1h-1z M25,15h1v1h-1z M28,15h1v1h-1z M29,15h1v1h-1z M30,15h1v1h-1z M34,15h1v1h-1z M38,15h1v1h-1z M42,15h1v1h-1z M43,15h1v1h-1z M44,15h1v1h-1z M4,16h1v1h-1z M5,16h1v1h-1z M10,16h1v1h-1z M12,16h1v1h-1z M13,16h1v1h-1z M14,16h1v1h-1z M15,16h1v1h-1z M17,16h1v1h-1z M20,16h1v1h-1z M21,16h1v1h-1z M22,16h1v1h-1z M27,16h1v1h-1z M28,16h1v1h-1z M29,16h1v1h-1z M32,16h1v1h-1z M33,16h1v1h-1z M36,16h1v1h-1z M37,16h1v1h-1z M38,16h1v1h-1z M41,16h1v1h-1z M44,16h1v1h-1z M5,17h1v1h-1z M6,17h1v1h-1z M7,17h1v1h-1z M16,17h1v1h-1z M21,17h1v1h-1z M23,17h1v1h-1z M25,17h1v1h-1z M26,17h1v1h-1z M28,17h1v1h-1z M32,17h1v1h-1z M33,17h1v1h-1z M35,17h1v1h-1z M36,17h1v1h-1z M39,17h1v1h-1z M6,18h1v1h-1z M7,18h1v1h-1z M8,18h1v1h-1z M9,18h1v1h-1z M10,18h1v1h-1z M13,18h1v1h-1z M14,18h1v1h-1z M15,18h1v1h-1z M17,18h1v1h-1z M18,18h1v1h-1z M21,18h1v1h-1z M26,18h1v1h-1z M27,18h1v1h-1z M28,18h1v1h-1z M32,18h1v1h-1z M34,18h1v1h-1z M39,18h1v1h-1z M40,18h1v1h-1z M41,18h1v1h-1z M42,18h1v1h-1z M43,18h1v1h-1z M44,18h1v1h-1z M5,19h1v1h-1z M7,19h1v1h-1z M9,19h1v1h-1z M11,19h1v1h-1z M12,19h1v1h-1z M13,19h1v1h-1z M15,19h1v1h-1z M16,19h1v1h-1z M17,19h1v1h-1z M19,19h1v1h-1z M21,19h1v1h-1z M25,19h1v1h-1z M26,19h1v1h-1z M27,19h1v1h-1z M29,19h1v1h-1z M31,19h1v1h-1z M32,19h1v1h-1z M33,19h1v1h-1z M36,19h1v1h-1z M37,19h1v1h-1z M38,19h1v1h-1z M5,20h1v1h-1z M8,20h1v1h-1z M10,20h1v1h-1z M11,20h1v1h-1z M14,20h1v1h-1z M15,20h1v1h-1z M17,20h1v1h-1z M18,20h1v1h-1z M19,20h1v1h-1z M21,20h1v1h-1z M23,20h1v1h-1z M24,20h1v1h-1z M25,20h1v1h-1z M29,20h1v1h-1z M31,20h1v1h-1z M33,20h1v1h-1z M36,20h1v1h-1z M39,20h1v1h-1z M43,20h1v1h-1z M5,21h1v1h-1z M6,21h1v1h-1z M13,21h1v1h-1z M15,21h1v1h-1z M22,21h1v1h-1z M23,21h1v1h-1z M26,21h1v1h-1z M27,21h1v1h-1z M29,21h1v1h-1z M37,21h1v1h-1z M38,21h1v1h-1z M41,21h1v1h-1z M4,22h1v1h-1z M5,22h1v1h-1z M6,22h1v1h-1z M8,22h1v1h-1z M9,22h1v1h-1z M10,22h1v1h-1z M11,22h1v1h-1z M12,22h1v1h-1z M16,22h1v1h-1z M19,22h1v1h-1z M20,22h1v1h-1z M22,22h1v1h-1z M25,22h1v1h-1z M29,22h1v1h-1z M33,22h1v1h-1z M34,22h1v1h-1z M37,22h1v1h-1z M40,22h1v1h-1z M42,22h1v1h-1z M43,22h1v1h-1z M44,22h1v1h-1z M6,23h1v1h-1z M7,23h1v1h-1z M11,23h1v1h-1z M12,23h1v1h-1z M13,23h1v1h-1z M14,23h1v1h-1z M15,23h1v1h-1z M19,23h1v1h-1z M21,23h1v1h-1z M22,23h1v1h-1z M23,23h1v1h-1z M24,23h1v1h-1z M25,23h1v1h-1z M26,23h1v1h-1z M27,23h1v1h-1z M30,23h1v1h-1z M32,23h1v1h-1z M33,23h1v1h-1z M34,23h1v1h-1z M35,23h1v1h-1z M36,23h1v1h-1z M39,23h1v1h-1z M41,23h1v1h-1z M44,23h1v1h-1z M8,24h1v1h-1z M10,24h1v1h-1z M12,24h1v1h-1z M13,24h1v1h-1z M16,24h1v1h-1z M18,24h1v1h-1z M20,24h1v1h-1z M23,24h1v1h-1z M25,24h1v1h-1z M27,24h1v1h-1z M29,24h1v1h-1z M30,24h1v1h-1z M31,24h1v1h-1z M32,24h1v1h-1z M35,24h1v1h-1z M36,24h1v1h-1z M38,24h1v1h-1z M39,24h1v1h-1z M42,24h1v1h-1z M43,24h1v1h-1z M44,24h1v1h-1z M4,25h1v1h-1z M5,25h1v1h-1z M8,25h1v1h-1z M9,25h1v1h-1z M11,25h1v1h-1z M17,25h1v1h-1z M19,25h1v1h-1z M21,25h1v1h-1z M22,25h1v1h-1z M26,25h1v1h-1z M27,25h1v1h-1z M28,25h1v1h-1z M29,25h1v1h-1z M30,25h1v1h-1z M33,25h1v1h-1z M34,25h1v1h-1z M36,25h1v1h-1z M38,25h1v1h-1z M42,25h1v1h-1z M43,25h1v1h-1z M44,25h1v1h-1z M4,26h1v1h-1z M6,26h1v1h-1z M9,26h1v1h-1z M10,26h1v1h-1z M13,26h1v1h-1z M16,26h1v1h-1z M17,26h1v1h-1z M23,26h1v1h-1z M24,26h1v1h-1z M25,26h1v1h-1z M26,26h1v1h-1z M29,26h1v1h-1z M30,26h1v1h-1z M32,26h1v1h-1z M33,26h1v1h-1z M35,26h1v1h-1z M36,26h1v1h-1z M37,26h1v1h-1z M38,26h1v1h-1z M41,26h1v1h-1z M42,26h1v1h-1z M43,26h1v1h-1z M4,27h1v1h-1z M6,27h1v1h-1z M9,27h1v1h-1z M12,27h1v1h-1z M13,27h1v1h-1z M14,27h1v1h-1z M17,27h1v1h-1z M19,27h1v1h-1z M20,27h1v1h-1z M24,27h1v1h-1z M25,27h1v1h-1z M26,27h1v1h-1z M29,27h1v1h-1z M34,27h1v1h-1z M36,27h1v1h-1z M37,27h1v1h-1z M39,27h1v1h-1z M40,27h1v1h-1z M42,27h1v1h-1z M43,27h1v1h-1z M44,27h1v1h-1z M4,28h1v1h-1z M6,28h1v1h-1z M7,28h1v1h-1z M9,28h1v1h-1z M10,28h1v1h-1z M12,28h1v1h-1z M13,28h1v1h-1z M14,28h1v1h-1z M18,28h1v1h-1z M20,28h1v1h-1z M21,28h1v1h-1z M22,28h1v1h-1z M23,28h1v1h-1z M25,28h1v1h-1z M28,28h1v1h-1z M29,28h1v1h-1z M31,28h1v1h-1z M33,28h1v1h-1z M34,28h1v1h-1z M35,28h1v1h-1z M37,28h1v1h-1z M38,28h1v1h-1z M39,28h1v1h-1z M4,29h1v1h-1z M6,29h1v1h-1z M8,29h1v1h-1z M12,29h1v1h-1z M13,29h1v1h-1z M15,29h1v1h-1z M20,29h1v1h-1z M23,29h1v1h-1z M24,29h1v1h-1z M26,29h1v1h-1z M28,29h1v1h-1z M30,29h1v1h-1z M35,29h1v1h-1z M36,29h1v1h-1z M37,29h1v1h-1z M41,29h1v1h-1z M4,30h1v1h-1z M6,30h1v1h-1z M7,30h1v1h-1z M10,30h1v1h-1z M11,30h1v1h-1z M15,30h1v1h-1z M16,30h1v1h-1z M18,30h1v1h-1z M19,30h1v1h-1z M20,30h1v1h-1z M24,30h1v1h-1z M27,30h1v1h-1z M28,30h1v1h-1z M36,30h1v1h-1z M37,30h1v1h-1z M38,30h1v1h-1z M40,30h1v1h-1z M43,30h1v1h-1z M44,30h1v1h-1z M5,31h1v1h-1z M6,31h1v1h-1z M7,31h1v1h-1z M8,31h1v1h-1z M12,31h1v1h-1z M14,31h1v1h-1z M17,31h1v1h-1z M18,31h1v1h-1z M19,31h1v1h-1z M21,31h1v1h-1z M25,31h1v1h-1z M28,31h1v1h-1z M29,31h1v1h-1z M30,31h1v1h-1z M31,31h1v1h-1z M32,31h1v1h-1z M33,31h1v1h-1z M36,31h1v1h-1z M37,31h1v1h-1z M40,31h1v1h-1z M4,32h1v1h-1z M5,32h1v1h-1z M6,32h1v1h-1z M7,32h1v1h-1z M8,32h1v1h-1z M9,32h1v1h-1z M10,32h1v1h-1z M11,32h1v1h-1z M12,32h1v1h-1z M13,32h1v1h-1z M14,32h1v1h-1z M15,32h1v1h-1z M17,32h1v1h-1z M18,32h1v1h-1z M21,32h1v1h-1z M22,32h1v1h-1z M23,32h1v1h-1z M24,32h1v1h-1z M25,32h1v1h-1z M27,32h1v1h-1z M33,32h1v1h-1z M34,32h1v1h-1z M36,32h1v1h-1z M37,32h1v1h-1z M39,32h1v1h-1z M43,32h1v1h-1z M9,33h1v1h-1z M11,33h1v1h-1z M12,33h1v1h-1z M14,33h1v1h-1z M19,33h1v1h-1z M24,33h1v1h-1z M25,33h1v1h-1z M27,33h1v1h-1z M28,33h1v1h-1z M29,33h1v1h-1z M33,33h1v1h-1z M34,33h1v1h-1z M36,33h1v1h-1z M37,33h1v1h-1z M38,33h1v1h-1z M39,33h1v1h-1z M42,33h1v1h-1z M43,33h1v1h-1z M4,34h1v1h-1z M6,34h1v1h-1z M8,34h1v1h-1z M9,34h1v1h-1z M10,34h1v1h-1z M11,34h1v1h-1z M13,34h1v1h-1z M26,34h1v1h-1z M29,34h1v1h-1z M30,34h1v1h-1z M32,34h1v1h-1z M33,34h1v1h-1z M36,34h1v1h-1z M37,34h1v1h-1z M39,34h1v1h-1z M40,34h1v1h-1z M42,34h1v1h-1z M43,34h1v1h-1z M44,34h1v1h-1z M9,35h1v1h-1z M11,35h1v1h-1z M13,35h1v1h-1z M14,35h1v1h-1z M15,35h1v1h-1z M18,35h1v1h-1z M20,35h1v1h-1z M21,35h1v1h-1z M24,35h1v1h-1z M25,35h1v1h-1z M26,35h1v1h-1z M27,35h1v1h-1z M32,35h1v1h-1z M33,35h1v1h-1z M34,35h1v1h-1z M39,35h1v1h-1z M41,35h1v1h-1z M4,36h1v1h-1z M6,36h1v1h-1z M7,36h1v1h-1z M8,36h1v1h-1z M9,36h1v1h-1z M10,36h1v1h-1z M11,36h1v1h-1z M12,36h1v1h-1z M13,36h1v1h-1z M14,36h1v1h-1z M18,36h1v1h-1z M19,36h1v1h-1z M23,36h1v1h-1z M24,36h1v1h-1z M25,36h1v1h-1z M26,36h1v1h-1z M27,36h1v1h-1z M29,36h1v1h-1z M32,36h1v1h-1z M35,36h1v1h-1z M36,36h1v1h-1z M37,36h1v1h-1z M38,36h1v1h-1z M39,36h1v1h-1z M40,36h1v1h-1z M42,36h1v1h-1z M43,36h1v1h-1z M12,37h1v1h-1z M14,37h1v1h-1z M18,37h1v1h-1z M20,37h1v1h-1z M23,37h1v1h-1z M24,37h1v1h-1z M25,37h1v1h-1z M26,37h1v1h-1z M29,37h1v1h-1z M30,37h1v1h-1z M32,37h1v1h-1z M33,37h1v1h-1z M35,37h1v1h-1z M36,37h1v1h-1z M40,37h1v1h-1z M41,37h1v1h-1z M43,37h1v1h-1z M44,37h1v1h-1z M4,38h1v1h-1z M5,38h1v1h-1z M6,38h1v1h-1z M7,38h1v1h-1z M8,38h1v1h-1z M9,38h1v1h-1z M10,38h1v1h-1z M13,38h1v1h-1z M15,38h1v1h-1z M19,38h1v1h-1z M20,38h1v1h-1z M23,38h1v1h-1z M24,38h1v1h-1z M26,38h1v1h-1z M30,38h1v1h-1z M32,38h1v1h-1z M33,38h1v1h-1z M36,38h1v1h-1z M38,38h1v1h-1z M40,38h1v1h-1z M42,38h1v1h-1z M43,38h1v1h-1z M4,39h1v1h-1z M10,39h1v1h-1z M12,39h1v1h-1z M15,39h1v1h-1z M18,39h1v1h-1z M19,39h1v1h-1z M20,39h1v1h-1z M22,39h1v1h-1z M24,39h1v1h-1z M25,39h1v1h-1z M26,39h1v1h-1z M29,39h1v1h-1z M30,39h1v1h-1z M32,39h1v1h-1z M35,39h1v1h-1z M36,39h1v1h-1z M40,39h1v1h-1z M42,39h1v1h-1z M44,39h1v1h-1z M4,40h1v1h-1z M6,40h1v1h-1z M7,40h1v1h-1z M8,40h1v1h-1z M10,40h1v1h-1z M13,40h1v1h-1z M14,40h1v1h-1z M19,40h1v1h-1z M20,40h1v1h-1z M22,40h1v1h-1z M25,40h1v1h-1z M28,40h1v1h-1z M29,40h1v1h-1z M31,40h1v1h-1z M33,40h1v1h-1z M34,40h1v1h-1z M36,40h1v1h-1z M37,40h1v1h-1z M38,40h1v1h-1z M39,40h1v1h-1z M40,40h1v1h-1z M43,40h1v1h-1z M4,41h1v1h-1z M6,41h1v1h-1z M7,41h1v1h-1z M8,41h1v1h-1z M10,41h1v1h-1z M12,41h1v1h-1z M14,41h1v1h-1z M15,41h1v1h-1z M17,41h1v1h-1z M20,41h1v1h-1z M23,41h1v1h-1z M25,41h1v1h-1z M26,41h1v1h-1z M28,41h1v1h-1z M35,41h1v1h-1z M37,41h1v1h-1z M38,41h1v1h-1z M40,41h1v1h-1z M41,41h1v1h-1z M43,41h1v1h-1z M4,42h1v1h-1z M6,42h1v1h-1z M7,42h1v1h-1z M8,42h1v1h-1z M10,42h1v1h-1z M13,42h1v1h-1z M14,42h1v1h-1z M15,42h1v1h-1z M17,42h1v1h-1z M18,42h1v1h-1z M21,42h1v1h-1z M27,42h1v1h-1z M28,42h1v1h-1z M30,42h1v1h-1z M35,42h1v1h-1z M40,42h1v1h-1z M41,42h1v1h-1z M43,42h1v1h-1z M44,42h1v1h-1z M4,43h1v1h-1z M10,43h1v1h-1z M25,43h1v1h-1z M26,43h1v1h-1z M27,43h1v1h-1z M28,43h1v1h-1z M29,43h1v1h-1z M31,43h1v1h-1z M32,43h1v1h-1z M33,43h1v1h-1z M35,43h1v1h-1z M36,43h1v1h-1z M38,43h1v1h-1z M39,43h1v1h-1z M43,43h1v1h-1z M4,44h1v1h-1z M5,44h1v1h-1z M6,44h1v1h-1z M7,44h1v1h-1z M8,44h1v1h-1z M9,44h1v1h-1z M10,44h1v1h-1z M12,44h1v1h-1z M16,44h1v1h-1z M19,44h1v1h-1z M21,44h1v1h-1z M23,44h1v1h-1z M25,44h1v1h-1z M26,44h1v1h-1z M28,44h1v1h-1z M30,44h1v1h-1z M31,44h1v1h-1z M33,44h1v1h-1z M36,44h1v1h-1z M37,44h1v1h-1z M38,44h1v1h-1z M39,44h1v1h-1z M40,44h1v1h-1z M41,44h1v1h-1z M43,44h1v1h-1z" fill="#000000"/>
</svg>